<svg width="616" height="213" viewBox="0 0 616 213" fill="none" xmlns="http://www.w3.org/2000/svg">
<rect width="616" height="212.33" rx="12" fill="#171717"/>
<rect x="0.5" y="0.5" width="615" height="211.33" rx="11.5" stroke="white" stroke-opacity="0.05"/>
<rect x="13" y="14.1667" width="24" height="24" rx="6" fill="white" fill-opacity="0.05"/>
<rect x="13.5" y="14.6667" width="23" height="23" rx="5.5" stroke="white" stroke-opacity="0.1"/>
<path d="M25.0029 29.8533C24.7228 29.8533 24.4828 29.7548 24.2827 29.5578C24.0827 29.3608 23.9842 29.1208 23.9873 28.8376C23.9842 28.5607 24.0827 28.3237 24.2827 28.1267C24.4828 27.9297 24.7228 27.8313 25.0029 27.8313C25.2737 27.8313 25.5092 27.9297 25.7092 28.1267C25.9123 28.3237 26.0154 28.5607 26.0185 28.8376C26.0154 29.0254 25.9662 29.1962 25.8708 29.3501C25.7785 29.504 25.6553 29.6271 25.5015 29.7194C25.3507 29.8086 25.1845 29.8533 25.0029 29.8533Z" fill="#A1A1A1"/>
<g clip-path="url(#clip0_8_232)">
<path d="M49.5592 23.13V21.9303H56.7075V23.13H53.8256V31.1667H52.4366V23.13H49.5592ZM59.2522 31.32C58.8133 31.32 58.4164 31.2388 58.0616 31.0765C57.7068 30.9111 57.4257 30.6721 57.2182 30.3594C57.0138 30.0467 56.9116 29.6634 56.9116 29.2094C56.9116 28.8185 56.9867 28.4968 57.1371 28.2442C57.2874 27.9917 57.4903 27.7917 57.7459 27.6444C58.0015 27.4971 58.2871 27.3859 58.6028 27.3107C58.9185 27.2355 59.2402 27.1784 59.5679 27.1393C59.9828 27.0912 60.3196 27.0521 60.5782 27.022C60.8367 26.989 61.0246 26.9364 61.1419 26.8642C61.2592 26.792 61.3178 26.6748 61.3178 26.5124V26.4809C61.3178 26.087 61.2065 25.7818 60.984 25.5653C60.7646 25.3489 60.4368 25.2406 60.0009 25.2406C59.5469 25.2406 59.1891 25.3413 58.9275 25.5428C58.6689 25.7412 58.49 25.9622 58.3908 26.2057L57.1235 25.9171C57.2739 25.4962 57.4934 25.1564 57.782 24.8979C58.0736 24.6363 58.4089 24.4469 58.7877 24.3296C59.1665 24.2093 59.5649 24.1492 59.9828 24.1492C60.2594 24.1492 60.5526 24.1823 60.8623 24.2484C61.175 24.3116 61.4666 24.4288 61.7372 24.6002C62.0108 24.7716 62.2348 25.0166 62.4092 25.3353C62.5836 25.651 62.6708 26.0614 62.6708 26.5665V31.1667H61.3539V30.2196H61.2997C61.2126 30.394 61.0818 30.5654 60.9074 30.7337C60.733 30.9021 60.509 31.0419 60.2354 31.1532C59.9618 31.2644 59.6341 31.32 59.2522 31.32ZM59.5454 30.2376C59.9182 30.2376 60.2369 30.164 60.5015 30.0167C60.7691 29.8693 60.972 29.6769 61.1103 29.4394C61.2516 29.1988 61.3223 28.9418 61.3223 28.6682V27.7752C61.2742 27.8233 61.181 27.8684 61.0427 27.9105C60.9074 27.9496 60.7525 27.9842 60.5782 28.0142C60.4038 28.0413 60.2339 28.0669 60.0685 28.0909C59.9032 28.112 59.7649 28.13 59.6536 28.145C59.392 28.1781 59.153 28.2337 58.9365 28.3119C58.7231 28.3901 58.5517 28.5028 58.4224 28.6501C58.2961 28.7945 58.233 28.9869 58.233 29.2274C58.233 29.5611 58.3563 29.8137 58.6028 29.9851C58.8493 30.1535 59.1635 30.2376 59.5454 30.2376ZM64.4668 31.1667V24.2394H65.7702V25.3398H65.8424C65.9687 24.967 66.1912 24.6739 66.5099 24.4604C66.8316 24.2439 67.1954 24.1357 67.6013 24.1357C67.6854 24.1357 67.7847 24.1387 67.8989 24.1447C68.0162 24.1507 68.1079 24.1582 68.174 24.1673V25.4571C68.1199 25.4421 68.0237 25.4255 67.8854 25.4075C67.7471 25.3864 67.6088 25.3759 67.4705 25.3759C67.1518 25.3759 66.8676 25.4436 66.6181 25.5789C66.3715 25.7112 66.1761 25.8961 66.0318 26.1336C65.8875 26.3681 65.8153 26.6357 65.8153 26.9364V31.1667H64.4668ZM69.341 31.1667V24.2394H70.6894V31.1667H69.341ZM70.022 23.1706C69.7875 23.1706 69.586 23.0924 69.4176 22.936C69.2523 22.7767 69.1696 22.5873 69.1696 22.3678C69.1696 22.1453 69.2523 21.9559 69.4176 21.7995C69.586 21.6402 69.7875 21.5605 70.022 21.5605C70.2565 21.5605 70.4564 21.6402 70.6218 21.7995C70.7902 21.9559 70.8744 22.1453 70.8744 22.3678C70.8744 22.5873 70.7902 22.7767 70.6218 22.936C70.4564 23.0924 70.2565 23.1706 70.022 23.1706ZM73.852 27.0536V31.1667H72.5036V21.9303H73.834V25.3669H73.9197C74.082 24.9941 74.3301 24.6979 74.6638 24.4784C74.9976 24.259 75.4335 24.1492 75.9717 24.1492C76.4468 24.1492 76.8617 24.2469 77.2165 24.4424C77.5742 24.6378 77.8509 24.9294 78.0463 25.3173C78.2447 25.7021 78.3439 26.1832 78.3439 26.7605V31.1667H76.9955V26.9228C76.9955 26.4147 76.8647 26.0208 76.6031 25.7412C76.3415 25.4586 75.9777 25.3173 75.5117 25.3173C75.193 25.3173 74.9074 25.3849 74.6548 25.5202C74.4053 25.6555 74.2083 25.854 74.064 26.1156C73.9227 26.3741 73.852 26.6868 73.852 27.0536ZM88.6503 24.3567C88.6022 23.9297 88.4038 23.599 88.055 23.3645C87.7062 23.127 87.2672 23.0082 86.7381 23.0082C86.3592 23.0082 86.0315 23.0683 85.7549 23.1886C85.4783 23.3059 85.2633 23.4682 85.11 23.6757C84.9597 23.8801 84.8845 24.1131 84.8845 24.3747C84.8845 24.5942 84.9356 24.7836 85.0378 24.943C85.1431 25.1023 85.2799 25.2361 85.4482 25.3444C85.6196 25.4496 85.803 25.5383 85.9984 25.6104C86.1939 25.6796 86.3818 25.7367 86.5622 25.7818L87.4642 26.0163C87.7588 26.0885 88.061 26.1862 88.3707 26.3095C88.6804 26.4327 88.9675 26.5951 89.2321 26.7966C89.4967 26.998 89.7101 27.2475 89.8725 27.5452C90.0379 27.8429 90.1205 28.1991 90.1205 28.6141C90.1205 29.1372 89.9852 29.6017 89.7146 30.0076C89.4471 30.4135 89.0577 30.7337 88.5466 30.9682C88.0384 31.2028 87.4236 31.32 86.702 31.32C86.0105 31.32 85.4122 31.2103 84.907 30.9908C84.4019 30.7713 84.0066 30.4601 83.7209 30.0572C83.4353 29.6513 83.2774 29.1703 83.2474 28.6141H84.6455C84.6725 28.9478 84.7808 29.2259 84.9702 29.4484C85.1626 29.6679 85.4076 29.8317 85.7053 29.94C86.006 30.0452 86.3352 30.0978 86.693 30.0978C87.0868 30.0978 87.4371 30.0362 87.7438 29.9129C88.0535 29.7866 88.297 29.6123 88.4744 29.3898C88.6518 29.1643 88.7405 28.9012 88.7405 28.6005C88.7405 28.3269 88.6623 28.1029 88.506 27.9285C88.3526 27.7542 88.1437 27.6098 87.8791 27.4956C87.6175 27.3813 87.3214 27.2806 86.9906 27.1934L85.8992 26.8958C85.1596 26.6943 84.5733 26.3982 84.1404 26.0073C83.7104 25.6165 83.4954 25.0993 83.4954 24.4559C83.4954 23.9237 83.6397 23.4592 83.9284 23.0623C84.217 22.6654 84.6079 22.3573 85.101 22.1378C85.5941 21.9153 86.1503 21.804 86.7696 21.804C87.395 21.804 87.9467 21.9138 88.4248 22.1333C88.9059 22.3528 89.2847 22.6549 89.5613 23.0398C89.8379 23.4216 89.9822 23.8606 89.9943 24.3567H88.6503ZM94.6632 31.3065C93.9807 31.3065 93.3929 31.1607 92.8998 30.869C92.4097 30.5744 92.0309 30.161 91.7633 29.6288C91.4987 29.0936 91.3664 28.4667 91.3664 27.7481C91.3664 27.0386 91.4987 26.4132 91.7633 25.872C92.0309 25.3308 92.4037 24.9084 92.8817 24.6047C93.3628 24.3011 93.925 24.1492 94.5685 24.1492C94.9593 24.1492 95.3382 24.2139 95.705 24.3431C96.0718 24.4724 96.401 24.6754 96.6926 24.952C96.9843 25.2286 97.2143 25.5879 97.3827 26.0299C97.551 26.4688 97.6352 27.0025 97.6352 27.6309V28.1089H92.1286V27.0987H96.3138C96.3138 26.7439 96.2417 26.4297 96.0973 26.1561C95.953 25.8795 95.7501 25.6615 95.4885 25.5022C95.2299 25.3428 94.9263 25.2632 94.5775 25.2632C94.1986 25.2632 93.8679 25.3564 93.5853 25.5428C93.3057 25.7262 93.0892 25.9667 92.9359 26.2644C92.7855 26.559 92.7104 26.8792 92.7104 27.225V28.0142C92.7104 28.4773 92.7915 28.8711 92.9539 29.1958C93.1193 29.5206 93.3493 29.7686 93.6439 29.94C93.9386 30.1084 94.2828 30.1925 94.6767 30.1925C94.9323 30.1925 95.1653 30.1565 95.3757 30.0843C95.5862 30.0091 95.7681 29.8979 95.9214 29.7506C96.0748 29.6032 96.192 29.4213 96.2732 29.2049L97.5495 29.4349C97.4473 29.8107 97.2639 30.1399 96.9993 30.4225C96.7377 30.7022 96.4085 30.9201 96.0116 31.0765C95.6178 31.2298 95.1683 31.3065 94.6632 31.3065ZM102.049 31.3065C101.379 31.3065 100.802 31.1547 100.318 30.851C99.8365 30.5443 99.4666 30.1219 99.2081 29.5837C98.9495 29.0455 98.8202 28.4292 98.8202 27.7346C98.8202 27.0311 98.9525 26.4102 99.2171 25.872C99.4817 25.3308 99.8545 24.9084 100.336 24.6047C100.817 24.3011 101.383 24.1492 102.036 24.1492C102.562 24.1492 103.031 24.2469 103.443 24.4424C103.855 24.6348 104.187 24.9054 104.44 25.2542C104.695 25.6029 104.847 26.0103 104.895 26.4763H103.583C103.511 26.1516 103.345 25.872 103.087 25.6375C102.831 25.403 102.488 25.2857 102.058 25.2857C101.683 25.2857 101.353 25.3849 101.071 25.5834C100.791 25.7788 100.573 26.0584 100.417 26.4222C100.26 26.783 100.182 27.21 100.182 27.7031C100.182 28.2082 100.259 28.6441 100.412 29.0109C100.566 29.3777 100.782 29.6619 101.062 29.8633C101.344 30.0648 101.677 30.1655 102.058 30.1655C102.314 30.1655 102.545 30.1189 102.753 30.0257C102.963 29.9295 103.139 29.7927 103.281 29.6153C103.425 29.4379 103.526 29.2244 103.583 28.9749H104.895C104.847 29.4228 104.701 29.8227 104.458 30.1745C104.214 30.5263 103.888 30.8029 103.479 31.0043C103.073 31.2058 102.597 31.3065 102.049 31.3065ZM101.562 31.1306H102.446L102.374 31.5004C102.636 31.5425 102.864 31.6477 103.06 31.8161C103.255 31.9845 103.353 32.2386 103.353 32.5783C103.356 32.9842 103.18 33.3134 102.825 33.566C102.473 33.8185 101.964 33.9448 101.296 33.9448L101.269 33.1917C101.582 33.1917 101.834 33.1466 102.027 33.0564C102.222 32.9662 102.321 32.8203 102.324 32.6189C102.327 32.4174 102.252 32.2761 102.099 32.195C101.949 32.1138 101.708 32.0566 101.377 32.0236L101.562 31.1306ZM106.337 31.1667V24.2394H107.686V31.1667H106.337ZM107.018 23.1706C106.784 23.1706 106.582 23.0924 106.414 22.936C106.248 22.7767 106.166 22.5873 106.166 22.3678C106.166 22.1453 106.248 21.9559 106.414 21.7995C106.582 21.6402 106.784 21.5605 107.018 21.5605C107.253 21.5605 107.453 21.6402 107.618 21.7995C107.786 21.9559 107.871 22.1453 107.871 22.3678C107.871 22.5873 107.786 22.7767 107.618 22.936C107.453 23.0924 107.253 23.1706 107.018 23.1706ZM112.418 31.3065C111.747 31.3065 111.17 31.1547 110.686 30.851C110.205 30.5443 109.835 30.1219 109.576 29.5837C109.318 29.0455 109.189 28.4292 109.189 27.7346C109.189 27.0311 109.321 26.4102 109.585 25.872C109.85 25.3308 110.223 24.9084 110.704 24.6047C111.185 24.3011 111.752 24.1492 112.404 24.1492C112.93 24.1492 113.399 24.2469 113.811 24.4424C114.223 24.6348 114.555 24.9054 114.808 25.2542C115.064 25.6029 115.215 26.0103 115.263 26.4763H113.951C113.879 26.1516 113.714 25.872 113.455 25.6375C113.199 25.403 112.857 25.2857 112.427 25.2857C112.051 25.2857 111.722 25.3849 111.439 25.5834C111.159 25.7788 110.941 26.0584 110.785 26.4222C110.629 26.783 110.551 27.21 110.551 27.7031C110.551 28.2082 110.627 28.6441 110.781 29.0109C110.934 29.3777 111.15 29.6619 111.43 29.8633C111.713 30.0648 112.045 30.1655 112.427 30.1655C112.682 30.1655 112.914 30.1189 113.121 30.0257C113.332 29.9295 113.508 29.7927 113.649 29.6153C113.793 29.4379 113.894 29.2244 113.951 28.9749H115.263C115.215 29.4228 115.07 29.8227 114.826 30.1745C114.582 30.5263 114.256 30.8029 113.847 31.0043C113.441 31.2058 112.965 31.3065 112.418 31.3065ZM116.706 31.1667V24.2394H118.054V31.1667H116.706ZM117.387 23.1706C117.152 23.1706 116.951 23.0924 116.782 22.936C116.617 22.7767 116.534 22.5873 116.534 22.3678C116.534 22.1453 116.617 21.9559 116.782 21.7995C116.951 21.6402 117.152 21.5605 117.387 21.5605C117.621 21.5605 117.821 21.6402 117.986 21.7995C118.155 21.9559 118.239 22.1453 118.239 22.3678C118.239 22.5873 118.155 22.7767 117.986 22.936C117.821 23.0924 117.621 23.1706 117.387 23.1706Z" fill="#E5E5E5"/>
</g>
<rect x="401.333" y="11" width="64.3333" height="30.3333" rx="8" fill="white" fill-opacity="0.05"/>
<rect x="401.833" y="11.5" width="63.3333" height="29.3333" rx="7.5" stroke="white" stroke-opacity="0.1"/>
<path d="M413.25 21.2917V27.7917" stroke="#A1A1A1" stroke-width="1.08333" stroke-linecap="round" stroke-linejoin="round"/>
<path d="M419.75 24.5417C420.647 24.5417 421.375 23.8141 421.375 22.9167C421.375 22.0192 420.647 21.2917 419.75 21.2917C418.853 21.2917 418.125 22.0192 418.125 22.9167C418.125 23.8141 418.853 24.5417 419.75 24.5417Z" stroke="#A1A1A1" stroke-width="1.08333" stroke-linecap="round" stroke-linejoin="round"/>
<path d="M413.25 31.0417C414.147 31.0417 414.875 30.3141 414.875 29.4167C414.875 28.5192 414.147 27.7917 413.25 27.7917C412.353 27.7917 411.625 28.5192 411.625 29.4167C411.625 30.3141 412.353 31.0417 413.25 31.0417Z" stroke="#A1A1A1" stroke-width="1.08333" stroke-linecap="round" stroke-linejoin="round"/>
<path d="M419.75 24.5417C419.75 25.8346 419.236 27.0746 418.322 27.9888C417.408 28.9031 416.168 29.4167 414.875 29.4167" stroke="#A1A1A1" stroke-width="1.08333" stroke-linecap="round" stroke-linejoin="round"/>
<path d="M430.155 29.6667V22.0303H431.307V25.677H431.401L434.603 22.0303H436.054L432.974 25.4682L436.065 29.6667H434.678L432.21 26.2549L431.307 27.2915V29.6667H430.155ZM439.03 29.7823C438.493 29.7823 438.025 29.6592 437.625 29.4131C437.224 29.167 436.914 28.8228 436.692 28.3803C436.471 27.9378 436.361 27.4208 436.361 26.8292C436.361 26.235 436.471 25.7155 436.692 25.2706C436.914 24.8256 437.224 24.4801 437.625 24.234C438.025 23.9879 438.493 23.8648 439.03 23.8648C439.567 23.8648 440.036 23.9879 440.436 24.234C440.836 24.4801 441.147 24.8256 441.368 25.2706C441.589 25.7155 441.7 26.235 441.7 26.8292C441.7 27.4208 441.589 27.9378 441.368 28.3803C441.147 28.8228 440.836 29.167 440.436 29.4131C440.036 29.6592 439.567 29.7823 439.03 29.7823ZM439.034 28.8464C439.382 28.8464 439.67 28.7544 439.899 28.5705C440.128 28.3865 440.297 28.1417 440.406 27.8359C440.518 27.5301 440.574 27.1933 440.574 26.8254C440.574 26.46 440.518 26.1244 440.406 25.8187C440.297 25.5104 440.128 25.2631 439.899 25.0767C439.67 24.8902 439.382 24.797 439.034 24.797C438.684 24.797 438.393 24.8902 438.162 25.0767C437.933 25.2631 437.763 25.5104 437.651 25.8187C437.541 26.1244 437.487 26.46 437.487 26.8254C437.487 27.1933 437.541 27.5301 437.651 27.8359C437.763 28.1417 437.933 28.3865 438.162 28.5705C438.393 28.7544 438.684 28.8464 439.034 28.8464ZM447.236 25.3377L446.226 25.5167C446.184 25.3874 446.116 25.2643 446.024 25.1475C445.935 25.0307 445.813 24.935 445.659 24.8604C445.505 24.7858 445.312 24.7485 445.081 24.7485C444.765 24.7485 444.502 24.8194 444.291 24.9611C444.079 25.1003 443.974 25.2805 443.974 25.5017C443.974 25.6931 444.045 25.8473 444.186 25.9641C444.328 26.0809 444.557 26.1766 444.872 26.2512L445.782 26.46C446.309 26.5818 446.702 26.7695 446.96 27.023C447.219 27.2766 447.348 27.606 447.348 28.0111C447.348 28.3542 447.249 28.6599 447.05 28.9284C446.853 29.1944 446.579 29.4032 446.226 29.5548C445.875 29.7065 445.469 29.7823 445.007 29.7823C444.365 29.7823 443.842 29.6456 443.437 29.3721C443.032 29.0962 442.783 28.7047 442.691 28.1976L443.769 28.0335C443.836 28.3144 443.974 28.5269 444.182 28.6711C444.391 28.8128 444.663 28.8837 444.999 28.8837C445.364 28.8837 445.657 28.8078 445.875 28.6562C446.094 28.5021 446.203 28.3144 446.203 28.0932C446.203 27.9142 446.136 27.7638 446.002 27.642C445.87 27.5202 445.668 27.4282 445.394 27.3661L444.425 27.1535C443.89 27.0317 443.495 26.8379 443.239 26.5719C442.986 26.3059 442.859 25.9691 442.859 25.5614C442.859 25.2233 442.953 24.9275 443.142 24.674C443.331 24.4204 443.592 24.2228 443.925 24.0811C444.258 23.9369 444.64 23.8648 445.07 23.8648C445.689 23.8648 446.176 23.9991 446.532 24.2675C446.887 24.5335 447.122 24.8902 447.236 25.3377ZM444.671 29.6369H445.402L445.342 29.9426C445.558 29.9774 445.747 30.0644 445.909 30.2036C446.07 30.3428 446.151 30.5529 446.151 30.8338C446.154 31.1694 446.008 31.4415 445.715 31.6504C445.424 31.8592 445.003 31.9636 444.451 31.9636L444.429 31.3409C444.687 31.3409 444.896 31.3036 445.055 31.229C445.217 31.1544 445.299 31.0339 445.301 30.8673C445.304 30.7008 445.241 30.5839 445.115 30.5168C444.99 30.4497 444.791 30.4025 444.518 30.3751L444.671 29.6369ZM452.202 27.2915V23.9394H453.321V29.6667H452.224V28.6749H452.165C452.033 28.9806 451.822 29.2354 451.531 29.4392C451.242 29.6406 450.883 29.7413 450.453 29.7413C450.085 29.7413 449.76 29.6605 449.476 29.4989C449.195 29.3348 448.974 29.0925 448.813 28.7718C448.653 28.4511 448.574 28.0546 448.574 27.5823V23.9394H449.689V27.4481C449.689 27.8384 449.797 28.1491 450.013 28.3803C450.229 28.6115 450.51 28.7271 450.856 28.7271C451.065 28.7271 451.272 28.6749 451.479 28.5705C451.687 28.466 451.86 28.3082 451.997 28.0969C452.136 27.8856 452.204 27.6171 452.202 27.2915ZM455.933 22.0303V29.6667H454.819V22.0303H455.933Z" fill="#A1A1A1"/>
<rect x="471.667" y="16.1667" width="1" height="20" fill="white" fill-opacity="0.1"/>
<rect x="478.667" y="11" width="124.333" height="30.3333" rx="8" fill="white" fill-opacity="0.05"/>
<rect x="479.167" y="11.5" width="123.333" height="29.3333" rx="7.5" stroke="white" stroke-opacity="0.1"/>
<rect x="481.333" y="13.6667" width="65" height="25" rx="8" fill="white" fill-opacity="0.1"/>
<path d="M497.016 25.9212C497.016 26.7113 496.873 27.3941 496.588 27.9695C496.303 28.545 495.911 28.9888 495.414 29.3009C494.916 29.613 494.348 29.7691 493.709 29.7691C493.071 29.7691 492.502 29.613 492.005 29.3009C491.508 28.9888 491.116 28.545 490.831 27.9695C490.546 27.3941 490.403 26.7113 490.403 25.9212C490.403 25.1312 490.546 24.4484 490.831 23.8729C491.116 23.2975 491.508 22.8537 492.005 22.5415C492.502 22.2294 493.071 22.0734 493.709 22.0734C494.348 22.0734 494.916 22.2294 495.414 22.5415C495.911 22.8537 496.303 23.2975 496.588 23.8729C496.873 24.4484 497.016 25.1312 497.016 25.9212ZM496.138 25.9212C496.138 25.2726 496.03 24.7252 495.813 24.2789C495.598 23.8327 495.307 23.495 494.938 23.2658C494.573 23.0365 494.163 22.9219 493.709 22.9219C493.256 22.9219 492.845 23.0365 492.477 23.2658C492.111 23.495 491.82 23.8327 491.603 24.2789C491.388 24.7252 491.281 25.2726 491.281 25.9212C491.281 26.5699 491.388 27.1173 491.603 27.5635C491.82 28.0098 492.111 28.3475 492.477 28.5767C492.845 28.8059 493.256 28.9205 493.709 28.9205C494.163 28.9205 494.573 28.8059 494.938 28.5767C495.307 28.3475 495.598 28.0098 495.813 27.5635C496.03 27.1173 496.138 26.5699 496.138 25.9212ZM498.424 31.7735V24.0485H499.258V24.941H499.361C499.424 24.8434 499.512 24.7191 499.624 24.5679C499.739 24.4143 499.902 24.2777 500.114 24.1582C500.329 24.0363 500.619 23.9754 500.985 23.9754C501.458 23.9754 501.875 24.0936 502.235 24.3301C502.596 24.5667 502.878 24.902 503.08 25.336C503.283 25.77 503.384 26.2821 503.384 26.8722C503.384 27.4672 503.283 27.9829 503.08 28.4194C502.878 28.8535 502.598 29.19 502.239 29.4289C501.881 29.6655 501.467 29.7837 500.999 29.7837C500.638 29.7837 500.349 29.724 500.132 29.6045C499.915 29.4826 499.748 29.3448 499.631 29.1912C499.514 29.0351 499.424 28.9059 499.361 28.8035H499.287V31.7735H498.424ZM499.273 26.8576C499.273 27.2819 499.335 27.6562 499.459 27.9805C499.584 28.3024 499.765 28.5548 500.004 28.7376C500.243 28.9181 500.536 29.0083 500.882 29.0083C501.243 29.0083 501.544 28.9132 501.786 28.723C502.029 28.5304 502.212 28.2719 502.334 27.9476C502.459 27.6208 502.521 27.2575 502.521 26.8576C502.521 26.4626 502.46 26.1066 502.338 25.7896C502.218 25.4701 502.037 25.2177 501.793 25.0324C501.551 24.8447 501.248 24.7508 500.882 24.7508C500.531 24.7508 500.236 24.8398 499.997 25.0178C499.758 25.1934 499.578 25.4396 499.456 25.7566C499.334 26.0712 499.273 26.4382 499.273 26.8576ZM508.68 25.3067L507.905 25.5262C507.856 25.397 507.784 25.2714 507.689 25.1495C507.596 25.0251 507.47 24.9227 507.309 24.8422C507.148 24.7618 506.942 24.7215 506.691 24.7215C506.347 24.7215 506.06 24.8008 505.831 24.9593C505.604 25.1153 505.491 25.3141 505.491 25.5555C505.491 25.77 505.569 25.9395 505.725 26.0639C505.881 26.1882 506.125 26.2919 506.456 26.3748L507.29 26.5796C507.793 26.7015 508.167 26.8881 508.413 27.1392C508.66 27.388 508.783 27.7086 508.783 28.1012C508.783 28.4231 508.69 28.7108 508.505 28.9644C508.322 29.218 508.066 29.418 507.737 29.5643C507.407 29.7106 507.025 29.7837 506.588 29.7837C506.015 29.7837 505.541 29.6594 505.165 29.4107C504.79 29.1619 504.552 28.7986 504.452 28.3207L505.271 28.1158C505.349 28.4182 505.497 28.645 505.714 28.7962C505.933 28.9473 506.22 29.0229 506.573 29.0229C506.976 29.0229 507.295 28.9376 507.532 28.7669C507.771 28.5938 507.89 28.3865 507.89 28.1451C507.89 27.95 507.822 27.7866 507.685 27.655C507.549 27.5209 507.339 27.4209 507.056 27.355L506.12 27.1356C505.605 27.0137 505.227 26.8247 504.986 26.5686C504.747 26.3102 504.628 25.9871 504.628 25.5994C504.628 25.2824 504.717 25.0019 504.895 24.7581C505.075 24.5142 505.32 24.3228 505.63 24.1838C505.942 24.0448 506.295 23.9754 506.691 23.9754C507.246 23.9754 507.683 24.0973 508 24.3411C508.319 24.585 508.546 24.9068 508.68 25.3067ZM510.082 29.6667V24.0485H510.945V29.6667H510.082ZM510.521 23.1121C510.353 23.1121 510.208 23.0548 510.086 22.9402C509.966 22.8256 509.907 22.6879 509.907 22.5269C509.907 22.366 509.966 22.2282 510.086 22.1136C510.208 21.999 510.353 21.9417 510.521 21.9417C510.689 21.9417 510.833 21.999 510.953 22.1136C511.075 22.2282 511.136 22.366 511.136 22.5269C511.136 22.6879 511.075 22.8256 510.953 22.9402C510.833 23.0548 510.689 23.1121 510.521 23.1121ZM513.082 31.7735C512.936 31.7735 512.806 31.7613 512.691 31.7369C512.576 31.715 512.497 31.693 512.453 31.6711L512.673 30.9103C512.882 30.9639 513.068 30.9834 513.229 30.9688C513.39 30.9542 513.532 30.8823 513.657 30.753C513.783 30.6262 513.899 30.4202 514.004 30.1349L514.165 29.6959L512.087 24.0485H513.024L514.575 28.5255H514.633L516.184 24.0485H517.12L514.736 30.486C514.628 30.7762 514.495 31.0164 514.337 31.2066C514.178 31.3992 513.994 31.5419 513.785 31.6345C513.577 31.7272 513.343 31.7735 513.082 31.7735ZM520.341 29.7837C519.834 29.7837 519.389 29.663 519.006 29.4216C518.626 29.1802 518.328 28.8425 518.113 28.4084C517.901 27.9744 517.795 27.4672 517.795 26.8869C517.795 26.3016 517.901 25.7908 518.113 25.3543C518.328 24.9178 518.626 24.5789 519.006 24.3375C519.389 24.0961 519.834 23.9754 520.341 23.9754C520.848 23.9754 521.292 24.0961 521.672 24.3375C522.055 24.5789 522.353 24.9178 522.565 25.3543C522.779 25.7908 522.887 26.3016 522.887 26.8869C522.887 27.4672 522.779 27.9744 522.565 28.4084C522.353 28.8425 522.055 29.1802 521.672 29.4216C521.292 29.663 520.848 29.7837 520.341 29.7837ZM520.341 29.0083C520.726 29.0083 521.043 28.9095 521.292 28.712C521.541 28.5145 521.725 28.2548 521.844 27.933C521.964 27.6111 522.023 27.2624 522.023 26.8869C522.023 26.5113 521.964 26.1614 521.844 25.8371C521.725 25.5128 521.541 25.2507 521.292 25.0507C521.043 24.8508 520.726 24.7508 520.341 24.7508C519.956 24.7508 519.639 24.8508 519.39 25.0507C519.141 25.2507 518.957 25.5128 518.838 25.8371C518.718 26.1614 518.658 26.5113 518.658 26.8869C518.658 27.2624 518.718 27.6111 518.838 27.933C518.957 28.2548 519.141 28.5145 519.39 28.712C519.639 28.9095 519.956 29.0083 520.341 29.0083ZM525.068 26.287V29.6667H524.204V24.0485H525.038V24.9263H525.111C525.243 24.641 525.443 24.4118 525.711 24.2387C525.98 24.0631 526.326 23.9754 526.75 23.9754C527.131 23.9754 527.463 24.0534 527.749 24.2094C528.034 24.3631 528.256 24.5972 528.414 24.9117C528.573 25.2238 528.652 25.6189 528.652 26.0968V29.6667H527.789V26.1553C527.789 25.714 527.674 25.3701 527.445 25.1239C527.216 24.8751 526.901 24.7508 526.501 24.7508C526.226 24.7508 525.98 24.8105 525.763 24.93C525.548 25.0495 525.378 25.2238 525.254 25.4531C525.13 25.6823 525.068 25.9602 525.068 26.287ZM532.585 29.7837C532.044 29.7837 531.577 29.6642 531.184 29.4253C530.794 29.1839 530.493 28.8474 530.281 28.4158C530.071 27.9817 529.966 27.477 529.966 26.9015C529.966 26.326 530.071 25.8188 530.281 25.3799C530.493 24.9385 530.788 24.5947 531.166 24.3484C531.546 24.0997 531.99 23.9754 532.497 23.9754C532.79 23.9754 533.079 24.0241 533.364 24.1217C533.649 24.2192 533.909 24.3777 534.143 24.5972C534.377 24.8142 534.564 25.1019 534.703 25.4604C534.842 25.8188 534.911 26.2602 534.911 26.7844V27.1502H530.581V26.404H534.033C534.033 26.087 533.97 25.8042 533.843 25.5555C533.719 25.3067 533.541 25.1104 533.309 24.9666C533.08 24.8227 532.809 24.7508 532.497 24.7508C532.153 24.7508 531.856 24.8361 531.605 25.0068C531.356 25.1751 531.165 25.3945 531.03 25.6652C530.896 25.9359 530.829 26.226 530.829 26.5357V27.0332C530.829 27.4575 530.902 27.8171 531.049 28.1122C531.198 28.4048 531.404 28.6279 531.667 28.7815C531.93 28.9327 532.236 29.0083 532.585 29.0083C532.812 29.0083 533.017 28.9766 533.199 28.9132C533.385 28.8474 533.545 28.7498 533.679 28.6206C533.813 28.4889 533.916 28.3255 533.99 28.1305L534.823 28.3646C534.736 28.6474 534.588 28.8961 534.381 29.1107C534.174 29.3229 533.918 29.4887 533.613 29.6082C533.308 29.7252 532.965 29.7837 532.585 29.7837ZM537.088 22.1758V29.6667H536.224V22.1758H537.088Z" fill="#F5F5F5"/>
<path d="M555.22 29.6667V28.9955L559.336 22.8506H555.175V22.0303H560.44V22.7015L556.323 28.8464H560.484V29.6667H555.22ZM564.243 29.786C563.726 29.786 563.272 29.663 562.882 29.4169C562.494 29.1708 562.191 28.8265 561.972 28.384C561.756 27.9415 561.648 27.4245 561.648 26.8329C561.648 26.2363 561.756 25.7155 561.972 25.2706C562.191 24.8256 562.494 24.4801 562.882 24.234C563.272 23.9879 563.726 23.8648 564.243 23.8648C564.76 23.8648 565.212 23.9879 565.6 24.234C565.99 24.4801 566.294 24.8256 566.51 25.2706C566.729 25.7155 566.838 26.2363 566.838 26.8329C566.838 27.4245 566.729 27.9415 566.51 28.384C566.294 28.8265 565.99 29.1708 565.6 29.4169C565.212 29.663 564.76 29.786 564.243 29.786ZM564.243 28.9955C564.636 28.9955 564.959 28.8948 565.212 28.6935C565.466 28.4921 565.654 28.2274 565.775 27.8993C565.897 27.5712 565.958 27.2157 565.958 26.8329C565.958 26.4501 565.897 26.0934 565.775 25.7627C565.654 25.4321 565.466 25.1649 565.212 24.9611C564.959 24.7572 564.636 24.6553 564.243 24.6553C563.85 24.6553 563.527 24.7572 563.273 24.9611C563.02 25.1649 562.832 25.4321 562.71 25.7627C562.589 26.0934 562.528 26.4501 562.528 26.8329C562.528 27.2157 562.589 27.5712 562.71 27.8993C562.832 28.2274 563.02 28.4921 563.273 28.6935C563.527 28.8948 563.85 28.9955 564.243 28.9955ZM568.181 29.6667V23.9394H569.032V24.8045H569.091C569.196 24.5211 569.384 24.2912 569.658 24.1147C569.931 23.9382 570.24 23.8499 570.583 23.8499C570.647 23.8499 570.728 23.8512 570.825 23.8537C570.922 23.8561 570.995 23.8599 571.045 23.8648V24.7597C571.015 24.7523 570.947 24.7411 570.84 24.7262C570.736 24.7088 570.625 24.7001 570.508 24.7001C570.23 24.7001 569.981 24.7585 569.762 24.8753C569.546 24.9897 569.375 25.1488 569.248 25.3526C569.123 25.5539 569.061 25.7839 569.061 26.0424V29.6667H568.181ZM575.697 27.3251V23.9394H576.577V29.6667H575.697V28.6972H575.638C575.504 28.9881 575.295 29.2354 575.011 29.4392C574.728 29.6406 574.37 29.7413 573.938 29.7413C573.58 29.7413 573.261 29.663 572.983 29.5064C572.705 29.3473 572.486 29.1086 572.327 28.7904C572.168 28.4698 572.088 28.0658 572.088 27.5786V23.9394H572.968V27.519C572.968 27.9366 573.085 28.2697 573.319 28.5182C573.555 28.7668 573.856 28.8911 574.221 28.8911C574.44 28.8911 574.662 28.8352 574.888 28.7233C575.117 28.6115 575.308 28.4399 575.463 28.2088C575.619 27.9776 575.697 27.683 575.697 27.3251ZM579.069 26.2214V29.6667H578.189V23.9394H579.039V24.8343H579.114C579.248 24.5435 579.452 24.3098 579.725 24.1333C579.999 23.9543 580.352 23.8648 580.784 23.8648C581.172 23.8648 581.511 23.9444 581.802 24.1035C582.093 24.2601 582.319 24.4987 582.481 24.8194C582.642 25.1376 582.723 25.5403 582.723 26.0275V29.6667H581.843V26.0871C581.843 25.6372 581.726 25.2867 581.493 25.0356C581.259 24.7821 580.938 24.6553 580.531 24.6553C580.25 24.6553 579.999 24.7162 579.778 24.838C579.559 24.9598 579.386 25.1376 579.259 25.3712C579.133 25.6049 579.069 25.8883 579.069 26.2214ZM585.211 22.0303V29.6667H584.331V22.0303H585.211ZM590.432 27.3251V23.9394H591.312V29.6667H590.432V28.6972H590.373C590.238 28.9881 590.03 29.2354 589.746 29.4392C589.463 29.6406 589.105 29.7413 588.672 29.7413C588.314 29.7413 587.996 29.663 587.718 29.5064C587.439 29.3473 587.221 29.1086 587.062 28.7904C586.903 28.4698 586.823 28.0658 586.823 27.5786V23.9394H587.703V27.519C587.703 27.9366 587.82 28.2697 588.053 28.5182C588.29 28.7668 588.59 28.8911 588.956 28.8911C589.175 28.8911 589.397 28.8352 589.623 28.7233C589.852 28.6115 590.043 28.4399 590.197 28.2088C590.354 27.9776 590.432 27.683 590.432 27.3251Z" fill="#D4D4D4"/>
<path d="M24.0039 74.3697C23.9641 74.0167 23.8001 73.7433 23.5117 73.5494C23.2234 73.353 22.8604 73.2548 22.4229 73.2548C22.1097 73.2548 21.8388 73.3045 21.6101 73.4039C21.3814 73.5009 21.2037 73.6351 21.0769 73.8066C20.9526 73.9757 20.8904 74.1683 20.8904 74.3846C20.8904 74.5661 20.9327 74.7227 21.0172 74.8544C21.1042 74.9862 21.2173 75.0968 21.3565 75.1863C21.4982 75.2733 21.6499 75.3466 21.8114 75.4062C21.973 75.4634 22.1284 75.5107 22.2775 75.5479L23.0233 75.7418C23.2669 75.8015 23.5167 75.8823 23.7727 75.9842C24.0288 76.0861 24.2662 76.2203 24.4849 76.3869C24.7037 76.5534 24.8801 76.7598 25.0144 77.0059C25.1511 77.252 25.2195 77.5465 25.2195 77.8896C25.2195 78.3221 25.1076 78.7061 24.8839 79.0417C24.6626 79.3773 24.3407 79.642 23.9181 79.8359C23.498 80.0298 22.9897 80.1268 22.3931 80.1268C21.8214 80.1268 21.3267 80.036 20.9091 79.8546C20.4915 79.6731 20.1646 79.4158 19.9284 79.0827C19.6923 78.7472 19.5618 78.3494 19.5369 77.8896H20.6928C20.7152 78.1655 20.8047 78.3954 20.9613 78.5794C21.1204 78.7608 21.323 78.8963 21.5691 78.9858C21.8176 79.0728 22.0898 79.1163 22.3857 79.1163C22.7113 79.1163 23.0009 79.0653 23.2544 78.9634C23.5105 78.859 23.7118 78.7148 23.8585 78.5309C24.0051 78.3445 24.0785 78.127 24.0785 77.8784C24.0785 77.6522 24.0138 77.467 23.8846 77.3228C23.7578 77.1786 23.585 77.0593 23.3663 76.9648C23.15 76.8704 22.9052 76.7871 22.6317 76.715L21.7294 76.4689C21.1179 76.3024 20.6332 76.0575 20.2752 75.7344C19.9197 75.4112 19.742 74.9837 19.742 74.4517C19.742 74.0117 19.8613 73.6277 20.1 73.2995C20.3386 72.9714 20.6618 72.7166 21.0694 72.5352C21.4771 72.3512 21.937 72.2592 22.449 72.2592C22.9661 72.2592 23.4222 72.35 23.8175 72.5314C24.2152 72.7129 24.5284 72.9627 24.7571 73.2809C24.9858 73.5966 25.1051 73.9595 25.1151 74.3697H24.0039ZM33.5046 76.1818C33.5046 76.9972 33.3555 77.6982 33.0572 78.2848C32.7589 78.869 32.35 79.3189 31.8304 79.6346C31.3134 79.9478 30.7255 80.1044 30.0668 80.1044C29.4055 80.1044 28.8152 79.9478 28.2956 79.6346C27.7786 79.3189 27.3709 78.8677 27.0726 78.2811C26.7743 77.6944 26.6252 76.9947 26.6252 76.1818C26.6252 75.3665 26.7743 74.6667 27.0726 74.0826C27.3709 73.4959 27.7786 73.046 28.2956 72.7328C28.8152 72.4171 29.4055 72.2592 30.0668 72.2592C30.7255 72.2592 31.3134 72.4171 31.8304 72.7328C32.35 73.046 32.7589 73.4959 33.0572 74.0826C33.3555 74.6667 33.5046 75.3665 33.5046 76.1818ZM32.3636 76.1818C32.3636 75.5604 32.263 75.0371 32.0616 74.612C31.8628 74.1845 31.5893 73.8613 31.2413 73.6426C30.8958 73.4213 30.5043 73.3107 30.0668 73.3107C29.6268 73.3107 29.234 73.4213 28.8885 73.6426C28.543 73.8613 28.2695 74.1845 28.0682 74.612C27.8693 75.0371 27.7699 75.5604 27.7699 76.1818C27.7699 76.8033 27.8693 77.3278 28.0682 77.7553C28.2695 78.1804 28.543 78.5036 28.8885 78.7248C29.234 78.9435 29.6268 79.0529 30.0668 79.0529C30.5043 79.0529 30.8958 78.9435 31.2413 78.7248C31.5893 78.5036 31.8628 78.1804 32.0616 77.7553C32.263 77.3278 32.3636 76.8033 32.3636 76.1818ZM35.2161 80V72.3636H37.9381C38.5297 72.3636 39.0206 72.4656 39.4109 72.6694C39.8036 72.8732 40.097 73.1554 40.2909 73.5158C40.4847 73.8738 40.5817 74.2876 40.5817 74.7575C40.5817 75.2248 40.4835 75.6362 40.2871 75.9917C40.0932 76.3446 39.7999 76.6193 39.4072 76.8157C39.0169 77.0121 38.5259 77.1103 37.9343 77.1103H35.8724V76.1184H37.8299C38.2028 76.1184 38.5061 76.065 38.7397 75.9581C38.9759 75.8512 39.1486 75.6958 39.258 75.492C39.3674 75.2882 39.4221 75.0433 39.4221 74.7575C39.4221 74.4691 39.3661 74.2193 39.2543 74.008C39.1449 73.7967 38.9721 73.6351 38.736 73.5233C38.5023 73.4089 38.1953 73.3517 37.815 73.3517H36.3683V80H35.2161ZM38.9858 76.5547L40.8725 80H39.56L37.7106 76.5547H38.9858ZM47.1694 72.3636H48.3253V77.3862C48.3253 77.9206 48.1997 78.3942 47.9487 78.8068C47.6976 79.217 47.3446 79.5401 46.8897 79.7763C46.4348 80.0099 45.9016 80.1268 45.2901 80.1268C44.6811 80.1268 44.1491 80.0099 43.6942 79.7763C43.2393 79.5401 42.8863 79.217 42.6353 78.8068C42.3842 78.3942 42.2587 77.9206 42.2587 77.3862V72.3636H43.4108V77.293C43.4108 77.6385 43.4867 77.9455 43.6383 78.214C43.7924 78.4824 44.0099 78.6937 44.2908 78.8478C44.5717 78.9995 44.9048 79.0753 45.2901 79.0753C45.6779 79.0753 46.0122 78.9995 46.2931 78.8478C46.5765 78.6937 46.7928 78.4824 46.9419 78.214C47.0936 77.9455 47.1694 77.6385 47.1694 77.293V72.3636ZM53.3292 72.3636H54.7275L57.1586 78.2997H57.248L59.6792 72.3636H61.0774V80H59.9812V74.4741H59.9103L57.6582 79.9888H56.7484L54.4963 74.4703H54.4254V80H53.3292V72.3636ZM63.0275 80V72.3636H67.8152V73.3555H64.1797V75.6822H67.5654V76.6703H64.1797V79.0082H67.8599V80H63.0275ZM69.2526 73.3555V72.3636H75.1626V73.3555H72.7799V80H71.6315V73.3555H69.2526ZM82.9071 72.3636V80H81.8481L77.9666 74.3995H77.8957V80H76.7435V72.3636H77.81L81.6953 77.9716H81.7661V72.3636H82.9071ZM86.0149 72.3636V80H84.8628V72.3636H86.0149Z" fill="#A1A1A1"/>
<rect x="17" y="91" width="582" height="34.66" rx="8" fill="#171717" fill-opacity="0.6"/>
<rect x="17.5" y="91.5" width="581" height="33.66" rx="7.5" stroke="white" stroke-opacity="0.1"/>
<g clip-path="url(#clip1_8_232)">
<path d="M35.9818 106.249C35.9264 105.781 35.7018 105.418 35.3078 105.16C34.9139 104.901 34.4307 104.772 33.8583 104.772C33.4397 104.772 33.0735 104.84 32.7595 104.975C32.4487 105.11 32.2056 105.297 32.0301 105.534C31.8578 105.771 31.7716 106.04 31.7716 106.341C31.7716 106.594 31.8316 106.811 31.9517 106.992C32.0748 107.171 32.2317 107.32 32.4225 107.44C32.6134 107.557 32.8134 107.654 33.0227 107.731C33.232 107.805 33.4243 107.865 33.5997 107.911L34.56 108.17C34.8062 108.234 35.0801 108.323 35.3817 108.437C35.6864 108.551 35.9772 108.707 36.2542 108.904C36.5343 109.097 36.7651 109.347 36.9467 109.651C37.1283 109.956 37.2191 110.33 37.2191 110.773C37.2191 111.284 37.0852 111.746 36.8174 112.158C36.5527 112.571 36.165 112.898 35.6541 113.142C35.1463 113.385 34.5292 113.506 33.8029 113.506C33.1258 113.506 32.5395 113.397 32.044 113.178C31.5516 112.96 31.1638 112.655 30.8806 112.264C30.6006 111.874 30.4421 111.42 30.4051 110.903H31.587C31.6177 111.26 31.7378 111.555 31.947 111.789C32.1594 112.02 32.4272 112.192 32.7503 112.306C33.0765 112.417 33.4274 112.472 33.8029 112.472C34.2399 112.472 34.6323 112.401 34.9801 112.26C35.3278 112.115 35.6033 111.915 35.8064 111.66C36.0095 111.401 36.1111 111.099 36.1111 110.755C36.1111 110.441 36.0234 110.185 35.848 109.988C35.6725 109.791 35.4417 109.631 35.1555 109.508C34.8693 109.385 34.56 109.278 34.2276 109.185L33.0642 108.853C32.3256 108.64 31.7408 108.337 31.31 107.943C30.8791 107.549 30.6637 107.034 30.6637 106.397C30.6637 105.867 30.8068 105.406 31.093 105.012C31.3823 104.615 31.7701 104.307 32.2563 104.089C32.7457 103.867 33.292 103.756 33.8952 103.756C34.5046 103.756 35.0462 103.865 35.5202 104.084C35.9942 104.299 36.3696 104.595 36.6466 104.97C36.9267 105.346 37.0744 105.772 37.0898 106.249H35.9818ZM41.8344 113.488C41.1942 113.488 40.6326 113.335 40.1494 113.031C39.6693 112.726 39.2938 112.3 39.0229 111.752C38.7552 111.204 38.6213 110.564 38.6213 109.832C38.6213 109.093 38.7552 108.448 39.0229 107.897C39.2938 107.346 39.6693 106.919 40.1494 106.614C40.6326 106.309 41.1942 106.157 41.8344 106.157C42.4745 106.157 43.0347 106.309 43.5148 106.614C43.998 106.919 44.3734 107.346 44.6412 107.897C44.912 108.448 45.0475 109.093 45.0475 109.832C45.0475 110.564 44.912 111.204 44.6412 111.752C44.3734 112.3 43.998 112.726 43.5148 113.031C43.0347 113.335 42.4745 113.488 41.8344 113.488ZM41.8344 112.509C42.3207 112.509 42.7207 112.384 43.0347 112.135C43.3486 111.886 43.581 111.558 43.7318 111.152C43.8826 110.746 43.958 110.305 43.958 109.832C43.958 109.358 43.8826 108.916 43.7318 108.507C43.581 108.097 43.3486 107.766 43.0347 107.514C42.7207 107.262 42.3207 107.135 41.8344 107.135C41.3481 107.135 40.948 107.262 40.6341 107.514C40.3202 107.766 40.0878 108.097 39.937 108.507C39.7862 108.916 39.7108 109.358 39.7108 109.832C39.7108 110.305 39.7862 110.746 39.937 111.152C40.0878 111.558 40.3202 111.886 40.6341 112.135C40.948 112.384 41.3481 112.509 41.8344 112.509ZM46.7105 113.34V106.249H47.7631V107.32H47.837C47.9662 106.969 48.2001 106.685 48.5387 106.466C48.8772 106.248 49.2588 106.138 49.6835 106.138C49.7636 106.138 49.8636 106.14 49.9836 106.143C50.1036 106.146 50.1944 106.151 50.256 106.157V107.265C50.2191 107.256 50.1344 107.242 50.0021 107.223C49.8728 107.202 49.7359 107.191 49.5912 107.191C49.2465 107.191 48.9388 107.263 48.6679 107.408C48.4002 107.549 48.1878 107.746 48.0309 107.999C47.877 108.248 47.8 108.533 47.8 108.853V113.34H46.7105ZM56.0162 110.441V106.249H57.1057V113.34H56.0162V112.14H55.9423C55.7761 112.5 55.5176 112.806 55.1668 113.058C54.8159 113.308 54.3727 113.432 53.8372 113.432C53.394 113.432 53.0001 113.335 52.6554 113.142C52.3107 112.945 52.0399 112.649 51.8429 112.255C51.6459 111.858 51.5475 111.358 51.5475 110.755V106.249H52.6369V110.681C52.6369 111.198 52.7816 111.61 53.0709 111.918C53.3633 112.226 53.7357 112.38 54.1881 112.38C54.4589 112.38 54.7344 112.311 55.0144 112.172C55.2976 112.034 55.5345 111.821 55.7254 111.535C55.9193 111.249 56.0162 110.884 56.0162 110.441ZM60.1907 109.074V113.34H59.1012V106.249H60.1537V107.357H60.246C60.4122 106.997 60.6646 106.708 61.0032 106.489C61.3417 106.268 61.7787 106.157 62.3142 106.157C62.7943 106.157 63.2144 106.255 63.5745 106.452C63.9346 106.646 64.2147 106.942 64.4147 107.339C64.6148 107.733 64.7148 108.231 64.7148 108.834V113.34H63.6253V108.908C63.6253 108.351 63.4807 107.917 63.1914 107.606C62.9021 107.292 62.505 107.135 62.0003 107.135C61.6525 107.135 61.3417 107.211 61.0678 107.362C60.7969 107.512 60.5831 107.733 60.4261 108.022C60.2691 108.311 60.1907 108.662 60.1907 109.074ZM71.1744 110.441V106.249H72.2639V113.34H71.1744V112.14H71.1005C70.9343 112.5 70.6758 112.806 70.325 113.058C69.9741 113.308 69.5309 113.432 68.9954 113.432C68.5522 113.432 68.1583 113.335 67.8136 113.142C67.4689 112.945 67.1981 112.649 67.0011 112.255C66.8041 111.858 66.7057 111.358 66.7057 110.755V106.249H67.7951V110.681C67.7951 111.198 67.9398 111.61 68.2291 111.918C68.5215 112.226 68.8939 112.38 69.3463 112.38C69.6171 112.38 69.8926 112.311 70.1726 112.172C70.4558 112.034 70.6928 111.821 70.8836 111.535C71.0775 111.249 71.1744 110.884 71.1744 110.441ZM74.0562 113.34V112.509L78.0818 107.339V107.265H74.1855V106.249H79.4852V107.117L75.5704 112.251V112.324H79.6145V113.34H74.0562ZM85.7613 110.441V106.249H86.8508V113.34H85.7613V112.14H85.6875C85.5213 112.5 85.2627 112.806 84.9119 113.058C84.561 113.308 84.1179 113.432 83.5823 113.432C83.1392 113.432 82.7452 113.335 82.4005 113.142C82.0558 112.945 81.785 112.649 81.588 112.255C81.3911 111.858 81.2926 111.358 81.2926 110.755V106.249H82.3821V110.681C82.3821 111.198 82.5267 111.61 82.816 111.918C83.1084 112.226 83.4808 112.38 83.9332 112.38C84.204 112.38 84.4795 112.311 84.7595 112.172C85.0427 112.034 85.2797 111.821 85.4705 111.535C85.6644 111.249 85.7613 110.884 85.7613 110.441ZM92.6503 113.34V103.885H93.7397V107.376H93.8321C93.9121 107.252 94.0229 107.095 94.1645 106.905C94.3091 106.711 94.5153 106.538 94.7831 106.388C95.0539 106.234 95.4201 106.157 95.8818 106.157C96.4789 106.157 97.0051 106.306 97.4606 106.605C97.9161 106.903 98.2716 107.326 98.527 107.874C98.7825 108.422 98.9102 109.068 98.9102 109.813C98.9102 110.564 98.7825 111.215 98.527 111.766C98.2716 112.314 97.9177 112.738 97.4652 113.04C97.0128 113.338 96.4912 113.488 95.9003 113.488C95.4448 113.488 95.0801 113.412 94.8062 113.262C94.5322 113.108 94.3214 112.934 94.1737 112.74C94.026 112.543 93.9121 112.38 93.8321 112.251H93.7028V113.34H92.6503ZM93.7213 109.795C93.7213 110.33 93.7998 110.803 93.9567 111.212C94.1137 111.618 94.343 111.937 94.6446 112.167C94.9462 112.395 95.3155 112.509 95.7525 112.509C96.208 112.509 96.5881 112.389 96.8928 112.149C97.2006 111.906 97.4314 111.58 97.5853 111.17C97.7422 110.758 97.8207 110.299 97.8207 109.795C97.8207 109.296 97.7438 108.847 97.5899 108.447C97.4391 108.043 97.2098 107.725 96.902 107.491C96.5973 107.254 96.2142 107.135 95.7525 107.135C95.3093 107.135 94.937 107.248 94.6353 107.472C94.3337 107.694 94.106 108.005 93.9521 108.405C93.7982 108.802 93.7213 109.265 93.7213 109.795ZM105.045 110.441V106.249H106.135V113.34H105.045V112.14H104.972C104.805 112.5 104.547 112.806 104.196 113.058C103.845 113.308 103.402 113.432 102.867 113.432C102.423 113.432 102.029 113.335 101.685 113.142C101.34 112.945 101.069 112.649 100.872 112.255C100.675 111.858 100.577 111.358 100.577 110.755V106.249H101.666V110.681C101.666 111.198 101.811 111.61 102.1 111.918C102.393 112.226 102.765 112.38 103.217 112.38C103.488 112.38 103.764 112.311 104.044 112.172C104.327 112.034 104.564 111.821 104.755 111.535C104.949 111.249 105.045 110.884 105.045 110.441ZM108.13 113.34V106.249H109.183V107.32H109.257C109.386 106.969 109.62 106.685 109.959 106.466C110.297 106.248 110.679 106.138 111.103 106.138C111.183 106.138 111.284 106.14 111.404 106.143C111.524 106.146 111.614 106.151 111.676 106.157V107.265C111.639 107.256 111.554 107.242 111.422 107.223C111.293 107.202 111.156 107.191 111.011 107.191C110.666 107.191 110.359 107.263 110.088 107.408C109.82 107.549 109.608 107.746 109.451 107.999C109.297 108.248 109.22 108.533 109.22 108.853V113.34H108.13ZM115.054 113.506C114.605 113.506 114.197 113.422 113.831 113.252C113.464 113.08 113.174 112.832 112.958 112.509C112.743 112.183 112.635 111.789 112.635 111.327C112.635 110.921 112.715 110.592 112.875 110.339C113.035 110.084 113.249 109.884 113.517 109.739C113.784 109.595 114.08 109.487 114.403 109.416C114.729 109.342 115.057 109.284 115.386 109.241C115.817 109.185 116.167 109.144 116.434 109.116C116.705 109.085 116.902 109.034 117.025 108.964C117.151 108.893 117.215 108.77 117.215 108.594V108.557C117.215 108.102 117.09 107.748 116.841 107.496C116.594 107.243 116.22 107.117 115.719 107.117C115.199 107.117 114.791 107.231 114.495 107.459C114.2 107.686 113.992 107.93 113.872 108.188L112.838 107.819C113.023 107.388 113.269 107.052 113.577 106.812C113.888 106.569 114.226 106.4 114.592 106.305C114.962 106.206 115.325 106.157 115.682 106.157C115.91 106.157 116.171 106.184 116.467 106.24C116.765 106.292 117.053 106.401 117.33 106.568C117.61 106.734 117.842 106.985 118.027 107.32C118.212 107.656 118.304 108.105 118.304 108.668V113.34H117.215V112.38H117.159C117.085 112.534 116.962 112.698 116.79 112.874C116.617 113.049 116.388 113.198 116.102 113.322C115.816 113.445 115.466 113.506 115.054 113.506ZM115.22 112.528C115.651 112.528 116.014 112.443 116.31 112.274C116.608 112.104 116.833 111.886 116.984 111.618C117.138 111.35 117.215 111.069 117.215 110.773V109.776C117.168 109.832 117.067 109.882 116.91 109.928C116.756 109.972 116.577 110.01 116.374 110.044C116.174 110.075 115.979 110.102 115.788 110.127C115.6 110.149 115.448 110.167 115.331 110.182C115.048 110.219 114.783 110.279 114.537 110.362C114.294 110.442 114.097 110.564 113.946 110.727C113.798 110.887 113.724 111.106 113.724 111.383C113.724 111.761 113.865 112.047 114.145 112.241C114.428 112.432 114.786 112.528 115.22 112.528ZM120.74 115.999C120.556 115.999 120.391 115.984 120.246 115.953C120.102 115.925 120.002 115.898 119.946 115.87L120.223 114.91C120.488 114.977 120.722 115.002 120.925 114.983C121.128 114.965 121.308 114.874 121.465 114.711C121.625 114.551 121.771 114.291 121.904 113.931L122.107 113.377L119.485 106.249H120.667L122.624 111.9H122.698L124.655 106.249H125.837L122.827 114.374C122.692 114.74 122.524 115.044 122.324 115.284C122.124 115.527 121.891 115.707 121.627 115.824C121.365 115.941 121.07 115.999 120.74 115.999ZM129.146 113.506C128.696 113.506 128.289 113.422 127.922 113.252C127.556 113.08 127.265 112.832 127.05 112.509C126.835 112.183 126.727 111.789 126.727 111.327C126.727 110.921 126.807 110.592 126.967 110.339C127.127 110.084 127.341 109.884 127.609 109.739C127.876 109.595 128.172 109.487 128.495 109.416C128.821 109.342 129.149 109.284 129.478 109.241C129.909 109.185 130.258 109.144 130.526 109.116C130.797 109.085 130.994 109.034 131.117 108.964C131.243 108.893 131.306 108.77 131.306 108.594V108.557C131.306 108.102 131.182 107.748 130.932 107.496C130.686 107.243 130.312 107.117 129.811 107.117C129.29 107.117 128.883 107.231 128.587 107.459C128.292 107.686 128.084 107.93 127.964 108.188L126.93 107.819C127.115 107.388 127.361 107.052 127.669 106.812C127.979 106.569 128.318 106.4 128.684 106.305C129.053 106.206 129.417 106.157 129.774 106.157C130.001 106.157 130.263 106.184 130.558 106.24C130.857 106.292 131.145 106.401 131.422 106.568C131.702 106.734 131.934 106.985 132.119 107.32C132.303 107.656 132.396 108.105 132.396 108.668V113.34H131.306V112.38H131.251C131.177 112.534 131.054 112.698 130.882 112.874C130.709 113.049 130.48 113.198 130.194 113.322C129.908 113.445 129.558 113.506 129.146 113.506ZM129.312 112.528C129.743 112.528 130.106 112.443 130.402 112.274C130.7 112.104 130.925 111.886 131.076 111.618C131.229 111.35 131.306 111.069 131.306 110.773V109.776C131.26 109.832 131.159 109.882 131.002 109.928C130.848 109.972 130.669 110.01 130.466 110.044C130.266 110.075 130.071 110.102 129.88 110.127C129.692 110.149 129.54 110.167 129.423 110.182C129.14 110.219 128.875 110.279 128.629 110.362C128.386 110.442 128.189 110.564 128.038 110.727C127.89 110.887 127.816 111.106 127.816 111.383C127.816 111.761 127.956 112.047 128.236 112.241C128.52 112.432 128.878 112.528 129.312 112.528ZM138.742 115.999C138.558 115.999 138.393 115.984 138.248 115.953C138.104 115.925 138.004 115.898 137.948 115.87L138.225 114.91C138.49 114.977 138.724 115.002 138.927 114.983C139.13 114.965 139.31 114.874 139.467 114.711C139.627 114.551 139.773 114.291 139.906 113.931L140.109 113.377L137.487 106.249H138.668L140.626 111.9H140.7L142.657 106.249H143.839L140.829 114.374C140.694 114.74 140.526 115.044 140.326 115.284C140.126 115.527 139.893 115.707 139.629 115.824C139.367 115.941 139.072 115.999 138.742 115.999ZM147.148 113.506C146.698 113.506 146.291 113.422 145.924 113.252C145.558 113.08 145.267 112.832 145.052 112.509C144.836 112.183 144.729 111.789 144.729 111.327C144.729 110.921 144.809 110.592 144.969 110.339C145.129 110.084 145.343 109.884 145.61 109.739C145.878 109.595 146.174 109.487 146.497 109.416C146.823 109.342 147.151 109.284 147.48 109.241C147.911 109.185 148.26 109.144 148.528 109.116C148.799 109.085 148.996 109.034 149.119 108.964C149.245 108.893 149.308 108.77 149.308 108.594V108.557C149.308 108.102 149.184 107.748 148.934 107.496C148.688 107.243 148.314 107.117 147.813 107.117C147.292 107.117 146.885 107.231 146.589 107.459C146.294 107.686 146.086 107.93 145.966 108.188L144.932 107.819C145.117 107.388 145.363 107.052 145.67 106.812C145.981 106.569 146.32 106.4 146.686 106.305C147.055 106.206 147.419 106.157 147.776 106.157C148.003 106.157 148.265 106.184 148.56 106.24C148.859 106.292 149.147 106.401 149.424 106.568C149.704 106.734 149.936 106.985 150.121 107.32C150.305 107.656 150.398 108.105 150.398 108.668V113.34H149.308V112.38H149.253C149.179 112.534 149.056 112.698 148.884 112.874C148.711 113.049 148.482 113.198 148.196 113.322C147.909 113.445 147.56 113.506 147.148 113.506ZM147.314 112.528C147.745 112.528 148.108 112.443 148.403 112.274C148.702 112.104 148.927 111.886 149.077 111.618C149.231 111.35 149.308 111.069 149.308 110.773V109.776C149.262 109.832 149.161 109.882 149.004 109.928C148.85 109.972 148.671 110.01 148.468 110.044C148.268 110.075 148.073 110.102 147.882 110.127C147.694 110.149 147.542 110.167 147.425 110.182C147.142 110.219 146.877 110.279 146.631 110.362C146.388 110.442 146.191 110.564 146.04 110.727C145.892 110.887 145.818 111.106 145.818 111.383C145.818 111.761 145.958 112.047 146.238 112.241C146.521 112.432 146.88 112.528 147.314 112.528ZM152.183 113.34V112.509L156.209 107.339V107.265H152.312V106.249H157.612V107.117L153.697 112.251V112.324H157.741V113.34H152.183ZM159.42 113.34V106.249H160.509V113.34H159.42ZM163.594 109.074V113.34H162.504V106.249H163.557V107.357H163.649C163.816 106.997 164.068 106.708 164.406 106.489C164.745 106.268 165.182 106.157 165.718 106.157C166.198 106.157 166.618 106.255 166.978 106.452C167.338 106.646 167.618 106.942 167.818 107.339C168.018 107.733 168.118 108.231 168.118 108.834V113.34H167.029V108.908C167.029 108.351 166.884 107.917 166.595 107.606C166.305 107.292 165.908 107.135 165.404 107.135C165.056 107.135 164.745 107.211 164.471 107.362C164.2 107.512 163.986 107.733 163.829 108.022C163.672 108.311 163.594 108.662 163.594 109.074ZM170.903 113.414C170.675 113.414 170.48 113.332 170.317 113.169C170.154 113.006 170.072 112.811 170.072 112.583C170.072 112.355 170.154 112.16 170.317 111.997C170.48 111.834 170.675 111.752 170.903 111.752C171.131 111.752 171.326 111.834 171.489 111.997C171.652 112.16 171.734 112.355 171.734 112.583C171.734 112.734 171.696 112.872 171.619 112.998C171.545 113.125 171.445 113.226 171.318 113.303C171.195 113.377 171.057 113.414 170.903 113.414Z" fill="#737373"/>
</g>
<path d="M20.484 149.67H19.261L22.0091 142.034H23.3402L26.0882 149.67H24.8652L22.7063 143.421H22.6467L20.484 149.67ZM20.6891 146.68H24.6564V147.649H20.6891V146.68ZM33.4496 144.517H32.2863C32.2415 144.268 32.1583 144.05 32.0365 143.861C31.9146 143.672 31.7655 143.511 31.589 143.38C31.4125 143.248 31.2149 143.148 30.9961 143.081C30.7799 143.014 30.5499 142.981 30.3063 142.981C29.8664 142.981 29.4724 143.091 29.1243 143.313C28.7788 143.534 28.5054 143.858 28.304 144.286C28.1052 144.713 28.0057 145.235 28.0057 145.852C28.0057 146.473 28.1052 146.998 28.304 147.425C28.5054 147.853 28.7801 148.176 29.1281 148.395C29.4761 148.614 29.8676 148.723 30.3026 148.723C30.5437 148.723 30.7724 148.691 30.9887 148.626C31.2074 148.559 31.4051 148.461 31.5816 148.331C31.758 148.202 31.9072 148.044 32.029 147.858C32.1533 147.669 32.239 147.453 32.2863 147.209L33.4496 147.213C33.3875 147.588 33.2669 147.934 33.0879 148.249C32.9115 148.563 32.684 148.834 32.4056 149.062C32.1297 149.288 31.814 149.464 31.4585 149.588C31.103 149.712 30.7153 149.774 30.2952 149.774C29.6339 149.774 29.0448 149.618 28.5278 149.305C28.0107 148.989 27.603 148.538 27.3047 147.951C27.0089 147.364 26.861 146.665 26.861 145.852C26.861 145.036 27.0102 144.337 27.3085 143.753C27.6068 143.166 28.0144 142.716 28.5315 142.403C29.0485 142.087 29.6364 141.929 30.2952 141.929C30.7003 141.929 31.0782 141.988 31.4287 142.104C31.7817 142.219 32.0986 142.388 32.3795 142.612C32.6604 142.833 32.8928 143.104 33.0768 143.424C33.2607 143.743 33.385 144.107 33.4496 144.517ZM29.9036 149.681H30.6345L30.5748 149.987C30.7911 150.022 30.98 150.109 31.1416 150.248C31.3031 150.387 31.3839 150.597 31.3839 150.878C31.3864 151.214 31.241 151.486 30.9477 151.695C30.6568 151.903 30.2355 152.008 29.6836 152.008L29.6613 151.385C29.9198 151.385 30.1286 151.348 30.2877 151.273C30.4493 151.199 30.5313 151.078 30.5338 150.912C30.5363 150.745 30.4741 150.628 30.3474 150.561C30.2231 150.494 30.0242 150.447 29.7508 150.419L29.9036 149.681ZM36.2555 142.034V149.67H35.1033V142.034H36.2555ZM38.2084 149.67V142.034H39.3606V145.68H39.4538L42.6567 142.034H44.1072L41.0273 145.471L44.1184 149.67H42.7313L40.2629 146.258L39.3606 147.295V149.67H38.2084ZM45.456 149.67V142.034H46.6082V148.678H50.0684V149.67H45.456ZM52.6925 149.67H51.4695L54.2176 142.034H55.5487L58.2967 149.67H57.0737L54.9148 143.421H54.8552L52.6925 149.67ZM52.8976 146.68H56.8649V147.649H52.8976V146.68ZM59.6745 142.034H61.0728L63.5039 147.97H63.5934L66.0245 142.034H67.4227V149.67H66.3265V144.144H66.2556L64.0035 149.659H63.0937L60.8416 144.14H60.7707V149.67H59.6745V142.034ZM70.0179 149.67H68.7949L71.5429 142.034H72.8741L75.6221 149.67H74.3991L72.2402 143.421H72.1805L70.0179 149.67ZM70.223 146.68H74.1903V147.649H70.223V146.68Z" fill="#A1A1A1"/>
<rect x="17" y="160.67" width="582" height="34.66" rx="8" fill="#171717" fill-opacity="0.6"/>
<rect x="17.5" y="161.17" width="581" height="33.66" rx="7.5" stroke="white" stroke-opacity="0.1"/>
<g clip-path="url(#clip2_8_232)">
<path d="M31.1992 183H29.9989L33.4705 173.545H34.6523L38.1239 183H36.9236L34.0983 175.041H34.0245L31.1992 183ZM31.6424 179.307H36.4804V180.322H31.6424V179.307ZM42.3295 183.148C41.6647 183.148 41.0923 182.991 40.6122 182.677C40.1321 182.363 39.7627 181.93 39.5042 181.38C39.2457 180.829 39.1164 180.199 39.1164 179.491C39.1164 178.771 39.2488 178.136 39.5134 177.585C39.7812 177.031 40.1536 176.598 40.6306 176.288C41.1108 175.974 41.6709 175.817 42.311 175.817C42.8096 175.817 43.259 175.909 43.659 176.094C44.0591 176.278 44.3869 176.537 44.6424 176.869C44.8978 177.202 45.0563 177.589 45.1179 178.033H44.0284C43.9453 177.709 43.7606 177.423 43.4744 177.174C43.1912 176.922 42.8096 176.795 42.3295 176.795C41.9048 176.795 41.5324 176.906 41.2123 177.128C40.8953 177.346 40.6476 177.656 40.4691 178.056C40.2936 178.453 40.2059 178.919 40.2059 179.454C40.2059 180.002 40.2921 180.479 40.4644 180.886C40.6399 181.292 40.8861 181.607 41.2031 181.832C41.5232 182.057 41.8986 182.169 42.3295 182.169C42.6126 182.169 42.8696 182.12 43.1005 182.021C43.3313 181.923 43.5267 181.781 43.6867 181.597C43.8468 181.412 43.9607 181.19 44.0284 180.932H45.1179C45.0563 181.35 44.904 181.727 44.6608 182.063C44.4208 182.395 44.1022 182.66 43.7052 182.857C43.3113 183.051 42.8527 183.148 42.3295 183.148ZM41.8125 182.963H42.7173L42.6434 183.332C42.8835 183.369 43.1035 183.469 43.3036 183.632C43.5036 183.799 43.6036 184.062 43.6036 184.422C43.6036 184.819 43.439 185.142 43.1097 185.391C42.7835 185.644 42.3018 185.77 41.6647 185.77L41.6278 185.05C41.914 185.05 42.151 185.003 42.3387 184.911C42.5295 184.822 42.625 184.671 42.625 184.459C42.625 184.246 42.5465 184.102 42.3895 184.025C42.2326 183.948 41.9786 183.896 41.6278 183.868L41.8125 182.963ZM46.7105 183V175.909H47.8V183H46.7105ZM50.8111 180.415L50.7927 179.067H51.0142L54.1165 175.909H55.4645L52.1591 179.251H52.0668L50.8111 180.415ZM49.7955 183V173.545H50.885V183H49.7955ZM54.3012 183L51.5313 179.491L52.3069 178.734L55.6861 183H54.3012ZM57.9563 173.545V183H56.8668V173.545H57.9563ZM62.0384 183.166C61.5891 183.166 61.1813 183.081 60.815 182.912C60.4488 182.74 60.158 182.492 59.9425 182.169C59.7271 181.843 59.6194 181.449 59.6194 180.987C59.6194 180.581 59.6994 180.252 59.8594 179.999C60.0195 179.744 60.2334 179.544 60.5011 179.399C60.7689 179.254 61.0643 179.147 61.3875 179.076C61.7137 179.002 62.0415 178.944 62.3708 178.901C62.8017 178.845 63.151 178.804 63.4187 178.776C63.6896 178.745 63.8865 178.694 64.0096 178.624C64.1358 178.553 64.1989 178.43 64.1989 178.254V178.217C64.1989 177.762 64.0743 177.408 63.825 177.155C63.5788 176.903 63.2048 176.777 62.7032 176.777C62.183 176.777 61.7753 176.891 61.4798 177.119C61.1843 177.346 60.9766 177.589 60.8566 177.848L59.8225 177.479C60.0071 177.048 60.2534 176.712 60.5611 176.472C60.872 176.229 61.2105 176.06 61.5767 175.964C61.9461 175.866 62.3092 175.817 62.6662 175.817C62.894 175.817 63.1556 175.844 63.451 175.9C63.7496 175.952 64.0373 176.061 64.3143 176.228C64.5944 176.394 64.8267 176.645 65.0114 176.98C65.1961 177.316 65.2884 177.765 65.2884 178.328V183H64.1989V182.04H64.1435C64.0696 182.194 63.9465 182.358 63.7742 182.534C63.6018 182.709 63.3726 182.858 63.0863 182.981C62.8001 183.105 62.4508 183.166 62.0384 183.166ZM62.2046 182.187C62.6355 182.187 62.9986 182.103 63.2941 181.934C63.5926 181.764 63.8173 181.546 63.9681 181.278C64.122 181.01 64.1989 180.729 64.1989 180.433V179.436C64.1527 179.491 64.0512 179.542 63.8942 179.588C63.7403 179.631 63.5618 179.67 63.3587 179.704C63.1587 179.735 62.9632 179.762 62.7724 179.787C62.5847 179.808 62.4323 179.827 62.3154 179.842C62.0322 179.879 61.7676 179.939 61.5214 180.022C61.2782 180.102 61.0812 180.224 60.9304 180.387C60.7827 180.547 60.7089 180.766 60.7089 181.043C60.7089 181.421 60.8489 181.707 61.129 181.901C61.4121 182.092 61.7706 182.187 62.2046 182.187ZM67.2769 183V175.909H68.3295V177.017H68.4218C68.5696 176.638 68.8081 176.345 69.1374 176.135C69.4667 175.923 69.8622 175.817 70.3238 175.817C70.7916 175.817 71.1809 175.923 71.4918 176.135C71.8057 176.345 72.0504 176.638 72.2258 177.017H72.2997C72.4813 176.651 72.7536 176.36 73.1168 176.144C73.48 175.926 73.9154 175.817 74.4233 175.817C75.0572 175.817 75.5758 176.015 75.979 176.412C76.3822 176.806 76.5838 177.42 76.5838 178.254V183H75.4943V178.254C75.4943 177.731 75.3512 177.357 75.0649 177.132C74.7787 176.908 74.4417 176.795 74.0539 176.795C73.5554 176.795 73.1691 176.946 72.8952 177.248C72.6213 177.546 72.4843 177.925 72.4843 178.383V183H71.3764V178.143C71.3764 177.74 71.2456 177.416 70.984 177.169C70.7224 176.92 70.3854 176.795 69.973 176.795C69.6898 176.795 69.4251 176.871 69.1789 177.022C68.9358 177.172 68.7388 177.382 68.588 177.649C68.4403 177.914 68.3664 178.22 68.3664 178.568V183H67.2769ZM80.6624 183.166C80.2131 183.166 79.8053 183.081 79.4391 182.912C79.0728 182.74 78.782 182.492 78.5665 182.169C78.3511 181.843 78.2434 181.449 78.2434 180.987C78.2434 180.581 78.3234 180.252 78.4834 179.999C78.6435 179.744 78.8574 179.544 79.1251 179.399C79.3929 179.254 79.6883 179.147 80.0115 179.076C80.3377 179.002 80.6655 178.944 80.9948 178.901C81.4257 178.845 81.775 178.804 82.0427 178.776C82.3136 178.745 82.5106 178.694 82.6337 178.624C82.7598 178.553 82.8229 178.43 82.8229 178.254V178.217C82.8229 177.762 82.6983 177.408 82.449 177.155C82.2028 176.903 81.8289 176.777 81.3272 176.777C80.8071 176.777 80.3993 176.891 80.1038 177.119C79.8084 177.346 79.6006 177.589 79.4806 177.848L78.4465 177.479C78.6312 177.048 78.8774 176.712 79.1851 176.472C79.496 176.229 79.8345 176.06 80.2008 175.964C80.5701 175.866 80.9333 175.817 81.2903 175.817C81.518 175.817 81.7796 175.844 82.0751 175.9C82.3736 175.952 82.6614 176.061 82.9383 176.228C83.2184 176.394 83.4508 176.645 83.6354 176.98C83.8201 177.316 83.9124 177.765 83.9124 178.328V183H82.8229V182.04H82.7675C82.6937 182.194 82.5706 182.358 82.3982 182.534C82.2259 182.709 81.9966 182.858 81.7104 182.981C81.4241 183.105 81.0748 183.166 80.6624 183.166ZM80.8286 182.187C81.2595 182.187 81.6226 182.103 81.9181 181.934C82.2166 181.764 82.4413 181.546 82.5921 181.278C82.746 181.01 82.8229 180.729 82.8229 180.433V179.436C82.7768 179.491 82.6752 179.542 82.5182 179.588C82.3644 179.631 82.1859 179.67 81.9827 179.704C81.7827 179.735 81.5873 179.762 81.3964 179.787C81.2087 179.808 81.0564 179.827 80.9394 179.842C80.6563 179.879 80.3916 179.939 80.1454 180.022C79.9022 180.102 79.7053 180.224 79.5545 180.387C79.4067 180.547 79.3329 180.766 79.3329 181.043C79.3329 181.421 79.4729 181.707 79.753 181.901C80.0361 182.092 80.3947 182.187 80.8286 182.187ZM86.9905 178.734V183H85.901V175.909H86.9535V177.017H87.0459C87.212 176.657 87.4644 176.368 87.803 176.149C88.1415 175.927 88.5785 175.817 89.114 175.817C89.5941 175.817 90.0142 175.915 90.3743 176.112C90.7344 176.306 91.0145 176.602 91.2145 176.999C91.4146 177.392 91.5146 177.891 91.5146 178.494V183H90.4251V178.568C90.4251 178.011 90.2805 177.577 89.9912 177.266C89.7019 176.952 89.3049 176.795 88.8001 176.795C88.4523 176.795 88.1415 176.871 87.8676 177.022C87.5968 177.172 87.3829 177.392 87.2259 177.682C87.0689 177.971 86.9905 178.322 86.9905 178.734ZM93.5055 183V175.909H94.5949V183H93.5055ZM96.3873 183V182.169L100.413 176.999V176.925H96.5166V175.909H101.816V176.777L97.9015 181.91V181.984H101.946V183H96.3873ZM103.624 183V175.909H104.713V183H103.624ZM110.513 183V173.545H111.602V177.035H111.694C111.774 176.912 111.885 176.755 112.027 176.565C112.171 176.371 112.378 176.198 112.645 176.048C112.916 175.894 113.282 175.817 113.744 175.817C114.341 175.817 114.867 175.966 115.323 176.264C115.778 176.563 116.134 176.986 116.389 177.534C116.645 178.082 116.773 178.728 116.773 179.473C116.773 180.224 116.645 180.875 116.389 181.426C116.134 181.974 115.78 182.398 115.328 182.7C114.875 182.998 114.353 183.148 113.763 183.148C113.307 183.148 112.942 183.072 112.668 182.921C112.395 182.768 112.184 182.594 112.036 182.4C111.888 182.203 111.774 182.04 111.694 181.91H111.565V183H110.513ZM111.584 179.454C111.584 179.99 111.662 180.462 111.819 180.872C111.976 181.278 112.205 181.597 112.507 181.827C112.808 182.055 113.178 182.169 113.615 182.169C114.07 182.169 114.45 182.049 114.755 181.809C115.063 181.566 115.294 181.24 115.448 180.83C115.605 180.418 115.683 179.959 115.683 179.454C115.683 178.956 115.606 178.507 115.452 178.106C115.301 177.703 115.072 177.385 114.764 177.151C114.46 176.914 114.076 176.795 113.615 176.795C113.172 176.795 112.799 176.908 112.498 177.132C112.196 177.354 111.968 177.665 111.814 178.065C111.661 178.462 111.584 178.925 111.584 179.454ZM122.908 180.101V175.909H123.997V183H122.908V181.8H122.834C122.668 182.16 122.409 182.466 122.058 182.718C121.708 182.968 121.264 183.092 120.729 183.092C120.286 183.092 119.892 182.995 119.547 182.801C119.202 182.604 118.931 182.309 118.735 181.915C118.538 181.518 118.439 181.018 118.439 180.415V175.909H119.529V180.341C119.529 180.858 119.673 181.27 119.962 181.578C120.255 181.886 120.627 182.04 121.08 182.04C121.351 182.04 121.626 181.97 121.906 181.832C122.189 181.693 122.426 181.481 122.617 181.195C122.811 180.909 122.908 180.544 122.908 180.101ZM125.993 183V175.909H127.045V176.98H127.119C127.248 176.629 127.482 176.345 127.821 176.126C128.159 175.907 128.541 175.798 128.966 175.798C129.046 175.798 129.146 175.8 129.266 175.803C129.386 175.806 129.477 175.811 129.538 175.817V176.925C129.501 176.915 129.417 176.902 129.284 176.883C129.155 176.862 129.018 176.851 128.873 176.851C128.529 176.851 128.221 176.923 127.95 177.068C127.682 177.209 127.47 177.406 127.313 177.659C127.159 177.908 127.082 178.193 127.082 178.513V183H125.993ZM132.916 183.166C132.467 183.166 132.059 183.081 131.693 182.912C131.327 182.74 131.036 182.492 130.82 182.169C130.605 181.843 130.497 181.449 130.497 180.987C130.497 180.581 130.577 180.252 130.737 179.999C130.897 179.744 131.111 179.544 131.379 179.399C131.647 179.254 131.942 179.147 132.265 179.076C132.592 179.002 132.919 178.944 133.249 178.901C133.68 178.845 134.029 178.804 134.297 178.776C134.567 178.745 134.764 178.694 134.888 178.624C135.014 178.553 135.077 178.43 135.077 178.254V178.217C135.077 177.762 134.952 177.408 134.703 177.155C134.457 176.903 134.083 176.777 133.581 176.777C133.061 176.777 132.653 176.891 132.358 177.119C132.062 177.346 131.855 177.589 131.735 177.848L130.7 177.479C130.885 177.048 131.131 176.712 131.439 176.472C131.75 176.229 132.088 176.06 132.455 175.964C132.824 175.866 133.187 175.817 133.544 175.817C133.772 175.817 134.034 175.844 134.329 175.9C134.628 175.952 134.915 176.061 135.192 176.228C135.472 176.394 135.705 176.645 135.889 176.98C136.074 177.316 136.166 177.765 136.166 178.328V183H135.077V182.04H135.021C134.948 182.194 134.824 182.358 134.652 182.534C134.48 182.709 134.25 182.858 133.964 182.981C133.678 183.105 133.329 183.166 132.916 183.166ZM133.083 182.187C133.513 182.187 133.877 182.103 134.172 181.934C134.471 181.764 134.695 181.546 134.846 181.278C135 181.01 135.077 180.729 135.077 180.433V179.436C135.031 179.491 134.929 179.542 134.772 179.588C134.618 179.631 134.44 179.67 134.237 179.704C134.037 179.735 133.841 179.762 133.65 179.787C133.463 179.808 133.31 179.827 133.193 179.842C132.91 179.879 132.645 179.939 132.399 180.022C132.156 180.102 131.959 180.224 131.808 180.387C131.661 180.547 131.587 180.766 131.587 181.043C131.587 181.421 131.727 181.707 132.007 181.901C132.29 182.092 132.649 182.187 133.083 182.187ZM138.603 185.659C138.418 185.659 138.253 185.644 138.109 185.613C137.964 185.585 137.864 185.557 137.809 185.53L138.086 184.57C138.35 184.637 138.584 184.662 138.787 184.643C138.99 184.625 139.17 184.534 139.327 184.371C139.487 184.211 139.634 183.951 139.766 183.591L139.969 183.037L137.347 175.909H138.529L140.486 181.56H140.56L142.517 175.909H143.699L140.689 184.034C140.554 184.4 140.386 184.703 140.186 184.943C139.986 185.187 139.754 185.367 139.489 185.484C139.227 185.601 138.932 185.659 138.603 185.659ZM147.008 183.166C146.559 183.166 146.151 183.081 145.785 182.912C145.419 182.74 145.128 182.492 144.912 182.169C144.697 181.843 144.589 181.449 144.589 180.987C144.589 180.581 144.669 180.252 144.829 179.999C144.989 179.744 145.203 179.544 145.471 179.399C145.739 179.254 146.034 179.147 146.357 179.076C146.683 179.002 147.011 178.944 147.341 178.901C147.771 178.845 148.121 178.804 148.388 178.776C148.659 178.745 148.856 178.694 148.979 178.624C149.106 178.553 149.169 178.43 149.169 178.254V178.217C149.169 177.762 149.044 177.408 148.795 177.155C148.548 176.903 148.175 176.777 147.673 176.777C147.153 176.777 146.745 176.891 146.45 177.119C146.154 177.346 145.946 177.589 145.826 177.848L144.792 177.479C144.977 177.048 145.223 176.712 145.531 176.472C145.842 176.229 146.18 176.06 146.546 175.964C146.916 175.866 147.279 175.817 147.636 175.817C147.864 175.817 148.125 175.844 148.421 175.9C148.719 175.952 149.007 176.061 149.284 176.228C149.564 176.394 149.796 176.645 149.981 176.98C150.166 177.316 150.258 177.765 150.258 178.328V183H149.169V182.04H149.113C149.039 182.194 148.916 182.358 148.744 182.534C148.572 182.709 148.342 182.858 148.056 182.981C147.77 183.105 147.421 183.166 147.008 183.166ZM147.174 182.187C147.605 182.187 147.968 182.103 148.264 181.934C148.562 181.764 148.787 181.546 148.938 181.278C149.092 181.01 149.169 180.729 149.169 180.433V179.436C149.122 179.491 149.021 179.542 148.864 179.588C148.71 179.631 148.532 179.67 148.328 179.704C148.128 179.735 147.933 179.762 147.742 179.787C147.554 179.808 147.402 179.827 147.285 179.842C147.002 179.879 146.737 179.939 146.491 180.022C146.248 180.102 146.051 180.224 145.9 180.387C145.752 180.547 145.679 180.766 145.679 181.043C145.679 181.421 145.819 181.707 146.099 181.901C146.382 182.092 146.74 182.187 147.174 182.187ZM156.605 185.659C156.42 185.659 156.255 185.644 156.111 185.613C155.966 185.585 155.866 185.557 155.811 185.53L156.088 184.57C156.352 184.637 156.586 184.662 156.789 184.643C156.992 184.625 157.172 184.534 157.329 184.371C157.489 184.211 157.636 183.951 157.768 183.591L157.971 183.037L155.349 175.909H156.531L158.488 181.56H158.562L160.519 175.909H161.701L158.691 184.034C158.556 184.4 158.388 184.703 158.188 184.943C157.988 185.187 157.756 185.367 157.491 185.484C157.229 185.601 156.934 185.659 156.605 185.659ZM165.01 183.166C164.561 183.166 164.153 183.081 163.787 182.912C163.42 182.74 163.13 182.492 162.914 182.169C162.699 181.843 162.591 181.449 162.591 180.987C162.591 180.581 162.671 180.252 162.831 179.999C162.991 179.744 163.205 179.544 163.473 179.399C163.741 179.254 164.036 179.147 164.359 179.076C164.685 179.002 165.013 178.944 165.342 178.901C165.773 178.845 166.123 178.804 166.39 178.776C166.661 178.745 166.858 178.694 166.981 178.624C167.107 178.553 167.171 178.43 167.171 178.254V178.217C167.171 177.762 167.046 177.408 166.797 177.155C166.55 176.903 166.177 176.777 165.675 176.777C165.155 176.777 164.747 176.891 164.451 177.119C164.156 177.346 163.948 177.589 163.828 177.848L162.794 177.479C162.979 177.048 163.225 176.712 163.533 176.472C163.844 176.229 164.182 176.06 164.548 175.964C164.918 175.866 165.281 175.817 165.638 175.817C165.866 175.817 166.127 175.844 166.423 175.9C166.721 175.952 167.009 176.061 167.286 176.228C167.566 176.394 167.798 176.645 167.983 176.98C168.168 177.316 168.26 177.765 168.26 178.328V183H167.171V182.04H167.115C167.041 182.194 166.918 182.358 166.746 182.534C166.574 182.709 166.344 182.858 166.058 182.981C165.772 183.105 165.422 183.166 165.01 183.166ZM165.176 182.187C165.607 182.187 165.97 182.103 166.266 181.934C166.564 181.764 166.789 181.546 166.94 181.278C167.094 181.01 167.171 180.729 167.171 180.433V179.436C167.124 179.491 167.023 179.542 166.866 179.588C166.712 179.631 166.534 179.67 166.33 179.704C166.13 179.735 165.935 179.762 165.744 179.787C165.556 179.808 165.404 179.827 165.287 179.842C165.004 179.879 164.739 179.939 164.493 180.022C164.25 180.102 164.053 180.224 163.902 180.387C163.754 180.547 163.681 180.766 163.681 181.043C163.681 181.421 163.821 181.707 164.101 181.901C164.384 182.092 164.742 182.187 165.176 182.187ZM170.045 183V182.169L174.071 176.999V176.925H170.175V175.909H175.474V176.777L171.56 181.91V181.984H175.604V183H170.045ZM177.282 183V175.909H178.371V183H177.282ZM181.456 178.734V183H180.367V175.909H181.419V177.017H181.512C181.678 176.657 181.93 176.368 182.269 176.149C182.607 175.927 183.044 175.817 183.58 175.817C184.06 175.817 184.48 175.915 184.84 176.112C185.2 176.306 185.48 176.602 185.68 176.999C185.88 177.392 185.98 177.891 185.98 178.494V183H184.891V178.568C184.891 178.011 184.746 177.577 184.457 177.266C184.168 176.952 183.771 176.795 183.266 176.795C182.918 176.795 182.607 176.871 182.333 177.022C182.063 177.172 181.849 177.392 181.692 177.682C181.535 177.971 181.456 178.322 181.456 178.734ZM188.765 183.074C188.538 183.074 188.342 182.992 188.179 182.829C188.016 182.666 187.934 182.471 187.934 182.243C187.934 182.015 188.016 181.82 188.179 181.657C188.342 181.493 188.538 181.412 188.765 181.412C188.993 181.412 189.188 181.493 189.352 181.657C189.515 181.82 189.596 182.015 189.596 182.243C189.596 182.394 189.558 182.532 189.481 182.658C189.407 182.785 189.307 182.886 189.181 182.963C189.058 183.037 188.919 183.074 188.765 183.074Z" fill="#737373"/>
</g>
<defs>
<clipPath id="clip0_8_232">
<rect width="340.333" height="20" fill="white" transform="translate(49 16.1667)"/>
</clipPath>
<clipPath id="clip1_8_232">
<rect width="556.667" height="16" fill="white" transform="translate(29.6665 100.34)"/>
</clipPath>
<clipPath id="clip2_8_232">
<rect width="556.667" height="16" fill="white" transform="translate(29.6665 170)"/>
</clipPath>
</defs>
</svg>
