<svg width="672" height="229" viewBox="0 0 672 229" fill="none" xmlns="http://www.w3.org/2000/svg">
<rect x="0.5" y="0.5" width="671" height="227.99" rx="11.5" stroke="white" stroke-opacity="0.2"/>
<rect x="8.32999" y="8.32996" width="656.677" height="212.33" rx="12" fill="#171717"/>
<rect x="8.82999" y="8.82996" width="655.677" height="211.33" rx="11.5" stroke="white" stroke-opacity="0.05"/>
<rect x="21.33" y="22.4966" width="24" height="24" rx="6" fill="white" fill-opacity="0.05"/>
<rect x="21.83" y="22.9966" width="23" height="23" rx="5.5" stroke="white" stroke-opacity="0.1"/>
<path d="M31.2058 28.627L33.2879 32.0894H33.3617L35.453 28.627H37.4058L34.4928 33.3543L37.4519 38.0815H35.4668L33.3617 34.6423H33.2879L31.1827 38.0815H29.2069L32.1938 33.3543L29.2438 28.627H31.2058Z" fill="#A1A1A1"/>
<g clip-path="url(#clip0_1005_196)">
<path d="M57.8892 31.4599V30.2602H65.0374V31.4599H62.1556V39.4966H60.7665V31.4599H57.8892ZM67.5822 39.6499C67.1432 39.6499 66.7463 39.5687 66.3916 39.4064C66.0368 39.241 65.7557 39.002 65.5482 38.6893C65.3437 38.3766 65.2415 37.9933 65.2415 37.5393C65.2415 37.1484 65.3167 36.8267 65.467 36.5741C65.6174 36.3216 65.8203 36.1216 66.0759 35.9743C66.3314 35.827 66.6171 35.7157 66.9328 35.6406C67.2484 35.5654 67.5702 35.5083 67.8979 35.4692C68.3128 35.4211 68.6495 35.382 68.9081 35.3519C69.1667 35.3189 69.3546 35.2663 69.4719 35.1941C69.5891 35.1219 69.6477 35.0047 69.6477 34.8423V34.8108C69.6477 34.4169 69.5365 34.1117 69.314 33.8952C69.0945 33.6788 68.7668 33.5705 68.3308 33.5705C67.8768 33.5705 67.519 33.6712 67.2575 33.8727C66.9989 34.0711 66.82 34.2921 66.7208 34.5356L65.4535 34.247C65.6038 33.8261 65.8233 33.4863 66.1119 33.2278C66.4036 32.9662 66.7388 32.7768 67.1177 32.6595C67.4965 32.5392 67.8949 32.4791 68.3128 32.4791C68.5894 32.4791 68.8826 32.5122 69.1922 32.5783C69.5049 32.6415 69.7966 32.7587 70.0672 32.9301C70.3408 33.1015 70.5648 33.3465 70.7391 33.6652C70.9135 33.9809 71.0007 34.3913 71.0007 34.8964V39.4966H69.6838V38.5495H69.6297C69.5425 38.7239 69.4117 38.8953 69.2373 39.0636C69.0629 39.232 68.839 39.3718 68.5654 39.4831C68.2917 39.5943 67.964 39.6499 67.5822 39.6499ZM67.8753 38.5675C68.2482 38.5675 68.5669 38.4939 68.8314 38.3465C69.099 38.1992 69.302 38.0068 69.4403 37.7693C69.5816 37.5287 69.6522 37.2717 69.6522 36.9981V36.1051C69.6041 36.1532 69.5109 36.1983 69.3726 36.2404C69.2373 36.2795 69.0825 36.3141 68.9081 36.3441C68.7337 36.3712 68.5638 36.3967 68.3985 36.4208C68.2331 36.4418 68.0948 36.4599 67.9836 36.4749C67.722 36.508 67.483 36.5636 67.2665 36.6418C67.053 36.72 66.8816 36.8327 66.7524 36.98C66.6261 37.1244 66.5629 37.3168 66.5629 37.5573C66.5629 37.891 66.6862 38.1436 66.9328 38.315C67.1793 38.4833 67.4935 38.5675 67.8753 38.5675ZM72.7968 39.4966V32.5693H74.1002V33.6697H74.1723C74.2986 33.2969 74.5211 33.0038 74.8398 32.7903C75.1615 32.5738 75.5253 32.4656 75.9312 32.4656C76.0154 32.4656 76.1146 32.4686 76.2289 32.4746C76.3461 32.4806 76.4378 32.4881 76.504 32.4972V33.787C76.4499 33.772 76.3536 33.7554 76.2153 33.7374C76.077 33.7163 75.9387 33.7058 75.8004 33.7058C75.4817 33.7058 75.1976 33.7735 74.948 33.9088C74.7015 34.0411 74.5061 34.226 74.3618 34.4635C74.2174 34.698 74.1453 34.9656 74.1453 35.2663V39.4966H72.7968ZM77.6709 39.4966V32.5693H79.0194V39.4966H77.6709ZM78.3519 31.5005C78.1174 31.5005 77.916 31.4223 77.7476 31.2659C77.5822 31.1066 77.4995 30.9172 77.4995 30.6977C77.4995 30.4752 77.5822 30.2858 77.7476 30.1294C77.916 29.9701 78.1174 29.8904 78.3519 29.8904C78.5864 29.8904 78.7864 29.9701 78.9518 30.1294C79.1201 30.2858 79.2043 30.4752 79.2043 30.6977C79.2043 30.9172 79.1201 31.1066 78.9518 31.2659C78.7864 31.4223 78.5864 31.5005 78.3519 31.5005ZM82.182 35.3835V39.4966H80.8335V30.2602H82.164V33.6968H82.2496C82.412 33.324 82.6601 33.0278 82.9938 32.8083C83.3275 32.5889 83.7635 32.4791 84.3017 32.4791C84.7767 32.4791 85.1916 32.5768 85.5464 32.7723C85.9042 32.9677 86.1808 33.2593 86.3762 33.6472C86.5747 34.032 86.6739 34.5131 86.6739 35.0904V39.4966H85.3254V35.2527C85.3254 34.7446 85.1946 34.3507 84.9331 34.0711C84.6715 33.7885 84.3077 33.6472 83.8417 33.6472C83.523 33.6472 83.2373 33.7148 82.9848 33.8501C82.7352 33.9854 82.5383 34.1839 82.394 34.4454C82.2527 34.704 82.182 35.0167 82.182 35.3835ZM96.9802 32.6866C96.9321 32.2596 96.7337 31.9289 96.3849 31.6944C96.0362 31.4569 95.5972 31.3381 95.068 31.3381C94.6892 31.3381 94.3615 31.3982 94.0849 31.5185C93.8083 31.6358 93.5933 31.7981 93.4399 32.0056C93.2896 32.21 93.2144 32.443 93.2144 32.7046C93.2144 32.9241 93.2656 33.1135 93.3678 33.2729C93.473 33.4322 93.6098 33.566 93.7782 33.6742C93.9496 33.7795 94.133 33.8682 94.3284 33.9403C94.5238 34.0095 94.7117 34.0666 94.8921 34.1117L95.7941 34.3462C96.0888 34.4184 96.391 34.5161 96.7006 34.6394C97.0103 34.7626 97.2974 34.925 97.562 35.1264C97.8266 35.3279 98.0401 35.5774 98.2024 35.8751C98.3678 36.1728 98.4505 36.529 98.4505 36.944C98.4505 37.4671 98.3152 37.9316 98.0446 38.3375C97.777 38.7434 97.3876 39.0636 96.8765 39.2981C96.3684 39.5327 95.7535 39.6499 95.032 39.6499C94.3404 39.6499 93.7421 39.5402 93.237 39.3207C92.7319 39.1012 92.3365 38.79 92.0509 38.3871C91.7653 37.9812 91.6074 37.5002 91.5773 36.944H92.9754C93.0025 37.2777 93.1107 37.5558 93.3001 37.7783C93.4926 37.9978 93.7376 38.1616 94.0353 38.2699C94.3359 38.3751 94.6651 38.4277 95.0229 38.4277C95.4168 38.4277 95.7671 38.3661 96.0738 38.2428C96.3834 38.1165 96.627 37.9422 96.8044 37.7197C96.9818 37.4942 97.0704 37.2311 97.0704 36.9304C97.0704 36.6568 96.9923 36.4328 96.8359 36.2584C96.6826 36.0841 96.4736 35.9397 96.209 35.8255C95.9475 35.7112 95.6513 35.6105 95.3206 35.5233L94.2292 35.2257C93.4896 35.0242 92.9033 34.7281 92.4703 34.3372C92.0404 33.9463 91.8254 33.4292 91.8254 32.7858C91.8254 32.2536 91.9697 31.7891 92.2583 31.3922C92.547 30.9953 92.9378 30.6872 93.4309 30.4677C93.924 30.2452 94.4802 30.1339 95.0996 30.1339C95.725 30.1339 96.2767 30.2437 96.7548 30.4632C97.2358 30.6826 97.6146 30.9848 97.8913 31.3697C98.1679 31.7515 98.3122 32.1905 98.3242 32.6866H96.9802ZM102.993 39.6364C102.311 39.6364 101.723 39.4906 101.23 39.1989C100.74 38.9043 100.361 38.4909 100.093 37.9587C99.8287 37.4235 99.6964 36.7966 99.6964 36.078C99.6964 35.3685 99.8287 34.7431 100.093 34.2019C100.361 33.6607 100.734 33.2383 101.212 32.9346C101.693 32.6309 102.255 32.4791 102.898 32.4791C103.289 32.4791 103.668 32.5438 104.035 32.673C104.402 32.8023 104.731 33.0053 105.023 33.2819C105.314 33.5585 105.544 33.9178 105.713 34.3598C105.881 34.7987 105.965 35.3324 105.965 35.9608V36.4388H100.459V35.4286H104.644C104.644 35.0738 104.572 34.7596 104.427 34.486C104.283 34.2094 104.08 33.9914 103.818 33.8321C103.56 33.6727 103.256 33.5931 102.907 33.5931C102.529 33.5931 102.198 33.6863 101.915 33.8727C101.636 34.0561 101.419 34.2966 101.266 34.5943C101.115 34.8889 101.04 35.2091 101.04 35.5549V36.3441C101.04 36.8072 101.122 37.201 101.284 37.5257C101.449 37.8505 101.679 38.0985 101.974 38.2699C102.269 38.4382 102.613 38.5224 103.007 38.5224C103.262 38.5224 103.495 38.4864 103.706 38.4142C103.916 38.339 104.098 38.2278 104.251 38.0805C104.405 37.9331 104.522 37.7512 104.603 37.5348L105.879 37.7648C105.777 38.1406 105.594 38.4698 105.329 38.7524C105.068 39.0321 104.738 39.25 104.342 39.4064C103.948 39.5597 103.498 39.6364 102.993 39.6364ZM110.379 39.6364C109.709 39.6364 109.132 39.4846 108.647 39.1809C108.166 38.8742 107.797 38.4518 107.538 37.9136C107.279 37.3754 107.15 36.759 107.15 36.0645C107.15 35.361 107.282 34.7401 107.547 34.2019C107.812 33.6607 108.184 33.2383 108.666 32.9346C109.147 32.6309 109.713 32.4791 110.366 32.4791C110.892 32.4791 111.361 32.5768 111.773 32.7723C112.185 32.9647 112.517 33.2353 112.77 33.584C113.025 33.9328 113.177 34.3402 113.225 34.8062H111.913C111.841 34.4815 111.675 34.2019 111.417 33.9674C111.161 33.7329 110.818 33.6156 110.388 33.6156C110.012 33.6156 109.683 33.7148 109.401 33.9133C109.121 34.1087 108.903 34.3883 108.747 34.7521C108.59 35.1129 108.512 35.5399 108.512 36.0329C108.512 36.5381 108.589 36.974 108.742 37.3408C108.896 37.7076 109.112 37.9918 109.392 38.1932C109.674 38.3947 110.006 38.4954 110.388 38.4954C110.644 38.4954 110.875 38.4488 111.083 38.3556C111.293 38.2594 111.469 38.1226 111.611 37.9452C111.755 37.7678 111.856 37.5543 111.913 37.3047H113.225C113.177 37.7527 113.031 38.1526 112.788 38.5044C112.544 38.8562 112.218 39.1328 111.809 39.3342C111.403 39.5357 110.926 39.6364 110.379 39.6364ZM109.892 39.4605H110.776L110.704 39.8303C110.966 39.8724 111.194 39.9776 111.39 40.146C111.585 40.3144 111.683 40.5684 111.683 40.9082C111.686 41.3141 111.51 41.6433 111.155 41.8959C110.803 42.1484 110.294 42.2747 109.626 42.2747L109.599 41.5215C109.912 41.5215 110.164 41.4764 110.357 41.3862C110.552 41.296 110.651 41.1502 110.654 40.9488C110.657 40.7473 110.582 40.606 110.429 40.5248C110.279 40.4437 110.038 40.3865 109.707 40.3535L109.892 39.4605ZM114.667 39.4966V32.5693H116.016V39.4966H114.667ZM115.348 31.5005C115.114 31.5005 114.912 31.4223 114.744 31.2659C114.578 31.1066 114.496 30.9172 114.496 30.6977C114.496 30.4752 114.578 30.2858 114.744 30.1294C114.912 29.9701 115.114 29.8904 115.348 29.8904C115.583 29.8904 115.783 29.9701 115.948 30.1294C116.116 30.2858 116.2 30.4752 116.2 30.6977C116.2 30.9172 116.116 31.1066 115.948 31.2659C115.783 31.4223 115.583 31.5005 115.348 31.5005ZM120.748 39.6364C120.077 39.6364 119.5 39.4846 119.016 39.1809C118.535 38.8742 118.165 38.4518 117.906 37.9136C117.648 37.3754 117.519 36.759 117.519 36.0645C117.519 35.361 117.651 34.7401 117.915 34.2019C118.18 33.6607 118.553 33.2383 119.034 32.9346C119.515 32.6309 120.082 32.4791 120.734 32.4791C121.26 32.4791 121.729 32.5768 122.141 32.7723C122.553 32.9647 122.885 33.2353 123.138 33.584C123.393 33.9328 123.545 34.3402 123.593 34.8062H122.281C122.209 34.4815 122.044 34.2019 121.785 33.9674C121.529 33.7329 121.187 33.6156 120.757 33.6156C120.381 33.6156 120.052 33.7148 119.769 33.9133C119.489 34.1087 119.271 34.3883 119.115 34.7521C118.959 35.1129 118.881 35.5399 118.881 36.0329C118.881 36.5381 118.957 36.974 119.111 37.3408C119.264 37.7076 119.48 37.9918 119.76 38.1932C120.043 38.3947 120.375 38.4954 120.757 38.4954C121.012 38.4954 121.244 38.4488 121.451 38.3556C121.662 38.2594 121.838 38.1226 121.979 37.9452C122.123 37.7678 122.224 37.5543 122.281 37.3047H123.593C123.545 37.7527 123.399 38.1526 123.156 38.5044C122.912 38.8562 122.586 39.1328 122.177 39.3342C121.771 39.5357 121.295 39.6364 120.748 39.6364ZM125.035 39.4966V32.5693H126.384V39.4966H125.035ZM125.716 31.5005C125.482 31.5005 125.281 31.4223 125.112 31.2659C124.947 31.1066 124.864 30.9172 124.864 30.6977C124.864 30.4752 124.947 30.2858 125.112 30.1294C125.281 29.9701 125.482 29.8904 125.716 29.8904C125.951 29.8904 126.151 29.9701 126.316 30.1294C126.485 30.2858 126.569 30.4752 126.569 30.6977C126.569 30.9172 126.485 31.1066 126.316 31.2659C126.151 31.4223 125.951 31.5005 125.716 31.5005Z" fill="#E5E5E5"/>
</g>
<g opacity="0.3">
<rect x="446.84" y="19.83" width="63.3333" height="29.3333" rx="7.5" fill="white" fill-opacity="0.03"/>
<rect x="446.84" y="19.83" width="63.3333" height="29.3333" rx="7.5" stroke="#525252"/>
<path d="M458.257 29.6216V36.1216" stroke="#737373" stroke-width="1.08333" stroke-linecap="round" stroke-linejoin="round"/>
<path d="M464.757 32.8716C465.654 32.8716 466.382 32.144 466.382 31.2466C466.382 30.3491 465.654 29.6216 464.757 29.6216C463.859 29.6216 463.132 30.3491 463.132 31.2466C463.132 32.144 463.859 32.8716 464.757 32.8716Z" stroke="#737373" stroke-width="1.08333" stroke-linecap="round" stroke-linejoin="round"/>
<path d="M458.257 39.3716C459.154 39.3716 459.882 38.644 459.882 37.7466C459.882 36.8491 459.154 36.1216 458.257 36.1216C457.359 36.1216 456.632 36.8491 456.632 37.7466C456.632 38.644 457.359 39.3716 458.257 39.3716Z" stroke="#737373" stroke-width="1.08333" stroke-linecap="round" stroke-linejoin="round"/>
<path d="M464.757 32.8716C464.757 34.1645 464.243 35.4045 463.329 36.3187C462.415 37.233 461.175 37.7466 459.882 37.7466" stroke="#737373" stroke-width="1.08333" stroke-linecap="round" stroke-linejoin="round"/>
<path d="M475.162 37.9966V30.3602H476.314V34.0069H476.407L479.61 30.3602H481.061L477.981 33.7981L481.072 37.9966H479.685L477.216 34.5848L476.314 35.6214V37.9966H475.162ZM484.037 38.1122C483.5 38.1122 483.031 37.9891 482.631 37.743C482.231 37.4969 481.92 37.1527 481.699 36.7102C481.478 36.2677 481.367 35.7507 481.367 35.159C481.367 34.5649 481.478 34.0454 481.699 33.6005C481.92 33.1555 482.231 32.81 482.631 32.5639C483.031 32.3178 483.5 32.1947 484.037 32.1947C484.574 32.1947 485.042 32.3178 485.443 32.5639C485.843 32.81 486.154 33.1555 486.375 33.6005C486.596 34.0454 486.707 34.5649 486.707 35.159C486.707 35.7507 486.596 36.2677 486.375 36.7102C486.154 37.1527 485.843 37.4969 485.443 37.743C485.042 37.9891 484.574 38.1122 484.037 38.1122ZM484.041 37.1763C484.389 37.1763 484.677 37.0843 484.906 36.9003C485.134 36.7164 485.304 36.4715 485.413 36.1658C485.525 35.86 485.581 35.5232 485.581 35.1553C485.581 34.7899 485.525 34.4543 485.413 34.1486C485.304 33.8403 485.134 33.593 484.906 33.4066C484.677 33.2201 484.389 33.1269 484.041 33.1269C483.69 33.1269 483.399 33.2201 483.168 33.4066C482.94 33.593 482.769 33.8403 482.657 34.1486C482.548 34.4543 482.493 34.7899 482.493 35.1553C482.493 35.5232 482.548 35.86 482.657 36.1658C482.769 36.4715 482.94 36.7164 483.168 36.9003C483.399 37.0843 483.69 37.1763 484.041 37.1763ZM492.243 33.6676L491.232 33.8465C491.19 33.7173 491.123 33.5942 491.031 33.4774C490.942 33.3606 490.82 33.2649 490.666 33.1903C490.512 33.1157 490.319 33.0784 490.088 33.0784C489.772 33.0784 489.509 33.1493 489.297 33.291C489.086 33.4302 488.98 33.6104 488.98 33.8316C488.98 34.023 489.051 34.1772 489.193 34.294C489.335 34.4108 489.563 34.5065 489.879 34.5811L490.789 34.7899C491.316 34.9117 491.708 35.0994 491.967 35.3529C492.226 35.6065 492.355 35.9359 492.355 36.341C492.355 36.6841 492.255 36.9898 492.056 37.2583C491.86 37.5243 491.585 37.7331 491.232 37.8847C490.882 38.0364 490.476 38.1122 490.013 38.1122C489.372 38.1122 488.849 37.9755 488.443 37.702C488.038 37.4261 487.79 37.0346 487.698 36.5275L488.775 36.3634C488.842 36.6443 488.98 36.8568 489.189 37.001C489.398 37.1427 489.67 37.2136 490.006 37.2136C490.371 37.2136 490.663 37.1377 490.882 36.9861C491.101 36.832 491.21 36.6443 491.21 36.4231C491.21 36.2441 491.143 36.0937 491.009 35.9719C490.877 35.8501 490.674 35.7581 490.401 35.696L489.431 35.4834C488.897 35.3616 488.502 35.1677 488.246 34.9018C487.992 34.6358 487.865 34.299 487.865 33.8913C487.865 33.5532 487.96 33.2574 488.149 33.0039C488.338 32.7503 488.599 32.5527 488.932 32.411C489.265 32.2668 489.647 32.1947 490.077 32.1947C490.696 32.1947 491.183 32.329 491.538 32.5974C491.894 32.8634 492.129 33.2201 492.243 33.6676ZM489.678 37.9668H490.408L490.349 38.2725C490.565 38.3073 490.754 38.3943 490.915 38.5335C491.077 38.6727 491.158 38.8828 491.158 39.1637C491.16 39.4992 491.015 39.7714 490.722 39.9802C490.431 40.1891 490.009 40.2935 489.458 40.2935L489.435 39.6708C489.694 39.6708 489.903 39.6335 490.062 39.5589C490.223 39.4843 490.305 39.3638 490.308 39.1972C490.31 39.0307 490.248 38.9138 490.121 38.8467C489.997 38.7796 489.798 38.7324 489.525 38.705L489.678 37.9668ZM497.209 35.6214V32.2693H498.327V37.9966H497.231V37.0047H497.171C497.04 37.3105 496.828 37.5653 496.537 37.7691C496.249 37.9705 495.89 38.0712 495.46 38.0712C495.092 38.0712 494.766 37.9904 494.483 37.8288C494.202 37.6647 493.981 37.4224 493.819 37.1017C493.66 36.781 493.581 36.3845 493.581 35.9122V32.2693H494.695V35.778C494.695 36.1683 494.804 36.479 495.02 36.7102C495.236 36.9414 495.517 37.057 495.863 37.057C496.071 37.057 496.279 37.0047 496.485 36.9003C496.694 36.7959 496.867 36.6381 497.004 36.4268C497.143 36.2155 497.211 35.947 497.209 35.6214ZM500.94 30.3602V37.9966H499.825V30.3602H500.94Z" fill="#737373"/>
</g>
<rect x="518.673" y="24.4966" width="1" height="20" fill="white" fill-opacity="0.1"/>
<rect x="527.673" y="19.33" width="124.333" height="30.3333" rx="8" fill="white" fill-opacity="0.05"/>
<rect x="528.173" y="19.83" width="123.333" height="29.3333" rx="7.5" stroke="white" stroke-opacity="0.15"/>
<rect x="530.34" y="21.9966" width="65" height="25" rx="8" fill="white" fill-opacity="0.1"/>
<path d="M546.022 34.2511C546.022 35.0412 545.88 35.7239 545.595 36.2994C545.309 36.8749 544.918 37.3187 544.42 37.6308C543.923 37.9429 543.355 38.099 542.716 38.099C542.077 38.099 541.509 37.9429 541.011 37.6308C540.514 37.3187 540.123 36.8749 539.837 36.2994C539.552 35.7239 539.409 35.0412 539.409 34.2511C539.409 33.4611 539.552 32.7783 539.837 32.2028C540.123 31.6274 540.514 31.1836 541.011 30.8714C541.509 30.5593 542.077 30.4033 542.716 30.4033C543.355 30.4033 543.923 30.5593 544.42 30.8714C544.918 31.1836 545.309 31.6274 545.595 32.2028C545.88 32.7783 546.022 33.4611 546.022 34.2511ZM545.145 34.2511C545.145 33.6025 545.036 33.0551 544.819 32.6088C544.604 32.1626 544.313 31.8249 543.945 31.5957C543.579 31.3664 543.169 31.2518 542.716 31.2518C542.262 31.2518 541.851 31.3664 541.483 31.5957C541.118 31.8249 540.826 32.1626 540.609 32.6088C540.395 33.0551 540.287 33.6025 540.287 34.2511C540.287 34.8998 540.395 35.4472 540.609 35.8934C540.826 36.3397 541.118 36.6774 541.483 36.9066C541.851 37.1358 542.262 37.2504 542.716 37.2504C543.169 37.2504 543.579 37.1358 543.945 36.9066C544.313 36.6774 544.604 36.3397 544.819 35.8934C545.036 35.4472 545.145 34.8998 545.145 34.2511ZM547.431 40.1034V32.3784H548.265V33.2709H548.367C548.43 33.1733 548.518 33.049 548.63 32.8978C548.745 32.7442 548.908 32.6076 549.121 32.4881C549.335 32.3662 549.625 32.3052 549.991 32.3052C550.464 32.3052 550.881 32.4235 551.242 32.66C551.603 32.8966 551.884 33.2319 552.087 33.6659C552.289 34.0999 552.39 34.612 552.39 35.2021C552.39 35.7971 552.289 36.3128 552.087 36.7493C551.884 37.1834 551.604 37.5199 551.246 37.7588C550.887 37.9954 550.474 38.1136 550.006 38.1136C549.645 38.1136 549.356 38.0539 549.139 37.9344C548.922 37.8125 548.755 37.6747 548.638 37.5211C548.521 37.365 548.43 37.2358 548.367 37.1334H548.294V40.1034H547.431ZM548.279 35.1875C548.279 35.6118 548.341 35.9861 548.466 36.3104C548.59 36.6323 548.772 36.8847 549.011 37.0675C549.25 37.248 549.542 37.3382 549.889 37.3382C550.25 37.3382 550.551 37.2431 550.792 37.0529C551.036 36.8603 551.219 36.6018 551.341 36.2775C551.465 35.9507 551.527 35.5874 551.527 35.1875C551.527 34.7925 551.466 34.4364 551.344 34.1195C551.225 33.8 551.043 33.5476 550.799 33.3623C550.558 33.1746 550.254 33.0807 549.889 33.0807C549.537 33.0807 549.242 33.1697 549.003 33.3477C548.764 33.5233 548.584 33.7695 548.462 34.0865C548.34 34.4011 548.279 34.7681 548.279 35.1875ZM557.687 33.6366L556.911 33.8561C556.863 33.7269 556.791 33.6013 556.696 33.4794C556.603 33.355 556.476 33.2526 556.315 33.1721C556.154 33.0916 555.948 33.0514 555.697 33.0514C555.353 33.0514 555.067 33.1307 554.837 33.2892C554.611 33.4452 554.497 33.644 554.497 33.8854C554.497 34.0999 554.575 34.2694 554.731 34.3938C554.887 34.5181 555.131 34.6218 555.463 34.7047L556.297 34.9095C556.799 35.0314 557.173 35.218 557.42 35.4691C557.666 35.7179 557.789 36.0385 557.789 36.4311C557.789 36.753 557.697 37.0407 557.511 37.2943C557.328 37.5479 557.072 37.7479 556.743 37.8942C556.414 38.0405 556.031 38.1136 555.595 38.1136C555.022 38.1136 554.547 37.9893 554.172 37.7405C553.796 37.4918 553.558 37.1285 553.458 36.6506L554.278 36.4457C554.356 36.7481 554.503 36.9749 554.72 37.1261C554.94 37.2772 555.226 37.3528 555.58 37.3528C555.982 37.3528 556.302 37.2675 556.538 37.0968C556.777 36.9237 556.897 36.7164 556.897 36.475C556.897 36.2799 556.828 36.1165 556.692 35.9849C556.555 35.8507 556.346 35.7508 556.063 35.6849L555.126 35.4655C554.612 35.3436 554.234 35.1546 553.993 34.8985C553.754 34.6401 553.634 34.317 553.634 33.9293C553.634 33.6123 553.723 33.3318 553.901 33.088C554.082 32.8441 554.327 32.6527 554.636 32.5137C554.948 32.3747 555.302 32.3052 555.697 32.3052C556.253 32.3052 556.689 32.4272 557.006 32.671C557.326 32.9149 557.553 33.2367 557.687 33.6366ZM559.089 37.9966V32.3784H559.952V37.9966H559.089ZM559.527 31.442C559.359 31.442 559.214 31.3847 559.092 31.2701C558.973 31.1555 558.913 31.0177 558.913 30.8568C558.913 30.6959 558.973 30.5581 559.092 30.4435C559.214 30.3289 559.359 30.2716 559.527 30.2716C559.696 30.2716 559.84 30.3289 559.959 30.4435C560.081 30.5581 560.142 30.6959 560.142 30.8568C560.142 31.0177 560.081 31.1555 559.959 31.2701C559.84 31.3847 559.696 31.442 559.527 31.442ZM562.089 40.1034C561.942 40.1034 561.812 40.0912 561.697 40.0668C561.583 40.0449 561.504 40.0229 561.46 40.001L561.679 39.2402C561.889 39.2938 562.074 39.3133 562.235 39.2987C562.396 39.2841 562.539 39.2121 562.663 39.0829C562.79 38.9561 562.906 38.7501 563.011 38.4648L563.171 38.0258L561.094 32.3784H562.03L563.581 36.8554H563.64L565.19 32.3784H566.127L563.742 38.8159C563.635 39.1061 563.502 39.3463 563.343 39.5365C563.185 39.7291 563.001 39.8717 562.791 39.9644C562.584 40.0571 562.35 40.1034 562.089 40.1034ZM569.347 38.1136C568.84 38.1136 568.395 37.9929 568.012 37.7515C567.632 37.5101 567.334 37.1724 567.12 36.7383C566.908 36.3043 566.802 35.7971 566.802 35.2168C566.802 34.6315 566.908 34.1207 567.12 33.6842C567.334 33.2477 567.632 32.9088 568.012 32.6674C568.395 32.4259 568.84 32.3052 569.347 32.3052C569.855 32.3052 570.298 32.4259 570.679 32.6674C571.062 32.9088 571.359 33.2477 571.571 33.6842C571.786 34.1207 571.893 34.6315 571.893 35.2168C571.893 35.7971 571.786 36.3043 571.571 36.7383C571.359 37.1724 571.062 37.5101 570.679 37.7515C570.298 37.9929 569.855 38.1136 569.347 38.1136ZM569.347 37.3382C569.733 37.3382 570.05 37.2394 570.298 37.0419C570.547 36.8444 570.731 36.5847 570.851 36.2628C570.97 35.941 571.03 35.5923 571.03 35.2168C571.03 34.8412 570.97 34.4913 570.851 34.167C570.731 33.8427 570.547 33.5806 570.298 33.3806C570.05 33.1806 569.733 33.0807 569.347 33.0807C568.962 33.0807 568.645 33.1806 568.396 33.3806C568.148 33.5806 567.964 33.8427 567.844 34.167C567.725 34.4913 567.665 34.8412 567.665 35.2168C567.665 35.5923 567.725 35.941 567.844 36.2628C567.964 36.5847 568.148 36.8444 568.396 37.0419C568.645 37.2394 568.962 37.3382 569.347 37.3382ZM574.074 34.6169V37.9966H573.211V32.3784H574.045V33.2562H574.118C574.25 32.9709 574.45 32.7417 574.718 32.5686C574.986 32.393 575.332 32.3052 575.757 32.3052C576.137 32.3052 576.47 32.3833 576.755 32.5393C577.04 32.693 577.262 32.9271 577.421 33.2416C577.579 33.5537 577.659 33.9488 577.659 34.4267V37.9966H576.795V34.4852C576.795 34.0439 576.681 33.7 576.452 33.4538C576.222 33.205 575.908 33.0807 575.508 33.0807C575.232 33.0807 574.986 33.1404 574.769 33.2599C574.554 33.3794 574.385 33.5537 574.261 33.7829C574.136 34.0122 574.074 34.2901 574.074 34.6169ZM581.591 38.1136C581.05 38.1136 580.583 37.9941 580.191 37.7552C579.8 37.5138 579.499 37.1773 579.287 36.7457C579.077 36.3116 578.973 35.8069 578.973 35.2314C578.973 34.6559 579.077 34.1487 579.287 33.7098C579.499 33.2684 579.794 32.9246 580.172 32.6783C580.553 32.4296 580.996 32.3052 581.504 32.3052C581.796 32.3052 582.085 32.354 582.371 32.4516C582.656 32.5491 582.916 32.7076 583.15 32.9271C583.384 33.1441 583.57 33.4318 583.709 33.7903C583.848 34.1487 583.918 34.5901 583.918 35.1143V35.4801H579.587V34.7339H583.04C583.04 34.4169 582.977 34.1341 582.85 33.8854C582.725 33.6366 582.547 33.4403 582.316 33.2965C582.086 33.1526 581.816 33.0807 581.504 33.0807C581.16 33.0807 580.862 33.166 580.611 33.3367C580.362 33.505 580.171 33.7244 580.037 33.9951C579.903 34.2658 579.836 34.5559 579.836 34.8656V35.3631C579.836 35.7873 579.909 36.147 580.055 36.4421C580.204 36.7347 580.41 36.9578 580.673 37.1114C580.937 37.2626 581.243 37.3382 581.591 37.3382C581.818 37.3382 582.023 37.3065 582.206 37.2431C582.391 37.1773 582.551 37.0797 582.685 36.9505C582.819 36.8188 582.923 36.6554 582.996 36.4604L583.83 36.6945C583.742 36.9773 583.595 37.226 583.387 37.4406C583.18 37.6528 582.924 37.8186 582.619 37.9381C582.314 38.0551 581.972 38.1136 581.591 38.1136ZM586.094 30.5057V37.9966H585.231V30.5057H586.094Z" fill="#F5F5F5"/>
<path d="M604.226 37.9966V37.3254L608.342 31.1805H604.181V30.3602H609.446V31.0314L605.33 37.1763H609.491V37.9966H604.226ZM613.249 38.1159C612.732 38.1159 612.279 37.9929 611.888 37.7468C611.501 37.5007 611.197 37.1564 610.979 36.7139C610.762 36.2714 610.654 35.7544 610.654 35.1628C610.654 34.5662 610.762 34.0454 610.979 33.6005C611.197 33.1555 611.501 32.81 611.888 32.5639C612.279 32.3178 612.732 32.1947 613.249 32.1947C613.766 32.1947 614.219 32.3178 614.607 32.5639C614.997 32.81 615.3 33.1555 615.516 33.6005C615.735 34.0454 615.845 34.5662 615.845 35.1628C615.845 35.7544 615.735 36.2714 615.516 36.7139C615.3 37.1564 614.997 37.5007 614.607 37.7468C614.219 37.9929 613.766 38.1159 613.249 38.1159ZM613.249 37.3254C613.642 37.3254 613.965 37.2247 614.219 37.0234C614.472 36.822 614.66 36.5573 614.782 36.2292C614.904 35.9011 614.965 35.5456 614.965 35.1628C614.965 34.78 614.904 34.4233 614.782 34.0926C614.66 33.762 614.472 33.4948 614.219 33.291C613.965 33.0871 613.642 32.9852 613.249 32.9852C612.857 32.9852 612.534 33.0871 612.28 33.291C612.026 33.4948 611.839 33.762 611.717 34.0926C611.595 34.4233 611.534 34.78 611.534 35.1628C611.534 35.5456 611.595 35.9011 611.717 36.2292C611.839 36.5573 612.026 36.822 612.28 37.0234C612.534 37.2247 612.857 37.3254 613.249 37.3254ZM617.188 37.9966V32.2693H618.038V33.1344H618.098C618.202 32.851 618.391 32.621 618.664 32.4446C618.938 32.2681 619.246 32.1798 619.589 32.1798C619.654 32.1798 619.735 32.1811 619.831 32.1835C619.928 32.186 620.002 32.1898 620.051 32.1947V33.0896C620.022 33.0822 619.953 33.071 619.846 33.0561C619.742 33.0387 619.631 33.03 619.515 33.03C619.236 33.03 618.988 33.0884 618.769 33.2052C618.553 33.3196 618.381 33.4786 618.254 33.6825C618.13 33.8838 618.068 34.1138 618.068 34.3723V37.9966H617.188ZM624.704 35.655V32.2693H625.584V37.9966H624.704V37.0271H624.644C624.51 37.318 624.301 37.5653 624.018 37.7691C623.734 37.9705 623.377 38.0712 622.944 38.0712C622.586 38.0712 622.268 37.9929 621.989 37.8362C621.711 37.6772 621.492 37.4385 621.333 37.1203C621.174 36.7997 621.095 36.3957 621.095 35.9085V32.2693H621.975V35.8489C621.975 36.2665 622.091 36.5996 622.325 36.8481C622.561 37.0967 622.862 37.221 623.227 37.221C623.446 37.221 623.669 37.1651 623.895 37.0532C624.124 36.9414 624.315 36.7698 624.469 36.5387C624.626 36.3075 624.704 36.0129 624.704 35.655ZM628.076 34.5513V37.9966H627.196V32.2693H628.046V33.1642H628.12C628.255 32.8734 628.458 32.6397 628.732 32.4632C629.005 32.2842 629.358 32.1947 629.791 32.1947C630.179 32.1947 630.518 32.2743 630.809 32.4334C631.1 32.59 631.326 32.8286 631.487 33.1493C631.649 33.4675 631.73 33.8702 631.73 34.3574V37.9966H630.85V34.417C630.85 33.9671 630.733 33.6166 630.499 33.3655C630.266 33.112 629.945 32.9852 629.537 32.9852C629.256 32.9852 629.005 33.0461 628.784 33.1679C628.565 33.2897 628.393 33.4675 628.266 33.7011C628.139 33.9348 628.076 34.2182 628.076 34.5513ZM634.218 30.3602V37.9966H633.338V30.3602H634.218ZM639.439 35.655V32.2693H640.319V37.9966H639.439V37.0271H639.379C639.245 37.318 639.036 37.5653 638.753 37.7691C638.469 37.9705 638.111 38.0712 637.679 38.0712C637.321 38.0712 637.003 37.9929 636.724 37.8362C636.446 37.6772 636.227 37.4385 636.068 37.1203C635.909 36.7997 635.829 36.3957 635.829 35.9085V32.2693H636.709V35.8489C636.709 36.2665 636.826 36.5996 637.06 36.8481C637.296 37.0967 637.597 37.221 637.962 37.221C638.181 37.221 638.403 37.1651 638.63 37.0532C638.858 36.9414 639.05 36.7698 639.204 36.5387C639.361 36.3075 639.439 36.0129 639.439 35.655Z" fill="#D4D4D4"/>
<path d="M32.3339 82.6996C32.2941 82.3466 32.1301 82.0732 31.8417 81.8793C31.5534 81.6829 31.1904 81.5848 30.7529 81.5848C30.4397 81.5848 30.1688 81.6345 29.9401 81.7339C29.7114 81.8308 29.5336 81.9651 29.4069 82.1366C29.2826 82.3056 29.2204 82.4983 29.2204 82.7145C29.2204 82.896 29.2627 83.0526 29.3472 83.1844C29.4342 83.3161 29.5473 83.4267 29.6865 83.5162C29.8282 83.6032 29.9798 83.6765 30.1414 83.7362C30.303 83.7934 30.4584 83.8406 30.6075 83.8779L31.3532 84.0718C31.5969 84.1314 31.8467 84.2122 32.1027 84.3142C32.3588 84.4161 32.5961 84.5503 32.8149 84.7169C33.0336 84.8834 33.2101 85.0897 33.3444 85.3358C33.4811 85.5819 33.5494 85.8765 33.5494 86.2195C33.5494 86.652 33.4376 87.0361 33.2139 87.3717C32.9926 87.7073 32.6707 87.972 32.2481 88.1659C31.828 88.3598 31.3197 88.4567 30.7231 88.4567C30.1514 88.4567 29.6567 88.366 29.2391 88.1845C28.8215 88.0031 28.4946 87.7458 28.2584 87.4127C28.0223 87.0771 27.8918 86.6794 27.8669 86.2195H29.0228C29.0452 86.4954 29.1347 86.7254 29.2913 86.9093C29.4504 87.0908 29.653 87.2263 29.8991 87.3158C30.1476 87.4028 30.4198 87.4463 30.7156 87.4463C31.0413 87.4463 31.3309 87.3953 31.5844 87.2934C31.8405 87.189 32.0418 87.0448 32.1885 86.8609C32.3351 86.6744 32.4085 86.4569 32.4085 86.2083C32.4085 85.9821 32.3438 85.7969 32.2146 85.6528C32.0878 85.5086 31.915 85.3893 31.6963 85.2948C31.48 85.2003 31.2352 85.1171 30.9617 85.045L30.0594 84.7989C29.4479 84.6323 28.9632 84.3875 28.6052 84.0643C28.2497 83.7412 28.072 83.3136 28.072 82.7817C28.072 82.3417 28.1913 81.9576 28.43 81.6295C28.6686 81.3014 28.9917 81.0466 29.3994 80.8651C29.8071 80.6812 30.267 80.5892 30.779 80.5892C31.2961 80.5892 31.7522 80.6799 32.1475 80.8614C32.5452 81.0428 32.8584 81.2927 33.0871 81.6109C33.3158 81.9265 33.4351 82.2895 33.445 82.6996H32.3339ZM41.8346 84.5118C41.8346 85.3271 41.6855 86.0281 41.3872 86.6148C41.0889 87.1989 40.68 87.6488 40.1604 87.9645C39.6434 88.2778 39.0555 88.4344 38.3968 88.4344C37.7355 88.4344 37.1452 88.2778 36.6256 87.9645C36.1086 87.6488 35.7009 87.1977 35.4026 86.611C35.1043 86.0244 34.9552 85.3246 34.9552 84.5118C34.9552 83.6964 35.1043 82.9967 35.4026 82.4125C35.7009 81.8259 36.1086 81.3759 36.6256 81.0627C37.1452 80.747 37.7355 80.5892 38.3968 80.5892C39.0555 80.5892 39.6434 80.747 40.1604 81.0627C40.68 81.3759 41.0889 81.8259 41.3872 82.4125C41.6855 82.9967 41.8346 83.6964 41.8346 84.5118ZM40.6936 84.5118C40.6936 83.8903 40.593 83.3671 40.3916 82.942C40.1927 82.5144 39.9193 82.1913 39.5713 81.9725C39.2258 81.7513 38.8343 81.6407 38.3968 81.6407C37.9568 81.6407 37.564 81.7513 37.2185 81.9725C36.873 82.1913 36.5995 82.5144 36.3982 82.942C36.1993 83.3671 36.0999 83.8903 36.0999 84.5118C36.0999 85.1332 36.1993 85.6577 36.3982 86.0853C36.5995 86.5104 36.873 86.8335 37.2185 87.0547C37.564 87.2735 37.9568 87.3829 38.3968 87.3829C38.8343 87.3829 39.2258 87.2735 39.5713 87.0547C39.9193 86.8335 40.1927 86.5104 40.3916 86.0853C40.593 85.6577 40.6936 85.1332 40.6936 84.5118ZM43.5461 88.33V80.6936H46.268C46.8597 80.6936 47.3506 80.7955 47.7409 80.9993C48.1336 81.2032 48.427 81.4853 48.6208 81.8458C48.8147 82.2037 48.9117 82.6176 48.9117 83.0874C48.9117 83.5547 48.8135 83.9661 48.6171 84.3216C48.4232 84.6746 48.1299 84.9493 47.7371 85.1457C47.3469 85.342 46.8559 85.4402 46.2643 85.4402H44.2023V84.4484H46.1599C46.5328 84.4484 46.836 84.3949 47.0697 84.2881C47.3059 84.1812 47.4786 84.0258 47.588 83.822C47.6974 83.6181 47.7521 83.3733 47.7521 83.0874C47.7521 82.7991 47.6961 82.5492 47.5843 82.3379C47.4749 82.1267 47.3021 81.9651 47.066 81.8532C46.8323 81.7389 46.5253 81.6817 46.145 81.6817H44.6983V88.33H43.5461ZM47.3158 84.8846L49.2025 88.33H47.89L46.0406 84.8846H47.3158ZM55.4994 80.6936H56.6553V85.7161C56.6553 86.2506 56.5297 86.7241 56.2787 87.1368C56.0276 87.5469 55.6746 87.8701 55.2197 88.1062C54.7648 88.3399 54.2316 88.4567 53.6201 88.4567C53.0111 88.4567 52.4791 88.3399 52.0242 88.1062C51.5693 87.8701 51.2163 87.5469 50.9653 87.1368C50.7142 86.7241 50.5887 86.2506 50.5887 85.7161V80.6936H51.7408V85.6229C51.7408 85.9685 51.8167 86.2754 51.9683 86.5439C52.1224 86.8124 52.3399 87.0237 52.6208 87.1778C52.9017 87.3294 53.2348 87.4052 53.6201 87.4052C54.0079 87.4052 54.3422 87.3294 54.6231 87.1778C54.9065 87.0237 55.1228 86.8124 55.2719 86.5439C55.4235 86.2754 55.4994 85.9685 55.4994 85.6229V80.6936ZM61.6592 80.6936H63.0574L65.4885 86.6297H65.578L68.0091 80.6936H69.4074V88.33H68.3112V82.804H68.2403L65.9882 88.3188H65.0784L62.8263 82.8003H62.7554V88.33H61.6592V80.6936ZM71.3575 88.33V80.6936H76.1452V81.6854H72.5097V84.0121H75.8953V85.0002H72.5097V87.3381H76.1899V88.33H71.3575ZM77.5826 81.6854V80.6936H83.4926V81.6854H81.1099V88.33H79.9615V81.6854H77.5826ZM91.2371 80.6936V88.33H90.1781L86.2965 82.7295H86.2257V88.33H85.0735V80.6936H86.1399L90.0252 86.3015H90.0961V80.6936H91.2371ZM94.3449 80.6936V88.33H93.1928V80.6936H94.3449Z" fill="#A1A1A1"/>
<rect x="25.33" y="99.33" width="621.33" height="34.66" rx="8" fill="#171717" fill-opacity="0.6"/>
<rect x="25.83" y="99.83" width="620.33" height="33.66" rx="7.5" stroke="white" stroke-opacity="0.1"/>
<path d="M44.2634 114.634C44.2084 114.169 43.9855 113.809 43.5946 113.552C43.2037 113.296 42.7242 113.168 42.1562 113.168C41.7408 113.168 41.3774 113.235 41.0659 113.369C40.7574 113.504 40.5162 113.688 40.3421 113.924C40.1711 114.159 40.0856 114.426 40.0856 114.725C40.0856 114.976 40.1451 115.191 40.2642 115.371C40.3864 115.548 40.5421 115.696 40.7315 115.815C40.9208 115.931 41.1193 116.028 41.327 116.104C41.5347 116.177 41.7255 116.237 41.8996 116.283L42.8525 116.539C43.0968 116.603 43.3686 116.692 43.6679 116.805C43.9702 116.918 44.2588 117.072 44.5337 117.268C44.8116 117.46 45.0406 117.707 45.2208 118.01C45.401 118.312 45.4911 118.683 45.4911 119.123C45.4911 119.63 45.3583 120.088 45.0926 120.497C44.8299 120.906 44.4451 121.232 43.9382 121.473C43.4342 121.714 42.8219 121.835 42.1012 121.835C41.4293 121.835 40.8475 121.726 40.3558 121.51C39.8672 121.293 39.4824 120.99 39.2014 120.603C38.9235 120.215 38.7662 119.764 38.7296 119.251H39.9023C39.9329 119.605 40.052 119.899 40.2596 120.131C40.4704 120.36 40.7361 120.531 41.0567 120.644C41.3804 120.754 41.7286 120.809 42.1012 120.809C42.5349 120.809 42.9242 120.738 43.2693 120.598C43.6144 120.454 43.8878 120.256 44.0893 120.002C44.2909 119.746 44.3917 119.447 44.3917 119.105C44.3917 118.793 44.3046 118.54 44.1306 118.344C43.9565 118.149 43.7274 117.99 43.4434 117.868C43.1594 117.746 42.8525 117.639 42.5226 117.547L41.3682 117.217C40.6353 117.006 40.055 116.706 39.6275 116.315C39.1999 115.924 38.9861 115.412 38.9861 114.78C38.9861 114.255 39.1281 113.797 39.4122 113.406C39.6992 113.012 40.084 112.706 40.5666 112.49C41.0521 112.27 41.5942 112.16 42.1928 112.16C42.7975 112.16 43.335 112.268 43.8053 112.485C44.2756 112.699 44.6482 112.992 44.9231 113.365C45.201 113.737 45.3476 114.16 45.3628 114.634H44.2634ZM50.0709 121.817C49.4357 121.817 48.8783 121.665 48.3989 121.363C47.9225 121.061 47.5499 120.638 47.2811 120.094C47.0154 119.55 46.8826 118.915 46.8826 118.188C46.8826 117.455 47.0154 116.816 47.2811 116.269C47.5499 115.722 47.9225 115.298 48.3989 114.995C48.8783 114.693 49.4357 114.542 50.0709 114.542C50.7062 114.542 51.262 114.693 51.7384 114.995C52.2179 115.298 52.5905 115.722 52.8562 116.269C53.1249 116.816 53.2593 117.455 53.2593 118.188C53.2593 118.915 53.1249 119.55 52.8562 120.094C52.5905 120.638 52.2179 121.061 51.7384 121.363C51.262 121.665 50.7062 121.817 50.0709 121.817ZM50.0709 120.845C50.5535 120.845 50.9505 120.722 51.262 120.474C51.5735 120.227 51.8041 119.902 51.9537 119.499C52.1033 119.095 52.1782 118.659 52.1782 118.188C52.1782 117.718 52.1033 117.28 51.9537 116.874C51.8041 116.467 51.5735 116.139 51.262 115.889C50.9505 115.638 50.5535 115.513 50.0709 115.513C49.5884 115.513 49.1914 115.638 48.8799 115.889C48.5684 116.139 48.3378 116.467 48.1881 116.874C48.0385 117.28 47.9637 117.718 47.9637 118.188C47.9637 118.659 48.0385 119.095 48.1881 119.499C48.3378 119.902 48.5684 120.227 48.8799 120.474C49.1914 120.722 49.5884 120.845 50.0709 120.845ZM54.9096 121.67V114.634H55.954V115.696H56.0273C56.1556 115.348 56.3877 115.066 56.7236 114.849C57.0596 114.632 57.4383 114.524 57.8597 114.524C57.9391 114.524 58.0384 114.525 58.1575 114.528C58.2766 114.531 58.3667 114.536 58.4278 114.542V115.641C58.3911 115.632 58.3071 115.618 58.1758 115.6C58.0475 115.579 57.9116 115.568 57.7681 115.568C57.426 115.568 57.1206 115.64 56.8519 115.783C56.5862 115.924 56.3755 116.119 56.2197 116.37C56.067 116.617 55.9907 116.9 55.9907 117.217V121.67H54.9096ZM64.1437 118.793V114.634H65.2248V121.67H64.1437V120.479H64.0704C63.9054 120.836 63.6489 121.14 63.3008 121.39C62.9526 121.638 62.5128 121.762 61.9814 121.762C61.5417 121.762 61.1508 121.665 60.8087 121.473C60.4667 121.277 60.1979 120.984 60.0025 120.593C59.807 120.199 59.7093 119.703 59.7093 119.105V114.634H60.7904V119.031C60.7904 119.544 60.9339 119.954 61.221 120.259C61.5111 120.564 61.8807 120.717 62.3296 120.717C62.5983 120.717 62.8717 120.648 63.1496 120.511C63.4305 120.374 63.6657 120.163 63.8551 119.879C64.0475 119.595 64.1437 119.233 64.1437 118.793ZM68.286 117.437V121.67H67.2049V114.634H68.2493V115.733H68.341C68.5059 115.376 68.7563 115.089 69.0922 114.872C69.4282 114.652 69.8618 114.542 70.3932 114.542C70.8697 114.542 71.2865 114.64 71.6438 114.835C72.0012 115.028 72.2791 115.321 72.4776 115.715C72.6761 116.106 72.7753 116.6 72.7753 117.199V121.67H71.6942V117.272C71.6942 116.719 71.5507 116.289 71.2636 115.98C70.9765 115.669 70.5826 115.513 70.0817 115.513C69.7366 115.513 69.4282 115.588 69.1564 115.738C68.8876 115.887 68.6754 116.106 68.5196 116.393C68.3639 116.68 68.286 117.028 68.286 117.437ZM79.1853 118.793V114.634H80.2664V121.67H79.1853V120.479H79.112C78.947 120.836 78.6905 121.14 78.3424 121.39C77.9942 121.638 77.5544 121.762 77.023 121.762C76.5833 121.762 76.1924 121.665 75.8503 121.473C75.5083 121.277 75.2395 120.984 75.0441 120.593C74.8486 120.199 74.7509 119.703 74.7509 119.105V114.634H75.832V119.031C75.832 119.544 75.9755 119.954 76.2626 120.259C76.5527 120.564 76.9223 120.717 77.3712 120.717C77.6399 120.717 77.9133 120.648 78.1912 120.511C78.4722 120.374 78.7073 120.163 78.8967 119.879C79.0891 119.595 79.1853 119.233 79.1853 118.793ZM82.0449 121.67V120.845L86.0395 115.715V115.641H82.1732V114.634H87.4321V115.495L83.5475 120.589V120.662H87.5604V121.67H82.0449ZM93.66 118.793V114.634H94.7411V121.67H93.66V120.479H93.5867C93.4217 120.836 93.1652 121.14 92.8171 121.39C92.4689 121.638 92.0291 121.762 91.4977 121.762C91.058 121.762 90.6671 121.665 90.325 121.473C89.983 121.277 89.7142 120.984 89.5188 120.593C89.3233 120.199 89.2256 119.703 89.2256 119.105V114.634H90.3067V119.031C90.3067 119.544 90.4502 119.954 90.7373 120.259C91.0274 120.564 91.397 120.717 91.8459 120.717C92.1146 120.717 92.388 120.648 92.6659 120.511C92.9469 120.374 93.182 120.163 93.3714 119.879C93.5638 119.595 93.66 119.233 93.66 118.793ZM100.496 121.67V112.288H101.577V115.751H101.669C101.748 115.629 101.858 115.473 101.998 115.284C102.142 115.092 102.347 114.921 102.612 114.771C102.881 114.618 103.244 114.542 103.703 114.542C104.295 114.542 104.817 114.69 105.269 114.986C105.721 115.283 106.074 115.702 106.327 116.246C106.581 116.79 106.708 117.431 106.708 118.17C106.708 118.915 106.581 119.561 106.327 120.108C106.074 120.651 105.723 121.073 105.274 121.372C104.825 121.668 104.307 121.817 103.721 121.817C103.269 121.817 102.907 121.742 102.635 121.592C102.363 121.439 102.154 121.267 102.008 121.074C101.861 120.879 101.748 120.717 101.669 120.589H101.54V121.67H100.496ZM101.559 118.152C101.559 118.683 101.637 119.152 101.792 119.558C101.948 119.961 102.176 120.277 102.475 120.506C102.774 120.732 103.141 120.845 103.574 120.845C104.026 120.845 104.403 120.726 104.706 120.488C105.011 120.247 105.24 119.923 105.393 119.517C105.549 119.108 105.627 118.653 105.627 118.152C105.627 117.657 105.55 117.211 105.398 116.814C105.248 116.414 105.02 116.098 104.715 115.866C104.413 115.631 104.032 115.513 103.574 115.513C103.135 115.513 102.765 115.625 102.466 115.848C102.166 116.067 101.94 116.376 101.788 116.773C101.635 117.167 101.559 117.626 101.559 118.152ZM112.796 118.793V114.634H113.877V121.67H112.796V120.479H112.723C112.558 120.836 112.301 121.14 111.953 121.39C111.605 121.638 111.165 121.762 110.634 121.762C110.194 121.762 109.803 121.665 109.461 121.473C109.119 121.277 108.85 120.984 108.655 120.593C108.459 120.199 108.361 119.703 108.361 119.105V114.634H109.443V119.031C109.443 119.544 109.586 119.954 109.873 120.259C110.163 120.564 110.533 120.717 110.982 120.717C111.25 120.717 111.524 120.648 111.802 120.511C112.083 120.374 112.318 120.163 112.507 119.879C112.7 119.595 112.796 119.233 112.796 118.793ZM115.857 121.67V114.634H116.901V115.696H116.975C117.103 115.348 117.335 115.066 117.671 114.849C118.007 114.632 118.386 114.524 118.807 114.524C118.887 114.524 118.986 114.525 119.105 114.528C119.224 114.531 119.314 114.536 119.375 114.542V115.641C119.339 115.632 119.255 115.618 119.123 115.6C118.995 115.579 118.859 115.568 118.716 115.568C118.374 115.568 118.068 115.64 117.799 115.783C117.534 115.924 117.323 116.119 117.167 116.37C117.014 116.617 116.938 116.9 116.938 117.217V121.67H115.857ZM122.727 121.835C122.281 121.835 121.877 121.751 121.513 121.583C121.15 121.412 120.861 121.166 120.648 120.845C120.434 120.522 120.327 120.131 120.327 119.673C120.327 119.269 120.406 118.943 120.565 118.692C120.724 118.439 120.936 118.24 121.202 118.097C121.468 117.953 121.761 117.846 122.081 117.776C122.405 117.703 122.73 117.645 123.057 117.602C123.485 117.547 123.831 117.506 124.097 117.478C124.366 117.448 124.561 117.397 124.683 117.327C124.809 117.257 124.871 117.135 124.871 116.961V116.924C124.871 116.472 124.748 116.121 124.5 115.87C124.256 115.62 123.885 115.495 123.387 115.495C122.871 115.495 122.466 115.608 122.173 115.834C121.88 116.06 121.674 116.301 121.555 116.558L120.528 116.191C120.712 115.764 120.956 115.431 121.261 115.192C121.57 114.951 121.906 114.783 122.269 114.689C122.636 114.591 122.996 114.542 123.35 114.542C123.576 114.542 123.836 114.569 124.129 114.624C124.425 114.676 124.711 114.785 124.986 114.95C125.264 115.115 125.494 115.363 125.677 115.696C125.861 116.029 125.952 116.475 125.952 117.034V121.67H124.871V120.717H124.816C124.743 120.87 124.621 121.033 124.45 121.207C124.279 121.381 124.051 121.529 123.767 121.652C123.483 121.774 123.137 121.835 122.727 121.835ZM122.892 120.864C123.32 120.864 123.68 120.78 123.973 120.612C124.27 120.444 124.493 120.227 124.642 119.961C124.795 119.696 124.871 119.416 124.871 119.123V118.133C124.825 118.188 124.725 118.239 124.569 118.285C124.416 118.327 124.239 118.366 124.037 118.399C123.839 118.43 123.645 118.457 123.456 118.482C123.269 118.503 123.118 118.521 123.002 118.537C122.721 118.573 122.459 118.633 122.214 118.715C121.973 118.795 121.778 118.915 121.628 119.077C121.481 119.236 121.408 119.453 121.408 119.728C121.408 120.103 121.547 120.387 121.825 120.58C122.106 120.769 122.462 120.864 122.892 120.864ZM128.37 124.309C128.187 124.309 128.023 124.293 127.88 124.263C127.736 124.235 127.637 124.208 127.582 124.18L127.857 123.227C128.12 123.295 128.352 123.319 128.553 123.301C128.755 123.282 128.933 123.192 129.089 123.03C129.248 122.872 129.393 122.614 129.524 122.256L129.726 121.707L127.124 114.634H128.297L130.239 120.241H130.312L132.255 114.634H133.427L130.441 122.696C130.306 123.059 130.14 123.36 129.941 123.599C129.743 123.84 129.512 124.018 129.249 124.134C128.99 124.251 128.697 124.309 128.37 124.309ZM136.711 121.835C136.265 121.835 135.86 121.751 135.497 121.583C135.133 121.412 134.845 121.166 134.631 120.845C134.417 120.522 134.31 120.131 134.31 119.673C134.31 119.269 134.39 118.943 134.549 118.692C134.707 118.439 134.92 118.24 135.185 118.097C135.451 117.953 135.744 117.846 136.065 117.776C136.389 117.703 136.714 117.645 137.041 117.602C137.468 117.547 137.815 117.506 138.08 117.478C138.349 117.448 138.545 117.397 138.667 117.327C138.792 117.257 138.855 117.135 138.855 116.961V116.924C138.855 116.472 138.731 116.121 138.484 115.87C138.239 115.62 137.868 115.495 137.37 115.495C136.854 115.495 136.45 115.608 136.156 115.834C135.863 116.06 135.657 116.301 135.538 116.558L134.512 116.191C134.695 115.764 134.939 115.431 135.245 115.192C135.553 114.951 135.889 114.783 136.253 114.689C136.619 114.591 136.979 114.542 137.334 114.542C137.56 114.542 137.819 114.569 138.113 114.624C138.409 114.676 138.694 114.785 138.969 114.95C139.247 115.115 139.478 115.363 139.661 115.696C139.844 116.029 139.936 116.475 139.936 117.034V121.67H138.855V120.717H138.8C138.726 120.87 138.604 121.033 138.433 121.207C138.262 121.381 138.035 121.529 137.751 121.652C137.467 121.774 137.12 121.835 136.711 121.835ZM136.876 120.864C137.303 120.864 137.664 120.78 137.957 120.612C138.253 120.444 138.476 120.227 138.626 119.961C138.778 119.696 138.855 119.416 138.855 119.123V118.133C138.809 118.188 138.708 118.239 138.552 118.285C138.4 118.327 138.222 118.366 138.021 118.399C137.822 118.43 137.628 118.457 137.439 118.482C137.253 118.503 137.102 118.521 136.986 118.537C136.705 118.573 136.442 118.633 136.198 118.715C135.956 118.795 135.761 118.915 135.611 119.077C135.465 119.236 135.391 119.453 135.391 119.728C135.391 120.103 135.53 120.387 135.808 120.58C136.089 120.769 136.445 120.864 136.876 120.864ZM146.233 124.309C146.05 124.309 145.887 124.293 145.743 124.263C145.6 124.235 145.5 124.208 145.445 124.18L145.72 123.227C145.983 123.295 146.215 123.319 146.417 123.301C146.618 123.282 146.797 123.192 146.953 123.03C147.111 122.872 147.256 122.614 147.388 122.256L147.589 121.707L144.987 114.634H146.16L148.102 120.241H148.176L150.118 114.634H151.291L148.304 122.696C148.17 123.059 148.003 123.36 147.805 123.599C147.606 123.84 147.376 124.018 147.113 124.134C146.853 124.251 146.56 124.309 146.233 124.309ZM154.574 121.835C154.128 121.835 153.724 121.751 153.36 121.583C152.997 121.412 152.708 121.166 152.494 120.845C152.281 120.522 152.174 120.131 152.174 119.673C152.174 119.269 152.253 118.943 152.412 118.692C152.571 118.439 152.783 118.24 153.049 118.097C153.314 117.953 153.608 117.846 153.928 117.776C154.252 117.703 154.577 117.645 154.904 117.602C155.332 117.547 155.678 117.506 155.944 117.478C156.213 117.448 156.408 117.397 156.53 117.327C156.655 117.257 156.718 117.135 156.718 116.961V116.924C156.718 116.472 156.594 116.121 156.347 115.87C156.103 115.62 155.732 115.495 155.234 115.495C154.718 115.495 154.313 115.608 154.02 115.834C153.727 116.06 153.521 116.301 153.401 116.558L152.375 116.191C152.559 115.764 152.803 115.431 153.108 115.192C153.417 114.951 153.753 114.783 154.116 114.689C154.483 114.591 154.843 114.542 155.197 114.542C155.423 114.542 155.683 114.569 155.976 114.624C156.272 114.676 156.558 114.785 156.833 114.95C157.111 115.115 157.341 115.363 157.524 115.696C157.708 116.029 157.799 116.475 157.799 117.034V121.67H156.718V120.717H156.663C156.59 120.87 156.468 121.033 156.297 121.207C156.126 121.381 155.898 121.529 155.614 121.652C155.33 121.774 154.983 121.835 154.574 121.835ZM154.739 120.864C155.167 120.864 155.527 120.78 155.82 120.612C156.116 120.444 156.339 120.227 156.489 119.961C156.642 119.696 156.718 119.416 156.718 119.123V118.133C156.672 118.188 156.572 118.239 156.416 118.285C156.263 118.327 156.086 118.366 155.884 118.399C155.686 118.43 155.492 118.457 155.303 118.482C155.116 118.503 154.965 118.521 154.849 118.537C154.568 118.573 154.305 118.633 154.061 118.715C153.82 118.795 153.624 118.915 153.475 119.077C153.328 119.236 153.255 119.453 153.255 119.728C153.255 120.103 153.394 120.387 153.672 120.58C153.953 120.769 154.309 120.864 154.739 120.864ZM159.571 121.67V120.845L163.565 115.715V115.641H159.699V114.634H164.958V115.495L161.073 120.589V120.662H165.086V121.67H159.571ZM166.752 121.67V114.634H167.833V121.67H166.752ZM170.894 117.437V121.67H169.813V114.634H170.857V115.733H170.949C171.114 115.376 171.364 115.089 171.7 114.872C172.036 114.652 172.47 114.542 173.001 114.542C173.478 114.542 173.894 114.64 174.252 114.835C174.609 115.028 174.887 115.321 175.085 115.715C175.284 116.106 175.383 116.6 175.383 117.199V121.67H174.302V117.272C174.302 116.719 174.159 116.289 173.872 115.98C173.584 115.669 173.19 115.513 172.69 115.513C172.345 115.513 172.036 115.588 171.764 115.738C171.496 115.887 171.283 116.106 171.128 116.393C170.972 116.68 170.894 117.028 170.894 117.437ZM178.147 121.743C177.921 121.743 177.727 121.662 177.565 121.5C177.403 121.339 177.322 121.145 177.322 120.919C177.322 120.693 177.403 120.499 177.565 120.337C177.727 120.175 177.921 120.094 178.147 120.094C178.373 120.094 178.567 120.175 178.728 120.337C178.89 120.499 178.971 120.693 178.971 120.919C178.971 121.068 178.933 121.206 178.857 121.331C178.783 121.456 178.684 121.557 178.559 121.633C178.437 121.707 178.299 121.743 178.147 121.743Z" fill="#737373"/>
<path d="M28.814 158H27.591L30.339 150.364H31.6702L34.4182 158H33.1952L31.0363 151.751H30.9766L28.814 158ZM29.0191 155.01H32.9864V155.979H29.0191V155.01ZM41.7796 152.847H40.6163C40.5715 152.598 40.4882 152.38 40.3664 152.191C40.2446 152.002 40.0955 151.841 39.919 151.71C39.7425 151.578 39.5449 151.479 39.3261 151.411C39.1099 151.344 38.8799 151.311 38.6363 151.311C38.1963 151.311 37.8023 151.421 37.4543 151.643C37.1088 151.864 36.8354 152.188 36.634 152.616C36.4352 153.043 36.3357 153.565 36.3357 154.182C36.3357 154.803 36.4352 155.328 36.634 155.755C36.8354 156.183 37.11 156.506 37.4581 156.725C37.8061 156.944 38.1976 157.053 38.6326 157.053C38.8737 157.053 39.1024 157.021 39.3187 156.956C39.5374 156.889 39.735 156.791 39.9115 156.661C40.088 156.532 40.2372 156.374 40.359 156.188C40.4833 155.999 40.569 155.783 40.6163 155.539L41.7796 155.543C41.7175 155.918 41.5969 156.264 41.4179 156.579C41.2414 156.893 41.014 157.164 40.7356 157.392C40.4597 157.618 40.144 157.794 39.7885 157.918C39.433 158.042 39.0452 158.104 38.6251 158.104C37.9639 158.104 37.3748 157.948 36.8577 157.635C36.3407 157.319 35.933 156.868 35.6347 156.281C35.3389 155.694 35.191 154.995 35.191 154.182C35.191 153.366 35.3402 152.667 35.6385 152.083C35.9368 151.496 36.3444 151.046 36.8615 150.733C37.3785 150.417 37.9664 150.259 38.6251 150.259C39.0303 150.259 39.4082 150.318 39.7587 150.434C40.1116 150.549 40.4286 150.718 40.7095 150.942C40.9904 151.163 41.2228 151.434 41.4067 151.754C41.5907 152.073 41.715 152.437 41.7796 152.847ZM38.2336 158.011H38.9645L38.9048 158.317C39.1211 158.352 39.31 158.439 39.4716 158.578C39.6331 158.717 39.7139 158.927 39.7139 159.208C39.7164 159.544 39.571 159.816 39.2777 160.025C38.9868 160.233 38.5655 160.338 38.0136 160.338L37.9913 159.715C38.2498 159.715 38.4586 159.678 38.6177 159.603C38.7793 159.529 38.8613 159.408 38.8638 159.242C38.8663 159.075 38.8041 158.958 38.6773 158.891C38.5531 158.824 38.3542 158.777 38.0808 158.749L38.2336 158.011ZM44.5855 150.364V158H43.4333V150.364H44.5855ZM46.5384 158V150.364H47.6905V154.01H47.7838L50.9867 150.364H52.4372L49.3573 153.801L52.4484 158H51.0613L48.5929 154.588L47.6905 155.625V158H46.5384ZM53.786 158V150.364H54.9382V157.008H58.3984V158H53.786ZM61.0225 158H59.7995L62.5475 150.364H63.8787L66.6267 158H65.4037L63.2448 151.751H63.1851L61.0225 158ZM61.2276 155.01H65.1949V155.979H61.2276V155.01ZM68.0045 150.364H69.4028L71.8339 156.3H71.9233L74.3545 150.364H75.7527V158H74.6565V152.474H74.5856L72.3335 157.989H71.4237L69.1716 152.47H69.1007V158H68.0045V150.364ZM78.3479 158H77.1249L79.8729 150.364H81.2041L83.9521 158H82.7291L80.5702 151.751H80.5105L78.3479 158ZM78.553 155.01H82.5203V155.979H78.553V155.01Z" fill="#A1A1A1"/>
<rect x="25.33" y="169" width="621.33" height="34.66" rx="8" fill="#171717" fill-opacity="0.6"/>
<rect x="25.83" y="169.5" width="620.33" height="33.66" rx="7.5" stroke="white" stroke-opacity="0.1"/>
<g clip-path="url(#clip1_1005_196)">
<path d="M39.5293 191.33H38.329L41.8006 181.875H42.9824L46.454 191.33H45.2537L42.4285 183.371H42.3546L39.5293 191.33ZM39.9725 187.637H44.8106V188.652H39.9725V187.637ZM50.6596 191.478C49.9949 191.478 49.4224 191.321 48.9423 191.007C48.4622 190.693 48.0929 190.26 47.8344 189.71C47.5758 189.159 47.4466 188.529 47.4466 187.821C47.4466 187.101 47.5789 186.466 47.8436 185.915C48.1113 185.361 48.4837 184.928 48.9608 184.618C49.4409 184.304 50.001 184.147 50.6412 184.147C51.1398 184.147 51.5891 184.239 51.9892 184.424C52.3893 184.608 52.7171 184.867 52.9725 185.199C53.2279 185.532 53.3864 185.919 53.448 186.363H52.3585C52.2754 186.039 52.0907 185.753 51.8045 185.504C51.5214 185.252 51.1398 185.125 50.6596 185.125C50.2349 185.125 49.8625 185.236 49.5425 185.458C49.2255 185.676 48.9777 185.986 48.7992 186.386C48.6238 186.783 48.5361 187.249 48.5361 187.785C48.5361 188.332 48.6222 188.809 48.7946 189.216C48.97 189.622 49.2162 189.937 49.5332 190.162C49.8533 190.387 50.2288 190.499 50.6596 190.499C50.9428 190.499 51.1998 190.45 51.4306 190.351C51.6614 190.253 51.8568 190.111 52.0169 189.927C52.1769 189.742 52.2908 189.52 52.3585 189.262H53.448C53.3864 189.68 53.2341 190.057 52.991 190.393C52.7509 190.725 52.4324 190.99 52.0354 191.187C51.6414 191.381 51.1828 191.478 50.6596 191.478ZM50.1426 191.293H51.0474L50.9736 191.662C51.2136 191.699 51.4337 191.799 51.6337 191.962C51.8338 192.129 51.9338 192.392 51.9338 192.752C51.9338 193.149 51.7691 193.472 51.4398 193.721C51.1136 193.974 50.6319 194.1 49.9949 194.1L49.9579 193.38C50.2442 193.38 50.4811 193.334 50.6689 193.241C50.8597 193.152 50.9551 193.001 50.9551 192.789C50.9551 192.576 50.8766 192.432 50.7197 192.355C50.5627 192.278 50.3088 192.226 49.9579 192.198L50.1426 191.293ZM55.0407 191.33V184.239H56.1302V191.33H55.0407ZM59.1413 188.745L59.1228 187.397H59.3444L62.4467 184.239H63.7947L60.4893 187.581H60.3969L59.1413 188.745ZM58.1256 191.33V181.875H59.2151V191.33H58.1256ZM62.6313 191.33L59.8614 187.821L60.637 187.064L64.0163 191.33H62.6313ZM66.2864 181.875V191.33H65.1969V181.875H66.2864ZM70.3685 191.496C69.9192 191.496 69.5114 191.412 69.1452 191.242C68.7789 191.07 68.4881 190.822 68.2727 190.499C68.0572 190.173 67.9495 189.779 67.9495 189.317C67.9495 188.911 68.0295 188.582 68.1896 188.329C68.3496 188.074 68.5635 187.874 68.8312 187.729C69.099 187.584 69.3945 187.477 69.7176 187.406C70.0438 187.332 70.3716 187.274 70.7009 187.231C71.1318 187.175 71.4811 187.134 71.7489 187.106C72.0197 187.075 72.2167 187.024 72.3398 186.954C72.466 186.883 72.529 186.76 72.529 186.584V186.547C72.529 186.092 72.4044 185.738 72.1551 185.485C71.9089 185.233 71.535 185.107 71.0333 185.107C70.5132 185.107 70.1054 185.221 69.8099 185.449C69.5145 185.676 69.3067 185.919 69.1867 186.178L68.1526 185.809C68.3373 185.378 68.5835 185.042 68.8913 184.802C69.2021 184.559 69.5406 184.39 69.9069 184.294C70.2762 184.196 70.6394 184.147 70.9964 184.147C71.2241 184.147 71.4857 184.174 71.7812 184.23C72.0797 184.282 72.3675 184.391 72.6445 184.558C72.9245 184.724 73.1569 184.975 73.3415 185.31C73.5262 185.646 73.6185 186.095 73.6185 186.658V191.33H72.529V190.37H72.4736C72.3998 190.524 72.2767 190.688 72.1043 190.864C71.932 191.039 71.7027 191.188 71.4165 191.311C71.1303 191.435 70.7809 191.496 70.3685 191.496ZM70.5347 190.517C70.9656 190.517 71.3288 190.433 71.6242 190.264C71.9227 190.094 72.1474 189.876 72.2982 189.608C72.4521 189.34 72.529 189.059 72.529 188.763V187.766C72.4829 187.821 72.3813 187.872 72.2244 187.918C72.0705 187.961 71.892 188 71.6888 188.034C71.4888 188.065 71.2934 188.092 71.1026 188.117C70.9148 188.138 70.7625 188.157 70.6455 188.172C70.3624 188.209 70.0977 188.269 69.8515 188.352C69.6084 188.432 69.4114 188.554 69.2606 188.717C69.1129 188.877 69.039 189.096 69.039 189.373C69.039 189.751 69.179 190.037 69.4591 190.231C69.7422 190.422 70.1008 190.517 70.5347 190.517ZM75.6071 191.33V184.239H76.6596V185.347H76.752C76.8997 184.968 77.1382 184.675 77.4675 184.465C77.7968 184.253 78.1923 184.147 78.654 184.147C79.1218 184.147 79.5111 184.253 79.8219 184.465C80.1358 184.675 80.3805 184.968 80.5559 185.347H80.6298C80.8114 184.981 81.0838 184.69 81.4469 184.474C81.8101 184.256 82.2456 184.147 82.7534 184.147C83.3874 184.147 83.906 184.345 84.3091 184.742C84.7123 185.136 84.9139 185.75 84.9139 186.584V191.33H83.8244V186.584C83.8244 186.061 83.6813 185.687 83.3951 185.462C83.1089 185.238 82.7719 185.125 82.3841 185.125C81.8855 185.125 81.4992 185.276 81.2253 185.578C80.9514 185.876 80.8145 186.255 80.8145 186.713V191.33H79.7065V186.473C79.7065 186.07 79.5757 185.746 79.3141 185.499C79.0525 185.25 78.7155 185.125 78.3031 185.125C78.02 185.125 77.7553 185.201 77.5091 185.352C77.2659 185.502 77.069 185.712 76.9182 185.979C76.7704 186.244 76.6966 186.55 76.6966 186.898V191.33H75.6071ZM88.9926 191.496C88.5432 191.496 88.1354 191.412 87.7692 191.242C87.403 191.07 87.1121 190.822 86.8967 190.499C86.6812 190.173 86.5735 189.779 86.5735 189.317C86.5735 188.911 86.6535 188.582 86.8136 188.329C86.9736 188.074 87.1875 187.874 87.4553 187.729C87.723 187.584 88.0185 187.477 88.3416 187.406C88.6679 187.332 88.9956 187.274 89.3249 187.231C89.7558 187.175 90.1051 187.134 90.3729 187.106C90.6437 187.075 90.8407 187.024 90.9638 186.954C91.09 186.883 91.1531 186.76 91.1531 186.584V186.547C91.1531 186.092 91.0284 185.738 90.7791 185.485C90.5329 185.233 90.159 185.107 89.6573 185.107C89.1372 185.107 88.7294 185.221 88.434 185.449C88.1385 185.676 87.9308 185.919 87.8107 186.178L86.7767 185.809C86.9613 185.378 87.2075 185.042 87.5153 184.802C87.8261 184.559 88.1647 184.39 88.5309 184.294C88.9002 184.196 89.2634 184.147 89.6204 184.147C89.8481 184.147 90.1097 184.174 90.4052 184.23C90.7037 184.282 90.9915 184.391 91.2685 184.558C91.5485 184.724 91.7809 184.975 91.9656 185.31C92.1502 185.646 92.2426 186.095 92.2426 186.658V191.33H91.1531V190.37H91.0977C91.0238 190.524 90.9007 190.688 90.7284 190.864C90.556 191.039 90.3267 191.188 90.0405 191.311C89.7543 191.435 89.405 191.496 88.9926 191.496ZM89.1588 190.517C89.5896 190.517 89.9528 190.433 90.2482 190.264C90.5468 190.094 90.7714 189.876 90.9222 189.608C91.0761 189.34 91.1531 189.059 91.1531 188.763V187.766C91.1069 187.821 91.0053 187.872 90.8484 187.918C90.6945 187.961 90.516 188 90.3129 188.034C90.1128 188.065 89.9174 188.092 89.7266 188.117C89.5388 188.138 89.3865 188.157 89.2695 188.172C88.9864 188.209 88.7217 188.269 88.4755 188.352C88.2324 188.432 88.0354 188.554 87.8846 188.717C87.7369 188.877 87.663 189.096 87.663 189.373C87.663 189.751 87.803 190.037 88.0831 190.231C88.3663 190.422 88.7248 190.517 89.1588 190.517ZM95.3206 187.064V191.33H94.2311V184.239H95.2837V185.347H95.376C95.5422 184.987 95.7946 184.698 96.1331 184.479C96.4716 184.258 96.9087 184.147 97.4442 184.147C97.9243 184.147 98.3444 184.245 98.7045 184.442C99.0646 184.636 99.3446 184.932 99.5447 185.329C99.7447 185.722 99.8447 186.221 99.8447 186.824V191.33H98.7553V186.898C98.7553 186.341 98.6106 185.907 98.3213 185.596C98.032 185.282 97.635 185.125 97.1303 185.125C96.7825 185.125 96.4716 185.201 96.1977 185.352C95.9269 185.502 95.713 185.722 95.556 186.012C95.3991 186.301 95.3206 186.652 95.3206 187.064ZM101.836 191.33V184.239H102.925V191.33H101.836ZM104.717 191.33V190.499L108.743 185.329V185.255H104.847V184.239H110.146V185.107L106.232 190.24V190.314H110.276V191.33H104.717ZM111.954 191.33V184.239H113.043V191.33H111.954ZM118.843 191.33V181.875H119.932V185.365H120.025C120.105 185.242 120.215 185.085 120.357 184.895C120.502 184.701 120.708 184.528 120.976 184.378C121.246 184.224 121.613 184.147 122.074 184.147C122.671 184.147 123.198 184.296 123.653 184.595C124.109 184.893 124.464 185.316 124.719 185.864C124.975 186.412 125.103 187.058 125.103 187.803C125.103 188.554 124.975 189.205 124.719 189.756C124.464 190.304 124.11 190.728 123.658 191.03C123.205 191.328 122.684 191.478 122.093 191.478C121.637 191.478 121.273 191.402 120.999 191.251C120.725 191.098 120.514 190.924 120.366 190.73C120.218 190.533 120.105 190.37 120.025 190.24H119.895V191.33H118.843ZM119.914 187.785C119.914 188.32 119.992 188.792 120.149 189.202C120.306 189.608 120.535 189.927 120.837 190.157C121.139 190.385 121.508 190.499 121.945 190.499C122.4 190.499 122.781 190.379 123.085 190.139C123.393 189.896 123.624 189.57 123.778 189.16C123.935 188.748 124.013 188.289 124.013 187.785C124.013 187.286 123.936 186.837 123.782 186.436C123.632 186.033 123.402 185.715 123.094 185.481C122.79 185.244 122.407 185.125 121.945 185.125C121.502 185.125 121.129 185.238 120.828 185.462C120.526 185.684 120.298 185.995 120.145 186.395C119.991 186.792 119.914 187.255 119.914 187.785ZM131.238 188.431V184.239H132.327V191.33H131.238V190.13H131.164C130.998 190.49 130.739 190.796 130.389 191.048C130.038 191.298 129.594 191.422 129.059 191.422C128.616 191.422 128.222 191.325 127.877 191.131C127.532 190.934 127.262 190.639 127.065 190.245C126.868 189.848 126.769 189.348 126.769 188.745V184.239H127.859V188.671C127.859 189.188 128.003 189.6 128.293 189.908C128.585 190.216 128.957 190.37 129.41 190.37C129.681 190.37 129.956 190.3 130.236 190.162C130.519 190.023 130.756 189.811 130.947 189.525C131.141 189.239 131.238 188.874 131.238 188.431ZM134.323 191.33V184.239H135.375V185.31H135.449C135.579 184.959 135.812 184.675 136.151 184.456C136.49 184.238 136.871 184.128 137.296 184.128C137.376 184.128 137.476 184.13 137.596 184.133C137.716 184.136 137.807 184.141 137.868 184.147V185.255C137.831 185.245 137.747 185.232 137.614 185.213C137.485 185.192 137.348 185.181 137.204 185.181C136.859 185.181 136.551 185.253 136.28 185.398C136.013 185.539 135.8 185.736 135.643 185.989C135.489 186.238 135.412 186.523 135.412 186.843V191.33H134.323ZM141.246 191.496C140.797 191.496 140.389 191.412 140.023 191.242C139.657 191.07 139.366 190.822 139.151 190.499C138.935 190.173 138.827 189.779 138.827 189.317C138.827 188.911 138.907 188.582 139.067 188.329C139.228 188.074 139.441 187.874 139.709 187.729C139.977 187.584 140.272 187.477 140.596 187.406C140.922 187.332 141.25 187.274 141.579 187.231C142.01 187.175 142.359 187.134 142.627 187.106C142.898 187.075 143.095 187.024 143.218 186.954C143.344 186.883 143.407 186.76 143.407 186.584V186.547C143.407 186.092 143.282 185.738 143.033 185.485C142.787 185.233 142.413 185.107 141.911 185.107C141.391 185.107 140.983 185.221 140.688 185.449C140.392 185.676 140.185 185.919 140.065 186.178L139.031 185.809C139.215 185.378 139.461 185.042 139.769 184.802C140.08 184.559 140.419 184.39 140.785 184.294C141.154 184.196 141.517 184.147 141.874 184.147C142.102 184.147 142.364 184.174 142.659 184.23C142.958 184.282 143.245 184.391 143.522 184.558C143.802 184.724 144.035 184.975 144.219 185.31C144.404 185.646 144.496 186.095 144.496 186.658V191.33H143.407V190.37H143.352C143.278 190.524 143.155 190.688 142.982 190.864C142.81 191.039 142.581 191.188 142.294 191.311C142.008 191.435 141.659 191.496 141.246 191.496ZM141.413 190.517C141.844 190.517 142.207 190.433 142.502 190.264C142.801 190.094 143.025 189.876 143.176 189.608C143.33 189.34 143.407 189.059 143.407 188.763V187.766C143.361 187.821 143.259 187.872 143.102 187.918C142.948 187.961 142.77 188 142.567 188.034C142.367 188.065 142.171 188.092 141.98 188.117C141.793 188.138 141.64 188.157 141.523 188.172C141.24 188.209 140.976 188.269 140.729 188.352C140.486 188.432 140.289 188.554 140.139 188.717C139.991 188.877 139.917 189.096 139.917 189.373C139.917 189.751 140.057 190.037 140.337 190.231C140.62 190.422 140.979 190.517 141.413 190.517ZM146.933 193.989C146.748 193.989 146.583 193.974 146.439 193.943C146.294 193.915 146.194 193.887 146.139 193.86L146.416 192.9C146.68 192.967 146.914 192.992 147.117 192.973C147.321 192.955 147.501 192.864 147.658 192.701C147.818 192.541 147.964 192.281 148.096 191.921L148.299 191.367L145.677 184.239H146.859L148.816 189.89H148.89L150.848 184.239H152.029L149.019 192.364C148.884 192.73 148.716 193.033 148.516 193.273C148.316 193.517 148.084 193.697 147.819 193.814C147.558 193.931 147.262 193.989 146.933 193.989ZM155.338 191.496C154.889 191.496 154.481 191.412 154.115 191.242C153.749 191.07 153.458 190.822 153.242 190.499C153.027 190.173 152.919 189.779 152.919 189.317C152.919 188.911 152.999 188.582 153.159 188.329C153.319 188.074 153.533 187.874 153.801 187.729C154.069 187.584 154.364 187.477 154.687 187.406C155.014 187.332 155.341 187.274 155.671 187.231C156.102 187.175 156.451 187.134 156.719 187.106C156.989 187.075 157.186 187.024 157.309 186.954C157.436 186.883 157.499 186.76 157.499 186.584V186.547C157.499 186.092 157.374 185.738 157.125 185.485C156.879 185.233 156.505 185.107 156.003 185.107C155.483 185.107 155.075 185.221 154.78 185.449C154.484 185.676 154.276 185.919 154.156 186.178L153.122 185.809C153.307 185.378 153.553 185.042 153.861 184.802C154.172 184.559 154.51 184.39 154.877 184.294C155.246 184.196 155.609 184.147 155.966 184.147C156.194 184.147 156.455 184.174 156.751 184.23C157.049 184.282 157.337 184.391 157.614 184.558C157.894 184.724 158.127 184.975 158.311 185.31C158.496 185.646 158.588 186.095 158.588 186.658V191.33H157.499V190.37H157.443C157.37 190.524 157.246 190.688 157.074 190.864C156.902 191.039 156.672 191.188 156.386 191.311C156.1 191.435 155.751 191.496 155.338 191.496ZM155.504 190.517C155.935 190.517 156.298 190.433 156.594 190.264C156.892 190.094 157.117 189.876 157.268 189.608C157.422 189.34 157.499 189.059 157.499 188.763V187.766C157.453 187.821 157.351 187.872 157.194 187.918C157.04 187.961 156.862 188 156.659 188.034C156.459 188.065 156.263 188.092 156.072 188.117C155.885 188.138 155.732 188.157 155.615 188.172C155.332 188.209 155.067 188.269 154.821 188.352C154.578 188.432 154.381 188.554 154.23 188.717C154.083 188.877 154.009 189.096 154.009 189.373C154.009 189.751 154.149 190.037 154.429 190.231C154.712 190.422 155.071 190.517 155.504 190.517ZM164.935 193.989C164.75 193.989 164.585 193.974 164.441 193.943C164.296 193.915 164.196 193.887 164.141 193.86L164.418 192.9C164.682 192.967 164.916 192.992 165.119 192.973C165.323 192.955 165.503 192.864 165.66 192.701C165.82 192.541 165.966 192.281 166.098 191.921L166.301 191.367L163.679 184.239H164.861L166.818 189.89H166.892L168.85 184.239H170.031L167.021 192.364C166.886 192.73 166.718 193.033 166.518 193.273C166.318 193.517 166.086 193.697 165.821 193.814C165.56 193.931 165.264 193.989 164.935 193.989ZM173.34 191.496C172.891 191.496 172.483 191.412 172.117 191.242C171.751 191.07 171.46 190.822 171.244 190.499C171.029 190.173 170.921 189.779 170.921 189.317C170.921 188.911 171.001 188.582 171.161 188.329C171.321 188.074 171.535 187.874 171.803 187.729C172.071 187.584 172.366 187.477 172.689 187.406C173.016 187.332 173.343 187.274 173.673 187.231C174.103 187.175 174.453 187.134 174.721 187.106C174.991 187.075 175.188 187.024 175.311 186.954C175.438 186.883 175.501 186.76 175.501 186.584V186.547C175.501 186.092 175.376 185.738 175.127 185.485C174.881 185.233 174.507 185.107 174.005 185.107C173.485 185.107 173.077 185.221 172.782 185.449C172.486 185.676 172.278 185.919 172.158 186.178L171.124 185.809C171.309 185.378 171.555 185.042 171.863 184.802C172.174 184.559 172.512 184.39 172.879 184.294C173.248 184.196 173.611 184.147 173.968 184.147C174.196 184.147 174.457 184.174 174.753 184.23C175.051 184.282 175.339 184.391 175.616 184.558C175.896 184.724 176.129 184.975 176.313 185.31C176.498 185.646 176.59 186.095 176.59 186.658V191.33H175.501V190.37H175.445C175.371 190.524 175.248 190.688 175.076 190.864C174.904 191.039 174.674 191.188 174.388 191.311C174.102 191.435 173.753 191.496 173.34 191.496ZM173.506 190.517C173.937 190.517 174.3 190.433 174.596 190.264C174.894 190.094 175.119 189.876 175.27 189.608C175.424 189.34 175.501 189.059 175.501 188.763V187.766C175.455 187.821 175.353 187.872 175.196 187.918C175.042 187.961 174.864 188 174.661 188.034C174.46 188.065 174.265 188.092 174.074 188.117C173.886 188.138 173.734 188.157 173.617 188.172C173.334 188.209 173.069 188.269 172.823 188.352C172.58 188.432 172.383 188.554 172.232 188.717C172.085 188.877 172.011 189.096 172.011 189.373C172.011 189.751 172.151 190.037 172.431 190.231C172.714 190.422 173.072 190.517 173.506 190.517ZM178.376 191.33V190.499L182.401 185.329V185.255H178.505V184.239H183.805V185.107L179.89 190.24V190.314H183.934V191.33H178.376ZM185.612 191.33V184.239H186.701V191.33H185.612ZM189.786 187.064V191.33H188.697V184.239H189.749V185.347H189.842C190.008 184.987 190.26 184.698 190.599 184.479C190.937 184.258 191.374 184.147 191.91 184.147C192.39 184.147 192.81 184.245 193.17 184.442C193.53 184.636 193.81 184.932 194.01 185.329C194.211 185.722 194.311 186.221 194.311 186.824V191.33H193.221V186.898C193.221 186.341 193.076 185.907 192.787 185.596C192.498 185.282 192.101 185.125 191.596 185.125C191.248 185.125 190.937 185.201 190.664 185.352C190.393 185.502 190.179 185.722 190.022 186.012C189.865 186.301 189.786 186.652 189.786 187.064ZM197.095 191.404C196.868 191.404 196.672 191.322 196.509 191.159C196.346 190.996 196.264 190.801 196.264 190.573C196.264 190.345 196.346 190.15 196.509 189.987C196.672 189.823 196.868 189.742 197.095 189.742C197.323 189.742 197.519 189.823 197.682 189.987C197.845 190.15 197.926 190.345 197.926 190.573C197.926 190.724 197.888 190.862 197.811 190.988C197.737 191.115 197.637 191.216 197.511 191.293C197.388 191.367 197.249 191.404 197.095 191.404Z" fill="#737373"/>
</g>
<defs>
<clipPath id="clip0_1005_196">
<rect width="377.01" height="20" fill="white" transform="translate(57.33 24.4966)"/>
</clipPath>
<clipPath id="clip1_1005_196">
<rect width="596" height="16" fill="white" transform="translate(37.9966 178.33)"/>
</clipPath>
</defs>
</svg>
