<svg width="616" height="264" viewBox="0 0 616 264" fill="none" xmlns="http://www.w3.org/2000/svg">
<rect width="616" height="263.987" rx="12" fill="#171717"/>
<rect x="0.5" y="0.5" width="615" height="262.987" rx="11.5" stroke="white" stroke-opacity="0.1"/>
<rect x="13" y="14.1667" width="24" height="24" rx="6" fill="white" fill-opacity="0.05"/>
<rect x="13.5" y="14.6667" width="23" height="23" rx="5.5" stroke="white" stroke-opacity="0.1"/>
<path d="M25.0029 29.8533C24.7228 29.8533 24.4828 29.7548 24.2827 29.5578C24.0827 29.3608 23.9842 29.1208 23.9873 28.8376C23.9842 28.5607 24.0827 28.3237 24.2827 28.1267C24.4828 27.9297 24.7228 27.8313 25.0029 27.8313C25.2737 27.8313 25.5092 27.9297 25.7092 28.1267C25.9123 28.3237 26.0154 28.5607 26.0185 28.8376C26.0154 29.0254 25.9662 29.1962 25.8708 29.3501C25.7785 29.504 25.6553 29.6271 25.5015 29.7194C25.3507 29.8086 25.1845 29.8533 25.0029 29.8533Z" fill="#E5E5E5"/>
<g clip-path="url(#clip0_8_101)">
<path d="M50.0627 31.1667V21.494H53.6049C54.2913 21.494 54.8597 21.6073 55.3099 21.834C55.7602 22.0576 56.0971 22.3614 56.3207 22.7456C56.5442 23.1265 56.656 23.5563 56.656 24.0349C56.656 24.438 56.582 24.778 56.434 25.0551C56.286 25.329 56.0877 25.5495 55.8389 25.7163C55.5933 25.8801 55.3225 25.9997 55.0266 26.0753V26.1697C55.3477 26.1855 55.661 26.2894 55.9664 26.4815C56.275 26.6704 56.5301 26.9396 56.7316 27.2891C56.9331 27.6386 57.0338 28.0637 57.0338 28.5643C57.0338 29.0586 56.9173 29.5026 56.6843 29.8962C56.4545 30.2866 56.0987 30.5968 55.6169 30.8266C55.1352 31.0533 54.5196 31.1667 53.7702 31.1667H50.0627ZM51.5221 29.9151H53.6286C54.3276 29.9151 54.8282 29.7797 55.1305 29.5089C55.4327 29.2381 55.5839 28.8996 55.5839 28.4935C55.5839 28.188 55.5067 27.9078 55.3525 27.6528C55.1982 27.3977 54.9778 27.1946 54.6912 27.0435C54.4078 26.8924 54.0709 26.8168 53.6805 26.8168H51.5221V29.9151ZM51.5221 25.6785H53.4774C53.8049 25.6785 54.0993 25.6156 54.3606 25.4896C54.6251 25.3637 54.8345 25.1874 54.9888 24.9606C55.1462 24.7308 55.2249 24.46 55.2249 24.1483C55.2249 23.7484 55.0848 23.4131 54.8046 23.1423C54.5243 22.8715 54.0946 22.7361 53.5152 22.7361H51.5221V25.6785ZM60.7627 31.3273C60.303 31.3273 59.8873 31.2423 59.5158 31.0722C59.1442 30.899 58.8498 30.6487 58.6326 30.3213C58.4185 29.9938 58.3114 29.5923 58.3114 29.1169C58.3114 28.7076 58.3901 28.3707 58.5476 28.1062C58.705 27.8417 58.9175 27.6323 59.1852 27.478C59.4528 27.3237 59.7519 27.2072 60.0825 27.1285C60.4132 27.0498 60.7501 26.99 61.0933 26.949C61.5278 26.8987 61.8804 26.8577 62.1512 26.8262C62.422 26.7916 62.6188 26.7365 62.7416 26.6609C62.8644 26.5854 62.9258 26.4626 62.9258 26.2925V26.2595C62.9258 25.847 62.8093 25.5274 62.5763 25.3007C62.3464 25.074 62.0032 24.9606 61.5467 24.9606C61.0712 24.9606 60.6965 25.0661 60.4226 25.2771C60.1518 25.4849 59.9645 25.7163 59.8606 25.9714L58.5334 25.6691C58.6908 25.2283 58.9207 24.8725 59.223 24.6017C59.5284 24.3278 59.8795 24.1294 60.2762 24.0066C60.6729 23.8807 61.0901 23.8177 61.5278 23.8177C61.8175 23.8177 62.1245 23.8523 62.4488 23.9216C62.7762 23.9877 63.0817 24.1105 63.365 24.29C63.6516 24.4695 63.8861 24.7261 64.0688 25.0598C64.2514 25.3904 64.3427 25.8202 64.3427 26.3492V31.1667H62.9636V30.1749H62.9069C62.8156 30.3575 62.6786 30.537 62.496 30.7133C62.3134 30.8896 62.0788 31.036 61.7923 31.1525C61.5057 31.269 61.1625 31.3273 60.7627 31.3273ZM61.0697 30.1937C61.4601 30.1937 61.7939 30.1166 62.0709 29.9623C62.3512 29.808 62.5637 29.6065 62.7085 29.3578C62.8565 29.1059 62.9305 28.8367 62.9305 28.5501V27.615C62.8801 27.6654 62.7825 27.7126 62.6377 27.7567C62.496 27.7976 62.3338 27.8338 62.1512 27.8653C61.9686 27.8936 61.7907 27.9204 61.6175 27.9456C61.4443 27.9676 61.2995 27.9865 61.183 28.0023C60.9091 28.0369 60.6588 28.0952 60.432 28.177C60.2085 28.2589 60.029 28.377 59.8936 28.5312C59.7614 28.6824 59.6953 28.8839 59.6953 29.1358C59.6953 29.4853 59.8244 29.7498 60.0825 29.9293C60.3407 30.1056 60.6698 30.1937 61.0697 30.1937ZM69.2653 34.0383C68.6891 34.0383 68.1931 33.9627 67.7775 33.8116C67.365 33.6604 67.0281 33.4605 66.7668 33.2118C66.5054 32.963 66.3102 32.6906 66.1811 32.3947L67.3949 31.894C67.48 32.0326 67.5933 32.179 67.735 32.3333C67.8798 32.4907 68.0751 32.6245 68.3207 32.7347C68.5694 32.8449 68.889 32.9 69.2794 32.9C69.8147 32.9 70.2571 32.7694 70.6066 32.508C70.9561 32.2498 71.1309 31.8374 71.1309 31.2706V29.8442H71.0411C70.9561 29.9985 70.8333 30.1701 70.6727 30.3591C70.5153 30.548 70.298 30.7117 70.0209 30.8502C69.7439 30.9888 69.3833 31.0581 68.9394 31.0581C68.3663 31.0581 67.8499 30.9242 67.3902 30.6566C66.9337 30.3858 66.5716 29.9875 66.3039 29.4617C66.0394 28.9327 65.9072 28.2825 65.9072 27.5111C65.9072 26.7397 66.0379 26.0784 66.2992 25.5274C66.5637 24.9764 66.9258 24.5545 67.3855 24.2616C67.8452 23.9657 68.3663 23.8177 68.9488 23.8177C69.3991 23.8177 69.7628 23.8932 70.0398 24.0444C70.3169 24.1924 70.5326 24.3656 70.6869 24.5639C70.8443 24.7623 70.9655 24.937 71.0506 25.0882H71.1545V23.9121H72.5383V31.3273C72.5383 31.9507 72.3935 32.4624 72.1038 32.8622C71.8141 33.2621 71.4221 33.5581 70.9278 33.7502C70.4366 33.9422 69.8824 34.0383 69.2653 34.0383ZM69.2511 29.8868C69.6573 29.8868 70.0005 29.7923 70.2807 29.6034C70.5641 29.4113 70.7782 29.1374 70.923 28.7816C71.071 28.4226 71.145 27.9928 71.145 27.4922C71.145 27.0041 71.0726 26.5743 70.9278 26.2028C70.7829 25.8313 70.5704 25.5416 70.2902 25.3338C70.0099 25.1228 69.6636 25.0173 69.2511 25.0173C68.826 25.0173 68.4718 25.1275 68.1884 25.3479C67.905 25.5652 67.6909 25.8612 67.5461 26.2359C67.4044 26.6106 67.3335 27.0293 67.3335 27.4922C67.3335 27.9676 67.406 28.3848 67.5508 28.7438C67.6956 29.1027 67.9098 29.383 68.1931 29.5845C68.4797 29.786 68.8323 29.8868 69.2511 29.8868ZM70.2807 21.4562H71.4426C71.4426 21.9883 71.2536 22.4212 70.8758 22.755C70.5011 23.0856 69.9942 23.2509 69.355 23.2509C68.719 23.2509 68.2136 23.0856 67.8389 22.755C67.4642 22.4212 67.2769 21.9883 67.2769 21.4562H68.434C68.434 21.6923 68.5033 21.9017 68.6418 22.0843C68.7804 22.2638 69.0181 22.3535 69.355 22.3535C69.6856 22.3535 69.9218 22.2638 70.0635 22.0843C70.2083 21.9049 70.2807 21.6955 70.2807 21.4562ZM75.8444 21.494V31.1667H74.4322V21.494H75.8444ZM79.8554 31.3273C79.3957 31.3273 78.9801 31.2423 78.6086 31.0722C78.237 30.899 77.9426 30.6487 77.7254 30.3213C77.5112 29.9938 77.4042 29.5923 77.4042 29.1169C77.4042 28.7076 77.4829 28.3707 77.6403 28.1062C77.7978 27.8417 78.0103 27.6323 78.2779 27.478C78.5456 27.3237 78.8447 27.2072 79.1753 27.1285C79.5059 27.0498 79.8428 26.99 80.186 26.949C80.6206 26.8987 80.9732 26.8577 81.244 26.8262C81.5148 26.7916 81.7116 26.7365 81.8344 26.6609C81.9572 26.5854 82.0186 26.4626 82.0186 26.2925V26.2595C82.0186 25.847 81.9021 25.5274 81.6691 25.3007C81.4392 25.074 81.096 24.9606 80.6395 24.9606C80.164 24.9606 79.7893 25.0661 79.5154 25.2771C79.2446 25.4849 79.0572 25.7163 78.9533 25.9714L77.6262 25.6691C77.7836 25.2283 78.0135 24.8725 78.3157 24.6017C78.6212 24.3278 78.9722 24.1294 79.369 24.0066C79.7657 23.8807 80.1829 23.8177 80.6206 23.8177C80.9102 23.8177 81.2172 23.8523 81.5415 23.9216C81.869 23.9877 82.1744 24.1105 82.4578 24.29C82.7443 24.4695 82.9789 24.7261 83.1615 25.0598C83.3442 25.3904 83.4355 25.8202 83.4355 26.3492V31.1667H82.0564V30.1749H81.9997C81.9084 30.3575 81.7714 30.537 81.5888 30.7133C81.4062 30.8896 81.1716 31.036 80.885 31.1525C80.5985 31.269 80.2553 31.3273 79.8554 31.3273ZM80.1624 30.1937C80.5529 30.1937 80.8866 30.1166 81.1637 29.9623C81.4439 29.808 81.6565 29.6065 81.8013 29.3578C81.9493 29.1059 82.0233 28.8367 82.0233 28.5501V27.615C81.9729 27.6654 81.8753 27.7126 81.7305 27.7567C81.5888 27.7976 81.4266 27.8338 81.244 27.8653C81.0614 27.8936 80.8835 27.9204 80.7103 27.9456C80.5371 27.9676 80.3923 27.9865 80.2758 28.0023C80.0018 28.0369 79.7515 28.0952 79.5248 28.177C79.3013 28.2589 79.1218 28.377 78.9864 28.5312C78.8542 28.6824 78.788 28.8839 78.788 29.1358C78.788 29.4853 78.9171 29.7498 79.1753 29.9293C79.4335 30.1056 79.7625 30.1937 80.1624 30.1937ZM86.7286 26.8593V31.1667H85.3164V23.9121H86.6719V25.0929H86.7617C86.9285 24.7088 87.1899 24.4002 87.5457 24.1672C87.9046 23.9342 88.3565 23.8177 88.9012 23.8177C89.3955 23.8177 89.8285 23.9216 90.2 24.1294C90.5716 24.3341 90.8597 24.6395 91.0643 25.0457C91.269 25.4518 91.3713 25.9541 91.3713 26.5523V31.1667H89.9591V26.7223C89.9591 26.1965 89.8222 25.7856 89.5482 25.4896C89.2743 25.1905 88.898 25.0409 88.4194 25.0409C88.092 25.0409 87.8007 25.1118 87.5457 25.2535C87.2938 25.3952 87.0938 25.603 86.9459 25.8769C86.801 26.1477 86.7286 26.4752 86.7286 26.8593ZM96.6516 23.9121V25.0457H92.689V23.9121H96.6516ZM93.7517 22.1741H95.1639V29.0366C95.1639 29.3105 95.2048 29.5168 95.2867 29.6553C95.3686 29.7907 95.474 29.8836 95.6031 29.934C95.7354 29.9812 95.8786 30.0048 96.0329 30.0048C96.1463 30.0048 96.2455 29.997 96.3305 29.9812C96.4155 29.9655 96.4816 29.9529 96.5288 29.9434L96.7839 31.11C96.702 31.1415 96.5855 31.173 96.4344 31.2045C96.2832 31.2391 96.0943 31.258 95.8676 31.2611C95.4961 31.2674 95.1497 31.2013 94.8286 31.0628C94.5074 30.9242 94.2476 30.7101 94.0493 30.4205C93.8509 30.1308 93.7517 29.7671 93.7517 29.3294V22.1741ZM98.2138 31.1667V23.9121H99.626V31.1667H98.2138Z" fill="#E5E5E5"/>
</g>
<rect x="401.333" y="11" width="64.3333" height="30.3333" rx="8" fill="white" fill-opacity="0.05"/>
<rect x="401.833" y="11.5" width="63.3333" height="29.3333" rx="7.5" stroke="white" stroke-opacity="0.1"/>
<path d="M413.25 21.2917V27.7917" stroke="#A1A1A1" stroke-width="1.08333" stroke-linecap="round" stroke-linejoin="round"/>
<path d="M419.75 24.5417C420.647 24.5417 421.375 23.8141 421.375 22.9167C421.375 22.0192 420.647 21.2917 419.75 21.2917C418.853 21.2917 418.125 22.0192 418.125 22.9167C418.125 23.8141 418.853 24.5417 419.75 24.5417Z" stroke="#A1A1A1" stroke-width="1.08333" stroke-linecap="round" stroke-linejoin="round"/>
<path d="M413.25 31.0417C414.147 31.0417 414.875 30.3141 414.875 29.4167C414.875 28.5192 414.147 27.7917 413.25 27.7917C412.353 27.7917 411.625 28.5192 411.625 29.4167C411.625 30.3141 412.353 31.0417 413.25 31.0417Z" stroke="#A1A1A1" stroke-width="1.08333" stroke-linecap="round" stroke-linejoin="round"/>
<path d="M419.75 24.5417C419.75 25.8346 419.236 27.0746 418.322 27.9888C417.408 28.9031 416.168 29.4167 414.875 29.4167" stroke="#A1A1A1" stroke-width="1.08333" stroke-linecap="round" stroke-linejoin="round"/>
<path d="M430.155 29.6667V22.0303H431.307V25.677H431.401L434.603 22.0303H436.054L432.974 25.4682L436.065 29.6667H434.678L432.21 26.2549L431.307 27.2915V29.6667H430.155ZM439.03 29.7823C438.493 29.7823 438.025 29.6592 437.625 29.4131C437.224 29.167 436.914 28.8228 436.692 28.3803C436.471 27.9378 436.361 27.4208 436.361 26.8292C436.361 26.235 436.471 25.7155 436.692 25.2706C436.914 24.8256 437.224 24.4801 437.625 24.234C438.025 23.9879 438.493 23.8648 439.03 23.8648C439.567 23.8648 440.036 23.9879 440.436 24.234C440.836 24.4801 441.147 24.8256 441.368 25.2706C441.589 25.7155 441.7 26.235 441.7 26.8292C441.7 27.4208 441.589 27.9378 441.368 28.3803C441.147 28.8228 440.836 29.167 440.436 29.4131C440.036 29.6592 439.567 29.7823 439.03 29.7823ZM439.034 28.8464C439.382 28.8464 439.67 28.7544 439.899 28.5705C440.128 28.3865 440.297 28.1417 440.406 27.8359C440.518 27.5301 440.574 27.1933 440.574 26.8254C440.574 26.46 440.518 26.1244 440.406 25.8187C440.297 25.5104 440.128 25.2631 439.899 25.0767C439.67 24.8902 439.382 24.797 439.034 24.797C438.684 24.797 438.393 24.8902 438.162 25.0767C437.933 25.2631 437.763 25.5104 437.651 25.8187C437.541 26.1244 437.487 26.46 437.487 26.8254C437.487 27.1933 437.541 27.5301 437.651 27.8359C437.763 28.1417 437.933 28.3865 438.162 28.5705C438.393 28.7544 438.684 28.8464 439.034 28.8464ZM447.236 25.3377L446.226 25.5167C446.184 25.3874 446.116 25.2643 446.024 25.1475C445.935 25.0307 445.813 24.935 445.659 24.8604C445.505 24.7858 445.312 24.7485 445.081 24.7485C444.765 24.7485 444.502 24.8194 444.291 24.9611C444.079 25.1003 443.974 25.2805 443.974 25.5017C443.974 25.6931 444.045 25.8473 444.186 25.9641C444.328 26.0809 444.557 26.1766 444.872 26.2512L445.782 26.46C446.309 26.5818 446.702 26.7695 446.96 27.023C447.219 27.2766 447.348 27.606 447.348 28.0111C447.348 28.3542 447.249 28.6599 447.05 28.9284C446.853 29.1944 446.579 29.4032 446.226 29.5548C445.875 29.7065 445.469 29.7823 445.007 29.7823C444.365 29.7823 443.842 29.6456 443.437 29.3721C443.032 29.0962 442.783 28.7047 442.691 28.1976L443.769 28.0335C443.836 28.3144 443.974 28.5269 444.182 28.6711C444.391 28.8128 444.663 28.8837 444.999 28.8837C445.364 28.8837 445.657 28.8078 445.875 28.6562C446.094 28.5021 446.203 28.3144 446.203 28.0932C446.203 27.9142 446.136 27.7638 446.002 27.642C445.87 27.5202 445.668 27.4282 445.394 27.3661L444.425 27.1535C443.89 27.0317 443.495 26.8379 443.239 26.5719C442.986 26.3059 442.859 25.9691 442.859 25.5614C442.859 25.2233 442.953 24.9275 443.142 24.674C443.331 24.4204 443.592 24.2228 443.925 24.0811C444.258 23.9369 444.64 23.8648 445.07 23.8648C445.689 23.8648 446.176 23.9991 446.532 24.2675C446.887 24.5335 447.122 24.8902 447.236 25.3377ZM444.671 29.6369H445.402L445.342 29.9426C445.558 29.9774 445.747 30.0644 445.909 30.2036C446.07 30.3428 446.151 30.5529 446.151 30.8338C446.154 31.1694 446.008 31.4415 445.715 31.6504C445.424 31.8592 445.003 31.9636 444.451 31.9636L444.429 31.3409C444.687 31.3409 444.896 31.3036 445.055 31.229C445.217 31.1544 445.299 31.0339 445.301 30.8673C445.304 30.7008 445.241 30.5839 445.115 30.5168C444.99 30.4497 444.791 30.4025 444.518 30.3751L444.671 29.6369ZM452.202 27.2915V23.9394H453.321V29.6667H452.224V28.6749H452.165C452.033 28.9806 451.822 29.2354 451.531 29.4392C451.242 29.6406 450.883 29.7413 450.453 29.7413C450.085 29.7413 449.76 29.6605 449.476 29.4989C449.195 29.3348 448.974 29.0925 448.813 28.7718C448.653 28.4511 448.574 28.0546 448.574 27.5823V23.9394H449.689V27.4481C449.689 27.8384 449.797 28.1491 450.013 28.3803C450.229 28.6115 450.51 28.7271 450.856 28.7271C451.065 28.7271 451.272 28.6749 451.479 28.5705C451.687 28.466 451.86 28.3082 451.997 28.0969C452.136 27.8856 452.204 27.6171 452.202 27.2915ZM455.933 22.0303V29.6667H454.819V22.0303H455.933Z" fill="#A1A1A1"/>
<rect x="471.667" y="16.1667" width="1" height="20" fill="white" fill-opacity="0.1"/>
<rect x="478.667" y="11" width="124.333" height="30.3333" rx="8" fill="white" fill-opacity="0.05"/>
<rect x="479.167" y="11.5" width="123.333" height="29.3333" rx="7.5" stroke="white" stroke-opacity="0.1"/>
<rect x="481.333" y="13.6667" width="65" height="25" rx="8" fill="white" fill-opacity="0.1"/>
<path d="M497.016 25.9212C497.016 26.7113 496.873 27.3941 496.588 27.9695C496.302 28.545 495.911 28.9888 495.414 29.3009C494.916 29.613 494.348 29.7691 493.709 29.7691C493.07 29.7691 492.502 29.613 492.005 29.3009C491.507 28.9888 491.116 28.545 490.831 27.9695C490.545 27.3941 490.403 26.7113 490.403 25.9212C490.403 25.1312 490.545 24.4484 490.831 23.8729C491.116 23.2975 491.507 22.8537 492.005 22.5415C492.502 22.2294 493.07 22.0734 493.709 22.0734C494.348 22.0734 494.916 22.2294 495.414 22.5415C495.911 22.8537 496.302 23.2975 496.588 23.8729C496.873 24.4484 497.016 25.1312 497.016 25.9212ZM496.138 25.9212C496.138 25.2726 496.029 24.7252 495.812 24.2789C495.598 23.8327 495.306 23.495 494.938 23.2658C494.572 23.0365 494.163 22.9219 493.709 22.9219C493.256 22.9219 492.845 23.0365 492.477 23.2658C492.111 23.495 491.819 23.8327 491.602 24.2789C491.388 24.7252 491.281 25.2726 491.281 25.9212C491.281 26.5699 491.388 27.1173 491.602 27.5635C491.819 28.0098 492.111 28.3475 492.477 28.5767C492.845 28.8059 493.256 28.9205 493.709 28.9205C494.163 28.9205 494.572 28.8059 494.938 28.5767C495.306 28.3475 495.598 28.0098 495.812 27.5635C496.029 27.1173 496.138 26.5699 496.138 25.9212ZM498.424 31.7735V24.0485H499.258V24.941H499.36C499.424 24.8434 499.511 24.7191 499.624 24.5679C499.738 24.4143 499.902 24.2777 500.114 24.1582C500.328 24.0363 500.619 23.9754 500.984 23.9754C501.457 23.9754 501.874 24.0936 502.235 24.3301C502.596 24.5667 502.878 24.902 503.08 25.336C503.283 25.77 503.384 26.2821 503.384 26.8722C503.384 27.4672 503.283 27.9829 503.08 28.4194C502.878 28.8535 502.597 29.19 502.239 29.4289C501.88 29.6655 501.467 29.7837 500.999 29.7837C500.638 29.7837 500.349 29.724 500.132 29.6045C499.915 29.4826 499.748 29.3448 499.631 29.1912C499.514 29.0351 499.424 28.9059 499.36 28.8035H499.287V31.7735H498.424ZM499.273 26.8576C499.273 27.2819 499.335 27.6562 499.459 27.9805C499.583 28.3024 499.765 28.5548 500.004 28.7376C500.243 28.9181 500.536 29.0083 500.882 29.0083C501.243 29.0083 501.544 28.9132 501.785 28.723C502.029 28.5304 502.212 28.2719 502.334 27.9476C502.458 27.6208 502.521 27.2575 502.521 26.8576C502.521 26.4626 502.46 26.1066 502.338 25.7896C502.218 25.4701 502.037 25.2177 501.793 25.0324C501.551 24.8447 501.248 24.7508 500.882 24.7508C500.531 24.7508 500.236 24.8398 499.997 25.0178C499.758 25.1934 499.577 25.4396 499.455 25.7566C499.333 26.0712 499.273 26.4382 499.273 26.8576ZM508.68 25.3067L507.905 25.5262C507.856 25.397 507.784 25.2714 507.689 25.1495C507.596 25.0251 507.469 24.9227 507.308 24.8422C507.147 24.7618 506.941 24.7215 506.69 24.7215C506.346 24.7215 506.06 24.8008 505.831 24.9593C505.604 25.1153 505.491 25.3141 505.491 25.5555C505.491 25.77 505.569 25.9395 505.725 26.0639C505.881 26.1882 506.125 26.2919 506.456 26.3748L507.29 26.5796C507.792 26.7015 508.167 26.8881 508.413 27.1392C508.659 27.388 508.782 27.7086 508.782 28.1012C508.782 28.4231 508.69 28.7108 508.504 28.9644C508.322 29.218 508.066 29.418 507.736 29.5643C507.407 29.7106 507.024 29.7837 506.588 29.7837C506.015 29.7837 505.541 29.6594 505.165 29.4107C504.79 29.1619 504.552 28.7986 504.452 28.3207L505.271 28.1158C505.349 28.4182 505.497 28.645 505.714 28.7962C505.933 28.9473 506.22 29.0229 506.573 29.0229C506.976 29.0229 507.295 28.9376 507.532 28.7669C507.771 28.5938 507.89 28.3865 507.89 28.1451C507.89 27.95 507.822 27.7866 507.685 27.655C507.549 27.5209 507.339 27.4209 507.056 27.355L506.12 27.1356C505.605 27.0137 505.227 26.8247 504.986 26.5686C504.747 26.3102 504.627 25.9871 504.627 25.5994C504.627 25.2824 504.716 25.0019 504.894 24.7581C505.075 24.5142 505.32 24.3228 505.63 24.1838C505.942 24.0448 506.295 23.9754 506.69 23.9754C507.246 23.9754 507.683 24.0973 508 24.3411C508.319 24.585 508.546 24.9068 508.68 25.3067ZM510.082 29.6667V24.0485H510.945V29.6667H510.082ZM510.521 23.1121C510.353 23.1121 510.207 23.0548 510.086 22.9402C509.966 22.8256 509.906 22.6879 509.906 22.5269C509.906 22.366 509.966 22.2282 510.086 22.1136C510.207 21.999 510.353 21.9417 510.521 21.9417C510.689 21.9417 510.833 21.999 510.952 22.1136C511.074 22.2282 511.135 22.366 511.135 22.5269C511.135 22.6879 511.074 22.8256 510.952 22.9402C510.833 23.0548 510.689 23.1121 510.521 23.1121ZM513.082 31.7735C512.936 31.7735 512.805 31.7613 512.691 31.7369C512.576 31.715 512.497 31.693 512.453 31.6711L512.672 30.9103C512.882 30.9639 513.067 30.9834 513.228 30.9688C513.389 30.9542 513.532 30.8823 513.656 30.753C513.783 30.6262 513.899 30.4202 514.004 30.1349L514.165 29.6959L512.087 24.0485H513.024L514.574 28.5255H514.633L516.184 24.0485H517.12L514.735 30.486C514.628 30.7762 514.495 31.0164 514.337 31.2066C514.178 31.3992 513.994 31.5419 513.784 31.6345C513.577 31.7272 513.343 31.7735 513.082 31.7735ZM520.341 29.7837C519.834 29.7837 519.388 29.663 519.006 29.4216C518.625 29.1802 518.328 28.8425 518.113 28.4084C517.901 27.9744 517.795 27.4672 517.795 26.8869C517.795 26.3016 517.901 25.7908 518.113 25.3543C518.328 24.9178 518.625 24.5789 519.006 24.3375C519.388 24.0961 519.834 23.9754 520.341 23.9754C520.848 23.9754 521.292 24.0961 521.672 24.3375C522.055 24.5789 522.352 24.9178 522.565 25.3543C522.779 25.7908 522.886 26.3016 522.886 26.8869C522.886 27.4672 522.779 27.9744 522.565 28.4084C522.352 28.8425 522.055 29.1802 521.672 29.4216C521.292 29.663 520.848 29.7837 520.341 29.7837ZM520.341 29.0083C520.726 29.0083 521.043 28.9095 521.292 28.712C521.54 28.5145 521.725 28.2548 521.844 27.933C521.963 27.6111 522.023 27.2624 522.023 26.8869C522.023 26.5113 521.963 26.1614 521.844 25.8371C521.725 25.5128 521.54 25.2507 521.292 25.0507C521.043 24.8508 520.726 24.7508 520.341 24.7508C519.955 24.7508 519.638 24.8508 519.39 25.0507C519.141 25.2507 518.957 25.5128 518.837 25.8371C518.718 26.1614 518.658 26.5113 518.658 26.8869C518.658 27.2624 518.718 27.6111 518.837 27.933C518.957 28.2548 519.141 28.5145 519.39 28.712C519.638 28.9095 519.955 29.0083 520.341 29.0083ZM525.067 26.287V29.6667H524.204V24.0485H525.038V24.9263H525.111C525.243 24.641 525.443 24.4118 525.711 24.2387C525.979 24.0631 526.326 23.9754 526.75 23.9754C527.13 23.9754 527.463 24.0534 527.748 24.2094C528.034 24.3631 528.256 24.5972 528.414 24.9117C528.573 25.2238 528.652 25.6189 528.652 26.0968V29.6667H527.789V26.1553C527.789 25.714 527.674 25.3701 527.445 25.1239C527.216 24.8751 526.901 24.7508 526.501 24.7508C526.226 24.7508 525.979 24.8105 525.762 24.93C525.548 25.0495 525.378 25.2238 525.254 25.4531C525.13 25.6823 525.067 25.9602 525.067 26.287ZM532.585 29.7837C532.043 29.7837 531.576 29.6642 531.184 29.4253C530.794 29.1839 530.493 28.8474 530.28 28.4158C530.071 27.9817 529.966 27.477 529.966 26.9015C529.966 26.326 530.071 25.8188 530.28 25.3799C530.493 24.9385 530.788 24.5947 531.166 24.3484C531.546 24.0997 531.99 23.9754 532.497 23.9754C532.79 23.9754 533.079 24.0241 533.364 24.1217C533.649 24.2192 533.909 24.3777 534.143 24.5972C534.377 24.8142 534.564 25.1019 534.703 25.4604C534.842 25.8188 534.911 26.2602 534.911 26.7844V27.1502H530.58V26.404H534.033C534.033 26.087 533.97 25.8042 533.843 25.5555C533.719 25.3067 533.541 25.1104 533.309 24.9666C533.08 24.8227 532.809 24.7508 532.497 24.7508C532.153 24.7508 531.856 24.8361 531.605 25.0068C531.356 25.1751 531.164 25.3945 531.03 25.6652C530.896 25.9359 530.829 26.226 530.829 26.5357V27.0332C530.829 27.4575 530.902 27.8171 531.049 28.1122C531.197 28.4048 531.403 28.6279 531.667 28.7815C531.93 28.9327 532.236 29.0083 532.585 29.0083C532.812 29.0083 533.016 28.9766 533.199 28.9132C533.385 28.8474 533.544 28.7498 533.678 28.6206C533.813 28.4889 533.916 28.3255 533.989 28.1305L534.823 28.3646C534.735 28.6474 534.588 28.8961 534.381 29.1107C534.173 29.3229 533.917 29.4887 533.613 29.6082C533.308 29.7252 532.965 29.7837 532.585 29.7837ZM537.087 22.1758V29.6667H536.224V22.1758H537.087Z" fill="#F5F5F5"/>
<path d="M555.219 29.6667V28.9955L559.336 22.8506H555.175V22.0303H560.439V22.7015L556.323 28.8464H560.484V29.6667H555.219ZM564.243 29.786C563.726 29.786 563.272 29.663 562.882 29.4169C562.494 29.1708 562.191 28.8265 561.972 28.384C561.756 27.9415 561.648 27.4245 561.648 26.8329C561.648 26.2363 561.756 25.7155 561.972 25.2706C562.191 24.8256 562.494 24.4801 562.882 24.234C563.272 23.9879 563.726 23.8648 564.243 23.8648C564.76 23.8648 565.212 23.9879 565.6 24.234C565.99 24.4801 566.293 24.8256 566.51 25.2706C566.728 25.7155 566.838 26.2363 566.838 26.8329C566.838 27.4245 566.728 27.9415 566.51 28.384C566.293 28.8265 565.99 29.1708 565.6 29.4169C565.212 29.663 564.76 29.786 564.243 29.786ZM564.243 28.9955C564.635 28.9955 564.959 28.8948 565.212 28.6935C565.466 28.4921 565.653 28.2274 565.775 27.8993C565.897 27.5712 565.958 27.2157 565.958 26.8329C565.958 26.4501 565.897 26.0934 565.775 25.7627C565.653 25.4321 565.466 25.1649 565.212 24.9611C564.959 24.7572 564.635 24.6553 564.243 24.6553C563.85 24.6553 563.527 24.7572 563.273 24.9611C563.02 25.1649 562.832 25.4321 562.71 25.7627C562.588 26.0934 562.527 26.4501 562.527 26.8329C562.527 27.2157 562.588 27.5712 562.71 27.8993C562.832 28.2274 563.02 28.4921 563.273 28.6935C563.527 28.8948 563.85 28.9955 564.243 28.9955ZM568.181 29.6667V23.9394H569.031V24.8045H569.091C569.195 24.5211 569.384 24.2912 569.658 24.1147C569.931 23.9382 570.239 23.8499 570.582 23.8499C570.647 23.8499 570.728 23.8512 570.825 23.8537C570.922 23.8561 570.995 23.8599 571.045 23.8648V24.7597C571.015 24.7523 570.947 24.7411 570.84 24.7262C570.735 24.7088 570.625 24.7001 570.508 24.7001C570.229 24.7001 569.981 24.7585 569.762 24.8753C569.546 24.9897 569.374 25.1488 569.248 25.3526C569.123 25.5539 569.061 25.7839 569.061 26.0424V29.6667H568.181ZM575.697 27.3251V23.9394H576.577V29.6667H575.697V28.6972H575.638C575.503 28.9881 575.295 29.2354 575.011 29.4392C574.728 29.6406 574.37 29.7413 573.937 29.7413C573.579 29.7413 573.261 29.663 572.983 29.5064C572.704 29.3473 572.486 29.1086 572.327 28.7904C572.167 28.4698 572.088 28.0658 572.088 27.5786V23.9394H572.968V27.519C572.968 27.9366 573.085 28.2697 573.318 28.5182C573.554 28.7668 573.855 28.8911 574.221 28.8911C574.439 28.8911 574.662 28.8352 574.888 28.7233C575.117 28.6115 575.308 28.4399 575.462 28.2088C575.619 27.9776 575.697 27.683 575.697 27.3251ZM579.069 26.2214V29.6667H578.189V23.9394H579.039V24.8343H579.114C579.248 24.5435 579.452 24.3098 579.725 24.1333C579.999 23.9543 580.352 23.8648 580.784 23.8648C581.172 23.8648 581.511 23.9444 581.802 24.1035C582.093 24.2601 582.319 24.4987 582.481 24.8194C582.642 25.1376 582.723 25.5403 582.723 26.0275V29.6667H581.843V26.0871C581.843 25.6372 581.726 25.2867 581.493 25.0356C581.259 24.7821 580.938 24.6553 580.531 24.6553C580.25 24.6553 579.999 24.7162 579.777 24.838C579.559 24.9598 579.386 25.1376 579.259 25.3712C579.132 25.6049 579.069 25.8883 579.069 26.2214ZM585.211 22.0303V29.6667H584.331V22.0303H585.211ZM590.432 27.3251V23.9394H591.312V29.6667H590.432V28.6972H590.372C590.238 28.9881 590.029 29.2354 589.746 29.4392C589.463 29.6406 589.105 29.7413 588.672 29.7413C588.314 29.7413 587.996 29.663 587.718 29.5064C587.439 29.3473 587.22 29.1086 587.061 28.7904C586.902 28.4698 586.823 28.0658 586.823 27.5786V23.9394H587.703V27.519C587.703 27.9366 587.82 28.2697 588.053 28.5182C588.289 28.7668 588.59 28.8911 588.956 28.8911C589.174 28.8911 589.397 28.8352 589.623 28.7233C589.852 28.6115 590.043 28.4399 590.197 28.2088C590.354 27.9776 590.432 27.683 590.432 27.3251Z" fill="#D4D4D4"/>
<path d="M24.0039 74.3697C23.9641 74.0167 23.8001 73.7433 23.5117 73.5494C23.2234 73.353 22.8604 73.2548 22.4229 73.2548C22.1097 73.2548 21.8388 73.3045 21.6101 73.4039C21.3814 73.5009 21.2037 73.6351 21.0769 73.8066C20.9526 73.9757 20.8904 74.1683 20.8904 74.3846C20.8904 74.5661 20.9327 74.7227 21.0172 74.8544C21.1042 74.9862 21.2173 75.0968 21.3565 75.1863C21.4982 75.2733 21.6499 75.3466 21.8114 75.4062C21.973 75.4634 22.1284 75.5107 22.2775 75.5479L23.0233 75.7418C23.2669 75.8015 23.5167 75.8823 23.7727 75.9842C24.0288 76.0861 24.2662 76.2203 24.4849 76.3869C24.7037 76.5534 24.8801 76.7598 25.0144 77.0059C25.1511 77.252 25.2195 77.5465 25.2195 77.8896C25.2195 78.3221 25.1076 78.7061 24.8839 79.0417C24.6626 79.3773 24.3407 79.642 23.9181 79.8359C23.498 80.0298 22.9897 80.1268 22.3931 80.1268C21.8214 80.1268 21.3267 80.036 20.9091 79.8546C20.4915 79.6731 20.1646 79.4158 19.9284 79.0827C19.6923 78.7472 19.5618 78.3494 19.5369 77.8896H20.6928C20.7152 78.1655 20.8047 78.3954 20.9613 78.5794C21.1204 78.7608 21.323 78.8963 21.5691 78.9858C21.8176 79.0728 22.0898 79.1163 22.3857 79.1163C22.7113 79.1163 23.0009 79.0653 23.2544 78.9634C23.5105 78.859 23.7118 78.7148 23.8585 78.5309C24.0051 78.3445 24.0785 78.127 24.0785 77.8784C24.0785 77.6522 24.0138 77.467 23.8846 77.3228C23.7578 77.1786 23.585 77.0593 23.3663 76.9648C23.15 76.8704 22.9052 76.7871 22.6317 76.715L21.7294 76.4689C21.1179 76.3024 20.6332 76.0575 20.2752 75.7344C19.9197 75.4112 19.742 74.9837 19.742 74.4517C19.742 74.0117 19.8613 73.6277 20.1 73.2995C20.3386 72.9714 20.6618 72.7166 21.0694 72.5352C21.4771 72.3512 21.937 72.2592 22.449 72.2592C22.9661 72.2592 23.4222 72.35 23.8175 72.5314C24.2152 72.7129 24.5284 72.9627 24.7571 73.2809C24.9858 73.5966 25.1051 73.9595 25.1151 74.3697H24.0039ZM33.5046 76.1818C33.5046 76.9972 33.3555 77.6982 33.0572 78.2848C32.7589 78.869 32.35 79.3189 31.8304 79.6346C31.3134 79.9478 30.7255 80.1044 30.0668 80.1044C29.4055 80.1044 28.8152 79.9478 28.2956 79.6346C27.7786 79.3189 27.3709 78.8677 27.0726 78.2811C26.7743 77.6944 26.6252 76.9947 26.6252 76.1818C26.6252 75.3665 26.7743 74.6667 27.0726 74.0826C27.3709 73.4959 27.7786 73.046 28.2956 72.7328C28.8152 72.4171 29.4055 72.2592 30.0668 72.2592C30.7255 72.2592 31.3134 72.4171 31.8304 72.7328C32.35 73.046 32.7589 73.4959 33.0572 74.0826C33.3555 74.6667 33.5046 75.3665 33.5046 76.1818ZM32.3636 76.1818C32.3636 75.5604 32.263 75.0371 32.0616 74.612C31.8628 74.1845 31.5893 73.8613 31.2413 73.6426C30.8958 73.4213 30.5043 73.3107 30.0668 73.3107C29.6268 73.3107 29.234 73.4213 28.8885 73.6426C28.543 73.8613 28.2695 74.1845 28.0682 74.612C27.8693 75.0371 27.7699 75.5604 27.7699 76.1818C27.7699 76.8033 27.8693 77.3278 28.0682 77.7553C28.2695 78.1804 28.543 78.5036 28.8885 78.7248C29.234 78.9435 29.6268 79.0529 30.0668 79.0529C30.5043 79.0529 30.8958 78.9435 31.2413 78.7248C31.5893 78.5036 31.8628 78.1804 32.0616 77.7553C32.263 77.3278 32.3636 76.8033 32.3636 76.1818ZM35.2161 80V72.3636H37.9381C38.5297 72.3636 39.0206 72.4656 39.4109 72.6694C39.8036 72.8732 40.097 73.1554 40.2909 73.5158C40.4847 73.8738 40.5817 74.2876 40.5817 74.7575C40.5817 75.2248 40.4835 75.6362 40.2871 75.9917C40.0932 76.3446 39.7999 76.6193 39.4072 76.8157C39.0169 77.0121 38.5259 77.1103 37.9343 77.1103H35.8724V76.1184H37.8299C38.2028 76.1184 38.5061 76.065 38.7397 75.9581C38.9759 75.8512 39.1486 75.6958 39.258 75.492C39.3674 75.2882 39.4221 75.0433 39.4221 74.7575C39.4221 74.4691 39.3661 74.2193 39.2543 74.008C39.1449 73.7967 38.9721 73.6351 38.736 73.5233C38.5023 73.4089 38.1953 73.3517 37.815 73.3517H36.3683V80H35.2161ZM38.9858 76.5547L40.8725 80H39.56L37.7106 76.5547H38.9858ZM47.1694 72.3636H48.3253V77.3862C48.3253 77.9206 48.1997 78.3942 47.9487 78.8068C47.6976 79.217 47.3446 79.5401 46.8897 79.7763C46.4348 80.0099 45.9016 80.1268 45.2901 80.1268C44.6811 80.1268 44.1491 80.0099 43.6942 79.7763C43.2393 79.5401 42.8863 79.217 42.6353 78.8068C42.3842 78.3942 42.2587 77.9206 42.2587 77.3862V72.3636H43.4108V77.293C43.4108 77.6385 43.4867 77.9455 43.6383 78.214C43.7924 78.4824 44.0099 78.6937 44.2908 78.8478C44.5717 78.9995 44.9048 79.0753 45.2901 79.0753C45.6779 79.0753 46.0122 78.9995 46.2931 78.8478C46.5765 78.6937 46.7928 78.4824 46.9419 78.214C47.0936 77.9455 47.1694 77.6385 47.1694 77.293V72.3636ZM53.3292 72.3636H54.7275L57.1586 78.2997H57.248L59.6792 72.3636H61.0774V80H59.9812V74.4741H59.9103L57.6582 79.9888H56.7484L54.4963 74.4703H54.4254V80H53.3292V72.3636ZM63.0275 80V72.3636H67.8152V73.3555H64.1797V75.6822H67.5654V76.6703H64.1797V79.0082H67.8599V80H63.0275ZM69.2526 73.3555V72.3636H75.1626V73.3555H72.7799V80H71.6315V73.3555H69.2526ZM82.9071 72.3636V80H81.8481L77.9666 74.3995H77.8957V80H76.7435V72.3636H77.81L81.6953 77.9716H81.7661V72.3636H82.9071ZM86.0149 72.3636V80H84.8628V72.3636H86.0149Z" fill="#A1A1A1"/>
<rect x="17" y="91" width="582" height="34.66" rx="8" fill="#171717" fill-opacity="0.6"/>
<rect x="17.5" y="91.5" width="581" height="33.66" rx="7.5" stroke="white" stroke-opacity="0.1"/>
<g clip-path="url(#clip1_8_101)">
<path d="M35.9821 106.239C35.9267 105.771 35.702 105.408 35.3081 105.15C34.9141 104.891 34.431 104.762 33.8585 104.762C33.4399 104.762 33.0737 104.83 32.7598 104.965C32.4489 105.1 32.2058 105.287 32.0304 105.524C31.858 105.761 31.7719 106.03 31.7719 106.331C31.7719 106.584 31.8319 106.801 31.9519 106.982C32.075 107.161 32.232 107.31 32.4228 107.43C32.6136 107.547 32.8136 107.644 33.0229 107.721C33.2322 107.795 33.4246 107.855 33.6 107.901L34.5602 108.16C34.8064 108.224 35.0803 108.313 35.3819 108.427C35.6866 108.541 35.9775 108.697 36.2545 108.894C36.5345 109.087 36.7654 109.337 36.9469 109.641C37.1285 109.946 37.2193 110.32 37.2193 110.763C37.2193 111.274 37.0854 111.736 36.8177 112.148C36.553 112.561 36.1652 112.888 35.6543 113.132C35.1465 113.375 34.5294 113.496 33.8031 113.496C33.126 113.496 32.5397 113.387 32.0442 113.168C31.5518 112.95 31.164 112.645 30.8809 112.254C30.6008 111.864 30.4423 111.41 30.4054 110.893H31.5872C31.618 111.25 31.738 111.545 31.9473 111.779C32.1596 112.01 32.4274 112.182 32.7506 112.296C33.0768 112.407 33.4276 112.462 33.8031 112.462C34.2401 112.462 34.6325 112.391 34.9803 112.25C35.3281 112.105 35.6035 111.905 35.8067 111.65C36.0098 111.391 36.1114 111.089 36.1114 110.745C36.1114 110.431 36.0236 110.175 35.8482 109.978C35.6728 109.781 35.442 109.621 35.1557 109.498C34.8695 109.375 34.5602 109.268 34.2278 109.175L33.0645 108.843C32.3258 108.63 31.7411 108.327 31.3102 107.933C30.8793 107.539 30.6639 107.024 30.6639 106.387C30.6639 105.857 30.807 105.396 31.0932 105.002C31.3825 104.605 31.7703 104.297 32.2566 104.079C32.7459 103.857 33.2922 103.746 33.8954 103.746C34.5048 103.746 35.0465 103.855 35.5204 104.074C35.9944 104.289 36.3699 104.585 36.6469 104.96C36.9269 105.336 37.0747 105.762 37.09 106.239H35.9821ZM41.8346 113.478C41.1945 113.478 40.6328 113.325 40.1496 113.021C39.6695 112.716 39.294 112.29 39.0232 111.742C38.7554 111.194 38.6216 110.554 38.6216 109.821C38.6216 109.083 38.7554 108.438 39.0232 107.887C39.294 107.336 39.6695 106.908 40.1496 106.604C40.6328 106.299 41.1945 106.147 41.8346 106.147C42.4748 106.147 43.0349 106.299 43.515 106.604C43.9982 106.908 44.3737 107.336 44.6414 107.887C44.9123 108.438 45.0477 109.083 45.0477 109.821C45.0477 110.554 44.9123 111.194 44.6414 111.742C44.3737 112.29 43.9982 112.716 43.515 113.021C43.0349 113.325 42.4748 113.478 41.8346 113.478ZM41.8346 112.499C42.3209 112.499 42.721 112.374 43.0349 112.125C43.3488 111.876 43.5812 111.548 43.732 111.142C43.8828 110.736 43.9582 110.295 43.9582 109.821C43.9582 109.348 43.8828 108.906 43.732 108.497C43.5812 108.087 43.3488 107.756 43.0349 107.504C42.721 107.252 42.3209 107.125 41.8346 107.125C41.3484 107.125 40.9483 107.252 40.6343 107.504C40.3204 107.756 40.0881 108.087 39.9373 108.497C39.7865 108.906 39.711 109.348 39.711 109.821C39.711 110.295 39.7865 110.736 39.9373 111.142C40.0881 111.548 40.3204 111.876 40.6343 112.125C40.9483 112.374 41.3484 112.499 41.8346 112.499ZM46.7108 113.33V106.239H47.7633V107.31H47.8372C47.9665 106.959 48.2004 106.675 48.5389 106.456C48.8774 106.238 49.2591 106.128 49.6838 106.128C49.7638 106.128 49.8638 106.13 49.9839 106.133C50.1039 106.136 50.1947 106.141 50.2562 106.147V107.255C50.2193 107.245 50.1347 107.232 50.0023 107.213C49.8731 107.192 49.7361 107.181 49.5915 107.181C49.2468 107.181 48.939 107.253 48.6682 107.398C48.4004 107.539 48.1881 107.736 48.0311 107.989C47.8772 108.238 47.8003 108.523 47.8003 108.843V113.33H46.7108ZM56.0164 110.431V106.239H57.1059V113.33H56.0164V112.13H55.9426C55.7764 112.49 55.5179 112.796 55.167 113.048C54.8162 113.298 54.373 113.422 53.8375 113.422C53.3943 113.422 53.0003 113.325 52.6557 113.132C52.311 112.935 52.0401 112.639 51.8432 112.245C51.6462 111.848 51.5477 111.348 51.5477 110.745V106.239H52.6372V110.671C52.6372 111.188 52.7818 111.6 53.0711 111.908C53.3635 112.216 53.7359 112.37 54.1883 112.37C54.4592 112.37 54.7346 112.301 55.0147 112.162C55.2978 112.024 55.5348 111.811 55.7256 111.525C55.9195 111.239 56.0164 110.874 56.0164 110.431ZM60.1909 109.064V113.33H59.1014V106.239H60.154V107.347H60.2463C60.4125 106.987 60.6649 106.698 61.0034 106.479C61.3419 106.258 61.779 106.147 62.3145 106.147C62.7946 106.147 63.2147 106.245 63.5748 106.442C63.9349 106.636 64.2149 106.932 64.415 107.329C64.615 107.723 64.715 108.221 64.715 108.824V113.33H63.6256V108.898C63.6256 108.341 63.4809 107.907 63.1916 107.596C62.9023 107.282 62.5053 107.125 62.0006 107.125C61.6528 107.125 61.3419 107.201 61.068 107.352C60.7972 107.502 60.5833 107.723 60.4263 108.012C60.2694 108.301 60.1909 108.652 60.1909 109.064ZM71.1746 110.431V106.239H72.2641V113.33H71.1746V112.13H71.1008C70.9346 112.49 70.6761 112.796 70.3252 113.048C69.9744 113.298 69.5312 113.422 68.9957 113.422C68.5525 113.422 68.1586 113.325 67.8139 113.132C67.4692 112.935 67.1983 112.639 67.0014 112.245C66.8044 111.848 66.7059 111.348 66.7059 110.745V106.239H67.7954V110.671C67.7954 111.188 67.94 111.6 68.2293 111.908C68.5217 112.216 68.8941 112.37 69.3465 112.37C69.6174 112.37 69.8928 112.301 70.1729 112.162C70.456 112.024 70.693 111.811 70.8838 111.525C71.0777 111.239 71.1746 110.874 71.1746 110.431ZM74.0565 113.33V112.499L78.0821 107.329V107.255H74.1857V106.239H79.4855V107.107L75.5707 112.241V112.314H79.6147V113.33H74.0565ZM85.7616 110.431V106.239H86.8511V113.33H85.7616V112.13H85.6877C85.5215 112.49 85.263 112.796 84.9121 113.048C84.5613 113.298 84.1181 113.422 83.5826 113.422C83.1394 113.422 82.7455 113.325 82.4008 113.132C82.0561 112.935 81.7852 112.639 81.5883 112.245C81.3913 111.848 81.2928 111.348 81.2928 110.745V106.239H82.3823V110.671C82.3823 111.188 82.527 111.6 82.8163 111.908C83.1086 112.216 83.481 112.37 83.9334 112.37C84.2043 112.37 84.4797 112.301 84.7598 112.162C85.0429 112.024 85.2799 111.811 85.4707 111.525C85.6646 111.239 85.7616 110.874 85.7616 110.431ZM92.6505 113.33V103.875H93.74V107.366H93.8323C93.9123 107.242 94.0231 107.085 94.1647 106.895C94.3094 106.701 94.5156 106.528 94.7833 106.378C95.0541 106.224 95.4204 106.147 95.882 106.147C96.4791 106.147 97.0054 106.296 97.4609 106.595C97.9164 106.893 98.2718 107.316 98.5273 107.864C98.7827 108.412 98.9104 109.058 98.9104 109.803C98.9104 110.554 98.7827 111.205 98.5273 111.756C98.2718 112.304 97.9179 112.728 97.4655 113.03C97.0131 113.328 96.4914 113.478 95.9005 113.478C95.445 113.478 95.0803 113.402 94.8064 113.252C94.5325 113.098 94.3217 112.924 94.1739 112.73C94.0262 112.533 93.9123 112.37 93.8323 112.241H93.7031V113.33H92.6505ZM93.7215 109.785C93.7215 110.32 93.8 110.792 93.957 111.202C94.1139 111.608 94.3432 111.927 94.6448 112.157C94.9464 112.385 95.3157 112.499 95.7528 112.499C96.2083 112.499 96.5884 112.379 96.893 112.139C97.2008 111.896 97.4316 111.57 97.5855 111.16C97.7425 110.748 97.821 110.289 97.821 109.785C97.821 109.286 97.744 108.837 97.5901 108.437C97.4393 108.033 97.21 107.715 96.9023 107.481C96.5976 107.244 96.2144 107.125 95.7528 107.125C95.3096 107.125 94.9372 107.238 94.6356 107.462C94.334 107.684 94.1062 107.995 93.9523 108.395C93.7985 108.792 93.7215 109.255 93.7215 109.785ZM105.046 110.431V106.239H106.135V113.33H105.046V112.13H104.972C104.806 112.49 104.547 112.796 104.196 113.048C103.845 113.298 103.402 113.422 102.867 113.422C102.424 113.422 102.03 113.325 101.685 113.132C101.34 112.935 101.069 112.639 100.872 112.245C100.675 111.848 100.577 111.348 100.577 110.745V106.239H101.666V110.671C101.666 111.188 101.811 111.6 102.1 111.908C102.393 112.216 102.765 112.37 103.218 112.37C103.488 112.37 103.764 112.301 104.044 112.162C104.327 112.024 104.564 111.811 104.755 111.525C104.949 111.239 105.046 110.874 105.046 110.431ZM108.131 113.33V106.239H109.183V107.31H109.257C109.386 106.959 109.62 106.675 109.959 106.456C110.297 106.238 110.679 106.128 111.104 106.128C111.184 106.128 111.284 106.13 111.404 106.133C111.524 106.136 111.615 106.141 111.676 106.147V107.255C111.639 107.245 111.555 107.232 111.422 107.213C111.293 107.192 111.156 107.181 111.011 107.181C110.667 107.181 110.359 107.253 110.088 107.398C109.82 107.539 109.608 107.736 109.451 107.989C109.297 108.238 109.22 108.523 109.22 108.843V113.33H108.131ZM115.054 113.496C114.605 113.496 114.197 113.412 113.831 113.242C113.465 113.07 113.174 112.822 112.958 112.499C112.743 112.173 112.635 111.779 112.635 111.317C112.635 110.911 112.715 110.582 112.875 110.329C113.035 110.074 113.249 109.874 113.517 109.729C113.785 109.585 114.08 109.477 114.403 109.406C114.73 109.332 115.057 109.274 115.387 109.231C115.818 109.175 116.167 109.134 116.435 109.106C116.705 109.075 116.902 109.024 117.026 108.954C117.152 108.883 117.215 108.76 117.215 108.584V108.547C117.215 108.092 117.09 107.738 116.841 107.486C116.595 107.233 116.221 107.107 115.719 107.107C115.199 107.107 114.791 107.221 114.496 107.449C114.2 107.676 113.992 107.92 113.872 108.178L112.838 107.809C113.023 107.378 113.269 107.042 113.577 106.802C113.888 106.559 114.226 106.39 114.593 106.295C114.962 106.196 115.325 106.147 115.682 106.147C115.91 106.147 116.171 106.174 116.467 106.23C116.765 106.282 117.053 106.391 117.33 106.558C117.61 106.724 117.843 106.975 118.027 107.31C118.212 107.646 118.304 108.095 118.304 108.658V113.33H117.215V112.37H117.159C117.086 112.524 116.962 112.688 116.79 112.864C116.618 113.039 116.388 113.188 116.102 113.312C115.816 113.435 115.467 113.496 115.054 113.496ZM115.22 112.518C115.651 112.518 116.014 112.433 116.31 112.264C116.608 112.094 116.833 111.876 116.984 111.608C117.138 111.34 117.215 111.059 117.215 110.763V109.766C117.169 109.821 117.067 109.872 116.91 109.918C116.756 109.962 116.578 110 116.375 110.034C116.175 110.065 115.979 110.092 115.788 110.117C115.601 110.138 115.448 110.157 115.331 110.172C115.048 110.209 114.783 110.269 114.537 110.352C114.294 110.432 114.097 110.554 113.946 110.717C113.799 110.877 113.725 111.096 113.725 111.373C113.725 111.751 113.865 112.037 114.145 112.231C114.428 112.422 114.787 112.518 115.22 112.518ZM120.741 115.989C120.556 115.989 120.391 115.974 120.247 115.943C120.102 115.915 120.002 115.888 119.947 115.86L120.224 114.9C120.488 114.967 120.722 114.992 120.925 114.973C121.128 114.955 121.308 114.864 121.465 114.701C121.625 114.541 121.772 114.281 121.904 113.921L122.107 113.367L119.485 106.239H120.667L122.624 111.89H122.698L124.655 106.239H125.837L122.827 114.364C122.692 114.73 122.524 115.033 122.324 115.274C122.124 115.517 121.892 115.697 121.627 115.814C121.365 115.931 121.07 115.989 120.741 115.989ZM129.146 113.496C128.697 113.496 128.289 113.412 127.923 113.242C127.556 113.07 127.266 112.822 127.05 112.499C126.835 112.173 126.727 111.779 126.727 111.317C126.727 110.911 126.807 110.582 126.967 110.329C127.127 110.074 127.341 109.874 127.609 109.729C127.877 109.585 128.172 109.477 128.495 109.406C128.821 109.332 129.149 109.274 129.478 109.231C129.909 109.175 130.259 109.134 130.526 109.106C130.797 109.075 130.994 109.024 131.117 108.954C131.243 108.883 131.307 108.76 131.307 108.584V108.547C131.307 108.092 131.182 107.738 130.933 107.486C130.686 107.233 130.312 107.107 129.811 107.107C129.291 107.107 128.883 107.221 128.587 107.449C128.292 107.676 128.084 107.92 127.964 108.178L126.93 107.809C127.115 107.378 127.361 107.042 127.669 106.802C127.98 106.559 128.318 106.39 128.684 106.295C129.054 106.196 129.417 106.147 129.774 106.147C130.002 106.147 130.263 106.174 130.559 106.23C130.857 106.282 131.145 106.391 131.422 106.558C131.702 106.724 131.934 106.975 132.119 107.31C132.304 107.646 132.396 108.095 132.396 108.658V113.33H131.307V112.37H131.251C131.177 112.524 131.054 112.688 130.882 112.864C130.71 113.039 130.48 113.188 130.194 113.312C129.908 113.435 129.558 113.496 129.146 113.496ZM129.312 112.518C129.743 112.518 130.106 112.433 130.402 112.264C130.7 112.094 130.925 111.876 131.076 111.608C131.23 111.34 131.307 111.059 131.307 110.763V109.766C131.26 109.821 131.159 109.872 131.002 109.918C130.848 109.962 130.67 110 130.466 110.034C130.266 110.065 130.071 110.092 129.88 110.117C129.692 110.138 129.54 110.157 129.423 110.172C129.14 110.209 128.875 110.269 128.629 110.352C128.386 110.432 128.189 110.554 128.038 110.717C127.89 110.877 127.817 111.096 127.817 111.373C127.817 111.751 127.957 112.037 128.237 112.231C128.52 112.422 128.878 112.518 129.312 112.518ZM138.743 115.989C138.558 115.989 138.393 115.974 138.249 115.943C138.104 115.915 138.004 115.888 137.949 115.86L138.226 114.9C138.49 114.967 138.724 114.992 138.927 114.973C139.13 114.955 139.31 114.864 139.467 114.701C139.627 114.541 139.774 114.281 139.906 113.921L140.109 113.367L137.487 106.239H138.669L140.626 111.89H140.7L142.657 106.239H143.839L140.829 114.364C140.694 114.73 140.526 115.033 140.326 115.274C140.126 115.517 139.894 115.697 139.629 115.814C139.367 115.931 139.072 115.989 138.743 115.989ZM147.148 113.496C146.699 113.496 146.291 113.412 145.925 113.242C145.558 113.07 145.268 112.822 145.052 112.499C144.837 112.173 144.729 111.779 144.729 111.317C144.729 110.911 144.809 110.582 144.969 110.329C145.129 110.074 145.343 109.874 145.611 109.729C145.878 109.585 146.174 109.477 146.497 109.406C146.823 109.332 147.151 109.274 147.48 109.231C147.911 109.175 148.261 109.134 148.528 109.106C148.799 109.075 148.996 109.024 149.119 108.954C149.245 108.883 149.309 108.76 149.309 108.584V108.547C149.309 108.092 149.184 107.738 148.935 107.486C148.688 107.233 148.314 107.107 147.813 107.107C147.293 107.107 146.885 107.221 146.589 107.449C146.294 107.676 146.086 107.92 145.966 108.178L144.932 107.809C145.117 107.378 145.363 107.042 145.671 106.802C145.982 106.559 146.32 106.39 146.686 106.295C147.056 106.196 147.419 106.147 147.776 106.147C148.004 106.147 148.265 106.174 148.561 106.23C148.859 106.282 149.147 106.391 149.424 106.558C149.704 106.724 149.936 106.975 150.121 107.31C150.306 107.646 150.398 108.095 150.398 108.658V113.33H149.309V112.37H149.253C149.179 112.524 149.056 112.688 148.884 112.864C148.711 113.039 148.482 113.188 148.196 113.312C147.91 113.435 147.56 113.496 147.148 113.496ZM147.314 112.518C147.745 112.518 148.108 112.433 148.404 112.264C148.702 112.094 148.927 111.876 149.078 111.608C149.232 111.34 149.309 111.059 149.309 110.763V109.766C149.262 109.821 149.161 109.872 149.004 109.918C148.85 109.962 148.671 110 148.468 110.034C148.268 110.065 148.073 110.092 147.882 110.117C147.694 110.138 147.542 110.157 147.425 110.172C147.142 110.209 146.877 110.269 146.631 110.352C146.388 110.432 146.191 110.554 146.04 110.717C145.892 110.877 145.818 111.096 145.818 111.373C145.818 111.751 145.959 112.037 146.239 112.231C146.522 112.422 146.88 112.518 147.314 112.518ZM152.183 113.33V112.499L156.209 107.329V107.255H152.313V106.239H157.612V107.107L153.698 112.241V112.314H157.742V113.33H152.183ZM159.42 113.33V106.239H160.509V113.33H159.42ZM163.594 109.064V113.33H162.505V106.239H163.557V107.347H163.65C163.816 106.987 164.068 106.698 164.407 106.479C164.745 106.258 165.182 106.147 165.718 106.147C166.198 106.147 166.618 106.245 166.978 106.442C167.338 106.636 167.618 106.932 167.818 107.329C168.018 107.723 168.118 108.221 168.118 108.824V113.33H167.029V108.898C167.029 108.341 166.884 107.907 166.595 107.596C166.306 107.282 165.909 107.125 165.404 107.125C165.056 107.125 164.745 107.201 164.471 107.352C164.201 107.502 163.987 107.723 163.83 108.012C163.673 108.301 163.594 108.652 163.594 109.064ZM170.903 113.404C170.676 113.404 170.48 113.322 170.317 113.159C170.154 112.996 170.072 112.801 170.072 112.573C170.072 112.345 170.154 112.15 170.317 111.987C170.48 111.824 170.676 111.742 170.903 111.742C171.131 111.742 171.326 111.824 171.49 111.987C171.653 112.15 171.734 112.345 171.734 112.573C171.734 112.724 171.696 112.862 171.619 112.988C171.545 113.115 171.445 113.216 171.319 113.293C171.196 113.367 171.057 113.404 170.903 113.404Z" fill="#737373"/>
</g>
<path d="M20.484 149.66H19.261L22.0091 142.024H23.3402L26.0882 149.66H24.8652L22.7063 143.411H22.6467L20.484 149.66ZM20.6891 146.67H24.6564V147.639H20.6891V146.67ZM33.4496 144.507H32.2863C32.2415 144.258 32.1583 144.04 32.0365 143.851C31.9146 143.662 31.7655 143.501 31.589 143.37C31.4125 143.238 31.2149 143.138 30.9961 143.071C30.7799 143.004 30.5499 142.971 30.3063 142.971C29.8664 142.971 29.4724 143.081 29.1243 143.303C28.7788 143.524 28.5054 143.848 28.304 144.276C28.1052 144.703 28.0057 145.225 28.0057 145.842C28.0057 146.463 28.1052 146.988 28.304 147.415C28.5054 147.843 28.7801 148.166 29.1281 148.385C29.4761 148.604 29.8676 148.713 30.3026 148.713C30.5437 148.713 30.7724 148.681 30.9887 148.616C31.2074 148.549 31.4051 148.451 31.5816 148.321C31.758 148.192 31.9072 148.034 32.029 147.848C32.1533 147.659 32.239 147.443 32.2863 147.199L33.4496 147.203C33.3875 147.578 33.2669 147.924 33.0879 148.239C32.9115 148.553 32.684 148.824 32.4056 149.052C32.1297 149.278 31.814 149.454 31.4585 149.578C31.103 149.702 30.7153 149.764 30.2952 149.764C29.6339 149.764 29.0448 149.608 28.5278 149.295C28.0107 148.979 27.603 148.528 27.3047 147.941C27.0089 147.354 26.861 146.655 26.861 145.842C26.861 145.026 27.0102 144.327 27.3085 143.743C27.6068 143.156 28.0144 142.706 28.5315 142.393C29.0485 142.077 29.6364 141.919 30.2952 141.919C30.7003 141.919 31.0782 141.978 31.4287 142.094C31.7817 142.209 32.0986 142.378 32.3795 142.602C32.6604 142.823 32.8928 143.094 33.0768 143.414C33.2607 143.733 33.385 144.097 33.4496 144.507ZM29.9036 149.671H30.6345L30.5748 149.977C30.7911 150.012 30.98 150.099 31.1416 150.238C31.3031 150.377 31.3839 150.587 31.3839 150.868C31.3864 151.204 31.241 151.476 30.9477 151.685C30.6568 151.893 30.2355 151.998 29.6836 151.998L29.6613 151.375C29.9198 151.375 30.1286 151.338 30.2877 151.263C30.4493 151.189 30.5313 151.068 30.5338 150.902C30.5363 150.735 30.4741 150.618 30.3474 150.551C30.2231 150.484 30.0242 150.437 29.7508 150.409L29.9036 149.671ZM36.2555 142.024V149.66H35.1033V142.024H36.2555ZM38.2084 149.66V142.024H39.3606V145.67H39.4538L42.6567 142.024H44.1072L41.0273 145.461L44.1184 149.66H42.7313L40.2629 146.248L39.3606 147.285V149.66H38.2084ZM45.456 149.66V142.024H46.6082V148.668H50.0684V149.66H45.456ZM52.6925 149.66H51.4695L54.2176 142.024H55.5487L58.2967 149.66H57.0737L54.9148 143.411H54.8552L52.6925 149.66ZM52.8976 146.67H56.8649V147.639H52.8976V146.67ZM59.6745 142.024H61.0728L63.5039 147.96H63.5934L66.0245 142.024H67.4227V149.66H66.3265V144.134H66.2556L64.0035 149.649H63.0937L60.8416 144.13H60.7707V149.66H59.6745V142.024ZM70.0179 149.66H68.7949L71.5429 142.024H72.8741L75.6221 149.66H74.3991L72.2402 143.411H72.1805L70.0179 149.66ZM70.223 146.67H74.1903V147.639H70.223V146.67Z" fill="#A1A1A1"/>
<rect x="17" y="160.66" width="582" height="34.66" rx="8" fill="#171717" fill-opacity="0.6"/>
<rect x="17.5" y="161.16" width="581" height="33.66" rx="7.5" stroke="white" stroke-opacity="0.1"/>
<g clip-path="url(#clip2_8_101)">
<path d="M31.1994 182.99H29.9991L33.4707 173.535H34.6525L38.1241 182.99H36.9239L34.0986 175.031H34.0247L31.1994 182.99ZM31.6426 179.297H36.4807V180.312H31.6426V179.297ZM42.3297 183.138C41.665 183.138 41.0925 182.981 40.6124 182.667C40.1323 182.353 39.763 181.92 39.5045 181.37C39.2459 180.819 39.1167 180.189 39.1167 179.481C39.1167 178.761 39.249 178.126 39.5137 177.575C39.7814 177.021 40.1538 176.588 40.6309 176.278C41.111 175.964 41.6711 175.807 42.3113 175.807C42.8099 175.807 43.2592 175.899 43.6593 176.084C44.0594 176.268 44.3872 176.527 44.6426 176.859C44.898 177.192 45.0565 177.579 45.1181 178.023H44.0286C43.9455 177.699 43.7609 177.413 43.4746 177.164C43.1915 176.912 42.8099 176.785 42.3297 176.785C41.905 176.785 41.5326 176.896 41.2126 177.118C40.8956 177.336 40.6478 177.646 40.4693 178.046C40.2939 178.443 40.2062 178.909 40.2062 179.444C40.2062 179.992 40.2923 180.469 40.4647 180.876C40.6401 181.282 40.8863 181.597 41.2033 181.822C41.5234 182.047 41.8989 182.159 42.3297 182.159C42.6129 182.159 42.8699 182.11 43.1007 182.011C43.3315 181.913 43.527 181.771 43.687 181.587C43.847 181.402 43.9609 181.18 44.0286 180.922H45.1181C45.0565 181.34 44.9042 181.717 44.6611 182.053C44.421 182.385 44.1025 182.65 43.7055 182.847C43.3115 183.041 42.8529 183.138 42.3297 183.138ZM41.8127 182.953H42.7175L42.6437 183.322C42.8837 183.359 43.1038 183.459 43.3038 183.622C43.5039 183.789 43.6039 184.052 43.6039 184.412C43.6039 184.809 43.4392 185.132 43.1099 185.381C42.7837 185.634 42.302 185.76 41.665 185.76L41.628 185.04C41.9143 185.04 42.1512 184.993 42.339 184.901C42.5298 184.812 42.6252 184.661 42.6252 184.449C42.6252 184.236 42.5467 184.092 42.3898 184.015C42.2328 183.938 41.9789 183.886 41.628 183.858L41.8127 182.953ZM46.7108 182.99V175.899H47.8003V182.99H46.7108ZM50.8114 180.405L50.7929 179.057H51.0145L54.1168 175.899H55.4648L52.1594 179.241H52.0671L50.8114 180.405ZM49.7957 182.99V173.535H50.8852V182.99H49.7957ZM54.3014 182.99L51.5315 179.481L52.3071 178.724L55.6864 182.99H54.3014ZM57.9565 173.535V182.99H56.867V173.535H57.9565ZM62.0386 183.156C61.5893 183.156 61.1815 183.071 60.8153 182.902C60.449 182.73 60.1582 182.482 59.9428 182.159C59.7273 181.833 59.6196 181.439 59.6196 180.977C59.6196 180.571 59.6996 180.242 59.8597 179.989C60.0197 179.734 60.2336 179.534 60.5014 179.389C60.7691 179.244 61.0646 179.137 61.3877 179.066C61.7139 178.992 62.0417 178.934 62.371 178.89C62.8019 178.835 63.1512 178.794 63.419 178.766C63.6898 178.735 63.8868 178.684 64.0099 178.614C64.1361 178.543 64.1992 178.42 64.1992 178.244V178.207C64.1992 177.752 64.0745 177.398 63.8252 177.145C63.579 176.893 63.2051 176.767 62.7034 176.767C62.1833 176.767 61.7755 176.881 61.48 177.109C61.1846 177.336 60.9769 177.579 60.8568 177.838L59.8227 177.469C60.0074 177.038 60.2536 176.702 60.5614 176.462C60.8722 176.219 61.2108 176.05 61.577 175.954C61.9463 175.856 62.3095 175.807 62.6665 175.807C62.8942 175.807 63.1558 175.834 63.4513 175.89C63.7498 175.942 64.0376 176.051 64.3146 176.218C64.5946 176.384 64.827 176.635 65.0117 176.97C65.1963 177.306 65.2886 177.755 65.2886 178.318V182.99H64.1992V182.03H64.1438C64.0699 182.184 63.9468 182.348 63.7744 182.524C63.6021 182.699 63.3728 182.848 63.0866 182.971C62.8004 183.095 62.451 183.156 62.0386 183.156ZM62.2048 182.177C62.6357 182.177 62.9989 182.093 63.2943 181.924C63.5929 181.754 63.8175 181.536 63.9683 181.268C64.1222 181 64.1992 180.719 64.1992 180.423V179.426C64.153 179.481 64.0514 179.532 63.8945 179.578C63.7406 179.621 63.5621 179.66 63.359 179.694C63.1589 179.725 62.9635 179.752 62.7727 179.777C62.5849 179.798 62.4326 179.817 62.3156 179.832C62.0325 179.869 61.7678 179.929 61.5216 180.012C61.2785 180.092 61.0815 180.214 60.9307 180.377C60.783 180.537 60.7091 180.756 60.7091 181.033C60.7091 181.411 60.8491 181.697 61.1292 181.891C61.4123 182.082 61.7709 182.177 62.2048 182.177ZM67.2772 182.99V175.899H68.3297V177.007H68.4221C68.5698 176.628 68.8083 176.335 69.1376 176.125C69.4669 175.913 69.8624 175.807 70.3241 175.807C70.7919 175.807 71.1812 175.913 71.492 176.125C71.806 176.335 72.0506 176.628 72.2261 177.007H72.2999C72.4815 176.641 72.7539 176.35 73.117 176.134C73.4802 175.916 73.9157 175.807 74.4235 175.807C75.0575 175.807 75.5761 176.005 75.9792 176.402C76.3824 176.796 76.584 177.41 76.584 178.244V182.99H75.4945V178.244C75.4945 177.721 75.3514 177.347 75.0652 177.122C74.779 176.898 74.442 176.785 74.0542 176.785C73.5556 176.785 73.1694 176.936 72.8954 177.238C72.6215 177.536 72.4846 177.915 72.4846 178.373V182.99H71.3766V178.133C71.3766 177.73 71.2458 177.406 70.9842 177.159C70.7226 176.91 70.3856 176.785 69.9732 176.785C69.6901 176.785 69.4254 176.861 69.1792 177.012C68.936 177.162 68.7391 177.372 68.5883 177.639C68.4405 177.904 68.3667 178.21 68.3667 178.558V182.99H67.2772ZM80.6627 183.156C80.2133 183.156 79.8055 183.071 79.4393 182.902C79.0731 182.73 78.7822 182.482 78.5668 182.159C78.3513 181.833 78.2436 181.439 78.2436 180.977C78.2436 180.571 78.3236 180.242 78.4837 179.989C78.6437 179.734 78.8576 179.534 79.1254 179.389C79.3931 179.244 79.6886 179.137 80.0117 179.066C80.338 178.992 80.6657 178.934 80.9951 178.89C81.4259 178.835 81.7752 178.794 82.043 178.766C82.3138 178.735 82.5108 178.684 82.6339 178.614C82.7601 178.543 82.8232 178.42 82.8232 178.244V178.207C82.8232 177.752 82.6985 177.398 82.4492 177.145C82.203 176.893 81.8291 176.767 81.3274 176.767C80.8073 176.767 80.3995 176.881 80.1041 177.109C79.8086 177.336 79.6009 177.579 79.4808 177.838L78.4468 177.469C78.6314 177.038 78.8776 176.702 79.1854 176.462C79.4962 176.219 79.8348 176.05 80.201 175.954C80.5703 175.856 80.9335 175.807 81.2905 175.807C81.5183 175.807 81.7799 175.834 82.0753 175.89C82.3738 175.942 82.6616 176.051 82.9386 176.218C83.2187 176.384 83.451 176.635 83.6357 176.97C83.8203 177.306 83.9127 177.755 83.9127 178.318V182.99H82.8232V182.03H82.7678C82.6939 182.184 82.5708 182.348 82.3985 182.524C82.2261 182.699 81.9968 182.848 81.7106 182.971C81.4244 183.095 81.0751 183.156 80.6627 183.156ZM80.8289 182.177C81.2597 182.177 81.6229 182.093 81.9183 181.924C82.2169 181.754 82.4415 181.536 82.5924 181.268C82.7462 181 82.8232 180.719 82.8232 180.423V179.426C82.777 179.481 82.6754 179.532 82.5185 179.578C82.3646 179.621 82.1861 179.66 81.983 179.694C81.7829 179.725 81.5875 179.752 81.3967 179.777C81.2089 179.798 81.0566 179.817 80.9397 179.832C80.6565 179.869 80.3918 179.929 80.1456 180.012C79.9025 180.092 79.7055 180.214 79.5547 180.377C79.407 180.537 79.3331 180.756 79.3331 181.033C79.3331 181.411 79.4732 181.697 79.7532 181.891C80.0364 182.082 80.3949 182.177 80.8289 182.177ZM86.9907 178.724V182.99H85.9012V175.899H86.9538V177.007H87.0461C87.2123 176.647 87.4647 176.358 87.8032 176.139C88.1417 175.917 88.5788 175.807 89.1143 175.807C89.5944 175.807 90.0145 175.905 90.3746 176.102C90.7347 176.296 91.0147 176.591 91.2148 176.989C91.4148 177.382 91.5148 177.881 91.5148 178.484V182.99H90.4254V178.558C90.4254 178.001 90.2807 177.567 89.9914 177.256C89.7021 176.942 89.3051 176.785 88.8004 176.785C88.4526 176.785 88.1417 176.861 87.8678 177.012C87.597 177.162 87.3831 177.382 87.2261 177.672C87.0692 177.961 86.9907 178.312 86.9907 178.724ZM93.5057 182.99V175.899H94.5952V182.99H93.5057ZM96.3875 182.99V182.159L100.413 176.989V176.915H96.5168V175.899H101.817V176.767L97.9017 181.9V181.974H101.946V182.99H96.3875ZM103.624 182.99V175.899H104.713V182.99H103.624ZM110.513 182.99V173.535H111.602V177.025H111.695C111.775 176.902 111.885 176.745 112.027 176.555C112.172 176.361 112.378 176.188 112.646 176.038C112.916 175.884 113.283 175.807 113.744 175.807C114.341 175.807 114.868 175.956 115.323 176.254C115.779 176.553 116.134 176.976 116.39 177.524C116.645 178.072 116.773 178.718 116.773 179.463C116.773 180.214 116.645 180.865 116.39 181.416C116.134 181.964 115.78 182.388 115.328 182.69C114.875 182.988 114.354 183.138 113.763 183.138C113.307 183.138 112.943 183.062 112.669 182.911C112.395 182.758 112.184 182.584 112.036 182.39C111.889 182.193 111.775 182.03 111.695 181.9H111.565V182.99H110.513ZM111.584 179.444C111.584 179.98 111.662 180.452 111.819 180.862C111.976 181.268 112.206 181.587 112.507 181.817C112.809 182.045 113.178 182.159 113.615 182.159C114.071 182.159 114.451 182.039 114.755 181.799C115.063 181.556 115.294 181.23 115.448 180.82C115.605 180.408 115.683 179.949 115.683 179.444C115.683 178.946 115.606 178.497 115.452 178.096C115.302 177.693 115.072 177.375 114.765 177.141C114.46 176.904 114.077 176.785 113.615 176.785C113.172 176.785 112.8 176.898 112.498 177.122C112.196 177.344 111.969 177.655 111.815 178.055C111.661 178.452 111.584 178.915 111.584 179.444ZM122.908 180.091V175.899H123.998V182.99H122.908V181.79H122.834C122.668 182.15 122.409 182.456 122.059 182.708C121.708 182.958 121.265 183.082 120.729 183.082C120.286 183.082 119.892 182.985 119.547 182.791C119.203 182.594 118.932 182.299 118.735 181.905C118.538 181.508 118.439 181.008 118.439 180.405V175.899H119.529V180.331C119.529 180.848 119.673 181.26 119.963 181.568C120.255 181.876 120.628 182.03 121.08 182.03C121.351 182.03 121.626 181.96 121.906 181.822C122.189 181.683 122.426 181.471 122.617 181.185C122.811 180.899 122.908 180.534 122.908 180.091ZM125.993 182.99V175.899H127.046V176.97H127.119C127.249 176.619 127.483 176.335 127.821 176.116C128.16 175.897 128.541 175.788 128.966 175.788C129.046 175.788 129.146 175.79 129.266 175.793C129.386 175.796 129.477 175.801 129.538 175.807V176.915C129.502 176.905 129.417 176.892 129.285 176.873C129.155 176.852 129.018 176.841 128.874 176.841C128.529 176.841 128.221 176.913 127.95 177.058C127.683 177.199 127.47 177.396 127.313 177.649C127.159 177.898 127.082 178.183 127.082 178.503V182.99H125.993ZM132.917 183.156C132.467 183.156 132.059 183.071 131.693 182.902C131.327 182.73 131.036 182.482 130.821 182.159C130.605 181.833 130.498 181.439 130.498 180.977C130.498 180.571 130.578 180.242 130.738 179.989C130.898 179.734 131.112 179.534 131.379 179.389C131.647 179.244 131.942 179.137 132.266 179.066C132.592 178.992 132.92 178.934 133.249 178.89C133.68 178.835 134.029 178.794 134.297 178.766C134.568 178.735 134.765 178.684 134.888 178.614C135.014 178.543 135.077 178.42 135.077 178.244V178.207C135.077 177.752 134.952 177.398 134.703 177.145C134.457 176.893 134.083 176.767 133.581 176.767C133.061 176.767 132.653 176.881 132.358 177.109C132.063 177.336 131.855 177.579 131.735 177.838L130.701 177.469C130.885 177.038 131.132 176.702 131.439 176.462C131.75 176.219 132.089 176.05 132.455 175.954C132.824 175.856 133.187 175.807 133.544 175.807C133.772 175.807 134.034 175.834 134.329 175.89C134.628 175.942 134.916 176.051 135.192 176.218C135.473 176.384 135.705 176.635 135.89 176.97C136.074 177.306 136.167 177.755 136.167 178.318V182.99H135.077V182.03H135.022C134.948 182.184 134.825 182.348 134.652 182.524C134.48 182.699 134.251 182.848 133.965 182.971C133.678 183.095 133.329 183.156 132.917 183.156ZM133.083 182.177C133.514 182.177 133.877 182.093 134.172 181.924C134.471 181.754 134.695 181.536 134.846 181.268C135 181 135.077 180.719 135.077 180.423V179.426C135.031 179.481 134.929 179.532 134.772 179.578C134.619 179.621 134.44 179.66 134.237 179.694C134.037 179.725 133.841 179.752 133.651 179.777C133.463 179.798 133.311 179.817 133.194 179.832C132.91 179.869 132.646 179.929 132.4 180.012C132.156 180.092 131.959 180.214 131.809 180.377C131.661 180.537 131.587 180.756 131.587 181.033C131.587 181.411 131.727 181.697 132.007 181.891C132.29 182.082 132.649 182.177 133.083 182.177ZM138.603 185.649C138.418 185.649 138.254 185.634 138.109 185.603C137.964 185.575 137.864 185.547 137.809 185.52L138.086 184.56C138.351 184.627 138.584 184.652 138.788 184.633C138.991 184.615 139.171 184.524 139.328 184.361C139.488 184.201 139.634 183.941 139.766 183.581L139.969 183.027L137.347 175.899H138.529L140.486 181.55H140.56L142.518 175.899H143.7L140.69 184.024C140.554 184.39 140.386 184.693 140.186 184.933C139.986 185.177 139.754 185.357 139.489 185.474C139.228 185.591 138.932 185.649 138.603 185.649ZM147.008 183.156C146.559 183.156 146.151 183.071 145.785 182.902C145.419 182.73 145.128 182.482 144.912 182.159C144.697 181.833 144.589 181.439 144.589 180.977C144.589 180.571 144.669 180.242 144.829 179.989C144.989 179.734 145.203 179.534 145.471 179.389C145.739 179.244 146.034 179.137 146.357 179.066C146.684 178.992 147.011 178.934 147.341 178.89C147.772 178.835 148.121 178.794 148.389 178.766C148.66 178.735 148.856 178.684 148.98 178.614C149.106 178.543 149.169 178.42 149.169 178.244V178.207C149.169 177.752 149.044 177.398 148.795 177.145C148.549 176.893 148.175 176.767 147.673 176.767C147.153 176.767 146.745 176.881 146.45 177.109C146.154 177.336 145.947 177.579 145.827 177.838L144.792 177.469C144.977 177.038 145.223 176.702 145.531 176.462C145.842 176.219 146.18 176.05 146.547 175.954C146.916 175.856 147.279 175.807 147.636 175.807C147.864 175.807 148.126 175.834 148.421 175.89C148.72 175.942 149.007 176.051 149.284 176.218C149.564 176.384 149.797 176.635 149.981 176.97C150.166 177.306 150.258 177.755 150.258 178.318V182.99H149.169V182.03H149.113C149.04 182.184 148.917 182.348 148.744 182.524C148.572 182.699 148.343 182.848 148.056 182.971C147.77 183.095 147.421 183.156 147.008 183.156ZM147.175 182.177C147.605 182.177 147.969 182.093 148.264 181.924C148.563 181.754 148.787 181.536 148.938 181.268C149.092 181 149.169 180.719 149.169 180.423V179.426C149.123 179.481 149.021 179.532 148.864 179.578C148.71 179.621 148.532 179.66 148.329 179.694C148.129 179.725 147.933 179.752 147.742 179.777C147.555 179.798 147.402 179.817 147.285 179.832C147.002 179.869 146.738 179.929 146.491 180.012C146.248 180.092 146.051 180.214 145.9 180.377C145.753 180.537 145.679 180.756 145.679 181.033C145.679 181.411 145.819 181.697 146.099 181.891C146.382 182.082 146.741 182.177 147.175 182.177ZM156.605 185.649C156.42 185.649 156.256 185.634 156.111 185.603C155.966 185.575 155.866 185.547 155.811 185.52L156.088 184.56C156.353 184.627 156.586 184.652 156.79 184.633C156.993 184.615 157.173 184.524 157.33 184.361C157.49 184.201 157.636 183.941 157.768 183.581L157.971 183.027L155.349 175.899H156.531L158.488 181.55H158.562L160.52 175.899H161.701L158.692 184.024C158.556 184.39 158.388 184.693 158.188 184.933C157.988 185.177 157.756 185.357 157.491 185.474C157.23 185.591 156.934 185.649 156.605 185.649ZM165.01 183.156C164.561 183.156 164.153 183.071 163.787 182.902C163.421 182.73 163.13 182.482 162.914 182.159C162.699 181.833 162.591 181.439 162.591 180.977C162.591 180.571 162.671 180.242 162.831 179.989C162.991 179.734 163.205 179.534 163.473 179.389C163.741 179.244 164.036 179.137 164.359 179.066C164.686 178.992 165.013 178.934 165.343 178.89C165.774 178.835 166.123 178.794 166.391 178.766C166.661 178.735 166.858 178.684 166.982 178.614C167.108 178.543 167.171 178.42 167.171 178.244V178.207C167.171 177.752 167.046 177.398 166.797 177.145C166.551 176.893 166.177 176.767 165.675 176.767C165.155 176.767 164.747 176.881 164.452 177.109C164.156 177.336 163.949 177.579 163.829 177.838L162.794 177.469C162.979 177.038 163.225 176.702 163.533 176.462C163.844 176.219 164.182 176.05 164.549 175.954C164.918 175.856 165.281 175.807 165.638 175.807C165.866 175.807 166.128 175.834 166.423 175.89C166.721 175.942 167.009 176.051 167.286 176.218C167.566 176.384 167.799 176.635 167.983 176.97C168.168 177.306 168.26 177.755 168.26 178.318V182.99H167.171V182.03H167.115C167.042 182.184 166.918 182.348 166.746 182.524C166.574 182.699 166.344 182.848 166.058 182.971C165.772 183.095 165.423 183.156 165.01 183.156ZM165.177 182.177C165.607 182.177 165.971 182.093 166.266 181.924C166.565 181.754 166.789 181.536 166.94 181.268C167.094 181 167.171 180.719 167.171 180.423V179.426C167.125 179.481 167.023 179.532 166.866 179.578C166.712 179.621 166.534 179.66 166.331 179.694C166.131 179.725 165.935 179.752 165.744 179.777C165.557 179.798 165.404 179.817 165.287 179.832C165.004 179.869 164.739 179.929 164.493 180.012C164.25 180.092 164.053 180.214 163.902 180.377C163.755 180.537 163.681 180.756 163.681 181.033C163.681 181.411 163.821 181.697 164.101 181.891C164.384 182.082 164.743 182.177 165.177 182.177ZM170.046 182.99V182.159L174.071 176.989V176.915H170.175V175.899H175.475V176.767L171.56 181.9V181.974H175.604V182.99H170.046ZM177.282 182.99V175.899H178.372V182.99H177.282ZM181.457 178.724V182.99H180.367V175.899H181.42V177.007H181.512C181.678 176.647 181.93 176.358 182.269 176.139C182.608 175.917 183.045 175.807 183.58 175.807C184.06 175.807 184.48 175.905 184.84 176.102C185.2 176.296 185.481 176.591 185.681 176.989C185.881 177.382 185.981 177.881 185.981 178.484V182.99H184.891V178.558C184.891 178.001 184.747 177.567 184.457 177.256C184.168 176.942 183.771 176.785 183.266 176.785C182.918 176.785 182.608 176.861 182.334 177.012C182.063 177.162 181.849 177.382 181.692 177.672C181.535 177.961 181.457 178.312 181.457 178.724ZM188.766 183.064C188.538 183.064 188.342 182.982 188.179 182.819C188.016 182.656 187.935 182.461 187.935 182.233C187.935 182.005 188.016 181.81 188.179 181.647C188.342 181.483 188.538 181.402 188.766 181.402C188.993 181.402 189.189 181.483 189.352 181.647C189.515 181.81 189.597 182.005 189.597 182.233C189.597 182.384 189.558 182.522 189.481 182.648C189.407 182.774 189.307 182.876 189.181 182.953C189.058 183.027 188.919 183.064 188.766 183.064Z" fill="#737373"/>
</g>
<rect x="17" y="207.32" width="582" height="39.6667" rx="8" fill="white" fill-opacity="0.05"/>
<rect x="17.5" y="207.82" width="581" height="38.6667" rx="7.5" stroke="white" stroke-opacity="0.1"/>
<path d="M26.6475 231.153V223.081H29.4698C30.0321 223.081 30.496 223.178 30.8612 223.372C31.2265 223.564 31.4985 223.823 31.6772 224.149C31.8559 224.472 31.9452 224.831 31.9452 225.225C31.9452 225.572 31.8835 225.858 31.7599 226.084C31.6391 226.31 31.4788 226.489 31.279 226.62C31.082 226.752 30.8678 226.849 30.6365 226.912V226.991C30.8836 227.007 31.1319 227.093 31.3815 227.251C31.6312 227.409 31.8401 227.635 32.0083 227.929C32.1765 228.223 32.2605 228.583 32.2605 229.009C32.2605 229.414 32.1686 229.778 31.9846 230.101C31.8007 230.424 31.5103 230.68 31.1135 230.87C30.7167 231.059 30.2003 231.153 29.5644 231.153H26.6475ZM27.625 230.286H29.5644C30.2029 230.286 30.6563 230.163 30.9243 229.916C31.195 229.666 31.3303 229.364 31.3303 229.009C31.3303 228.736 31.2607 228.483 31.1214 228.252C30.9821 228.018 30.7837 227.832 30.5262 227.693C30.2686 227.551 29.9638 227.48 29.6117 227.48H27.625V230.286ZM27.625 226.628H29.4382C29.7326 226.628 29.998 226.57 30.2345 226.455C30.4736 226.339 30.6628 226.176 30.8021 225.966C30.944 225.756 31.015 225.509 31.015 225.225C31.015 224.87 30.8914 224.569 30.6444 224.322C30.3974 224.073 30.0059 223.948 29.4698 223.948H27.625V226.628ZM33.7407 231.153V225.099H34.6709V231.153H33.7407ZM34.2137 224.09C34.0324 224.09 33.876 224.028 33.7446 223.904C33.6159 223.781 33.5515 223.633 33.5515 223.459C33.5515 223.286 33.6159 223.137 33.7446 223.014C33.876 222.89 34.0324 222.828 34.2137 222.828C34.395 222.828 34.5501 222.89 34.6788 223.014C34.8102 223.137 34.8759 223.286 34.8759 223.459C34.8759 223.633 34.8102 223.781 34.6788 223.904C34.5501 224.028 34.395 224.09 34.2137 224.09ZM36.3748 231.153V225.099H37.2735V226.013H37.3366C37.4469 225.714 37.6466 225.471 37.9357 225.284C38.2248 225.098 38.5506 225.004 38.9133 225.004C38.9816 225.004 39.067 225.006 39.1695 225.008C39.272 225.011 39.3495 225.015 39.402 225.02V225.966C39.3705 225.958 39.2982 225.946 39.1852 225.931C39.0749 225.912 38.9579 225.903 38.8344 225.903C38.5401 225.903 38.2773 225.965 38.0461 226.088C37.8174 226.209 37.6361 226.377 37.5021 226.593C37.3707 226.806 37.305 227.049 37.305 227.322V231.153H36.3748ZM42.6067 231.28C42.1021 231.28 41.6567 231.152 41.2704 230.897C40.8841 230.64 40.5819 230.277 40.3638 229.809C40.1457 229.339 40.0367 228.783 40.0367 228.142C40.0367 227.506 40.1457 226.954 40.3638 226.486C40.5819 226.019 40.8855 225.657 41.2744 225.402C41.6633 225.147 42.1127 225.02 42.6225 225.02C43.0166 225.02 43.328 225.086 43.5567 225.217C43.7879 225.346 43.964 225.493 44.0848 225.659C44.2084 225.821 44.3043 225.956 44.3726 226.061H44.4514V223.081H45.3817V231.153H44.483V230.223H44.3726C44.3043 230.333 44.207 230.473 44.0809 230.641C43.9548 230.807 43.7748 230.955 43.5409 231.086C43.307 231.215 42.9956 231.28 42.6067 231.28ZM42.7328 230.444C43.106 230.444 43.4213 230.347 43.6788 230.152C43.9364 229.955 44.1321 229.683 44.2662 229.336C44.4002 228.987 44.4672 228.583 44.4672 228.126C44.4672 227.674 44.4015 227.279 44.2701 226.94C44.1387 226.598 43.9443 226.333 43.6867 226.143C43.4292 225.952 43.1112 225.856 42.7328 225.856C42.3386 225.856 42.0102 225.957 41.7474 226.159C41.4872 226.359 41.2915 226.631 41.1601 226.975C41.0313 227.317 40.9669 227.7 40.9669 228.126C40.9669 228.557 41.0326 228.949 41.164 229.301C41.298 229.65 41.4951 229.929 41.7553 230.136C42.018 230.341 42.3439 230.444 42.7328 230.444ZM49.7531 231.28C49.1697 231.28 48.6665 231.151 48.2434 230.893C47.8229 230.633 47.4984 230.27 47.2698 229.805C47.0438 229.338 46.9308 228.794 46.9308 228.173C46.9308 227.553 47.0438 227.007 47.2698 226.534C47.4984 226.058 47.8164 225.687 48.2237 225.422C48.6336 225.154 49.1119 225.02 49.6585 225.02C49.9738 225.02 50.2852 225.073 50.5927 225.178C50.9002 225.283 51.18 225.454 51.4323 225.69C51.6846 225.924 51.8856 226.234 52.0354 226.62C52.1852 227.007 52.2601 227.482 52.2601 228.047V228.441H47.593V227.637H51.314C51.314 227.296 51.2457 226.991 51.1091 226.723C50.975 226.455 50.7832 226.243 50.5336 226.088C50.2866 225.933 49.9949 225.856 49.6585 225.856C49.288 225.856 48.9674 225.948 48.6967 226.132C48.4287 226.313 48.2224 226.549 48.0779 226.841C47.9333 227.133 47.8611 227.445 47.8611 227.779V228.315C47.8611 228.773 47.9399 229.16 48.0976 229.478C48.2579 229.793 48.4799 230.034 48.7637 230.199C49.0475 230.362 49.3773 230.444 49.7531 230.444C49.9975 230.444 50.2182 230.41 50.4153 230.341C50.615 230.27 50.7872 230.165 50.9317 230.026C51.0762 229.884 51.1879 229.708 51.2667 229.498L52.1655 229.75C52.0709 230.055 51.9119 230.323 51.6885 230.554C51.4651 230.783 51.1892 230.962 50.8607 231.09C50.5323 231.216 50.163 231.28 49.7531 231.28ZM54.6054 227.511V231.153H53.6752V225.099H54.5739V226.045H54.6527C54.7946 225.737 55.0101 225.49 55.2992 225.304C55.5882 225.115 55.9614 225.02 56.4186 225.02C56.8286 225.02 57.1873 225.104 57.4947 225.272C57.8022 225.438 58.0413 225.69 58.2121 226.029C58.3829 226.365 58.4683 226.791 58.4683 227.306V231.153H57.5381V227.369C57.5381 226.894 57.4146 226.523 57.1676 226.258C56.9205 225.99 56.5815 225.856 56.1506 225.856C55.8536 225.856 55.5882 225.92 55.3543 226.049C55.1231 226.178 54.9405 226.365 54.8064 226.612C54.6724 226.859 54.6054 227.159 54.6054 227.511ZM65.9863 225.099V225.887H62.7225V225.099H65.9863ZM63.7 231.153V224.263C63.7 223.916 63.7815 223.627 63.9444 223.396C64.1074 223.165 64.3189 222.991 64.579 222.876C64.8392 222.76 65.1138 222.702 65.4029 222.702C65.6315 222.702 65.8181 222.721 65.9626 222.757C66.1071 222.794 66.2149 222.828 66.2858 222.86L66.0178 223.664C65.9705 223.648 65.9048 223.629 65.8207 223.605C65.7392 223.581 65.6315 223.569 65.4975 223.569C65.19 223.569 64.968 223.647 64.8313 223.802C64.6973 223.957 64.6303 224.184 64.6303 224.484V231.153H63.7ZM68.8982 231.295C68.5146 231.295 68.1664 231.223 67.8537 231.078C67.541 230.931 67.2926 230.72 67.1087 230.444C66.9247 230.165 66.8328 229.829 66.8328 229.435C66.8328 229.088 66.9011 228.807 67.0377 228.591C67.1744 228.373 67.357 228.202 67.5856 228.079C67.8142 227.955 68.0665 227.863 68.3424 227.803C68.621 227.74 68.9009 227.69 69.182 227.653C69.5499 227.606 69.8482 227.57 70.0768 227.547C70.3081 227.52 70.4763 227.477 70.5814 227.417C70.6891 227.356 70.743 227.251 70.743 227.101V227.07C70.743 226.681 70.6366 226.379 70.4237 226.163C70.2135 225.948 69.8942 225.84 69.4658 225.84C69.0217 225.84 68.6736 225.937 68.4213 226.132C68.169 226.326 67.9916 226.534 67.8891 226.754L67.0062 226.439C67.1639 226.071 67.3741 225.785 67.6369 225.58C67.9023 225.372 68.1913 225.228 68.5041 225.146C68.8194 225.062 69.1295 225.02 69.4343 225.02C69.6288 225.02 69.8521 225.044 70.1044 225.091C70.3593 225.136 70.605 225.229 70.8415 225.371C71.0807 225.513 71.2791 225.727 71.4367 226.013C71.5944 226.3 71.6732 226.683 71.6732 227.164V231.153H70.743V230.333H70.6957C70.6326 230.465 70.5275 230.605 70.3803 230.755C70.2332 230.905 70.0374 231.033 69.793 231.138C69.5486 231.243 69.2504 231.295 68.8982 231.295ZM69.0401 230.46C69.408 230.46 69.7181 230.387 69.9704 230.243C70.2253 230.098 70.4171 229.912 70.5459 229.683C70.6773 229.454 70.743 229.214 70.743 228.962V228.11C70.7036 228.158 70.6168 228.201 70.4828 228.24C70.3514 228.277 70.199 228.31 70.0256 228.339C69.8548 228.365 69.6879 228.389 69.525 228.41C69.3647 228.428 69.2346 228.444 69.1347 228.457C68.893 228.489 68.667 228.54 68.4568 228.611C68.2492 228.679 68.081 228.783 67.9522 228.922C67.8261 229.059 67.763 229.246 67.763 229.482C67.763 229.805 67.8826 230.05 68.1217 230.215C68.3635 230.378 68.6696 230.46 69.0401 230.46ZM73.1977 231.153V230.444L76.6349 226.029V225.966H73.3081V225.099H77.8332V225.84L74.4906 230.223V230.286H77.9436V231.153H73.1977ZM80.3067 223.081V231.153H79.3764V223.081H80.3067ZM83.7922 231.295C83.4085 231.295 83.0603 231.223 82.7476 231.078C82.4349 230.931 82.1866 230.72 82.0026 230.444C81.8187 230.165 81.7267 229.829 81.7267 229.435C81.7267 229.088 81.795 228.807 81.9317 228.591C82.0683 228.373 82.251 228.202 82.4796 228.079C82.7082 227.955 82.9605 227.863 83.2364 227.803C83.5149 227.74 83.7948 227.69 84.076 227.653C84.4439 227.606 84.7421 227.57 84.9708 227.547C85.202 227.52 85.3702 227.477 85.4753 227.417C85.5831 227.356 85.6369 227.251 85.6369 227.101V227.07C85.6369 226.681 85.5305 226.379 85.3176 226.163C85.1074 225.948 84.7881 225.84 84.3598 225.84C83.9157 225.84 83.5675 225.937 83.3152 226.132C83.063 226.326 82.8856 226.534 82.7831 226.754L81.9001 226.439C82.0578 226.071 82.268 225.785 82.5308 225.58C82.7962 225.372 83.0853 225.228 83.398 225.146C83.7133 225.062 84.0234 225.02 84.3283 225.02C84.5227 225.02 84.7461 225.044 84.9984 225.091C85.2533 225.136 85.499 225.229 85.7355 225.371C85.9746 225.513 86.173 225.727 86.3307 226.013C86.4883 226.3 86.5672 226.683 86.5672 227.164V231.153H85.6369V230.333H85.5896C85.5266 230.465 85.4214 230.605 85.2743 230.755C85.1271 230.905 84.9314 231.033 84.687 231.138C84.4426 231.243 84.1443 231.295 83.7922 231.295ZM83.9341 230.46C84.302 230.46 84.6121 230.387 84.8643 230.243C85.1192 230.098 85.3111 229.912 85.4398 229.683C85.5712 229.454 85.6369 229.214 85.6369 228.962V228.11C85.5975 228.158 85.5108 228.201 85.3768 228.24C85.2454 228.277 85.093 228.31 84.9195 228.339C84.7487 228.365 84.5818 228.389 84.4189 228.41C84.2586 228.428 84.1285 228.444 84.0287 228.457C83.7869 228.489 83.5609 228.54 83.3507 228.611C83.1431 228.679 82.9749 228.783 82.8462 228.922C82.72 229.059 82.657 229.246 82.657 229.482C82.657 229.805 82.7765 230.05 83.0157 230.215C83.2574 230.378 83.5636 230.46 83.9341 230.46ZM92.3172 223.081V231.153H91.387V223.081H92.3172ZM94.0211 231.153V225.099H94.9513V231.153H94.0211ZM94.4941 224.09C94.3127 224.09 94.1564 224.028 94.025 223.904C93.8962 223.781 93.8318 223.633 93.8318 223.459C93.8318 223.286 93.8962 223.137 94.025 223.014C94.1564 222.89 94.3127 222.828 94.4941 222.828C94.6754 222.828 94.8304 222.89 94.9592 223.014C95.0906 223.137 95.1563 223.286 95.1563 223.459C95.1563 223.633 95.0906 223.781 94.9592 223.904C94.8304 224.028 94.6754 224.09 94.4941 224.09ZM97.5854 227.511V231.153H96.6551V225.099H97.5539V226.045H97.6327C97.7746 225.737 97.9901 225.49 98.2791 225.304C98.5682 225.115 98.9414 225.02 99.3986 225.02C99.8085 225.02 100.167 225.104 100.475 225.272C100.782 225.438 101.021 225.69 101.192 226.029C101.363 226.365 101.448 226.791 101.448 227.306V231.153H100.518V227.369C100.518 226.894 100.395 226.523 100.148 226.258C99.9005 225.99 99.5615 225.856 99.1306 225.856C98.8336 225.856 98.5682 225.92 98.3343 226.049C98.1031 226.178 97.9204 226.365 97.7864 226.612C97.6524 226.859 97.5854 227.159 97.5854 227.511ZM104.015 228.946L104 227.795H104.189L106.838 225.099H107.989L105.166 227.953H105.088L104.015 228.946ZM103.148 231.153V223.081H104.078V231.153H103.148ZM106.995 231.153L104.63 228.158L105.293 227.511L108.178 231.153H106.995ZM111.475 231.28C110.892 231.28 110.389 231.151 109.965 230.893C109.545 230.633 109.22 230.27 108.992 229.805C108.766 229.338 108.653 228.794 108.653 228.173C108.653 227.553 108.766 227.007 108.992 226.534C109.22 226.058 109.538 225.687 109.946 225.422C110.356 225.154 110.834 225.02 111.381 225.02C111.696 225.02 112.007 225.073 112.315 225.178C112.622 225.283 112.902 225.454 113.154 225.69C113.407 225.924 113.608 226.234 113.757 226.62C113.907 227.007 113.982 227.482 113.982 228.047V228.441H109.315V227.637H113.036C113.036 227.296 112.968 226.991 112.831 226.723C112.697 226.455 112.505 226.243 112.256 226.088C112.009 225.933 111.717 225.856 111.381 225.856C111.01 225.856 110.689 225.948 110.419 226.132C110.151 226.313 109.944 226.549 109.8 226.841C109.655 227.133 109.583 227.445 109.583 227.779V228.315C109.583 228.773 109.662 229.16 109.82 229.478C109.98 229.793 110.202 230.034 110.486 230.199C110.77 230.362 111.099 230.444 111.475 230.444C111.72 230.444 111.94 230.41 112.137 230.341C112.337 230.27 112.509 230.165 112.654 230.026C112.798 229.884 112.91 229.708 112.989 229.498L113.888 229.75C113.793 230.055 113.634 230.323 113.411 230.554C113.187 230.783 112.911 230.962 112.583 231.09C112.254 231.216 111.885 231.28 111.475 231.28ZM118.519 231.153V225.099H119.449V231.153H118.519ZM118.992 224.09C118.811 224.09 118.654 224.028 118.523 223.904C118.394 223.781 118.33 223.633 118.33 223.459C118.33 223.286 118.394 223.137 118.523 223.014C118.654 222.89 118.811 222.828 118.992 222.828C119.173 222.828 119.328 222.89 119.457 223.014C119.589 223.137 119.654 223.286 119.654 223.459C119.654 223.633 119.589 223.781 119.457 223.904C119.328 224.028 119.173 224.09 118.992 224.09ZM120.98 231.153V230.444L124.417 226.029V225.966H121.09V225.099H125.615V225.84L122.273 230.223V230.286H125.726V231.153H120.98ZM127.158 231.153V225.099H128.089V231.153H127.158ZM127.631 224.09C127.45 224.09 127.294 224.028 127.162 223.904C127.034 223.781 126.969 223.633 126.969 223.459C126.969 223.286 127.034 223.137 127.162 223.014C127.294 222.89 127.45 222.828 127.631 222.828C127.813 222.828 127.968 222.89 128.097 223.014C128.228 223.137 128.294 223.286 128.294 223.459C128.294 223.633 128.228 223.781 128.097 223.904C127.968 224.028 127.813 224.09 127.631 224.09ZM130.723 227.511V231.153H129.793V225.099H130.691V226.045H130.77C130.912 225.737 131.127 225.49 131.417 225.304C131.706 225.115 132.079 225.02 132.536 225.02C132.946 225.02 133.305 225.104 133.612 225.272C133.92 225.438 134.159 225.69 134.33 226.029C134.5 226.365 134.586 226.791 134.586 227.306V231.153H133.655V227.369C133.655 226.894 133.532 226.523 133.285 226.258C133.038 225.99 132.699 225.856 132.268 225.856C131.971 225.856 131.706 225.92 131.472 226.049C131.24 226.178 131.058 226.365 130.924 226.612C130.79 226.859 130.723 227.159 130.723 227.511ZM144.358 225.099L142.119 231.153H141.173L138.934 225.099H139.944L141.615 229.924H141.678L143.349 225.099H144.358ZM147.908 231.28C147.325 231.28 146.821 231.151 146.398 230.893C145.978 230.633 145.653 230.27 145.425 229.805C145.199 229.338 145.086 228.794 145.086 228.173C145.086 227.553 145.199 227.007 145.425 226.534C145.653 226.058 145.971 225.687 146.378 225.422C146.788 225.154 147.267 225.02 147.813 225.02C148.129 225.02 148.44 225.073 148.747 225.178C149.055 225.283 149.335 225.454 149.587 225.69C149.839 225.924 150.04 226.234 150.19 226.62C150.34 227.007 150.415 227.482 150.415 228.047V228.441H145.748V227.637H149.469C149.469 227.296 149.401 226.991 149.264 226.723C149.13 226.455 148.938 226.243 148.688 226.088C148.441 225.933 148.15 225.856 147.813 225.856C147.443 225.856 147.122 225.948 146.851 226.132C146.583 226.313 146.377 226.549 146.233 226.841C146.088 227.133 146.016 227.445 146.016 227.779V228.315C146.016 228.773 146.095 229.16 146.252 229.478C146.413 229.793 146.635 230.034 146.919 230.199C147.202 230.362 147.532 230.444 147.908 230.444C148.152 230.444 148.373 230.41 148.57 230.341C148.77 230.27 148.942 230.165 149.086 230.026C149.231 229.884 149.343 229.708 149.422 229.498L150.32 229.75C150.226 230.055 150.067 230.323 149.843 230.554C149.62 230.783 149.344 230.962 149.016 231.09C148.687 231.216 148.318 231.28 147.908 231.28ZM151.83 231.153V225.099H152.729V226.013H152.792C152.902 225.714 153.102 225.471 153.391 225.284C153.68 225.098 154.006 225.004 154.368 225.004C154.437 225.004 154.522 225.006 154.625 225.008C154.727 225.011 154.805 225.015 154.857 225.02V225.966C154.826 225.958 154.753 225.946 154.64 225.931C154.53 225.912 154.413 225.903 154.29 225.903C153.995 225.903 153.732 225.965 153.501 226.088C153.273 226.209 153.091 226.377 152.957 226.593C152.826 226.806 152.76 227.049 152.76 227.322V231.153H151.83Z" fill="#D4D4D4"/>
<rect x="506.007" y="211.987" width="84.3333" height="30.3333" rx="8" fill="white" fill-opacity="0.05"/>
<rect x="506.507" y="212.487" width="83.3333" height="29.3333" rx="7.5" stroke="white" stroke-opacity="0.15"/>
<rect x="508.673" y="214.653" width="42" height="25" rx="8" fill="white" fill-opacity="0.1"/>
<path d="M517.962 230.653V223.162H518.869V226.498H522.863V223.162H523.77V230.653H522.863V227.303H518.869V230.653H517.962ZM527.123 230.785C526.767 230.785 526.443 230.718 526.153 230.584C525.863 230.447 525.633 230.251 525.462 229.995C525.291 229.736 525.206 229.424 525.206 229.059C525.206 228.737 525.269 228.476 525.396 228.276C525.523 228.073 525.692 227.915 525.905 227.8C526.117 227.686 526.351 227.6 526.607 227.544C526.865 227.486 527.125 227.439 527.386 227.405C527.727 227.361 528.004 227.328 528.216 227.306C528.431 227.282 528.587 227.242 528.684 227.186C528.784 227.13 528.834 227.032 528.834 226.893V226.864C528.834 226.503 528.736 226.223 528.538 226.023C528.343 225.823 528.047 225.723 527.649 225.723C527.237 225.723 526.914 225.813 526.68 225.993C526.446 226.174 526.281 226.366 526.186 226.571L525.367 226.279C525.513 225.937 525.708 225.672 525.952 225.481C526.198 225.289 526.467 225.155 526.757 225.079C527.049 225.001 527.337 224.962 527.62 224.962C527.8 224.962 528.008 224.984 528.242 225.028C528.478 225.069 528.706 225.156 528.926 225.287C529.148 225.419 529.332 225.618 529.478 225.884C529.624 226.149 529.698 226.505 529.698 226.952V230.653H528.834V229.892H528.79C528.732 230.014 528.634 230.145 528.498 230.284C528.361 230.423 528.18 230.541 527.953 230.639C527.726 230.736 527.449 230.785 527.123 230.785ZM527.254 230.01C527.596 230.01 527.883 229.942 528.117 229.808C528.354 229.674 528.532 229.501 528.651 229.289C528.773 229.077 528.834 228.854 528.834 228.62V227.83C528.798 227.873 528.717 227.914 528.593 227.95C528.471 227.984 528.33 228.015 528.169 228.042C528.01 228.066 527.855 228.088 527.704 228.108C527.555 228.125 527.435 228.139 527.342 228.151C527.118 228.181 526.908 228.228 526.713 228.294C526.52 228.357 526.364 228.454 526.245 228.583C526.128 228.71 526.069 228.883 526.069 229.102C526.069 229.402 526.18 229.629 526.402 229.783C526.626 229.934 526.91 230.01 527.254 230.01ZM531.628 232.76C531.482 232.76 531.351 232.748 531.237 232.724C531.122 232.702 531.043 232.68 530.999 232.658L531.218 231.897C531.428 231.951 531.613 231.97 531.774 231.955C531.935 231.941 532.078 231.869 532.202 231.74C532.329 231.613 532.445 231.407 532.55 231.121L532.711 230.683L530.633 225.035H531.569L533.12 229.512H533.179L534.73 225.035H535.666L533.281 231.473C533.174 231.763 533.041 232.003 532.882 232.193C532.724 232.386 532.54 232.528 532.33 232.621C532.123 232.714 531.889 232.76 531.628 232.76ZM536.805 230.653V225.035H537.669V230.653H536.805ZM539.25 230.653V225.035H540.084V225.884H540.142C540.244 225.606 540.43 225.38 540.698 225.207C540.966 225.034 541.269 224.947 541.605 224.947C541.669 224.947 541.748 224.949 541.843 224.951C541.938 224.953 542.01 224.957 542.059 224.962V225.84C542.029 225.832 541.962 225.821 541.857 225.807C541.755 225.79 541.647 225.781 541.532 225.781C541.259 225.781 541.015 225.839 540.8 225.953C540.588 226.065 540.42 226.221 540.296 226.421C540.174 226.619 540.113 226.844 540.113 227.098V230.653H539.25Z" fill="#F5F5F5"/>
<path d="M559.844 230.653V223.526H564.145V224.292H560.707V226.7H563.923V227.465H560.707V229.888H564.201V230.653H559.844ZM569.961 225.308L567.984 230.653H567.149L565.172 225.308H566.063L567.539 229.567H567.594L569.07 225.308H569.961ZM573.095 230.765C572.58 230.765 572.135 230.651 571.762 230.424C571.39 230.194 571.104 229.874 570.902 229.463C570.703 229.05 570.603 228.57 570.603 228.022C570.603 227.475 570.703 226.992 570.902 226.575C571.104 226.155 571.385 225.828 571.744 225.593C572.106 225.357 572.528 225.238 573.011 225.238C573.289 225.238 573.564 225.285 573.836 225.377C574.107 225.47 574.354 225.621 574.577 225.83C574.8 226.036 574.977 226.31 575.11 226.651C575.242 226.992 575.308 227.412 575.308 227.911V228.259H571.187V227.549H574.473C574.473 227.247 574.412 226.978 574.292 226.742C574.173 226.505 574.004 226.318 573.784 226.181C573.566 226.044 573.308 225.976 573.011 225.976C572.684 225.976 572.401 226.057 572.162 226.22C571.925 226.38 571.743 226.588 571.616 226.846C571.488 227.104 571.424 227.38 571.424 227.674V228.148C571.424 228.551 571.494 228.893 571.633 229.174C571.774 229.453 571.97 229.665 572.221 229.811C572.472 229.955 572.763 230.027 573.095 230.027C573.31 230.027 573.505 229.997 573.679 229.936C573.856 229.874 574.008 229.781 574.135 229.658C574.263 229.533 574.361 229.377 574.431 229.192L575.224 229.414C575.141 229.683 575 229.92 574.803 230.124C574.606 230.326 574.362 230.484 574.072 230.598C573.782 230.709 573.456 230.765 573.095 230.765ZM578.882 225.308V226.004H576.112V225.308H578.882ZM576.919 224.027H577.741V229.122C577.741 229.354 577.774 229.528 577.841 229.644C577.911 229.758 577.999 229.834 578.106 229.874C578.215 229.911 578.33 229.929 578.45 229.929C578.541 229.929 578.615 229.925 578.673 229.915C578.731 229.904 578.778 229.895 578.812 229.888L578.979 230.625C578.924 230.646 578.846 230.667 578.746 230.688C578.646 230.711 578.52 230.723 578.367 230.723C578.135 230.723 577.908 230.673 577.685 230.573C577.464 230.473 577.281 230.321 577.135 230.117C576.991 229.913 576.919 229.656 576.919 229.345V224.027Z" fill="#D4D4D4"/>
<defs>
<clipPath id="clip0_8_101">
<rect width="340.333" height="20" fill="white" transform="translate(49 16.1667)"/>
</clipPath>
<clipPath id="clip1_8_101">
<rect width="556.667" height="16" fill="white" transform="translate(29.6667 100.33)"/>
</clipPath>
<clipPath id="clip2_8_101">
<rect width="556.667" height="16" fill="white" transform="translate(29.6667 169.99)"/>
</clipPath>
</defs>
</svg>
