<svg width="672" height="281" viewBox="0 0 672 281" fill="none" xmlns="http://www.w3.org/2000/svg">
<rect x="0.5" y="0.5" width="671" height="279.657" rx="11.5" stroke="white" stroke-opacity="0.2"/>
<rect x="8.33008" y="8.32996" width="656.687" height="263.987" rx="12" fill="#171717"/>
<rect x="8.83008" y="8.82996" width="655.687" height="262.987" rx="11.5" stroke="white" stroke-opacity="0.05"/>
<rect x="21.3301" y="22.4966" width="24" height="24" rx="6" fill="white" fill-opacity="0.05"/>
<rect x="21.8301" y="22.9966" width="23" height="23" rx="5.5" stroke="white" stroke-opacity="0.1"/>
<path d="M31.2059 28.617L33.288 32.0793H33.3618L35.4531 28.617H37.4059L34.4929 33.3443L37.452 38.0715H35.4669L33.3618 34.6323H33.288L31.1828 38.0715H29.207L32.1938 33.3443L29.2439 28.617H31.2059Z" fill="#A1A1A1"/>
<path d="M58.3928 39.4966V29.8239H61.935C62.6214 29.8239 63.1898 29.9372 63.64 30.1639C64.0903 30.3875 64.4272 30.6913 64.6507 31.0755C64.8743 31.4564 64.9861 31.8862 64.9861 32.3648C64.9861 32.7679 64.9121 33.1079 64.7641 33.385C64.6161 33.6589 64.4177 33.8793 64.169 34.0462C63.9234 34.21 63.6526 34.3296 63.3566 34.4052V34.4996C63.6778 34.5154 63.9911 34.6193 64.2965 34.8114C64.6051 35.0003 64.8601 35.2695 65.0616 35.619C65.2632 35.9685 65.3639 36.3936 65.3639 36.8942C65.3639 37.3885 65.2474 37.8325 65.0144 38.2261C64.7846 38.6165 64.4288 38.9267 63.947 39.1565C63.4653 39.3832 62.8497 39.4966 62.1003 39.4966H58.3928ZM59.8522 38.245H61.9586C62.6576 38.245 63.1583 38.1096 63.4605 37.8388C63.7628 37.568 63.914 37.2295 63.914 36.8234C63.914 36.5179 63.8368 36.2377 63.6825 35.9827C63.5282 35.7276 63.3078 35.5245 63.0213 35.3734C62.7379 35.2223 62.401 35.1467 62.0106 35.1467H59.8522V38.245ZM59.8522 34.0084H61.8075C62.135 34.0084 62.4294 33.9455 62.6907 33.8195C62.9552 33.6936 63.1646 33.5172 63.3189 33.2905C63.4763 33.0607 63.555 32.7899 63.555 32.4782C63.555 32.0783 63.4149 31.743 63.1347 31.4722C62.8544 31.2014 62.4246 31.066 61.8453 31.066H59.8522V34.0084ZM69.0927 39.6572C68.633 39.6572 68.2174 39.5722 67.8459 39.4021C67.4743 39.2289 67.1799 38.9786 66.9627 38.6512C66.7485 38.3237 66.6415 37.9222 66.6415 37.4468C66.6415 37.0375 66.7202 36.7006 66.8776 36.4361C67.0351 36.1716 67.2476 35.9622 67.5153 35.8079C67.7829 35.6536 68.082 35.5371 68.4126 35.4584C68.7432 35.3797 69.0801 35.3199 69.4233 35.2789C69.8579 35.2286 70.2105 35.1876 70.4813 35.1561C70.7521 35.1215 70.9489 35.0664 71.0717 34.9908C71.1945 34.9153 71.2559 34.7925 71.2559 34.6224V34.5894C71.2559 34.1769 71.1394 33.8573 70.9064 33.6306C70.6765 33.4039 70.3333 33.2905 69.8768 33.2905C69.4013 33.2905 69.0266 33.396 68.7527 33.607C68.4819 33.8148 68.2945 34.0462 68.1906 34.3013L66.8635 33.999C67.0209 33.5582 67.2508 33.2024 67.553 32.9316C67.8585 32.6577 68.2095 32.4593 68.6063 32.3365C69.003 32.2105 69.4202 32.1476 69.8579 32.1476C70.1475 32.1476 70.4545 32.1822 70.7789 32.2515C71.1063 32.3176 71.4117 32.4404 71.6951 32.6199C71.9816 32.7994 72.2162 33.056 72.3988 33.3897C72.5815 33.7203 72.6728 34.1501 72.6728 34.6791V39.4966H71.2937V38.5047H71.237C71.1457 38.6874 71.0087 38.8668 70.8261 39.0432C70.6435 39.2195 70.4089 39.3659 70.1224 39.4824C69.8358 39.5989 69.4926 39.6572 69.0927 39.6572ZM69.3997 38.5236C69.7902 38.5236 70.1239 38.4465 70.401 38.2922C70.6812 38.1379 70.8938 37.9364 71.0386 37.6877C71.1866 37.4358 71.2606 37.1666 71.2606 36.88V35.9449C71.2102 35.9953 71.1126 36.0425 70.9678 36.0866C70.8261 36.1275 70.6639 36.1637 70.4813 36.1952C70.2987 36.2235 70.1208 36.2503 69.9476 36.2755C69.7744 36.2975 69.6296 36.3164 69.5131 36.3322C69.2392 36.3668 68.9888 36.4251 68.7621 36.5069C68.5386 36.5888 68.3591 36.7069 68.2237 36.8611C68.0915 37.0123 68.0253 37.2138 68.0253 37.4657C68.0253 37.8152 68.1544 38.0797 68.4126 38.2592C68.6708 38.4355 68.9999 38.5236 69.3997 38.5236ZM77.5953 42.3682C77.0191 42.3682 76.5232 42.2926 76.1076 42.1415C75.6951 41.9903 75.3582 41.7904 75.0969 41.5416C74.8355 41.2929 74.6403 41.0205 74.5112 40.7246L75.725 40.2239C75.81 40.3625 75.9234 40.5089 76.0651 40.6632C76.2099 40.8206 76.4051 40.9544 76.6507 41.0646C76.8995 41.1748 77.2191 41.2299 77.6095 41.2299C78.1448 41.2299 78.5872 41.0993 78.9367 40.8379C79.2862 40.5797 79.4609 40.1672 79.4609 39.6005V38.1741H79.3712C79.2862 38.3284 79.1634 38.5 79.0028 38.6889C78.8454 38.8779 78.6281 39.0416 78.351 39.1801C78.0739 39.3187 77.7134 39.388 77.2695 39.388C76.6964 39.388 76.18 39.2541 75.7203 38.9865C75.2637 38.7157 74.9016 38.3174 74.634 37.7916C74.3695 37.2626 74.2373 36.6124 74.2373 35.841C74.2373 35.0695 74.3679 34.4083 74.6293 33.8573C74.8938 33.3063 75.2559 32.8844 75.7156 32.5915C76.1753 32.2956 76.6964 32.1476 77.2789 32.1476C77.7292 32.1476 78.0928 32.2231 78.3699 32.3743C78.647 32.5223 78.8627 32.6954 79.017 32.8938C79.1744 33.0922 79.2956 33.2669 79.3806 33.4181H79.4845V32.242H80.8684V39.6572C80.8684 40.2806 80.7235 40.7923 80.4339 41.1921C80.1442 41.592 79.7522 41.888 79.2578 42.0801C78.7666 42.2721 78.2125 42.3682 77.5953 42.3682ZM77.5812 38.2166C77.9873 38.2166 78.3306 38.1222 78.6108 37.9333C78.8942 37.7412 79.1083 37.4673 79.2531 37.1115C79.4011 36.7525 79.4751 36.3227 79.4751 35.8221C79.4751 35.334 79.4027 34.9042 79.2578 34.5327C79.113 34.1612 78.9005 33.8715 78.6202 33.6637C78.34 33.4527 77.9936 33.3472 77.5812 33.3472C77.1561 33.3472 76.8019 33.4574 76.5185 33.6778C76.2351 33.8951 76.021 34.1911 75.8762 34.5658C75.7345 34.9405 75.6636 35.3592 75.6636 35.8221C75.6636 36.2975 75.736 36.7147 75.8809 37.0737C76.0257 37.4326 76.2398 37.7129 76.5232 37.9144C76.8097 38.1159 77.1624 38.2166 77.5812 38.2166ZM78.6108 29.7861H79.7726C79.7726 30.3182 79.5837 30.7511 79.2059 31.0849C78.8312 31.4155 78.3243 31.5808 77.6851 31.5808C77.049 31.5808 76.5437 31.4155 76.169 31.0849C75.7943 30.7511 75.607 30.3182 75.607 29.7861H76.7641C76.7641 30.0222 76.8334 30.2316 76.9719 30.4142C77.1104 30.5937 77.3482 30.6834 77.6851 30.6834C78.0157 30.6834 78.2518 30.5937 78.3935 30.4142C78.5384 30.2348 78.6108 30.0254 78.6108 29.7861ZM84.1745 29.8239V39.4966H82.7623V29.8239H84.1745ZM88.1855 39.6572C87.7258 39.6572 87.3102 39.5722 86.9386 39.4021C86.5671 39.2289 86.2727 38.9786 86.0554 38.6512C85.8413 38.3237 85.7343 37.9222 85.7343 37.4468C85.7343 37.0375 85.813 36.7006 85.9704 36.4361C86.1279 36.1716 86.3404 35.9622 86.608 35.8079C86.8757 35.6536 87.1748 35.5371 87.5054 35.4584C87.836 35.3797 88.1729 35.3199 88.5161 35.2789C88.9506 35.2286 89.3033 35.1876 89.5741 35.1561C89.8449 35.1215 90.0417 35.0664 90.1645 34.9908C90.2873 34.9153 90.3487 34.7925 90.3487 34.6224V34.5894C90.3487 34.1769 90.2321 33.8573 89.9991 33.6306C89.7693 33.4039 89.4261 33.2905 88.9695 33.2905C88.4941 33.2905 88.1194 33.396 87.8455 33.607C87.5747 33.8148 87.3873 34.0462 87.2834 34.3013L85.9563 33.999C86.1137 33.5582 86.3435 33.2024 86.6458 32.9316C86.9512 32.6577 87.3023 32.4593 87.699 32.3365C88.0958 32.2105 88.513 32.1476 88.9506 32.1476C89.2403 32.1476 89.5473 32.1822 89.8716 32.2515C90.1991 32.3176 90.5045 32.4404 90.7879 32.6199C91.0744 32.7994 91.309 33.056 91.4916 33.3897C91.6742 33.7203 91.7656 34.1501 91.7656 34.6791V39.4966H90.3864V38.5047H90.3298C90.2384 38.6874 90.1015 38.8668 89.9189 39.0432C89.7362 39.2195 89.5017 39.3659 89.2151 39.4824C88.9286 39.5989 88.5854 39.6572 88.1855 39.6572ZM88.4925 38.5236C88.8829 38.5236 89.2167 38.4465 89.4938 38.2922C89.774 38.1379 89.9866 37.9364 90.1314 37.6877C90.2794 37.4358 90.3534 37.1666 90.3534 36.88V35.9449C90.303 35.9953 90.2054 36.0425 90.0605 36.0866C89.9189 36.1275 89.7567 36.1637 89.5741 36.1952C89.3915 36.2235 89.2136 36.2503 89.0404 36.2755C88.8672 36.2975 88.7224 36.3164 88.6059 36.3322C88.3319 36.3668 88.0816 36.4251 87.8549 36.5069C87.6313 36.5888 87.4519 36.7069 87.3165 36.8611C87.1842 37.0123 87.1181 37.2138 87.1181 37.4657C87.1181 37.8152 87.2472 38.0797 87.5054 38.2592C87.7636 38.4355 88.0926 38.5236 88.4925 38.5236ZM95.0587 35.1892V39.4966H93.6465V32.242H95.002V33.4228H95.0917C95.2586 33.0387 95.52 32.7301 95.8758 32.4971C96.2347 32.2641 96.6865 32.1476 97.2313 32.1476C97.7256 32.1476 98.1585 32.2515 98.5301 32.4593C98.9016 32.664 99.1897 32.9694 99.3944 33.3756C99.5991 33.7817 99.7014 34.284 99.7014 34.8822V39.4966H98.2892V35.0522C98.2892 34.5264 98.1522 34.1155 97.8783 33.8195C97.6044 33.5204 97.2281 33.3708 96.7495 33.3708C96.422 33.3708 96.1308 33.4417 95.8758 33.5834C95.6239 33.7251 95.4239 33.9329 95.2759 34.2068C95.1311 34.4776 95.0587 34.8051 95.0587 35.1892ZM104.982 32.242V33.3756H101.019V32.242H104.982ZM102.082 30.504H103.494V37.3665C103.494 37.6404 103.535 37.8467 103.617 37.9852C103.699 38.1206 103.804 38.2135 103.933 38.2639C104.065 38.3111 104.209 38.3347 104.363 38.3347C104.476 38.3347 104.576 38.3268 104.661 38.3111C104.746 38.2954 104.812 38.2828 104.859 38.2733L105.114 39.4399C105.032 39.4714 104.916 39.5029 104.764 39.5344C104.613 39.569 104.424 39.5879 104.198 39.591C103.826 39.5973 103.48 39.5312 103.159 39.3927C102.837 39.2541 102.578 39.04 102.379 38.7503C102.181 38.4607 102.082 38.097 102.082 37.6593V30.504ZM106.544 39.4966V32.242H107.956V39.4966H106.544Z" fill="#E5E5E5"/>
<g opacity="0.3">
<rect x="446.85" y="19.83" width="63.3333" height="29.3333" rx="7.5" fill="white" fill-opacity="0.03"/>
<rect x="446.85" y="19.83" width="63.3333" height="29.3333" rx="7.5" stroke="#525252"/>
<path d="M458.267 29.6216V36.1216" stroke="#737373" stroke-width="1.08333" stroke-linecap="round" stroke-linejoin="round"/>
<path d="M464.767 32.8716C465.664 32.8716 466.392 32.144 466.392 31.2466C466.392 30.3491 465.664 29.6216 464.767 29.6216C463.869 29.6216 463.142 30.3491 463.142 31.2466C463.142 32.144 463.869 32.8716 464.767 32.8716Z" stroke="#737373" stroke-width="1.08333" stroke-linecap="round" stroke-linejoin="round"/>
<path d="M458.267 39.3716C459.164 39.3716 459.892 38.644 459.892 37.7466C459.892 36.8491 459.164 36.1216 458.267 36.1216C457.369 36.1216 456.642 36.8491 456.642 37.7466C456.642 38.644 457.369 39.3716 458.267 39.3716Z" stroke="#737373" stroke-width="1.08333" stroke-linecap="round" stroke-linejoin="round"/>
<path d="M464.767 32.8716C464.767 34.1645 464.253 35.4045 463.339 36.3187C462.425 37.233 461.185 37.7466 459.892 37.7466" stroke="#737373" stroke-width="1.08333" stroke-linecap="round" stroke-linejoin="round"/>
<path d="M475.172 37.9966V30.3602H476.324V34.0069H476.417L479.62 30.3602H481.071L477.991 33.7981L481.082 37.9966H479.695L477.226 34.5848L476.324 35.6214V37.9966H475.172ZM484.047 38.1122C483.51 38.1122 483.042 37.9891 482.641 37.743C482.241 37.4969 481.931 37.1527 481.709 36.7102C481.488 36.2677 481.377 35.7507 481.377 35.159C481.377 34.5649 481.488 34.0454 481.709 33.6005C481.931 33.1555 482.241 32.81 482.641 32.5639C483.042 32.3178 483.51 32.1947 484.047 32.1947C484.584 32.1947 485.053 32.3178 485.453 32.5639C485.853 32.81 486.164 33.1555 486.385 33.6005C486.606 34.0454 486.717 34.5649 486.717 35.159C486.717 35.7507 486.606 36.2677 486.385 36.7102C486.164 37.1527 485.853 37.4969 485.453 37.743C485.053 37.9891 484.584 38.1122 484.047 38.1122ZM484.051 37.1763C484.399 37.1763 484.687 37.0843 484.916 36.9003C485.145 36.7164 485.314 36.4715 485.423 36.1658C485.535 35.86 485.591 35.5232 485.591 35.1553C485.591 34.7899 485.535 34.4543 485.423 34.1486C485.314 33.8403 485.145 33.593 484.916 33.4066C484.687 33.2201 484.399 33.1269 484.051 33.1269C483.7 33.1269 483.41 33.2201 483.178 33.4066C482.95 33.593 482.779 33.8403 482.668 34.1486C482.558 34.4543 482.504 34.7899 482.504 35.1553C482.504 35.5232 482.558 35.86 482.668 36.1658C482.779 36.4715 482.95 36.7164 483.178 36.9003C483.41 37.0843 483.7 37.1763 484.051 37.1763ZM492.253 33.6676L491.243 33.8465C491.2 33.7173 491.133 33.5942 491.041 33.4774C490.952 33.3606 490.83 33.2649 490.676 33.1903C490.522 33.1157 490.329 33.0784 490.098 33.0784C489.782 33.0784 489.519 33.1493 489.307 33.291C489.096 33.4302 488.991 33.6104 488.991 33.8316C488.991 34.023 489.061 34.1772 489.203 34.294C489.345 34.4108 489.573 34.5065 489.889 34.5811L490.799 34.7899C491.326 34.9117 491.719 35.0994 491.977 35.3529C492.236 35.6065 492.365 35.9359 492.365 36.341C492.365 36.6841 492.266 36.9898 492.067 37.2583C491.87 37.5243 491.596 37.7331 491.243 37.8847C490.892 38.0364 490.486 38.1122 490.023 38.1122C489.382 38.1122 488.859 37.9755 488.454 37.702C488.048 37.4261 487.8 37.0346 487.708 36.5275L488.785 36.3634C488.853 36.6443 488.991 36.8568 489.199 37.001C489.408 37.1427 489.68 37.2136 490.016 37.2136C490.381 37.2136 490.673 37.1377 490.892 36.9861C491.111 36.832 491.22 36.6443 491.22 36.4231C491.22 36.2441 491.153 36.0937 491.019 35.9719C490.887 35.8501 490.685 35.7581 490.411 35.696L489.442 35.4834C488.907 35.3616 488.512 35.1677 488.256 34.9018C488.002 34.6358 487.876 34.299 487.876 33.8913C487.876 33.5532 487.97 33.2574 488.159 33.0039C488.348 32.7503 488.609 32.5527 488.942 32.411C489.275 32.2668 489.657 32.1947 490.087 32.1947C490.706 32.1947 491.193 32.329 491.548 32.5974C491.904 32.8634 492.139 33.2201 492.253 33.6676ZM489.688 37.9668H490.419L490.359 38.2725C490.575 38.3073 490.764 38.3943 490.926 38.5335C491.087 38.6727 491.168 38.8828 491.168 39.1637C491.171 39.4992 491.025 39.7714 490.732 39.9802C490.441 40.1891 490.02 40.2935 489.468 40.2935L489.445 39.6708C489.704 39.6708 489.913 39.6335 490.072 39.5589C490.233 39.4843 490.315 39.3638 490.318 39.1972C490.32 39.0307 490.258 38.9138 490.131 38.8467C490.007 38.7796 489.808 38.7324 489.535 38.705L489.688 37.9668ZM497.219 35.6214V32.2693H498.337V37.9966H497.241V37.0047H497.182C497.05 37.3105 496.838 37.5653 496.548 37.7691C496.259 37.9705 495.9 38.0712 495.47 38.0712C495.102 38.0712 494.777 37.9904 494.493 37.8288C494.212 37.6647 493.991 37.4224 493.829 37.1017C493.67 36.781 493.591 36.3845 493.591 35.9122V32.2693H494.706V35.778C494.706 36.1683 494.814 36.479 495.03 36.7102C495.246 36.9414 495.527 37.057 495.873 37.057C496.082 37.057 496.289 37.0047 496.495 36.9003C496.704 36.7959 496.877 36.6381 497.014 36.4268C497.153 36.2155 497.221 35.947 497.219 35.6214ZM500.95 30.3602V37.9966H499.835V30.3602H500.95Z" fill="#737373"/>
</g>
<rect x="518.683" y="24.4966" width="1" height="20" fill="white" fill-opacity="0.1"/>
<rect x="527.683" y="19.33" width="124.333" height="30.3333" rx="8" fill="white" fill-opacity="0.05"/>
<rect x="528.183" y="19.83" width="123.333" height="29.3333" rx="7.5" stroke="white" stroke-opacity="0.15"/>
<rect x="530.35" y="21.9966" width="65" height="25" rx="8" fill="white" fill-opacity="0.1"/>
<path d="M546.033 34.2511C546.033 35.0412 545.89 35.7239 545.605 36.2994C545.319 36.8749 544.928 37.3187 544.431 37.6308C543.933 37.9429 543.365 38.099 542.726 38.099C542.087 38.099 541.519 37.9429 541.022 37.6308C540.524 37.3187 540.133 36.8749 539.847 36.2994C539.562 35.7239 539.42 35.0412 539.42 34.2511C539.42 33.4611 539.562 32.7783 539.847 32.2028C540.133 31.6274 540.524 31.1836 541.022 30.8714C541.519 30.5593 542.087 30.4033 542.726 30.4033C543.365 30.4033 543.933 30.5593 544.431 30.8714C544.928 31.1836 545.319 31.6274 545.605 32.2028C545.89 32.7783 546.033 33.4611 546.033 34.2511ZM545.155 34.2511C545.155 33.6025 545.046 33.0551 544.829 32.6088C544.615 32.1626 544.323 31.8249 543.955 31.5957C543.589 31.3664 543.18 31.2518 542.726 31.2518C542.273 31.2518 541.862 31.3664 541.493 31.5957C541.128 31.8249 540.836 32.1626 540.619 32.6088C540.405 33.0551 540.297 33.6025 540.297 34.2511C540.297 34.8998 540.405 35.4472 540.619 35.8934C540.836 36.3397 541.128 36.6774 541.493 36.9066C541.862 37.1358 542.273 37.2504 542.726 37.2504C543.18 37.2504 543.589 37.1358 543.955 36.9066C544.323 36.6774 544.615 36.3397 544.829 35.8934C545.046 35.4472 545.155 34.8998 545.155 34.2511ZM547.441 40.1034V32.3784H548.275V33.2709H548.377C548.441 33.1733 548.528 33.049 548.641 32.8978C548.755 32.7442 548.918 32.6076 549.131 32.4881C549.345 32.3662 549.635 32.3052 550.001 32.3052C550.474 32.3052 550.891 32.4235 551.252 32.66C551.613 32.8966 551.895 33.2319 552.097 33.6659C552.299 34.0999 552.401 34.612 552.401 35.2021C552.401 35.7971 552.299 36.3128 552.097 36.7493C551.895 37.1834 551.614 37.5199 551.256 37.7588C550.897 37.9954 550.484 38.1136 550.016 38.1136C549.655 38.1136 549.366 38.0539 549.149 37.9344C548.932 37.8125 548.765 37.6747 548.648 37.5211C548.531 37.365 548.441 37.2358 548.377 37.1334H548.304V40.1034H547.441ZM548.289 35.1875C548.289 35.6118 548.352 35.9861 548.476 36.3104C548.6 36.6323 548.782 36.8847 549.021 37.0675C549.26 37.248 549.552 37.3382 549.899 37.3382C550.26 37.3382 550.561 37.2431 550.802 37.0529C551.046 36.8603 551.229 36.6018 551.351 36.2775C551.475 35.9507 551.537 35.5874 551.537 35.1875C551.537 34.7925 551.476 34.4364 551.354 34.1195C551.235 33.8 551.053 33.5476 550.81 33.3623C550.568 33.1746 550.265 33.0807 549.899 33.0807C549.548 33.0807 549.253 33.1697 549.014 33.3477C548.775 33.5233 548.594 33.7695 548.472 34.0865C548.35 34.4011 548.289 34.7681 548.289 35.1875ZM557.697 33.6366L556.921 33.8561C556.873 33.7269 556.801 33.6013 556.706 33.4794C556.613 33.355 556.486 33.2526 556.325 33.1721C556.164 33.0916 555.958 33.0514 555.707 33.0514C555.363 33.0514 555.077 33.1307 554.848 33.2892C554.621 33.4452 554.507 33.644 554.507 33.8854C554.507 34.0999 554.585 34.2694 554.741 34.3938C554.898 34.5181 555.141 34.6218 555.473 34.7047L556.307 34.9095C556.809 35.0314 557.184 35.218 557.43 35.4691C557.676 35.7179 557.799 36.0385 557.799 36.4311C557.799 36.753 557.707 37.0407 557.521 37.2943C557.338 37.5479 557.082 37.7479 556.753 37.8942C556.424 38.0405 556.041 38.1136 555.605 38.1136C555.032 38.1136 554.557 37.9893 554.182 37.7405C553.806 37.4918 553.569 37.1285 553.469 36.6506L554.288 36.4457C554.366 36.7481 554.514 36.9749 554.731 37.1261C554.95 37.2772 555.237 37.3528 555.59 37.3528C555.992 37.3528 556.312 37.2675 556.548 37.0968C556.787 36.9237 556.907 36.7164 556.907 36.475C556.907 36.2799 556.839 36.1165 556.702 35.9849C556.565 35.8507 556.356 35.7508 556.073 35.6849L555.137 35.4655C554.622 35.3436 554.244 35.1546 554.003 34.8985C553.764 34.6401 553.644 34.317 553.644 33.9293C553.644 33.6123 553.733 33.3318 553.911 33.088C554.092 32.8441 554.337 32.6527 554.646 32.5137C554.959 32.3747 555.312 32.3052 555.707 32.3052C556.263 32.3052 556.7 32.4272 557.017 32.671C557.336 32.9149 557.563 33.2367 557.697 33.6366ZM559.099 37.9966V32.3784H559.962V37.9966H559.099ZM559.538 31.442C559.369 31.442 559.224 31.3847 559.102 31.2701C558.983 31.1555 558.923 31.0177 558.923 30.8568C558.923 30.6959 558.983 30.5581 559.102 30.4435C559.224 30.3289 559.369 30.2716 559.538 30.2716C559.706 30.2716 559.85 30.3289 559.969 30.4435C560.091 30.5581 560.152 30.6959 560.152 30.8568C560.152 31.0177 560.091 31.1555 559.969 31.2701C559.85 31.3847 559.706 31.442 559.538 31.442ZM562.099 40.1034C561.953 40.1034 561.822 40.0912 561.708 40.0668C561.593 40.0449 561.514 40.0229 561.47 40.001L561.689 39.2402C561.899 39.2938 562.084 39.3133 562.245 39.2987C562.406 39.2841 562.549 39.2121 562.673 39.0829C562.8 38.9561 562.916 38.7501 563.021 38.4648L563.182 38.0258L561.104 32.3784H562.04L563.591 36.8554H563.65L565.201 32.3784H566.137L563.752 38.8159C563.645 39.1061 563.512 39.3463 563.353 39.5365C563.195 39.7291 563.011 39.8717 562.801 39.9644C562.594 40.0571 562.36 40.1034 562.099 40.1034ZM569.358 38.1136C568.85 38.1136 568.405 37.9929 568.023 37.7515C567.642 37.5101 567.345 37.1724 567.13 36.7383C566.918 36.3043 566.812 35.7971 566.812 35.2168C566.812 34.6315 566.918 34.1207 567.13 33.6842C567.345 33.2477 567.642 32.9088 568.023 32.6674C568.405 32.4259 568.85 32.3052 569.358 32.3052C569.865 32.3052 570.309 32.4259 570.689 32.6674C571.072 32.9088 571.369 33.2477 571.581 33.6842C571.796 34.1207 571.903 34.6315 571.903 35.2168C571.903 35.7971 571.796 36.3043 571.581 36.7383C571.369 37.1724 571.072 37.5101 570.689 37.7515C570.309 37.9929 569.865 38.1136 569.358 38.1136ZM569.358 37.3382C569.743 37.3382 570.06 37.2394 570.309 37.0419C570.557 36.8444 570.741 36.5847 570.861 36.2628C570.98 35.941 571.04 35.5923 571.04 35.2168C571.04 34.8412 570.98 34.4913 570.861 34.167C570.741 33.8427 570.557 33.5806 570.309 33.3806C570.06 33.1806 569.743 33.0807 569.358 33.0807C568.972 33.0807 568.655 33.1806 568.407 33.3806C568.158 33.5806 567.974 33.8427 567.854 34.167C567.735 34.4913 567.675 34.8412 567.675 35.2168C567.675 35.5923 567.735 35.941 567.854 36.2628C567.974 36.5847 568.158 36.8444 568.407 37.0419C568.655 37.2394 568.972 37.3382 569.358 37.3382ZM574.084 34.6169V37.9966H573.221V32.3784H574.055V33.2562H574.128C574.26 32.9709 574.46 32.7417 574.728 32.5686C574.996 32.393 575.342 32.3052 575.767 32.3052C576.147 32.3052 576.48 32.3833 576.765 32.5393C577.051 32.693 577.272 32.9271 577.431 33.2416C577.589 33.5537 577.669 33.9488 577.669 34.4267V37.9966H576.805V34.4852C576.805 34.0439 576.691 33.7 576.462 33.4538C576.232 33.205 575.918 33.0807 575.518 33.0807C575.242 33.0807 574.996 33.1404 574.779 33.2599C574.565 33.3794 574.395 33.5537 574.271 33.7829C574.146 34.0122 574.084 34.2901 574.084 34.6169ZM581.602 38.1136C581.06 38.1136 580.593 37.9941 580.201 37.7552C579.811 37.5138 579.509 37.1773 579.297 36.7457C579.088 36.3116 578.983 35.8069 578.983 35.2314C578.983 34.6559 579.088 34.1487 579.297 33.7098C579.509 33.2684 579.804 32.9246 580.182 32.6783C580.563 32.4296 581.007 32.3052 581.514 32.3052C581.806 32.3052 582.095 32.354 582.381 32.4516C582.666 32.5491 582.926 32.7076 583.16 32.9271C583.394 33.1441 583.58 33.4318 583.719 33.7903C583.858 34.1487 583.928 34.5901 583.928 35.1143V35.4801H579.597V34.7339H583.05C583.05 34.4169 582.987 34.1341 582.86 33.8854C582.735 33.6366 582.557 33.4403 582.326 33.2965C582.097 33.1526 581.826 33.0807 581.514 33.0807C581.17 33.0807 580.873 33.166 580.621 33.3367C580.373 33.505 580.181 33.7244 580.047 33.9951C579.913 34.2658 579.846 34.5559 579.846 34.8656V35.3631C579.846 35.7873 579.919 36.147 580.065 36.4421C580.214 36.7347 580.42 36.9578 580.684 37.1114C580.947 37.2626 581.253 37.3382 581.602 37.3382C581.828 37.3382 582.033 37.3065 582.216 37.2431C582.401 37.1773 582.561 37.0797 582.695 36.9505C582.829 36.8188 582.933 36.6554 583.006 36.4604L583.84 36.6945C583.752 36.9773 583.605 37.226 583.398 37.4406C583.19 37.6528 582.934 37.8186 582.629 37.9381C582.325 38.0551 581.982 38.1136 581.602 38.1136ZM586.104 30.5057V37.9966H585.241V30.5057H586.104Z" fill="#F5F5F5"/>
<path d="M604.236 37.9966V37.3254L608.353 31.1805H604.191V30.3602H609.456V31.0314L605.34 37.1763H609.501V37.9966H604.236ZM613.26 38.1159C612.742 38.1159 612.289 37.9929 611.899 37.7468C611.511 37.5007 611.208 37.1564 610.989 36.7139C610.773 36.2714 610.664 35.7544 610.664 35.1628C610.664 34.5662 610.773 34.0454 610.989 33.6005C611.208 33.1555 611.511 32.81 611.899 32.5639C612.289 32.3178 612.742 32.1947 613.26 32.1947C613.777 32.1947 614.229 32.3178 614.617 32.5639C615.007 32.81 615.31 33.1555 615.527 33.6005C615.745 34.0454 615.855 34.5662 615.855 35.1628C615.855 35.7544 615.745 36.2714 615.527 36.7139C615.31 37.1564 615.007 37.5007 614.617 37.7468C614.229 37.9929 613.777 38.1159 613.26 38.1159ZM613.26 37.3254C613.652 37.3254 613.975 37.2247 614.229 37.0234C614.483 36.822 614.67 36.5573 614.792 36.2292C614.914 35.9011 614.975 35.5456 614.975 35.1628C614.975 34.78 614.914 34.4233 614.792 34.0926C614.67 33.762 614.483 33.4948 614.229 33.291C613.975 33.0871 613.652 32.9852 613.26 32.9852C612.867 32.9852 612.544 33.0871 612.29 33.291C612.037 33.4948 611.849 33.762 611.727 34.0926C611.605 34.4233 611.544 34.78 611.544 35.1628C611.544 35.5456 611.605 35.9011 611.727 36.2292C611.849 36.5573 612.037 36.822 612.29 37.0234C612.544 37.2247 612.867 37.3254 613.26 37.3254ZM617.198 37.9966V32.2693H618.048V33.1344H618.108C618.212 32.851 618.401 32.621 618.675 32.4446C618.948 32.2681 619.256 32.1798 619.599 32.1798C619.664 32.1798 619.745 32.1811 619.842 32.1835C619.939 32.186 620.012 32.1898 620.062 32.1947V33.0896C620.032 33.0822 619.963 33.071 619.857 33.0561C619.752 33.0387 619.642 33.03 619.525 33.03C619.246 33.03 618.998 33.0884 618.779 33.2052C618.563 33.3196 618.391 33.4786 618.264 33.6825C618.14 33.8838 618.078 34.1138 618.078 34.3723V37.9966H617.198ZM624.714 35.655V32.2693H625.594V37.9966H624.714V37.0271H624.654C624.52 37.318 624.311 37.5653 624.028 37.7691C623.745 37.9705 623.387 38.0712 622.954 38.0712C622.596 38.0712 622.278 37.9929 622 37.8362C621.721 37.6772 621.502 37.4385 621.343 37.1203C621.184 36.7997 621.105 36.3957 621.105 35.9085V32.2693H621.985V35.8489C621.985 36.2665 622.102 36.5996 622.335 36.8481C622.571 37.0967 622.872 37.221 623.238 37.221C623.456 37.221 623.679 37.1651 623.905 37.0532C624.134 36.9414 624.325 36.7698 624.479 36.5387C624.636 36.3075 624.714 36.0129 624.714 35.655ZM628.086 34.5513V37.9966H627.206V32.2693H628.056V33.1642H628.131C628.265 32.8734 628.469 32.6397 628.742 32.4632C629.015 32.2842 629.368 32.1947 629.801 32.1947C630.189 32.1947 630.528 32.2743 630.819 32.4334C631.11 32.59 631.336 32.8286 631.498 33.1493C631.659 33.4675 631.74 33.8702 631.74 34.3574V37.9966H630.86V34.417C630.86 33.9671 630.743 33.6166 630.509 33.3655C630.276 33.112 629.955 32.9852 629.547 32.9852C629.267 32.9852 629.015 33.0461 628.794 33.1679C628.575 33.2897 628.403 33.4675 628.276 33.7011C628.149 33.9348 628.086 34.2182 628.086 34.5513ZM634.228 30.3602V37.9966H633.348V30.3602H634.228ZM639.449 35.655V32.2693H640.329V37.9966H639.449V37.0271H639.389C639.255 37.318 639.046 37.5653 638.763 37.7691C638.479 37.9705 638.122 38.0712 637.689 38.0712C637.331 38.0712 637.013 37.9929 636.734 37.8362C636.456 37.6772 636.237 37.4385 636.078 37.1203C635.919 36.7997 635.84 36.3957 635.84 35.9085V32.2693H636.72V35.8489C636.72 36.2665 636.836 36.5996 637.07 36.8481C637.306 37.0967 637.607 37.221 637.972 37.221C638.191 37.221 638.414 37.1651 638.64 37.0532C638.869 36.9414 639.06 36.7698 639.214 36.5387C639.371 36.3075 639.449 36.0129 639.449 35.655Z" fill="#D4D4D4"/>
<path d="M32.334 82.6996C32.2942 82.3466 32.1301 82.0732 31.8418 81.8793C31.5534 81.6829 31.1905 81.5848 30.753 81.5848C30.4398 81.5848 30.1689 81.6345 29.9402 81.7339C29.7115 81.8308 29.5337 81.9651 29.407 82.1366C29.2827 82.3056 29.2205 82.4983 29.2205 82.7145C29.2205 82.896 29.2628 83.0526 29.3473 83.1844C29.4343 83.3161 29.5474 83.4267 29.6866 83.5162C29.8283 83.6032 29.9799 83.6765 30.1415 83.7362C30.3031 83.7934 30.4585 83.8406 30.6076 83.8779L31.3533 84.0718C31.5969 84.1314 31.8468 84.2122 32.1028 84.3142C32.3588 84.4161 32.5962 84.5503 32.815 84.7169C33.0337 84.8834 33.2102 85.0897 33.3445 85.3358C33.4812 85.5819 33.5495 85.8765 33.5495 86.2195C33.5495 86.652 33.4377 87.0361 33.214 87.3717C32.9927 87.7073 32.6708 87.972 32.2482 88.1659C31.8281 88.3598 31.3198 88.4567 30.7232 88.4567C30.1515 88.4567 29.6568 88.366 29.2392 88.1845C28.8216 88.0031 28.4947 87.7458 28.2585 87.4127C28.0224 87.0771 27.8919 86.6794 27.867 86.2195H29.0229C29.0453 86.4954 29.1348 86.7254 29.2914 86.9093C29.4505 87.0908 29.6531 87.2263 29.8991 87.3158C30.1477 87.4028 30.4199 87.4463 30.7157 87.4463C31.0414 87.4463 31.331 87.3953 31.5845 87.2934C31.8406 87.189 32.0419 87.0448 32.1886 86.8609C32.3352 86.6744 32.4086 86.4569 32.4086 86.2083C32.4086 85.9821 32.3439 85.7969 32.2147 85.6528C32.0879 85.5086 31.9151 85.3893 31.6964 85.2948C31.4801 85.2003 31.2353 85.1171 30.9618 85.045L30.0595 84.7989C29.448 84.6323 28.9632 84.3875 28.6053 84.0643C28.2498 83.7412 28.0721 83.3136 28.0721 82.7817C28.0721 82.3417 28.1914 81.9576 28.43 81.6295C28.6687 81.3014 28.9918 81.0466 29.3995 80.8651C29.8072 80.6812 30.267 80.5892 30.7791 80.5892C31.2962 80.5892 31.7523 80.6799 32.1475 80.8614C32.5453 81.0428 32.8585 81.2927 33.0872 81.6109C33.3159 81.9265 33.4352 82.2895 33.4451 82.6996H32.334ZM41.8347 84.5118C41.8347 85.3271 41.6856 86.0281 41.3873 86.6148C41.089 87.1989 40.6801 87.6488 40.1605 87.9645C39.6435 88.2778 39.0556 88.4344 38.3968 88.4344C37.7356 88.4344 37.1453 88.2778 36.6257 87.9645C36.1087 87.6488 35.701 87.1977 35.4027 86.611C35.1044 86.0244 34.9553 85.3246 34.9553 84.5118C34.9553 83.6964 35.1044 82.9967 35.4027 82.4125C35.701 81.8259 36.1087 81.3759 36.6257 81.0627C37.1453 80.747 37.7356 80.5892 38.3968 80.5892C39.0556 80.5892 39.6435 80.747 40.1605 81.0627C40.6801 81.3759 41.089 81.8259 41.3873 82.4125C41.6856 82.9967 41.8347 83.6964 41.8347 84.5118ZM40.6937 84.5118C40.6937 83.8903 40.593 83.3671 40.3917 82.942C40.1928 82.5144 39.9194 82.1913 39.5714 81.9725C39.2259 81.7513 38.8343 81.6407 38.3968 81.6407C37.9569 81.6407 37.5641 81.7513 37.2186 81.9725C36.8731 82.1913 36.5996 82.5144 36.3983 82.942C36.1994 83.3671 36.1 83.8903 36.1 84.5118C36.1 85.1332 36.1994 85.6577 36.3983 86.0853C36.5996 86.5104 36.8731 86.8335 37.2186 87.0547C37.5641 87.2735 37.9569 87.3829 38.3968 87.3829C38.8343 87.3829 39.2259 87.2735 39.5714 87.0547C39.9194 86.8335 40.1928 86.5104 40.3917 86.0853C40.593 85.6577 40.6937 85.1332 40.6937 84.5118ZM43.5462 88.33V80.6936H46.2681C46.8597 80.6936 47.3507 80.7955 47.741 80.9993C48.1337 81.2032 48.427 81.4853 48.6209 81.8458C48.8148 82.2037 48.9118 82.6176 48.9118 83.0874C48.9118 83.5547 48.8136 83.9661 48.6172 84.3216C48.4233 84.6746 48.13 84.9493 47.7372 85.1457C47.347 85.342 46.856 85.4402 46.2644 85.4402H44.2024V84.4484H46.16C46.5329 84.4484 46.8361 84.3949 47.0698 84.2881C47.3059 84.1812 47.4787 84.0258 47.5881 83.822C47.6975 83.6181 47.7521 83.3733 47.7521 83.0874C47.7521 82.7991 47.6962 82.5492 47.5844 82.3379C47.475 82.1267 47.3022 81.9651 47.0661 81.8532C46.8324 81.7389 46.5254 81.6817 46.1451 81.6817H44.6983V88.33H43.5462ZM47.3159 84.8846L49.2026 88.33H47.8901L46.0407 84.8846H47.3159ZM55.4995 80.6936H56.6553V85.7161C56.6553 86.2506 56.5298 86.7241 56.2787 87.1368C56.0277 87.5469 55.6747 87.8701 55.2198 88.1062C54.7649 88.3399 54.2317 88.4567 53.6202 88.4567C53.0112 88.4567 52.4792 88.3399 52.0243 88.1062C51.5694 87.8701 51.2164 87.5469 50.9654 87.1368C50.7143 86.7241 50.5888 86.2506 50.5888 85.7161V80.6936H51.7409V85.6229C51.7409 85.9685 51.8167 86.2754 51.9684 86.5439C52.1225 86.8124 52.34 87.0237 52.6209 87.1778C52.9018 87.3294 53.2349 87.4052 53.6202 87.4052C54.008 87.4052 54.3423 87.3294 54.6232 87.1778C54.9066 87.0237 55.1229 86.8124 55.272 86.5439C55.4236 86.2754 55.4995 85.9685 55.4995 85.6229V80.6936ZM61.6593 80.6936H63.0575L65.4886 86.6297H65.5781L68.0092 80.6936H69.4075V88.33H68.3113V82.804H68.2404L65.9883 88.3188H65.0785L62.8263 82.8003H62.7555V88.33H61.6593V80.6936ZM71.3576 88.33V80.6936H76.1453V81.6854H72.5098V84.0121H75.8954V85.0002H72.5098V87.3381H76.19V88.33H71.3576ZM77.5827 81.6854V80.6936H83.4926V81.6854H81.11V88.33H79.9616V81.6854H77.5827ZM91.2372 80.6936V88.33H90.1782L86.2966 82.7295H86.2258V88.33H85.0736V80.6936H86.14L90.0253 86.3015H90.0962V80.6936H91.2372ZM94.345 80.6936V88.33H93.1929V80.6936H94.345Z" fill="#A1A1A1"/>
<rect x="25.3301" y="99.33" width="621.33" height="34.66" rx="8" fill="#171717" fill-opacity="0.6"/>
<rect x="25.8301" y="99.83" width="620.33" height="33.66" rx="7.5" stroke="white" stroke-opacity="0.1"/>
<path d="M44.2636 114.624C44.2086 114.159 43.9857 113.799 43.5948 113.542C43.2039 113.286 42.7244 113.158 42.1563 113.158C41.741 113.158 41.3776 113.225 41.0661 113.359C40.7576 113.494 40.5164 113.678 40.3423 113.913C40.1713 114.149 40.0857 114.416 40.0857 114.715C40.0857 114.966 40.1453 115.181 40.2644 115.361C40.3866 115.538 40.5423 115.686 40.7317 115.805C40.921 115.921 41.1195 116.018 41.3272 116.094C41.5349 116.167 41.7257 116.227 41.8998 116.273L42.8527 116.529C43.097 116.593 43.3688 116.682 43.6681 116.795C43.9704 116.908 44.259 117.062 44.5339 117.258C44.8118 117.45 45.0408 117.697 45.221 118C45.4012 118.302 45.4913 118.673 45.4913 119.113C45.4913 119.62 45.3584 120.078 45.0927 120.487C44.8301 120.896 44.4453 121.222 43.9383 121.463C43.4344 121.704 42.8221 121.825 42.1014 121.825C41.4295 121.825 40.8477 121.716 40.356 121.5C39.8674 121.283 39.4826 120.98 39.2016 120.593C38.9237 120.205 38.7664 119.754 38.7298 119.241H39.9025C39.933 119.595 40.0522 119.889 40.2598 120.121C40.4705 120.35 40.7362 120.521 41.0569 120.634C41.3806 120.744 41.7288 120.799 42.1014 120.799C42.535 120.799 42.9244 120.728 43.2695 120.588C43.6146 120.444 43.8879 120.246 44.0895 119.992C44.2911 119.736 44.3919 119.437 44.3919 119.095C44.3919 118.783 44.3048 118.53 44.1307 118.334C43.9567 118.139 43.7276 117.98 43.4436 117.858C43.1596 117.736 42.8527 117.629 42.5228 117.537L41.3684 117.207C40.6355 116.996 40.0552 116.696 39.6276 116.305C39.2001 115.914 38.9863 115.402 38.9863 114.77C38.9863 114.245 39.1283 113.787 39.4123 113.396C39.6994 113.002 40.0842 112.696 40.5667 112.48C41.0523 112.26 41.5944 112.15 42.193 112.15C42.7977 112.15 43.3352 112.258 43.8055 112.475C44.2758 112.689 44.6484 112.982 44.9232 113.355C45.2012 113.727 45.3477 114.15 45.363 114.624H44.2636ZM50.0711 121.807C49.4359 121.807 48.8785 121.655 48.3991 121.353C47.9226 121.051 47.55 120.628 47.2813 120.084C47.0156 119.54 46.8828 118.905 46.8828 118.178C46.8828 117.445 47.0156 116.806 47.2813 116.259C47.55 115.712 47.9226 115.288 48.3991 114.985C48.8785 114.683 49.4359 114.532 50.0711 114.532C50.7063 114.532 51.2622 114.683 51.7386 114.985C52.2181 115.288 52.5906 115.712 52.8563 116.259C53.1251 116.806 53.2595 117.445 53.2595 118.178C53.2595 118.905 53.1251 119.54 52.8563 120.084C52.5906 120.628 52.2181 121.051 51.7386 121.353C51.2622 121.655 50.7063 121.807 50.0711 121.807ZM50.0711 120.835C50.5536 120.835 50.9507 120.712 51.2622 120.464C51.5737 120.217 51.8042 119.892 51.9539 119.489C52.1035 119.085 52.1784 118.649 52.1784 118.178C52.1784 117.708 52.1035 117.27 51.9539 116.864C51.8042 116.457 51.5737 116.129 51.2622 115.879C50.9507 115.628 50.5536 115.503 50.0711 115.503C49.5886 115.503 49.1916 115.628 48.8801 115.879C48.5686 116.129 48.338 116.457 48.1883 116.864C48.0387 117.27 47.9639 117.708 47.9639 118.178C47.9639 118.649 48.0387 119.085 48.1883 119.489C48.338 119.892 48.5686 120.217 48.8801 120.464C49.1916 120.712 49.5886 120.835 50.0711 120.835ZM54.9098 121.66V114.624H55.9542V115.686H56.0275C56.1558 115.338 56.3879 115.056 56.7238 114.839C57.0598 114.622 57.4384 114.514 57.8599 114.514C57.9393 114.514 58.0386 114.515 58.1577 114.518C58.2768 114.521 58.3669 114.526 58.4279 114.532V115.631C58.3913 115.622 58.3073 115.608 58.176 115.59C58.0477 115.569 57.9118 115.558 57.7683 115.558C57.4262 115.558 57.1208 115.63 56.8521 115.773C56.5864 115.914 56.3757 116.109 56.2199 116.36C56.0672 116.607 55.9909 116.89 55.9909 117.207V121.66H54.9098ZM64.1438 118.783V114.624H65.2249V121.66H64.1438V120.469H64.0705C63.9056 120.826 63.6491 121.13 63.3009 121.38C62.9528 121.628 62.513 121.752 61.9816 121.752C61.5418 121.752 61.1509 121.655 60.8089 121.463C60.4668 121.267 60.1981 120.974 60.0026 120.583C59.8072 120.189 59.7095 119.693 59.7095 119.095V114.624H60.7906V119.021C60.7906 119.534 60.9341 119.944 61.2212 120.249C61.5113 120.554 61.8808 120.707 62.3298 120.707C62.5985 120.707 62.8719 120.638 63.1498 120.501C63.4307 120.363 63.6659 120.153 63.8552 119.869C64.0476 119.585 64.1438 119.223 64.1438 118.783ZM68.2862 117.427V121.66H67.2051V114.624H68.2495V115.723H68.3411C68.5061 115.366 68.7565 115.079 69.0924 114.862C69.4284 114.642 69.862 114.532 70.3934 114.532C70.8698 114.532 71.2867 114.63 71.644 114.825C72.0013 115.018 72.2792 115.311 72.4778 115.705C72.6763 116.096 72.7755 116.59 72.7755 117.189V121.66H71.6944V117.262C71.6944 116.709 71.5509 116.279 71.2638 115.97C70.9767 115.659 70.5828 115.503 70.0819 115.503C69.7368 115.503 69.4284 115.578 69.1566 115.728C68.8878 115.877 68.6756 116.096 68.5198 116.383C68.364 116.67 68.2862 117.018 68.2862 117.427ZM79.1854 118.783V114.624H80.2665V121.66H79.1854V120.469H79.1121C78.9472 120.826 78.6907 121.13 78.3425 121.38C77.9944 121.628 77.5546 121.752 77.0232 121.752C76.5834 121.752 76.1925 121.655 75.8505 121.463C75.5084 121.267 75.2397 120.974 75.0442 120.583C74.8488 120.189 74.7511 119.693 74.7511 119.095V114.624H75.8322V119.021C75.8322 119.534 75.9757 119.944 76.2628 120.249C76.5529 120.554 76.9224 120.707 77.3714 120.707C77.6401 120.707 77.9135 120.638 78.1914 120.501C78.4723 120.363 78.7075 120.153 78.8968 119.869C79.0892 119.585 79.1854 119.223 79.1854 118.783ZM82.0451 121.66V120.835L86.0397 115.705V115.631H82.1734V114.624H87.4323V115.485L83.5477 120.579V120.652H87.5606V121.66H82.0451ZM93.6601 118.783V114.624H94.7413V121.66H93.6601V120.469H93.5868C93.4219 120.826 93.1654 121.13 92.8172 121.38C92.4691 121.628 92.0293 121.752 91.4979 121.752C91.0582 121.752 90.6672 121.655 90.3252 121.463C89.9832 121.267 89.7144 120.974 89.5189 120.583C89.3235 120.189 89.2258 119.693 89.2258 119.095V114.624H90.3069V119.021C90.3069 119.534 90.4504 119.944 90.7375 120.249C91.0276 120.554 91.3971 120.707 91.8461 120.707C92.1148 120.707 92.3882 120.638 92.6661 120.501C92.947 120.363 93.1822 120.153 93.3715 119.869C93.5639 119.585 93.6601 119.223 93.6601 118.783ZM100.496 121.66V112.278H101.577V115.741H101.669C101.748 115.619 101.858 115.463 101.999 115.274C102.142 115.082 102.347 114.911 102.612 114.761C102.881 114.608 103.245 114.532 103.703 114.532C104.295 114.532 104.817 114.68 105.269 114.976C105.721 115.273 106.074 115.692 106.328 116.236C106.581 116.78 106.708 117.421 106.708 118.16C106.708 118.905 106.581 119.551 106.328 120.098C106.074 120.641 105.723 121.063 105.274 121.362C104.825 121.658 104.307 121.807 103.721 121.807C103.269 121.807 102.907 121.732 102.635 121.582C102.364 121.429 102.154 121.257 102.008 121.064C101.861 120.869 101.748 120.707 101.669 120.579H101.541V121.66H100.496ZM101.559 118.142C101.559 118.673 101.637 119.142 101.793 119.548C101.948 119.951 102.176 120.267 102.475 120.496C102.774 120.722 103.141 120.835 103.574 120.835C104.026 120.835 104.404 120.716 104.706 120.478C105.011 120.237 105.24 119.913 105.393 119.507C105.549 119.098 105.627 118.643 105.627 118.142C105.627 117.647 105.55 117.201 105.398 116.804C105.248 116.404 105.021 116.088 104.715 115.856C104.413 115.621 104.033 115.503 103.574 115.503C103.135 115.503 102.765 115.615 102.466 115.838C102.167 116.057 101.941 116.366 101.788 116.763C101.635 117.157 101.559 117.616 101.559 118.142ZM112.796 118.783V114.624H113.877V121.66H112.796V120.469H112.723C112.558 120.826 112.301 121.13 111.953 121.38C111.605 121.628 111.165 121.752 110.634 121.752C110.194 121.752 109.803 121.655 109.461 121.463C109.119 121.267 108.85 120.974 108.655 120.583C108.459 120.189 108.362 119.693 108.362 119.095V114.624H109.443V119.021C109.443 119.534 109.586 119.944 109.873 120.249C110.163 120.554 110.533 120.707 110.982 120.707C111.251 120.707 111.524 120.638 111.802 120.501C112.083 120.363 112.318 120.153 112.507 119.869C112.7 119.585 112.796 119.223 112.796 118.783ZM115.857 121.66V114.624H116.902V115.686H116.975C117.103 115.338 117.335 115.056 117.671 114.839C118.007 114.622 118.386 114.514 118.807 114.514C118.887 114.514 118.986 114.515 119.105 114.518C119.224 114.521 119.314 114.526 119.375 114.532V115.631C119.339 115.622 119.255 115.608 119.123 115.59C118.995 115.569 118.859 115.558 118.716 115.558C118.374 115.558 118.068 115.63 117.8 115.773C117.534 115.914 117.323 116.109 117.167 116.36C117.015 116.607 116.938 116.89 116.938 117.207V121.66H115.857ZM122.728 121.825C122.282 121.825 121.877 121.741 121.514 121.573C121.15 121.402 120.862 121.156 120.648 120.835C120.434 120.512 120.327 120.121 120.327 119.663C120.327 119.259 120.406 118.933 120.565 118.682C120.724 118.429 120.936 118.23 121.202 118.087C121.468 117.943 121.761 117.836 122.082 117.766C122.405 117.693 122.731 117.635 123.057 117.592C123.485 117.537 123.832 117.496 124.097 117.468C124.366 117.438 124.561 117.387 124.684 117.317C124.809 117.247 124.871 117.125 124.871 116.951V116.914C124.871 116.462 124.748 116.111 124.5 115.86C124.256 115.61 123.885 115.485 123.387 115.485C122.871 115.485 122.466 115.598 122.173 115.824C121.88 116.05 121.674 116.291 121.555 116.548L120.529 116.181C120.712 115.754 120.956 115.421 121.262 115.182C121.57 114.941 121.906 114.773 122.269 114.679C122.636 114.581 122.996 114.532 123.351 114.532C123.577 114.532 123.836 114.559 124.129 114.614C124.426 114.666 124.711 114.775 124.986 114.94C125.264 115.105 125.494 115.353 125.678 115.686C125.861 116.019 125.953 116.465 125.953 117.024V121.66H124.871V120.707H124.816C124.743 120.86 124.621 121.023 124.45 121.197C124.279 121.371 124.051 121.519 123.767 121.642C123.483 121.764 123.137 121.825 122.728 121.825ZM122.892 120.854C123.32 120.854 123.68 120.77 123.974 120.602C124.27 120.434 124.493 120.217 124.642 119.951C124.795 119.686 124.871 119.406 124.871 119.113V118.123C124.826 118.178 124.725 118.229 124.569 118.275C124.416 118.317 124.239 118.356 124.038 118.389C123.839 118.42 123.645 118.447 123.456 118.472C123.27 118.493 123.118 118.511 123.002 118.527C122.721 118.563 122.459 118.623 122.214 118.705C121.973 118.785 121.778 118.905 121.628 119.067C121.481 119.226 121.408 119.443 121.408 119.718C121.408 120.093 121.547 120.377 121.825 120.57C122.106 120.759 122.462 120.854 122.892 120.854ZM128.37 124.299C128.187 124.299 128.023 124.283 127.88 124.253C127.736 124.225 127.637 124.198 127.582 124.17L127.857 123.217C128.12 123.285 128.352 123.309 128.553 123.291C128.755 123.272 128.934 123.182 129.089 123.02C129.248 122.862 129.393 122.604 129.525 122.246L129.726 121.697L127.124 114.624H128.297L130.239 120.231H130.312L132.255 114.624H133.428L130.441 122.686C130.306 123.049 130.14 123.35 129.941 123.588C129.743 123.83 129.512 124.008 129.25 124.124C128.99 124.241 128.697 124.299 128.37 124.299ZM136.711 121.825C136.265 121.825 135.86 121.741 135.497 121.573C135.134 121.402 134.845 121.156 134.631 120.835C134.417 120.512 134.31 120.121 134.31 119.663C134.31 119.259 134.39 118.933 134.549 118.682C134.708 118.429 134.92 118.23 135.185 118.087C135.451 117.943 135.744 117.836 136.065 117.766C136.389 117.693 136.714 117.635 137.041 117.592C137.468 117.537 137.815 117.496 138.081 117.468C138.349 117.438 138.545 117.387 138.667 117.317C138.792 117.247 138.855 117.125 138.855 116.951V116.914C138.855 116.462 138.731 116.111 138.484 115.86C138.239 115.61 137.868 115.485 137.371 115.485C136.854 115.485 136.45 115.598 136.157 115.824C135.863 116.05 135.657 116.291 135.538 116.548L134.512 116.181C134.695 115.754 134.94 115.421 135.245 115.182C135.553 114.941 135.889 114.773 136.253 114.679C136.619 114.581 136.98 114.532 137.334 114.532C137.56 114.532 137.82 114.559 138.113 114.614C138.409 114.666 138.694 114.775 138.969 114.94C139.247 115.105 139.478 115.353 139.661 115.686C139.844 116.019 139.936 116.465 139.936 117.024V121.66H138.855V120.707H138.8C138.727 120.86 138.604 121.023 138.433 121.197C138.262 121.371 138.035 121.519 137.751 121.642C137.467 121.764 137.12 121.825 136.711 121.825ZM136.876 120.854C137.303 120.854 137.664 120.77 137.957 120.602C138.253 120.434 138.476 120.217 138.626 119.951C138.778 119.686 138.855 119.406 138.855 119.113V118.123C138.809 118.178 138.708 118.229 138.552 118.275C138.4 118.317 138.223 118.356 138.021 118.389C137.823 118.42 137.629 118.447 137.439 118.472C137.253 118.493 137.102 118.511 136.986 118.527C136.705 118.563 136.442 118.623 136.198 118.705C135.957 118.785 135.761 118.905 135.611 119.067C135.465 119.226 135.392 119.443 135.392 119.718C135.392 120.093 135.531 120.377 135.808 120.57C136.089 120.759 136.445 120.854 136.876 120.854ZM146.234 124.299C146.05 124.299 145.887 124.283 145.743 124.253C145.6 124.225 145.501 124.198 145.446 124.17L145.721 123.217C145.983 123.285 146.215 123.309 146.417 123.291C146.618 123.272 146.797 123.182 146.953 123.02C147.112 122.862 147.257 122.604 147.388 122.246L147.59 121.697L144.988 114.624H146.16L148.103 120.231H148.176L150.118 114.624H151.291L148.304 122.686C148.17 123.049 148.003 123.35 147.805 123.588C147.606 123.83 147.376 124.008 147.113 124.124C146.854 124.241 146.56 124.299 146.234 124.299ZM154.574 121.825C154.129 121.825 153.724 121.741 153.36 121.573C152.997 121.402 152.708 121.156 152.495 120.835C152.281 120.512 152.174 120.121 152.174 119.663C152.174 119.259 152.253 118.933 152.412 118.682C152.571 118.429 152.783 118.23 153.049 118.087C153.315 117.943 153.608 117.836 153.928 117.766C154.252 117.693 154.577 117.635 154.904 117.592C155.332 117.537 155.678 117.496 155.944 117.468C156.213 117.438 156.408 117.387 156.53 117.317C156.656 117.247 156.718 117.125 156.718 116.951V116.914C156.718 116.462 156.595 116.111 156.347 115.86C156.103 115.61 155.732 115.485 155.234 115.485C154.718 115.485 154.313 115.598 154.02 115.824C153.727 116.05 153.521 116.291 153.402 116.548L152.376 116.181C152.559 115.754 152.803 115.421 153.108 115.182C153.417 114.941 153.753 114.773 154.116 114.679C154.483 114.581 154.843 114.532 155.197 114.532C155.423 114.532 155.683 114.559 155.976 114.614C156.272 114.666 156.558 114.775 156.833 114.94C157.111 115.105 157.341 115.353 157.525 115.686C157.708 116.019 157.799 116.465 157.799 117.024V121.66H156.718V120.707H156.663C156.59 120.86 156.468 121.023 156.297 121.197C156.126 121.371 155.898 121.519 155.614 121.642C155.33 121.764 154.984 121.825 154.574 121.825ZM154.739 120.854C155.167 120.854 155.527 120.77 155.82 120.602C156.117 120.434 156.34 120.217 156.489 119.951C156.642 119.686 156.718 119.406 156.718 119.113V118.123C156.672 118.178 156.572 118.229 156.416 118.275C156.263 118.317 156.086 118.356 155.885 118.389C155.686 118.42 155.492 118.447 155.303 118.472C155.116 118.493 154.965 118.511 154.849 118.527C154.568 118.563 154.306 118.623 154.061 118.705C153.82 118.785 153.625 118.905 153.475 119.067C153.328 119.226 153.255 119.443 153.255 119.718C153.255 120.093 153.394 120.377 153.672 120.57C153.953 120.759 154.309 120.854 154.739 120.854ZM159.571 121.66V120.835L163.566 115.705V115.631H159.699V114.624H164.958V115.485L161.074 120.579V120.652H165.087V121.66H159.571ZM166.752 121.66V114.624H167.833V121.66H166.752ZM170.894 117.427V121.66H169.813V114.624H170.857V115.723H170.949C171.114 115.366 171.364 115.079 171.7 114.862C172.036 114.642 172.47 114.532 173.001 114.532C173.478 114.532 173.895 114.63 174.252 114.825C174.609 115.018 174.887 115.311 175.086 115.705C175.284 116.096 175.383 116.59 175.383 117.189V121.66H174.302V117.262C174.302 116.709 174.159 116.279 173.872 115.97C173.585 115.659 173.191 115.503 172.69 115.503C172.345 115.503 172.036 115.578 171.764 115.728C171.496 115.877 171.283 116.096 171.128 116.383C170.972 116.67 170.894 117.018 170.894 117.427ZM178.147 121.733C177.921 121.733 177.727 121.652 177.565 121.49C177.403 121.329 177.322 121.135 177.322 120.909C177.322 120.683 177.403 120.489 177.565 120.327C177.727 120.165 177.921 120.084 178.147 120.084C178.373 120.084 178.567 120.165 178.729 120.327C178.891 120.489 178.971 120.683 178.971 120.909C178.971 121.058 178.933 121.196 178.857 121.321C178.784 121.446 178.684 121.547 178.559 121.623C178.437 121.697 178.3 121.733 178.147 121.733Z" fill="#737373"/>
<path d="M28.8141 157.99H27.5911L30.3391 150.354H31.6703L34.4183 157.99H33.1953L31.0364 151.741H30.9767L28.8141 157.99ZM29.0192 155H32.9865V155.969H29.0192V155ZM41.7797 152.837H40.6164C40.5716 152.588 40.4883 152.37 40.3665 152.181C40.2447 151.992 40.0956 151.831 39.9191 151.7C39.7426 151.568 39.545 151.469 39.3262 151.401C39.11 151.334 38.88 151.301 38.6364 151.301C38.1964 151.301 37.8024 151.411 37.4544 151.633C37.1089 151.854 36.8355 152.178 36.6341 152.606C36.4352 153.033 36.3358 153.555 36.3358 154.172C36.3358 154.793 36.4352 155.318 36.6341 155.745C36.8355 156.173 37.1101 156.496 37.4581 156.715C37.8062 156.934 38.1977 157.043 38.6327 157.043C38.8738 157.043 39.1025 157.011 39.3188 156.946C39.5375 156.879 39.7351 156.781 39.9116 156.651C40.0881 156.522 40.2373 156.364 40.3591 156.178C40.4834 155.989 40.5691 155.773 40.6164 155.529L41.7797 155.533C41.7176 155.908 41.597 156.254 41.418 156.569C41.2415 156.883 41.0141 157.154 40.7357 157.382C40.4597 157.608 40.1441 157.784 39.7886 157.908C39.4331 158.032 39.0453 158.094 38.6252 158.094C37.964 158.094 37.3749 157.938 36.8578 157.625C36.3408 157.309 35.9331 156.858 35.6348 156.271C35.339 155.684 35.1911 154.985 35.1911 154.172C35.1911 153.356 35.3403 152.657 35.6385 152.073C35.9368 151.486 36.3445 151.036 36.8616 150.723C37.3786 150.407 37.9665 150.249 38.6252 150.249C39.0304 150.249 39.4083 150.308 39.7588 150.424C40.1117 150.539 40.4287 150.708 40.7096 150.932C40.9905 151.153 41.2229 151.424 41.4068 151.744C41.5908 152.063 41.7151 152.427 41.7797 152.837ZM38.2337 158.001H38.9645L38.9049 158.307C39.1211 158.342 39.3101 158.429 39.4716 158.568C39.6332 158.707 39.714 158.917 39.714 159.198C39.7165 159.534 39.5711 159.806 39.2778 160.015C38.9869 160.223 38.5656 160.328 38.0137 160.328L37.9914 159.705C38.2499 159.705 38.4587 159.668 38.6178 159.593C38.7794 159.519 38.8614 159.398 38.8639 159.232C38.8664 159.065 38.8042 158.948 38.6774 158.881C38.5531 158.814 38.3543 158.767 38.0808 158.739L38.2337 158.001ZM44.5856 150.354V157.99H43.4334V150.354H44.5856ZM46.5385 157.99V150.354H47.6906V154H47.7839L50.9868 150.354H52.4373L49.3574 153.791L52.4484 157.99H51.0614L48.593 154.578L47.6906 155.615V157.99H46.5385ZM53.7861 157.99V150.354H54.9383V156.998H58.3985V157.99H53.7861ZM61.0226 157.99H59.7996L62.5476 150.354H63.8788L66.6268 157.99H65.4038L63.2449 151.741H63.1852L61.0226 157.99ZM61.2277 155H65.195V155.969H61.2277V155ZM68.0046 150.354H69.4028L71.834 156.29H71.9234L74.3545 150.354H75.7528V157.99H74.6566V152.464H74.5857L72.3336 157.979H71.4238L69.1717 152.46H69.1008V157.99H68.0046V150.354ZM78.348 157.99H77.125L79.873 150.354H81.2042L83.9522 157.99H82.7292L80.5703 151.741H80.5106L78.348 157.99ZM78.5531 155H82.5204V155.969H78.5531V155Z" fill="#A1A1A1"/>
<rect x="25.3301" y="168.99" width="621.33" height="34.66" rx="8" fill="#171717" fill-opacity="0.6"/>
<rect x="25.8301" y="169.49" width="620.33" height="33.66" rx="7.5" stroke="white" stroke-opacity="0.1"/>
<g clip-path="url(#clip0_1005_289)">
<path d="M39.5295 191.33H38.3292L41.8008 181.875H42.9826L46.4542 191.33H45.2539L42.4286 183.371H42.3548L39.5295 191.33ZM39.9727 187.637H44.8107V188.652H39.9727V187.637ZM50.6598 191.478C49.9951 191.478 49.4226 191.321 48.9425 191.007C48.4624 190.693 48.0931 190.26 47.8345 189.71C47.576 189.159 47.4468 188.529 47.4468 187.821C47.4468 187.101 47.5791 186.466 47.8438 185.915C48.1115 185.361 48.4839 184.928 48.961 184.618C49.4411 184.304 50.0012 184.147 50.6414 184.147C51.1399 184.147 51.5893 184.239 51.9894 184.424C52.3895 184.608 52.7172 184.867 52.9727 185.199C53.2281 185.532 53.3866 185.919 53.4482 186.363H52.3587C52.2756 186.039 52.0909 185.753 51.8047 185.504C51.5216 185.252 51.1399 185.125 50.6598 185.125C50.2351 185.125 49.8627 185.236 49.5426 185.458C49.2256 185.676 48.9779 185.986 48.7994 186.386C48.624 186.783 48.5362 187.249 48.5362 187.785C48.5362 188.332 48.6224 188.809 48.7948 189.216C48.9702 189.622 49.2164 189.937 49.5334 190.162C49.8535 190.387 50.229 190.499 50.6598 190.499C50.943 190.499 51.2 190.45 51.4308 190.351C51.6616 190.253 51.857 190.111 52.0171 189.927C52.1771 189.742 52.291 189.52 52.3587 189.262H53.4482C53.3866 189.68 53.2343 190.057 52.9911 190.393C52.7511 190.725 52.4326 190.99 52.0355 191.187C51.6416 191.381 51.183 191.478 50.6598 191.478ZM50.1428 191.293H51.0476L50.9737 191.662C51.2138 191.699 51.4339 191.799 51.6339 191.962C51.8339 192.129 51.934 192.392 51.934 192.752C51.934 193.149 51.7693 193.472 51.44 193.721C51.1138 193.974 50.6321 194.1 49.9951 194.1L49.9581 193.38C50.2443 193.38 50.4813 193.334 50.6691 193.241C50.8599 193.152 50.9553 193.001 50.9553 192.789C50.9553 192.576 50.8768 192.432 50.7198 192.355C50.5629 192.278 50.309 192.226 49.9581 192.198L50.1428 191.293ZM55.0409 191.33V184.239H56.1303V191.33H55.0409ZM59.1414 188.745L59.123 187.397H59.3446L62.4468 184.239H63.7949L60.4895 187.581H60.3971L59.1414 188.745ZM58.1258 191.33V181.875H59.2153V191.33H58.1258ZM62.6315 191.33L59.8616 187.821L60.6372 187.064L64.0164 191.33H62.6315ZM66.2866 181.875V191.33H65.1971V181.875H66.2866ZM70.3687 191.496C69.9194 191.496 69.5116 191.412 69.1454 191.242C68.7791 191.07 68.4883 190.822 68.2728 190.499C68.0574 190.173 67.9497 189.779 67.9497 189.317C67.9497 188.911 68.0297 188.582 68.1897 188.329C68.3498 188.074 68.5637 187.874 68.8314 187.729C69.0992 187.584 69.3946 187.477 69.7178 187.406C70.044 187.332 70.3718 187.274 70.7011 187.231C71.132 187.175 71.4813 187.134 71.749 187.106C72.0199 187.075 72.2168 187.024 72.34 186.954C72.4661 186.883 72.5292 186.76 72.5292 186.584V186.547C72.5292 186.092 72.4046 185.738 72.1553 185.485C71.9091 185.233 71.5351 185.107 71.0335 185.107C70.5134 185.107 70.1056 185.221 69.8101 185.449C69.5147 185.676 69.3069 185.919 69.1869 186.178L68.1528 185.809C68.3375 185.378 68.5837 185.042 68.8914 184.802C69.2023 184.559 69.5408 184.39 69.9071 184.294C70.2764 184.196 70.6396 184.147 70.9966 184.147C71.2243 184.147 71.4859 184.174 71.7814 184.23C72.0799 184.282 72.3677 184.391 72.6446 184.558C72.9247 184.724 73.1571 184.975 73.3417 185.31C73.5264 185.646 73.6187 186.095 73.6187 186.658V191.33H72.5292V190.37H72.4738C72.4 190.524 72.2769 190.688 72.1045 190.864C71.9322 191.039 71.7029 191.188 71.4167 191.311C71.1304 191.435 70.7811 191.496 70.3687 191.496ZM70.5349 190.517C70.9658 190.517 71.3289 190.433 71.6244 190.264C71.9229 190.094 72.1476 189.876 72.2984 189.608C72.4523 189.34 72.5292 189.059 72.5292 188.763V187.766C72.4831 187.821 72.3815 187.872 72.2245 187.918C72.0707 187.961 71.8922 188 71.689 188.034C71.489 188.065 71.2936 188.092 71.1027 188.117C70.915 188.138 70.7627 188.157 70.6457 188.172C70.3626 188.209 70.0979 188.269 69.8517 188.352C69.6085 188.432 69.4116 188.554 69.2608 188.717C69.113 188.877 69.0392 189.096 69.0392 189.373C69.0392 189.751 69.1792 190.037 69.4593 190.231C69.7424 190.422 70.101 190.517 70.5349 190.517ZM75.6073 191.33V184.239H76.6598V185.347H76.7522C76.8999 184.968 77.1384 184.675 77.4677 184.465C77.797 184.253 78.1925 184.147 78.6541 184.147C79.1219 184.147 79.5113 184.253 79.8221 184.465C80.136 184.675 80.3807 184.968 80.5561 185.347H80.63C80.8116 184.981 81.0839 184.69 81.4471 184.474C81.8103 184.256 82.2458 184.147 82.7536 184.147C83.3876 184.147 83.9062 184.345 84.3093 184.742C84.7125 185.136 84.9141 185.75 84.9141 186.584V191.33H83.8246V186.584C83.8246 186.061 83.6815 185.687 83.3953 185.462C83.109 185.238 82.772 185.125 82.3843 185.125C81.8857 185.125 81.4994 185.276 81.2255 185.578C80.9516 185.876 80.8147 186.255 80.8147 186.713V191.33H79.7067V186.473C79.7067 186.07 79.5759 185.746 79.3143 185.499C79.0527 185.25 78.7157 185.125 78.3033 185.125C78.0201 185.125 77.7555 185.201 77.5093 185.352C77.2661 185.502 77.0692 185.712 76.9183 185.979C76.7706 186.244 76.6968 186.55 76.6968 186.898V191.33H75.6073ZM88.9927 191.496C88.5434 191.496 88.1356 191.412 87.7694 191.242C87.4031 191.07 87.1123 190.822 86.8969 190.499C86.6814 190.173 86.5737 189.779 86.5737 189.317C86.5737 188.911 86.6537 188.582 86.8138 188.329C86.9738 188.074 87.1877 187.874 87.4555 187.729C87.7232 187.584 88.0187 187.477 88.3418 187.406C88.6681 187.332 88.9958 187.274 89.3251 187.231C89.756 187.175 90.1053 187.134 90.3731 187.106C90.6439 187.075 90.8409 187.024 90.964 186.954C91.0902 186.883 91.1533 186.76 91.1533 186.584V186.547C91.1533 186.092 91.0286 185.738 90.7793 185.485C90.5331 185.233 90.1592 185.107 89.6575 185.107C89.1374 185.107 88.7296 185.221 88.4341 185.449C88.1387 185.676 87.931 185.919 87.8109 186.178L86.7768 185.809C86.9615 185.378 87.2077 185.042 87.5155 184.802C87.8263 184.559 88.1649 184.39 88.5311 184.294C88.9004 184.196 89.2636 184.147 89.6206 184.147C89.8483 184.147 90.1099 184.174 90.4054 184.23C90.7039 184.282 90.9917 184.391 91.2687 184.558C91.5487 184.724 91.7811 184.975 91.9658 185.31C92.1504 185.646 92.2427 186.095 92.2427 186.658V191.33H91.1533V190.37H91.0979C91.024 190.524 90.9009 190.688 90.7285 190.864C90.5562 191.039 90.3269 191.188 90.0407 191.311C89.7545 191.435 89.4051 191.496 88.9927 191.496ZM89.1589 190.517C89.5898 190.517 89.953 190.433 90.2484 190.264C90.547 190.094 90.7716 189.876 90.9224 189.608C91.0763 189.34 91.1533 189.059 91.1533 188.763V187.766C91.1071 187.821 91.0055 187.872 90.8486 187.918C90.6947 187.961 90.5162 188 90.3131 188.034C90.113 188.065 89.9176 188.092 89.7268 188.117C89.539 188.138 89.3867 188.157 89.2697 188.172C88.9866 188.209 88.7219 188.269 88.4757 188.352C88.2326 188.432 88.0356 188.554 87.8848 188.717C87.7371 188.877 87.6632 189.096 87.6632 189.373C87.6632 189.751 87.8032 190.037 88.0833 190.231C88.3664 190.422 88.725 190.517 89.1589 190.517ZM95.3208 187.064V191.33H94.2313V184.239H95.2838V185.347H95.3762C95.5424 184.987 95.7947 184.698 96.1333 184.479C96.4718 184.258 96.9088 184.147 97.4444 184.147C97.9245 184.147 98.3446 184.245 98.7047 184.442C99.0647 184.636 99.3448 184.932 99.5449 185.329C99.7449 185.722 99.8449 186.221 99.8449 186.824V191.33H98.7554V186.898C98.7554 186.341 98.6108 185.907 98.3215 185.596C98.0322 185.282 97.6352 185.125 97.1304 185.125C96.7827 185.125 96.4718 185.201 96.1979 185.352C95.9271 185.502 95.7132 185.722 95.5562 186.012C95.3993 186.301 95.3208 186.652 95.3208 187.064ZM101.836 191.33V184.239H102.925V191.33H101.836ZM104.718 191.33V190.499L108.743 185.329V185.255H104.847V184.239H110.147V185.107L106.232 190.24V190.314H110.276V191.33H104.718ZM111.954 191.33V184.239H113.043V191.33H111.954ZM118.843 191.33V181.875H119.932V185.365H120.025C120.105 185.242 120.216 185.085 120.357 184.895C120.502 184.701 120.708 184.528 120.976 184.378C121.247 184.224 121.613 184.147 122.074 184.147C122.671 184.147 123.198 184.296 123.653 184.595C124.109 184.893 124.464 185.316 124.72 185.864C124.975 186.412 125.103 187.058 125.103 187.803C125.103 188.554 124.975 189.205 124.72 189.756C124.464 190.304 124.11 190.728 123.658 191.03C123.205 191.328 122.684 191.478 122.093 191.478C121.637 191.478 121.273 191.402 120.999 191.251C120.725 191.098 120.514 190.924 120.366 190.73C120.219 190.533 120.105 190.37 120.025 190.24H119.895V191.33H118.843ZM119.914 187.785C119.914 188.32 119.992 188.792 120.149 189.202C120.306 189.608 120.536 189.927 120.837 190.157C121.139 190.385 121.508 190.499 121.945 190.499C122.401 190.499 122.781 190.379 123.085 190.139C123.393 189.896 123.624 189.57 123.778 189.16C123.935 188.748 124.013 188.289 124.013 187.785C124.013 187.286 123.936 186.837 123.783 186.436C123.632 186.033 123.402 185.715 123.095 185.481C122.79 185.244 122.407 185.125 121.945 185.125C121.502 185.125 121.13 185.238 120.828 185.462C120.526 185.684 120.299 185.995 120.145 186.395C119.991 186.792 119.914 187.255 119.914 187.785ZM131.238 188.431V184.239H132.328V191.33H131.238V190.13H131.164C130.998 190.49 130.74 190.796 130.389 191.048C130.038 191.298 129.595 191.422 129.059 191.422C128.616 191.422 128.222 191.325 127.877 191.131C127.533 190.934 127.262 190.639 127.065 190.245C126.868 189.848 126.769 189.348 126.769 188.745V184.239H127.859V188.671C127.859 189.188 128.004 189.6 128.293 189.908C128.585 190.216 128.958 190.37 129.41 190.37C129.681 190.37 129.956 190.3 130.236 190.162C130.519 190.023 130.756 189.811 130.947 189.525C131.141 189.239 131.238 188.874 131.238 188.431ZM134.323 191.33V184.239H135.376V185.31H135.45C135.579 184.959 135.813 184.675 136.151 184.456C136.49 184.238 136.871 184.128 137.296 184.128C137.376 184.128 137.476 184.13 137.596 184.133C137.716 184.136 137.807 184.141 137.869 184.147V185.255C137.832 185.245 137.747 185.232 137.615 185.213C137.485 185.192 137.348 185.181 137.204 185.181C136.859 185.181 136.551 185.253 136.28 185.398C136.013 185.539 135.8 185.736 135.643 185.989C135.49 186.238 135.413 186.523 135.413 186.843V191.33H134.323ZM141.247 191.496C140.797 191.496 140.39 191.412 140.023 191.242C139.657 191.07 139.366 190.822 139.151 190.499C138.935 190.173 138.828 189.779 138.828 189.317C138.828 188.911 138.908 188.582 139.068 188.329C139.228 188.074 139.442 187.874 139.709 187.729C139.977 187.584 140.273 187.477 140.596 187.406C140.922 187.332 141.25 187.274 141.579 187.231C142.01 187.175 142.359 187.134 142.627 187.106C142.898 187.075 143.095 187.024 143.218 186.954C143.344 186.883 143.407 186.76 143.407 186.584V186.547C143.407 186.092 143.283 185.738 143.033 185.485C142.787 185.233 142.413 185.107 141.911 185.107C141.391 185.107 140.984 185.221 140.688 185.449C140.393 185.676 140.185 185.919 140.065 186.178L139.031 185.809C139.215 185.378 139.462 185.042 139.769 184.802C140.08 184.559 140.419 184.39 140.785 184.294C141.154 184.196 141.517 184.147 141.874 184.147C142.102 184.147 142.364 184.174 142.659 184.23C142.958 184.282 143.246 184.391 143.523 184.558C143.803 184.724 144.035 184.975 144.22 185.31C144.404 185.646 144.497 186.095 144.497 186.658V191.33H143.407V190.37H143.352C143.278 190.524 143.155 190.688 142.982 190.864C142.81 191.039 142.581 191.188 142.295 191.311C142.008 191.435 141.659 191.496 141.247 191.496ZM141.413 190.517C141.844 190.517 142.207 190.433 142.502 190.264C142.801 190.094 143.026 189.876 143.176 189.608C143.33 189.34 143.407 189.059 143.407 188.763V187.766C143.361 187.821 143.259 187.872 143.102 187.918C142.949 187.961 142.77 188 142.567 188.034C142.367 188.065 142.171 188.092 141.981 188.117C141.793 188.138 141.641 188.157 141.524 188.172C141.24 188.209 140.976 188.269 140.73 188.352C140.486 188.432 140.289 188.554 140.139 188.717C139.991 188.877 139.917 189.096 139.917 189.373C139.917 189.751 140.057 190.037 140.337 190.231C140.62 190.422 140.979 190.517 141.413 190.517ZM146.933 193.989C146.748 193.989 146.584 193.974 146.439 193.943C146.294 193.915 146.194 193.887 146.139 193.86L146.416 192.9C146.681 192.967 146.915 192.992 147.118 192.973C147.321 192.955 147.501 192.864 147.658 192.701C147.818 192.541 147.964 192.281 148.096 191.921L148.299 191.367L145.677 184.239H146.859L148.817 189.89H148.89L150.848 184.239H152.03L149.02 192.364C148.884 192.73 148.716 193.033 148.516 193.273C148.316 193.517 148.084 193.697 147.819 193.814C147.558 193.931 147.262 193.989 146.933 193.989ZM155.338 191.496C154.889 191.496 154.481 191.412 154.115 191.242C153.749 191.07 153.458 190.822 153.243 190.499C153.027 190.173 152.919 189.779 152.919 189.317C152.919 188.911 152.999 188.582 153.159 188.329C153.32 188.074 153.533 187.874 153.801 187.729C154.069 187.584 154.364 187.477 154.688 187.406C155.014 187.332 155.342 187.274 155.671 187.231C156.102 187.175 156.451 187.134 156.719 187.106C156.99 187.075 157.187 187.024 157.31 186.954C157.436 186.883 157.499 186.76 157.499 186.584V186.547C157.499 186.092 157.374 185.738 157.125 185.485C156.879 185.233 156.505 185.107 156.003 185.107C155.483 185.107 155.075 185.221 154.78 185.449C154.484 185.676 154.277 185.919 154.157 186.178L153.123 185.809C153.307 185.378 153.553 185.042 153.861 184.802C154.172 184.559 154.511 184.39 154.877 184.294C155.246 184.196 155.609 184.147 155.966 184.147C156.194 184.147 156.456 184.174 156.751 184.23C157.05 184.282 157.337 184.391 157.614 184.558C157.894 184.724 158.127 184.975 158.311 185.31C158.496 185.646 158.588 186.095 158.588 186.658V191.33H157.499V190.37H157.444C157.37 190.524 157.247 190.688 157.074 190.864C156.902 191.039 156.673 191.188 156.386 191.311C156.1 191.435 155.751 191.496 155.338 191.496ZM155.505 190.517C155.936 190.517 156.299 190.433 156.594 190.264C156.893 190.094 157.117 189.876 157.268 189.608C157.422 189.34 157.499 189.059 157.499 188.763V187.766C157.453 187.821 157.351 187.872 157.194 187.918C157.04 187.961 156.862 188 156.659 188.034C156.459 188.065 156.263 188.092 156.072 188.117C155.885 188.138 155.732 188.157 155.615 188.172C155.332 188.209 155.068 188.269 154.821 188.352C154.578 188.432 154.381 188.554 154.23 188.717C154.083 188.877 154.009 189.096 154.009 189.373C154.009 189.751 154.149 190.037 154.429 190.231C154.712 190.422 155.071 190.517 155.505 190.517ZM164.935 193.989C164.75 193.989 164.586 193.974 164.441 193.943C164.296 193.915 164.196 193.887 164.141 193.86L164.418 192.9C164.683 192.967 164.916 192.992 165.12 192.973C165.323 192.955 165.503 192.864 165.66 192.701C165.82 192.541 165.966 192.281 166.098 191.921L166.301 191.367L163.679 184.239H164.861L166.818 189.89H166.892L168.85 184.239H170.032L167.022 192.364C166.886 192.73 166.718 193.033 166.518 193.273C166.318 193.517 166.086 193.697 165.821 193.814C165.56 193.931 165.264 193.989 164.935 193.989ZM173.34 191.496C172.891 191.496 172.483 191.412 172.117 191.242C171.751 191.07 171.46 190.822 171.245 190.499C171.029 190.173 170.921 189.779 170.921 189.317C170.921 188.911 171.001 188.582 171.161 188.329C171.321 188.074 171.535 187.874 171.803 187.729C172.071 187.584 172.366 187.477 172.689 187.406C173.016 187.332 173.343 187.274 173.673 187.231C174.104 187.175 174.453 187.134 174.721 187.106C174.992 187.075 175.189 187.024 175.312 186.954C175.438 186.883 175.501 186.76 175.501 186.584V186.547C175.501 186.092 175.376 185.738 175.127 185.485C174.881 185.233 174.507 185.107 174.005 185.107C173.485 185.107 173.077 185.221 172.782 185.449C172.486 185.676 172.279 185.919 172.159 186.178L171.124 185.809C171.309 185.378 171.555 185.042 171.863 184.802C172.174 184.559 172.513 184.39 172.879 184.294C173.248 184.196 173.611 184.147 173.968 184.147C174.196 184.147 174.458 184.174 174.753 184.23C175.052 184.282 175.339 184.391 175.616 184.558C175.896 184.724 176.129 184.975 176.313 185.31C176.498 185.646 176.59 186.095 176.59 186.658V191.33H175.501V190.37H175.446C175.372 190.524 175.249 190.688 175.076 190.864C174.904 191.039 174.675 191.188 174.388 191.311C174.102 191.435 173.753 191.496 173.34 191.496ZM173.507 190.517C173.937 190.517 174.301 190.433 174.596 190.264C174.895 190.094 175.119 189.876 175.27 189.608C175.424 189.34 175.501 189.059 175.501 188.763V187.766C175.455 187.821 175.353 187.872 175.196 187.918C175.042 187.961 174.864 188 174.661 188.034C174.461 188.065 174.265 188.092 174.074 188.117C173.887 188.138 173.734 188.157 173.617 188.172C173.334 188.209 173.07 188.269 172.823 188.352C172.58 188.432 172.383 188.554 172.232 188.717C172.085 188.877 172.011 189.096 172.011 189.373C172.011 189.751 172.151 190.037 172.431 190.231C172.714 190.422 173.073 190.517 173.507 190.517ZM178.376 191.33V190.499L182.401 185.329V185.255H178.505V184.239H183.805V185.107L179.89 190.24V190.314H183.934V191.33H178.376ZM185.612 191.33V184.239H186.702V191.33H185.612ZM189.787 187.064V191.33H188.697V184.239H189.75V185.347H189.842C190.008 184.987 190.261 184.698 190.599 184.479C190.938 184.258 191.375 184.147 191.91 184.147C192.39 184.147 192.81 184.245 193.17 184.442C193.531 184.636 193.811 184.932 194.011 185.329C194.211 185.722 194.311 186.221 194.311 186.824V191.33H193.221V186.898C193.221 186.341 193.077 185.907 192.787 185.596C192.498 185.282 192.101 185.125 191.596 185.125C191.248 185.125 190.938 185.201 190.664 185.352C190.393 185.502 190.179 185.722 190.022 186.012C189.865 186.301 189.787 186.652 189.787 187.064ZM197.096 191.404C196.868 191.404 196.672 191.322 196.509 191.159C196.346 190.996 196.265 190.801 196.265 190.573C196.265 190.345 196.346 190.15 196.509 189.987C196.672 189.823 196.868 189.742 197.096 189.742C197.323 189.742 197.519 189.823 197.682 189.987C197.845 190.15 197.927 190.345 197.927 190.573C197.927 190.724 197.888 190.862 197.811 190.988C197.737 191.115 197.637 191.216 197.511 191.293C197.388 191.367 197.25 191.404 197.096 191.404Z" fill="#737373"/>
</g>
<rect x="25.3301" y="215.65" width="621.33" height="39.6667" rx="8" fill="white" fill-opacity="0.05"/>
<rect x="25.8301" y="216.15" width="620.33" height="38.6667" rx="7.5" stroke="white" stroke-opacity="0.1"/>
<path d="M34.9776 239.483V231.411H37.7999C38.3622 231.411 38.826 231.508 39.1913 231.702C39.5566 231.894 39.8286 232.153 40.0072 232.479C40.1859 232.802 40.2753 233.161 40.2753 233.555C40.2753 233.902 40.2135 234.188 40.09 234.414C39.9691 234.64 39.8088 234.819 39.6091 234.95C39.412 235.082 39.1979 235.179 38.9666 235.242V235.321C39.2136 235.337 39.462 235.423 39.7116 235.581C39.9613 235.739 40.1702 235.965 40.3384 236.259C40.5065 236.553 40.5906 236.913 40.5906 237.339C40.5906 237.744 40.4987 238.108 40.3147 238.431C40.1308 238.754 39.8404 239.01 39.4436 239.199C39.0468 239.389 38.5304 239.483 37.8945 239.483H34.9776ZM35.9551 238.616H37.8945C38.533 238.616 38.9863 238.493 39.2544 238.246C39.525 237.996 39.6604 237.694 39.6604 237.339C39.6604 237.066 39.5907 236.813 39.4515 236.582C39.3122 236.348 39.1138 236.162 38.8563 236.022C38.5987 235.881 38.2939 235.81 37.9418 235.81H35.9551V238.616ZM35.9551 234.958H37.7683C38.0626 234.958 38.3281 234.9 38.5646 234.785C38.8037 234.669 38.9929 234.506 39.1322 234.296C39.2741 234.086 39.345 233.839 39.345 233.555C39.345 233.2 39.2215 232.899 38.9745 232.652C38.7275 232.403 38.3359 232.278 37.7999 232.278H35.9551V234.958ZM42.0708 239.483V233.429H43.001V239.483H42.0708ZM42.5438 232.42C42.3624 232.42 42.2061 232.358 42.0747 232.234C41.9459 232.111 41.8816 231.962 41.8816 231.789C41.8816 231.616 41.9459 231.467 42.0747 231.344C42.2061 231.22 42.3624 231.158 42.5438 231.158C42.7251 231.158 42.8801 231.22 43.0089 231.344C43.1403 231.467 43.206 231.616 43.206 231.789C43.206 231.962 43.1403 232.111 43.0089 232.234C42.8801 232.358 42.7251 232.42 42.5438 232.42ZM44.7048 239.483V233.429H45.6036V234.343H45.6666C45.777 234.044 45.9767 233.801 46.2658 233.614C46.5548 233.427 46.8807 233.334 47.2433 233.334C47.3117 233.334 47.3971 233.335 47.4995 233.338C47.602 233.341 47.6796 233.345 47.7321 233.35V234.296C47.7006 234.288 47.6283 234.276 47.5153 234.26C47.4049 234.242 47.288 234.233 47.1645 234.233C46.8702 234.233 46.6074 234.295 46.3761 234.418C46.1475 234.539 45.9662 234.707 45.8322 234.923C45.7008 235.136 45.6351 235.379 45.6351 235.652V239.483H44.7048ZM50.9368 239.609C50.4322 239.609 49.9868 239.482 49.6005 239.227C49.2142 238.97 48.912 238.607 48.6939 238.139C48.4758 237.669 48.3667 237.113 48.3667 236.472C48.3667 235.836 48.4758 235.284 48.6939 234.816C48.912 234.348 49.2155 233.987 49.6044 233.732C49.9934 233.477 50.4427 233.35 50.9525 233.35C51.3467 233.35 51.6581 233.416 51.8867 233.547C52.118 233.676 52.294 233.823 52.4149 233.988C52.5384 234.151 52.6343 234.285 52.7027 234.391H52.7815V231.411H53.7118V239.483H52.813V238.553H52.7027C52.6343 238.663 52.5371 238.803 52.411 238.971C52.2848 239.136 52.1048 239.285 51.871 239.416C51.6371 239.545 51.3257 239.609 50.9368 239.609ZM51.0629 238.774C51.4361 238.774 51.7514 238.677 52.0089 238.482C52.2665 238.285 52.4622 238.013 52.5962 237.666C52.7303 237.317 52.7973 236.913 52.7973 236.456C52.7973 236.004 52.7316 235.609 52.6002 235.27C52.4688 234.928 52.2743 234.663 52.0168 234.473C51.7593 234.281 51.4413 234.186 51.0629 234.186C50.6687 234.186 50.3402 234.287 50.0775 234.489C49.8173 234.689 49.6215 234.961 49.4901 235.305C49.3614 235.647 49.297 236.03 49.297 236.456C49.297 236.887 49.3627 237.279 49.4941 237.631C49.6281 237.98 49.8252 238.259 50.0853 238.466C50.3481 238.671 50.674 238.774 51.0629 238.774ZM58.0832 239.609C57.4998 239.609 56.9966 239.481 56.5735 239.223C56.153 238.963 55.8285 238.6 55.5999 238.135C55.3739 237.667 55.2609 237.123 55.2609 236.503C55.2609 235.883 55.3739 235.337 55.5999 234.864C55.8285 234.388 56.1465 234.017 56.5538 233.752C56.9637 233.484 57.442 233.35 57.9886 233.35C58.3039 233.35 58.6153 233.402 58.9228 233.508C59.2302 233.613 59.5101 233.783 59.7624 234.02C60.0146 234.254 60.2157 234.564 60.3655 234.95C60.5152 235.337 60.5901 235.812 60.5901 236.377V236.771H55.9231V235.967H59.6441C59.6441 235.626 59.5758 235.321 59.4391 235.053C59.3051 234.785 59.1133 234.573 58.8636 234.418C58.6166 234.263 58.3249 234.186 57.9886 234.186C57.618 234.186 57.2975 234.278 57.0268 234.461C56.7587 234.643 56.5525 234.879 56.4079 235.171C56.2634 235.463 56.1911 235.775 56.1911 236.109V236.645C56.1911 237.102 56.27 237.49 56.4276 237.808C56.5879 238.123 56.81 238.364 57.0938 238.529C57.3776 238.692 57.7074 238.774 58.0832 238.774C58.3276 238.774 58.5483 238.74 58.7454 238.671C58.9451 238.6 59.1172 238.495 59.2618 238.356C59.4063 238.214 59.518 238.038 59.5968 237.828L60.4955 238.08C60.4009 238.385 60.2419 238.653 60.0186 238.884C59.7952 239.113 59.5193 239.291 59.1908 239.42C58.8623 239.546 58.4931 239.609 58.0832 239.609ZM62.9355 235.841V239.483H62.0052V233.429H62.904V234.375H62.9828C63.1247 234.067 63.3402 233.82 63.6292 233.634C63.9183 233.444 64.2915 233.35 64.7487 233.35C65.1586 233.35 65.5173 233.434 65.8248 233.602C66.1323 233.768 66.3714 234.02 66.5422 234.359C66.713 234.695 66.7984 235.121 66.7984 235.636V239.483H65.8682V235.699C65.8682 235.224 65.7446 234.853 65.4976 234.588C65.2506 234.32 64.9116 234.186 64.4807 234.186C64.1837 234.186 63.9183 234.25 63.6844 234.379C63.4532 234.507 63.2705 234.695 63.1365 234.942C63.0025 235.189 62.9355 235.489 62.9355 235.841ZM74.3163 233.429V234.217H71.0526V233.429H74.3163ZM72.0301 239.483V232.593C72.0301 232.246 72.1116 231.957 72.2745 231.726C72.4374 231.495 72.649 231.321 72.9091 231.206C73.1693 231.09 73.4439 231.032 73.733 231.032C73.9616 231.032 74.1482 231.051 74.2927 231.087C74.4372 231.124 74.545 231.158 74.6159 231.19L74.3479 231.994C74.3006 231.978 74.2349 231.958 74.1508 231.935C74.0693 231.911 73.9616 231.899 73.8276 231.899C73.5201 231.899 73.298 231.977 73.1614 232.132C73.0274 232.287 72.9604 232.514 72.9604 232.814V239.483H72.0301ZM77.2283 239.625C76.8446 239.625 76.4965 239.553 76.1837 239.408C75.871 239.261 75.6227 239.05 75.4388 238.774C75.2548 238.495 75.1628 238.159 75.1628 237.765C75.1628 237.418 75.2312 237.137 75.3678 236.921C75.5044 236.703 75.6871 236.532 75.9157 236.409C76.1443 236.285 76.3966 236.193 76.6725 236.133C76.9511 236.07 77.2309 236.02 77.5121 235.983C77.88 235.936 78.1783 235.9 78.4069 235.877C78.6381 235.85 78.8063 235.807 78.9114 235.746C79.0192 235.686 79.0731 235.581 79.0731 235.431V235.4C79.0731 235.011 78.9666 234.708 78.7538 234.493C78.5435 234.278 78.2243 234.17 77.7959 234.17C77.3518 234.17 77.0036 234.267 76.7514 234.461C76.4991 234.656 76.3217 234.864 76.2192 235.084L75.3363 234.769C75.4939 234.401 75.7042 234.115 75.9669 233.91C76.2324 233.702 76.5214 233.557 76.8341 233.476C77.1495 233.392 77.4596 233.35 77.7644 233.35C77.9589 233.35 78.1822 233.374 78.4345 233.421C78.6894 233.466 78.9351 233.559 79.1716 233.701C79.4107 233.843 79.6091 234.057 79.7668 234.343C79.9245 234.63 80.0033 235.013 80.0033 235.494V239.483H79.0731V238.663H79.0258C78.9627 238.795 78.8576 238.935 78.7104 239.085C78.5633 239.235 78.3675 239.362 78.1231 239.468C77.8787 239.573 77.5804 239.625 77.2283 239.625ZM77.3702 238.79C77.7381 238.79 78.0482 238.717 78.3005 238.573C78.5554 238.428 78.7472 238.242 78.876 238.013C79.0074 237.784 79.0731 237.544 79.0731 237.292V236.44C79.0336 236.488 78.9469 236.531 78.8129 236.57C78.6815 236.607 78.5291 236.64 78.3557 236.669C78.1848 236.695 78.018 236.719 77.8551 236.74C77.6948 236.758 77.5647 236.774 77.4648 236.787C77.2231 236.819 76.9971 236.87 76.7868 236.941C76.5792 237.009 76.4111 237.113 76.2823 237.252C76.1562 237.389 76.0931 237.575 76.0931 237.812C76.0931 238.135 76.2127 238.38 76.4518 238.545C76.6935 238.708 76.9997 238.79 77.3702 238.79ZM81.5278 239.483V238.774L84.965 234.359V234.296H81.6382V233.429H86.1633V234.17L82.8207 238.553V238.616H86.2737V239.483H81.5278ZM88.6368 231.411V239.483H87.7065V231.411H88.6368ZM92.1223 239.625C91.7386 239.625 91.3904 239.553 91.0777 239.408C90.765 239.261 90.5166 239.05 90.3327 238.774C90.1488 238.495 90.0568 238.159 90.0568 237.765C90.0568 237.418 90.1251 237.137 90.2617 236.921C90.3984 236.703 90.581 236.532 90.8097 236.409C91.0383 236.285 91.2905 236.193 91.5665 236.133C91.845 236.07 92.1249 236.02 92.4061 235.983C92.774 235.936 93.0722 235.9 93.3008 235.877C93.5321 235.85 93.7003 235.807 93.8054 235.746C93.9131 235.686 93.967 235.581 93.967 235.431V235.4C93.967 235.011 93.8606 234.708 93.6477 234.493C93.4375 234.278 93.1182 234.17 92.6899 234.17C92.2458 234.17 91.8976 234.267 91.6453 234.461C91.393 234.656 91.2157 234.864 91.1132 235.084L90.2302 234.769C90.3879 234.401 90.5981 234.115 90.8609 233.91C91.1263 233.702 91.4154 233.557 91.7281 233.476C92.0434 233.392 92.3535 233.35 92.6583 233.35C92.8528 233.35 93.0762 233.374 93.3284 233.421C93.5833 233.466 93.829 233.559 94.0655 233.701C94.3047 233.843 94.5031 234.057 94.6608 234.343C94.8184 234.63 94.8973 235.013 94.8973 235.494V239.483H93.967V238.663H93.9197C93.8566 238.795 93.7515 238.935 93.6044 239.085C93.4572 239.235 93.2614 239.362 93.017 239.468C92.7726 239.573 92.4744 239.625 92.1223 239.625ZM92.2642 238.79C92.6321 238.79 92.9421 238.717 93.1944 238.573C93.4493 238.428 93.6412 238.242 93.7699 238.013C93.9013 237.784 93.967 237.544 93.967 237.292V236.44C93.9276 236.488 93.8409 236.531 93.7068 236.57C93.5755 236.607 93.423 236.64 93.2496 236.669C93.0788 236.695 92.9119 236.719 92.749 236.74C92.5887 236.758 92.4586 236.774 92.3588 236.787C92.117 236.819 91.891 236.87 91.6808 236.941C91.4732 237.009 91.305 237.113 91.1762 237.252C91.0501 237.389 90.987 237.575 90.987 237.812C90.987 238.135 91.1066 238.38 91.3457 238.545C91.5875 238.708 91.8936 238.79 92.2642 238.79ZM100.647 231.411V239.483H99.717V231.411H100.647ZM102.351 239.483V233.429H103.281V239.483H102.351ZM102.824 232.42C102.643 232.42 102.486 232.358 102.355 232.234C102.226 232.111 102.162 231.962 102.162 231.789C102.162 231.616 102.226 231.467 102.355 231.344C102.486 231.22 102.643 231.158 102.824 231.158C103.005 231.158 103.161 231.22 103.289 231.344C103.421 231.467 103.486 231.616 103.486 231.789C103.486 231.962 103.421 232.111 103.289 232.234C103.161 232.358 103.005 232.42 102.824 232.42ZM105.915 235.841V239.483H104.985V233.429H105.884V234.375H105.963C106.105 234.067 106.32 233.82 106.609 233.634C106.898 233.444 107.271 233.35 107.729 233.35C108.139 233.35 108.497 233.434 108.805 233.602C109.112 233.768 109.351 234.02 109.522 234.359C109.693 234.695 109.778 235.121 109.778 235.636V239.483H108.848V235.699C108.848 235.224 108.725 234.853 108.478 234.588C108.231 234.32 107.892 234.186 107.461 234.186C107.164 234.186 106.898 234.25 106.664 234.379C106.433 234.507 106.251 234.695 106.116 234.942C105.982 235.189 105.915 235.489 105.915 235.841ZM112.345 237.276L112.33 236.125H112.519L115.168 233.429H116.319L113.496 236.283H113.418L112.345 237.276ZM111.478 239.483V231.411H112.409V239.483H111.478ZM115.325 239.483L112.96 236.488L113.623 235.841L116.508 239.483H115.325ZM119.805 239.609C119.222 239.609 118.719 239.481 118.296 239.223C117.875 238.963 117.551 238.6 117.322 238.135C117.096 237.667 116.983 237.123 116.983 236.503C116.983 235.883 117.096 235.337 117.322 234.864C117.551 234.388 117.869 234.017 118.276 233.752C118.686 233.484 119.164 233.35 119.711 233.35C120.026 233.35 120.337 233.402 120.645 233.508C120.952 233.613 121.232 233.783 121.484 234.02C121.737 234.254 121.938 234.564 122.088 234.95C122.237 235.337 122.312 235.812 122.312 236.377V236.771H117.645V235.967H121.366C121.366 235.626 121.298 235.321 121.161 235.053C121.027 234.785 120.835 234.573 120.586 234.418C120.339 234.263 120.047 234.186 119.711 234.186C119.34 234.186 119.02 234.278 118.749 234.461C118.481 234.643 118.275 234.879 118.13 235.171C117.985 235.463 117.913 235.775 117.913 236.109V236.645C117.913 237.102 117.992 237.49 118.15 237.808C118.31 238.123 118.532 238.364 118.816 238.529C119.1 238.692 119.429 238.774 119.805 238.774C120.05 238.774 120.27 238.74 120.467 238.671C120.667 238.6 120.839 238.495 120.984 238.356C121.128 238.214 121.24 238.038 121.319 237.828L122.218 238.08C122.123 238.385 121.964 238.653 121.741 238.884C121.517 239.113 121.241 239.291 120.913 239.42C120.584 239.546 120.215 239.609 119.805 239.609ZM126.849 239.483V233.429H127.779V239.483H126.849ZM127.322 232.42C127.141 232.42 126.985 232.358 126.853 232.234C126.724 232.111 126.66 231.962 126.66 231.789C126.66 231.616 126.724 231.467 126.853 231.344C126.985 231.22 127.141 231.158 127.322 231.158C127.504 231.158 127.659 231.22 127.787 231.344C127.919 231.467 127.984 231.616 127.984 231.789C127.984 231.962 127.919 232.111 127.787 232.234C127.659 232.358 127.504 232.42 127.322 232.42ZM129.31 239.483V238.774L132.747 234.359V234.296H129.42V233.429H133.945V234.17L130.603 238.553V238.616H134.056V239.483H129.31ZM135.489 239.483V233.429H136.419V239.483H135.489ZM135.962 232.42C135.78 232.42 135.624 232.358 135.492 232.234C135.364 232.111 135.299 231.962 135.299 231.789C135.299 231.616 135.364 231.467 135.492 231.344C135.624 231.22 135.78 231.158 135.962 231.158C136.143 231.158 136.298 231.22 136.427 231.344C136.558 231.467 136.624 231.616 136.624 231.789C136.624 231.962 136.558 232.111 136.427 232.234C136.298 232.358 136.143 232.42 135.962 232.42ZM139.053 235.841V239.483H138.123V233.429H139.021V234.375H139.1C139.242 234.067 139.458 233.82 139.747 233.634C140.036 233.444 140.409 233.35 140.866 233.35C141.276 233.35 141.635 233.434 141.942 233.602C142.25 233.768 142.489 234.02 142.66 234.359C142.83 234.695 142.916 235.121 142.916 235.636V239.483H141.986V235.699C141.986 235.224 141.862 234.853 141.615 234.588C141.368 234.32 141.029 234.186 140.598 234.186C140.301 234.186 140.036 234.25 139.802 234.379C139.571 234.507 139.388 234.695 139.254 234.942C139.12 235.189 139.053 235.489 139.053 235.841ZM152.688 233.429L150.449 239.483H149.503L147.265 233.429H148.274L149.945 238.253H150.008L151.679 233.429H152.688ZM156.238 239.609C155.655 239.609 155.151 239.481 154.728 239.223C154.308 238.963 153.983 238.6 153.755 238.135C153.529 237.667 153.416 237.123 153.416 236.503C153.416 235.883 153.529 235.337 153.755 234.864C153.983 234.388 154.301 234.017 154.709 233.752C155.119 233.484 155.597 233.35 156.143 233.35C156.459 233.35 156.77 233.402 157.078 233.508C157.385 233.613 157.665 233.783 157.917 234.02C158.169 234.254 158.37 234.564 158.52 234.95C158.67 235.337 158.745 235.812 158.745 236.377V236.771H154.078V235.967H157.799C157.799 235.626 157.731 235.321 157.594 235.053C157.46 234.785 157.268 234.573 157.018 234.418C156.771 234.263 156.48 234.186 156.143 234.186C155.773 234.186 155.452 234.278 155.182 234.461C154.914 234.643 154.707 234.879 154.563 235.171C154.418 235.463 154.346 235.775 154.346 236.109V236.645C154.346 237.102 154.425 237.49 154.582 237.808C154.743 238.123 154.965 238.364 155.249 238.529C155.532 238.692 155.862 238.774 156.238 238.774C156.482 238.774 156.703 238.74 156.9 238.671C157.1 238.6 157.272 238.495 157.417 238.356C157.561 238.214 157.673 238.038 157.752 237.828L158.65 238.08C158.556 238.385 158.397 238.653 158.173 238.884C157.95 239.113 157.674 239.291 157.346 239.42C157.017 239.546 156.648 239.609 156.238 239.609ZM160.16 239.483V233.429H161.059V234.343H161.122C161.232 234.044 161.432 233.801 161.721 233.614C162.01 233.427 162.336 233.334 162.699 233.334C162.767 233.334 162.852 233.335 162.955 233.338C163.057 233.341 163.135 233.345 163.187 233.35V234.296C163.156 234.288 163.083 234.276 162.97 234.26C162.86 234.242 162.743 234.233 162.62 234.233C162.325 234.233 162.063 234.295 161.831 234.418C161.603 234.539 161.421 234.707 161.287 234.923C161.156 235.136 161.09 235.379 161.09 235.652V239.483H160.16Z" fill="#D4D4D4"/>
<rect x="553.667" y="220.317" width="84.3333" height="30.3333" rx="8" fill="white" fill-opacity="0.05"/>
<rect x="554.167" y="220.817" width="83.3333" height="29.3333" rx="7.5" stroke="white" stroke-opacity="0.15"/>
<rect x="556.333" y="222.983" width="42" height="25" rx="8" fill="white" fill-opacity="0.1"/>
<path d="M565.622 238.983V231.492H566.529V234.828H570.523V231.492H571.43V238.983H570.523V235.633H566.529V238.983H565.622ZM574.783 239.115C574.427 239.115 574.104 239.048 573.813 238.914C573.523 238.777 573.293 238.581 573.122 238.325C572.951 238.066 572.866 237.754 572.866 237.388C572.866 237.067 572.93 236.806 573.056 236.606C573.183 236.403 573.353 236.245 573.565 236.13C573.777 236.016 574.011 235.93 574.267 235.874C574.525 235.816 574.785 235.769 575.046 235.735C575.387 235.691 575.664 235.658 575.876 235.636C576.091 235.612 576.247 235.572 576.345 235.516C576.445 235.46 576.495 235.362 576.495 235.223V235.194C576.495 234.833 576.396 234.552 576.198 234.353C576.003 234.153 575.707 234.053 575.309 234.053C574.897 234.053 574.574 234.143 574.34 234.323C574.106 234.504 573.941 234.696 573.846 234.901L573.027 234.609C573.173 234.267 573.368 234.001 573.612 233.811C573.859 233.619 574.127 233.484 574.417 233.409C574.71 233.331 574.997 233.292 575.28 233.292C575.461 233.292 575.668 233.314 575.902 233.358C576.139 233.399 576.367 233.486 576.586 233.617C576.808 233.749 576.992 233.948 577.138 234.214C577.285 234.479 577.358 234.835 577.358 235.282V238.983H576.495V238.222H576.451C576.392 238.344 576.295 238.475 576.158 238.614C576.021 238.753 575.84 238.871 575.613 238.969C575.386 239.066 575.109 239.115 574.783 239.115ZM574.914 238.339C575.256 238.339 575.544 238.272 575.778 238.138C576.014 238.004 576.192 237.831 576.312 237.619C576.434 237.407 576.495 237.184 576.495 236.949V236.159C576.458 236.203 576.377 236.244 576.253 236.28C576.131 236.314 575.99 236.345 575.829 236.372C575.67 236.396 575.515 236.418 575.364 236.437C575.216 236.454 575.095 236.469 575.002 236.481C574.778 236.511 574.568 236.558 574.373 236.624C574.18 236.687 574.024 236.784 573.905 236.913C573.788 237.04 573.729 237.213 573.729 237.432C573.729 237.732 573.84 237.959 574.062 238.113C574.287 238.264 574.571 238.339 574.914 238.339ZM579.288 241.09C579.142 241.09 579.011 241.078 578.897 241.053C578.782 241.031 578.703 241.01 578.659 240.988L578.878 240.227C579.088 240.28 579.273 240.3 579.434 240.285C579.595 240.271 579.738 240.199 579.862 240.069C579.989 239.943 580.105 239.737 580.21 239.451L580.371 239.012L578.293 233.365H579.23L580.78 237.842H580.839L582.39 233.365H583.326L580.941 239.802C580.834 240.093 580.701 240.333 580.543 240.523C580.384 240.716 580.2 240.858 579.99 240.951C579.783 241.044 579.549 241.09 579.288 241.09ZM584.465 238.983V233.365H585.329V238.983H584.465ZM586.91 238.983V233.365H587.744V234.214H587.802C587.905 233.936 588.09 233.71 588.358 233.537C588.626 233.364 588.929 233.277 589.265 233.277C589.329 233.277 589.408 233.278 589.503 233.281C589.598 233.283 589.67 233.287 589.719 233.292V234.17C589.69 234.162 589.623 234.151 589.518 234.137C589.415 234.12 589.307 234.111 589.192 234.111C588.919 234.111 588.675 234.168 588.461 234.283C588.248 234.395 588.08 234.551 587.956 234.751C587.834 234.949 587.773 235.174 587.773 235.428V238.983H586.91Z" fill="#F5F5F5"/>
<path d="M607.504 238.983V231.856H611.806V232.622H608.367V235.03H611.583V235.795H608.367V238.218H611.861V238.983H607.504ZM617.621 233.638L615.644 238.983H614.809L612.832 233.638H613.723L615.199 237.897H615.254L616.73 233.638H617.621ZM620.755 239.095C620.24 239.095 619.795 238.981 619.422 238.753C619.051 238.524 618.764 238.204 618.562 237.793C618.363 237.38 618.263 236.9 618.263 236.352C618.263 235.805 618.363 235.322 618.562 234.904C618.764 234.485 619.045 234.157 619.404 233.923C619.766 233.686 620.189 233.568 620.671 233.568C620.95 233.568 621.225 233.614 621.496 233.707C621.767 233.8 622.015 233.951 622.237 234.16C622.46 234.366 622.637 234.64 622.77 234.981C622.902 235.322 622.968 235.742 622.968 236.241V236.589H618.848V235.879H622.133C622.133 235.577 622.073 235.308 621.952 235.072C621.834 234.835 621.664 234.648 621.444 234.511C621.226 234.374 620.968 234.306 620.671 234.306C620.344 234.306 620.061 234.387 619.822 234.549C619.585 234.71 619.403 234.918 619.276 235.176C619.148 235.433 619.084 235.71 619.084 236.004V236.477C619.084 236.881 619.154 237.223 619.293 237.504C619.435 237.783 619.631 237.995 619.881 238.141C620.132 238.285 620.423 238.357 620.755 238.357C620.97 238.357 621.165 238.327 621.339 238.266C621.516 238.204 621.668 238.111 621.795 237.988C621.923 237.863 622.021 237.707 622.091 237.522L622.885 237.744C622.801 238.013 622.661 238.25 622.463 238.454C622.266 238.656 622.023 238.814 621.733 238.927C621.443 239.039 621.117 239.095 620.755 239.095ZM626.542 233.638V234.334H623.772V233.638H626.542ZM624.579 232.357H625.401V237.452C625.401 237.684 625.434 237.858 625.502 237.974C625.571 238.088 625.659 238.164 625.766 238.204C625.875 238.241 625.99 238.259 626.111 238.259C626.201 238.259 626.275 238.255 626.333 238.245C626.391 238.234 626.438 238.224 626.473 238.218L626.64 238.955C626.584 238.976 626.506 238.997 626.406 239.018C626.307 239.041 626.18 239.053 626.027 239.053C625.795 239.053 625.568 239.003 625.345 238.903C625.125 238.803 624.941 238.651 624.795 238.447C624.651 238.243 624.579 237.986 624.579 237.675V232.357Z" fill="#D4D4D4"/>
<defs>
<clipPath id="clip0_1005_289">
<rect width="596" height="16" fill="white" transform="translate(37.9968 178.33)"/>
</clipPath>
</defs>
</svg>
