<svg width="672" height="229" viewBox="0 0 672 229" fill="none" xmlns="http://www.w3.org/2000/svg">
<rect x="0.5" y="0.5" width="671" height="227.99" rx="11.5" stroke="white" stroke-opacity="0.2"/>
<rect x="8.33008" y="8.32996" width="657.237" height="212.33" rx="12" fill="#171717"/>
<rect x="8.83008" y="8.82996" width="656.237" height="211.33" rx="11.5" stroke="white" stroke-opacity="0.05"/>
<rect x="21.3301" y="22.4966" width="24" height="24" rx="6" fill="white" fill-opacity="0.05"/>
<rect x="21.8301" y="22.9966" width="23" height="23" rx="5.5" stroke="white" stroke-opacity="0.1"/>
<path d="M31.2059 28.627L33.288 32.0894H33.3618L35.4531 28.627H37.4059L34.4929 33.3543L37.452 38.0815H35.4669L33.3618 34.6423H33.288L31.1828 38.0815H29.207L32.1938 33.3543L29.2439 28.627H31.2059Z" fill="#A1A1A1"/>
<path d="M64.5034 29.9693H65.9456V36.2355C65.9456 36.9023 65.7889 37.4931 65.4757 38.0079C65.1625 38.5197 64.7221 38.9228 64.1545 39.2175C63.587 39.509 62.9218 39.6547 62.1588 39.6547C61.399 39.6547 60.7353 39.509 60.1678 39.2175C59.6002 38.9228 59.1599 38.5197 58.8466 38.0079C58.5334 37.4931 58.3768 36.9023 58.3768 36.2355V29.9693H59.8142V36.1192C59.8142 36.5503 59.9088 36.9333 60.098 37.2683C60.2903 37.6032 60.5617 37.8668 60.9121 38.0591C61.2626 38.2483 61.6781 38.3429 62.1588 38.3429C62.6426 38.3429 63.0598 38.2483 63.4102 38.0591C63.7638 37.8668 64.0336 37.6032 64.2197 37.2683C64.4089 36.9333 64.5034 36.5503 64.5034 36.1192V29.9693ZM67.775 39.4966V38.5429L71.6454 33.6258V33.5606H67.9006V32.3511H73.3806V33.3653L69.659 38.2219V38.2871H73.5109V39.4966H67.775ZM79.6782 36.5333V32.3511H81.0738V39.4966H79.7061V38.2592H79.6317C79.4673 38.6406 79.2037 38.9585 78.8409 39.2128C78.4811 39.464 78.033 39.5896 77.4964 39.5896C77.0375 39.5896 76.6312 39.4888 76.2776 39.2872C75.9272 39.0826 75.6512 38.7802 75.4496 38.3801C75.2511 37.98 75.1518 37.4854 75.1518 36.8961V32.3511H76.5428V36.7286C76.5428 37.2156 76.6777 37.6032 76.9475 37.8916C77.2173 38.1801 77.5678 38.3243 77.9989 38.3243C78.2594 38.3243 78.5183 38.2592 78.7757 38.1289C79.0363 37.9986 79.2518 37.8017 79.4224 37.5381C79.596 37.2745 79.6813 36.9395 79.6782 36.5333ZM84.3337 35.254V39.4966H82.9428V32.3511H84.2779V33.5141H84.3663C84.5306 33.1358 84.7881 32.8318 85.1385 32.6023C85.4921 32.3728 85.9371 32.2581 86.4736 32.2581C86.9605 32.2581 87.387 32.3604 87.7529 32.5651C88.1189 32.7667 88.4026 33.0675 88.6042 33.4676C88.8058 33.8677 88.9066 34.3623 88.9066 34.9516V39.4966H87.5157V35.1191C87.5157 34.6011 87.3808 34.1964 87.1109 33.9049C86.8411 33.6103 86.4705 33.463 85.9991 33.463C85.6766 33.463 85.3897 33.5327 85.1385 33.6723C84.8904 33.8119 84.6935 34.0165 84.5477 34.2864C84.405 34.5531 84.3337 34.8756 84.3337 35.254ZM93.6156 29.9693H95.2484L97.7373 34.3003H97.8396L100.328 29.9693H101.961L98.5048 35.7564V39.4966H97.072V35.7564L93.6156 29.9693ZM104.199 39.6547C103.746 39.6547 103.337 39.571 102.971 39.4035C102.605 39.233 102.315 38.9864 102.101 38.6639C101.89 38.3413 101.784 37.9459 101.784 37.4776C101.784 37.0744 101.862 36.7426 102.017 36.4821C102.172 36.2216 102.381 36.0153 102.645 35.8634C102.909 35.7114 103.203 35.5967 103.529 35.5191C103.855 35.4416 104.186 35.3827 104.525 35.3424C104.952 35.2927 105.3 35.2524 105.567 35.2214C105.833 35.1873 106.027 35.133 106.148 35.0586C106.269 34.9842 106.329 34.8632 106.329 34.6957V34.6632C106.329 34.2569 106.215 33.9421 105.985 33.7188C105.759 33.4955 105.421 33.3839 104.971 33.3839C104.503 33.3839 104.134 33.4878 103.864 33.6956C103.597 33.9002 103.413 34.1282 103.31 34.3794L102.003 34.0817C102.158 33.6475 102.385 33.297 102.682 33.0303C102.983 32.7605 103.329 32.5651 103.72 32.4442C104.11 32.3201 104.521 32.2581 104.952 32.2581C105.238 32.2581 105.54 32.2922 105.86 32.3604C106.182 32.4256 106.483 32.5465 106.762 32.7233C107.044 32.9001 107.275 33.1528 107.455 33.4816C107.635 33.8072 107.725 34.2305 107.725 34.7516V39.4966H106.367V38.5197H106.311C106.221 38.6995 106.086 38.8763 105.906 39.05C105.726 39.2237 105.495 39.3679 105.213 39.4826C104.931 39.5974 104.593 39.6547 104.199 39.6547ZM104.501 38.5383C104.886 38.5383 105.215 38.4623 105.487 38.3103C105.763 38.1584 105.973 37.9599 106.115 37.7149C106.261 37.4668 106.334 37.2016 106.334 36.9194V35.9983C106.285 36.0479 106.188 36.0944 106.046 36.1378C105.906 36.1782 105.746 36.2138 105.567 36.2448C105.387 36.2728 105.211 36.2991 105.041 36.3239C104.87 36.3456 104.728 36.3642 104.613 36.3797C104.343 36.4139 104.097 36.4712 103.873 36.5519C103.653 36.6325 103.476 36.7488 103.343 36.9008C103.213 37.0496 103.148 37.2481 103.148 37.4962C103.148 37.8405 103.275 38.101 103.529 38.2778C103.783 38.4514 104.107 38.5383 104.501 38.5383ZM110.969 35.254V39.4966H109.578V32.3511H110.913V33.5141H111.001C111.166 33.1358 111.423 32.8318 111.773 32.6023C112.127 32.3728 112.572 32.2581 113.109 32.2581C113.595 32.2581 114.022 32.3604 114.388 32.5651C114.754 32.7667 115.038 33.0675 115.239 33.4676C115.441 33.8677 115.542 34.3623 115.542 34.9516V39.4966H114.151V35.1191C114.151 34.6011 114.016 34.1964 113.746 33.9049C113.476 33.6103 113.105 33.463 112.634 33.463C112.312 33.463 112.025 33.5327 111.773 33.6723C111.525 33.8119 111.328 34.0165 111.183 34.2864C111.04 34.5531 110.969 34.8756 110.969 35.254ZM117.407 39.4966V32.3511H118.798V39.4966H117.407ZM124.005 32.3511V33.4676H120.102V32.3511H124.005ZM121.148 30.6392H122.539V37.3985C122.539 37.6684 122.58 37.8715 122.66 38.0079C122.741 38.1413 122.845 38.2328 122.972 38.2824C123.102 38.3289 123.243 38.3522 123.395 38.3522C123.507 38.3522 123.605 38.3444 123.688 38.3289C123.772 38.3134 123.837 38.301 123.884 38.2917L124.135 39.4408C124.054 39.4718 123.94 39.5028 123.791 39.5338C123.642 39.5679 123.456 39.5865 123.232 39.5896C122.867 39.5958 122.525 39.5307 122.209 39.3942C121.893 39.2578 121.637 39.0469 121.441 38.7616C121.246 38.4762 121.148 38.118 121.148 37.687V30.6392Z" fill="#E5E5E5"/>
<g opacity="0.3">
<rect x="447.4" y="19.83" width="63.3333" height="29.3333" rx="7.5" fill="white" fill-opacity="0.03"/>
<rect x="447.4" y="19.83" width="63.3333" height="29.3333" rx="7.5" stroke="#525252"/>
<path d="M458.817 29.6216V36.1216" stroke="#737373" stroke-width="1.08333" stroke-linecap="round" stroke-linejoin="round"/>
<path d="M465.317 32.8716C466.214 32.8716 466.942 32.144 466.942 31.2466C466.942 30.3491 466.214 29.6216 465.317 29.6216C464.419 29.6216 463.692 30.3491 463.692 31.2466C463.692 32.144 464.419 32.8716 465.317 32.8716Z" stroke="#737373" stroke-width="1.08333" stroke-linecap="round" stroke-linejoin="round"/>
<path d="M458.817 39.3716C459.714 39.3716 460.442 38.644 460.442 37.7466C460.442 36.8491 459.714 36.1216 458.817 36.1216C457.919 36.1216 457.192 36.8491 457.192 37.7466C457.192 38.644 457.919 39.3716 458.817 39.3716Z" stroke="#737373" stroke-width="1.08333" stroke-linecap="round" stroke-linejoin="round"/>
<path d="M465.317 32.8716C465.317 34.1645 464.803 35.4045 463.889 36.3187C462.975 37.233 461.735 37.7466 460.442 37.7466" stroke="#737373" stroke-width="1.08333" stroke-linecap="round" stroke-linejoin="round"/>
<path d="M475.722 37.9966V30.3602H476.874V34.0069H476.967L480.17 30.3602H481.621L478.541 33.7981L481.632 37.9966H480.245L477.777 34.5848L476.874 35.6214V37.9966H475.722ZM484.597 38.1122C484.06 38.1122 483.592 37.9891 483.192 37.743C482.791 37.4969 482.481 37.1527 482.259 36.7102C482.038 36.2677 481.927 35.7507 481.927 35.159C481.927 34.5649 482.038 34.0454 482.259 33.6005C482.481 33.1555 482.791 32.81 483.192 32.5639C483.592 32.3178 484.06 32.1947 484.597 32.1947C485.134 32.1947 485.603 32.3178 486.003 32.5639C486.403 32.81 486.714 33.1555 486.935 33.6005C487.156 34.0454 487.267 34.5649 487.267 35.159C487.267 35.7507 487.156 36.2677 486.935 36.7102C486.714 37.1527 486.403 37.4969 486.003 37.743C485.603 37.9891 485.134 38.1122 484.597 38.1122ZM484.601 37.1763C484.949 37.1763 485.237 37.0843 485.466 36.9003C485.695 36.7164 485.864 36.4715 485.973 36.1658C486.085 35.86 486.141 35.5232 486.141 35.1553C486.141 34.7899 486.085 34.4543 485.973 34.1486C485.864 33.8403 485.695 33.593 485.466 33.4066C485.237 33.2201 484.949 33.1269 484.601 33.1269C484.25 33.1269 483.96 33.2201 483.728 33.4066C483.5 33.593 483.329 33.8403 483.218 34.1486C483.108 34.4543 483.054 34.7899 483.054 35.1553C483.054 35.5232 483.108 35.86 483.218 36.1658C483.329 36.4715 483.5 36.7164 483.728 36.9003C483.96 37.0843 484.25 37.1763 484.601 37.1763ZM492.803 33.6676L491.793 33.8465C491.75 33.7173 491.683 33.5942 491.591 33.4774C491.502 33.3606 491.38 33.2649 491.226 33.1903C491.072 33.1157 490.879 33.0784 490.648 33.0784C490.332 33.0784 490.069 33.1493 489.857 33.291C489.646 33.4302 489.541 33.6104 489.541 33.8316C489.541 34.023 489.611 34.1772 489.753 34.294C489.895 34.4108 490.123 34.5065 490.439 34.5811L491.349 34.7899C491.876 34.9117 492.269 35.0994 492.527 35.3529C492.786 35.6065 492.915 35.9359 492.915 36.341C492.915 36.6841 492.816 36.9898 492.617 37.2583C492.42 37.5243 492.146 37.7331 491.793 37.8847C491.442 38.0364 491.036 38.1122 490.573 38.1122C489.932 38.1122 489.409 37.9755 489.004 37.702C488.598 37.4261 488.35 37.0346 488.258 36.5275L489.335 36.3634C489.403 36.6443 489.541 36.8568 489.749 37.001C489.958 37.1427 490.23 37.2136 490.566 37.2136C490.931 37.2136 491.223 37.1377 491.442 36.9861C491.661 36.832 491.77 36.6443 491.77 36.4231C491.77 36.2441 491.703 36.0937 491.569 35.9719C491.437 35.8501 491.235 35.7581 490.961 35.696L489.992 35.4834C489.457 35.3616 489.062 35.1677 488.806 34.9018C488.552 34.6358 488.426 34.299 488.426 33.8913C488.426 33.5532 488.52 33.2574 488.709 33.0039C488.898 32.7503 489.159 32.5527 489.492 32.411C489.825 32.2668 490.207 32.1947 490.637 32.1947C491.256 32.1947 491.743 32.329 492.098 32.5974C492.454 32.8634 492.689 33.2201 492.803 33.6676ZM490.238 37.9668H490.969L490.909 38.2725C491.125 38.3073 491.314 38.3943 491.476 38.5335C491.637 38.6727 491.718 38.8828 491.718 39.1637C491.721 39.4992 491.575 39.7714 491.282 39.9802C490.991 40.1891 490.57 40.2935 490.018 40.2935L489.995 39.6708C490.254 39.6708 490.463 39.6335 490.622 39.5589C490.783 39.4843 490.865 39.3638 490.868 39.1972C490.87 39.0307 490.808 38.9138 490.682 38.8467C490.557 38.7796 490.358 38.7324 490.085 38.705L490.238 37.9668ZM497.769 35.6214V32.2693H498.887V37.9966H497.791V37.0047H497.732C497.6 37.3105 497.389 37.5653 497.098 37.7691C496.809 37.9705 496.45 38.0712 496.02 38.0712C495.652 38.0712 495.327 37.9904 495.043 37.8288C494.762 37.6647 494.541 37.4224 494.379 37.1017C494.22 36.781 494.141 36.3845 494.141 35.9122V32.2693H495.256V35.778C495.256 36.1683 495.364 36.479 495.58 36.7102C495.796 36.9414 496.077 37.057 496.423 37.057C496.632 37.057 496.839 37.0047 497.045 36.9003C497.254 36.7959 497.427 36.6381 497.564 36.4268C497.703 36.2155 497.771 35.947 497.769 35.6214ZM501.5 30.3602V37.9966H500.385V30.3602H501.5Z" fill="#737373"/>
</g>
<rect x="519.233" y="24.4966" width="1" height="20" fill="white" fill-opacity="0.1"/>
<rect x="528.233" y="19.33" width="124.333" height="30.3333" rx="8" fill="white" fill-opacity="0.05"/>
<rect x="528.733" y="19.83" width="123.333" height="29.3333" rx="7.5" stroke="white" stroke-opacity="0.15"/>
<rect x="530.9" y="21.9966" width="65" height="25" rx="8" fill="white" fill-opacity="0.1"/>
<path d="M546.583 34.2511C546.583 35.0412 546.44 35.7239 546.155 36.2994C545.869 36.8749 545.478 37.3187 544.981 37.6308C544.483 37.9429 543.915 38.099 543.276 38.099C542.637 38.099 542.069 37.9429 541.572 37.6308C541.074 37.3187 540.683 36.8749 540.398 36.2994C540.112 35.7239 539.97 35.0412 539.97 34.2511C539.97 33.4611 540.112 32.7783 540.398 32.2028C540.683 31.6274 541.074 31.1836 541.572 30.8714C542.069 30.5593 542.637 30.4033 543.276 30.4033C543.915 30.4033 544.483 30.5593 544.981 30.8714C545.478 31.1836 545.869 31.6274 546.155 32.2028C546.44 32.7783 546.583 33.4611 546.583 34.2511ZM545.705 34.2511C545.705 33.6025 545.596 33.0551 545.379 32.6088C545.165 32.1626 544.873 31.8249 544.505 31.5957C544.139 31.3664 543.73 31.2518 543.276 31.2518C542.823 31.2518 542.412 31.3664 542.043 31.5957C541.678 31.8249 541.386 32.1626 541.169 32.6088C540.955 33.0551 540.847 33.6025 540.847 34.2511C540.847 34.8998 540.955 35.4472 541.169 35.8934C541.386 36.3397 541.678 36.6774 542.043 36.9066C542.412 37.1358 542.823 37.2504 543.276 37.2504C543.73 37.2504 544.139 37.1358 544.505 36.9066C544.873 36.6774 545.165 36.3397 545.379 35.8934C545.596 35.4472 545.705 34.8998 545.705 34.2511ZM547.991 40.1034V32.3784H548.825V33.2709H548.927C548.991 33.1733 549.078 33.049 549.191 32.8978C549.305 32.7442 549.469 32.6076 549.681 32.4881C549.895 32.3662 550.185 32.3052 550.551 32.3052C551.024 32.3052 551.441 32.4235 551.802 32.66C552.163 32.8966 552.445 33.2319 552.647 33.6659C552.849 34.0999 552.951 34.612 552.951 35.2021C552.951 35.7971 552.849 36.3128 552.647 36.7493C552.445 37.1834 552.164 37.5199 551.806 37.7588C551.447 37.9954 551.034 38.1136 550.566 38.1136C550.205 38.1136 549.916 38.0539 549.699 37.9344C549.482 37.8125 549.315 37.6747 549.198 37.5211C549.081 37.365 548.991 37.2358 548.927 37.1334H548.854V40.1034H547.991ZM548.839 35.1875C548.839 35.6118 548.902 35.9861 549.026 36.3104C549.15 36.6323 549.332 36.8847 549.571 37.0675C549.81 37.248 550.103 37.3382 550.449 37.3382C550.81 37.3382 551.111 37.2431 551.352 37.0529C551.596 36.8603 551.779 36.6018 551.901 36.2775C552.025 35.9507 552.087 35.5874 552.087 35.1875C552.087 34.7925 552.026 34.4364 551.905 34.1195C551.785 33.8 551.603 33.5476 551.36 33.3623C551.118 33.1746 550.815 33.0807 550.449 33.0807C550.098 33.0807 549.803 33.1697 549.564 33.3477C549.325 33.5233 549.144 33.7695 549.022 34.0865C548.9 34.4011 548.839 34.7681 548.839 35.1875ZM558.247 33.6366L557.472 33.8561C557.423 33.7269 557.351 33.6013 557.256 33.4794C557.163 33.355 557.036 33.2526 556.875 33.1721C556.714 33.0916 556.508 33.0514 556.257 33.0514C555.913 33.0514 555.627 33.1307 555.398 33.2892C555.171 33.4452 555.057 33.644 555.057 33.8854C555.057 34.0999 555.135 34.2694 555.292 34.3938C555.448 34.5181 555.691 34.6218 556.023 34.7047L556.857 34.9095C557.359 35.0314 557.734 35.218 557.98 35.4691C558.226 35.7179 558.349 36.0385 558.349 36.4311C558.349 36.753 558.257 37.0407 558.071 37.2943C557.888 37.5479 557.632 37.7479 557.303 37.8942C556.974 38.0405 556.591 38.1136 556.155 38.1136C555.582 38.1136 555.107 37.9893 554.732 37.7405C554.356 37.4918 554.119 37.1285 554.019 36.6506L554.838 36.4457C554.916 36.7481 555.064 36.9749 555.281 37.1261C555.5 37.2772 555.787 37.3528 556.14 37.3528C556.542 37.3528 556.862 37.2675 557.098 37.0968C557.337 36.9237 557.457 36.7164 557.457 36.475C557.457 36.2799 557.389 36.1165 557.252 35.9849C557.116 35.8507 556.906 35.7508 556.623 35.6849L555.687 35.4655C555.172 35.3436 554.794 35.1546 554.553 34.8985C554.314 34.6401 554.194 34.317 554.194 33.9293C554.194 33.6123 554.283 33.3318 554.461 33.088C554.642 32.8441 554.887 32.6527 555.196 32.5137C555.509 32.3747 555.862 32.3052 556.257 32.3052C556.813 32.3052 557.25 32.4272 557.567 32.671C557.886 32.9149 558.113 33.2367 558.247 33.6366ZM559.649 37.9966V32.3784H560.512V37.9966H559.649ZM560.088 31.442C559.919 31.442 559.774 31.3847 559.652 31.2701C559.533 31.1555 559.473 31.0177 559.473 30.8568C559.473 30.6959 559.533 30.5581 559.652 30.4435C559.774 30.3289 559.919 30.2716 560.088 30.2716C560.256 30.2716 560.4 30.3289 560.519 30.4435C560.641 30.5581 560.702 30.6959 560.702 30.8568C560.702 31.0177 560.641 31.1555 560.519 31.2701C560.4 31.3847 560.256 31.442 560.088 31.442ZM562.649 40.1034C562.503 40.1034 562.372 40.0912 562.258 40.0668C562.143 40.0449 562.064 40.0229 562.02 40.001L562.239 39.2402C562.449 39.2938 562.634 39.3133 562.795 39.2987C562.956 39.2841 563.099 39.2121 563.223 39.0829C563.35 38.9561 563.466 38.7501 563.571 38.4648L563.732 38.0258L561.654 32.3784H562.59L564.141 36.8554H564.2L565.751 32.3784H566.687L564.302 38.8159C564.195 39.1061 564.062 39.3463 563.904 39.5365C563.745 39.7291 563.561 39.8717 563.351 39.9644C563.144 40.0571 562.91 40.1034 562.649 40.1034ZM569.908 38.1136C569.4 38.1136 568.955 37.9929 568.573 37.7515C568.192 37.5101 567.895 37.1724 567.68 36.7383C567.468 36.3043 567.362 35.7971 567.362 35.2168C567.362 34.6315 567.468 34.1207 567.68 33.6842C567.895 33.2477 568.192 32.9088 568.573 32.6674C568.955 32.4259 569.4 32.3052 569.908 32.3052C570.415 32.3052 570.859 32.4259 571.239 32.6674C571.622 32.9088 571.919 33.2477 572.131 33.6842C572.346 34.1207 572.453 34.6315 572.453 35.2168C572.453 35.7971 572.346 36.3043 572.131 36.7383C571.919 37.1724 571.622 37.5101 571.239 37.7515C570.859 37.9929 570.415 38.1136 569.908 38.1136ZM569.908 37.3382C570.293 37.3382 570.61 37.2394 570.859 37.0419C571.107 36.8444 571.291 36.5847 571.411 36.2628C571.53 35.941 571.59 35.5923 571.59 35.2168C571.59 34.8412 571.53 34.4913 571.411 34.167C571.291 33.8427 571.107 33.5806 570.859 33.3806C570.61 33.1806 570.293 33.0807 569.908 33.0807C569.522 33.0807 569.205 33.1806 568.957 33.3806C568.708 33.5806 568.524 33.8427 568.404 34.167C568.285 34.4913 568.225 34.8412 568.225 35.2168C568.225 35.5923 568.285 35.941 568.404 36.2628C568.524 36.5847 568.708 36.8444 568.957 37.0419C569.205 37.2394 569.522 37.3382 569.908 37.3382ZM574.634 34.6169V37.9966H573.771V32.3784H574.605V33.2562H574.678C574.81 32.9709 575.01 32.7417 575.278 32.5686C575.546 32.393 575.892 32.3052 576.317 32.3052C576.697 32.3052 577.03 32.3833 577.315 32.5393C577.601 32.693 577.822 32.9271 577.981 33.2416C578.139 33.5537 578.219 33.9488 578.219 34.4267V37.9966H577.356V34.4852C577.356 34.0439 577.241 33.7 577.012 33.4538C576.782 33.205 576.468 33.0807 576.068 33.0807C575.792 33.0807 575.546 33.1404 575.329 33.2599C575.115 33.3794 574.945 33.5537 574.821 33.7829C574.696 34.0122 574.634 34.2901 574.634 34.6169ZM582.152 38.1136C581.61 38.1136 581.143 37.9941 580.751 37.7552C580.361 37.5138 580.059 37.1773 579.847 36.7457C579.638 36.3116 579.533 35.8069 579.533 35.2314C579.533 34.6559 579.638 34.1487 579.847 33.7098C580.059 33.2684 580.355 32.9246 580.732 32.6783C581.113 32.4296 581.557 32.3052 582.064 32.3052C582.356 32.3052 582.645 32.354 582.931 32.4516C583.216 32.5491 583.476 32.7076 583.71 32.9271C583.944 33.1441 584.13 33.4318 584.269 33.7903C584.408 34.1487 584.478 34.5901 584.478 35.1143V35.4801H580.147V34.7339H583.6C583.6 34.4169 583.537 34.1341 583.41 33.8854C583.286 33.6366 583.108 33.4403 582.876 33.2965C582.647 33.1526 582.376 33.0807 582.064 33.0807C581.72 33.0807 581.423 33.166 581.171 33.3367C580.923 33.505 580.731 33.7244 580.597 33.9951C580.463 34.2658 580.396 34.5559 580.396 34.8656V35.3631C580.396 35.7873 580.469 36.147 580.615 36.4421C580.764 36.7347 580.97 36.9578 581.234 37.1114C581.497 37.2626 581.803 37.3382 582.152 37.3382C582.378 37.3382 582.583 37.3065 582.766 37.2431C582.951 37.1773 583.111 37.0797 583.245 36.9505C583.379 36.8188 583.483 36.6554 583.556 36.4604L584.39 36.6945C584.302 36.9773 584.155 37.226 583.948 37.4406C583.74 37.6528 583.484 37.8186 583.179 37.9381C582.875 38.0551 582.532 38.1136 582.152 38.1136ZM586.654 30.5057V37.9966H585.791V30.5057H586.654Z" fill="#F5F5F5"/>
<path d="M604.786 37.9966V37.3254L608.903 31.1805H604.741V30.3602H610.006V31.0314L605.89 37.1763H610.051V37.9966H604.786ZM613.81 38.1159C613.293 38.1159 612.839 37.9929 612.449 37.7468C612.061 37.5007 611.758 37.1564 611.539 36.7139C611.323 36.2714 611.214 35.7544 611.214 35.1628C611.214 34.5662 611.323 34.0454 611.539 33.6005C611.758 33.1555 612.061 32.81 612.449 32.5639C612.839 32.3178 613.293 32.1947 613.81 32.1947C614.327 32.1947 614.779 32.3178 615.167 32.5639C615.557 32.81 615.86 33.1555 616.077 33.6005C616.295 34.0454 616.405 34.5662 616.405 35.1628C616.405 35.7544 616.295 36.2714 616.077 36.7139C615.86 37.1564 615.557 37.5007 615.167 37.7468C614.779 37.9929 614.327 38.1159 613.81 38.1159ZM613.81 37.3254C614.202 37.3254 614.526 37.2247 614.779 37.0234C615.033 36.822 615.22 36.5573 615.342 36.2292C615.464 35.9011 615.525 35.5456 615.525 35.1628C615.525 34.78 615.464 34.4233 615.342 34.0926C615.22 33.762 615.033 33.4948 614.779 33.291C614.526 33.0871 614.202 32.9852 613.81 32.9852C613.417 32.9852 613.094 33.0871 612.84 33.291C612.587 33.4948 612.399 33.762 612.277 34.0926C612.155 34.4233 612.094 34.78 612.094 35.1628C612.094 35.5456 612.155 35.9011 612.277 36.2292C612.399 36.5573 612.587 36.822 612.84 37.0234C613.094 37.2247 613.417 37.3254 613.81 37.3254ZM617.748 37.9966V32.2693H618.598V33.1344H618.658C618.762 32.851 618.951 32.621 619.225 32.4446C619.498 32.2681 619.806 32.1798 620.149 32.1798C620.214 32.1798 620.295 32.1811 620.392 32.1835C620.489 32.186 620.562 32.1898 620.612 32.1947V33.0896C620.582 33.0822 620.513 33.071 620.407 33.0561C620.302 33.0387 620.192 33.03 620.075 33.03C619.796 33.03 619.548 33.0884 619.329 33.2052C619.113 33.3196 618.941 33.4786 618.814 33.6825C618.69 33.8838 618.628 34.1138 618.628 34.3723V37.9966H617.748ZM625.264 35.655V32.2693H626.144V37.9966H625.264V37.0271H625.204C625.07 37.318 624.861 37.5653 624.578 37.7691C624.295 37.9705 623.937 38.0712 623.504 38.0712C623.146 38.0712 622.828 37.9929 622.55 37.8362C622.271 37.6772 622.052 37.4385 621.893 37.1203C621.734 36.7997 621.655 36.3957 621.655 35.9085V32.2693H622.535V35.8489C622.535 36.2665 622.652 36.5996 622.885 36.8481C623.121 37.0967 623.422 37.221 623.788 37.221C624.006 37.221 624.229 37.1651 624.455 37.0532C624.684 36.9414 624.875 36.7698 625.029 36.5387C625.186 36.3075 625.264 36.0129 625.264 35.655ZM628.636 34.5513V37.9966H627.756V32.2693H628.606V33.1642H628.681C628.815 32.8734 629.019 32.6397 629.292 32.4632C629.565 32.2842 629.918 32.1947 630.351 32.1947C630.739 32.1947 631.078 32.2743 631.369 32.4334C631.66 32.59 631.886 32.8286 632.048 33.1493C632.209 33.4675 632.29 33.8702 632.29 34.3574V37.9966H631.41V34.417C631.41 33.9671 631.293 33.6166 631.059 33.3655C630.826 33.112 630.505 32.9852 630.097 32.9852C629.817 32.9852 629.565 33.0461 629.344 33.1679C629.126 33.2897 628.953 33.4675 628.826 33.7011C628.699 33.9348 628.636 34.2182 628.636 34.5513ZM634.778 30.3602V37.9966H633.898V30.3602H634.778ZM639.999 35.655V32.2693H640.879V37.9966H639.999V37.0271H639.939C639.805 37.318 639.596 37.5653 639.313 37.7691C639.03 37.9705 638.672 38.0712 638.239 38.0712C637.881 38.0712 637.563 37.9929 637.285 37.8362C637.006 37.6772 636.787 37.4385 636.628 37.1203C636.469 36.7997 636.39 36.3957 636.39 35.9085V32.2693H637.27V35.8489C637.27 36.2665 637.386 36.5996 637.62 36.8481C637.856 37.0967 638.157 37.221 638.522 37.221C638.741 37.221 638.964 37.1651 639.19 37.0532C639.419 36.9414 639.61 36.7698 639.764 36.5387C639.921 36.3075 639.999 36.0129 639.999 35.655Z" fill="#D4D4D4"/>
<path d="M32.334 82.6996C32.2942 82.3466 32.1301 82.0732 31.8418 81.8793C31.5534 81.6829 31.1905 81.5848 30.753 81.5848C30.4398 81.5848 30.1689 81.6345 29.9402 81.7339C29.7115 81.8308 29.5337 81.9651 29.407 82.1366C29.2827 82.3056 29.2205 82.4983 29.2205 82.7145C29.2205 82.896 29.2628 83.0526 29.3473 83.1844C29.4343 83.3161 29.5474 83.4267 29.6866 83.5162C29.8283 83.6032 29.9799 83.6765 30.1415 83.7362C30.3031 83.7934 30.4585 83.8406 30.6076 83.8779L31.3533 84.0718C31.5969 84.1314 31.8468 84.2122 32.1028 84.3142C32.3588 84.4161 32.5962 84.5503 32.815 84.7169C33.0337 84.8834 33.2102 85.0897 33.3445 85.3358C33.4812 85.5819 33.5495 85.8765 33.5495 86.2195C33.5495 86.652 33.4377 87.0361 33.214 87.3717C32.9927 87.7073 32.6708 87.972 32.2482 88.1659C31.8281 88.3598 31.3198 88.4567 30.7232 88.4567C30.1515 88.4567 29.6568 88.366 29.2392 88.1845C28.8216 88.0031 28.4947 87.7458 28.2585 87.4127C28.0224 87.0771 27.8919 86.6794 27.867 86.2195H29.0229C29.0453 86.4954 29.1348 86.7254 29.2914 86.9093C29.4505 87.0908 29.6531 87.2263 29.8991 87.3158C30.1477 87.4028 30.4199 87.4463 30.7157 87.4463C31.0414 87.4463 31.331 87.3953 31.5845 87.2934C31.8406 87.189 32.0419 87.0448 32.1886 86.8609C32.3352 86.6744 32.4086 86.4569 32.4086 86.2083C32.4086 85.9821 32.3439 85.7969 32.2147 85.6528C32.0879 85.5086 31.9151 85.3893 31.6964 85.2948C31.4801 85.2003 31.2353 85.1171 30.9618 85.045L30.0595 84.7989C29.448 84.6323 28.9632 84.3875 28.6053 84.0643C28.2498 83.7412 28.0721 83.3136 28.0721 82.7817C28.0721 82.3417 28.1914 81.9576 28.43 81.6295C28.6687 81.3014 28.9918 81.0466 29.3995 80.8651C29.8072 80.6812 30.267 80.5892 30.7791 80.5892C31.2962 80.5892 31.7523 80.6799 32.1475 80.8614C32.5453 81.0428 32.8585 81.2927 33.0872 81.6109C33.3159 81.9265 33.4352 82.2895 33.4451 82.6996H32.334ZM41.8347 84.5118C41.8347 85.3271 41.6856 86.0281 41.3873 86.6148C41.089 87.1989 40.6801 87.6488 40.1605 87.9645C39.6435 88.2778 39.0556 88.4344 38.3968 88.4344C37.7356 88.4344 37.1453 88.2778 36.6257 87.9645C36.1087 87.6488 35.701 87.1977 35.4027 86.611C35.1044 86.0244 34.9553 85.3246 34.9553 84.5118C34.9553 83.6964 35.1044 82.9967 35.4027 82.4125C35.701 81.8259 36.1087 81.3759 36.6257 81.0627C37.1453 80.747 37.7356 80.5892 38.3968 80.5892C39.0556 80.5892 39.6435 80.747 40.1605 81.0627C40.6801 81.3759 41.089 81.8259 41.3873 82.4125C41.6856 82.9967 41.8347 83.6964 41.8347 84.5118ZM40.6937 84.5118C40.6937 83.8903 40.593 83.3671 40.3917 82.942C40.1928 82.5144 39.9194 82.1913 39.5714 81.9725C39.2259 81.7513 38.8343 81.6407 38.3968 81.6407C37.9569 81.6407 37.5641 81.7513 37.2186 81.9725C36.8731 82.1913 36.5996 82.5144 36.3983 82.942C36.1994 83.3671 36.1 83.8903 36.1 84.5118C36.1 85.1332 36.1994 85.6577 36.3983 86.0853C36.5996 86.5104 36.8731 86.8335 37.2186 87.0547C37.5641 87.2735 37.9569 87.3829 38.3968 87.3829C38.8343 87.3829 39.2259 87.2735 39.5714 87.0547C39.9194 86.8335 40.1928 86.5104 40.3917 86.0853C40.593 85.6577 40.6937 85.1332 40.6937 84.5118ZM43.5462 88.33V80.6936H46.2681C46.8597 80.6936 47.3507 80.7955 47.741 80.9993C48.1337 81.2032 48.427 81.4853 48.6209 81.8458C48.8148 82.2037 48.9118 82.6176 48.9118 83.0874C48.9118 83.5547 48.8136 83.9661 48.6172 84.3216C48.4233 84.6746 48.13 84.9493 47.7372 85.1457C47.347 85.342 46.856 85.4402 46.2644 85.4402H44.2024V84.4484H46.16C46.5329 84.4484 46.8361 84.3949 47.0698 84.2881C47.3059 84.1812 47.4787 84.0258 47.5881 83.822C47.6975 83.6181 47.7521 83.3733 47.7521 83.0874C47.7521 82.7991 47.6962 82.5492 47.5844 82.3379C47.475 82.1267 47.3022 81.9651 47.0661 81.8532C46.8324 81.7389 46.5254 81.6817 46.1451 81.6817H44.6983V88.33H43.5462ZM47.3159 84.8846L49.2026 88.33H47.8901L46.0407 84.8846H47.3159ZM55.4995 80.6936H56.6553V85.7161C56.6553 86.2506 56.5298 86.7241 56.2787 87.1368C56.0277 87.5469 55.6747 87.8701 55.2198 88.1062C54.7649 88.3399 54.2317 88.4567 53.6202 88.4567C53.0112 88.4567 52.4792 88.3399 52.0243 88.1062C51.5694 87.8701 51.2164 87.5469 50.9654 87.1368C50.7143 86.7241 50.5888 86.2506 50.5888 85.7161V80.6936H51.7409V85.6229C51.7409 85.9685 51.8167 86.2754 51.9684 86.5439C52.1225 86.8124 52.34 87.0237 52.6209 87.1778C52.9018 87.3294 53.2349 87.4052 53.6202 87.4052C54.008 87.4052 54.3423 87.3294 54.6232 87.1778C54.9066 87.0237 55.1229 86.8124 55.272 86.5439C55.4236 86.2754 55.4995 85.9685 55.4995 85.6229V80.6936ZM61.6593 80.6936H63.0575L65.4886 86.6297H65.5781L68.0092 80.6936H69.4075V88.33H68.3113V82.804H68.2404L65.9883 88.3188H65.0785L62.8263 82.8003H62.7555V88.33H61.6593V80.6936ZM71.3576 88.33V80.6936H76.1453V81.6854H72.5098V84.0121H75.8954V85.0002H72.5098V87.3381H76.19V88.33H71.3576ZM77.5827 81.6854V80.6936H83.4926V81.6854H81.11V88.33H79.9616V81.6854H77.5827ZM91.2372 80.6936V88.33H90.1782L86.2966 82.7295H86.2258V88.33H85.0736V80.6936H86.14L90.0253 86.3015H90.0962V80.6936H91.2372ZM94.345 80.6936V88.33H93.1929V80.6936H94.345Z" fill="#A1A1A1"/>
<rect x="25.3301" y="99.33" width="621.33" height="34.66" rx="8" fill="#171717" fill-opacity="0.6"/>
<rect x="25.8301" y="99.83" width="620.33" height="33.66" rx="7.5" stroke="white" stroke-opacity="0.1"/>
<path d="M44.2636 114.634C44.2086 114.169 43.9857 113.809 43.5948 113.552C43.2039 113.296 42.7244 113.168 42.1563 113.168C41.741 113.168 41.3776 113.235 41.0661 113.369C40.7576 113.504 40.5164 113.688 40.3423 113.924C40.1713 114.159 40.0857 114.426 40.0857 114.725C40.0857 114.976 40.1453 115.191 40.2644 115.371C40.3866 115.548 40.5423 115.696 40.7317 115.815C40.921 115.931 41.1195 116.028 41.3272 116.104C41.5349 116.177 41.7257 116.237 41.8998 116.283L42.8527 116.539C43.097 116.603 43.3688 116.692 43.6681 116.805C43.9704 116.918 44.259 117.072 44.5339 117.268C44.8118 117.46 45.0408 117.707 45.221 118.01C45.4012 118.312 45.4913 118.683 45.4913 119.123C45.4913 119.63 45.3584 120.088 45.0927 120.497C44.8301 120.906 44.4453 121.232 43.9383 121.473C43.4344 121.714 42.8221 121.835 42.1014 121.835C41.4295 121.835 40.8477 121.726 40.356 121.51C39.8674 121.293 39.4826 120.99 39.2016 120.603C38.9237 120.215 38.7664 119.764 38.7298 119.251H39.9025C39.933 119.605 40.0522 119.899 40.2598 120.131C40.4705 120.36 40.7362 120.531 41.0569 120.644C41.3806 120.754 41.7288 120.809 42.1014 120.809C42.535 120.809 42.9244 120.738 43.2695 120.598C43.6146 120.454 43.8879 120.256 44.0895 120.002C44.2911 119.746 44.3919 119.447 44.3919 119.105C44.3919 118.793 44.3048 118.54 44.1307 118.344C43.9567 118.149 43.7276 117.99 43.4436 117.868C43.1596 117.746 42.8527 117.639 42.5228 117.547L41.3684 117.217C40.6355 117.006 40.0552 116.706 39.6276 116.315C39.2001 115.924 38.9863 115.412 38.9863 114.78C38.9863 114.255 39.1283 113.797 39.4123 113.406C39.6994 113.012 40.0842 112.706 40.5667 112.49C41.0523 112.27 41.5944 112.16 42.193 112.16C42.7977 112.16 43.3352 112.268 43.8055 112.485C44.2758 112.699 44.6484 112.992 44.9232 113.365C45.2012 113.737 45.3477 114.16 45.363 114.634H44.2636ZM50.0711 121.817C49.4359 121.817 48.8785 121.665 48.3991 121.363C47.9226 121.061 47.55 120.638 47.2813 120.094C47.0156 119.55 46.8828 118.915 46.8828 118.188C46.8828 117.455 47.0156 116.816 47.2813 116.269C47.55 115.722 47.9226 115.298 48.3991 114.995C48.8785 114.693 49.4359 114.542 50.0711 114.542C50.7063 114.542 51.2622 114.693 51.7386 114.995C52.2181 115.298 52.5906 115.722 52.8563 116.269C53.1251 116.816 53.2595 117.455 53.2595 118.188C53.2595 118.915 53.1251 119.55 52.8563 120.094C52.5906 120.638 52.2181 121.061 51.7386 121.363C51.2622 121.665 50.7063 121.817 50.0711 121.817ZM50.0711 120.845C50.5536 120.845 50.9507 120.722 51.2622 120.474C51.5737 120.227 51.8042 119.902 51.9539 119.499C52.1035 119.095 52.1784 118.659 52.1784 118.188C52.1784 117.718 52.1035 117.28 51.9539 116.874C51.8042 116.467 51.5737 116.139 51.2622 115.889C50.9507 115.638 50.5536 115.513 50.0711 115.513C49.5886 115.513 49.1916 115.638 48.8801 115.889C48.5686 116.139 48.338 116.467 48.1883 116.874C48.0387 117.28 47.9639 117.718 47.9639 118.188C47.9639 118.659 48.0387 119.095 48.1883 119.499C48.338 119.902 48.5686 120.227 48.8801 120.474C49.1916 120.722 49.5886 120.845 50.0711 120.845ZM54.9098 121.67V114.634H55.9542V115.696H56.0275C56.1558 115.348 56.3879 115.066 56.7238 114.849C57.0598 114.632 57.4384 114.524 57.8599 114.524C57.9393 114.524 58.0386 114.525 58.1577 114.528C58.2768 114.531 58.3669 114.536 58.4279 114.542V115.641C58.3913 115.632 58.3073 115.618 58.176 115.6C58.0477 115.579 57.9118 115.568 57.7683 115.568C57.4262 115.568 57.1208 115.64 56.8521 115.783C56.5864 115.924 56.3757 116.119 56.2199 116.37C56.0672 116.617 55.9909 116.9 55.9909 117.217V121.67H54.9098ZM64.1438 118.793V114.634H65.2249V121.67H64.1438V120.479H64.0705C63.9056 120.836 63.6491 121.14 63.3009 121.39C62.9528 121.638 62.513 121.762 61.9816 121.762C61.5418 121.762 61.1509 121.665 60.8089 121.473C60.4668 121.277 60.1981 120.984 60.0026 120.593C59.8072 120.199 59.7095 119.703 59.7095 119.105V114.634H60.7906V119.031C60.7906 119.544 60.9341 119.954 61.2212 120.259C61.5113 120.564 61.8808 120.717 62.3298 120.717C62.5985 120.717 62.8719 120.648 63.1498 120.511C63.4307 120.374 63.6659 120.163 63.8552 119.879C64.0476 119.595 64.1438 119.233 64.1438 118.793ZM68.2862 117.437V121.67H67.2051V114.634H68.2495V115.733H68.3411C68.5061 115.376 68.7565 115.089 69.0924 114.872C69.4284 114.652 69.862 114.542 70.3934 114.542C70.8698 114.542 71.2867 114.64 71.644 114.835C72.0013 115.028 72.2792 115.321 72.4778 115.715C72.6763 116.106 72.7755 116.6 72.7755 117.199V121.67H71.6944V117.272C71.6944 116.719 71.5509 116.289 71.2638 115.98C70.9767 115.669 70.5828 115.513 70.0819 115.513C69.7368 115.513 69.4284 115.588 69.1566 115.738C68.8878 115.887 68.6756 116.106 68.5198 116.393C68.364 116.68 68.2862 117.028 68.2862 117.437ZM79.1854 118.793V114.634H80.2665V121.67H79.1854V120.479H79.1121C78.9472 120.836 78.6907 121.14 78.3425 121.39C77.9944 121.638 77.5546 121.762 77.0232 121.762C76.5834 121.762 76.1925 121.665 75.8505 121.473C75.5084 121.277 75.2397 120.984 75.0442 120.593C74.8488 120.199 74.7511 119.703 74.7511 119.105V114.634H75.8322V119.031C75.8322 119.544 75.9757 119.954 76.2628 120.259C76.5529 120.564 76.9224 120.717 77.3714 120.717C77.6401 120.717 77.9135 120.648 78.1914 120.511C78.4723 120.374 78.7075 120.163 78.8968 119.879C79.0892 119.595 79.1854 119.233 79.1854 118.793ZM82.0451 121.67V120.845L86.0397 115.715V115.641H82.1734V114.634H87.4323V115.495L83.5477 120.589V120.662H87.5606V121.67H82.0451ZM93.6601 118.793V114.634H94.7413V121.67H93.6601V120.479H93.5868C93.4219 120.836 93.1654 121.14 92.8172 121.39C92.4691 121.638 92.0293 121.762 91.4979 121.762C91.0582 121.762 90.6672 121.665 90.3252 121.473C89.9832 121.277 89.7144 120.984 89.5189 120.593C89.3235 120.199 89.2258 119.703 89.2258 119.105V114.634H90.3069V119.031C90.3069 119.544 90.4504 119.954 90.7375 120.259C91.0276 120.564 91.3971 120.717 91.8461 120.717C92.1148 120.717 92.3882 120.648 92.6661 120.511C92.947 120.374 93.1822 120.163 93.3715 119.879C93.5639 119.595 93.6601 119.233 93.6601 118.793ZM100.496 121.67V112.288H101.577V115.751H101.669C101.748 115.629 101.858 115.473 101.999 115.284C102.142 115.092 102.347 114.921 102.612 114.771C102.881 114.618 103.245 114.542 103.703 114.542C104.295 114.542 104.817 114.69 105.269 114.986C105.721 115.283 106.074 115.702 106.328 116.246C106.581 116.79 106.708 117.431 106.708 118.17C106.708 118.915 106.581 119.561 106.328 120.108C106.074 120.651 105.723 121.073 105.274 121.372C104.825 121.668 104.307 121.817 103.721 121.817C103.269 121.817 102.907 121.742 102.635 121.592C102.364 121.439 102.154 121.267 102.008 121.074C101.861 120.879 101.748 120.717 101.669 120.589H101.541V121.67H100.496ZM101.559 118.152C101.559 118.683 101.637 119.152 101.793 119.558C101.948 119.961 102.176 120.277 102.475 120.506C102.774 120.732 103.141 120.845 103.574 120.845C104.026 120.845 104.404 120.726 104.706 120.488C105.011 120.247 105.24 119.923 105.393 119.517C105.549 119.108 105.627 118.653 105.627 118.152C105.627 117.657 105.55 117.211 105.398 116.814C105.248 116.414 105.021 116.098 104.715 115.866C104.413 115.631 104.033 115.513 103.574 115.513C103.135 115.513 102.765 115.625 102.466 115.848C102.167 116.067 101.941 116.376 101.788 116.773C101.635 117.167 101.559 117.626 101.559 118.152ZM112.796 118.793V114.634H113.877V121.67H112.796V120.479H112.723C112.558 120.836 112.301 121.14 111.953 121.39C111.605 121.638 111.165 121.762 110.634 121.762C110.194 121.762 109.803 121.665 109.461 121.473C109.119 121.277 108.85 120.984 108.655 120.593C108.459 120.199 108.362 119.703 108.362 119.105V114.634H109.443V119.031C109.443 119.544 109.586 119.954 109.873 120.259C110.163 120.564 110.533 120.717 110.982 120.717C111.251 120.717 111.524 120.648 111.802 120.511C112.083 120.374 112.318 120.163 112.507 119.879C112.7 119.595 112.796 119.233 112.796 118.793ZM115.857 121.67V114.634H116.902V115.696H116.975C117.103 115.348 117.335 115.066 117.671 114.849C118.007 114.632 118.386 114.524 118.807 114.524C118.887 114.524 118.986 114.525 119.105 114.528C119.224 114.531 119.314 114.536 119.375 114.542V115.641C119.339 115.632 119.255 115.618 119.123 115.6C118.995 115.579 118.859 115.568 118.716 115.568C118.374 115.568 118.068 115.64 117.8 115.783C117.534 115.924 117.323 116.119 117.167 116.37C117.015 116.617 116.938 116.9 116.938 117.217V121.67H115.857ZM122.728 121.835C122.282 121.835 121.877 121.751 121.514 121.583C121.15 121.412 120.862 121.166 120.648 120.845C120.434 120.522 120.327 120.131 120.327 119.673C120.327 119.269 120.406 118.943 120.565 118.692C120.724 118.439 120.936 118.24 121.202 118.097C121.468 117.953 121.761 117.846 122.082 117.776C122.405 117.703 122.731 117.645 123.057 117.602C123.485 117.547 123.832 117.506 124.097 117.478C124.366 117.448 124.561 117.397 124.684 117.327C124.809 117.257 124.871 117.135 124.871 116.961V116.924C124.871 116.472 124.748 116.121 124.5 115.87C124.256 115.62 123.885 115.495 123.387 115.495C122.871 115.495 122.466 115.608 122.173 115.834C121.88 116.06 121.674 116.301 121.555 116.558L120.529 116.191C120.712 115.764 120.956 115.431 121.262 115.192C121.57 114.951 121.906 114.783 122.269 114.689C122.636 114.591 122.996 114.542 123.351 114.542C123.577 114.542 123.836 114.569 124.129 114.624C124.426 114.676 124.711 114.785 124.986 114.95C125.264 115.115 125.494 115.363 125.678 115.696C125.861 116.029 125.953 116.475 125.953 117.034V121.67H124.871V120.717H124.816C124.743 120.87 124.621 121.033 124.45 121.207C124.279 121.381 124.051 121.529 123.767 121.652C123.483 121.774 123.137 121.835 122.728 121.835ZM122.892 120.864C123.32 120.864 123.68 120.78 123.974 120.612C124.27 120.444 124.493 120.227 124.642 119.961C124.795 119.696 124.871 119.416 124.871 119.123V118.133C124.826 118.188 124.725 118.239 124.569 118.285C124.416 118.327 124.239 118.366 124.038 118.399C123.839 118.43 123.645 118.457 123.456 118.482C123.27 118.503 123.118 118.521 123.002 118.537C122.721 118.573 122.459 118.633 122.214 118.715C121.973 118.795 121.778 118.915 121.628 119.077C121.481 119.236 121.408 119.453 121.408 119.728C121.408 120.103 121.547 120.387 121.825 120.58C122.106 120.769 122.462 120.864 122.892 120.864ZM128.37 124.309C128.187 124.309 128.023 124.293 127.88 124.263C127.736 124.235 127.637 124.208 127.582 124.18L127.857 123.227C128.12 123.295 128.352 123.319 128.553 123.301C128.755 123.282 128.934 123.192 129.089 123.03C129.248 122.872 129.393 122.614 129.525 122.256L129.726 121.707L127.124 114.634H128.297L130.239 120.241H130.312L132.255 114.634H133.428L130.441 122.696C130.306 123.059 130.14 123.36 129.941 123.599C129.743 123.84 129.512 124.018 129.25 124.134C128.99 124.251 128.697 124.309 128.37 124.309ZM136.711 121.835C136.265 121.835 135.86 121.751 135.497 121.583C135.134 121.412 134.845 121.166 134.631 120.845C134.417 120.522 134.31 120.131 134.31 119.673C134.31 119.269 134.39 118.943 134.549 118.692C134.708 118.439 134.92 118.24 135.185 118.097C135.451 117.953 135.744 117.846 136.065 117.776C136.389 117.703 136.714 117.645 137.041 117.602C137.468 117.547 137.815 117.506 138.081 117.478C138.349 117.448 138.545 117.397 138.667 117.327C138.792 117.257 138.855 117.135 138.855 116.961V116.924C138.855 116.472 138.731 116.121 138.484 115.87C138.239 115.62 137.868 115.495 137.371 115.495C136.854 115.495 136.45 115.608 136.157 115.834C135.863 116.06 135.657 116.301 135.538 116.558L134.512 116.191C134.695 115.764 134.94 115.431 135.245 115.192C135.553 114.951 135.889 114.783 136.253 114.689C136.619 114.591 136.98 114.542 137.334 114.542C137.56 114.542 137.82 114.569 138.113 114.624C138.409 114.676 138.694 114.785 138.969 114.95C139.247 115.115 139.478 115.363 139.661 115.696C139.844 116.029 139.936 116.475 139.936 117.034V121.67H138.855V120.717H138.8C138.727 120.87 138.604 121.033 138.433 121.207C138.262 121.381 138.035 121.529 137.751 121.652C137.467 121.774 137.12 121.835 136.711 121.835ZM136.876 120.864C137.303 120.864 137.664 120.78 137.957 120.612C138.253 120.444 138.476 120.227 138.626 119.961C138.778 119.696 138.855 119.416 138.855 119.123V118.133C138.809 118.188 138.708 118.239 138.552 118.285C138.4 118.327 138.223 118.366 138.021 118.399C137.823 118.43 137.629 118.457 137.439 118.482C137.253 118.503 137.102 118.521 136.986 118.537C136.705 118.573 136.442 118.633 136.198 118.715C135.957 118.795 135.761 118.915 135.611 119.077C135.465 119.236 135.392 119.453 135.392 119.728C135.392 120.103 135.531 120.387 135.808 120.58C136.089 120.769 136.445 120.864 136.876 120.864ZM146.234 124.309C146.05 124.309 145.887 124.293 145.743 124.263C145.6 124.235 145.501 124.208 145.446 124.18L145.721 123.227C145.983 123.295 146.215 123.319 146.417 123.301C146.618 123.282 146.797 123.192 146.953 123.03C147.112 122.872 147.257 122.614 147.388 122.256L147.59 121.707L144.988 114.634H146.16L148.103 120.241H148.176L150.118 114.634H151.291L148.304 122.696C148.17 123.059 148.003 123.36 147.805 123.599C147.606 123.84 147.376 124.018 147.113 124.134C146.854 124.251 146.56 124.309 146.234 124.309ZM154.574 121.835C154.129 121.835 153.724 121.751 153.36 121.583C152.997 121.412 152.708 121.166 152.495 120.845C152.281 120.522 152.174 120.131 152.174 119.673C152.174 119.269 152.253 118.943 152.412 118.692C152.571 118.439 152.783 118.24 153.049 118.097C153.315 117.953 153.608 117.846 153.928 117.776C154.252 117.703 154.577 117.645 154.904 117.602C155.332 117.547 155.678 117.506 155.944 117.478C156.213 117.448 156.408 117.397 156.53 117.327C156.656 117.257 156.718 117.135 156.718 116.961V116.924C156.718 116.472 156.595 116.121 156.347 115.87C156.103 115.62 155.732 115.495 155.234 115.495C154.718 115.495 154.313 115.608 154.02 115.834C153.727 116.06 153.521 116.301 153.402 116.558L152.376 116.191C152.559 115.764 152.803 115.431 153.108 115.192C153.417 114.951 153.753 114.783 154.116 114.689C154.483 114.591 154.843 114.542 155.197 114.542C155.423 114.542 155.683 114.569 155.976 114.624C156.272 114.676 156.558 114.785 156.833 114.95C157.111 115.115 157.341 115.363 157.525 115.696C157.708 116.029 157.799 116.475 157.799 117.034V121.67H156.718V120.717H156.663C156.59 120.87 156.468 121.033 156.297 121.207C156.126 121.381 155.898 121.529 155.614 121.652C155.33 121.774 154.984 121.835 154.574 121.835ZM154.739 120.864C155.167 120.864 155.527 120.78 155.82 120.612C156.117 120.444 156.34 120.227 156.489 119.961C156.642 119.696 156.718 119.416 156.718 119.123V118.133C156.672 118.188 156.572 118.239 156.416 118.285C156.263 118.327 156.086 118.366 155.885 118.399C155.686 118.43 155.492 118.457 155.303 118.482C155.116 118.503 154.965 118.521 154.849 118.537C154.568 118.573 154.306 118.633 154.061 118.715C153.82 118.795 153.625 118.915 153.475 119.077C153.328 119.236 153.255 119.453 153.255 119.728C153.255 120.103 153.394 120.387 153.672 120.58C153.953 120.769 154.309 120.864 154.739 120.864ZM159.571 121.67V120.845L163.566 115.715V115.641H159.699V114.634H164.958V115.495L161.074 120.589V120.662H165.087V121.67H159.571ZM166.752 121.67V114.634H167.833V121.67H166.752ZM170.894 117.437V121.67H169.813V114.634H170.857V115.733H170.949C171.114 115.376 171.364 115.089 171.7 114.872C172.036 114.652 172.47 114.542 173.001 114.542C173.478 114.542 173.895 114.64 174.252 114.835C174.609 115.028 174.887 115.321 175.086 115.715C175.284 116.106 175.383 116.6 175.383 117.199V121.67H174.302V117.272C174.302 116.719 174.159 116.289 173.872 115.98C173.585 115.669 173.191 115.513 172.69 115.513C172.345 115.513 172.036 115.588 171.764 115.738C171.496 115.887 171.283 116.106 171.128 116.393C170.972 116.68 170.894 117.028 170.894 117.437ZM178.147 121.743C177.921 121.743 177.727 121.662 177.565 121.5C177.403 121.339 177.322 121.145 177.322 120.919C177.322 120.693 177.403 120.499 177.565 120.337C177.727 120.175 177.921 120.094 178.147 120.094C178.373 120.094 178.567 120.175 178.729 120.337C178.891 120.499 178.971 120.693 178.971 120.919C178.971 121.068 178.933 121.206 178.857 121.331C178.784 121.456 178.684 121.557 178.559 121.633C178.437 121.707 178.3 121.743 178.147 121.743Z" fill="#737373"/>
<path d="M28.8141 158H27.5911L30.3391 150.364H31.6703L34.4183 158H33.1953L31.0364 151.751H30.9767L28.8141 158ZM29.0192 155.01H32.9865V155.979H29.0192V155.01ZM41.7797 152.847H40.6164C40.5716 152.598 40.4883 152.38 40.3665 152.191C40.2447 152.002 40.0956 151.841 39.9191 151.71C39.7426 151.578 39.545 151.479 39.3262 151.411C39.11 151.344 38.88 151.311 38.6364 151.311C38.1964 151.311 37.8024 151.421 37.4544 151.643C37.1089 151.864 36.8355 152.188 36.6341 152.616C36.4352 153.043 36.3358 153.565 36.3358 154.182C36.3358 154.803 36.4352 155.328 36.6341 155.755C36.8355 156.183 37.1101 156.506 37.4581 156.725C37.8062 156.944 38.1977 157.053 38.6327 157.053C38.8738 157.053 39.1025 157.021 39.3188 156.956C39.5375 156.889 39.7351 156.791 39.9116 156.661C40.0881 156.532 40.2373 156.374 40.3591 156.188C40.4834 155.999 40.5691 155.783 40.6164 155.539L41.7797 155.543C41.7176 155.918 41.597 156.264 41.418 156.579C41.2415 156.893 41.0141 157.164 40.7357 157.392C40.4597 157.618 40.1441 157.794 39.7886 157.918C39.4331 158.042 39.0453 158.104 38.6252 158.104C37.964 158.104 37.3749 157.948 36.8578 157.635C36.3408 157.319 35.9331 156.868 35.6348 156.281C35.339 155.694 35.1911 154.995 35.1911 154.182C35.1911 153.366 35.3403 152.667 35.6385 152.083C35.9368 151.496 36.3445 151.046 36.8616 150.733C37.3786 150.417 37.9665 150.259 38.6252 150.259C39.0304 150.259 39.4083 150.318 39.7588 150.434C40.1117 150.549 40.4287 150.718 40.7096 150.942C40.9905 151.163 41.2229 151.434 41.4068 151.754C41.5908 152.073 41.7151 152.437 41.7797 152.847ZM38.2337 158.011H38.9645L38.9049 158.317C39.1211 158.352 39.3101 158.439 39.4716 158.578C39.6332 158.717 39.714 158.927 39.714 159.208C39.7165 159.544 39.5711 159.816 39.2778 160.025C38.9869 160.233 38.5656 160.338 38.0137 160.338L37.9914 159.715C38.2499 159.715 38.4587 159.678 38.6178 159.603C38.7794 159.529 38.8614 159.408 38.8639 159.242C38.8664 159.075 38.8042 158.958 38.6774 158.891C38.5531 158.824 38.3543 158.777 38.0808 158.749L38.2337 158.011ZM44.5856 150.364V158H43.4334V150.364H44.5856ZM46.5385 158V150.364H47.6906V154.01H47.7839L50.9868 150.364H52.4373L49.3574 153.801L52.4484 158H51.0614L48.593 154.588L47.6906 155.625V158H46.5385ZM53.7861 158V150.364H54.9383V157.008H58.3985V158H53.7861ZM61.0226 158H59.7996L62.5476 150.364H63.8788L66.6268 158H65.4038L63.2449 151.751H63.1852L61.0226 158ZM61.2277 155.01H65.195V155.979H61.2277V155.01ZM68.0046 150.364H69.4028L71.834 156.3H71.9234L74.3545 150.364H75.7528V158H74.6566V152.474H74.5857L72.3336 157.989H71.4238L69.1717 152.47H69.1008V158H68.0046V150.364ZM78.348 158H77.125L79.873 150.364H81.2042L83.9522 158H82.7292L80.5703 151.751H80.5106L78.348 158ZM78.5531 155.01H82.5204V155.979H78.5531V155.01Z" fill="#A1A1A1"/>
<rect x="25.3301" y="169" width="621.33" height="34.66" rx="8" fill="#171717" fill-opacity="0.6"/>
<rect x="25.8301" y="169.5" width="620.33" height="33.66" rx="7.5" stroke="white" stroke-opacity="0.1"/>
<g clip-path="url(#clip0_1005_333)">
<path d="M39.5295 191.33H38.3292L41.8008 181.875H42.9826L46.4542 191.33H45.2539L42.4286 183.371H42.3548L39.5295 191.33ZM39.9727 187.637H44.8107V188.652H39.9727V187.637ZM50.6598 191.478C49.9951 191.478 49.4226 191.321 48.9425 191.007C48.4624 190.693 48.0931 190.26 47.8345 189.71C47.576 189.159 47.4468 188.529 47.4468 187.821C47.4468 187.101 47.5791 186.466 47.8438 185.915C48.1115 185.361 48.4839 184.928 48.961 184.618C49.4411 184.304 50.0012 184.147 50.6414 184.147C51.1399 184.147 51.5893 184.239 51.9894 184.424C52.3895 184.608 52.7172 184.867 52.9727 185.199C53.2281 185.532 53.3866 185.919 53.4482 186.363H52.3587C52.2756 186.039 52.0909 185.753 51.8047 185.504C51.5216 185.252 51.1399 185.125 50.6598 185.125C50.2351 185.125 49.8627 185.236 49.5426 185.458C49.2256 185.676 48.9779 185.986 48.7994 186.386C48.624 186.783 48.5362 187.249 48.5362 187.785C48.5362 188.332 48.6224 188.809 48.7948 189.216C48.9702 189.622 49.2164 189.937 49.5334 190.162C49.8535 190.387 50.229 190.499 50.6598 190.499C50.943 190.499 51.2 190.45 51.4308 190.351C51.6616 190.253 51.857 190.111 52.0171 189.927C52.1771 189.742 52.291 189.52 52.3587 189.262H53.4482C53.3866 189.68 53.2343 190.057 52.9911 190.393C52.7511 190.725 52.4326 190.99 52.0355 191.187C51.6416 191.381 51.183 191.478 50.6598 191.478ZM50.1428 191.293H51.0476L50.9737 191.662C51.2138 191.699 51.4339 191.799 51.6339 191.962C51.8339 192.129 51.934 192.392 51.934 192.752C51.934 193.149 51.7693 193.472 51.44 193.721C51.1138 193.974 50.6321 194.1 49.9951 194.1L49.9581 193.38C50.2443 193.38 50.4813 193.334 50.6691 193.241C50.8599 193.152 50.9553 193.001 50.9553 192.789C50.9553 192.576 50.8768 192.432 50.7198 192.355C50.5629 192.278 50.309 192.226 49.9581 192.198L50.1428 191.293ZM55.0409 191.33V184.239H56.1303V191.33H55.0409ZM59.1414 188.745L59.123 187.397H59.3446L62.4468 184.239H63.7949L60.4895 187.581H60.3971L59.1414 188.745ZM58.1258 191.33V181.875H59.2153V191.33H58.1258ZM62.6315 191.33L59.8616 187.821L60.6372 187.064L64.0164 191.33H62.6315ZM66.2866 181.875V191.33H65.1971V181.875H66.2866ZM70.3687 191.496C69.9194 191.496 69.5116 191.412 69.1454 191.242C68.7791 191.07 68.4883 190.822 68.2728 190.499C68.0574 190.173 67.9497 189.779 67.9497 189.317C67.9497 188.911 68.0297 188.582 68.1897 188.329C68.3498 188.074 68.5637 187.874 68.8314 187.729C69.0992 187.584 69.3946 187.477 69.7178 187.406C70.044 187.332 70.3718 187.274 70.7011 187.231C71.132 187.175 71.4813 187.134 71.749 187.106C72.0199 187.075 72.2168 187.024 72.34 186.954C72.4661 186.883 72.5292 186.76 72.5292 186.584V186.547C72.5292 186.092 72.4046 185.738 72.1553 185.485C71.9091 185.233 71.5351 185.107 71.0335 185.107C70.5134 185.107 70.1056 185.221 69.8101 185.449C69.5147 185.676 69.3069 185.919 69.1869 186.178L68.1528 185.809C68.3375 185.378 68.5837 185.042 68.8914 184.802C69.2023 184.559 69.5408 184.39 69.9071 184.294C70.2764 184.196 70.6396 184.147 70.9966 184.147C71.2243 184.147 71.4859 184.174 71.7814 184.23C72.0799 184.282 72.3677 184.391 72.6446 184.558C72.9247 184.724 73.1571 184.975 73.3417 185.31C73.5264 185.646 73.6187 186.095 73.6187 186.658V191.33H72.5292V190.37H72.4738C72.4 190.524 72.2769 190.688 72.1045 190.864C71.9322 191.039 71.7029 191.188 71.4167 191.311C71.1304 191.435 70.7811 191.496 70.3687 191.496ZM70.5349 190.517C70.9658 190.517 71.3289 190.433 71.6244 190.264C71.9229 190.094 72.1476 189.876 72.2984 189.608C72.4523 189.34 72.5292 189.059 72.5292 188.763V187.766C72.4831 187.821 72.3815 187.872 72.2245 187.918C72.0707 187.961 71.8922 188 71.689 188.034C71.489 188.065 71.2936 188.092 71.1027 188.117C70.915 188.138 70.7627 188.157 70.6457 188.172C70.3626 188.209 70.0979 188.269 69.8517 188.352C69.6085 188.432 69.4116 188.554 69.2608 188.717C69.113 188.877 69.0392 189.096 69.0392 189.373C69.0392 189.751 69.1792 190.037 69.4593 190.231C69.7424 190.422 70.101 190.517 70.5349 190.517ZM75.6073 191.33V184.239H76.6598V185.347H76.7522C76.8999 184.968 77.1384 184.675 77.4677 184.465C77.797 184.253 78.1925 184.147 78.6541 184.147C79.1219 184.147 79.5113 184.253 79.8221 184.465C80.136 184.675 80.3807 184.968 80.5561 185.347H80.63C80.8116 184.981 81.0839 184.69 81.4471 184.474C81.8103 184.256 82.2458 184.147 82.7536 184.147C83.3876 184.147 83.9062 184.345 84.3093 184.742C84.7125 185.136 84.9141 185.75 84.9141 186.584V191.33H83.8246V186.584C83.8246 186.061 83.6815 185.687 83.3953 185.462C83.109 185.238 82.772 185.125 82.3843 185.125C81.8857 185.125 81.4994 185.276 81.2255 185.578C80.9516 185.876 80.8147 186.255 80.8147 186.713V191.33H79.7067V186.473C79.7067 186.07 79.5759 185.746 79.3143 185.499C79.0527 185.25 78.7157 185.125 78.3033 185.125C78.0201 185.125 77.7555 185.201 77.5093 185.352C77.2661 185.502 77.0692 185.712 76.9183 185.979C76.7706 186.244 76.6968 186.55 76.6968 186.898V191.33H75.6073ZM88.9927 191.496C88.5434 191.496 88.1356 191.412 87.7694 191.242C87.4031 191.07 87.1123 190.822 86.8969 190.499C86.6814 190.173 86.5737 189.779 86.5737 189.317C86.5737 188.911 86.6537 188.582 86.8138 188.329C86.9738 188.074 87.1877 187.874 87.4555 187.729C87.7232 187.584 88.0187 187.477 88.3418 187.406C88.6681 187.332 88.9958 187.274 89.3251 187.231C89.756 187.175 90.1053 187.134 90.3731 187.106C90.6439 187.075 90.8409 187.024 90.964 186.954C91.0902 186.883 91.1533 186.76 91.1533 186.584V186.547C91.1533 186.092 91.0286 185.738 90.7793 185.485C90.5331 185.233 90.1592 185.107 89.6575 185.107C89.1374 185.107 88.7296 185.221 88.4341 185.449C88.1387 185.676 87.931 185.919 87.8109 186.178L86.7768 185.809C86.9615 185.378 87.2077 185.042 87.5155 184.802C87.8263 184.559 88.1649 184.39 88.5311 184.294C88.9004 184.196 89.2636 184.147 89.6206 184.147C89.8483 184.147 90.1099 184.174 90.4054 184.23C90.7039 184.282 90.9917 184.391 91.2687 184.558C91.5487 184.724 91.7811 184.975 91.9658 185.31C92.1504 185.646 92.2427 186.095 92.2427 186.658V191.33H91.1533V190.37H91.0979C91.024 190.524 90.9009 190.688 90.7285 190.864C90.5562 191.039 90.3269 191.188 90.0407 191.311C89.7545 191.435 89.4051 191.496 88.9927 191.496ZM89.1589 190.517C89.5898 190.517 89.953 190.433 90.2484 190.264C90.547 190.094 90.7716 189.876 90.9224 189.608C91.0763 189.34 91.1533 189.059 91.1533 188.763V187.766C91.1071 187.821 91.0055 187.872 90.8486 187.918C90.6947 187.961 90.5162 188 90.3131 188.034C90.113 188.065 89.9176 188.092 89.7268 188.117C89.539 188.138 89.3867 188.157 89.2697 188.172C88.9866 188.209 88.7219 188.269 88.4757 188.352C88.2326 188.432 88.0356 188.554 87.8848 188.717C87.7371 188.877 87.6632 189.096 87.6632 189.373C87.6632 189.751 87.8032 190.037 88.0833 190.231C88.3664 190.422 88.725 190.517 89.1589 190.517ZM95.3208 187.064V191.33H94.2313V184.239H95.2838V185.347H95.3762C95.5424 184.987 95.7947 184.698 96.1333 184.479C96.4718 184.258 96.9088 184.147 97.4444 184.147C97.9245 184.147 98.3446 184.245 98.7047 184.442C99.0647 184.636 99.3448 184.932 99.5449 185.329C99.7449 185.722 99.8449 186.221 99.8449 186.824V191.33H98.7554V186.898C98.7554 186.341 98.6108 185.907 98.3215 185.596C98.0322 185.282 97.6352 185.125 97.1304 185.125C96.7827 185.125 96.4718 185.201 96.1979 185.352C95.9271 185.502 95.7132 185.722 95.5562 186.012C95.3993 186.301 95.3208 186.652 95.3208 187.064ZM101.836 191.33V184.239H102.925V191.33H101.836ZM104.718 191.33V190.499L108.743 185.329V185.255H104.847V184.239H110.147V185.107L106.232 190.24V190.314H110.276V191.33H104.718ZM111.954 191.33V184.239H113.043V191.33H111.954ZM118.843 191.33V181.875H119.932V185.365H120.025C120.105 185.242 120.216 185.085 120.357 184.895C120.502 184.701 120.708 184.528 120.976 184.378C121.247 184.224 121.613 184.147 122.074 184.147C122.671 184.147 123.198 184.296 123.653 184.595C124.109 184.893 124.464 185.316 124.72 185.864C124.975 186.412 125.103 187.058 125.103 187.803C125.103 188.554 124.975 189.205 124.72 189.756C124.464 190.304 124.11 190.728 123.658 191.03C123.205 191.328 122.684 191.478 122.093 191.478C121.637 191.478 121.273 191.402 120.999 191.251C120.725 191.098 120.514 190.924 120.366 190.73C120.219 190.533 120.105 190.37 120.025 190.24H119.895V191.33H118.843ZM119.914 187.785C119.914 188.32 119.992 188.792 120.149 189.202C120.306 189.608 120.536 189.927 120.837 190.157C121.139 190.385 121.508 190.499 121.945 190.499C122.401 190.499 122.781 190.379 123.085 190.139C123.393 189.896 123.624 189.57 123.778 189.16C123.935 188.748 124.013 188.289 124.013 187.785C124.013 187.286 123.936 186.837 123.783 186.436C123.632 186.033 123.402 185.715 123.095 185.481C122.79 185.244 122.407 185.125 121.945 185.125C121.502 185.125 121.13 185.238 120.828 185.462C120.526 185.684 120.299 185.995 120.145 186.395C119.991 186.792 119.914 187.255 119.914 187.785ZM131.238 188.431V184.239H132.328V191.33H131.238V190.13H131.164C130.998 190.49 130.74 190.796 130.389 191.048C130.038 191.298 129.595 191.422 129.059 191.422C128.616 191.422 128.222 191.325 127.877 191.131C127.533 190.934 127.262 190.639 127.065 190.245C126.868 189.848 126.769 189.348 126.769 188.745V184.239H127.859V188.671C127.859 189.188 128.004 189.6 128.293 189.908C128.585 190.216 128.958 190.37 129.41 190.37C129.681 190.37 129.956 190.3 130.236 190.162C130.519 190.023 130.756 189.811 130.947 189.525C131.141 189.239 131.238 188.874 131.238 188.431ZM134.323 191.33V184.239H135.376V185.31H135.45C135.579 184.959 135.813 184.675 136.151 184.456C136.49 184.238 136.871 184.128 137.296 184.128C137.376 184.128 137.476 184.13 137.596 184.133C137.716 184.136 137.807 184.141 137.869 184.147V185.255C137.832 185.245 137.747 185.232 137.615 185.213C137.485 185.192 137.348 185.181 137.204 185.181C136.859 185.181 136.551 185.253 136.28 185.398C136.013 185.539 135.8 185.736 135.643 185.989C135.49 186.238 135.413 186.523 135.413 186.843V191.33H134.323ZM141.247 191.496C140.797 191.496 140.39 191.412 140.023 191.242C139.657 191.07 139.366 190.822 139.151 190.499C138.935 190.173 138.828 189.779 138.828 189.317C138.828 188.911 138.908 188.582 139.068 188.329C139.228 188.074 139.442 187.874 139.709 187.729C139.977 187.584 140.273 187.477 140.596 187.406C140.922 187.332 141.25 187.274 141.579 187.231C142.01 187.175 142.359 187.134 142.627 187.106C142.898 187.075 143.095 187.024 143.218 186.954C143.344 186.883 143.407 186.76 143.407 186.584V186.547C143.407 186.092 143.283 185.738 143.033 185.485C142.787 185.233 142.413 185.107 141.911 185.107C141.391 185.107 140.984 185.221 140.688 185.449C140.393 185.676 140.185 185.919 140.065 186.178L139.031 185.809C139.215 185.378 139.462 185.042 139.769 184.802C140.08 184.559 140.419 184.39 140.785 184.294C141.154 184.196 141.517 184.147 141.874 184.147C142.102 184.147 142.364 184.174 142.659 184.23C142.958 184.282 143.246 184.391 143.523 184.558C143.803 184.724 144.035 184.975 144.22 185.31C144.404 185.646 144.497 186.095 144.497 186.658V191.33H143.407V190.37H143.352C143.278 190.524 143.155 190.688 142.982 190.864C142.81 191.039 142.581 191.188 142.295 191.311C142.008 191.435 141.659 191.496 141.247 191.496ZM141.413 190.517C141.844 190.517 142.207 190.433 142.502 190.264C142.801 190.094 143.026 189.876 143.176 189.608C143.33 189.34 143.407 189.059 143.407 188.763V187.766C143.361 187.821 143.259 187.872 143.102 187.918C142.949 187.961 142.77 188 142.567 188.034C142.367 188.065 142.171 188.092 141.981 188.117C141.793 188.138 141.641 188.157 141.524 188.172C141.24 188.209 140.976 188.269 140.73 188.352C140.486 188.432 140.289 188.554 140.139 188.717C139.991 188.877 139.917 189.096 139.917 189.373C139.917 189.751 140.057 190.037 140.337 190.231C140.62 190.422 140.979 190.517 141.413 190.517ZM146.933 193.989C146.748 193.989 146.584 193.974 146.439 193.943C146.294 193.915 146.194 193.887 146.139 193.86L146.416 192.9C146.681 192.967 146.915 192.992 147.118 192.973C147.321 192.955 147.501 192.864 147.658 192.701C147.818 192.541 147.964 192.281 148.096 191.921L148.299 191.367L145.677 184.239H146.859L148.817 189.89H148.89L150.848 184.239H152.03L149.02 192.364C148.884 192.73 148.716 193.033 148.516 193.273C148.316 193.517 148.084 193.697 147.819 193.814C147.558 193.931 147.262 193.989 146.933 193.989ZM155.338 191.496C154.889 191.496 154.481 191.412 154.115 191.242C153.749 191.07 153.458 190.822 153.243 190.499C153.027 190.173 152.919 189.779 152.919 189.317C152.919 188.911 152.999 188.582 153.159 188.329C153.32 188.074 153.533 187.874 153.801 187.729C154.069 187.584 154.364 187.477 154.688 187.406C155.014 187.332 155.342 187.274 155.671 187.231C156.102 187.175 156.451 187.134 156.719 187.106C156.99 187.075 157.187 187.024 157.31 186.954C157.436 186.883 157.499 186.76 157.499 186.584V186.547C157.499 186.092 157.374 185.738 157.125 185.485C156.879 185.233 156.505 185.107 156.003 185.107C155.483 185.107 155.075 185.221 154.78 185.449C154.484 185.676 154.277 185.919 154.157 186.178L153.123 185.809C153.307 185.378 153.553 185.042 153.861 184.802C154.172 184.559 154.511 184.39 154.877 184.294C155.246 184.196 155.609 184.147 155.966 184.147C156.194 184.147 156.456 184.174 156.751 184.23C157.05 184.282 157.337 184.391 157.614 184.558C157.894 184.724 158.127 184.975 158.311 185.31C158.496 185.646 158.588 186.095 158.588 186.658V191.33H157.499V190.37H157.444C157.37 190.524 157.247 190.688 157.074 190.864C156.902 191.039 156.673 191.188 156.386 191.311C156.1 191.435 155.751 191.496 155.338 191.496ZM155.505 190.517C155.936 190.517 156.299 190.433 156.594 190.264C156.893 190.094 157.117 189.876 157.268 189.608C157.422 189.34 157.499 189.059 157.499 188.763V187.766C157.453 187.821 157.351 187.872 157.194 187.918C157.04 187.961 156.862 188 156.659 188.034C156.459 188.065 156.263 188.092 156.072 188.117C155.885 188.138 155.732 188.157 155.615 188.172C155.332 188.209 155.068 188.269 154.821 188.352C154.578 188.432 154.381 188.554 154.23 188.717C154.083 188.877 154.009 189.096 154.009 189.373C154.009 189.751 154.149 190.037 154.429 190.231C154.712 190.422 155.071 190.517 155.505 190.517ZM164.935 193.989C164.75 193.989 164.586 193.974 164.441 193.943C164.296 193.915 164.196 193.887 164.141 193.86L164.418 192.9C164.683 192.967 164.916 192.992 165.12 192.973C165.323 192.955 165.503 192.864 165.66 192.701C165.82 192.541 165.966 192.281 166.098 191.921L166.301 191.367L163.679 184.239H164.861L166.818 189.89H166.892L168.85 184.239H170.032L167.022 192.364C166.886 192.73 166.718 193.033 166.518 193.273C166.318 193.517 166.086 193.697 165.821 193.814C165.56 193.931 165.264 193.989 164.935 193.989ZM173.34 191.496C172.891 191.496 172.483 191.412 172.117 191.242C171.751 191.07 171.46 190.822 171.245 190.499C171.029 190.173 170.921 189.779 170.921 189.317C170.921 188.911 171.001 188.582 171.161 188.329C171.321 188.074 171.535 187.874 171.803 187.729C172.071 187.584 172.366 187.477 172.689 187.406C173.016 187.332 173.343 187.274 173.673 187.231C174.104 187.175 174.453 187.134 174.721 187.106C174.992 187.075 175.189 187.024 175.312 186.954C175.438 186.883 175.501 186.76 175.501 186.584V186.547C175.501 186.092 175.376 185.738 175.127 185.485C174.881 185.233 174.507 185.107 174.005 185.107C173.485 185.107 173.077 185.221 172.782 185.449C172.486 185.676 172.279 185.919 172.159 186.178L171.124 185.809C171.309 185.378 171.555 185.042 171.863 184.802C172.174 184.559 172.513 184.39 172.879 184.294C173.248 184.196 173.611 184.147 173.968 184.147C174.196 184.147 174.458 184.174 174.753 184.23C175.052 184.282 175.339 184.391 175.616 184.558C175.896 184.724 176.129 184.975 176.313 185.31C176.498 185.646 176.59 186.095 176.59 186.658V191.33H175.501V190.37H175.446C175.372 190.524 175.249 190.688 175.076 190.864C174.904 191.039 174.675 191.188 174.388 191.311C174.102 191.435 173.753 191.496 173.34 191.496ZM173.507 190.517C173.937 190.517 174.301 190.433 174.596 190.264C174.895 190.094 175.119 189.876 175.27 189.608C175.424 189.34 175.501 189.059 175.501 188.763V187.766C175.455 187.821 175.353 187.872 175.196 187.918C175.042 187.961 174.864 188 174.661 188.034C174.461 188.065 174.265 188.092 174.074 188.117C173.887 188.138 173.734 188.157 173.617 188.172C173.334 188.209 173.07 188.269 172.823 188.352C172.58 188.432 172.383 188.554 172.232 188.717C172.085 188.877 172.011 189.096 172.011 189.373C172.011 189.751 172.151 190.037 172.431 190.231C172.714 190.422 173.073 190.517 173.507 190.517ZM178.376 191.33V190.499L182.401 185.329V185.255H178.505V184.239H183.805V185.107L179.89 190.24V190.314H183.934V191.33H178.376ZM185.612 191.33V184.239H186.702V191.33H185.612ZM189.787 187.064V191.33H188.697V184.239H189.75V185.347H189.842C190.008 184.987 190.261 184.698 190.599 184.479C190.938 184.258 191.375 184.147 191.91 184.147C192.39 184.147 192.81 184.245 193.17 184.442C193.531 184.636 193.811 184.932 194.011 185.329C194.211 185.722 194.311 186.221 194.311 186.824V191.33H193.221V186.898C193.221 186.341 193.077 185.907 192.787 185.596C192.498 185.282 192.101 185.125 191.596 185.125C191.248 185.125 190.938 185.201 190.664 185.352C190.393 185.502 190.179 185.722 190.022 186.012C189.865 186.301 189.787 186.652 189.787 187.064ZM197.096 191.404C196.868 191.404 196.672 191.322 196.509 191.159C196.346 190.996 196.265 190.801 196.265 190.573C196.265 190.345 196.346 190.15 196.509 189.987C196.672 189.823 196.868 189.742 197.096 189.742C197.323 189.742 197.519 189.823 197.682 189.987C197.845 190.15 197.927 190.345 197.927 190.573C197.927 190.724 197.888 190.862 197.811 190.988C197.737 191.115 197.637 191.216 197.511 191.293C197.388 191.367 197.25 191.404 197.096 191.404Z" fill="#737373"/>
</g>
<defs>
<clipPath id="clip0_1005_333">
<rect width="596" height="16" fill="white" transform="translate(37.9968 178.33)"/>
</clipPath>
</defs>
</svg>
