<svg width="616" height="213" viewBox="0 0 616 213" fill="none" xmlns="http://www.w3.org/2000/svg">
<rect width="616" height="212.32" rx="12" fill="#171717"/>
<rect x="0.5" y="0.5" width="615" height="211.32" rx="11.5" stroke="white" stroke-opacity="0.05"/>
<rect x="13" y="14.1667" width="24" height="24" rx="6" fill="white" fill-opacity="0.05"/>
<rect x="13.5" y="14.6667" width="23" height="23" rx="5.5" stroke="white" stroke-opacity="0.1"/>
<path d="M25.0029 29.8533C24.7228 29.8533 24.4828 29.7548 24.2827 29.5578C24.0827 29.3608 23.9842 29.1208 23.9873 28.8376C23.9842 28.5607 24.0827 28.3237 24.2827 28.1267C24.4828 27.9297 24.7228 27.8313 25.0029 27.8313C25.2737 27.8313 25.5092 27.9297 25.7092 28.1267C25.9123 28.3237 26.0154 28.5607 26.0185 28.8376C26.0154 29.0254 25.9662 29.1962 25.8708 29.3501C25.7785 29.504 25.6553 29.6271 25.5015 29.7194C25.3507 29.8086 25.1845 29.8533 25.0029 29.8533Z" fill="#A1A1A1"/>
<g clip-path="url(#clip0_8_67)">
<path d="M56.1734 21.6394H57.6155V27.9056C57.6155 28.5724 57.4589 29.1632 57.1456 29.6781C56.8324 30.1898 56.392 30.5929 55.8245 30.8876C55.2569 31.1791 54.5917 31.3249 53.8288 31.3249C53.0689 31.3249 52.4053 31.1791 51.8377 30.8876C51.2702 30.5929 50.8298 30.1898 50.5165 29.6781C50.2033 29.1632 50.0467 28.5724 50.0467 27.9056V21.6394H51.4842V27.7893C51.4842 28.2204 51.5788 28.6034 51.7679 28.9384C51.9602 29.2733 52.2316 29.5369 52.582 29.7292C52.9325 29.9184 53.3481 30.013 53.8288 30.013C54.3126 30.013 54.7297 29.9184 55.0801 29.7292C55.4337 29.5369 55.7035 29.2733 55.8896 28.9384C56.0788 28.6034 56.1734 28.2204 56.1734 27.7893V21.6394ZM59.4449 31.1667V30.213L63.3153 25.2959V25.2307H59.5705V24.0212H65.0505V25.0354L61.3289 29.892V29.9572H65.1808V31.1667H59.4449ZM71.3482 28.2034V24.0212H72.7438V31.1667H71.3761V29.9293H71.3016C71.1373 30.3107 70.8737 30.6286 70.5108 30.8829C70.151 31.1341 69.7029 31.2597 69.1664 31.2597C68.7074 31.2597 68.3011 31.1589 67.9475 30.9573C67.5971 30.7527 67.3211 30.4503 67.1195 30.0502C66.921 29.6501 66.8218 29.1555 66.8218 28.5662V24.0212H68.2127V28.3988C68.2127 28.8857 68.3476 29.2733 68.6174 29.5618C68.8873 29.8502 69.2377 29.9944 69.6688 29.9944C69.9293 29.9944 70.1883 29.9293 70.4457 29.799C70.7062 29.6687 70.9217 29.4718 71.0923 29.2082C71.266 28.9446 71.3513 28.6096 71.3482 28.2034ZM76.0036 26.9241V31.1667H74.6127V24.0212H75.9478V25.1842H76.0362C76.2006 24.8059 76.458 24.5019 76.8084 24.2724C77.162 24.0429 77.607 23.9282 78.1435 23.9282C78.6305 23.9282 79.0569 24.0305 79.4228 24.2352C79.7888 24.4368 80.0726 24.7376 80.2742 25.1377C80.4757 25.5378 80.5765 26.0324 80.5765 26.6217V31.1667H79.1856V26.7892C79.1856 26.2712 79.0507 25.8665 78.7809 25.575C78.5111 25.2804 78.1404 25.1331 77.669 25.1331C77.3465 25.1331 77.0596 25.2028 76.8084 25.3424C76.5603 25.482 76.3634 25.6866 76.2176 25.9565C76.075 26.2232 76.0036 26.5457 76.0036 26.9241ZM85.2855 21.6394H86.9184L89.4072 25.9704H89.5095L91.9983 21.6394H93.6312L90.1748 27.4265V31.1667H88.7419V27.4265L85.2855 21.6394ZM95.8688 31.3249C95.416 31.3249 95.0066 31.2411 94.6407 31.0736C94.2747 30.9031 93.9847 30.6565 93.7707 30.334C93.5598 30.0114 93.4544 29.616 93.4544 29.1477C93.4544 28.7446 93.5319 28.4127 93.687 28.1522C93.8421 27.8917 94.0514 27.6854 94.315 27.5335C94.5786 27.3815 94.8733 27.2668 95.1989 27.1892C95.5245 27.1117 95.8564 27.0528 96.1944 27.0125C96.6224 26.9628 96.9698 26.9225 97.2365 26.8915C97.5032 26.8574 97.697 26.8031 97.818 26.7287C97.9389 26.6543 97.9994 26.5333 97.9994 26.3658V26.3333C97.9994 25.927 97.8846 25.6122 97.6552 25.3889C97.4288 25.1656 97.0907 25.054 96.641 25.054C96.1727 25.054 95.8037 25.1579 95.5338 25.3657C95.2671 25.5703 95.0826 25.7983 94.9803 26.0495L93.673 25.7518C93.8281 25.3176 94.0545 24.9671 94.3522 24.7004C94.6531 24.4306 94.9989 24.2352 95.3896 24.1143C95.7804 23.9902 96.1913 23.9282 96.6224 23.9282C96.9077 23.9282 97.2101 23.9623 97.5295 24.0305C97.8521 24.0957 98.1529 24.2166 98.432 24.3934C98.7143 24.5702 98.9453 24.8229 99.1252 25.1517C99.3051 25.4773 99.395 25.9006 99.395 26.4217V31.1667H98.0366V30.1898H97.9808C97.8909 30.3696 97.7559 30.5464 97.5761 30.7201C97.3962 30.8938 97.1651 31.038 96.8829 31.1527C96.6007 31.2675 96.2627 31.3249 95.8688 31.3249ZM96.1712 30.2084C96.5557 30.2084 96.8845 30.1324 97.1574 29.9804C97.4334 29.8285 97.6427 29.63 97.7854 29.385C97.9312 29.1369 98.004 28.8717 98.004 28.5895V27.6684C97.9544 27.718 97.8583 27.7645 97.7156 27.808C97.5761 27.8483 97.4163 27.8839 97.2365 27.9149C97.0566 27.9429 96.8814 27.9692 96.7108 27.994C96.5402 28.0157 96.3976 28.0343 96.2828 28.0499C96.013 28.084 95.7664 28.1413 95.5431 28.222C95.323 28.3026 95.1462 28.4189 95.0128 28.5709C94.8826 28.7197 94.8174 28.9182 94.8174 29.1663C94.8174 29.5106 94.9446 29.7711 95.1989 29.9479C95.4532 30.1215 95.7773 30.2084 96.1712 30.2084ZM102.639 26.9241V31.1667H101.248V24.0212H102.583V25.1842H102.671C102.836 24.8059 103.093 24.5019 103.443 24.2724C103.797 24.0429 104.242 23.9282 104.779 23.9282C105.265 23.9282 105.692 24.0305 106.058 24.2352C106.424 24.4368 106.708 24.7376 106.909 25.1377C107.111 25.5378 107.211 26.0324 107.211 26.6217V31.1667H105.821V26.7892C105.821 26.2712 105.686 25.8665 105.416 25.575C105.146 25.2804 104.775 25.1331 104.304 25.1331C103.981 25.1331 103.695 25.2028 103.443 25.3424C103.195 25.482 102.998 25.6866 102.853 25.9565C102.71 26.2232 102.639 26.5457 102.639 26.9241ZM109.077 31.1667V24.0212H110.468V31.1667H109.077ZM115.675 24.0212V25.1377H111.772V24.0212H115.675ZM112.818 22.3093H114.209V29.0686C114.209 29.3385 114.25 29.5416 114.33 29.6781C114.411 29.8114 114.515 29.9029 114.642 29.9525C114.772 29.999 114.913 30.0223 115.065 30.0223C115.177 30.0223 115.275 30.0145 115.358 29.999C115.442 29.9835 115.507 29.9711 115.554 29.9618L115.805 31.1109C115.724 31.1419 115.61 31.1729 115.461 31.2039C115.312 31.238 115.126 31.2566 114.902 31.2597C114.536 31.2659 114.195 31.2008 113.879 31.0643C113.563 30.9279 113.307 30.717 113.111 30.4317C112.916 30.1464 112.818 29.7881 112.818 29.3571V22.3093Z" fill="#E5E5E5"/>
</g>
<rect x="401.333" y="11" width="64.3333" height="30.3333" rx="8" fill="white" fill-opacity="0.05"/>
<rect x="401.833" y="11.5" width="63.3333" height="29.3333" rx="7.5" stroke="white" stroke-opacity="0.1"/>
<path d="M413.25 21.2917V27.7917" stroke="#A1A1A1" stroke-width="1.08333" stroke-linecap="round" stroke-linejoin="round"/>
<path d="M419.75 24.5417C420.647 24.5417 421.375 23.8141 421.375 22.9167C421.375 22.0192 420.647 21.2917 419.75 21.2917C418.852 21.2917 418.125 22.0192 418.125 22.9167C418.125 23.8141 418.852 24.5417 419.75 24.5417Z" stroke="#A1A1A1" stroke-width="1.08333" stroke-linecap="round" stroke-linejoin="round"/>
<path d="M413.25 31.0417C414.147 31.0417 414.875 30.3141 414.875 29.4167C414.875 28.5192 414.147 27.7917 413.25 27.7917C412.352 27.7917 411.625 28.5192 411.625 29.4167C411.625 30.3141 412.352 31.0417 413.25 31.0417Z" stroke="#A1A1A1" stroke-width="1.08333" stroke-linecap="round" stroke-linejoin="round"/>
<path d="M419.75 24.5417C419.75 25.8346 419.236 27.0746 418.322 27.9888C417.408 28.9031 416.168 29.4167 414.875 29.4167" stroke="#A1A1A1" stroke-width="1.08333" stroke-linecap="round" stroke-linejoin="round"/>
<path d="M430.155 29.6667V22.0303H431.307V25.677H431.4L434.603 22.0303H436.054L432.974 25.4682L436.065 29.6667H434.678L432.21 26.2549L431.307 27.2915V29.6667H430.155ZM439.03 29.7823C438.493 29.7823 438.025 29.6592 437.625 29.4131C437.224 29.167 436.914 28.8228 436.692 28.3803C436.471 27.9378 436.36 27.4208 436.36 26.8292C436.36 26.235 436.471 25.7155 436.692 25.2706C436.914 24.8256 437.224 24.4801 437.625 24.234C438.025 23.9879 438.493 23.8648 439.03 23.8648C439.567 23.8648 440.036 23.9879 440.436 24.234C440.836 24.4801 441.147 24.8256 441.368 25.2706C441.589 25.7155 441.7 26.235 441.7 26.8292C441.7 27.4208 441.589 27.9378 441.368 28.3803C441.147 28.8228 440.836 29.167 440.436 29.4131C440.036 29.6592 439.567 29.7823 439.03 29.7823ZM439.034 28.8464C439.382 28.8464 439.67 28.7544 439.899 28.5705C440.128 28.3865 440.297 28.1417 440.406 27.8359C440.518 27.5301 440.574 27.1933 440.574 26.8254C440.574 26.46 440.518 26.1244 440.406 25.8187C440.297 25.5104 440.128 25.2631 439.899 25.0767C439.67 24.8902 439.382 24.797 439.034 24.797C438.683 24.797 438.393 24.8902 438.161 25.0767C437.933 25.2631 437.762 25.5104 437.651 25.8187C437.541 26.1244 437.487 26.46 437.487 26.8254C437.487 27.1933 437.541 27.5301 437.651 27.8359C437.762 28.1417 437.933 28.3865 438.161 28.5705C438.393 28.7544 438.683 28.8464 439.034 28.8464ZM447.236 25.3377L446.226 25.5167C446.183 25.3874 446.116 25.2643 446.024 25.1475C445.935 25.0307 445.813 24.935 445.659 24.8604C445.505 24.7858 445.312 24.7485 445.081 24.7485C444.765 24.7485 444.502 24.8194 444.29 24.9611C444.079 25.1003 443.974 25.2805 443.974 25.5017C443.974 25.6931 444.044 25.8473 444.186 25.9641C444.328 26.0809 444.556 26.1766 444.872 26.2512L445.782 26.46C446.309 26.5818 446.702 26.7695 446.96 27.023C447.219 27.2766 447.348 27.606 447.348 28.0111C447.348 28.3542 447.249 28.6599 447.05 28.9284C446.853 29.1944 446.579 29.4032 446.226 29.5548C445.875 29.7065 445.469 29.7823 445.006 29.7823C444.365 29.7823 443.842 29.6456 443.437 29.3721C443.031 29.0962 442.783 28.7047 442.691 28.1976L443.768 28.0335C443.836 28.3144 443.974 28.5269 444.182 28.6711C444.391 28.8128 444.663 28.8837 444.999 28.8837C445.364 28.8837 445.656 28.8078 445.875 28.6562C446.094 28.5021 446.203 28.3144 446.203 28.0932C446.203 27.9142 446.136 27.7638 446.002 27.642C445.87 27.5202 445.668 27.4282 445.394 27.3661L444.425 27.1535C443.89 27.0317 443.495 26.8379 443.239 26.5719C442.985 26.3059 442.859 25.9691 442.859 25.5614C442.859 25.2233 442.953 24.9275 443.142 24.674C443.331 24.4204 443.592 24.2228 443.925 24.0811C444.258 23.9369 444.64 23.8648 445.07 23.8648C445.689 23.8648 446.176 23.9991 446.531 24.2675C446.887 24.5335 447.122 24.8902 447.236 25.3377ZM444.671 29.6369H445.402L445.342 29.9426C445.558 29.9774 445.747 30.0644 445.909 30.2036C446.07 30.3428 446.151 30.5529 446.151 30.8338C446.154 31.1694 446.008 31.4415 445.715 31.6504C445.424 31.8592 445.003 31.9636 444.451 31.9636L444.428 31.3409C444.687 31.3409 444.896 31.3036 445.055 31.229C445.216 31.1544 445.298 31.0339 445.301 30.8673C445.303 30.7008 445.241 30.5839 445.115 30.5168C444.99 30.4497 444.791 30.4025 444.518 30.3751L444.671 29.6369ZM452.202 27.2915V23.9394H453.32V29.6667H452.224V28.6749H452.165C452.033 28.9806 451.821 29.2354 451.531 29.4392C451.242 29.6406 450.883 29.7413 450.453 29.7413C450.085 29.7413 449.76 29.6605 449.476 29.4989C449.195 29.3348 448.974 29.0925 448.812 28.7718C448.653 28.4511 448.574 28.0546 448.574 27.5823V23.9394H449.689V27.4481C449.689 27.8384 449.797 28.1491 450.013 28.3803C450.229 28.6115 450.51 28.7271 450.856 28.7271C451.065 28.7271 451.272 28.6749 451.478 28.5705C451.687 28.466 451.86 28.3082 451.997 28.0969C452.136 27.8856 452.204 27.6171 452.202 27.2915ZM455.933 22.0303V29.6667H454.818V22.0303H455.933Z" fill="#A1A1A1"/>
<rect x="471.667" y="16.1667" width="1" height="20" fill="white" fill-opacity="0.1"/>
<rect x="478.667" y="11" width="124.333" height="30.3333" rx="8" fill="white" fill-opacity="0.05"/>
<rect x="479.167" y="11.5" width="123.333" height="29.3333" rx="7.5" stroke="white" stroke-opacity="0.1"/>
<rect x="481.333" y="13.6667" width="65" height="25" rx="8" fill="white" fill-opacity="0.1"/>
<path d="M497.016 25.9212C497.016 26.7113 496.873 27.3941 496.588 27.9695C496.302 28.545 495.911 28.9888 495.414 29.3009C494.916 29.613 494.348 29.7691 493.709 29.7691C493.07 29.7691 492.502 29.613 492.005 29.3009C491.507 28.9888 491.116 28.545 490.831 27.9695C490.545 27.3941 490.403 26.7113 490.403 25.9212C490.403 25.1312 490.545 24.4484 490.831 23.8729C491.116 23.2975 491.507 22.8537 492.005 22.5415C492.502 22.2294 493.07 22.0734 493.709 22.0734C494.348 22.0734 494.916 22.2294 495.414 22.5415C495.911 22.8537 496.302 23.2975 496.588 23.8729C496.873 24.4484 497.016 25.1312 497.016 25.9212ZM496.138 25.9212C496.138 25.2726 496.029 24.7252 495.812 24.2789C495.598 23.8327 495.306 23.495 494.938 23.2658C494.572 23.0365 494.163 22.9219 493.709 22.9219C493.256 22.9219 492.845 23.0365 492.477 23.2658C492.111 23.495 491.819 23.8327 491.602 24.2789C491.388 24.7252 491.281 25.2726 491.281 25.9212C491.281 26.5699 491.388 27.1173 491.602 27.5635C491.819 28.0098 492.111 28.3475 492.477 28.5767C492.845 28.8059 493.256 28.9205 493.709 28.9205C494.163 28.9205 494.572 28.8059 494.938 28.5767C495.306 28.3475 495.598 28.0098 495.812 27.5635C496.029 27.1173 496.138 26.5699 496.138 25.9212ZM498.424 31.7735V24.0485H499.258V24.941H499.36C499.424 24.8434 499.511 24.7191 499.624 24.5679C499.738 24.4143 499.902 24.2777 500.114 24.1582C500.328 24.0363 500.619 23.9754 500.984 23.9754C501.457 23.9754 501.874 24.0936 502.235 24.3301C502.596 24.5667 502.878 24.902 503.08 25.336C503.283 25.77 503.384 26.2821 503.384 26.8722C503.384 27.4672 503.283 27.9829 503.08 28.4194C502.878 28.8535 502.597 29.19 502.239 29.4289C501.88 29.6655 501.467 29.7837 500.999 29.7837C500.638 29.7837 500.349 29.724 500.132 29.6045C499.915 29.4826 499.748 29.3448 499.631 29.1912C499.514 29.0351 499.424 28.9059 499.36 28.8035H499.287V31.7735H498.424ZM499.273 26.8576C499.273 27.2819 499.335 27.6562 499.459 27.9805C499.583 28.3024 499.765 28.5548 500.004 28.7376C500.243 28.9181 500.536 29.0083 500.882 29.0083C501.243 29.0083 501.544 28.9132 501.785 28.723C502.029 28.5304 502.212 28.2719 502.334 27.9476C502.458 27.6208 502.521 27.2575 502.521 26.8576C502.521 26.4626 502.46 26.1066 502.338 25.7896C502.218 25.4701 502.037 25.2177 501.793 25.0324C501.551 24.8447 501.248 24.7508 500.882 24.7508C500.531 24.7508 500.236 24.8398 499.997 25.0178C499.758 25.1934 499.577 25.4396 499.455 25.7566C499.333 26.0712 499.273 26.4382 499.273 26.8576ZM508.68 25.3067L507.905 25.5262C507.856 25.397 507.784 25.2714 507.689 25.1495C507.596 25.0251 507.469 24.9227 507.308 24.8422C507.147 24.7618 506.941 24.7215 506.69 24.7215C506.346 24.7215 506.06 24.8008 505.831 24.9593C505.604 25.1153 505.491 25.3141 505.491 25.5555C505.491 25.77 505.569 25.9395 505.725 26.0639C505.881 26.1882 506.125 26.2919 506.456 26.3748L507.29 26.5796C507.792 26.7015 508.167 26.8881 508.413 27.1392C508.659 27.388 508.782 27.7086 508.782 28.1012C508.782 28.4231 508.69 28.7108 508.504 28.9644C508.322 29.218 508.066 29.418 507.736 29.5643C507.407 29.7106 507.024 29.7837 506.588 29.7837C506.015 29.7837 505.541 29.6594 505.165 29.4107C504.79 29.1619 504.552 28.7986 504.452 28.3207L505.271 28.1158C505.349 28.4182 505.497 28.645 505.714 28.7962C505.933 28.9473 506.22 29.0229 506.573 29.0229C506.976 29.0229 507.295 28.9376 507.532 28.7669C507.771 28.5938 507.89 28.3865 507.89 28.1451C507.89 27.95 507.822 27.7866 507.685 27.655C507.549 27.5209 507.339 27.4209 507.056 27.355L506.12 27.1356C505.605 27.0137 505.227 26.8247 504.986 26.5686C504.747 26.3102 504.627 25.9871 504.627 25.5994C504.627 25.2824 504.716 25.0019 504.894 24.7581C505.075 24.5142 505.32 24.3228 505.63 24.1838C505.942 24.0448 506.295 23.9754 506.69 23.9754C507.246 23.9754 507.683 24.0973 508 24.3411C508.319 24.585 508.546 24.9068 508.68 25.3067ZM510.082 29.6667V24.0485H510.945V29.6667H510.082ZM510.521 23.1121C510.353 23.1121 510.207 23.0548 510.086 22.9402C509.966 22.8256 509.906 22.6879 509.906 22.5269C509.906 22.366 509.966 22.2282 510.086 22.1136C510.207 21.999 510.353 21.9417 510.521 21.9417C510.689 21.9417 510.833 21.999 510.952 22.1136C511.074 22.2282 511.135 22.366 511.135 22.5269C511.135 22.6879 511.074 22.8256 510.952 22.9402C510.833 23.0548 510.689 23.1121 510.521 23.1121ZM513.082 31.7735C512.936 31.7735 512.805 31.7613 512.691 31.7369C512.576 31.715 512.497 31.693 512.453 31.6711L512.672 30.9103C512.882 30.9639 513.067 30.9834 513.228 30.9688C513.389 30.9542 513.532 30.8823 513.656 30.753C513.783 30.6262 513.899 30.4202 514.004 30.1349L514.165 29.6959L512.087 24.0485H513.024L514.574 28.5255H514.633L516.184 24.0485H517.12L514.735 30.486C514.628 30.7762 514.495 31.0164 514.337 31.2066C514.178 31.3992 513.994 31.5419 513.784 31.6345C513.577 31.7272 513.343 31.7735 513.082 31.7735ZM520.341 29.7837C519.834 29.7837 519.388 29.663 519.006 29.4216C518.625 29.1802 518.328 28.8425 518.113 28.4084C517.901 27.9744 517.795 27.4672 517.795 26.8869C517.795 26.3016 517.901 25.7908 518.113 25.3543C518.328 24.9178 518.625 24.5789 519.006 24.3375C519.388 24.0961 519.834 23.9754 520.341 23.9754C520.848 23.9754 521.292 24.0961 521.672 24.3375C522.055 24.5789 522.352 24.9178 522.565 25.3543C522.779 25.7908 522.886 26.3016 522.886 26.8869C522.886 27.4672 522.779 27.9744 522.565 28.4084C522.352 28.8425 522.055 29.1802 521.672 29.4216C521.292 29.663 520.848 29.7837 520.341 29.7837ZM520.341 29.0083C520.726 29.0083 521.043 28.9095 521.292 28.712C521.54 28.5145 521.725 28.2548 521.844 27.933C521.963 27.6111 522.023 27.2624 522.023 26.8869C522.023 26.5113 521.963 26.1614 521.844 25.8371C521.725 25.5128 521.54 25.2507 521.292 25.0507C521.043 24.8508 520.726 24.7508 520.341 24.7508C519.955 24.7508 519.638 24.8508 519.39 25.0507C519.141 25.2507 518.957 25.5128 518.837 25.8371C518.718 26.1614 518.658 26.5113 518.658 26.8869C518.658 27.2624 518.718 27.6111 518.837 27.933C518.957 28.2548 519.141 28.5145 519.39 28.712C519.638 28.9095 519.955 29.0083 520.341 29.0083ZM525.067 26.287V29.6667H524.204V24.0485H525.038V24.9263H525.111C525.243 24.641 525.443 24.4118 525.711 24.2387C525.979 24.0631 526.326 23.9754 526.75 23.9754C527.13 23.9754 527.463 24.0534 527.748 24.2094C528.034 24.3631 528.256 24.5972 528.414 24.9117C528.573 25.2238 528.652 25.6189 528.652 26.0968V29.6667H527.789V26.1553C527.789 25.714 527.674 25.3701 527.445 25.1239C527.216 24.8751 526.901 24.7508 526.501 24.7508C526.226 24.7508 525.979 24.8105 525.762 24.93C525.548 25.0495 525.378 25.2238 525.254 25.4531C525.13 25.6823 525.067 25.9602 525.067 26.287ZM532.585 29.7837C532.043 29.7837 531.576 29.6642 531.184 29.4253C530.794 29.1839 530.493 28.8474 530.28 28.4158C530.071 27.9817 529.966 27.477 529.966 26.9015C529.966 26.326 530.071 25.8188 530.28 25.3799C530.493 24.9385 530.788 24.5947 531.166 24.3484C531.546 24.0997 531.99 23.9754 532.497 23.9754C532.79 23.9754 533.079 24.0241 533.364 24.1217C533.649 24.2192 533.909 24.3777 534.143 24.5972C534.377 24.8142 534.564 25.1019 534.703 25.4604C534.842 25.8188 534.911 26.2602 534.911 26.7844V27.1502H530.58V26.404H534.033C534.033 26.087 533.97 25.8042 533.843 25.5555C533.719 25.3067 533.541 25.1104 533.309 24.9666C533.08 24.8227 532.809 24.7508 532.497 24.7508C532.153 24.7508 531.856 24.8361 531.605 25.0068C531.356 25.1751 531.164 25.3945 531.03 25.6652C530.896 25.9359 530.829 26.226 530.829 26.5357V27.0332C530.829 27.4575 530.902 27.8171 531.049 28.1122C531.197 28.4048 531.403 28.6279 531.667 28.7815C531.93 28.9327 532.236 29.0083 532.585 29.0083C532.812 29.0083 533.016 28.9766 533.199 28.9132C533.385 28.8474 533.544 28.7498 533.678 28.6206C533.813 28.4889 533.916 28.3255 533.989 28.1305L534.823 28.3646C534.735 28.6474 534.588 28.8961 534.381 29.1107C534.173 29.3229 533.917 29.4887 533.613 29.6082C533.308 29.7252 532.965 29.7837 532.585 29.7837ZM537.087 22.1758V29.6667H536.224V22.1758H537.087Z" fill="#F5F5F5"/>
<path d="M555.219 29.6667V28.9955L559.336 22.8506H555.175V22.0303H560.439V22.7015L556.323 28.8464H560.484V29.6667H555.219ZM564.243 29.786C563.726 29.786 563.272 29.663 562.882 29.4169C562.494 29.1708 562.191 28.8265 561.972 28.384C561.756 27.9415 561.648 27.4245 561.648 26.8329C561.648 26.2363 561.756 25.7155 561.972 25.2706C562.191 24.8256 562.494 24.4801 562.882 24.234C563.272 23.9879 563.726 23.8648 564.243 23.8648C564.76 23.8648 565.212 23.9879 565.6 24.234C565.99 24.4801 566.293 24.8256 566.51 25.2706C566.728 25.7155 566.838 26.2363 566.838 26.8329C566.838 27.4245 566.728 27.9415 566.51 28.384C566.293 28.8265 565.99 29.1708 565.6 29.4169C565.212 29.663 564.76 29.786 564.243 29.786ZM564.243 28.9955C564.635 28.9955 564.959 28.8948 565.212 28.6935C565.466 28.4921 565.653 28.2274 565.775 27.8993C565.897 27.5712 565.958 27.2157 565.958 26.8329C565.958 26.4501 565.897 26.0934 565.775 25.7627C565.653 25.4321 565.466 25.1649 565.212 24.9611C564.959 24.7572 564.635 24.6553 564.243 24.6553C563.85 24.6553 563.527 24.7572 563.273 24.9611C563.02 25.1649 562.832 25.4321 562.71 25.7627C562.588 26.0934 562.527 26.4501 562.527 26.8329C562.527 27.2157 562.588 27.5712 562.71 27.8993C562.832 28.2274 563.02 28.4921 563.273 28.6935C563.527 28.8948 563.85 28.9955 564.243 28.9955ZM568.181 29.6667V23.9394H569.031V24.8045H569.091C569.195 24.5211 569.384 24.2912 569.658 24.1147C569.931 23.9382 570.239 23.8499 570.582 23.8499C570.647 23.8499 570.728 23.8512 570.825 23.8537C570.922 23.8561 570.995 23.8599 571.045 23.8648V24.7597C571.015 24.7523 570.947 24.7411 570.84 24.7262C570.735 24.7088 570.625 24.7001 570.508 24.7001C570.229 24.7001 569.981 24.7585 569.762 24.8753C569.546 24.9897 569.374 25.1488 569.248 25.3526C569.123 25.5539 569.061 25.7839 569.061 26.0424V29.6667H568.181ZM575.697 27.3251V23.9394H576.577V29.6667H575.697V28.6972H575.638C575.503 28.9881 575.295 29.2354 575.011 29.4392C574.728 29.6406 574.37 29.7413 573.937 29.7413C573.579 29.7413 573.261 29.663 572.983 29.5064C572.704 29.3473 572.486 29.1086 572.327 28.7904C572.167 28.4698 572.088 28.0658 572.088 27.5786V23.9394H572.968V27.519C572.968 27.9366 573.085 28.2697 573.318 28.5182C573.554 28.7668 573.855 28.8911 574.221 28.8911C574.439 28.8911 574.662 28.8352 574.888 28.7233C575.117 28.6115 575.308 28.4399 575.462 28.2088C575.619 27.9776 575.697 27.683 575.697 27.3251ZM579.069 26.2214V29.6667H578.189V23.9394H579.039V24.8343H579.114C579.248 24.5435 579.452 24.3098 579.725 24.1333C579.999 23.9543 580.352 23.8648 580.784 23.8648C581.172 23.8648 581.511 23.9444 581.802 24.1035C582.093 24.2601 582.319 24.4987 582.481 24.8194C582.642 25.1376 582.723 25.5403 582.723 26.0275V29.6667H581.843V26.0871C581.843 25.6372 581.726 25.2867 581.493 25.0356C581.259 24.7821 580.938 24.6553 580.531 24.6553C580.25 24.6553 579.999 24.7162 579.777 24.838C579.559 24.9598 579.386 25.1376 579.259 25.3712C579.132 25.6049 579.069 25.8883 579.069 26.2214ZM585.211 22.0303V29.6667H584.331V22.0303H585.211ZM590.432 27.3251V23.9394H591.312V29.6667H590.432V28.6972H590.372C590.238 28.9881 590.029 29.2354 589.746 29.4392C589.463 29.6406 589.105 29.7413 588.672 29.7413C588.314 29.7413 587.996 29.663 587.718 29.5064C587.439 29.3473 587.22 29.1086 587.061 28.7904C586.902 28.4698 586.823 28.0658 586.823 27.5786V23.9394H587.703V27.519C587.703 27.9366 587.82 28.2697 588.053 28.5182C588.289 28.7668 588.59 28.8911 588.956 28.8911C589.174 28.8911 589.397 28.8352 589.623 28.7233C589.852 28.6115 590.043 28.4399 590.197 28.2088C590.354 27.9776 590.432 27.683 590.432 27.3251Z" fill="#D4D4D4"/>
<path d="M24.0039 74.3697C23.9641 74.0167 23.8001 73.7433 23.5117 73.5494C23.2234 73.353 22.8604 73.2548 22.4229 73.2548C22.1097 73.2548 21.8388 73.3045 21.6101 73.4039C21.3814 73.5009 21.2037 73.6351 21.0769 73.8066C20.9526 73.9757 20.8904 74.1683 20.8904 74.3846C20.8904 74.5661 20.9327 74.7227 21.0172 74.8544C21.1042 74.9862 21.2173 75.0968 21.3565 75.1863C21.4982 75.2733 21.6499 75.3466 21.8114 75.4062C21.973 75.4634 22.1284 75.5107 22.2775 75.5479L23.0233 75.7418C23.2669 75.8015 23.5167 75.8823 23.7727 75.9842C24.0288 76.0861 24.2662 76.2203 24.4849 76.3869C24.7037 76.5534 24.8801 76.7598 25.0144 77.0059C25.1511 77.252 25.2195 77.5465 25.2195 77.8896C25.2195 78.3221 25.1076 78.7061 24.8839 79.0417C24.6626 79.3773 24.3407 79.642 23.9181 79.8359C23.498 80.0298 22.9897 80.1268 22.3931 80.1268C21.8214 80.1268 21.3267 80.036 20.9091 79.8546C20.4915 79.6731 20.1646 79.4158 19.9284 79.0827C19.6923 78.7472 19.5618 78.3494 19.5369 77.8896H20.6928C20.7152 78.1655 20.8047 78.3954 20.9613 78.5794C21.1204 78.7608 21.323 78.8963 21.5691 78.9858C21.8176 79.0728 22.0898 79.1163 22.3857 79.1163C22.7113 79.1163 23.0009 79.0653 23.2544 78.9634C23.5105 78.859 23.7118 78.7148 23.8585 78.5309C24.0051 78.3445 24.0785 78.127 24.0785 77.8784C24.0785 77.6522 24.0138 77.467 23.8846 77.3228C23.7578 77.1786 23.585 77.0593 23.3663 76.9648C23.15 76.8704 22.9052 76.7871 22.6317 76.715L21.7294 76.4689C21.1179 76.3024 20.6332 76.0575 20.2752 75.7344C19.9197 75.4112 19.742 74.9837 19.742 74.4517C19.742 74.0117 19.8613 73.6277 20.1 73.2995C20.3386 72.9714 20.6618 72.7166 21.0694 72.5352C21.4771 72.3512 21.937 72.2592 22.449 72.2592C22.9661 72.2592 23.4222 72.35 23.8175 72.5314C24.2152 72.7129 24.5284 72.9627 24.7571 73.2809C24.9858 73.5966 25.1051 73.9595 25.1151 74.3697H24.0039ZM33.5046 76.1818C33.5046 76.9972 33.3555 77.6982 33.0572 78.2848C32.7589 78.869 32.35 79.3189 31.8304 79.6346C31.3134 79.9478 30.7255 80.1044 30.0668 80.1044C29.4055 80.1044 28.8152 79.9478 28.2956 79.6346C27.7786 79.3189 27.3709 78.8677 27.0726 78.2811C26.7743 77.6944 26.6252 76.9947 26.6252 76.1818C26.6252 75.3665 26.7743 74.6667 27.0726 74.0826C27.3709 73.4959 27.7786 73.046 28.2956 72.7328C28.8152 72.4171 29.4055 72.2592 30.0668 72.2592C30.7255 72.2592 31.3134 72.4171 31.8304 72.7328C32.35 73.046 32.7589 73.4959 33.0572 74.0826C33.3555 74.6667 33.5046 75.3665 33.5046 76.1818ZM32.3636 76.1818C32.3636 75.5604 32.263 75.0371 32.0616 74.612C31.8628 74.1845 31.5893 73.8613 31.2413 73.6426C30.8958 73.4213 30.5043 73.3107 30.0668 73.3107C29.6268 73.3107 29.234 73.4213 28.8885 73.6426C28.543 73.8613 28.2695 74.1845 28.0682 74.612C27.8693 75.0371 27.7699 75.5604 27.7699 76.1818C27.7699 76.8033 27.8693 77.3278 28.0682 77.7553C28.2695 78.1804 28.543 78.5036 28.8885 78.7248C29.234 78.9435 29.6268 79.0529 30.0668 79.0529C30.5043 79.0529 30.8958 78.9435 31.2413 78.7248C31.5893 78.5036 31.8628 78.1804 32.0616 77.7553C32.263 77.3278 32.3636 76.8033 32.3636 76.1818ZM35.2161 80V72.3636H37.9381C38.5297 72.3636 39.0206 72.4656 39.4109 72.6694C39.8036 72.8732 40.097 73.1554 40.2909 73.5158C40.4847 73.8738 40.5817 74.2876 40.5817 74.7575C40.5817 75.2248 40.4835 75.6362 40.2871 75.9917C40.0932 76.3446 39.7999 76.6193 39.4072 76.8157C39.0169 77.0121 38.5259 77.1103 37.9343 77.1103H35.8724V76.1184H37.8299C38.2028 76.1184 38.5061 76.065 38.7397 75.9581C38.9759 75.8512 39.1486 75.6958 39.258 75.492C39.3674 75.2882 39.4221 75.0433 39.4221 74.7575C39.4221 74.4691 39.3661 74.2193 39.2543 74.008C39.1449 73.7967 38.9721 73.6351 38.736 73.5233C38.5023 73.4089 38.1953 73.3517 37.815 73.3517H36.3683V80H35.2161ZM38.9858 76.5547L40.8725 80H39.56L37.7106 76.5547H38.9858ZM47.1694 72.3636H48.3253V77.3862C48.3253 77.9206 48.1997 78.3942 47.9487 78.8068C47.6976 79.217 47.3446 79.5401 46.8897 79.7763C46.4348 80.0099 45.9016 80.1268 45.2901 80.1268C44.6811 80.1268 44.1491 80.0099 43.6942 79.7763C43.2393 79.5401 42.8863 79.217 42.6353 78.8068C42.3842 78.3942 42.2587 77.9206 42.2587 77.3862V72.3636H43.4108V77.293C43.4108 77.6385 43.4867 77.9455 43.6383 78.214C43.7924 78.4824 44.0099 78.6937 44.2908 78.8478C44.5717 78.9995 44.9048 79.0753 45.2901 79.0753C45.6779 79.0753 46.0122 78.9995 46.2931 78.8478C46.5765 78.6937 46.7928 78.4824 46.9419 78.214C47.0936 77.9455 47.1694 77.6385 47.1694 77.293V72.3636ZM53.3292 72.3636H54.7275L57.1586 78.2997H57.248L59.6792 72.3636H61.0774V80H59.9812V74.4741H59.9103L57.6582 79.9888H56.7484L54.4963 74.4703H54.4254V80H53.3292V72.3636ZM63.0275 80V72.3636H67.8152V73.3555H64.1797V75.6822H67.5654V76.6703H64.1797V79.0082H67.8599V80H63.0275ZM69.2526 73.3555V72.3636H75.1626V73.3555H72.7799V80H71.6315V73.3555H69.2526ZM82.9071 72.3636V80H81.8481L77.9666 74.3995H77.8957V80H76.7435V72.3636H77.81L81.6953 77.9716H81.7661V72.3636H82.9071ZM86.0149 72.3636V80H84.8628V72.3636H86.0149Z" fill="#A1A1A1"/>
<rect x="17" y="91" width="582" height="34.66" rx="8" fill="#171717" fill-opacity="0.6"/>
<rect x="17.5" y="91.5" width="581" height="33.66" rx="7.5" stroke="white" stroke-opacity="0.1"/>
<g clip-path="url(#clip1_8_67)">
<path d="M35.982 106.239C35.9266 105.771 35.7019 105.408 35.308 105.15C34.914 104.891 34.4308 104.762 33.8584 104.762C33.4398 104.762 33.0736 104.83 32.7597 104.965C32.4488 105.1 32.2057 105.287 32.0303 105.524C31.8579 105.761 31.7717 106.03 31.7717 106.331C31.7717 106.584 31.8318 106.801 31.9518 106.982C32.0749 107.161 32.2318 107.31 32.4227 107.43C32.6135 107.547 32.8135 107.644 33.0228 107.721C33.2321 107.795 33.4244 107.855 33.5999 107.901L34.5601 108.16C34.8063 108.224 35.0802 108.313 35.3818 108.427C35.6865 108.541 35.9774 108.697 36.2543 108.894C36.5344 109.087 36.7652 109.337 36.9468 109.641C37.1284 109.946 37.2192 110.32 37.2192 110.763C37.2192 111.274 37.0853 111.736 36.8175 112.148C36.5529 112.561 36.1651 112.888 35.6542 113.132C35.1464 113.375 34.5293 113.496 33.803 113.496C33.1259 113.496 32.5396 113.387 32.0441 113.168C31.5517 112.95 31.1639 112.645 30.8808 112.254C30.6007 111.864 30.4422 111.41 30.4053 110.893H31.5871C31.6179 111.25 31.7379 111.545 31.9472 111.779C32.1595 112.01 32.4273 112.182 32.7504 112.296C33.0767 112.407 33.4275 112.462 33.803 112.462C34.24 112.462 34.6324 112.391 34.9802 112.25C35.328 112.105 35.6034 111.905 35.8065 111.65C36.0097 111.391 36.1112 111.089 36.1112 110.745C36.1112 110.431 36.0235 110.175 35.8481 109.978C35.6727 109.781 35.4418 109.621 35.1556 109.498C34.8694 109.375 34.5601 109.268 34.2277 109.175L33.0644 108.843C32.3257 108.63 31.741 108.327 31.3101 107.933C30.8792 107.539 30.6638 107.024 30.6638 106.387C30.6638 105.857 30.8069 105.396 31.0931 105.002C31.3824 104.605 31.7702 104.297 32.2565 104.079C32.7458 103.857 33.2921 103.746 33.8953 103.746C34.5047 103.746 35.0464 103.855 35.5203 104.074C35.9943 104.289 36.3698 104.585 36.6467 104.96C36.9268 105.336 37.0745 105.762 37.0899 106.239H35.982ZM41.8345 113.478C41.1944 113.478 40.6327 113.325 40.1495 113.021C39.6694 112.716 39.2939 112.29 39.0231 111.742C38.7553 111.194 38.6214 110.554 38.6214 109.821C38.6214 109.083 38.7553 108.438 39.0231 107.887C39.2939 107.336 39.6694 106.908 40.1495 106.604C40.6327 106.299 41.1944 106.147 41.8345 106.147C42.4747 106.147 43.0348 106.299 43.5149 106.604C43.9981 106.908 44.3736 107.336 44.6413 107.887C44.9122 108.438 45.0476 109.083 45.0476 109.821C45.0476 110.554 44.9122 111.194 44.6413 111.742C44.3736 112.29 43.9981 112.716 43.5149 113.021C43.0348 113.325 42.4747 113.478 41.8345 113.478ZM41.8345 112.499C42.3208 112.499 42.7209 112.374 43.0348 112.125C43.3487 111.876 43.5811 111.548 43.7319 111.142C43.8827 110.736 43.9581 110.295 43.9581 109.821C43.9581 109.348 43.8827 108.906 43.7319 108.497C43.5811 108.087 43.3487 107.756 43.0348 107.504C42.7209 107.252 42.3208 107.125 41.8345 107.125C41.3482 107.125 40.9481 107.252 40.6342 107.504C40.3203 107.756 40.0879 108.087 39.9371 108.497C39.7863 108.906 39.7109 109.348 39.7109 109.821C39.7109 110.295 39.7863 110.736 39.9371 111.142C40.0879 111.548 40.3203 111.876 40.6342 112.125C40.9481 112.374 41.3482 112.499 41.8345 112.499ZM46.7107 113.33V106.239H47.7632V107.31H47.8371C47.9663 106.959 48.2002 106.675 48.5388 106.456C48.8773 106.238 49.259 106.128 49.6837 106.128C49.7637 106.128 49.8637 106.13 49.9837 106.133C50.1038 106.136 50.1946 106.141 50.2561 106.147V107.255C50.2192 107.245 50.1345 107.232 50.0022 107.213C49.8729 107.192 49.736 107.181 49.5913 107.181C49.2466 107.181 48.9389 107.253 48.668 107.398C48.4003 107.539 48.1879 107.736 48.031 107.989C47.8771 108.238 47.8001 108.523 47.8001 108.843V113.33H46.7107ZM56.0163 110.431V106.239H57.1058V113.33H56.0163V112.13H55.9425C55.7763 112.49 55.5177 112.796 55.1669 113.048C54.816 113.298 54.3729 113.422 53.8373 113.422C53.3942 113.422 53.0002 113.325 52.6555 113.132C52.3108 112.935 52.04 112.639 51.843 112.245C51.6461 111.848 51.5476 111.348 51.5476 110.745V106.239H52.6371V110.671C52.6371 111.188 52.7817 111.6 53.071 111.908C53.3634 112.216 53.7358 112.37 54.1882 112.37C54.459 112.37 54.7345 112.301 55.0145 112.162C55.2977 112.024 55.5347 111.811 55.7255 111.525C55.9194 111.239 56.0163 110.874 56.0163 110.431ZM60.1908 109.064V113.33H59.1013V106.239H60.1538V107.347H60.2462C60.4124 106.987 60.6647 106.698 61.0033 106.479C61.3418 106.258 61.7788 106.147 62.3144 106.147C62.7945 106.147 63.2146 106.245 63.5747 106.442C63.9347 106.636 64.2148 106.932 64.4149 107.329C64.6149 107.723 64.7149 108.221 64.7149 108.824V113.33H63.6254V108.898C63.6254 108.341 63.4808 107.907 63.1915 107.596C62.9022 107.282 62.5052 107.125 62.0004 107.125C61.6527 107.125 61.3418 107.201 61.0679 107.352C60.7971 107.502 60.5832 107.723 60.4262 108.012C60.2693 108.301 60.1908 108.652 60.1908 109.064ZM71.1745 110.431V106.239H72.264V113.33H71.1745V112.13H71.1007C70.9345 112.49 70.6759 112.796 70.3251 113.048C69.9742 113.298 69.5311 113.422 68.9955 113.422C68.5524 113.422 68.1584 113.325 67.8137 113.132C67.469 112.935 67.1982 112.639 67.0012 112.245C66.8043 111.848 66.7058 111.348 66.7058 110.745V106.239H67.7953V110.671C67.7953 111.188 67.9399 111.6 68.2292 111.908C68.5216 112.216 68.894 112.37 69.3464 112.37C69.6172 112.37 69.8927 112.301 70.1728 112.162C70.4559 112.024 70.6929 111.811 70.8837 111.525C71.0776 111.239 71.1745 110.874 71.1745 110.431ZM74.0564 113.33V112.499L78.0819 107.329V107.255H74.1856V106.239H79.4853V107.107L75.5706 112.241V112.314H79.6146V113.33H74.0564ZM85.7614 110.431V106.239H86.8509V113.33H85.7614V112.13H85.6876C85.5214 112.49 85.2629 112.796 84.912 113.048C84.5612 113.298 84.118 113.422 83.5825 113.422C83.1393 113.422 82.7453 113.325 82.4006 113.132C82.0559 112.935 81.7851 112.639 81.5881 112.245C81.3912 111.848 81.2927 111.348 81.2927 110.745V106.239H82.3822V110.671C82.3822 111.188 82.5268 111.6 82.8161 111.908C83.1085 112.216 83.4809 112.37 83.9333 112.37C84.2041 112.37 84.4796 112.301 84.7597 112.162C85.0428 112.024 85.2798 111.811 85.4706 111.525C85.6645 111.239 85.7614 110.874 85.7614 110.431ZM92.6504 113.33V103.875H93.7399V107.366H93.8322C93.9122 107.242 94.023 107.085 94.1646 106.895C94.3092 106.701 94.5154 106.528 94.7832 106.378C95.054 106.224 95.4203 106.147 95.8819 106.147C96.479 106.147 97.0053 106.296 97.4607 106.595C97.9162 106.893 98.2717 107.316 98.5272 107.864C98.7826 108.412 98.9103 109.058 98.9103 109.803C98.9103 110.554 98.7826 111.205 98.5272 111.756C98.2717 112.304 97.9178 112.728 97.4654 113.03C97.013 113.328 96.4913 113.478 95.9004 113.478C95.4449 113.478 95.0802 113.402 94.8063 113.252C94.5324 113.098 94.3215 112.924 94.1738 112.73C94.0261 112.533 93.9122 112.37 93.8322 112.241H93.7029V113.33H92.6504ZM93.7214 109.785C93.7214 110.32 93.7999 110.792 93.9568 111.202C94.1138 111.608 94.3431 111.927 94.6447 112.157C94.9463 112.385 95.3156 112.499 95.7527 112.499C96.2081 112.499 96.5882 112.379 96.8929 112.139C97.2007 111.896 97.4315 111.57 97.5854 111.16C97.7424 110.748 97.8208 110.289 97.8208 109.785C97.8208 109.286 97.7439 108.837 97.59 108.437C97.4392 108.033 97.2099 107.715 96.9022 107.481C96.5975 107.244 96.2143 107.125 95.7527 107.125C95.3095 107.125 94.9371 107.238 94.6355 107.462C94.3339 107.684 94.1061 107.995 93.9522 108.395C93.7983 108.792 93.7214 109.255 93.7214 109.785ZM105.046 110.431V106.239H106.135V113.33H105.046V112.13H104.972C104.806 112.49 104.547 112.796 104.196 113.048C103.845 113.298 103.402 113.422 102.867 113.422C102.423 113.422 102.03 113.325 101.685 113.132C101.34 112.935 101.069 112.639 100.872 112.245C100.675 111.848 100.577 111.348 100.577 110.745V106.239H101.666V110.671C101.666 111.188 101.811 111.6 102.1 111.908C102.393 112.216 102.765 112.37 103.217 112.37C103.488 112.37 103.764 112.301 104.044 112.162C104.327 112.024 104.564 111.811 104.755 111.525C104.949 111.239 105.046 110.874 105.046 110.431ZM108.131 113.33V106.239H109.183V107.31H109.257C109.386 106.959 109.62 106.675 109.959 106.456C110.297 106.238 110.679 106.128 111.104 106.128C111.184 106.128 111.284 106.13 111.404 106.133C111.524 106.136 111.614 106.141 111.676 106.147V107.255C111.639 107.245 111.554 107.232 111.422 107.213C111.293 107.192 111.156 107.181 111.011 107.181C110.667 107.181 110.359 107.253 110.088 107.398C109.82 107.539 109.608 107.736 109.451 107.989C109.297 108.238 109.22 108.523 109.22 108.843V113.33H108.131ZM115.054 113.496C114.605 113.496 114.197 113.412 113.831 113.242C113.465 113.07 113.174 112.822 112.958 112.499C112.743 112.173 112.635 111.779 112.635 111.317C112.635 110.911 112.715 110.582 112.875 110.329C113.035 110.074 113.249 109.874 113.517 109.729C113.785 109.585 114.08 109.477 114.403 109.406C114.729 109.332 115.057 109.274 115.387 109.231C115.817 109.175 116.167 109.134 116.434 109.106C116.705 109.075 116.902 109.024 117.025 108.954C117.152 108.883 117.215 108.76 117.215 108.584V108.547C117.215 108.092 117.09 107.738 116.841 107.486C116.595 107.233 116.221 107.107 115.719 107.107C115.199 107.107 114.791 107.221 114.496 107.449C114.2 107.676 113.992 107.92 113.872 108.178L112.838 107.809C113.023 107.378 113.269 107.042 113.577 106.802C113.888 106.559 114.226 106.39 114.592 106.295C114.962 106.196 115.325 106.147 115.682 106.147C115.91 106.147 116.171 106.174 116.467 106.23C116.765 106.282 117.053 106.391 117.33 106.558C117.61 106.724 117.842 106.975 118.027 107.31C118.212 107.646 118.304 108.095 118.304 108.658V113.33H117.215V112.37H117.159C117.085 112.524 116.962 112.688 116.79 112.864C116.618 113.039 116.388 113.188 116.102 113.312C115.816 113.435 115.467 113.496 115.054 113.496ZM115.22 112.518C115.651 112.518 116.014 112.433 116.31 112.264C116.608 112.094 116.833 111.876 116.984 111.608C117.138 111.34 117.215 111.059 117.215 110.763V109.766C117.168 109.821 117.067 109.872 116.91 109.918C116.756 109.962 116.578 110 116.374 110.034C116.174 110.065 115.979 110.092 115.788 110.117C115.6 110.138 115.448 110.157 115.331 110.172C115.048 110.209 114.783 110.269 114.537 110.352C114.294 110.432 114.097 110.554 113.946 110.717C113.798 110.877 113.725 111.096 113.725 111.373C113.725 111.751 113.865 112.037 114.145 112.231C114.428 112.422 114.786 112.518 115.22 112.518ZM120.74 115.989C120.556 115.989 120.391 115.974 120.247 115.943C120.102 115.915 120.002 115.888 119.946 115.86L120.223 114.9C120.488 114.967 120.722 114.992 120.925 114.973C121.128 114.955 121.308 114.864 121.465 114.701C121.625 114.541 121.772 114.281 121.904 113.921L122.107 113.367L119.485 106.239H120.667L122.624 111.89H122.698L124.655 106.239H125.837L122.827 114.364C122.692 114.73 122.524 115.033 122.324 115.274C122.124 115.517 121.892 115.697 121.627 115.814C121.365 115.931 121.07 115.989 120.74 115.989ZM129.146 113.496C128.697 113.496 128.289 113.412 127.923 113.242C127.556 113.07 127.265 112.822 127.05 112.499C126.835 112.173 126.727 111.779 126.727 111.317C126.727 110.911 126.807 110.582 126.967 110.329C127.127 110.074 127.341 109.874 127.609 109.729C127.876 109.585 128.172 109.477 128.495 109.406C128.821 109.332 129.149 109.274 129.478 109.231C129.909 109.175 130.259 109.134 130.526 109.106C130.797 109.075 130.994 109.024 131.117 108.954C131.243 108.883 131.306 108.76 131.306 108.584V108.547C131.306 108.092 131.182 107.738 130.933 107.486C130.686 107.233 130.312 107.107 129.811 107.107C129.291 107.107 128.883 107.221 128.587 107.449C128.292 107.676 128.084 107.92 127.964 108.178L126.93 107.809C127.115 107.378 127.361 107.042 127.669 106.802C127.98 106.559 128.318 106.39 128.684 106.295C129.054 106.196 129.417 106.147 129.774 106.147C130.002 106.147 130.263 106.174 130.559 106.23C130.857 106.282 131.145 106.391 131.422 106.558C131.702 106.724 131.934 106.975 132.119 107.31C132.304 107.646 132.396 108.095 132.396 108.658V113.33H131.306V112.37H131.251C131.177 112.524 131.054 112.688 130.882 112.864C130.709 113.039 130.48 113.188 130.194 113.312C129.908 113.435 129.558 113.496 129.146 113.496ZM129.312 112.518C129.743 112.518 130.106 112.433 130.402 112.264C130.7 112.094 130.925 111.876 131.076 111.608C131.23 111.34 131.306 111.059 131.306 110.763V109.766C131.26 109.821 131.159 109.872 131.002 109.918C130.848 109.962 130.669 110 130.466 110.034C130.266 110.065 130.071 110.092 129.88 110.117C129.692 110.138 129.54 110.157 129.423 110.172C129.14 110.209 128.875 110.269 128.629 110.352C128.386 110.432 128.189 110.554 128.038 110.717C127.89 110.877 127.816 111.096 127.816 111.373C127.816 111.751 127.956 112.037 128.236 112.231C128.52 112.422 128.878 112.518 129.312 112.518ZM138.742 115.989C138.558 115.989 138.393 115.974 138.248 115.943C138.104 115.915 138.004 115.888 137.948 115.86L138.225 114.9C138.49 114.967 138.724 114.992 138.927 114.973C139.13 114.955 139.31 114.864 139.467 114.701C139.627 114.541 139.773 114.281 139.906 113.921L140.109 113.367L137.487 106.239H138.669L140.626 111.89H140.7L142.657 106.239H143.839L140.829 114.364C140.694 114.73 140.526 115.033 140.326 115.274C140.126 115.517 139.893 115.697 139.629 115.814C139.367 115.931 139.072 115.989 138.742 115.989ZM147.148 113.496C146.699 113.496 146.291 113.412 145.925 113.242C145.558 113.07 145.267 112.822 145.052 112.499C144.837 112.173 144.729 111.779 144.729 111.317C144.729 110.911 144.809 110.582 144.969 110.329C145.129 110.074 145.343 109.874 145.611 109.729C145.878 109.585 146.174 109.477 146.497 109.406C146.823 109.332 147.151 109.274 147.48 109.231C147.911 109.175 148.26 109.134 148.528 109.106C148.799 109.075 148.996 109.024 149.119 108.954C149.245 108.883 149.308 108.76 149.308 108.584V108.547C149.308 108.092 149.184 107.738 148.934 107.486C148.688 107.233 148.314 107.107 147.813 107.107C147.293 107.107 146.885 107.221 146.589 107.449C146.294 107.676 146.086 107.92 145.966 108.178L144.932 107.809C145.117 107.378 145.363 107.042 145.671 106.802C145.981 106.559 146.32 106.39 146.686 106.295C147.056 106.196 147.419 106.147 147.776 106.147C148.003 106.147 148.265 106.174 148.561 106.23C148.859 106.282 149.147 106.391 149.424 106.558C149.704 106.724 149.936 106.975 150.121 107.31C150.306 107.646 150.398 108.095 150.398 108.658V113.33H149.308V112.37H149.253C149.179 112.524 149.056 112.688 148.884 112.864C148.711 113.039 148.482 113.188 148.196 113.312C147.91 113.435 147.56 113.496 147.148 113.496ZM147.314 112.518C147.745 112.518 148.108 112.433 148.404 112.264C148.702 112.094 148.927 111.876 149.078 111.608C149.231 111.34 149.308 111.059 149.308 110.763V109.766C149.262 109.821 149.161 109.872 149.004 109.918C148.85 109.962 148.671 110 148.468 110.034C148.268 110.065 148.073 110.092 147.882 110.117C147.694 110.138 147.542 110.157 147.425 110.172C147.142 110.209 146.877 110.269 146.631 110.352C146.388 110.432 146.191 110.554 146.04 110.717C145.892 110.877 145.818 111.096 145.818 111.373C145.818 111.751 145.958 112.037 146.238 112.231C146.522 112.422 146.88 112.518 147.314 112.518ZM152.183 113.33V112.499L156.209 107.329V107.255H152.313V106.239H157.612V107.107L153.698 112.241V112.314H157.742V113.33H152.183ZM159.42 113.33V106.239H160.509V113.33H159.42ZM163.594 109.064V113.33H162.505V106.239H163.557V107.347H163.649C163.816 106.987 164.068 106.698 164.407 106.479C164.745 106.258 165.182 106.147 165.718 106.147C166.198 106.147 166.618 106.245 166.978 106.442C167.338 106.636 167.618 106.932 167.818 107.329C168.018 107.723 168.118 108.221 168.118 108.824V113.33H167.029V108.898C167.029 108.341 166.884 107.907 166.595 107.596C166.306 107.282 165.908 107.125 165.404 107.125C165.056 107.125 164.745 107.201 164.471 107.352C164.2 107.502 163.986 107.723 163.83 108.012C163.673 108.301 163.594 108.652 163.594 109.064ZM170.903 113.404C170.675 113.404 170.48 113.322 170.317 113.159C170.154 112.996 170.072 112.801 170.072 112.573C170.072 112.345 170.154 112.15 170.317 111.987C170.48 111.824 170.675 111.742 170.903 111.742C171.131 111.742 171.326 111.824 171.489 111.987C171.653 112.15 171.734 112.345 171.734 112.573C171.734 112.724 171.696 112.862 171.619 112.988C171.545 113.115 171.445 113.216 171.319 113.293C171.196 113.367 171.057 113.404 170.903 113.404Z" fill="#737373"/>
</g>
<path d="M20.484 149.66H19.261L22.0091 142.024H23.3402L26.0882 149.66H24.8652L22.7063 143.411H22.6467L20.484 149.66ZM20.6891 146.67H24.6564V147.639H20.6891V146.67ZM33.4496 144.507H32.2863C32.2415 144.258 32.1583 144.04 32.0365 143.851C31.9146 143.662 31.7655 143.501 31.589 143.37C31.4125 143.238 31.2149 143.138 30.9961 143.071C30.7799 143.004 30.5499 142.971 30.3063 142.971C29.8664 142.971 29.4724 143.081 29.1243 143.303C28.7788 143.524 28.5054 143.848 28.304 144.276C28.1052 144.703 28.0057 145.225 28.0057 145.842C28.0057 146.463 28.1052 146.988 28.304 147.415C28.5054 147.843 28.7801 148.166 29.1281 148.385C29.4761 148.604 29.8676 148.713 30.3026 148.713C30.5437 148.713 30.7724 148.681 30.9887 148.616C31.2074 148.549 31.4051 148.451 31.5816 148.321C31.758 148.192 31.9072 148.034 32.029 147.848C32.1533 147.659 32.239 147.443 32.2863 147.199L33.4496 147.203C33.3875 147.578 33.2669 147.924 33.0879 148.239C32.9115 148.553 32.684 148.824 32.4056 149.052C32.1297 149.278 31.814 149.454 31.4585 149.578C31.103 149.702 30.7153 149.764 30.2952 149.764C29.6339 149.764 29.0448 149.608 28.5278 149.295C28.0107 148.979 27.603 148.528 27.3047 147.941C27.0089 147.354 26.861 146.655 26.861 145.842C26.861 145.026 27.0102 144.327 27.3085 143.743C27.6068 143.156 28.0144 142.706 28.5315 142.393C29.0485 142.077 29.6364 141.919 30.2952 141.919C30.7003 141.919 31.0782 141.978 31.4287 142.094C31.7817 142.209 32.0986 142.378 32.3795 142.602C32.6604 142.823 32.8928 143.094 33.0768 143.414C33.2607 143.733 33.385 144.097 33.4496 144.507ZM29.9036 149.671H30.6345L30.5748 149.977C30.7911 150.012 30.98 150.099 31.1416 150.238C31.3031 150.377 31.3839 150.587 31.3839 150.868C31.3864 151.204 31.241 151.476 30.9477 151.685C30.6568 151.893 30.2355 151.998 29.6836 151.998L29.6613 151.375C29.9198 151.375 30.1286 151.338 30.2877 151.263C30.4493 151.189 30.5313 151.068 30.5338 150.902C30.5363 150.735 30.4741 150.618 30.3474 150.551C30.2231 150.484 30.0242 150.437 29.7508 150.409L29.9036 149.671ZM36.2555 142.024V149.66H35.1033V142.024H36.2555ZM38.2084 149.66V142.024H39.3606V145.67H39.4538L42.6567 142.024H44.1072L41.0273 145.461L44.1184 149.66H42.7313L40.2629 146.248L39.3606 147.285V149.66H38.2084ZM45.456 149.66V142.024H46.6082V148.668H50.0684V149.66H45.456ZM52.6925 149.66H51.4695L54.2176 142.024H55.5487L58.2967 149.66H57.0737L54.9148 143.411H54.8552L52.6925 149.66ZM52.8976 146.67H56.8649V147.639H52.8976V146.67ZM59.6745 142.024H61.0728L63.5039 147.96H63.5934L66.0245 142.024H67.4227V149.66H66.3265V144.134H66.2556L64.0035 149.649H63.0937L60.8416 144.13H60.7707V149.66H59.6745V142.024ZM70.0179 149.66H68.7949L71.5429 142.024H72.8741L75.6221 149.66H74.3991L72.2402 143.411H72.1805L70.0179 149.66ZM70.223 146.67H74.1903V147.639H70.223V146.67Z" fill="#A1A1A1"/>
<rect x="17" y="160.66" width="582" height="34.66" rx="8" fill="#171717" fill-opacity="0.6"/>
<rect x="17.5" y="161.16" width="581" height="33.66" rx="7.5" stroke="white" stroke-opacity="0.1"/>
<g clip-path="url(#clip2_8_67)">
<path d="M31.1993 182.99H29.999L33.4706 173.535H34.6524L38.124 182.99H36.9237L34.0984 175.031H34.0246L31.1993 182.99ZM31.6425 179.297H36.4805V180.312H31.6425V179.297ZM42.3296 183.138C41.6649 183.138 41.0924 182.981 40.6123 182.667C40.1322 182.353 39.7629 181.92 39.5043 181.37C39.2458 180.819 39.1166 180.189 39.1166 179.481C39.1166 178.761 39.2489 178.126 39.5136 177.575C39.7813 177.021 40.1537 176.588 40.6308 176.278C41.1109 175.964 41.671 175.807 42.3112 175.807C42.8097 175.807 43.2591 175.899 43.6592 176.084C44.0593 176.268 44.387 176.527 44.6425 176.859C44.8979 177.192 45.0564 177.579 45.118 178.023H44.0285C43.9454 177.699 43.7607 177.413 43.4745 177.164C43.1914 176.912 42.8097 176.785 42.3296 176.785C41.9049 176.785 41.5325 176.896 41.2124 177.118C40.8954 177.336 40.6477 177.646 40.4692 178.046C40.2938 178.443 40.206 178.909 40.206 179.444C40.206 179.992 40.2922 180.469 40.4646 180.876C40.64 181.282 40.8862 181.597 41.2032 181.822C41.5233 182.047 41.8988 182.159 42.3296 182.159C42.6128 182.159 42.8698 182.11 43.1006 182.011C43.3314 181.913 43.5268 181.771 43.6869 181.587C43.8469 181.402 43.9608 181.18 44.0285 180.922H45.118C45.0564 181.34 44.9041 181.717 44.6609 182.053C44.4209 182.385 44.1024 182.65 43.7053 182.847C43.3114 183.041 42.8528 183.138 42.3296 183.138ZM41.8126 182.953H42.7174L42.6435 183.322C42.8836 183.359 43.1037 183.459 43.3037 183.622C43.5037 183.789 43.6038 184.052 43.6038 184.412C43.6038 184.809 43.4391 185.132 43.1098 185.381C42.7836 185.634 42.3019 185.76 41.6649 185.76L41.6279 185.04C41.9141 185.04 42.1511 184.993 42.3389 184.901C42.5297 184.812 42.6251 184.661 42.6251 184.449C42.6251 184.236 42.5466 184.092 42.3896 184.015C42.2327 183.938 41.9788 183.886 41.6279 183.858L41.8126 182.953ZM46.7107 182.99V175.899H47.8001V182.99H46.7107ZM50.8112 180.405L50.7928 179.057H51.0144L54.1166 175.899H55.4647L52.1593 179.241H52.0669L50.8112 180.405ZM49.7956 182.99V173.535H50.8851V182.99H49.7956ZM54.3013 182.99L51.5314 179.481L52.307 178.724L55.6862 182.99H54.3013ZM57.9564 173.535V182.99H56.8669V173.535H57.9564ZM62.0385 183.156C61.5892 183.156 61.1814 183.071 60.8152 182.902C60.4489 182.73 60.1581 182.482 59.9426 182.159C59.7272 181.833 59.6195 181.439 59.6195 180.977C59.6195 180.571 59.6995 180.242 59.8595 179.989C60.0196 179.734 60.2335 179.534 60.5012 179.389C60.769 179.244 61.0644 179.137 61.3876 179.066C61.7138 178.992 62.0416 178.934 62.3709 178.89C62.8018 178.835 63.1511 178.794 63.4188 178.766C63.6897 178.735 63.8866 178.684 64.0098 178.614C64.1359 178.543 64.199 178.42 64.199 178.244V178.207C64.199 177.752 64.0744 177.398 63.8251 177.145C63.5789 176.893 63.2049 176.767 62.7033 176.767C62.1832 176.767 61.7754 176.881 61.4799 177.109C61.1845 177.336 60.9767 177.579 60.8567 177.838L59.8226 177.469C60.0073 177.038 60.2535 176.702 60.5612 176.462C60.8721 176.219 61.2106 176.05 61.5769 175.954C61.9462 175.856 62.3094 175.807 62.6664 175.807C62.8941 175.807 63.1557 175.834 63.4512 175.89C63.7497 175.942 64.0375 176.051 64.3144 176.218C64.5945 176.384 64.8269 176.635 65.0115 176.97C65.1962 177.306 65.2885 177.755 65.2885 178.318V182.99H64.199V182.03H64.1436C64.0698 182.184 63.9467 182.348 63.7743 182.524C63.602 182.699 63.3727 182.848 63.0865 182.971C62.8002 183.095 62.4509 183.156 62.0385 183.156ZM62.2047 182.177C62.6356 182.177 62.9987 182.093 63.2942 181.924C63.5927 181.754 63.8174 181.536 63.9682 181.268C64.1221 181 64.199 180.719 64.199 180.423V179.426C64.1529 179.481 64.0513 179.532 63.8943 179.578C63.7405 179.621 63.562 179.66 63.3588 179.694C63.1588 179.725 62.9634 179.752 62.7725 179.777C62.5848 179.798 62.4325 179.817 62.3155 179.832C62.0324 179.869 61.7677 179.929 61.5215 180.012C61.2783 180.092 61.0814 180.214 60.9306 180.377C60.7828 180.537 60.709 180.756 60.709 181.033C60.709 181.411 60.849 181.697 61.1291 181.891C61.4122 182.082 61.7708 182.177 62.2047 182.177ZM67.2771 182.99V175.899H68.3296V177.007H68.422C68.5697 176.628 68.8082 176.335 69.1375 176.125C69.4668 175.913 69.8623 175.807 70.3239 175.807C70.7917 175.807 71.1811 175.913 71.4919 176.125C71.8058 176.335 72.0505 176.628 72.2259 177.007H72.2998C72.4814 176.641 72.7537 176.35 73.1169 176.134C73.4801 175.916 73.9156 175.807 74.4234 175.807C75.0574 175.807 75.576 176.005 75.9791 176.402C76.3823 176.796 76.5839 177.41 76.5839 178.244V182.99H75.4944V178.244C75.4944 177.721 75.3513 177.347 75.0651 177.122C74.7788 176.898 74.4418 176.785 74.0541 176.785C73.5555 176.785 73.1692 176.936 72.8953 177.238C72.6214 177.536 72.4845 177.915 72.4845 178.373V182.99H71.3765V178.133C71.3765 177.73 71.2457 177.406 70.9841 177.159C70.7225 176.91 70.3855 176.785 69.9731 176.785C69.6899 176.785 69.4253 176.861 69.1791 177.012C68.9359 177.162 68.739 177.372 68.5881 177.639C68.4404 177.904 68.3666 178.21 68.3666 178.558V182.99H67.2771ZM80.6625 183.156C80.2132 183.156 79.8054 183.071 79.4392 182.902C79.0729 182.73 78.7821 182.482 78.5667 182.159C78.3512 181.833 78.2435 181.439 78.2435 180.977C78.2435 180.571 78.3235 180.242 78.4836 179.989C78.6436 179.734 78.8575 179.534 79.1253 179.389C79.393 179.244 79.6885 179.137 80.0116 179.066C80.3378 178.992 80.6656 178.934 80.9949 178.89C81.4258 178.835 81.7751 178.794 82.0429 178.766C82.3137 178.735 82.5107 178.684 82.6338 178.614C82.76 178.543 82.8231 178.42 82.8231 178.244V178.207C82.8231 177.752 82.6984 177.398 82.4491 177.145C82.2029 176.893 81.829 176.767 81.3273 176.767C80.8072 176.767 80.3994 176.881 80.1039 177.109C79.8085 177.336 79.6008 177.579 79.4807 177.838L78.4466 177.469C78.6313 177.038 78.8775 176.702 79.1853 176.462C79.4961 176.219 79.8347 176.05 80.2009 175.954C80.5702 175.856 80.9334 175.807 81.2904 175.807C81.5181 175.807 81.7797 175.834 82.0752 175.89C82.3737 175.942 82.6615 176.051 82.9385 176.218C83.2185 176.384 83.4509 176.635 83.6356 176.97C83.8202 177.306 83.9125 177.755 83.9125 178.318V182.99H82.8231V182.03H82.7677C82.6938 182.184 82.5707 182.348 82.3983 182.524C82.226 182.699 81.9967 182.848 81.7105 182.971C81.4243 183.095 81.0749 183.156 80.6625 183.156ZM80.8287 182.177C81.2596 182.177 81.6228 182.093 81.9182 181.924C82.2168 181.754 82.4414 181.536 82.5922 181.268C82.7461 181 82.8231 180.719 82.8231 180.423V179.426C82.7769 179.481 82.6753 179.532 82.5184 179.578C82.3645 179.621 82.186 179.66 81.9829 179.694C81.7828 179.725 81.5874 179.752 81.3966 179.777C81.2088 179.798 81.0565 179.817 80.9395 179.832C80.6564 179.869 80.3917 179.929 80.1455 180.012C79.9024 180.092 79.7054 180.214 79.5546 180.377C79.4069 180.537 79.333 180.756 79.333 181.033C79.333 181.411 79.473 181.697 79.7531 181.891C80.0362 182.082 80.3948 182.177 80.8287 182.177ZM86.9906 178.724V182.99H85.9011V175.899H86.9536V177.007H87.046C87.2122 176.647 87.4645 176.358 87.8031 176.139C88.1416 175.917 88.5786 175.807 89.1142 175.807C89.5943 175.807 90.0144 175.905 90.3745 176.102C90.7345 176.296 91.0146 176.591 91.2147 176.989C91.4147 177.382 91.5147 177.881 91.5147 178.484V182.99H90.4252V178.558C90.4252 178.001 90.2806 177.567 89.9913 177.256C89.702 176.942 89.305 176.785 88.8002 176.785C88.4525 176.785 88.1416 176.861 87.8677 177.012C87.5969 177.162 87.383 177.382 87.226 177.672C87.0691 177.961 86.9906 178.312 86.9906 178.724ZM93.5056 182.99V175.899H94.5951V182.99H93.5056ZM96.3874 182.99V182.159L100.413 176.989V176.915H96.5167V175.899H101.816V176.767L97.9016 181.9V181.974H101.946V182.99H96.3874ZM103.624 182.99V175.899H104.713V182.99H103.624ZM110.513 182.99V173.535H111.602V177.025H111.695C111.775 176.902 111.885 176.745 112.027 176.555C112.172 176.361 112.378 176.188 112.645 176.038C112.916 175.884 113.283 175.807 113.744 175.807C114.341 175.807 114.868 175.956 115.323 176.254C115.779 176.553 116.134 176.976 116.389 177.524C116.645 178.072 116.773 178.718 116.773 179.463C116.773 180.214 116.645 180.865 116.389 181.416C116.134 181.964 115.78 182.388 115.328 182.69C114.875 182.988 114.354 183.138 113.763 183.138C113.307 183.138 112.942 183.062 112.669 182.911C112.395 182.758 112.184 182.584 112.036 182.39C111.888 182.193 111.775 182.03 111.695 181.9H111.565V182.99H110.513ZM111.584 179.444C111.584 179.98 111.662 180.452 111.819 180.862C111.976 181.268 112.205 181.587 112.507 181.817C112.809 182.045 113.178 182.159 113.615 182.159C114.07 182.159 114.451 182.039 114.755 181.799C115.063 181.556 115.294 181.23 115.448 180.82C115.605 180.408 115.683 179.949 115.683 179.444C115.683 178.946 115.606 178.497 115.452 178.096C115.302 177.693 115.072 177.375 114.764 177.141C114.46 176.904 114.077 176.785 113.615 176.785C113.172 176.785 112.799 176.898 112.498 177.122C112.196 177.344 111.968 177.655 111.815 178.055C111.661 178.452 111.584 178.915 111.584 179.444ZM122.908 180.091V175.899H123.997V182.99H122.908V181.79H122.834C122.668 182.15 122.409 182.456 122.058 182.708C121.708 182.958 121.264 183.082 120.729 183.082C120.286 183.082 119.892 182.985 119.547 182.791C119.202 182.594 118.932 182.299 118.735 181.905C118.538 181.508 118.439 181.008 118.439 180.405V175.899H119.529V180.331C119.529 180.848 119.673 181.26 119.963 181.568C120.255 181.876 120.627 182.03 121.08 182.03C121.351 182.03 121.626 181.96 121.906 181.822C122.189 181.683 122.426 181.471 122.617 181.185C122.811 180.899 122.908 180.534 122.908 180.091ZM125.993 182.99V175.899H127.045V176.97H127.119C127.249 176.619 127.482 176.335 127.821 176.116C128.16 175.897 128.541 175.788 128.966 175.788C129.046 175.788 129.146 175.79 129.266 175.793C129.386 175.796 129.477 175.801 129.538 175.807V176.915C129.501 176.905 129.417 176.892 129.284 176.873C129.155 176.852 129.018 176.841 128.874 176.841C128.529 176.841 128.221 176.913 127.95 177.058C127.683 177.199 127.47 177.396 127.313 177.649C127.159 177.898 127.082 178.183 127.082 178.503V182.99H125.993ZM132.916 183.156C132.467 183.156 132.059 183.071 131.693 182.902C131.327 182.73 131.036 182.482 130.821 182.159C130.605 181.833 130.497 181.439 130.497 180.977C130.497 180.571 130.577 180.242 130.737 179.989C130.898 179.734 131.111 179.534 131.379 179.389C131.647 179.244 131.942 179.137 132.266 179.066C132.592 178.992 132.92 178.934 133.249 178.89C133.68 178.835 134.029 178.794 134.297 178.766C134.568 178.735 134.765 178.684 134.888 178.614C135.014 178.543 135.077 178.42 135.077 178.244V178.207C135.077 177.752 134.952 177.398 134.703 177.145C134.457 176.893 134.083 176.767 133.581 176.767C133.061 176.767 132.653 176.881 132.358 177.109C132.062 177.336 131.855 177.579 131.735 177.838L130.701 177.469C130.885 177.038 131.131 176.702 131.439 176.462C131.75 176.219 132.089 176.05 132.455 175.954C132.824 175.856 133.187 175.807 133.544 175.807C133.772 175.807 134.034 175.834 134.329 175.89C134.628 175.942 134.915 176.051 135.192 176.218C135.472 176.384 135.705 176.635 135.889 176.97C136.074 177.306 136.166 177.755 136.166 178.318V182.99H135.077V182.03H135.022C134.948 182.184 134.825 182.348 134.652 182.524C134.48 182.699 134.251 182.848 133.964 182.971C133.678 183.095 133.329 183.156 132.916 183.156ZM133.083 182.177C133.514 182.177 133.877 182.093 134.172 181.924C134.471 181.754 134.695 181.536 134.846 181.268C135 181 135.077 180.719 135.077 180.423V179.426C135.031 179.481 134.929 179.532 134.772 179.578C134.618 179.621 134.44 179.66 134.237 179.694C134.037 179.725 133.841 179.752 133.65 179.777C133.463 179.798 133.31 179.817 133.193 179.832C132.91 179.869 132.646 179.929 132.399 180.012C132.156 180.092 131.959 180.214 131.808 180.377C131.661 180.537 131.587 180.756 131.587 181.033C131.587 181.411 131.727 181.697 132.007 181.891C132.29 182.082 132.649 182.177 133.083 182.177ZM138.603 185.649C138.418 185.649 138.253 185.634 138.109 185.603C137.964 185.575 137.864 185.547 137.809 185.52L138.086 184.56C138.35 184.627 138.584 184.652 138.787 184.633C138.991 184.615 139.171 184.524 139.328 184.361C139.488 184.201 139.634 183.941 139.766 183.581L139.969 183.027L137.347 175.899H138.529L140.486 181.55H140.56L142.518 175.899H143.699L140.689 184.024C140.554 184.39 140.386 184.693 140.186 184.933C139.986 185.177 139.754 185.357 139.489 185.474C139.228 185.591 138.932 185.649 138.603 185.649ZM147.008 183.156C146.559 183.156 146.151 183.071 145.785 182.902C145.419 182.73 145.128 182.482 144.912 182.159C144.697 181.833 144.589 181.439 144.589 180.977C144.589 180.571 144.669 180.242 144.829 179.989C144.989 179.734 145.203 179.534 145.471 179.389C145.739 179.244 146.034 179.137 146.357 179.066C146.684 178.992 147.011 178.934 147.341 178.89C147.772 178.835 148.121 178.794 148.389 178.766C148.659 178.735 148.856 178.684 148.979 178.614C149.106 178.543 149.169 178.42 149.169 178.244V178.207C149.169 177.752 149.044 177.398 148.795 177.145C148.549 176.893 148.175 176.767 147.673 176.767C147.153 176.767 146.745 176.881 146.45 177.109C146.154 177.336 145.946 177.579 145.826 177.838L144.792 177.469C144.977 177.038 145.223 176.702 145.531 176.462C145.842 176.219 146.18 176.05 146.547 175.954C146.916 175.856 147.279 175.807 147.636 175.807C147.864 175.807 148.125 175.834 148.421 175.89C148.719 175.942 149.007 176.051 149.284 176.218C149.564 176.384 149.797 176.635 149.981 176.97C150.166 177.306 150.258 177.755 150.258 178.318V182.99H149.169V182.03H149.113C149.039 182.184 148.916 182.348 148.744 182.524C148.572 182.699 148.342 182.848 148.056 182.971C147.77 183.095 147.421 183.156 147.008 183.156ZM147.174 182.177C147.605 182.177 147.968 182.093 148.264 181.924C148.562 181.754 148.787 181.536 148.938 181.268C149.092 181 149.169 180.719 149.169 180.423V179.426C149.123 179.481 149.021 179.532 148.864 179.578C148.71 179.621 148.532 179.66 148.329 179.694C148.129 179.725 147.933 179.752 147.742 179.777C147.555 179.798 147.402 179.817 147.285 179.832C147.002 179.869 146.737 179.929 146.491 180.012C146.248 180.092 146.051 180.214 145.9 180.377C145.753 180.537 145.679 180.756 145.679 181.033C145.679 181.411 145.819 181.697 146.099 181.891C146.382 182.082 146.74 182.177 147.174 182.177ZM156.605 185.649C156.42 185.649 156.255 185.634 156.111 185.603C155.966 185.575 155.866 185.547 155.811 185.52L156.088 184.56C156.352 184.627 156.586 184.652 156.789 184.633C156.993 184.615 157.173 184.524 157.33 184.361C157.49 184.201 157.636 183.941 157.768 183.581L157.971 183.027L155.349 175.899H156.531L158.488 181.55H158.562L160.52 175.899H161.701L158.691 184.024C158.556 184.39 158.388 184.693 158.188 184.933C157.988 185.177 157.756 185.357 157.491 185.474C157.23 185.591 156.934 185.649 156.605 185.649ZM165.01 183.156C164.561 183.156 164.153 183.071 163.787 182.902C163.421 182.73 163.13 182.482 162.914 182.159C162.699 181.833 162.591 181.439 162.591 180.977C162.591 180.571 162.671 180.242 162.831 179.989C162.991 179.734 163.205 179.534 163.473 179.389C163.741 179.244 164.036 179.137 164.359 179.066C164.686 178.992 165.013 178.934 165.343 178.89C165.773 178.835 166.123 178.794 166.391 178.766C166.661 178.735 166.858 178.684 166.981 178.614C167.108 178.543 167.171 178.42 167.171 178.244V178.207C167.171 177.752 167.046 177.398 166.797 177.145C166.551 176.893 166.177 176.767 165.675 176.767C165.155 176.767 164.747 176.881 164.452 177.109C164.156 177.336 163.948 177.579 163.828 177.838L162.794 177.469C162.979 177.038 163.225 176.702 163.533 176.462C163.844 176.219 164.182 176.05 164.549 175.954C164.918 175.856 165.281 175.807 165.638 175.807C165.866 175.807 166.127 175.834 166.423 175.89C166.721 175.942 167.009 176.051 167.286 176.218C167.566 176.384 167.799 176.635 167.983 176.97C168.168 177.306 168.26 177.755 168.26 178.318V182.99H167.171V182.03H167.115C167.041 182.184 166.918 182.348 166.746 182.524C166.574 182.699 166.344 182.848 166.058 182.971C165.772 183.095 165.423 183.156 165.01 183.156ZM165.176 182.177C165.607 182.177 165.97 182.093 166.266 181.924C166.564 181.754 166.789 181.536 166.94 181.268C167.094 181 167.171 180.719 167.171 180.423V179.426C167.125 179.481 167.023 179.532 166.866 179.578C166.712 179.621 166.534 179.66 166.331 179.694C166.13 179.725 165.935 179.752 165.744 179.777C165.556 179.798 165.404 179.817 165.287 179.832C165.004 179.869 164.739 179.929 164.493 180.012C164.25 180.092 164.053 180.214 163.902 180.377C163.755 180.537 163.681 180.756 163.681 181.033C163.681 181.411 163.821 181.697 164.101 181.891C164.384 182.082 164.742 182.177 165.176 182.177ZM170.046 182.99V182.159L174.071 176.989V176.915H170.175V175.899H175.475V176.767L171.56 181.9V181.974H175.604V182.99H170.046ZM177.282 182.99V175.899H178.371V182.99H177.282ZM181.456 178.724V182.99H180.367V175.899H181.419V177.007H181.512C181.678 176.647 181.93 176.358 182.269 176.139C182.607 175.917 183.044 175.807 183.58 175.807C184.06 175.807 184.48 175.905 184.84 176.102C185.2 176.296 185.48 176.591 185.68 176.989C185.881 177.382 185.981 177.881 185.981 178.484V182.99H184.891V178.558C184.891 178.001 184.746 177.567 184.457 177.256C184.168 176.942 183.771 176.785 183.266 176.785C182.918 176.785 182.607 176.861 182.334 177.012C182.063 177.162 181.849 177.382 181.692 177.672C181.535 177.961 181.456 178.312 181.456 178.724ZM188.765 183.064C188.538 183.064 188.342 182.982 188.179 182.819C188.016 182.656 187.934 182.461 187.934 182.233C187.934 182.005 188.016 181.81 188.179 181.647C188.342 181.483 188.538 181.402 188.765 181.402C188.993 181.402 189.189 181.483 189.352 181.647C189.515 181.81 189.596 182.005 189.596 182.233C189.596 182.384 189.558 182.522 189.481 182.648C189.407 182.774 189.307 182.876 189.181 182.953C189.058 183.027 188.919 183.064 188.765 183.064Z" fill="#737373"/>
</g>
<defs>
<clipPath id="clip0_8_67">
<rect width="340.333" height="20" fill="white" transform="translate(49 16.1667)"/>
</clipPath>
<clipPath id="clip1_8_67">
<rect width="556.667" height="16" fill="white" transform="translate(29.6666 100.33)"/>
</clipPath>
<clipPath id="clip2_8_67">
<rect width="556.667" height="16" fill="white" transform="translate(29.6666 169.99)"/>
</clipPath>
</defs>
</svg>
