<svg width="616" height="213" viewBox="0 0 616 213" fill="none" xmlns="http://www.w3.org/2000/svg">
<rect width="616" height="212.32" rx="12" fill="#171717"/>
<rect x="0.5" y="0.5" width="615" height="211.32" rx="11.5" stroke="white" stroke-opacity="0.05"/>
<rect x="13" y="14.1667" width="24" height="24" rx="6" fill="white" fill-opacity="0.05"/>
<rect x="13.5" y="14.6667" width="23" height="23" rx="5.5" stroke="white" stroke-opacity="0.1"/>
<path d="M25.0029 29.8532C24.7228 29.8532 24.4828 29.7548 24.2827 29.5578C24.0827 29.3608 23.9842 29.1208 23.9873 28.8376C23.9842 28.5606 24.0827 28.3236 24.2827 28.1267C24.4828 27.9297 24.7228 27.8312 25.0029 27.8312C25.2737 27.8312 25.5092 27.9297 25.7092 28.1267C25.9123 28.3236 26.0154 28.5606 26.0185 28.8376C26.0154 29.0254 25.9662 29.1962 25.8708 29.35C25.7785 29.5039 25.6553 29.627 25.5015 29.7194C25.3507 29.8086 25.1845 29.8532 25.0029 29.8532Z" fill="#A1A1A1"/>
<g clip-path="url(#clip0_1_236)">
<path d="M50.8656 31.1667H49.3281L52.7828 21.5667H54.4563L57.9109 31.1667H56.3734L53.6594 23.3104H53.5844L50.8656 31.1667ZM51.1234 27.4073H56.1109V28.626H51.1234V27.4073ZM59.1684 33.8667C58.959 33.8667 58.7684 33.8495 58.5965 33.8151C58.4246 33.7839 58.2965 33.7495 58.2121 33.712L58.5496 32.5635C58.8059 32.6323 59.034 32.662 59.234 32.6526C59.434 32.6432 59.6105 32.5682 59.7637 32.4276C59.9199 32.287 60.0574 32.0573 60.1762 31.7385L60.3496 31.2604L57.7152 23.9667H59.2152L61.0387 29.5542H61.1137L62.9371 23.9667H64.4418L61.4746 32.1276C61.3371 32.5026 61.1621 32.8198 60.9496 33.0792C60.7371 33.3417 60.484 33.5385 60.1902 33.6698C59.8965 33.801 59.5559 33.8667 59.1684 33.8667ZM65.759 31.1667V23.9667H67.1605V31.1667H65.759ZM69.0461 31.1667V23.9667H70.4008V25.1104H70.4758C70.607 24.7229 70.8383 24.4182 71.1695 24.1964C71.5039 23.9714 71.882 23.8589 72.3039 23.8589C72.3914 23.8589 72.4945 23.862 72.6133 23.8682C72.7352 23.8745 72.8305 23.8823 72.8992 23.8917V25.2323C72.843 25.2167 72.743 25.1995 72.5992 25.1807C72.4555 25.1589 72.3117 25.1479 72.168 25.1479C71.8367 25.1479 71.5414 25.2182 71.282 25.3589C71.0258 25.4964 70.8227 25.6885 70.6727 25.9354C70.5227 26.1792 70.4477 26.4573 70.4477 26.7698V31.1667H69.0461ZM76.143 31.326C75.6867 31.326 75.2742 31.2417 74.9055 31.0729C74.5367 30.901 74.2445 30.6526 74.0289 30.3276C73.8164 30.0026 73.7102 29.6042 73.7102 29.1323C73.7102 28.726 73.7883 28.3917 73.9445 28.1292C74.1008 27.8667 74.3117 27.6589 74.5773 27.5057C74.843 27.3526 75.1398 27.237 75.468 27.1589C75.7961 27.0807 76.1305 27.0214 76.4711 26.9807C76.9023 26.9307 77.2523 26.8901 77.5211 26.8589C77.7898 26.8245 77.9852 26.7698 78.107 26.6948C78.2289 26.6198 78.2898 26.4979 78.2898 26.3292V26.2964C78.2898 25.887 78.1742 25.5698 77.943 25.3448C77.7148 25.1198 77.3742 25.0073 76.9211 25.0073C76.4492 25.0073 76.0773 25.112 75.8055 25.3214C75.5367 25.5276 75.3508 25.7573 75.2477 26.0104L73.9305 25.7104C74.0867 25.2729 74.3148 24.9198 74.6148 24.651C74.918 24.3792 75.2664 24.1823 75.6602 24.0604C76.0539 23.9354 76.468 23.8729 76.9023 23.8729C77.1898 23.8729 77.4945 23.9073 77.8164 23.976C78.1414 24.0417 78.4445 24.1635 78.7258 24.3417C79.0102 24.5198 79.243 24.7745 79.4242 25.1057C79.6055 25.4339 79.6961 25.8604 79.6961 26.3854V31.1667H78.3273V30.1823H78.2711C78.1805 30.3635 78.0445 30.5417 77.8633 30.7167C77.682 30.8917 77.4492 31.037 77.1648 31.1526C76.8805 31.2682 76.5398 31.326 76.143 31.326ZM76.4477 30.201C76.8352 30.201 77.1664 30.1245 77.4414 29.9714C77.7195 29.8182 77.9305 29.6182 78.0742 29.3714C78.2211 29.1214 78.2945 28.8542 78.2945 28.5698V27.6417C78.2445 27.6917 78.1477 27.7385 78.0039 27.7823C77.8633 27.8229 77.7023 27.8589 77.5211 27.8901C77.3398 27.9182 77.1633 27.9448 76.9914 27.9698C76.8195 27.9917 76.6758 28.0104 76.5602 28.026C76.2883 28.0604 76.0398 28.1182 75.8148 28.1995C75.593 28.2807 75.4148 28.3979 75.2805 28.551C75.1492 28.701 75.0836 28.901 75.0836 29.151C75.0836 29.4979 75.2117 29.7604 75.468 29.9385C75.7242 30.1135 76.0508 30.201 76.4477 30.201ZM84.5957 31.312C83.8988 31.312 83.2988 31.1542 82.7957 30.8385C82.2957 30.5198 81.9113 30.0807 81.6426 29.5214C81.3738 28.962 81.2395 28.3214 81.2395 27.5995C81.2395 26.8682 81.377 26.2229 81.652 25.6635C81.927 25.101 82.3145 24.662 82.8145 24.3464C83.3145 24.0307 83.9035 23.8729 84.5816 23.8729C85.1285 23.8729 85.616 23.9745 86.0441 24.1776C86.4723 24.3776 86.8176 24.6589 87.0801 25.0214C87.3457 25.3839 87.5035 25.8073 87.5535 26.2917H86.1895C86.1145 25.9542 85.9426 25.6635 85.6738 25.4198C85.4082 25.176 85.052 25.0542 84.6051 25.0542C84.2145 25.0542 83.8723 25.1573 83.5785 25.3635C83.2879 25.5667 83.0613 25.8573 82.8988 26.2354C82.7363 26.6104 82.6551 27.0542 82.6551 27.5667C82.6551 28.0917 82.7348 28.5448 82.8941 28.926C83.0535 29.3073 83.2785 29.6026 83.5691 29.812C83.8629 30.0214 84.2082 30.126 84.6051 30.126C84.8707 30.126 85.1113 30.0776 85.327 29.9807C85.5457 29.8807 85.7285 29.7385 85.8754 29.5542C86.0254 29.3698 86.1301 29.1479 86.1895 28.8885H87.5535C87.5035 29.3542 87.352 29.7698 87.0988 30.1354C86.8457 30.501 86.5066 30.7885 86.0816 30.9979C85.6598 31.2073 85.1645 31.312 84.5957 31.312ZM84.0895 31.1292H85.0082L84.9332 31.5135C85.2051 31.5573 85.4426 31.6667 85.6457 31.8417C85.8488 32.0167 85.9504 32.2807 85.9504 32.6339C85.9535 33.0557 85.7707 33.3979 85.402 33.6604C85.0363 33.9229 84.5066 34.0542 83.8129 34.0542L83.7848 33.2714C84.1098 33.2714 84.3723 33.2245 84.5723 33.1307C84.7754 33.037 84.8785 32.8854 84.8816 32.676C84.8848 32.4667 84.8066 32.3198 84.6473 32.2354C84.491 32.151 84.241 32.0917 83.8973 32.0573L84.0895 31.1292Z" fill="#E5E5E5"/>
</g>
<rect x="538.667" y="11" width="64.3333" height="30.3333" rx="8" fill="white" fill-opacity="0.05"/>
<rect x="539.167" y="11.5" width="63.3333" height="29.3333" rx="7.5" stroke="white" stroke-opacity="0.1"/>
<path d="M550.583 21.2917V27.7917" stroke="#A1A1A1" stroke-width="1.08333" stroke-linecap="round" stroke-linejoin="round"/>
<path d="M557.083 24.5417C557.981 24.5417 558.708 23.8141 558.708 22.9167C558.708 22.0192 557.981 21.2917 557.083 21.2917C556.186 21.2917 555.458 22.0192 555.458 22.9167C555.458 23.8141 556.186 24.5417 557.083 24.5417Z" stroke="#A1A1A1" stroke-width="1.08333" stroke-linecap="round" stroke-linejoin="round"/>
<path d="M550.583 31.0417C551.481 31.0417 552.208 30.3141 552.208 29.4167C552.208 28.5192 551.481 27.7917 550.583 27.7917C549.686 27.7917 548.958 28.5192 548.958 29.4167C548.958 30.3141 549.686 31.0417 550.583 31.0417Z" stroke="#A1A1A1" stroke-width="1.08333" stroke-linecap="round" stroke-linejoin="round"/>
<path d="M557.083 24.5417C557.083 25.8346 556.57 27.0746 555.655 27.9888C554.741 28.9031 553.501 29.4167 552.208 29.4167" stroke="#A1A1A1" stroke-width="1.08333" stroke-linecap="round" stroke-linejoin="round"/>
<path d="M567.488 29.6667V22.0303H568.641V25.677H568.734L571.937 22.0303H573.387L570.307 25.4682L573.398 29.6667H572.011L569.543 26.2549L568.641 27.2915V29.6667H567.488ZM576.364 29.7823C575.827 29.7823 575.358 29.6592 574.958 29.4131C574.558 29.167 574.247 28.8227 574.026 28.3803C573.804 27.9378 573.694 27.4208 573.694 26.8291C573.694 26.235 573.804 25.7155 574.026 25.2705C574.247 24.8256 574.558 24.4801 574.958 24.234C575.358 23.9879 575.827 23.8648 576.364 23.8648C576.901 23.8648 577.369 23.9879 577.769 24.234C578.17 24.4801 578.48 24.8256 578.701 25.2705C578.923 25.7155 579.033 26.235 579.033 26.8291C579.033 27.4208 578.923 27.9378 578.701 28.3803C578.48 28.8227 578.17 29.167 577.769 29.4131C577.369 29.6592 576.901 29.7823 576.364 29.7823ZM576.367 28.8464C576.715 28.8464 577.004 28.7544 577.232 28.5704C577.461 28.3865 577.63 28.1416 577.739 27.8359C577.851 27.5301 577.907 27.1933 577.907 26.8254C577.907 26.46 577.851 26.1244 577.739 25.8187C577.63 25.5104 577.461 25.2631 577.232 25.0767C577.004 24.8902 576.715 24.797 576.367 24.797C576.017 24.797 575.726 24.8902 575.495 25.0767C575.266 25.2631 575.096 25.5104 574.984 25.8187C574.875 26.1244 574.82 26.46 574.82 26.8254C574.82 27.1933 574.875 27.5301 574.984 27.8359C575.096 28.1416 575.266 28.3865 575.495 28.5704C575.726 28.7544 576.017 28.8464 576.367 28.8464ZM584.57 25.3377L583.559 25.5166C583.517 25.3874 583.45 25.2643 583.358 25.1475C583.268 25.0307 583.146 24.935 582.992 24.8604C582.838 24.7858 582.646 24.7485 582.414 24.7485C582.099 24.7485 581.835 24.8194 581.624 24.9611C581.413 25.1003 581.307 25.2805 581.307 25.5017C581.307 25.6931 581.378 25.8472 581.519 25.9641C581.661 26.0809 581.89 26.1766 582.206 26.2512L583.115 26.46C583.642 26.5818 584.035 26.7695 584.294 27.023C584.552 27.2766 584.681 27.6059 584.681 28.0111C584.681 28.3542 584.582 28.6599 584.383 28.9284C584.187 29.1944 583.912 29.4032 583.559 29.5548C583.209 29.7064 582.802 29.7823 582.34 29.7823C581.698 29.7823 581.175 29.6455 580.77 29.3721C580.365 29.0962 580.116 28.7047 580.024 28.1976L581.102 28.0335C581.169 28.3144 581.307 28.5269 581.516 28.6711C581.725 28.8128 581.997 28.8836 582.332 28.8836C582.698 28.8836 582.99 28.8078 583.209 28.6562C583.427 28.5021 583.537 28.3144 583.537 28.0932C583.537 27.9142 583.47 27.7638 583.335 27.642C583.204 27.5202 583.001 27.4282 582.728 27.3661L581.758 27.1535C581.224 27.0317 580.828 26.8378 580.572 26.5719C580.319 26.3059 580.192 25.9691 580.192 25.5614C580.192 25.2233 580.286 24.9275 580.475 24.674C580.664 24.4204 580.925 24.2228 581.258 24.0811C581.592 23.9369 581.973 23.8648 582.403 23.8648C583.022 23.8648 583.509 23.9991 583.865 24.2675C584.22 24.5335 584.455 24.8902 584.57 25.3377ZM582.004 29.6368H582.735L582.675 29.9426C582.892 29.9774 583.081 30.0644 583.242 30.2036C583.404 30.3428 583.484 30.5529 583.484 30.8338C583.487 31.1693 583.342 31.4415 583.048 31.6503C582.757 31.8591 582.336 31.9635 581.784 31.9635L581.762 31.3409C582.02 31.3409 582.229 31.3036 582.388 31.229C582.55 31.1544 582.632 31.0339 582.634 30.8673C582.637 30.7008 582.575 30.5839 582.448 30.5168C582.324 30.4497 582.125 30.4025 581.851 30.3751L582.004 29.6368ZM589.535 27.2915V23.9394H590.654V29.6667H589.558V28.6748H589.498C589.366 28.9806 589.155 29.2354 588.864 29.4392C588.576 29.6406 588.216 29.7412 587.786 29.7412C587.419 29.7412 587.093 29.6605 586.81 29.4989C586.529 29.3348 586.307 29.0925 586.146 28.7718C585.987 28.4511 585.907 28.0546 585.907 27.5823V23.9394H587.022V27.4481C587.022 27.8384 587.13 28.1491 587.346 28.3803C587.563 28.6115 587.844 28.727 588.189 28.727C588.398 28.727 588.606 28.6748 588.812 28.5704C589.021 28.466 589.193 28.3082 589.33 28.0969C589.469 27.8856 589.538 27.6171 589.535 27.2915ZM593.267 22.0303V29.6667H592.152V22.0303H593.267Z" fill="#A1A1A1"/>
<path d="M19.807 80V72.6545H22.497C23.0182 72.6545 23.4498 72.7406 23.7918 72.9128C24.1337 73.0826 24.3895 73.3133 24.5593 73.605C24.7291 73.8943 24.814 74.2207 24.814 74.5842C24.814 74.8902 24.7578 75.1485 24.6454 75.3589C24.533 75.5669 24.3824 75.7343 24.1935 75.861C24.007 75.9853 23.8013 76.0762 23.5766 76.1336V76.2053C23.8205 76.2173 24.0584 76.2962 24.2903 76.442C24.5246 76.5855 24.7183 76.79 24.8713 77.0554C25.0244 77.3208 25.1009 77.6436 25.1009 78.0238C25.1009 78.3992 25.0124 78.7363 24.8355 79.0352C24.6609 79.3317 24.3907 79.5672 24.0249 79.7418C23.6591 79.9139 23.1916 80 22.6225 80H19.807ZM20.9153 79.0495H22.5149C23.0457 79.0495 23.4259 78.9467 23.6555 78.7411C23.885 78.5355 23.9998 78.2784 23.9998 77.97C23.9998 77.738 23.9412 77.5252 23.824 77.3315C23.7069 77.1379 23.5395 76.9836 23.3219 76.8689C23.1067 76.7541 22.8509 76.6967 22.5544 76.6967H20.9153V79.0495ZM20.9153 75.8323H22.4001C22.6488 75.8323 22.8724 75.7845 23.0708 75.6888C23.2717 75.5932 23.4307 75.4593 23.5479 75.2871C23.6674 75.1126 23.7272 74.907 23.7272 74.6702C23.7272 74.3666 23.6208 74.1119 23.408 73.9063C23.1952 73.7007 22.8688 73.5978 22.4288 73.5978H20.9153V75.8323ZM27.3109 80H26.1345L28.7778 72.6545H30.0583L32.7016 80H31.5252L29.4485 73.9888H29.3911L27.3109 80ZM27.5082 77.1235H31.3243V78.056H27.5082V77.1235ZM37.9845 74.5842C37.9462 74.2446 37.7884 73.9816 37.511 73.7951C37.2337 73.6062 36.8846 73.5118 36.4637 73.5118C36.1625 73.5118 35.9018 73.5596 35.6818 73.6552C35.4619 73.7485 35.2909 73.8776 35.169 74.0426C35.0494 74.2052 34.9896 74.3905 34.9896 74.5985C34.9896 74.7731 35.0303 74.9237 35.1116 75.0504C35.1953 75.1772 35.3041 75.2836 35.438 75.3696C35.5742 75.4533 35.7201 75.5239 35.8755 75.5812C36.0309 75.6362 36.1804 75.6817 36.3239 75.7175L37.0412 75.904C37.2755 75.9614 37.5158 76.0391 37.7621 76.1372C38.0084 76.2352 38.2367 76.3643 38.4472 76.5245C38.6576 76.6847 38.8273 76.8832 38.9565 77.1199C39.088 77.3566 39.1537 77.64 39.1537 77.97C39.1537 78.386 39.0461 78.7554 38.8309 79.0782C38.6181 79.401 38.3085 79.6557 37.902 79.8422C37.4979 80.0287 37.0089 80.1219 36.435 80.1219C35.8851 80.1219 35.4093 80.0347 35.0076 79.8601C34.6059 79.6856 34.2914 79.4381 34.0643 79.1177C33.8371 78.7949 33.7116 78.4123 33.6877 77.97H34.7995C34.8211 78.2354 34.9071 78.4565 35.0578 78.6335C35.2108 78.808 35.4057 78.9384 35.6424 79.0244C35.8815 79.1081 36.1433 79.15 36.4279 79.15C36.7411 79.15 37.0197 79.1009 37.2636 79.0029C37.5098 78.9025 37.7035 78.7638 37.8446 78.5869C37.9857 78.4075 38.0562 78.1983 38.0562 77.9592C38.0562 77.7416 37.994 77.5635 37.8697 77.4248C37.7478 77.2861 37.5816 77.1713 37.3712 77.0805C37.1631 76.9896 36.9276 76.9095 36.6646 76.8402L35.7966 76.6034C35.2084 76.4432 34.7421 76.2077 34.3978 75.8969C34.0559 75.586 33.8849 75.1748 33.8849 74.6631C33.8849 74.2398 33.9997 73.8704 34.2293 73.5548C34.4588 73.2392 34.7696 72.9941 35.1618 72.8195C35.5539 72.6426 35.9963 72.5541 36.4888 72.5541C36.9862 72.5541 37.425 72.6414 37.8051 72.8159C38.1877 72.9905 38.489 73.2308 38.709 73.5369C38.929 73.8405 39.0437 74.1896 39.0533 74.5842H37.9845ZM36.062 79.9713H36.765L36.7076 80.2654C36.9157 80.2989 37.0974 80.3826 37.2528 80.5165C37.4082 80.6504 37.4859 80.8524 37.4859 81.1226C37.4883 81.4454 37.3484 81.7072 37.0663 81.9081C36.7865 82.1089 36.3812 82.2094 35.8504 82.2094L35.8289 81.6104C36.0776 81.6104 36.2784 81.5745 36.4315 81.5028C36.5869 81.4311 36.6658 81.3151 36.6682 81.1549C36.6706 80.9947 36.6108 80.8823 36.4888 80.8178C36.3693 80.7532 36.178 80.7078 35.915 80.6815L36.062 79.9713ZM40.7531 80V72.6545H41.8614V79.046H45.1898V80H40.7531ZM47.8373 72.6545V80H46.7291V72.6545H47.8373ZM49.7263 80V72.6545H50.8346V76.1623H50.9243L54.0052 72.6545H55.4004L52.4378 75.9614L55.4112 80H54.0769L51.7026 76.7182L50.8346 77.7153V80H49.7263Z" fill="#A1A1A1"/>
<rect x="17" y="91" width="582" height="34.66" rx="8" fill="#171717" fill-opacity="0.6"/>
<rect x="17.5" y="91.5" width="581" height="33.66" rx="7.5" stroke="white" stroke-opacity="0.1"/>
<g clip-path="url(#clip1_1_236)">
<path d="M30.8204 113.33V103.803H34.1513C34.8149 103.803 35.3623 103.917 35.7934 104.147C36.2245 104.373 36.5455 104.679 36.7564 105.063C36.9673 105.445 37.0727 105.868 37.0727 106.333C37.0727 106.743 36.9998 107.081 36.8541 107.348C36.7114 107.614 36.5222 107.825 36.2865 107.98C36.0539 108.135 35.8012 108.25 35.5283 108.324V108.417C35.8198 108.436 36.1129 108.538 36.4075 108.725C36.7021 108.911 36.9487 109.177 37.1471 109.525C37.3456 109.872 37.4449 110.297 37.4449 110.799C37.4449 111.277 37.3363 111.706 37.1192 112.088C36.9021 112.469 36.5594 112.772 36.0911 112.995C35.6228 113.218 35.0134 113.33 34.2629 113.33H30.8204ZM31.9741 112.307H34.2629C35.0165 112.307 35.5515 112.161 35.8678 111.869C36.1873 111.575 36.347 111.218 36.347 110.799C36.347 110.477 36.2648 110.179 36.1004 109.906C35.9361 109.63 35.7019 109.41 35.398 109.246C35.0941 109.078 34.7343 108.994 34.3187 108.994H31.9741V112.307ZM31.9741 107.99H34.114C34.4614 107.99 34.7746 107.921 35.0538 107.785C35.336 107.648 35.5593 107.456 35.7236 107.208C35.8911 106.96 35.9748 106.668 35.9748 106.333C35.9748 105.915 35.8291 105.56 35.5376 105.268C35.246 104.973 34.7839 104.826 34.1513 104.826H31.9741V107.99ZM42.0945 113.479C41.4495 113.479 40.8835 113.325 40.3966 113.018C39.9128 112.711 39.5344 112.282 39.2615 111.73C38.9917 111.178 38.8568 110.533 38.8568 109.794C38.8568 109.05 38.9917 108.4 39.2615 107.845C39.5344 107.29 39.9128 106.859 40.3966 106.552C40.8835 106.245 41.4495 106.091 42.0945 106.091C42.7396 106.091 43.3041 106.245 43.7879 106.552C44.2748 106.859 44.6531 107.29 44.9229 107.845C45.1959 108.4 45.3323 109.05 45.3323 109.794C45.3323 110.533 45.1959 111.178 44.9229 111.73C44.6531 112.282 44.2748 112.711 43.7879 113.018C43.3041 113.325 42.7396 113.479 42.0945 113.479ZM42.0945 112.493C42.5845 112.493 42.9877 112.367 43.3041 112.116C43.6204 111.865 43.8545 111.534 44.0065 111.125C44.1585 110.716 44.2345 110.272 44.2345 109.794C44.2345 109.317 44.1585 108.872 44.0065 108.459C43.8545 108.047 43.6204 107.713 43.3041 107.459C42.9877 107.205 42.5845 107.078 42.0945 107.078C41.6045 107.078 41.2014 107.205 40.885 107.459C40.5687 107.713 40.3345 108.047 40.1826 108.459C40.0306 108.872 39.9546 109.317 39.9546 109.794C39.9546 110.272 40.0306 110.716 40.1826 111.125C40.3345 111.534 40.5687 111.865 40.885 112.116C41.2014 112.367 41.6045 112.493 42.0945 112.493ZM40.7548 104.994C40.5594 104.994 40.3857 104.919 40.2337 104.77C40.0849 104.618 40.0104 104.445 40.0104 104.249C40.0104 104.035 40.0849 103.859 40.2337 103.719C40.3857 103.576 40.5594 103.505 40.7548 103.505C40.9688 103.505 41.1455 103.576 41.2851 103.719C41.4278 103.859 41.4991 104.035 41.4991 104.249C41.4991 104.445 41.4278 104.618 41.2851 104.77C41.1455 104.919 40.9688 104.994 40.7548 104.994ZM43.4343 104.994C43.2389 104.994 43.0653 104.919 42.9133 104.77C42.7644 104.618 42.69 104.445 42.69 104.249C42.69 104.035 42.7644 103.859 42.9133 103.719C43.0653 103.576 43.2389 103.505 43.4343 103.505C43.6483 103.505 43.8251 103.576 43.9646 103.719C44.1073 103.859 44.1786 104.035 44.1786 104.249C44.1786 104.445 44.1073 104.618 43.9646 104.77C43.8251 104.919 43.6483 104.994 43.4343 104.994ZM48.1061 103.803V113.33H47.0082V103.803H48.1061ZM54.62 110.409V106.185H55.7179V113.33H54.62V112.12H54.5456C54.3781 112.483 54.1176 112.792 53.764 113.046C53.4105 113.297 52.9639 113.423 52.4243 113.423C51.9777 113.423 51.5807 113.325 51.2334 113.13C50.886 112.931 50.6131 112.634 50.4146 112.237C50.2161 111.837 50.1169 111.333 50.1169 110.725V106.185H51.2148V110.65C51.2148 111.171 51.3605 111.587 51.652 111.897C51.9467 112.207 52.3219 112.362 52.7778 112.362C53.0507 112.362 53.3283 112.293 53.6105 112.153C53.8959 112.013 54.1347 111.799 54.3269 111.511C54.5223 111.223 54.62 110.855 54.62 110.409ZM51.5869 104.994C51.3915 104.994 51.2179 104.919 51.0659 104.77C50.917 104.618 50.8426 104.445 50.8426 104.249C50.8426 104.035 50.917 103.859 51.0659 103.719C51.2179 103.576 51.3915 103.505 51.5869 103.505C51.8009 103.505 51.9777 103.576 52.1172 103.719C52.2599 103.859 52.3312 104.035 52.3312 104.249C52.3312 104.445 52.2599 104.618 52.1172 104.77C51.9777 104.919 51.8009 104.994 51.5869 104.994ZM54.2665 104.994C54.0711 104.994 53.8974 104.919 53.7454 104.77C53.5966 104.618 53.5221 104.445 53.5221 104.249C53.5221 104.035 53.5966 103.859 53.7454 103.719C53.8974 103.576 54.0711 103.505 54.2665 103.505C54.4805 103.505 54.6572 103.576 54.7968 103.719C54.9395 103.859 55.0108 104.035 55.0108 104.249C55.0108 104.445 54.9395 104.618 54.7968 104.77C54.6572 104.919 54.4805 104.994 54.2665 104.994ZM57.7287 113.33V106.185H58.7894V107.301H58.8824C59.0313 106.92 59.2716 106.623 59.6035 106.412C59.9353 106.198 60.3338 106.091 60.799 106.091C61.2704 106.091 61.6627 106.198 61.976 106.412C62.2923 106.623 62.5389 106.92 62.7156 107.301H62.7901C62.973 106.932 63.2475 106.639 63.6135 106.422C63.9794 106.202 64.4183 106.091 64.93 106.091C65.5689 106.091 66.0914 106.292 66.4977 106.692C66.904 107.089 67.1071 107.707 67.1071 108.548V113.33H66.0092V108.548C66.0092 108.021 65.865 107.644 65.5766 107.417C65.2882 107.191 64.9486 107.078 64.5578 107.078C64.0554 107.078 63.6662 107.23 63.3902 107.534C63.1142 107.834 62.9762 108.216 62.9762 108.678V113.33H61.8597V108.436C61.8597 108.03 61.7279 107.703 61.4643 107.455C61.2006 107.203 60.861 107.078 60.4455 107.078C60.1601 107.078 59.8934 107.154 59.6453 107.306C59.4003 107.458 59.2018 107.669 59.0499 107.938C58.901 108.205 58.8266 108.514 58.8266 108.864V113.33H57.7287ZM72.9477 113.33V103.803H74.0456V107.32H74.1386C74.2192 107.196 74.3309 107.037 74.4735 106.845C74.6193 106.65 74.8271 106.476 75.0969 106.324C75.3698 106.169 75.7389 106.091 76.2041 106.091C76.8057 106.091 77.3361 106.242 77.7951 106.543C78.2541 106.844 78.6123 107.27 78.8697 107.822C79.1271 108.374 79.2558 109.025 79.2558 109.776C79.2558 110.533 79.1271 111.189 78.8697 111.744C78.6123 112.296 78.2556 112.724 77.7997 113.028C77.3438 113.328 76.8181 113.479 76.2227 113.479C75.7637 113.479 75.3962 113.403 75.1202 113.251C74.8441 113.096 74.6317 112.921 74.4828 112.725C74.334 112.527 74.2192 112.362 74.1386 112.232H74.0083V113.33H72.9477ZM74.0269 109.757C74.0269 110.297 74.106 110.773 74.2642 111.185C74.4224 111.595 74.6534 111.916 74.9573 112.148C75.2613 112.378 75.6334 112.493 76.0738 112.493C76.5328 112.493 76.9158 112.372 77.2229 112.13C77.533 111.885 77.7656 111.556 77.9207 111.144C78.0788 110.728 78.1579 110.266 78.1579 109.757C78.1579 109.255 78.0804 108.802 77.9253 108.399C77.7734 107.993 77.5423 107.672 77.2322 107.436C76.9251 107.197 76.539 107.078 76.0738 107.078C75.6272 107.078 75.252 107.191 74.948 107.417C74.6441 107.641 74.4146 107.954 74.2595 108.357C74.1045 108.757 74.0269 109.224 74.0269 109.757ZM83.0379 113.497C82.5851 113.497 82.1741 113.412 81.8051 113.242C81.436 113.068 81.1429 112.818 80.9259 112.493C80.7088 112.164 80.6002 111.767 80.6002 111.302C80.6002 110.892 80.6808 110.561 80.8421 110.306C81.0034 110.049 81.2189 109.847 81.4887 109.701C81.7586 109.556 82.0563 109.447 82.3819 109.376C82.7107 109.301 83.041 109.242 83.3728 109.199C83.807 109.143 84.159 109.101 84.4288 109.073C84.7017 109.042 84.9002 108.991 85.0243 108.92C85.1514 108.849 85.215 108.725 85.215 108.548V108.511C85.215 108.052 85.0894 107.695 84.8382 107.441C84.5901 107.186 84.2133 107.059 83.7077 107.059C83.1836 107.059 82.7727 107.174 82.475 107.403C82.1772 107.633 81.9679 107.878 81.8469 108.138L80.8049 107.766C80.991 107.332 81.2391 106.994 81.5492 106.752C81.8625 106.507 82.2036 106.336 82.5727 106.24C82.9448 106.141 83.3108 106.091 83.6705 106.091C83.9 106.091 84.1636 106.119 84.4614 106.175C84.7622 106.228 85.0522 106.338 85.3313 106.506C85.6135 106.673 85.8477 106.926 86.0337 107.264C86.2198 107.602 86.3129 108.055 86.3129 108.622V113.33H85.215V112.362H85.1592C85.0847 112.517 84.9607 112.683 84.787 112.86C84.6133 113.037 84.3823 113.187 84.0939 113.311C83.8054 113.435 83.4534 113.497 83.0379 113.497ZM83.2053 112.511C83.6395 112.511 84.0055 112.426 84.3032 112.255C84.604 112.085 84.8304 111.865 84.9824 111.595C85.1375 111.325 85.215 111.041 85.215 110.743V109.739C85.1685 109.794 85.0661 109.846 84.908 109.892C84.7529 109.936 84.573 109.974 84.3683 110.008C84.1667 110.039 83.9698 110.067 83.7775 110.092C83.5883 110.114 83.4348 110.133 83.317 110.148C83.0317 110.185 82.7649 110.246 82.5168 110.329C82.2718 110.41 82.0733 110.533 81.9214 110.697C81.7725 110.858 81.6981 111.078 81.6981 111.358C81.6981 111.739 81.8392 112.027 82.1214 112.223C82.4067 112.415 82.768 112.511 83.2053 112.511ZM93.3781 107.785L92.3918 108.064C92.3298 107.9 92.2383 107.74 92.1174 107.585C91.9995 107.427 91.8383 107.296 91.6336 107.194C91.4289 107.092 91.1668 107.04 90.8474 107.04C90.4101 107.04 90.0457 107.141 89.7542 107.343C89.4657 107.541 89.3215 107.794 89.3215 108.101C89.3215 108.374 89.4208 108.59 89.6193 108.748C89.8177 108.906 90.1279 109.038 90.5497 109.143L91.6103 109.404C92.2492 109.559 92.7252 109.796 93.0385 110.115C93.3517 110.432 93.5083 110.84 93.5083 111.339C93.5083 111.748 93.3905 112.114 93.1548 112.437C92.9222 112.759 92.5965 113.014 92.1778 113.2C91.7592 113.386 91.2723 113.479 90.7171 113.479C89.9883 113.479 89.3851 113.321 88.9075 113.004C88.4299 112.688 88.1275 112.226 88.0004 111.618L89.0424 111.358C89.1416 111.742 89.3293 112.031 89.6053 112.223C89.8844 112.415 90.2488 112.511 90.6985 112.511C91.2102 112.511 91.6165 112.403 91.9173 112.186C92.2213 111.965 92.3732 111.702 92.3732 111.395C92.3732 111.147 92.2864 110.939 92.1127 110.771C91.939 110.601 91.6723 110.474 91.3126 110.39L90.1217 110.111C89.4673 109.956 88.9866 109.715 88.6796 109.39C88.3756 109.061 88.2237 108.65 88.2237 108.157C88.2237 107.754 88.3369 107.397 88.5633 107.087C88.7927 106.777 89.1044 106.533 89.4983 106.357C89.8953 106.18 90.345 106.091 90.8474 106.091C91.5545 106.091 92.1096 106.247 92.5128 106.557C92.9191 106.867 93.2075 107.276 93.3781 107.785ZM90.3077 113.293H91.2195L91.1451 113.665C91.387 113.702 91.6088 113.803 91.8103 113.967C92.0119 114.135 92.1127 114.4 92.1127 114.763C92.1127 115.163 91.9468 115.489 91.615 115.74C91.2862 115.994 90.8009 116.121 90.1589 116.121L90.1217 115.395C90.4101 115.395 90.6489 115.349 90.8381 115.256C91.0304 115.166 91.1265 115.014 91.1265 114.8C91.1265 114.586 91.0474 114.44 90.8892 114.363C90.7311 114.285 90.4752 114.232 90.1217 114.205L90.3077 113.293ZM96.2588 103.803V113.33H95.1609V103.803H96.2588ZM98.2696 113.33V106.185H99.3675V113.33H98.2696ZM104.263 116.158C103.732 116.158 103.276 116.09 102.895 115.954C102.513 115.82 102.196 115.644 101.941 115.423C101.69 115.206 101.49 114.974 101.341 114.726L102.216 114.112C102.315 114.242 102.441 114.391 102.592 114.558C102.744 114.729 102.952 114.876 103.216 115C103.483 115.127 103.831 115.191 104.263 115.191C104.839 115.191 105.315 115.051 105.691 114.772C106.066 114.493 106.254 114.056 106.254 113.46V112.009H106.161C106.08 112.139 105.965 112.3 105.816 112.493C105.671 112.682 105.46 112.851 105.184 113C104.911 113.145 104.542 113.218 104.076 113.218C103.5 113.218 102.982 113.082 102.523 112.809C102.067 112.536 101.706 112.139 101.439 111.618C101.175 111.097 101.043 110.464 101.043 109.72C101.043 108.988 101.172 108.351 101.429 107.808C101.687 107.262 102.045 106.84 102.504 106.543C102.963 106.242 103.493 106.091 104.095 106.091C104.56 106.091 104.929 106.169 105.202 106.324C105.478 106.476 105.689 106.65 105.835 106.845C105.984 107.037 106.099 107.196 106.179 107.32H106.291V106.185H107.351V113.535C107.351 114.149 107.212 114.648 106.933 115.033C106.657 115.42 106.285 115.704 105.816 115.884C105.351 116.067 104.833 116.158 104.263 116.158ZM104.225 112.232C104.666 112.232 105.038 112.131 105.342 111.93C105.646 111.728 105.877 111.438 106.035 111.06C106.193 110.681 106.272 110.229 106.272 109.701C106.272 109.187 106.195 108.732 106.04 108.338C105.885 107.945 105.655 107.636 105.351 107.413C105.047 107.189 104.672 107.078 104.225 107.078C103.76 107.078 103.372 107.196 103.062 107.431C102.755 107.667 102.524 107.983 102.369 108.38C102.217 108.777 102.141 109.218 102.141 109.701C102.141 110.198 102.219 110.636 102.374 111.018C102.532 111.396 102.765 111.694 103.072 111.911C103.382 112.125 103.766 112.232 104.225 112.232ZM105.286 103.803H106.309C106.309 104.305 106.136 104.716 105.788 105.035C105.441 105.355 104.97 105.515 104.374 105.515C103.788 105.515 103.321 105.355 102.974 105.035C102.63 104.716 102.458 104.305 102.458 103.803H103.481C103.481 104.045 103.548 104.257 103.681 104.44C103.818 104.623 104.049 104.715 104.374 104.715C104.7 104.715 104.932 104.623 105.072 104.44C105.215 104.257 105.286 104.045 105.286 103.803ZM109.361 113.33V106.185H110.459V113.33H109.361ZM113.568 109.032V113.33H112.47V106.185H113.53V107.301H113.624C113.791 106.938 114.045 106.647 114.386 106.426C114.728 106.203 115.168 106.091 115.708 106.091C116.191 106.091 116.615 106.191 116.978 106.389C117.34 106.585 117.623 106.882 117.824 107.282C118.026 107.679 118.127 108.182 118.127 108.79V113.33H117.029V108.864C117.029 108.303 116.883 107.865 116.591 107.552C116.3 107.236 115.9 107.078 115.391 107.078C115.041 107.078 114.728 107.154 114.452 107.306C114.179 107.458 113.963 107.679 113.805 107.971C113.647 108.262 113.568 108.616 113.568 109.032ZM120.133 113.33V106.185H121.231V113.33H120.133ZM127.633 116.01C127.447 116.01 127.281 115.994 127.135 115.963C126.989 115.935 126.889 115.907 126.833 115.879L127.112 114.912C127.379 114.98 127.614 115.005 127.819 114.986C128.024 114.967 128.205 114.876 128.363 114.712C128.525 114.55 128.672 114.288 128.805 113.925L129.01 113.367L126.368 106.185H127.559L129.531 111.879H129.605L131.578 106.185H132.769L129.736 114.372C129.599 114.741 129.43 115.047 129.229 115.288C129.027 115.533 128.793 115.715 128.526 115.833C128.263 115.951 127.965 116.01 127.633 116.01ZM136.103 113.497C135.65 113.497 135.239 113.412 134.87 113.242C134.501 113.068 134.208 112.818 133.991 112.493C133.774 112.164 133.665 111.767 133.665 111.302C133.665 110.892 133.746 110.561 133.907 110.306C134.069 110.049 134.284 109.847 134.554 109.701C134.824 109.556 135.122 109.447 135.447 109.376C135.776 109.301 136.106 109.242 136.438 109.199C136.872 109.143 137.224 109.101 137.494 109.073C137.767 109.042 137.965 108.991 138.089 108.92C138.217 108.849 138.28 108.725 138.28 108.548V108.511C138.28 108.052 138.155 107.695 137.903 107.441C137.655 107.186 137.278 107.059 136.773 107.059C136.249 107.059 135.838 107.174 135.54 107.403C135.242 107.633 135.033 107.878 134.912 108.138L133.87 107.766C134.056 107.332 134.304 106.994 134.614 106.752C134.928 106.507 135.269 106.336 135.638 106.24C136.01 106.141 136.376 106.091 136.736 106.091C136.965 106.091 137.229 106.119 137.527 106.175C137.827 106.228 138.117 106.338 138.397 106.506C138.679 106.673 138.913 106.926 139.099 107.264C139.285 107.602 139.378 108.055 139.378 108.622V113.33H138.28V112.362H138.224C138.15 112.517 138.026 112.683 137.852 112.86C137.679 113.037 137.448 113.187 137.159 113.311C136.871 113.435 136.519 113.497 136.103 113.497ZM136.271 112.511C136.705 112.511 137.071 112.426 137.368 112.255C137.669 112.085 137.896 111.865 138.048 111.595C138.203 111.325 138.28 111.041 138.28 110.743V109.739C138.234 109.794 138.131 109.846 137.973 109.892C137.818 109.936 137.638 109.974 137.434 110.008C137.232 110.039 137.035 110.067 136.843 110.092C136.654 110.114 136.5 110.133 136.382 110.148C136.097 110.185 135.83 110.246 135.582 110.329C135.337 110.41 135.139 110.533 134.987 110.697C134.838 110.858 134.763 111.078 134.763 111.358C134.763 111.739 134.904 112.027 135.187 112.223C135.472 112.415 135.833 112.511 136.271 112.511ZM141.177 113.33V112.493L145.234 107.282V107.208H141.308V106.185H146.648V107.059L142.703 112.232V112.307H146.778V113.33H141.177ZM148.469 113.33V106.185H149.567V113.33H148.469ZM152.676 109.032V113.33H151.578V106.185H152.639V107.301H152.732C152.899 106.938 153.153 106.647 153.495 106.426C153.836 106.203 154.276 106.091 154.816 106.091C155.3 106.091 155.723 106.191 156.086 106.389C156.449 106.585 156.731 106.882 156.932 107.282C157.134 107.679 157.235 108.182 157.235 108.79V113.33H156.137V108.864C156.137 108.303 155.991 107.865 155.7 107.552C155.408 107.236 155.008 107.078 154.499 107.078C154.149 107.078 153.836 107.154 153.56 107.306C153.287 107.458 153.071 107.679 152.913 107.971C152.755 108.262 152.676 108.616 152.676 109.032ZM160.041 113.404C159.812 113.404 159.615 113.322 159.45 113.158C159.286 112.993 159.204 112.797 159.204 112.567C159.204 112.338 159.286 112.141 159.45 111.976C159.615 111.812 159.812 111.73 160.041 111.73C160.271 111.73 160.467 111.812 160.632 111.976C160.796 112.141 160.878 112.338 160.878 112.567C160.878 112.719 160.84 112.859 160.762 112.986C160.688 113.113 160.587 113.215 160.46 113.293C160.336 113.367 160.196 113.404 160.041 113.404Z" fill="#737373"/>
</g>
<path d="M20.484 149.66H19.261L22.0091 142.024H23.3402L26.0882 149.66H24.8652L22.7063 143.411H22.6467L20.484 149.66ZM20.6891 146.67H24.6564V147.639H20.6891V146.67ZM33.4496 144.507H32.2863C32.2415 144.258 32.1583 144.04 32.0365 143.851C31.9146 143.662 31.7655 143.501 31.589 143.37C31.4125 143.238 31.2149 143.139 30.9961 143.071C30.7799 143.004 30.5499 142.971 30.3063 142.971C29.8664 142.971 29.4724 143.081 29.1243 143.303C28.7788 143.524 28.5054 143.848 28.304 144.276C28.1052 144.703 28.0057 145.225 28.0057 145.842C28.0057 146.463 28.1052 146.988 28.304 147.415C28.5054 147.843 28.7801 148.166 29.1281 148.385C29.4761 148.604 29.8676 148.713 30.3026 148.713C30.5437 148.713 30.7724 148.681 30.9887 148.616C31.2074 148.549 31.4051 148.451 31.5816 148.321C31.758 148.192 31.9072 148.034 32.029 147.848C32.1533 147.659 32.239 147.443 32.2863 147.199L33.4496 147.203C33.3875 147.578 33.2669 147.924 33.0879 148.239C32.9115 148.553 32.684 148.824 32.4056 149.052C32.1297 149.278 31.814 149.454 31.4585 149.578C31.103 149.702 30.7153 149.764 30.2952 149.764C29.6339 149.764 29.0448 149.608 28.5278 149.295C28.0107 148.979 27.603 148.528 27.3047 147.941C27.0089 147.354 26.861 146.655 26.861 145.842C26.861 145.026 27.0102 144.327 27.3085 143.743C27.6068 143.156 28.0144 142.706 28.5315 142.393C29.0485 142.077 29.6364 141.919 30.2952 141.919C30.7003 141.919 31.0782 141.978 31.4287 142.094C31.7817 142.209 32.0986 142.378 32.3795 142.602C32.6604 142.823 32.8928 143.094 33.0768 143.414C33.2607 143.733 33.385 144.097 33.4496 144.507ZM29.9036 149.671H30.6345L30.5748 149.977C30.7911 150.012 30.98 150.099 31.1416 150.238C31.3031 150.377 31.3839 150.587 31.3839 150.868C31.3864 151.204 31.241 151.476 30.9477 151.685C30.6568 151.893 30.2355 151.998 29.6836 151.998L29.6613 151.375C29.9198 151.375 30.1286 151.338 30.2877 151.263C30.4493 151.189 30.5313 151.068 30.5338 150.902C30.5363 150.735 30.4741 150.618 30.3474 150.551C30.2231 150.484 30.0242 150.437 29.7508 150.409L29.9036 149.671ZM36.2555 142.024V149.66H35.1033V142.024H36.2555ZM38.2084 149.66V142.024H39.3606V145.67H39.4538L42.6567 142.024H44.1072L41.0273 145.461L44.1184 149.66H42.7313L40.2629 146.248L39.3606 147.285V149.66H38.2084ZM45.456 149.66V142.024H46.6082V148.668H50.0684V149.66H45.456ZM52.6925 149.66H51.4695L54.2176 142.024H55.5487L58.2967 149.66H57.0737L54.9148 143.411H54.8552L52.6925 149.66ZM52.8976 146.67H56.8649V147.639H52.8976V146.67ZM59.6745 142.024H61.0728L63.5039 147.96H63.5934L66.0245 142.024H67.4227V149.66H66.3265V144.134H66.2556L64.0035 149.649H63.0937L60.8416 144.13H60.7707V149.66H59.6745V142.024ZM70.0179 149.66H68.7949L71.5429 142.024H72.8741L75.6221 149.66H74.3991L72.2402 143.411H72.1805L70.0179 149.66ZM70.223 146.67H74.1903V147.639H70.223V146.67Z" fill="#A1A1A1"/>
<rect x="17" y="160.66" width="582" height="34.66" rx="8" fill="#171717" fill-opacity="0.6"/>
<rect x="17.5" y="161.16" width="581" height="33.66" rx="7.5" stroke="white" stroke-opacity="0.1"/>
<g clip-path="url(#clip2_1_236)">
<path d="M31.1994 182.99H29.9991L33.4707 173.535H34.6525L38.1241 182.99H36.9239L34.0986 175.031H34.0247L31.1994 182.99ZM31.6426 179.297H36.4807V180.312H31.6426V179.297ZM42.3297 183.138C41.665 183.138 41.0925 182.981 40.6124 182.667C40.1323 182.353 39.763 181.921 39.5045 181.37C39.2459 180.819 39.1167 180.189 39.1167 179.481C39.1167 178.761 39.249 178.126 39.5137 177.575C39.7814 177.021 40.1538 176.588 40.6309 176.278C41.111 175.964 41.6711 175.807 42.3113 175.807C42.8099 175.807 43.2592 175.899 43.6593 176.084C44.0594 176.268 44.3872 176.527 44.6426 176.859C44.898 177.192 45.0565 177.579 45.1181 178.023H44.0286C43.9455 177.7 43.7609 177.413 43.4746 177.164C43.1915 176.912 42.8099 176.785 42.3297 176.785C41.905 176.785 41.5326 176.896 41.2126 177.118C40.8956 177.336 40.6478 177.646 40.4693 178.046C40.2939 178.443 40.2062 178.909 40.2062 179.445C40.2062 179.992 40.2923 180.469 40.4647 180.876C40.6401 181.282 40.8863 181.597 41.2033 181.822C41.5234 182.047 41.8989 182.159 42.3297 182.159C42.6129 182.159 42.8699 182.11 43.1007 182.011C43.3315 181.913 43.527 181.771 43.687 181.587C43.847 181.402 43.9609 181.18 44.0286 180.922H45.1181C45.0565 181.34 44.9042 181.717 44.6611 182.053C44.421 182.385 44.1025 182.65 43.7055 182.847C43.3115 183.041 42.8529 183.138 42.3297 183.138ZM41.8127 182.953H42.7175L42.6437 183.322C42.8837 183.359 43.1038 183.459 43.3038 183.622C43.5039 183.789 43.6039 184.052 43.6039 184.412C43.6039 184.809 43.4392 185.132 43.1099 185.381C42.7837 185.634 42.302 185.76 41.665 185.76L41.628 185.04C41.9143 185.04 42.1512 184.994 42.339 184.901C42.5298 184.812 42.6252 184.661 42.6252 184.449C42.6252 184.236 42.5467 184.092 42.3898 184.015C42.2328 183.938 41.9789 183.886 41.628 183.858L41.8127 182.953ZM46.7108 182.99V175.899H47.8003V182.99H46.7108ZM50.8114 180.405L50.7929 179.057H51.0145L54.1168 175.899H55.4648L52.1594 179.241H52.0671L50.8114 180.405ZM49.7957 182.99V173.535H50.8852V182.99H49.7957ZM54.3014 182.99L51.5315 179.481L52.3071 178.724L55.6864 182.99H54.3014ZM57.9565 173.535V182.99H56.867V173.535H57.9565ZM62.0386 183.156C61.5893 183.156 61.1815 183.072 60.8153 182.902C60.449 182.73 60.1582 182.482 59.9428 182.159C59.7273 181.833 59.6196 181.439 59.6196 180.977C59.6196 180.571 59.6996 180.242 59.8597 179.989C60.0197 179.734 60.2336 179.534 60.5014 179.389C60.7691 179.244 61.0646 179.137 61.3877 179.066C61.7139 178.992 62.0417 178.934 62.371 178.891C62.8019 178.835 63.1512 178.794 63.419 178.766C63.6898 178.735 63.8868 178.684 64.0099 178.614C64.1361 178.543 64.1992 178.42 64.1992 178.244V178.207C64.1992 177.752 64.0745 177.398 63.8252 177.146C63.579 176.893 63.2051 176.767 62.7034 176.767C62.1833 176.767 61.7755 176.881 61.48 177.109C61.1846 177.336 60.9769 177.579 60.8568 177.838L59.8227 177.469C60.0074 177.038 60.2536 176.702 60.5614 176.462C60.8722 176.219 61.2108 176.05 61.577 175.954C61.9463 175.856 62.3095 175.807 62.6665 175.807C62.8942 175.807 63.1558 175.834 63.4513 175.89C63.7498 175.942 64.0376 176.051 64.3146 176.218C64.5946 176.384 64.827 176.635 65.0117 176.97C65.1963 177.306 65.2886 177.755 65.2886 178.318V182.99H64.1992V182.03H64.1438C64.0699 182.184 63.9468 182.348 63.7744 182.524C63.6021 182.699 63.3728 182.848 63.0866 182.972C62.8004 183.095 62.451 183.156 62.0386 183.156ZM62.2048 182.177C62.6357 182.177 62.9989 182.093 63.2943 181.924C63.5929 181.754 63.8175 181.536 63.9683 181.268C64.1222 181 64.1992 180.719 64.1992 180.423V179.426C64.153 179.481 64.0514 179.532 63.8945 179.578C63.7406 179.622 63.5621 179.66 63.359 179.694C63.1589 179.725 62.9635 179.752 62.7727 179.777C62.5849 179.798 62.4326 179.817 62.3156 179.832C62.0325 179.869 61.7678 179.929 61.5216 180.012C61.2785 180.092 61.0815 180.214 60.9307 180.377C60.783 180.537 60.7091 180.756 60.7091 181.033C60.7091 181.411 60.8491 181.697 61.1292 181.891C61.4123 182.082 61.7709 182.177 62.2048 182.177ZM67.2772 182.99V175.899H68.3297V177.007H68.4221C68.5698 176.628 68.8083 176.335 69.1376 176.125C69.4669 175.913 69.8624 175.807 70.3241 175.807C70.7919 175.807 71.1812 175.913 71.492 176.125C71.806 176.335 72.0506 176.628 72.2261 177.007H72.2999C72.4815 176.641 72.7539 176.35 73.117 176.135C73.4802 175.916 73.9157 175.807 74.4235 175.807C75.0575 175.807 75.5761 176.005 75.9792 176.402C76.3824 176.796 76.584 177.41 76.584 178.244V182.99H75.4945V178.244C75.4945 177.721 75.3514 177.347 75.0652 177.122C74.779 176.898 74.442 176.785 74.0542 176.785C73.5556 176.785 73.1694 176.936 72.8954 177.238C72.6215 177.536 72.4846 177.915 72.4846 178.374V182.99H71.3766V178.133C71.3766 177.73 71.2458 177.406 70.9842 177.159C70.7226 176.91 70.3856 176.785 69.9732 176.785C69.6901 176.785 69.4254 176.861 69.1792 177.012C68.936 177.162 68.7391 177.372 68.5883 177.639C68.4405 177.904 68.3667 178.21 68.3667 178.558V182.99H67.2772ZM80.6627 183.156C80.2133 183.156 79.8055 183.072 79.4393 182.902C79.0731 182.73 78.7822 182.482 78.5668 182.159C78.3513 181.833 78.2436 181.439 78.2436 180.977C78.2436 180.571 78.3236 180.242 78.4837 179.989C78.6437 179.734 78.8576 179.534 79.1254 179.389C79.3931 179.244 79.6886 179.137 80.0117 179.066C80.338 178.992 80.6657 178.934 80.9951 178.891C81.4259 178.835 81.7752 178.794 82.043 178.766C82.3138 178.735 82.5108 178.684 82.6339 178.614C82.7601 178.543 82.8232 178.42 82.8232 178.244V178.207C82.8232 177.752 82.6985 177.398 82.4492 177.146C82.203 176.893 81.8291 176.767 81.3274 176.767C80.8073 176.767 80.3995 176.881 80.1041 177.109C79.8086 177.336 79.6009 177.579 79.4808 177.838L78.4468 177.469C78.6314 177.038 78.8776 176.702 79.1854 176.462C79.4962 176.219 79.8348 176.05 80.201 175.954C80.5703 175.856 80.9335 175.807 81.2905 175.807C81.5183 175.807 81.7799 175.834 82.0753 175.89C82.3738 175.942 82.6616 176.051 82.9386 176.218C83.2187 176.384 83.451 176.635 83.6357 176.97C83.8203 177.306 83.9127 177.755 83.9127 178.318V182.99H82.8232V182.03H82.7678C82.6939 182.184 82.5708 182.348 82.3985 182.524C82.2261 182.699 81.9968 182.848 81.7106 182.972C81.4244 183.095 81.0751 183.156 80.6627 183.156ZM80.8289 182.177C81.2597 182.177 81.6229 182.093 81.9183 181.924C82.2169 181.754 82.4415 181.536 82.5924 181.268C82.7462 181 82.8232 180.719 82.8232 180.423V179.426C82.777 179.481 82.6754 179.532 82.5185 179.578C82.3646 179.622 82.1861 179.66 81.983 179.694C81.7829 179.725 81.5875 179.752 81.3967 179.777C81.2089 179.798 81.0566 179.817 80.9397 179.832C80.6565 179.869 80.3918 179.929 80.1456 180.012C79.9025 180.092 79.7055 180.214 79.5547 180.377C79.407 180.537 79.3331 180.756 79.3331 181.033C79.3331 181.411 79.4732 181.697 79.7532 181.891C80.0364 182.082 80.3949 182.177 80.8289 182.177ZM86.9907 178.724V182.99H85.9012V175.899H86.9538V177.007H87.0461C87.2123 176.647 87.4647 176.358 87.8032 176.139C88.1417 175.918 88.5788 175.807 89.1143 175.807C89.5944 175.807 90.0145 175.905 90.3746 176.102C90.7347 176.296 91.0147 176.592 91.2148 176.989C91.4148 177.383 91.5148 177.881 91.5148 178.484V182.99H90.4254V178.558C90.4254 178.001 90.2807 177.567 89.9914 177.256C89.7021 176.942 89.3051 176.785 88.8004 176.785C88.4526 176.785 88.1417 176.861 87.8678 177.012C87.597 177.162 87.3831 177.383 87.2261 177.672C87.0692 177.961 86.9907 178.312 86.9907 178.724ZM93.5057 182.99V175.899H94.5952V182.99H93.5057ZM96.3875 182.99V182.159L100.413 176.989V176.915H96.5168V175.899H101.817V176.767L97.9017 181.901V181.974H101.946V182.99H96.3875ZM103.624 182.99V175.899H104.713V182.99H103.624ZM110.513 182.99V173.535H111.602V177.026H111.695C111.775 176.902 111.885 176.745 112.027 176.555C112.172 176.361 112.378 176.188 112.646 176.038C112.916 175.884 113.283 175.807 113.744 175.807C114.341 175.807 114.868 175.956 115.323 176.255C115.779 176.553 116.134 176.976 116.39 177.524C116.645 178.072 116.773 178.718 116.773 179.463C116.773 180.214 116.645 180.865 116.39 181.416C116.134 181.964 115.78 182.388 115.328 182.69C114.875 182.988 114.354 183.138 113.763 183.138C113.307 183.138 112.943 183.062 112.669 182.912C112.395 182.758 112.184 182.584 112.036 182.39C111.889 182.193 111.775 182.03 111.695 181.901H111.565V182.99H110.513ZM111.584 179.445C111.584 179.98 111.662 180.452 111.819 180.862C111.976 181.268 112.206 181.587 112.507 181.817C112.809 182.045 113.178 182.159 113.615 182.159C114.071 182.159 114.451 182.039 114.755 181.799C115.063 181.556 115.294 181.23 115.448 180.82C115.605 180.408 115.683 179.949 115.683 179.445C115.683 178.946 115.606 178.497 115.452 178.097C115.302 177.693 115.072 177.375 114.765 177.141C114.46 176.904 114.077 176.785 113.615 176.785C113.172 176.785 112.8 176.898 112.498 177.122C112.196 177.344 111.969 177.655 111.815 178.055C111.661 178.452 111.584 178.915 111.584 179.445ZM122.908 180.091V175.899H123.998V182.99H122.908V181.79H122.834C122.668 182.15 122.409 182.456 122.059 182.708C121.708 182.958 121.265 183.082 120.729 183.082C120.286 183.082 119.892 182.985 119.547 182.791C119.203 182.595 118.932 182.299 118.735 181.905C118.538 181.508 118.439 181.008 118.439 180.405V175.899H119.529V180.331C119.529 180.848 119.673 181.26 119.963 181.568C120.255 181.876 120.628 182.03 121.08 182.03C121.351 182.03 121.626 181.961 121.906 181.822C122.189 181.684 122.426 181.471 122.617 181.185C122.811 180.899 122.908 180.534 122.908 180.091ZM125.993 182.99V175.899H127.046V176.97H127.119C127.249 176.619 127.483 176.335 127.821 176.116C128.16 175.898 128.541 175.788 128.966 175.788C129.046 175.788 129.146 175.79 129.266 175.793C129.386 175.796 129.477 175.801 129.538 175.807V176.915C129.502 176.905 129.417 176.892 129.285 176.873C129.155 176.852 129.018 176.841 128.874 176.841C128.529 176.841 128.221 176.913 127.95 177.058C127.683 177.199 127.47 177.396 127.313 177.649C127.159 177.898 127.082 178.183 127.082 178.503V182.99H125.993ZM132.917 183.156C132.467 183.156 132.059 183.072 131.693 182.902C131.327 182.73 131.036 182.482 130.821 182.159C130.605 181.833 130.498 181.439 130.498 180.977C130.498 180.571 130.578 180.242 130.738 179.989C130.898 179.734 131.112 179.534 131.379 179.389C131.647 179.244 131.942 179.137 132.266 179.066C132.592 178.992 132.92 178.934 133.249 178.891C133.68 178.835 134.029 178.794 134.297 178.766C134.568 178.735 134.765 178.684 134.888 178.614C135.014 178.543 135.077 178.42 135.077 178.244V178.207C135.077 177.752 134.952 177.398 134.703 177.146C134.457 176.893 134.083 176.767 133.581 176.767C133.061 176.767 132.653 176.881 132.358 177.109C132.063 177.336 131.855 177.579 131.735 177.838L130.701 177.469C130.885 177.038 131.132 176.702 131.439 176.462C131.75 176.219 132.089 176.05 132.455 175.954C132.824 175.856 133.187 175.807 133.544 175.807C133.772 175.807 134.034 175.834 134.329 175.89C134.628 175.942 134.916 176.051 135.192 176.218C135.473 176.384 135.705 176.635 135.89 176.97C136.074 177.306 136.167 177.755 136.167 178.318V182.99H135.077V182.03H135.022C134.948 182.184 134.825 182.348 134.652 182.524C134.48 182.699 134.251 182.848 133.965 182.972C133.678 183.095 133.329 183.156 132.917 183.156ZM133.083 182.177C133.514 182.177 133.877 182.093 134.172 181.924C134.471 181.754 134.695 181.536 134.846 181.268C135 181 135.077 180.719 135.077 180.423V179.426C135.031 179.481 134.929 179.532 134.772 179.578C134.619 179.622 134.44 179.66 134.237 179.694C134.037 179.725 133.841 179.752 133.651 179.777C133.463 179.798 133.311 179.817 133.194 179.832C132.91 179.869 132.646 179.929 132.4 180.012C132.156 180.092 131.959 180.214 131.809 180.377C131.661 180.537 131.587 180.756 131.587 181.033C131.587 181.411 131.727 181.697 132.007 181.891C132.29 182.082 132.649 182.177 133.083 182.177ZM138.603 185.649C138.418 185.649 138.254 185.634 138.109 185.603C137.964 185.575 137.864 185.548 137.809 185.52L138.086 184.56C138.351 184.627 138.584 184.652 138.788 184.633C138.991 184.615 139.171 184.524 139.328 184.361C139.488 184.201 139.634 183.941 139.766 183.581L139.969 183.027L137.347 175.899H138.529L140.486 181.55H140.56L142.518 175.899H143.7L140.69 184.024C140.554 184.39 140.386 184.693 140.186 184.934C139.986 185.177 139.754 185.357 139.489 185.474C139.228 185.591 138.932 185.649 138.603 185.649ZM147.008 183.156C146.559 183.156 146.151 183.072 145.785 182.902C145.419 182.73 145.128 182.482 144.912 182.159C144.697 181.833 144.589 181.439 144.589 180.977C144.589 180.571 144.669 180.242 144.829 179.989C144.989 179.734 145.203 179.534 145.471 179.389C145.739 179.244 146.034 179.137 146.357 179.066C146.684 178.992 147.011 178.934 147.341 178.891C147.772 178.835 148.121 178.794 148.389 178.766C148.66 178.735 148.856 178.684 148.98 178.614C149.106 178.543 149.169 178.42 149.169 178.244V178.207C149.169 177.752 149.044 177.398 148.795 177.146C148.549 176.893 148.175 176.767 147.673 176.767C147.153 176.767 146.745 176.881 146.45 177.109C146.154 177.336 145.947 177.579 145.827 177.838L144.792 177.469C144.977 177.038 145.223 176.702 145.531 176.462C145.842 176.219 146.18 176.05 146.547 175.954C146.916 175.856 147.279 175.807 147.636 175.807C147.864 175.807 148.126 175.834 148.421 175.89C148.72 175.942 149.007 176.051 149.284 176.218C149.564 176.384 149.797 176.635 149.981 176.97C150.166 177.306 150.258 177.755 150.258 178.318V182.99H149.169V182.03H149.113C149.04 182.184 148.917 182.348 148.744 182.524C148.572 182.699 148.343 182.848 148.056 182.972C147.77 183.095 147.421 183.156 147.008 183.156ZM147.175 182.177C147.605 182.177 147.969 182.093 148.264 181.924C148.563 181.754 148.787 181.536 148.938 181.268C149.092 181 149.169 180.719 149.169 180.423V179.426C149.123 179.481 149.021 179.532 148.864 179.578C148.71 179.622 148.532 179.66 148.329 179.694C148.129 179.725 147.933 179.752 147.742 179.777C147.555 179.798 147.402 179.817 147.285 179.832C147.002 179.869 146.738 179.929 146.491 180.012C146.248 180.092 146.051 180.214 145.9 180.377C145.753 180.537 145.679 180.756 145.679 181.033C145.679 181.411 145.819 181.697 146.099 181.891C146.382 182.082 146.741 182.177 147.175 182.177ZM156.605 185.649C156.42 185.649 156.256 185.634 156.111 185.603C155.966 185.575 155.866 185.548 155.811 185.52L156.088 184.56C156.353 184.627 156.586 184.652 156.79 184.633C156.993 184.615 157.173 184.524 157.33 184.361C157.49 184.201 157.636 183.941 157.768 183.581L157.971 183.027L155.349 175.899H156.531L158.488 181.55H158.562L160.52 175.899H161.701L158.692 184.024C158.556 184.39 158.388 184.693 158.188 184.934C157.988 185.177 157.756 185.357 157.491 185.474C157.23 185.591 156.934 185.649 156.605 185.649ZM165.01 183.156C164.561 183.156 164.153 183.072 163.787 182.902C163.421 182.73 163.13 182.482 162.914 182.159C162.699 181.833 162.591 181.439 162.591 180.977C162.591 180.571 162.671 180.242 162.831 179.989C162.991 179.734 163.205 179.534 163.473 179.389C163.741 179.244 164.036 179.137 164.359 179.066C164.686 178.992 165.013 178.934 165.343 178.891C165.774 178.835 166.123 178.794 166.391 178.766C166.661 178.735 166.858 178.684 166.982 178.614C167.108 178.543 167.171 178.42 167.171 178.244V178.207C167.171 177.752 167.046 177.398 166.797 177.146C166.551 176.893 166.177 176.767 165.675 176.767C165.155 176.767 164.747 176.881 164.452 177.109C164.156 177.336 163.949 177.579 163.829 177.838L162.794 177.469C162.979 177.038 163.225 176.702 163.533 176.462C163.844 176.219 164.182 176.05 164.549 175.954C164.918 175.856 165.281 175.807 165.638 175.807C165.866 175.807 166.128 175.834 166.423 175.89C166.721 175.942 167.009 176.051 167.286 176.218C167.566 176.384 167.799 176.635 167.983 176.97C168.168 177.306 168.26 177.755 168.26 178.318V182.99H167.171V182.03H167.115C167.042 182.184 166.918 182.348 166.746 182.524C166.574 182.699 166.344 182.848 166.058 182.972C165.772 183.095 165.423 183.156 165.01 183.156ZM165.177 182.177C165.607 182.177 165.971 182.093 166.266 181.924C166.565 181.754 166.789 181.536 166.94 181.268C167.094 181 167.171 180.719 167.171 180.423V179.426C167.125 179.481 167.023 179.532 166.866 179.578C166.712 179.622 166.534 179.66 166.331 179.694C166.131 179.725 165.935 179.752 165.744 179.777C165.557 179.798 165.404 179.817 165.287 179.832C165.004 179.869 164.739 179.929 164.493 180.012C164.25 180.092 164.053 180.214 163.902 180.377C163.755 180.537 163.681 180.756 163.681 181.033C163.681 181.411 163.821 181.697 164.101 181.891C164.384 182.082 164.743 182.177 165.177 182.177ZM170.046 182.99V182.159L174.071 176.989V176.915H170.175V175.899H175.475V176.767L171.56 181.901V181.974H175.604V182.99H170.046ZM177.282 182.99V175.899H178.372V182.99H177.282ZM181.457 178.724V182.99H180.367V175.899H181.42V177.007H181.512C181.678 176.647 181.93 176.358 182.269 176.139C182.608 175.918 183.045 175.807 183.58 175.807C184.06 175.807 184.48 175.905 184.84 176.102C185.2 176.296 185.481 176.592 185.681 176.989C185.881 177.383 185.981 177.881 185.981 178.484V182.99H184.891V178.558C184.891 178.001 184.747 177.567 184.457 177.256C184.168 176.942 183.771 176.785 183.266 176.785C182.918 176.785 182.608 176.861 182.334 177.012C182.063 177.162 181.849 177.383 181.692 177.672C181.535 177.961 181.457 178.312 181.457 178.724ZM188.766 183.064C188.538 183.064 188.342 182.982 188.179 182.819C188.016 182.656 187.935 182.461 187.935 182.233C187.935 182.005 188.016 181.81 188.179 181.647C188.342 181.483 188.538 181.402 188.766 181.402C188.993 181.402 189.189 181.483 189.352 181.647C189.515 181.81 189.597 182.005 189.597 182.233C189.597 182.384 189.558 182.522 189.481 182.648C189.407 182.775 189.307 182.876 189.181 182.953C189.058 183.027 188.919 183.064 188.766 183.064Z" fill="#737373"/>
</g>
<defs>
<clipPath id="clip0_1_236">
<rect width="477.667" height="20" fill="white" transform="translate(49 16.1667)"/>
</clipPath>
<clipPath id="clip1_1_236">
<rect width="556.667" height="16" fill="white" transform="translate(29.6667 100.33)"/>
</clipPath>
<clipPath id="clip2_1_236">
<rect width="556.667" height="16" fill="white" transform="translate(29.6667 169.99)"/>
</clipPath>
</defs>
</svg>
