<svg width="672" height="306" viewBox="0 0 672 306" fill="none" xmlns="http://www.w3.org/2000/svg">
<rect x="0.5" y="0.5" width="671" height="304.323" rx="11.5" stroke="white" stroke-opacity="0.2"/>
<rect x="8.33008" y="8.33997" width="657.377" height="288.653" rx="12" fill="#171717"/>
<rect x="8.83008" y="8.83997" width="656.377" height="287.653" rx="11.5" stroke="white" stroke-opacity="0.05"/>
<rect x="21.3301" y="22.5066" width="24" height="24" rx="6" fill="white" fill-opacity="0.05"/>
<rect x="21.8301" y="23.0066" width="23" height="23" rx="5.5" stroke="white" stroke-opacity="0.1"/>
<path d="M31.2059 28.637L33.288 32.0994H33.3618L35.4531 28.637H37.4059L34.4929 33.3643L37.452 38.0916H35.4669L33.3618 34.6523H33.288L31.1828 38.0916H29.207L32.1938 33.3643L29.2439 28.637H31.2059Z" fill="#A1A1A1"/>
<path d="M58.3528 39.5066V30.1975H59.7574V34.643H59.871L63.7755 30.1975H65.5437L61.7892 34.3884L65.5574 39.5066H63.8664L60.8574 35.3475L59.7574 36.6111V39.5066H58.3528ZM67.1812 39.5066V32.5248H68.5403V39.5066H67.1812ZM75.6005 34.2293L74.3687 34.4475C74.3172 34.2899 74.2354 34.1399 74.1233 33.9975C74.0142 33.8551 73.8657 33.7384 73.6778 33.6475C73.4899 33.5566 73.2551 33.5111 72.9733 33.5111C72.5884 33.5111 72.2672 33.5975 72.0096 33.7702C71.752 33.9399 71.6233 34.1596 71.6233 34.4293C71.6233 34.6627 71.7096 34.8505 71.8824 34.993C72.0551 35.1354 72.3339 35.252 72.7187 35.343L73.8278 35.5975C74.4702 35.746 74.949 35.9748 75.2642 36.2839C75.5793 36.593 75.7369 36.9945 75.7369 37.4884C75.7369 37.9066 75.6157 38.2793 75.3733 38.6066C75.1339 38.9308 74.799 39.1854 74.3687 39.3702C73.9414 39.5551 73.446 39.6475 72.8824 39.6475C72.1005 39.6475 71.4627 39.4808 70.9687 39.1475C70.4748 38.8111 70.1717 38.3339 70.0596 37.7157L71.3733 37.5157C71.4551 37.8581 71.6233 38.1172 71.8778 38.293C72.1324 38.4657 72.4642 38.552 72.8733 38.552C73.3187 38.552 73.6748 38.4596 73.9414 38.2748C74.2081 38.0869 74.3414 37.8581 74.3414 37.5884C74.3414 37.3702 74.2596 37.1869 74.096 37.0384C73.9354 36.8899 73.6884 36.7778 73.3551 36.702L72.1733 36.443C71.5217 36.2945 71.0399 36.0581 70.7278 35.7339C70.4187 35.4096 70.2642 34.999 70.2642 34.502C70.2642 34.0899 70.3793 33.7293 70.6096 33.4202C70.8399 33.1111 71.1581 32.8702 71.5642 32.6975C71.9702 32.5217 72.4354 32.4339 72.9596 32.4339C73.7142 32.4339 74.3081 32.5975 74.7414 32.9248C75.1748 33.249 75.4611 33.6839 75.6005 34.2293ZM79.263 39.6611C78.8206 39.6611 78.4206 39.5793 78.063 39.4157C77.7055 39.249 77.4221 39.0081 77.213 38.693C77.007 38.3778 76.9039 37.9914 76.9039 37.5339C76.9039 37.1399 76.9797 36.8157 77.1312 36.5611C77.2827 36.3066 77.4873 36.1051 77.7449 35.9566C78.0024 35.8081 78.2903 35.696 78.6085 35.6202C78.9267 35.5445 79.2509 35.4869 79.5812 35.4475C79.9994 35.399 80.3388 35.3596 80.5994 35.3293C80.86 35.296 81.0494 35.243 81.1676 35.1702C81.2858 35.0975 81.3449 34.9793 81.3449 34.8157V34.7839C81.3449 34.3869 81.2327 34.0793 81.0085 33.8611C80.7873 33.643 80.457 33.5339 80.0176 33.5339C79.56 33.5339 79.1994 33.6354 78.9358 33.8384C78.6752 34.0384 78.4949 34.2611 78.3949 34.5066L77.1176 34.2157C77.2691 33.7914 77.4903 33.449 77.7812 33.1884C78.0752 32.9248 78.413 32.7339 78.7949 32.6157C79.1767 32.4945 79.5782 32.4339 79.9994 32.4339C80.2782 32.4339 80.5736 32.4672 80.8858 32.5339C81.2009 32.5975 81.4949 32.7157 81.7676 32.8884C82.0433 33.0611 82.2691 33.3081 82.4449 33.6293C82.6206 33.9475 82.7085 34.3611 82.7085 34.8702V39.5066H81.3812V38.552H81.3267C81.2388 38.7278 81.107 38.9005 80.9312 39.0702C80.7555 39.2399 80.5297 39.3808 80.2539 39.493C79.9782 39.6051 79.6479 39.6611 79.263 39.6611ZM79.5585 38.5702C79.9342 38.5702 80.2555 38.496 80.5221 38.3475C80.7918 38.199 80.9964 38.0051 81.1358 37.7657C81.2782 37.5233 81.3494 37.2642 81.3494 36.9884V36.0884C81.3009 36.1369 81.207 36.1823 81.0676 36.2248C80.9312 36.2642 80.7752 36.299 80.5994 36.3293C80.4236 36.3566 80.2524 36.3823 80.0858 36.4066C79.9191 36.4278 79.7797 36.446 79.6676 36.4611C79.4039 36.4945 79.163 36.5505 78.9449 36.6293C78.7297 36.7081 78.557 36.8217 78.4267 36.9702C78.2994 37.1157 78.2358 37.3096 78.2358 37.552C78.2358 37.8884 78.36 38.143 78.6085 38.3157C78.857 38.4854 79.1736 38.5702 79.5585 38.5702ZM87.2971 30.1975H88.8926L91.3244 34.4293H91.4244L93.8562 30.1975H95.4517L92.0744 35.852V39.5066H90.6744V35.852L87.2971 30.1975ZM97.638 39.6611C97.1956 39.6611 96.7956 39.5793 96.438 39.4157C96.0805 39.249 95.7971 39.0081 95.588 38.693C95.382 38.3778 95.2789 37.9914 95.2789 37.5339C95.2789 37.1399 95.3547 36.8157 95.5062 36.5611C95.6577 36.3066 95.8623 36.1051 96.1199 35.9566C96.3774 35.8081 96.6653 35.696 96.9835 35.6202C97.3017 35.5445 97.6259 35.4869 97.9562 35.4475C98.3744 35.399 98.7138 35.3596 98.9744 35.3293C99.235 35.296 99.4244 35.243 99.5426 35.1702C99.6608 35.0975 99.7199 34.9793 99.7199 34.8157V34.7839C99.7199 34.3869 99.6077 34.0793 99.3835 33.8611C99.1623 33.643 98.832 33.5339 98.3926 33.5339C97.935 33.5339 97.5744 33.6354 97.3108 33.8384C97.0502 34.0384 96.8699 34.2611 96.7699 34.5066L95.4926 34.2157C95.6441 33.7914 95.8653 33.449 96.1562 33.1884C96.4502 32.9248 96.788 32.7339 97.1699 32.6157C97.5517 32.4945 97.9532 32.4339 98.3744 32.4339C98.6532 32.4339 98.9486 32.4672 99.2608 32.5339C99.5759 32.5975 99.8699 32.7157 100.143 32.8884C100.418 33.0611 100.644 33.3081 100.82 33.6293C100.996 33.9475 101.083 34.3611 101.083 34.8702V39.5066H99.7562V38.552H99.7017C99.6138 38.7278 99.482 38.9005 99.3062 39.0702C99.1305 39.2399 98.9047 39.3808 98.6289 39.493C98.3532 39.6051 98.0229 39.6611 97.638 39.6611ZM97.9335 38.5702C98.3092 38.5702 98.6305 38.496 98.8971 38.3475C99.1668 38.199 99.3714 38.0051 99.5108 37.7657C99.6532 37.5233 99.7244 37.2642 99.7244 36.9884V36.0884C99.6759 36.1369 99.582 36.1823 99.4426 36.2248C99.3062 36.2642 99.1502 36.299 98.9744 36.3293C98.7986 36.3566 98.6274 36.3823 98.4608 36.4066C98.2941 36.4278 98.1547 36.446 98.0426 36.4611C97.7789 36.4945 97.538 36.5505 97.3199 36.6293C97.1047 36.7081 96.932 36.8217 96.8017 36.9702C96.6744 37.1157 96.6108 37.3096 96.6108 37.552C96.6108 37.8884 96.735 38.143 96.9835 38.3157C97.232 38.4854 97.5486 38.5702 97.9335 38.5702ZM104.253 35.3611V39.5066H102.894V32.5248H104.198V33.6611H104.285C104.445 33.2914 104.697 32.9945 105.039 32.7702C105.385 32.546 105.819 32.4339 106.344 32.4339C106.819 32.4339 107.236 32.5339 107.594 32.7339C107.951 32.9308 108.229 33.2248 108.426 33.6157C108.623 34.0066 108.721 34.4899 108.721 35.0657V39.5066H107.362V35.2293C107.362 34.7233 107.23 34.3278 106.966 34.043C106.703 33.7551 106.341 33.6111 105.88 33.6111C105.565 33.6111 105.285 33.6793 105.039 33.8157C104.797 33.952 104.604 34.152 104.462 34.4157C104.323 34.6763 104.253 34.9914 104.253 35.3611ZM110.544 39.5066V32.5248H111.903V39.5066H110.544ZM116.99 32.5248V33.6157H113.177V32.5248H116.99ZM114.199 30.852H115.558V37.4566C115.558 37.7202 115.598 37.9187 115.677 38.052C115.755 38.1823 115.857 38.2717 115.981 38.3202C116.108 38.3657 116.246 38.3884 116.395 38.3884C116.504 38.3884 116.599 38.3808 116.681 38.3657C116.763 38.3505 116.827 38.3384 116.872 38.3293L117.118 39.452C117.039 39.4823 116.927 39.5127 116.781 39.543C116.636 39.5763 116.454 39.5945 116.236 39.5975C115.878 39.6036 115.545 39.5399 115.236 39.4066C114.927 39.2733 114.677 39.0672 114.486 38.7884C114.295 38.5096 114.199 38.1596 114.199 37.7384V30.852Z" fill="#E5E5E5"/>
<g opacity="0.3">
<rect x="447.54" y="19.84" width="63.3333" height="29.3333" rx="7.5" fill="white" fill-opacity="0.03"/>
<rect x="447.54" y="19.84" width="63.3333" height="29.3333" rx="7.5" stroke="#525252"/>
<path d="M458.957 29.6316V36.1316" stroke="#737373" stroke-width="1.08333" stroke-linecap="round" stroke-linejoin="round"/>
<path d="M465.457 32.8816C466.354 32.8816 467.082 32.1541 467.082 31.2566C467.082 30.3591 466.354 29.6316 465.457 29.6316C464.559 29.6316 463.832 30.3591 463.832 31.2566C463.832 32.1541 464.559 32.8816 465.457 32.8816Z" stroke="#737373" stroke-width="1.08333" stroke-linecap="round" stroke-linejoin="round"/>
<path d="M458.957 39.3816C459.854 39.3816 460.582 38.6541 460.582 37.7566C460.582 36.8591 459.854 36.1316 458.957 36.1316C458.059 36.1316 457.332 36.8591 457.332 37.7566C457.332 38.6541 458.059 39.3816 458.957 39.3816Z" stroke="#737373" stroke-width="1.08333" stroke-linecap="round" stroke-linejoin="round"/>
<path d="M465.457 32.8816C465.457 34.1745 464.943 35.4145 464.029 36.3287C463.114 37.243 461.874 37.7566 460.582 37.7566" stroke="#737373" stroke-width="1.08333" stroke-linecap="round" stroke-linejoin="round"/>
<path d="M475.862 38.0066V30.3702H477.014V34.0169H477.107L480.31 30.3702H481.76L478.681 33.8081L481.772 38.0066H480.385L477.916 34.5948L477.014 35.6314V38.0066H475.862ZM484.737 38.1222C484.2 38.1222 483.731 37.9991 483.331 37.753C482.931 37.5069 482.62 37.1627 482.399 36.7202C482.178 36.2777 482.067 35.7607 482.067 35.1691C482.067 34.575 482.178 34.0554 482.399 33.6105C482.62 33.1655 482.931 32.82 483.331 32.5739C483.731 32.3278 484.2 32.2047 484.737 32.2047C485.274 32.2047 485.742 32.3278 486.143 32.5739C486.543 32.82 486.854 33.1655 487.075 33.6105C487.296 34.0554 487.407 34.575 487.407 35.1691C487.407 35.7607 487.296 36.2777 487.075 36.7202C486.854 37.1627 486.543 37.5069 486.143 37.753C485.742 37.9991 485.274 38.1222 484.737 38.1222ZM484.741 37.1863C485.089 37.1863 485.377 37.0943 485.606 36.9104C485.834 36.7264 486.003 36.4816 486.113 36.1758C486.225 35.8701 486.281 35.5332 486.281 35.1653C486.281 34.7999 486.225 34.4643 486.113 34.1586C486.003 33.8503 485.834 33.603 485.606 33.4166C485.377 33.2301 485.089 33.1369 484.741 33.1369C484.39 33.1369 484.099 33.2301 483.868 33.4166C483.639 33.603 483.469 33.8503 483.357 34.1586C483.248 34.4643 483.193 34.7999 483.193 35.1653C483.193 35.5332 483.248 35.8701 483.357 36.1758C483.469 36.4816 483.639 36.7264 483.868 36.9104C484.099 37.0943 484.39 37.1863 484.741 37.1863ZM492.943 33.6776L491.932 33.8566C491.89 33.7273 491.823 33.6042 491.731 33.4874C491.641 33.3706 491.52 33.2749 491.366 33.2003C491.211 33.1257 491.019 33.0884 490.788 33.0884C490.472 33.0884 490.208 33.1593 489.997 33.301C489.786 33.4402 489.68 33.6204 489.68 33.8416C489.68 34.033 489.751 34.1872 489.893 34.304C490.034 34.4208 490.263 34.5165 490.579 34.5911L491.489 34.7999C492.016 34.9217 492.408 35.1094 492.667 35.3629C492.925 35.6165 493.055 35.9459 493.055 36.3511C493.055 36.6941 492.955 36.9998 492.756 37.2683C492.56 37.5343 492.285 37.7431 491.932 37.8947C491.582 38.0464 491.175 38.1222 490.713 38.1222C490.072 38.1222 489.548 37.9855 489.143 37.712C488.738 37.4361 488.49 37.0446 488.398 36.5375L489.475 36.3734C489.542 36.6543 489.68 36.8669 489.889 37.011C490.098 37.1527 490.37 37.2236 490.706 37.2236C491.071 37.2236 491.363 37.1477 491.582 36.9961C491.801 36.842 491.91 36.6543 491.91 36.4331C491.91 36.2541 491.843 36.1037 491.709 35.9819C491.577 35.8601 491.374 35.7681 491.101 35.706L490.131 35.4935C489.597 35.3716 489.202 35.1778 488.946 34.9118C488.692 34.6458 488.565 34.309 488.565 33.9013C488.565 33.5632 488.66 33.2674 488.849 33.0139C489.038 32.7603 489.299 32.5627 489.632 32.421C489.965 32.2768 490.346 32.2047 490.776 32.2047C491.395 32.2047 491.883 32.339 492.238 32.6074C492.594 32.8734 492.828 33.2301 492.943 33.6776ZM490.377 37.9768H491.108L491.049 38.2825C491.265 38.3173 491.454 38.4043 491.615 38.5435C491.777 38.6827 491.858 38.8928 491.858 39.1737C491.86 39.5093 491.715 39.7814 491.421 39.9903C491.131 40.1991 490.709 40.3035 490.157 40.3035L490.135 39.6808C490.394 39.6808 490.602 39.6435 490.762 39.5689C490.923 39.4943 491.005 39.3738 491.008 39.2072C491.01 39.0407 490.948 38.9239 490.821 38.8567C490.697 38.7896 490.498 38.7424 490.225 38.715L490.377 37.9768ZM497.908 35.6314V32.2793H499.027V38.0066H497.931V37.0148H497.871C497.739 37.3205 497.528 37.5753 497.237 37.7791C496.949 37.9805 496.59 38.0812 496.16 38.0812C495.792 38.0812 495.466 38.0004 495.183 37.8388C494.902 37.6747 494.681 37.4324 494.519 37.1117C494.36 36.791 494.28 36.3946 494.28 35.9223V32.2793H495.395V35.788C495.395 36.1783 495.503 36.489 495.72 36.7202C495.936 36.9514 496.217 37.067 496.562 37.067C496.771 37.067 496.979 37.0148 497.185 36.9104C497.394 36.806 497.567 36.6481 497.703 36.4368C497.843 36.2255 497.911 35.9571 497.908 35.6314ZM501.64 30.3702V38.0066H500.525V30.3702H501.64Z" fill="#737373"/>
</g>
<rect x="519.374" y="24.5066" width="1" height="20" fill="white" fill-opacity="0.1"/>
<rect x="528.374" y="19.34" width="124.333" height="30.3333" rx="8" fill="white" fill-opacity="0.05"/>
<rect x="528.874" y="19.84" width="123.333" height="29.3333" rx="7.5" stroke="white" stroke-opacity="0.15"/>
<rect x="531.04" y="22.0066" width="65" height="25" rx="8" fill="white" fill-opacity="0.1"/>
<path d="M546.723 34.2611C546.723 35.0512 546.58 35.734 546.295 36.3094C546.009 36.8849 545.618 37.3287 545.12 37.6408C544.623 37.9529 544.055 38.109 543.416 38.109C542.777 38.109 542.209 37.9529 541.712 37.6408C541.214 37.3287 540.823 36.8849 540.537 36.3094C540.252 35.734 540.109 35.0512 540.109 34.2611C540.109 33.4711 540.252 32.7883 540.537 32.2128C540.823 31.6374 541.214 31.1936 541.712 30.8814C542.209 30.5693 542.777 30.4133 543.416 30.4133C544.055 30.4133 544.623 30.5693 545.12 30.8814C545.618 31.1936 546.009 31.6374 546.295 32.2128C546.58 32.7883 546.723 33.4711 546.723 34.2611ZM545.845 34.2611C545.845 33.6125 545.736 33.0651 545.519 32.6188C545.305 32.1726 545.013 31.8349 544.645 31.6057C544.279 31.3765 543.87 31.2618 543.416 31.2618C542.962 31.2618 542.552 31.3765 542.183 31.6057C541.818 31.8349 541.526 32.1726 541.309 32.6188C541.095 33.0651 540.987 33.6125 540.987 34.2611C540.987 34.9098 541.095 35.4572 541.309 35.9034C541.526 36.3497 541.818 36.6874 542.183 36.9166C542.552 37.1458 542.962 37.2604 543.416 37.2604C543.87 37.2604 544.279 37.1458 544.645 36.9166C545.013 36.6874 545.305 36.3497 545.519 35.9034C545.736 35.4572 545.845 34.9098 545.845 34.2611ZM548.131 40.1134V32.3884H548.965V33.2809H549.067C549.13 33.1833 549.218 33.059 549.33 32.9078C549.445 32.7542 549.608 32.6176 549.821 32.4981C550.035 32.3762 550.325 32.3153 550.691 32.3153C551.164 32.3153 551.581 32.4335 551.942 32.6701C552.303 32.9066 552.585 33.2419 552.787 33.6759C552.989 34.11 553.091 34.622 553.091 35.2121C553.091 35.8071 552.989 36.3228 552.787 36.7593C552.585 37.1934 552.304 37.5299 551.946 37.7688C551.587 38.0054 551.174 38.1236 550.706 38.1236C550.345 38.1236 550.056 38.0639 549.839 37.9444C549.622 37.8225 549.455 37.6847 549.338 37.5311C549.221 37.375 549.13 37.2458 549.067 37.1434H548.994V40.1134H548.131ZM548.979 35.1975C548.979 35.6218 549.041 35.9961 549.166 36.3204C549.29 36.6423 549.472 36.8947 549.711 37.0775C549.95 37.258 550.242 37.3482 550.589 37.3482C550.95 37.3482 551.251 37.2531 551.492 37.0629C551.736 36.8703 551.919 36.6118 552.041 36.2875C552.165 35.9607 552.227 35.5974 552.227 35.1975C552.227 34.8025 552.166 34.4465 552.044 34.1295C551.925 33.81 551.743 33.5576 551.499 33.3723C551.258 33.1846 550.954 33.0907 550.589 33.0907C550.238 33.0907 549.942 33.1797 549.704 33.3577C549.465 33.5333 549.284 33.7795 549.162 34.0965C549.04 34.4111 548.979 34.7781 548.979 35.1975ZM558.387 33.6466L557.611 33.8661C557.563 33.7369 557.491 33.6113 557.396 33.4894C557.303 33.365 557.176 33.2626 557.015 33.1821C556.854 33.1017 556.648 33.0614 556.397 33.0614C556.053 33.0614 555.767 33.1407 555.538 33.2992C555.311 33.4552 555.197 33.654 555.197 33.8954C555.197 34.11 555.275 34.2794 555.431 34.4038C555.588 34.5281 555.831 34.6318 556.163 34.7147L556.997 34.9195C557.499 35.0414 557.874 35.228 558.12 35.4791C558.366 35.7279 558.489 36.0485 558.489 36.4411C558.489 36.763 558.397 37.0507 558.211 37.3043C558.028 37.5579 557.772 37.7579 557.443 37.9042C557.114 38.0505 556.731 38.1236 556.295 38.1236C555.722 38.1236 555.247 37.9993 554.872 37.7506C554.496 37.5018 554.259 37.1385 554.159 36.6606L554.978 36.4557C555.056 36.7581 555.203 36.9849 555.42 37.1361C555.64 37.2872 555.926 37.3628 556.28 37.3628C556.682 37.3628 557.002 37.2775 557.238 37.1068C557.477 36.9337 557.597 36.7264 557.597 36.485C557.597 36.2899 557.529 36.1265 557.392 35.9949C557.255 35.8608 557.046 35.7608 556.763 35.6949L555.826 35.4755C555.312 35.3536 554.934 35.1646 554.693 34.9085C554.454 34.6501 554.334 34.327 554.334 33.9393C554.334 33.6223 554.423 33.3418 554.601 33.098C554.782 32.8542 555.027 32.6627 555.336 32.5237C555.648 32.3848 556.002 32.3153 556.397 32.3153C556.953 32.3153 557.39 32.4372 557.707 32.681C558.026 32.9249 558.253 33.2467 558.387 33.6466ZM559.789 38.0066V32.3884H560.652V38.0066H559.789ZM560.228 31.452C560.059 31.452 559.914 31.3947 559.792 31.2801C559.673 31.1655 559.613 31.0278 559.613 30.8668C559.613 30.7059 559.673 30.5681 559.792 30.4535C559.914 30.3389 560.059 30.2816 560.228 30.2816C560.396 30.2816 560.54 30.3389 560.659 30.4535C560.781 30.5681 560.842 30.7059 560.842 30.8668C560.842 31.0278 560.781 31.1655 560.659 31.2801C560.54 31.3947 560.396 31.452 560.228 31.452ZM562.789 40.1134C562.643 40.1134 562.512 40.1012 562.397 40.0768C562.283 40.0549 562.204 40.0329 562.16 40.011L562.379 39.2502C562.589 39.3038 562.774 39.3234 562.935 39.3087C563.096 39.2941 563.239 39.2222 563.363 39.0929C563.49 38.9661 563.606 38.7601 563.711 38.4748L563.872 38.0359L561.794 32.3884H562.73L564.281 36.8654H564.34L565.891 32.3884H566.827L564.442 38.8259C564.335 39.1161 564.202 39.3563 564.043 39.5465C563.885 39.7391 563.701 39.8818 563.491 39.9744C563.284 40.0671 563.05 40.1134 562.789 40.1134ZM570.047 38.1236C569.54 38.1236 569.095 38.0029 568.712 37.7615C568.332 37.5201 568.035 37.1824 567.82 36.7484C567.608 36.3143 567.502 35.8071 567.502 35.2268C567.502 34.6415 567.608 34.1307 567.82 33.6942C568.035 33.2577 568.332 32.9188 568.712 32.6774C569.095 32.436 569.54 32.3153 570.047 32.3153C570.555 32.3153 570.998 32.436 571.379 32.6774C571.762 32.9188 572.059 33.2577 572.271 33.6942C572.486 34.1307 572.593 34.6415 572.593 35.2268C572.593 35.8071 572.486 36.3143 572.271 36.7484C572.059 37.1824 571.762 37.5201 571.379 37.7615C570.998 38.0029 570.555 38.1236 570.047 38.1236ZM570.047 37.3482C570.433 37.3482 570.75 37.2495 570.998 37.0519C571.247 36.8544 571.431 36.5947 571.551 36.2729C571.67 35.951 571.73 35.6023 571.73 35.2268C571.73 34.8512 571.67 34.5013 571.551 34.177C571.431 33.8527 571.247 33.5906 570.998 33.3906C570.75 33.1907 570.433 33.0907 570.047 33.0907C569.662 33.0907 569.345 33.1907 569.096 33.3906C568.848 33.5906 568.664 33.8527 568.544 34.177C568.425 34.5013 568.365 34.8512 568.365 35.2268C568.365 35.6023 568.425 35.951 568.544 36.2729C568.664 36.5947 568.848 36.8544 569.096 37.0519C569.345 37.2495 569.662 37.3482 570.047 37.3482ZM574.774 34.6269V38.0066H573.911V32.3884H574.745V33.2663H574.818C574.95 32.981 575.15 32.7517 575.418 32.5786C575.686 32.403 576.032 32.3153 576.457 32.3153C576.837 32.3153 577.17 32.3933 577.455 32.5493C577.74 32.703 577.962 32.9371 578.121 33.2516C578.279 33.5637 578.359 33.9588 578.359 34.4367V38.0066H577.495V34.4952C577.495 34.0539 577.381 33.71 577.152 33.4638C576.922 33.215 576.608 33.0907 576.208 33.0907C575.932 33.0907 575.686 33.1504 575.469 33.2699C575.254 33.3894 575.085 33.5637 574.961 33.793C574.836 34.0222 574.774 34.3002 574.774 34.6269ZM582.292 38.1236C581.75 38.1236 581.283 38.0042 580.891 37.7652C580.501 37.5238 580.199 37.1873 579.987 36.7557C579.778 36.3216 579.673 35.8169 579.673 35.2414C579.673 34.6659 579.778 34.1587 579.987 33.7198C580.199 33.2784 580.494 32.9346 580.872 32.6883C581.253 32.4396 581.697 32.3153 582.204 32.3153C582.496 32.3153 582.785 32.364 583.071 32.4616C583.356 32.5591 583.616 32.7176 583.85 32.9371C584.084 33.1541 584.27 33.4418 584.409 33.8003C584.548 34.1587 584.618 34.6001 584.618 35.1243V35.4901H580.287V34.7439H583.74C583.74 34.427 583.677 34.1441 583.55 33.8954C583.425 33.6466 583.247 33.4504 583.016 33.3065C582.787 33.1626 582.516 33.0907 582.204 33.0907C581.86 33.0907 581.562 33.176 581.311 33.3467C581.063 33.515 580.871 33.7344 580.737 34.0051C580.603 34.2758 580.536 34.5659 580.536 34.8756V35.3731C580.536 35.7974 580.609 36.157 580.755 36.4521C580.904 36.7447 581.11 36.9678 581.373 37.1214C581.637 37.2726 581.943 37.3482 582.292 37.3482C582.518 37.3482 582.723 37.3165 582.906 37.2531C583.091 37.1873 583.251 37.0897 583.385 36.9605C583.519 36.8288 583.623 36.6654 583.696 36.4704L584.53 36.7045C584.442 36.9873 584.295 37.236 584.087 37.4506C583.88 37.6628 583.624 37.8286 583.319 37.9481C583.015 38.0651 582.672 38.1236 582.292 38.1236ZM586.794 30.5157V38.0066H585.931V30.5157H586.794Z" fill="#F5F5F5"/>
<path d="M604.926 38.0066V37.3354L609.043 31.1905H604.881V30.3702H610.146V31.0414L606.03 37.1863H610.191V38.0066H604.926ZM613.949 38.1259C613.432 38.1259 612.979 38.0029 612.589 37.7568C612.201 37.5107 611.897 37.1664 611.679 36.7239C611.462 36.2814 611.354 35.7644 611.354 35.1728C611.354 34.5762 611.462 34.0554 611.679 33.6105C611.897 33.1655 612.201 32.82 612.589 32.5739C612.979 32.3278 613.432 32.2047 613.949 32.2047C614.467 32.2047 614.919 32.3278 615.307 32.5739C615.697 32.82 616 33.1655 616.217 33.6105C616.435 34.0554 616.545 34.5762 616.545 35.1728C616.545 35.7644 616.435 36.2814 616.217 36.7239C616 37.1664 615.697 37.5107 615.307 37.7568C614.919 38.0029 614.467 38.1259 613.949 38.1259ZM613.949 37.3354C614.342 37.3354 614.665 37.2348 614.919 37.0334C615.172 36.8321 615.36 36.5673 615.482 36.2392C615.604 35.9111 615.665 35.5556 615.665 35.1728C615.665 34.79 615.604 34.4333 615.482 34.1026C615.36 33.772 615.172 33.5048 614.919 33.301C614.665 33.0971 614.342 32.9952 613.949 32.9952C613.557 32.9952 613.234 33.0971 612.98 33.301C612.726 33.5048 612.539 33.772 612.417 34.1026C612.295 34.4333 612.234 34.79 612.234 35.1728C612.234 35.5556 612.295 35.9111 612.417 36.2392C612.539 36.5673 612.726 36.8321 612.98 37.0334C613.234 37.2348 613.557 37.3354 613.949 37.3354ZM617.888 38.0066V32.2793H618.738V33.1444H618.798C618.902 32.861 619.091 32.6311 619.364 32.4546C619.638 32.2781 619.946 32.1898 620.289 32.1898C620.354 32.1898 620.435 32.1911 620.532 32.1936C620.629 32.196 620.702 32.1998 620.752 32.2047V33.0996C620.722 33.0922 620.653 33.081 620.546 33.0661C620.442 33.0487 620.331 33.04 620.215 33.04C619.936 33.04 619.688 33.0984 619.469 33.2152C619.253 33.3296 619.081 33.4887 618.954 33.6925C618.83 33.8938 618.768 34.1238 618.768 34.3823V38.0066H617.888ZM625.404 35.665V32.2793H626.284V38.0066H625.404V37.0371H625.344C625.21 37.328 625.001 37.5753 624.718 37.7791C624.435 37.9805 624.077 38.0812 623.644 38.0812C623.286 38.0812 622.968 38.0029 622.69 37.8463C622.411 37.6872 622.192 37.4485 622.033 37.1303C621.874 36.8097 621.795 36.4057 621.795 35.9185V32.2793H622.675V35.8589C622.675 36.2765 622.791 36.6096 623.025 36.8582C623.261 37.1067 623.562 37.231 623.927 37.231C624.146 37.231 624.369 37.1751 624.595 37.0632C624.824 36.9514 625.015 36.7799 625.169 36.5487C625.326 36.3175 625.404 36.0229 625.404 35.665ZM628.776 34.5613V38.0066H627.896V32.2793H628.746V33.1742H628.82C628.955 32.8834 629.159 32.6497 629.432 32.4732C629.705 32.2942 630.058 32.2047 630.491 32.2047C630.879 32.2047 631.218 32.2843 631.509 32.4434C631.8 32.6 632.026 32.8386 632.187 33.1593C632.349 33.4775 632.43 33.8802 632.43 34.3674V38.0066H631.55V34.427C631.55 33.9771 631.433 33.6266 631.199 33.3756C630.966 33.122 630.645 32.9952 630.237 32.9952C629.956 32.9952 629.705 33.0561 629.484 33.1779C629.265 33.2997 629.093 33.4775 628.966 33.7111C628.839 33.9448 628.776 34.2282 628.776 34.5613ZM634.918 30.3702V38.0066H634.038V30.3702H634.918ZM640.139 35.665V32.2793H641.019V38.0066H640.139V37.0371H640.079C639.945 37.328 639.736 37.5753 639.453 37.7791C639.169 37.9805 638.811 38.0812 638.379 38.0812C638.021 38.0812 637.703 38.0029 637.424 37.8463C637.146 37.6872 636.927 37.4485 636.768 37.1303C636.609 36.8097 636.53 36.4057 636.53 35.9185V32.2793H637.409V35.8589C637.409 36.2765 637.526 36.6096 637.76 36.8582C637.996 37.1067 638.297 37.231 638.662 37.231C638.881 37.231 639.104 37.1751 639.33 37.0632C639.558 36.9514 639.75 36.7799 639.904 36.5487C640.061 36.3175 640.139 36.0229 640.139 35.665Z" fill="#D4D4D4"/>
<path d="M32.334 82.7096C32.2942 82.3567 32.1301 82.0832 31.8418 81.8893C31.5534 81.6929 31.1905 81.5948 30.753 81.5948C30.4398 81.5948 30.1689 81.6445 29.9402 81.7439C29.7115 81.8409 29.5337 81.9751 29.407 82.1466C29.2827 82.3156 29.2205 82.5083 29.2205 82.7246C29.2205 82.906 29.2628 83.0626 29.3473 83.1944C29.4343 83.3261 29.5474 83.4367 29.6866 83.5262C29.8283 83.6132 29.9799 83.6866 30.1415 83.7462C30.3031 83.8034 30.4585 83.8506 30.6076 83.8879L31.3533 84.0818C31.5969 84.1415 31.8468 84.2222 32.1028 84.3242C32.3588 84.4261 32.5962 84.5603 32.815 84.7269C33.0337 84.8934 33.2102 85.0997 33.3445 85.3458C33.4812 85.5919 33.5495 85.8865 33.5495 86.2295C33.5495 86.6621 33.4377 87.0461 33.214 87.3817C32.9927 87.7173 32.6708 87.982 32.2482 88.1759C31.8281 88.3698 31.3198 88.4667 30.7232 88.4667C30.1515 88.4667 29.6568 88.376 29.2392 88.1945C28.8216 88.0131 28.4947 87.7558 28.2585 87.4227C28.0224 87.0871 27.8919 86.6894 27.867 86.2295H29.0229C29.0453 86.5054 29.1348 86.7354 29.2914 86.9193C29.4505 87.1008 29.6531 87.2363 29.8991 87.3258C30.1477 87.4128 30.4199 87.4563 30.7157 87.4563C31.0414 87.4563 31.331 87.4053 31.5845 87.3034C31.8406 87.199 32.0419 87.0548 32.1886 86.8709C32.3352 86.6844 32.4086 86.4669 32.4086 86.2183C32.4086 85.9921 32.3439 85.8069 32.2147 85.6628C32.0879 85.5186 31.9151 85.3993 31.6964 85.3048C31.4801 85.2103 31.2353 85.1271 30.9618 85.055L30.0595 84.8089C29.448 84.6423 28.9632 84.3975 28.6053 84.0743C28.2498 83.7512 28.0721 83.3236 28.0721 82.7917C28.0721 82.3517 28.1914 81.9676 28.43 81.6395C28.6687 81.3114 28.9918 81.0566 29.3995 80.8751C29.8072 80.6912 30.267 80.5992 30.7791 80.5992C31.2962 80.5992 31.7523 80.6899 32.1475 80.8714C32.5453 81.0529 32.8585 81.3027 33.0872 81.6209C33.3159 81.9366 33.4352 82.2995 33.4451 82.7096H32.334ZM41.8347 84.5218C41.8347 85.3371 41.6856 86.0381 41.3873 86.6248C41.089 87.2089 40.6801 87.6589 40.1605 87.9746C39.6435 88.2878 39.0556 88.4444 38.3968 88.4444C37.7356 88.4444 37.1453 88.2878 36.6257 87.9746C36.1087 87.6589 35.701 87.2077 35.4027 86.621C35.1044 86.0344 34.9553 85.3346 34.9553 84.5218C34.9553 83.7064 35.1044 83.0067 35.4027 82.4225C35.701 81.8359 36.1087 81.386 36.6257 81.0727C37.1453 80.757 37.7356 80.5992 38.3968 80.5992C39.0556 80.5992 39.6435 80.757 40.1605 81.0727C40.6801 81.386 41.089 81.8359 41.3873 82.4225C41.6856 83.0067 41.8347 83.7064 41.8347 84.5218ZM40.6937 84.5218C40.6937 83.9003 40.593 83.3771 40.3917 82.952C40.1928 82.5244 39.9194 82.2013 39.5714 81.9825C39.2259 81.7613 38.8343 81.6507 38.3968 81.6507C37.9569 81.6507 37.5641 81.7613 37.2186 81.9825C36.8731 82.2013 36.5996 82.5244 36.3983 82.952C36.1994 83.3771 36.1 83.9003 36.1 84.5218C36.1 85.1432 36.1994 85.6677 36.3983 86.0953C36.5996 86.5204 36.8731 86.8435 37.2186 87.0648C37.5641 87.2835 37.9569 87.3929 38.3968 87.3929C38.8343 87.3929 39.2259 87.2835 39.5714 87.0648C39.9194 86.8435 40.1928 86.5204 40.3917 86.0953C40.593 85.6677 40.6937 85.1432 40.6937 84.5218ZM43.5462 88.34V80.7036H46.2681C46.8597 80.7036 47.3507 80.8055 47.741 81.0094C48.1337 81.2132 48.427 81.4953 48.6209 81.8558C48.8148 82.2137 48.9118 82.6276 48.9118 83.0974C48.9118 83.5648 48.8136 83.9762 48.6172 84.3316C48.4233 84.6846 48.13 84.9593 47.7372 85.1557C47.347 85.352 46.856 85.4502 46.2644 85.4502H44.2024V84.4584H46.16C46.5329 84.4584 46.8361 84.405 47.0698 84.2981C47.3059 84.1912 47.4787 84.0358 47.5881 83.832C47.6975 83.6281 47.7521 83.3833 47.7521 83.0974C47.7521 82.8091 47.6962 82.5592 47.5844 82.348C47.475 82.1367 47.3022 81.9751 47.0661 81.8632C46.8324 81.7489 46.5254 81.6917 46.1451 81.6917H44.6983V88.34H43.5462ZM47.3159 84.8947L49.2026 88.34H47.8901L46.0407 84.8947H47.3159ZM55.4995 80.7036H56.6553V85.7262C56.6553 86.2606 56.5298 86.7341 56.2787 87.1468C56.0277 87.5569 55.6747 87.8801 55.2198 88.1162C54.7649 88.3499 54.2317 88.4667 53.6202 88.4667C53.0112 88.4667 52.4792 88.3499 52.0243 88.1162C51.5694 87.8801 51.2164 87.5569 50.9654 87.1468C50.7143 86.7341 50.5888 86.2606 50.5888 85.7262V80.7036H51.7409V85.6329C51.7409 85.9785 51.8167 86.2855 51.9684 86.5539C52.1225 86.8224 52.34 87.0337 52.6209 87.1878C52.9018 87.3394 53.2349 87.4152 53.6202 87.4152C54.008 87.4152 54.3423 87.3394 54.6232 87.1878C54.9066 87.0337 55.1229 86.8224 55.272 86.5539C55.4236 86.2855 55.4995 85.9785 55.4995 85.6329V80.7036ZM61.6593 80.7036H63.0575L65.4886 86.6397H65.5781L68.0092 80.7036H69.4075V88.34H68.3113V82.814H68.2404L65.9883 88.3288H65.0785L62.8263 82.8103H62.7555V88.34H61.6593V80.7036ZM71.3576 88.34V80.7036H76.1453V81.6954H72.5098V84.0221H75.8954V85.0102H72.5098V87.3481H76.19V88.34H71.3576ZM77.5827 81.6954V80.7036H83.4926V81.6954H81.11V88.34H79.9616V81.6954H77.5827ZM91.2372 80.7036V88.34H90.1782L86.2966 82.7395H86.2258V88.34H85.0736V80.7036H86.14L90.0253 86.3116H90.0962V80.7036H91.2372ZM94.345 80.7036V88.34H93.1929V80.7036H94.345Z" fill="#A1A1A1"/>
<rect x="25.3301" y="99.34" width="621.33" height="34.66" rx="8" fill="#171717" fill-opacity="0.6"/>
<rect x="25.8301" y="99.84" width="620.33" height="33.66" rx="7.5" stroke="white" stroke-opacity="0.1"/>
<path d="M44.2633 114.634C44.2084 114.169 43.9854 113.809 43.5945 113.552C43.2036 113.296 42.7241 113.168 42.1561 113.168C41.7408 113.168 41.3773 113.235 41.0658 113.369C40.7574 113.504 40.5161 113.688 40.342 113.924C40.171 114.159 40.0855 114.426 40.0855 114.725C40.0855 114.976 40.1451 115.191 40.2642 115.371C40.3863 115.548 40.5421 115.696 40.7314 115.815C40.9208 115.931 41.1193 116.028 41.3269 116.104C41.5346 116.177 41.7255 116.237 41.8996 116.283L42.8524 116.539C43.0967 116.603 43.3685 116.692 43.6678 116.805C43.9702 116.918 44.2588 117.072 44.5336 117.268C44.8115 117.46 45.0406 117.707 45.2208 118.01C45.401 118.312 45.491 118.683 45.491 119.123C45.491 119.63 45.3582 120.088 45.0925 120.497C44.8299 120.906 44.4451 121.232 43.9381 121.473C43.4342 121.714 42.8219 121.835 42.1011 121.835C41.4293 121.835 40.8475 121.726 40.3558 121.51C39.8671 121.293 39.4823 120.99 39.2014 120.603C38.9235 120.215 38.7662 119.764 38.7295 119.251H39.9023C39.9328 119.605 40.0519 119.899 40.2596 120.131C40.4703 120.36 40.736 120.531 41.0567 120.644C41.3804 120.754 41.7285 120.809 42.1011 120.809C42.5348 120.809 42.9242 120.738 43.2693 120.598C43.6144 120.454 43.8877 120.256 44.0893 120.002C44.2908 119.746 44.3916 119.447 44.3916 119.105C44.3916 118.793 44.3046 118.54 44.1305 118.344C43.9564 118.149 43.7274 117.99 43.4434 117.868C43.1593 117.746 42.8524 117.639 42.5226 117.547L41.3682 117.217C40.6352 117.006 40.055 116.706 39.6274 116.315C39.1998 115.924 38.9861 115.412 38.9861 114.78C38.9861 114.255 39.1281 113.797 39.4121 113.406C39.6992 113.012 40.084 112.706 40.5665 112.49C41.0521 112.27 41.5942 112.16 42.1927 112.16C42.7974 112.16 43.3349 112.268 43.8052 112.485C44.2756 112.699 44.6481 112.992 44.923 113.365C45.2009 113.737 45.3475 114.16 45.3628 114.634H44.2633ZM50.0709 121.817C49.4356 121.817 48.8783 121.665 48.3988 121.363C47.9224 121.061 47.5498 120.638 47.2811 120.094C47.0154 119.55 46.8825 118.915 46.8825 118.188C46.8825 117.455 47.0154 116.816 47.2811 116.269C47.5498 115.722 47.9224 115.298 48.3988 114.995C48.8783 114.693 49.4356 114.542 50.0709 114.542C50.7061 114.542 51.2619 114.693 51.7383 114.995C52.2178 115.298 52.5904 115.722 52.8561 116.269C53.1248 116.816 53.2592 117.455 53.2592 118.188C53.2592 118.915 53.1248 119.55 52.8561 120.094C52.5904 120.638 52.2178 121.061 51.7383 121.363C51.2619 121.665 50.7061 121.817 50.0709 121.817ZM50.0709 120.845C50.5534 120.845 50.9504 120.722 51.2619 120.474C51.5734 120.227 51.804 119.902 51.9536 119.499C52.1033 119.095 52.1781 118.659 52.1781 118.188C52.1781 117.718 52.1033 117.28 51.9536 116.874C51.804 116.467 51.5734 116.139 51.2619 115.889C50.9504 115.638 50.5534 115.513 50.0709 115.513C49.5883 115.513 49.1913 115.638 48.8798 115.889C48.5683 116.139 48.3377 116.467 48.1881 116.874C48.0384 117.28 47.9636 117.718 47.9636 118.188C47.9636 118.659 48.0384 119.095 48.1881 119.499C48.3377 119.902 48.5683 120.227 48.8798 120.474C49.1913 120.722 49.5883 120.845 50.0709 120.845ZM54.9095 121.67V114.634H55.954V115.696H56.0273C56.1555 115.348 56.3876 115.066 56.7236 114.849C57.0595 114.632 57.4382 114.524 57.8596 114.524C57.9391 114.524 58.0383 114.525 58.1574 114.528C58.2765 114.531 58.3666 114.536 58.4277 114.542V115.641C58.391 115.632 58.3071 115.618 58.1757 115.6C58.0475 115.579 57.9116 115.568 57.768 115.568C57.426 115.568 57.1206 115.64 56.8518 115.783C56.5861 115.924 56.3754 116.119 56.2197 116.37C56.067 116.617 55.9906 116.9 55.9906 117.217V121.67H54.9095ZM64.1436 118.793V114.634H65.2247V121.67H64.1436V120.479H64.0703C63.9054 120.836 63.6488 121.14 63.3007 121.39C62.9525 121.638 62.5128 121.762 61.9814 121.762C61.5416 121.762 61.1507 121.665 60.8086 121.473C60.4666 121.277 60.1979 120.984 60.0024 120.593C59.8069 120.199 59.7092 119.703 59.7092 119.105V114.634H60.7903V119.031C60.7903 119.544 60.9339 119.954 61.2209 120.259C61.5111 120.564 61.8806 120.717 62.3295 120.717C62.5983 120.717 62.8716 120.648 63.1495 120.511C63.4305 120.374 63.6656 120.163 63.855 119.879C64.0474 119.595 64.1436 119.233 64.1436 118.793ZM68.2859 117.437V121.67H67.2048V114.634H68.2493V115.733H68.3409C68.5058 115.376 68.7562 115.089 69.0922 114.872C69.4281 114.652 69.8618 114.542 70.3932 114.542C70.8696 114.542 71.2865 114.64 71.6438 114.835C72.0011 115.028 72.279 115.321 72.4775 115.715C72.676 116.106 72.7753 116.6 72.7753 117.199V121.67H71.6942V117.272C71.6942 116.719 71.5506 116.289 71.2636 115.98C70.9765 115.669 70.5825 115.513 70.0817 115.513C69.7366 115.513 69.4281 115.588 69.1563 115.738C68.8876 115.887 68.6753 116.106 68.5196 116.393C68.3638 116.68 68.2859 117.028 68.2859 117.437ZM79.1852 118.793V114.634H80.2663V121.67H79.1852V120.479H79.1119C78.947 120.836 78.6904 121.14 78.3423 121.39C77.9941 121.638 77.5544 121.762 77.023 121.762C76.5832 121.762 76.1923 121.665 75.8503 121.473C75.5082 121.277 75.2395 120.984 75.044 120.593C74.8485 120.199 74.7508 119.703 74.7508 119.105V114.634H75.8319V119.031C75.8319 119.544 75.9755 119.954 76.2625 120.259C76.5527 120.564 76.9222 120.717 77.3711 120.717C77.6399 120.717 77.9132 120.648 78.1911 120.511C78.4721 120.374 78.7072 120.163 78.8966 119.879C79.089 119.595 79.1852 119.233 79.1852 118.793ZM82.0449 121.67V120.845L86.0395 115.715V115.641H82.1731V114.634H87.4321V115.495L83.5474 120.589V120.662H87.5603V121.67H82.0449ZM93.6599 118.793V114.634H94.741V121.67H93.6599V120.479H93.5866C93.4217 120.836 93.1652 121.14 92.817 121.39C92.4688 121.638 92.0291 121.762 91.4977 121.762C91.0579 121.762 90.667 121.665 90.325 121.473C89.9829 121.277 89.7142 120.984 89.5187 120.593C89.3233 120.199 89.2255 119.703 89.2255 119.105V114.634H90.3066V119.031C90.3066 119.544 90.4502 119.954 90.7372 120.259C91.0274 120.564 91.3969 120.717 91.8458 120.717C92.1146 120.717 92.3879 120.648 92.6658 120.511C92.9468 120.374 93.182 120.163 93.3713 119.879C93.5637 119.595 93.6599 119.233 93.6599 118.793ZM100.496 121.67V112.288H101.577V115.751H101.669C101.748 115.629 101.858 115.473 101.998 115.284C102.142 115.092 102.347 114.921 102.612 114.771C102.881 114.618 103.244 114.542 103.703 114.542C104.295 114.542 104.817 114.69 105.269 114.986C105.721 115.283 106.074 115.702 106.327 116.246C106.581 116.79 106.708 117.431 106.708 118.17C106.708 118.915 106.581 119.561 106.327 120.108C106.074 120.651 105.723 121.073 105.274 121.372C104.825 121.668 104.307 121.817 103.721 121.817C103.269 121.817 102.907 121.742 102.635 121.592C102.363 121.439 102.154 121.267 102.008 121.074C101.861 120.879 101.748 120.717 101.669 120.589H101.54V121.67H100.496ZM101.559 118.152C101.559 118.683 101.637 119.152 101.792 119.558C101.948 119.961 102.176 120.277 102.475 120.506C102.774 120.732 103.141 120.845 103.574 120.845C104.026 120.845 104.403 120.726 104.706 120.488C105.011 120.247 105.24 119.923 105.393 119.517C105.549 119.108 105.627 118.653 105.627 118.152C105.627 117.657 105.55 117.211 105.397 116.814C105.248 116.414 105.02 116.098 104.715 115.866C104.413 115.631 104.032 115.513 103.574 115.513C103.134 115.513 102.765 115.625 102.466 115.848C102.166 116.067 101.94 116.376 101.788 116.773C101.635 117.167 101.559 117.626 101.559 118.152ZM112.796 118.793V114.634H113.877V121.67H112.796V120.479H112.722C112.558 120.836 112.301 121.14 111.953 121.39C111.605 121.638 111.165 121.762 110.634 121.762C110.194 121.762 109.803 121.665 109.461 121.473C109.119 121.277 108.85 120.984 108.655 120.593C108.459 120.199 108.361 119.703 108.361 119.105V114.634H109.442V119.031C109.442 119.544 109.586 119.954 109.873 120.259C110.163 120.564 110.533 120.717 110.982 120.717C111.25 120.717 111.524 120.648 111.802 120.511C112.083 120.374 112.318 120.163 112.507 119.879C112.7 119.595 112.796 119.233 112.796 118.793ZM115.857 121.67V114.634H116.901V115.696H116.975C117.103 115.348 117.335 115.066 117.671 114.849C118.007 114.632 118.386 114.524 118.807 114.524C118.887 114.524 118.986 114.525 119.105 114.528C119.224 114.531 119.314 114.536 119.375 114.542V115.641C119.339 115.632 119.255 115.618 119.123 115.6C118.995 115.579 118.859 115.568 118.715 115.568C118.373 115.568 118.068 115.64 117.799 115.783C117.534 115.924 117.323 116.119 117.167 116.37C117.014 116.617 116.938 116.9 116.938 117.217V121.67H115.857ZM122.727 121.835C122.281 121.835 121.877 121.751 121.513 121.583C121.15 121.412 120.861 121.166 120.648 120.845C120.434 120.522 120.327 120.131 120.327 119.673C120.327 119.269 120.406 118.943 120.565 118.692C120.724 118.439 120.936 118.24 121.202 118.097C121.468 117.953 121.761 117.846 122.081 117.776C122.405 117.703 122.73 117.645 123.057 117.602C123.485 117.547 123.831 117.506 124.097 117.478C124.366 117.448 124.561 117.397 124.683 117.327C124.809 117.257 124.871 117.135 124.871 116.961V116.924C124.871 116.472 124.747 116.121 124.5 115.87C124.256 115.62 123.885 115.495 123.387 115.495C122.871 115.495 122.466 115.608 122.173 115.834C121.88 116.06 121.674 116.301 121.555 116.558L120.528 116.191C120.712 115.764 120.956 115.431 121.261 115.192C121.57 114.951 121.906 114.783 122.269 114.689C122.636 114.591 122.996 114.542 123.35 114.542C123.576 114.542 123.836 114.569 124.129 114.624C124.425 114.676 124.711 114.785 124.986 114.95C125.264 115.115 125.494 115.363 125.677 115.696C125.861 116.029 125.952 116.475 125.952 117.034V121.67H124.871V120.717H124.816C124.743 120.87 124.621 121.033 124.45 121.207C124.279 121.381 124.051 121.529 123.767 121.652C123.483 121.774 123.137 121.835 122.727 121.835ZM122.892 120.864C123.32 120.864 123.68 120.78 123.973 120.612C124.27 120.444 124.492 120.227 124.642 119.961C124.795 119.696 124.871 119.416 124.871 119.123V118.133C124.825 118.188 124.725 118.239 124.569 118.285C124.416 118.327 124.239 118.366 124.037 118.399C123.839 118.43 123.645 118.457 123.456 118.482C123.269 118.503 123.118 118.521 123.002 118.537C122.721 118.573 122.459 118.633 122.214 118.715C121.973 118.795 121.777 118.915 121.628 119.077C121.481 119.236 121.408 119.453 121.408 119.728C121.408 120.103 121.547 120.387 121.825 120.58C122.106 120.769 122.462 120.864 122.892 120.864ZM128.37 124.309C128.187 124.309 128.023 124.293 127.88 124.263C127.736 124.235 127.637 124.208 127.582 124.18L127.857 123.227C128.119 123.295 128.352 123.319 128.553 123.301C128.755 123.282 128.933 123.192 129.089 123.03C129.248 122.872 129.393 122.614 129.524 122.256L129.726 121.707L127.124 114.634H128.297L130.239 120.241H130.312L132.255 114.634H133.427L130.44 122.696C130.306 123.059 130.14 123.36 129.941 123.599C129.743 123.84 129.512 124.018 129.249 124.134C128.99 124.251 128.697 124.309 128.37 124.309ZM136.711 121.835C136.265 121.835 135.86 121.751 135.497 121.583C135.133 121.412 134.845 121.166 134.631 120.845C134.417 120.522 134.31 120.131 134.31 119.673C134.31 119.269 134.39 118.943 134.548 118.692C134.707 118.439 134.92 118.24 135.185 118.097C135.451 117.953 135.744 117.846 136.065 117.776C136.388 117.703 136.714 117.645 137.04 117.602C137.468 117.547 137.815 117.506 138.08 117.478C138.349 117.448 138.545 117.397 138.667 117.327C138.792 117.257 138.855 117.135 138.855 116.961V116.924C138.855 116.472 138.731 116.121 138.484 115.87C138.239 115.62 137.868 115.495 137.37 115.495C136.854 115.495 136.45 115.608 136.156 115.834C135.863 116.06 135.657 116.301 135.538 116.558L134.512 116.191C134.695 115.764 134.939 115.431 135.245 115.192C135.553 114.951 135.889 114.783 136.253 114.689C136.619 114.591 136.979 114.542 137.334 114.542C137.56 114.542 137.819 114.569 138.112 114.624C138.409 114.676 138.694 114.785 138.969 114.95C139.247 115.115 139.478 115.363 139.661 115.696C139.844 116.029 139.936 116.475 139.936 117.034V121.67H138.855V120.717H138.8C138.726 120.87 138.604 121.033 138.433 121.207C138.262 121.381 138.035 121.529 137.751 121.652C137.467 121.774 137.12 121.835 136.711 121.835ZM136.876 120.864C137.303 120.864 137.664 120.78 137.957 120.612C138.253 120.444 138.476 120.227 138.626 119.961C138.778 119.696 138.855 119.416 138.855 119.123V118.133C138.809 118.188 138.708 118.239 138.552 118.285C138.4 118.327 138.222 118.366 138.021 118.399C137.822 118.43 137.628 118.457 137.439 118.482C137.253 118.503 137.102 118.521 136.986 118.537C136.705 118.573 136.442 118.633 136.198 118.715C135.956 118.795 135.761 118.915 135.611 119.077C135.465 119.236 135.391 119.453 135.391 119.728C135.391 120.103 135.53 120.387 135.808 120.58C136.089 120.769 136.445 120.864 136.876 120.864ZM146.233 124.309C146.05 124.309 145.887 124.293 145.743 124.263C145.6 124.235 145.5 124.208 145.445 124.18L145.72 123.227C145.983 123.295 146.215 123.319 146.417 123.301C146.618 123.282 146.797 123.192 146.953 123.03C147.111 122.872 147.256 122.614 147.388 122.256L147.589 121.707L144.987 114.634H146.16L148.102 120.241H148.176L150.118 114.634H151.291L148.304 122.696C148.17 123.059 148.003 123.36 147.805 123.599C147.606 123.84 147.376 124.018 147.113 124.134C146.853 124.251 146.56 124.309 146.233 124.309ZM154.574 121.835C154.128 121.835 153.724 121.751 153.36 121.583C152.997 121.412 152.708 121.166 152.494 120.845C152.281 120.522 152.174 120.131 152.174 119.673C152.174 119.269 152.253 118.943 152.412 118.692C152.571 118.439 152.783 118.24 153.049 118.097C153.314 117.953 153.608 117.846 153.928 117.776C154.252 117.703 154.577 117.645 154.904 117.602C155.332 117.547 155.678 117.506 155.944 117.478C156.213 117.448 156.408 117.397 156.53 117.327C156.655 117.257 156.718 117.135 156.718 116.961V116.924C156.718 116.472 156.594 116.121 156.347 115.87C156.103 115.62 155.732 115.495 155.234 115.495C154.718 115.495 154.313 115.608 154.02 115.834C153.727 116.06 153.521 116.301 153.401 116.558L152.375 116.191C152.559 115.764 152.803 115.431 153.108 115.192C153.417 114.951 153.753 114.783 154.116 114.689C154.483 114.591 154.843 114.542 155.197 114.542C155.423 114.542 155.683 114.569 155.976 114.624C156.272 114.676 156.558 114.785 156.833 114.95C157.11 115.115 157.341 115.363 157.524 115.696C157.708 116.029 157.799 116.475 157.799 117.034V121.67H156.718V120.717H156.663C156.59 120.87 156.468 121.033 156.297 121.207C156.126 121.381 155.898 121.529 155.614 121.652C155.33 121.774 154.983 121.835 154.574 121.835ZM154.739 120.864C155.167 120.864 155.527 120.78 155.82 120.612C156.116 120.444 156.339 120.227 156.489 119.961C156.642 119.696 156.718 119.416 156.718 119.123V118.133C156.672 118.188 156.571 118.239 156.416 118.285C156.263 118.327 156.086 118.366 155.884 118.399C155.686 118.43 155.492 118.457 155.303 118.482C155.116 118.503 154.965 118.521 154.849 118.537C154.568 118.573 154.305 118.633 154.061 118.715C153.82 118.795 153.624 118.915 153.475 119.077C153.328 119.236 153.255 119.453 153.255 119.728C153.255 120.103 153.394 120.387 153.672 120.58C153.953 120.769 154.308 120.864 154.739 120.864ZM159.571 121.67V120.845L163.565 115.715V115.641H159.699V114.634H164.958V115.495L161.073 120.589V120.662H165.086V121.67H159.571ZM166.751 121.67V114.634H167.833V121.67H166.751ZM170.894 117.437V121.67H169.813V114.634H170.857V115.733H170.949C171.114 115.376 171.364 115.089 171.7 114.872C172.036 114.652 172.47 114.542 173.001 114.542C173.478 114.542 173.894 114.64 174.252 114.835C174.609 115.028 174.887 115.321 175.085 115.715C175.284 116.106 175.383 116.6 175.383 117.199V121.67H174.302V117.272C174.302 116.719 174.159 116.289 173.871 115.98C173.584 115.669 173.19 115.513 172.69 115.513C172.344 115.513 172.036 115.588 171.764 115.738C171.495 115.887 171.283 116.106 171.127 116.393C170.972 116.68 170.894 117.028 170.894 117.437ZM178.147 121.743C177.921 121.743 177.727 121.662 177.565 121.5C177.403 121.339 177.322 121.145 177.322 120.919C177.322 120.693 177.403 120.499 177.565 120.337C177.727 120.175 177.921 120.094 178.147 120.094C178.373 120.094 178.567 120.175 178.728 120.337C178.89 120.499 178.971 120.693 178.971 120.919C178.971 121.068 178.933 121.206 178.857 121.331C178.783 121.456 178.684 121.557 178.559 121.633C178.437 121.707 178.299 121.743 178.147 121.743Z" fill="#737373"/>
<path d="M28.8141 158H27.5911L30.3391 150.364H31.6703L34.4183 158H33.1953L31.0364 151.751H30.9767L28.8141 158ZM29.0192 155.01H32.9865V155.979H29.0192V155.01ZM41.7797 152.847H40.6164C40.5716 152.598 40.4883 152.38 40.3665 152.191C40.2447 152.002 40.0956 151.841 39.9191 151.71C39.7426 151.578 39.545 151.479 39.3262 151.411C39.11 151.344 38.88 151.311 38.6364 151.311C38.1964 151.311 37.8024 151.421 37.4544 151.643C37.1089 151.864 36.8355 152.188 36.6341 152.616C36.4352 153.043 36.3358 153.565 36.3358 154.182C36.3358 154.803 36.4352 155.328 36.6341 155.755C36.8355 156.183 37.1101 156.506 37.4581 156.725C37.8062 156.944 38.1977 157.053 38.6327 157.053C38.8738 157.053 39.1025 157.021 39.3188 156.956C39.5375 156.889 39.7351 156.791 39.9116 156.661C40.0881 156.532 40.2373 156.374 40.3591 156.188C40.4834 155.999 40.5691 155.783 40.6164 155.539L41.7797 155.543C41.7176 155.918 41.597 156.264 41.418 156.579C41.2415 156.893 41.0141 157.164 40.7357 157.392C40.4597 157.618 40.1441 157.794 39.7886 157.918C39.4331 158.042 39.0453 158.104 38.6252 158.104C37.964 158.104 37.3749 157.948 36.8578 157.635C36.3408 157.319 35.9331 156.868 35.6348 156.281C35.339 155.694 35.1911 154.995 35.1911 154.182C35.1911 153.366 35.3403 152.667 35.6385 152.083C35.9368 151.496 36.3445 151.046 36.8616 150.733C37.3786 150.417 37.9665 150.259 38.6252 150.259C39.0304 150.259 39.4083 150.318 39.7588 150.434C40.1117 150.549 40.4287 150.718 40.7096 150.942C40.9905 151.163 41.2229 151.434 41.4068 151.754C41.5908 152.073 41.7151 152.437 41.7797 152.847ZM38.2337 158.011H38.9645L38.9049 158.317C39.1211 158.352 39.3101 158.439 39.4716 158.578C39.6332 158.717 39.714 158.927 39.714 159.208C39.7165 159.544 39.5711 159.816 39.2778 160.025C38.9869 160.233 38.5656 160.338 38.0137 160.338L37.9914 159.715C38.2499 159.715 38.4587 159.678 38.6178 159.603C38.7794 159.529 38.8614 159.408 38.8639 159.242C38.8664 159.075 38.8042 158.958 38.6774 158.891C38.5531 158.824 38.3543 158.777 38.0808 158.749L38.2337 158.011ZM44.5856 150.364V158H43.4334V150.364H44.5856ZM46.5385 158V150.364H47.6906V154.01H47.7839L50.9868 150.364H52.4373L49.3574 153.801L52.4484 158H51.0614L48.593 154.588L47.6906 155.625V158H46.5385ZM53.7861 158V150.364H54.9383V157.008H58.3985V158H53.7861ZM61.0226 158H59.7996L62.5476 150.364H63.8788L66.6268 158H65.4038L63.2449 151.751H63.1852L61.0226 158ZM61.2277 155.01H65.195V155.979H61.2277V155.01ZM68.0046 150.364H69.4028L71.834 156.3H71.9234L74.3545 150.364H75.7528V158H74.6566V152.474H74.5857L72.3336 157.989H71.4238L69.1717 152.47H69.1008V158H68.0046V150.364ZM78.348 158H77.125L79.873 150.364H81.2042L83.9522 158H82.7292L80.5703 151.751H80.5106L78.348 158ZM78.5531 155.01H82.5204V155.979H78.5531V155.01Z" fill="#A1A1A1"/>
<rect x="25.3301" y="169" width="621.33" height="34.66" rx="8" fill="#171717" fill-opacity="0.6"/>
<rect x="25.8301" y="169.5" width="620.33" height="33.66" rx="7.5" stroke="white" stroke-opacity="0.1"/>
<g clip-path="url(#clip0_1005_528)">
<path d="M39.5293 191.33H38.329L41.8006 181.875H42.9824L46.454 191.33H45.2537L42.4284 183.371H42.3545L39.5293 191.33ZM39.9724 187.637H44.8105V188.652H39.9724V187.637ZM50.6596 191.478C49.9948 191.478 49.4224 191.321 48.9422 191.007C48.4621 190.693 48.0928 190.26 47.8343 189.71C47.5758 189.159 47.4465 188.529 47.4465 187.821C47.4465 187.101 47.5789 186.466 47.8435 185.915C48.1113 185.361 48.4837 184.928 48.9607 184.618C49.4408 184.304 50.001 184.147 50.6411 184.147C51.1397 184.147 51.589 184.239 51.9891 184.424C52.3892 184.608 52.717 184.867 52.9724 185.199C53.2279 185.532 53.3864 185.919 53.4479 186.363H52.3584C52.2753 186.039 52.0907 185.753 51.8045 185.504C51.5213 185.252 51.1397 185.125 50.6596 185.125C50.2349 185.125 49.8625 185.236 49.5424 185.458C49.2254 185.676 48.9776 185.986 48.7991 186.386C48.6237 186.783 48.536 187.249 48.536 187.785C48.536 188.332 48.6222 188.809 48.7945 189.216C48.9699 189.622 49.2162 189.937 49.5332 190.162C49.8532 190.387 50.2287 190.499 50.6596 190.499C50.9427 190.499 51.1997 190.45 51.4305 190.351C51.6614 190.253 51.8568 190.111 52.0168 189.927C52.1769 189.742 52.2907 189.52 52.3584 189.262H53.4479C53.3864 189.68 53.234 190.057 52.9909 190.393C52.7508 190.725 52.4323 190.99 52.0353 191.187C51.6414 191.381 51.1828 191.478 50.6596 191.478ZM50.1425 191.293H51.0474L50.9735 191.662C51.2136 191.699 51.4336 191.799 51.6337 191.962C51.8337 192.129 51.9337 192.392 51.9337 192.752C51.9337 193.149 51.7691 193.472 51.4398 193.721C51.1135 193.974 50.6319 194.1 49.9948 194.1L49.9579 193.38C50.2441 193.38 50.4811 193.334 50.6688 193.241C50.8596 193.152 50.955 193.001 50.955 192.789C50.955 192.576 50.8766 192.432 50.7196 192.355C50.5626 192.278 50.3087 192.226 49.9579 192.198L50.1425 191.293ZM55.0406 191.33V184.239H56.1301V191.33H55.0406ZM59.1412 188.745L59.1227 187.397H59.3443L62.4466 184.239H63.7946L60.4892 187.581H60.3969L59.1412 188.745ZM58.1256 191.33V181.875H59.2151V191.33H58.1256ZM62.6313 191.33L59.8614 187.821L60.6369 187.064L64.0162 191.33H62.6313ZM66.2864 181.875V191.33H65.1969V181.875H66.2864ZM70.3685 191.496C69.9191 191.496 69.5113 191.412 69.1451 191.242C68.7789 191.07 68.488 190.822 68.2726 190.499C68.0572 190.173 67.9494 189.779 67.9494 189.317C67.9494 188.911 68.0295 188.582 68.1895 188.329C68.3495 188.074 68.5634 187.874 68.8312 187.729C69.0989 187.584 69.3944 187.477 69.7176 187.406C70.0438 187.332 70.3716 187.274 70.7009 187.231C71.1317 187.175 71.481 187.134 71.7488 187.106C72.0196 187.075 72.2166 187.024 72.3397 186.954C72.4659 186.883 72.529 186.76 72.529 186.584V186.547C72.529 186.092 72.4043 185.738 72.1551 185.485C71.9088 185.233 71.5349 185.107 71.0332 185.107C70.5131 185.107 70.1053 185.221 69.8099 185.449C69.5144 185.676 69.3067 185.919 69.1867 186.178L68.1526 185.809C68.3372 185.378 68.5834 185.042 68.8912 184.802C69.202 184.559 69.5406 184.39 69.9068 184.294C70.2761 184.196 70.6393 184.147 70.9963 184.147C71.2241 184.147 71.4857 184.174 71.7811 184.23C72.0796 184.282 72.3674 184.391 72.6444 184.558C72.9245 184.724 73.1568 184.975 73.3415 185.31C73.5261 185.646 73.6185 186.095 73.6185 186.658V191.33H72.529V190.37H72.4736C72.3997 190.524 72.2766 190.688 72.1043 190.864C71.9319 191.039 71.7026 191.188 71.4164 191.311C71.1302 191.435 70.7809 191.496 70.3685 191.496ZM70.5347 190.517C70.9655 190.517 71.3287 190.433 71.6242 190.264C71.9227 190.094 72.1474 189.876 72.2982 189.608C72.452 189.34 72.529 189.059 72.529 188.763V187.766C72.4828 187.821 72.3813 187.872 72.2243 187.918C72.0704 187.961 71.8919 188 71.6888 188.034C71.4887 188.065 71.2933 188.092 71.1025 188.117C70.9148 188.138 70.7624 188.157 70.6455 188.172C70.3623 188.209 70.0976 188.269 69.8514 188.352C69.6083 188.432 69.4113 188.554 69.2605 188.717C69.1128 188.877 69.0389 189.096 69.0389 189.373C69.0389 189.751 69.179 190.037 69.459 190.231C69.7422 190.422 70.1007 190.517 70.5347 190.517ZM75.607 191.33V184.239H76.6596V185.347H76.7519C76.8996 184.968 77.1382 184.675 77.4675 184.465C77.7968 184.253 78.1922 184.147 78.6539 184.147C79.1217 184.147 79.511 184.253 79.8219 184.465C80.1358 184.675 80.3805 184.968 80.5559 185.347H80.6297C80.8113 184.981 81.0837 184.69 81.4469 184.474C81.81 184.256 82.2455 184.147 82.7533 184.147C83.3873 184.147 83.9059 184.345 84.3091 184.742C84.7123 185.136 84.9138 185.75 84.9138 186.584V191.33H83.8244V186.584C83.8244 186.061 83.6812 185.687 83.395 185.462C83.1088 185.238 82.7718 185.125 82.384 185.125C81.8854 185.125 81.4992 185.276 81.2253 185.578C80.9514 185.876 80.8144 186.255 80.8144 186.713V191.33H79.7065V186.473C79.7065 186.07 79.5757 185.746 79.3141 185.499C79.0525 185.25 78.7155 185.125 78.303 185.125C78.0199 185.125 77.7552 185.201 77.509 185.352C77.2659 185.502 77.0689 185.712 76.9181 185.979C76.7704 186.244 76.6965 186.55 76.6965 186.898V191.33H75.607ZM88.9925 191.496C88.5432 191.496 88.1354 191.412 87.7691 191.242C87.4029 191.07 87.1121 190.822 86.8966 190.499C86.6812 190.173 86.5735 189.779 86.5735 189.317C86.5735 188.911 86.6535 188.582 86.8135 188.329C86.9736 188.074 87.1875 187.874 87.4552 187.729C87.723 187.584 88.0184 187.477 88.3416 187.406C88.6678 187.332 88.9956 187.274 89.3249 187.231C89.7558 187.175 90.1051 187.134 90.3728 187.106C90.6437 187.075 90.8406 187.024 90.9637 186.954C91.0899 186.883 91.153 186.76 91.153 186.584V186.547C91.153 186.092 91.0284 185.738 90.7791 185.485C90.5329 185.233 90.1589 185.107 89.6573 185.107C89.1371 185.107 88.7294 185.221 88.4339 185.449C88.1384 185.676 87.9307 185.919 87.8107 186.178L86.7766 185.809C86.9612 185.378 87.2075 185.042 87.5152 184.802C87.8261 184.559 88.1646 184.39 88.5309 184.294C88.9002 184.196 89.2633 184.147 89.6203 184.147C89.8481 184.147 90.1097 184.174 90.4051 184.23C90.7037 184.282 90.9914 184.391 91.2684 184.558C91.5485 184.724 91.7809 184.975 91.9655 185.31C92.1502 185.646 92.2425 186.095 92.2425 186.658V191.33H91.153V190.37H91.0976C91.0237 190.524 90.9006 190.688 90.7283 190.864C90.5559 191.039 90.3267 191.188 90.0404 191.311C89.7542 191.435 89.4049 191.496 88.9925 191.496ZM89.1587 190.517C89.5896 190.517 89.9527 190.433 90.2482 190.264C90.5467 190.094 90.7714 189.876 90.9222 189.608C91.0761 189.34 91.153 189.059 91.153 188.763V187.766C91.1068 187.821 91.0053 187.872 90.8483 187.918C90.6944 187.961 90.5159 188 90.3128 188.034C90.1128 188.065 89.9173 188.092 89.7265 188.117C89.5388 188.138 89.3864 188.157 89.2695 188.172C88.9863 188.209 88.7217 188.269 88.4755 188.352C88.2323 188.432 88.0353 188.554 87.8845 188.717C87.7368 188.877 87.663 189.096 87.663 189.373C87.663 189.751 87.803 190.037 88.0831 190.231C88.3662 190.422 88.7247 190.517 89.1587 190.517ZM95.3205 187.064V191.33H94.231V184.239H95.2836V185.347H95.3759C95.5421 184.987 95.7945 184.698 96.133 184.479C96.4716 184.258 96.9086 184.147 97.4441 184.147C97.9242 184.147 98.3443 184.245 98.7044 184.442C99.0645 184.636 99.3446 184.932 99.5446 185.329C99.7447 185.722 99.8447 186.221 99.8447 186.824V191.33H98.7552V186.898C98.7552 186.341 98.6105 185.907 98.3212 185.596C98.0319 185.282 97.6349 185.125 97.1302 185.125C96.7824 185.125 96.4716 185.201 96.1977 185.352C95.9268 185.502 95.7129 185.722 95.556 186.012C95.399 186.301 95.3205 186.652 95.3205 187.064ZM101.836 191.33V184.239H102.925V191.33H101.836ZM104.717 191.33V190.499L108.743 185.329V185.255H104.847V184.239H110.146V185.107L106.232 190.24V190.314H110.276V191.33H104.717ZM111.954 191.33V184.239H113.043V191.33H111.954ZM118.843 191.33V181.875H119.932V185.365H120.024C120.104 185.242 120.215 185.085 120.357 184.895C120.501 184.701 120.708 184.528 120.975 184.378C121.246 184.224 121.613 184.147 122.074 184.147C122.671 184.147 123.198 184.296 123.653 184.595C124.109 184.893 124.464 185.316 124.719 185.864C124.975 186.412 125.103 187.058 125.103 187.803C125.103 188.554 124.975 189.205 124.719 189.756C124.464 190.304 124.11 190.728 123.658 191.03C123.205 191.328 122.684 191.478 122.093 191.478C121.637 191.478 121.272 191.402 120.999 191.251C120.725 191.098 120.514 190.924 120.366 190.73C120.218 190.533 120.104 190.37 120.024 190.24H119.895V191.33H118.843ZM119.914 187.785C119.914 188.32 119.992 188.792 120.149 189.202C120.306 189.608 120.535 189.927 120.837 190.157C121.139 190.385 121.508 190.499 121.945 190.499C122.4 190.499 122.78 190.379 123.085 190.139C123.393 189.896 123.624 189.57 123.778 189.16C123.935 188.748 124.013 188.289 124.013 187.785C124.013 187.286 123.936 186.837 123.782 186.436C123.631 186.033 123.402 185.715 123.094 185.481C122.79 185.244 122.407 185.125 121.945 185.125C121.502 185.125 121.129 185.238 120.828 185.462C120.526 185.684 120.298 185.995 120.144 186.395C119.991 186.792 119.914 187.255 119.914 187.785ZM131.238 188.431V184.239H132.327V191.33H131.238V190.13H131.164C130.998 190.49 130.739 190.796 130.388 191.048C130.038 191.298 129.594 191.422 129.059 191.422C128.616 191.422 128.222 191.325 127.877 191.131C127.532 190.934 127.262 190.639 127.065 190.245C126.868 189.848 126.769 189.348 126.769 188.745V184.239H127.859V188.671C127.859 189.188 128.003 189.6 128.293 189.908C128.585 190.216 128.957 190.37 129.41 190.37C129.681 190.37 129.956 190.3 130.236 190.162C130.519 190.023 130.756 189.811 130.947 189.525C131.141 189.239 131.238 188.874 131.238 188.431ZM134.323 191.33V184.239H135.375V185.31H135.449C135.579 184.959 135.812 184.675 136.151 184.456C136.49 184.238 136.871 184.128 137.296 184.128C137.376 184.128 137.476 184.13 137.596 184.133C137.716 184.136 137.807 184.141 137.868 184.147V185.255C137.831 185.245 137.747 185.232 137.614 185.213C137.485 185.192 137.348 185.181 137.204 185.181C136.859 185.181 136.551 185.253 136.28 185.398C136.012 185.539 135.8 185.736 135.643 185.989C135.489 186.238 135.412 186.523 135.412 186.843V191.33H134.323ZM141.246 191.496C140.797 191.496 140.389 191.412 140.023 191.242C139.657 191.07 139.366 190.822 139.151 190.499C138.935 190.173 138.827 189.779 138.827 189.317C138.827 188.911 138.907 188.582 139.067 188.329C139.227 188.074 139.441 187.874 139.709 187.729C139.977 187.584 140.272 187.477 140.595 187.406C140.922 187.332 141.249 187.274 141.579 187.231C142.01 187.175 142.359 187.134 142.627 187.106C142.898 187.075 143.095 187.024 143.218 186.954C143.344 186.883 143.407 186.76 143.407 186.584V186.547C143.407 186.092 143.282 185.738 143.033 185.485C142.787 185.233 142.413 185.107 141.911 185.107C141.391 185.107 140.983 185.221 140.688 185.449C140.392 185.676 140.185 185.919 140.065 186.178L139.03 185.809C139.215 185.378 139.461 185.042 139.769 184.802C140.08 184.559 140.419 184.39 140.785 184.294C141.154 184.196 141.517 184.147 141.874 184.147C142.102 184.147 142.364 184.174 142.659 184.23C142.958 184.282 143.245 184.391 143.522 184.558C143.802 184.724 144.035 184.975 144.219 185.31C144.404 185.646 144.496 186.095 144.496 186.658V191.33H143.407V190.37H143.352C143.278 190.524 143.155 190.688 142.982 190.864C142.81 191.039 142.581 191.188 142.294 191.311C142.008 191.435 141.659 191.496 141.246 191.496ZM141.413 190.517C141.843 190.517 142.207 190.433 142.502 190.264C142.801 190.094 143.025 189.876 143.176 189.608C143.33 189.34 143.407 189.059 143.407 188.763V187.766C143.361 187.821 143.259 187.872 143.102 187.918C142.948 187.961 142.77 188 142.567 188.034C142.367 188.065 142.171 188.092 141.98 188.117C141.793 188.138 141.64 188.157 141.523 188.172C141.24 188.209 140.976 188.269 140.729 188.352C140.486 188.432 140.289 188.554 140.138 188.717C139.991 188.877 139.917 189.096 139.917 189.373C139.917 189.751 140.057 190.037 140.337 190.231C140.62 190.422 140.979 190.517 141.413 190.517ZM146.933 193.989C146.748 193.989 146.583 193.974 146.439 193.943C146.294 193.915 146.194 193.887 146.139 193.86L146.416 192.9C146.68 192.967 146.914 192.992 147.117 192.973C147.321 192.955 147.501 192.864 147.658 192.701C147.818 192.541 147.964 192.281 148.096 191.921L148.299 191.367L145.677 184.239H146.859L148.816 189.89H148.89L150.848 184.239H152.029L149.019 192.364C148.884 192.73 148.716 193.033 148.516 193.273C148.316 193.517 148.084 193.697 147.819 193.814C147.558 193.931 147.262 193.989 146.933 193.989ZM155.338 191.496C154.889 191.496 154.481 191.412 154.115 191.242C153.749 191.07 153.458 190.822 153.242 190.499C153.027 190.173 152.919 189.779 152.919 189.317C152.919 188.911 152.999 188.582 153.159 188.329C153.319 188.074 153.533 187.874 153.801 187.729C154.069 187.584 154.364 187.477 154.687 187.406C155.014 187.332 155.341 187.274 155.671 187.231C156.101 187.175 156.451 187.134 156.719 187.106C156.989 187.075 157.186 187.024 157.309 186.954C157.436 186.883 157.499 186.76 157.499 186.584V186.547C157.499 186.092 157.374 185.738 157.125 185.485C156.879 185.233 156.505 185.107 156.003 185.107C155.483 185.107 155.075 185.221 154.78 185.449C154.484 185.676 154.276 185.919 154.156 186.178L153.122 185.809C153.307 185.378 153.553 185.042 153.861 184.802C154.172 184.559 154.51 184.39 154.877 184.294C155.246 184.196 155.609 184.147 155.966 184.147C156.194 184.147 156.455 184.174 156.751 184.23C157.049 184.282 157.337 184.391 157.614 184.558C157.894 184.724 158.127 184.975 158.311 185.31C158.496 185.646 158.588 186.095 158.588 186.658V191.33H157.499V190.37H157.443C157.369 190.524 157.246 190.688 157.074 190.864C156.902 191.039 156.672 191.188 156.386 191.311C156.1 191.435 155.751 191.496 155.338 191.496ZM155.504 190.517C155.935 190.517 156.298 190.433 156.594 190.264C156.892 190.094 157.117 189.876 157.268 189.608C157.422 189.34 157.499 189.059 157.499 188.763V187.766C157.453 187.821 157.351 187.872 157.194 187.918C157.04 187.961 156.862 188 156.659 188.034C156.458 188.065 156.263 188.092 156.072 188.117C155.884 188.138 155.732 188.157 155.615 188.172C155.332 188.209 155.067 188.269 154.821 188.352C154.578 188.432 154.381 188.554 154.23 188.717C154.083 188.877 154.009 189.096 154.009 189.373C154.009 189.751 154.149 190.037 154.429 190.231C154.712 190.422 155.07 190.517 155.504 190.517ZM164.935 193.989C164.75 193.989 164.585 193.974 164.441 193.943C164.296 193.915 164.196 193.887 164.141 193.86L164.418 192.9C164.682 192.967 164.916 192.992 165.119 192.973C165.322 192.955 165.503 192.864 165.659 192.701C165.82 192.541 165.966 192.281 166.098 191.921L166.301 191.367L163.679 184.239H164.861L166.818 189.89H166.892L168.849 184.239H170.031L167.021 192.364C166.886 192.73 166.718 193.033 166.518 193.273C166.318 193.517 166.086 193.697 165.821 193.814C165.559 193.931 165.264 193.989 164.935 193.989ZM173.34 191.496C172.891 191.496 172.483 191.412 172.117 191.242C171.751 191.07 171.46 190.822 171.244 190.499C171.029 190.173 170.921 189.779 170.921 189.317C170.921 188.911 171.001 188.582 171.161 188.329C171.321 188.074 171.535 187.874 171.803 187.729C172.071 187.584 172.366 187.477 172.689 187.406C173.015 187.332 173.343 187.274 173.673 187.231C174.103 187.175 174.453 187.134 174.72 187.106C174.991 187.075 175.188 187.024 175.311 186.954C175.438 186.883 175.501 186.76 175.501 186.584V186.547C175.501 186.092 175.376 185.738 175.127 185.485C174.881 185.233 174.507 185.107 174.005 185.107C173.485 185.107 173.077 185.221 172.782 185.449C172.486 185.676 172.278 185.919 172.158 186.178L171.124 185.809C171.309 185.378 171.555 185.042 171.863 184.802C172.174 184.559 172.512 184.39 172.879 184.294C173.248 184.196 173.611 184.147 173.968 184.147C174.196 184.147 174.457 184.174 174.753 184.23C175.051 184.282 175.339 184.391 175.616 184.558C175.896 184.724 176.129 184.975 176.313 185.31C176.498 185.646 176.59 186.095 176.59 186.658V191.33H175.501V190.37H175.445C175.371 190.524 175.248 190.688 175.076 190.864C174.904 191.039 174.674 191.188 174.388 191.311C174.102 191.435 173.753 191.496 173.34 191.496ZM173.506 190.517C173.937 190.517 174.3 190.433 174.596 190.264C174.894 190.094 175.119 189.876 175.27 189.608C175.424 189.34 175.501 189.059 175.501 188.763V187.766C175.455 187.821 175.353 187.872 175.196 187.918C175.042 187.961 174.864 188 174.66 188.034C174.46 188.065 174.265 188.092 174.074 188.117C173.886 188.138 173.734 188.157 173.617 188.172C173.334 188.209 173.069 188.269 172.823 188.352C172.58 188.432 172.383 188.554 172.232 188.717C172.084 188.877 172.011 189.096 172.011 189.373C172.011 189.751 172.151 190.037 172.431 190.231C172.714 190.422 173.072 190.517 173.506 190.517ZM178.376 191.33V190.499L182.401 185.329V185.255H178.505V184.239H183.805V185.107L179.89 190.24V190.314H183.934V191.33H178.376ZM185.612 191.33V184.239H186.701V191.33H185.612ZM189.786 187.064V191.33H188.697V184.239H189.749V185.347H189.842C190.008 184.987 190.26 184.698 190.599 184.479C190.937 184.258 191.374 184.147 191.91 184.147C192.39 184.147 192.81 184.245 193.17 184.442C193.53 184.636 193.81 184.932 194.01 185.329C194.21 185.722 194.311 186.221 194.311 186.824V191.33H193.221V186.898C193.221 186.341 193.076 185.907 192.787 185.596C192.498 185.282 192.101 185.125 191.596 185.125C191.248 185.125 190.937 185.201 190.663 185.352C190.393 185.502 190.179 185.722 190.022 186.012C189.865 186.301 189.786 186.652 189.786 187.064ZM197.095 191.404C196.868 191.404 196.672 191.322 196.509 191.159C196.346 190.996 196.264 190.801 196.264 190.573C196.264 190.345 196.346 190.15 196.509 189.987C196.672 189.823 196.868 189.742 197.095 189.742C197.323 189.742 197.519 189.823 197.682 189.987C197.845 190.15 197.926 190.345 197.926 190.573C197.926 190.724 197.888 190.862 197.811 190.988C197.737 191.115 197.637 191.216 197.511 191.293C197.388 191.367 197.249 191.404 197.095 191.404Z" fill="#737373"/>
</g>
<path d="M33.1082 230.635C33.0388 230.417 32.9456 230.223 32.8284 230.05C32.7136 229.876 32.5761 229.728 32.4159 229.606C32.2557 229.481 32.0728 229.387 31.8672 229.322C31.6639 229.258 31.4404 229.225 31.1965 229.225C30.7828 229.225 30.4098 229.332 30.0775 229.545C29.7451 229.757 29.4821 230.07 29.2884 230.481C29.0971 230.89 29.0015 231.391 29.0015 231.984C29.0015 232.579 29.0983 233.082 29.292 233.494C29.4857 233.905 29.7511 234.217 30.0882 234.43C30.4254 234.642 30.8091 234.749 31.2395 234.749C31.6388 234.749 31.9867 234.668 32.2832 234.505C32.5821 234.342 32.8129 234.113 32.9755 233.816C33.1404 233.517 33.2229 233.166 33.2229 232.762L33.5099 232.816H31.4081V231.901H34.2953V232.737C34.2953 233.354 34.1638 233.889 33.9008 234.344C33.6402 234.796 33.2791 235.145 32.8176 235.391C32.3586 235.637 31.8325 235.76 31.2395 235.76C30.5748 235.76 29.9914 235.607 29.4892 235.301C28.9895 234.995 28.5998 234.561 28.32 233.999C28.0402 233.435 27.9004 232.765 27.9004 231.991C27.9004 231.405 27.9817 230.879 28.1442 230.413C28.3068 229.946 28.5352 229.551 28.8293 229.225C29.1258 228.898 29.4737 228.648 29.873 228.476C30.2747 228.301 30.7135 228.214 31.1893 228.214C31.5862 228.214 31.9557 228.273 32.2976 228.39C32.6419 228.507 32.948 228.673 33.2158 228.888C33.486 229.104 33.7095 229.359 33.8865 229.656C34.0634 229.95 34.183 230.276 34.2451 230.635H33.1082ZM35.9772 235.66V228.314H40.5825V229.269H37.0855V231.507H40.3422V232.457H37.0855V234.706H40.6255V235.66H35.9772ZM48.4387 230.703H47.3197C47.2767 230.464 47.1966 230.254 47.0794 230.072C46.9622 229.89 46.8188 229.736 46.649 229.609C46.4792 229.483 46.2891 229.387 46.0787 229.322C45.8707 229.258 45.6495 229.225 45.4152 229.225C44.992 229.225 44.613 229.332 44.2782 229.545C43.9459 229.757 43.6828 230.07 43.4892 230.481C43.2979 230.892 43.2022 231.394 43.2022 231.987C43.2022 232.585 43.2979 233.089 43.4892 233.501C43.6828 233.912 43.9471 234.223 44.2818 234.433C44.6166 234.644 44.9932 234.749 45.4116 234.749C45.6435 234.749 45.8635 234.718 46.0716 234.656C46.282 234.591 46.4721 234.497 46.6418 234.372C46.8116 234.248 46.9551 234.096 47.0722 233.917C47.1918 233.735 47.2743 233.527 47.3197 233.293L48.4387 233.296C48.379 233.657 48.263 233.99 48.0908 234.293C47.9211 234.595 47.7023 234.855 47.4345 235.075C47.1691 235.293 46.8654 235.461 46.5235 235.581C46.1815 235.701 45.8085 235.76 45.4044 235.76C44.7684 235.76 44.2017 235.61 43.7044 235.308C43.207 235.005 42.8149 234.571 42.5279 234.006C42.2434 233.442 42.1011 232.769 42.1011 231.987C42.1011 231.203 42.2446 230.53 42.5315 229.968C42.8185 229.404 43.2106 228.971 43.708 228.67C44.2053 228.366 44.7708 228.214 45.4044 228.214C45.7942 228.214 46.1576 228.27 46.4948 228.383C46.8343 228.493 47.1392 228.655 47.4094 228.87C47.6796 229.083 47.9031 229.344 48.0801 229.652C48.257 229.958 48.3766 230.309 48.4387 230.703ZM45.0278 235.671H45.7308L45.6734 235.965C45.8815 235.998 46.0632 236.082 46.2186 236.216C46.374 236.35 46.4517 236.552 46.4517 236.822C46.4541 237.145 46.3143 237.407 46.0321 237.607C45.7523 237.808 45.3471 237.909 44.8162 237.909L44.7947 237.31C45.0434 237.31 45.2442 237.274 45.3973 237.202C45.5527 237.13 45.6316 237.014 45.634 236.854C45.6364 236.694 45.5766 236.582 45.4547 236.517C45.3351 236.453 45.1438 236.407 44.8808 236.381L45.0278 235.671ZM50.0399 235.66V228.314H54.6452V229.269H51.1482V231.507H54.4049V232.457H51.1482V234.706H54.6882V235.66H50.0399ZM56.4006 235.66V228.314H59.0188C59.5879 228.314 60.0601 228.412 60.4355 228.609C60.8133 228.805 61.0955 229.076 61.282 229.423C61.4685 229.767 61.5617 230.165 61.5617 230.617C61.5617 231.067 61.4673 231.462 61.2784 231.804C61.0919 232.144 60.8097 232.408 60.4319 232.597C60.0565 232.786 59.5843 232.88 59.0152 232.88H57.0318V231.926H58.9148C59.2735 231.926 59.5652 231.875 59.7899 231.772C60.0171 231.669 60.1833 231.52 60.2885 231.324C60.3937 231.128 60.4463 230.892 60.4463 230.617C60.4463 230.34 60.3925 230.099 60.2849 229.896C60.1797 229.693 60.0135 229.538 59.7863 229.43C59.5616 229.32 59.2663 229.265 58.9004 229.265H57.5088V235.66H56.4006ZM60.0267 232.346L61.8415 235.66H60.579L58.8 232.346H60.0267ZM63.1853 235.66V228.314H64.2936V234.706H67.622V235.66H63.1853ZM70.2696 228.314V235.66H69.1613V228.314H70.2696ZM75.7485 228.314L77.7929 234.297H77.8754L79.9198 228.314H81.1177L78.4744 235.66H77.1939L74.5506 228.314H75.7485ZM82.4535 235.66V228.314H87.0587V229.269H83.5618V231.507H86.8184V232.457H83.5618V234.706H87.1018V235.66H82.4535ZM88.8141 235.66V228.314H91.4324C92.0015 228.314 92.4737 228.412 92.8491 228.609C93.2269 228.805 93.509 229.076 93.6956 229.423C93.8821 229.767 93.9753 230.165 93.9753 230.617C93.9753 231.067 93.8809 231.462 93.692 231.804C93.5055 232.144 93.2233 232.408 92.8455 232.597C92.4701 232.786 91.9979 232.88 91.4288 232.88H89.4454V231.926H91.3284C91.687 231.926 91.9787 231.875 92.2035 231.772C92.4307 231.669 92.5968 231.52 92.7021 231.324C92.8073 231.128 92.8599 230.892 92.8599 230.617C92.8599 230.34 92.8061 230.099 92.6985 229.896C92.5933 229.693 92.4271 229.538 92.1999 229.43C91.9752 229.32 91.6799 229.265 91.314 229.265H89.9224V235.66H88.8141ZM92.4402 232.346L94.2551 235.66H92.9926L91.2136 232.346H92.4402ZM96.7072 228.314V235.66H95.5989V228.314H96.7072ZM101.182 229.269V228.314H106.867V229.269H104.575V235.66H103.47V229.269H101.182ZM109.506 228.314V235.66H108.398V228.314H109.506ZM111.395 235.66V228.314H114.013C114.585 228.314 115.058 228.418 115.434 228.626C115.809 228.835 116.09 229.119 116.277 229.48C116.463 229.839 116.556 230.243 116.556 230.692C116.556 231.144 116.462 231.551 116.273 231.912C116.087 232.271 115.804 232.555 115.427 232.765C115.051 232.974 114.579 233.078 114.01 233.078H112.209V232.138H113.909C114.27 232.138 114.563 232.076 114.788 231.951C115.013 231.825 115.178 231.652 115.283 231.435C115.388 231.217 115.441 230.97 115.441 230.692C115.441 230.415 115.388 230.169 115.283 229.954C115.178 229.738 115.012 229.57 114.785 229.448C114.56 229.326 114.263 229.265 113.895 229.265H112.503V235.66H111.395ZM119.239 228.314V235.66H118.131V228.314H119.239Z" fill="#A1A1A1"/>
<rect x="25.3301" y="246.66" width="149.9" height="33.3333" rx="8" fill="white" fill-opacity="0.1"/>
<rect x="25.8301" y="247.16" width="148.9" height="32.3333" rx="7.5" stroke="white" stroke-opacity="0.2"/>
<path d="M67.7803 258.66V267.993" stroke="#C6D2FF" stroke-width="1.16667" stroke-linecap="round" stroke-linejoin="round"/>
<path d="M63.1138 260.41V259.243C63.1138 259.089 63.1752 258.94 63.2846 258.831C63.394 258.721 63.5424 258.66 63.6971 258.66H71.8638C72.0185 258.66 72.1669 258.721 72.2762 258.831C72.3856 258.94 72.4471 259.089 72.4471 259.243V260.41" stroke="#C6D2FF" stroke-width="1.16667" stroke-linecap="round" stroke-linejoin="round"/>
<path d="M66.0303 267.993H69.5303" stroke="#C6D2FF" stroke-width="1.16667" stroke-linecap="round" stroke-linejoin="round"/>
<path d="M86.8898 267.327H84.1587V258.89H86.9763C87.8029 258.89 88.5128 259.059 89.106 259.397C89.6992 259.732 90.1537 260.214 90.4695 260.843C90.788 261.469 90.9473 262.22 90.9473 263.096C90.9473 263.975 90.7867 264.73 90.4654 265.362C90.1468 265.993 89.6854 266.479 89.0813 266.82C88.4771 267.158 87.7466 267.327 86.8898 267.327ZM85.4316 266.214H86.8198C87.4624 266.214 87.9965 266.093 88.4222 265.852C88.8478 265.607 89.1664 265.255 89.3779 264.793C89.5893 264.329 89.695 263.763 89.695 263.096C89.695 262.434 89.5893 261.873 89.3779 261.411C89.1691 260.95 88.8575 260.6 88.4428 260.361C88.0281 260.122 87.5132 260.002 86.898 260.002H85.4316V266.214ZM96.4394 264.703V260.999H97.6752V267.327H96.4641V266.231H96.3982C96.2527 266.569 96.0192 266.85 95.6979 267.075C95.3794 267.298 94.9825 267.409 94.5074 267.409C94.101 267.409 93.7412 267.32 93.4282 267.141C93.1179 266.96 92.8734 266.692 92.6949 266.338C92.5192 265.984 92.4313 265.546 92.4313 265.024V260.999H93.663V264.876C93.663 265.307 93.7824 265.65 94.0214 265.905C94.2603 266.161 94.5706 266.288 94.9523 266.288C95.183 266.288 95.4123 266.231 95.6403 266.115C95.8709 266 96.0618 265.826 96.2128 265.592C96.3666 265.359 96.4421 265.062 96.4394 264.703ZM93.8525 260.007C93.6575 260.007 93.4872 259.935 93.3417 259.792C93.1961 259.647 93.1233 259.479 93.1233 259.29C93.1233 259.084 93.1961 258.912 93.3417 258.775C93.4872 258.638 93.6575 258.569 93.8525 258.569C94.0584 258.569 94.2301 258.638 94.3674 258.775C94.5074 258.912 94.5775 259.084 94.5775 259.29C94.5775 259.479 94.5074 259.647 94.3674 259.792C94.2301 259.935 94.0584 260.007 93.8525 260.007ZM96.2746 260.007C96.0796 260.007 95.9094 259.935 95.7638 259.792C95.6183 259.647 95.5455 259.479 95.5455 259.29C95.5455 259.084 95.6183 258.912 95.7638 258.775C95.9094 258.638 96.0796 258.569 96.2746 258.569C96.4806 258.569 96.6522 258.638 96.7895 258.775C96.9296 258.912 96.9996 259.084 96.9996 259.29C96.9996 259.479 96.9296 259.647 96.7895 259.792C96.6522 259.935 96.4806 260.007 96.2746 260.007ZM99.1983 267.327V266.482L102.626 262.128V262.07H99.3095V260.999H104.162V261.897L100.867 266.198V266.256H104.277V267.327H99.1983ZM108.899 258.89H110.444L113.13 265.448H113.229L115.915 258.89H117.459V267.327H116.248V261.222H116.17L113.682 267.314H112.677L110.189 261.218H110.11V267.327H108.899V258.89ZM121.938 267.454C121.315 267.454 120.778 267.321 120.327 267.055C119.88 266.786 119.534 266.408 119.289 265.922C119.048 265.433 118.927 264.86 118.927 264.204C118.927 263.556 119.048 262.985 119.289 262.49C119.534 261.996 119.874 261.61 120.311 261.333C120.75 261.056 121.264 260.917 121.851 260.917C122.208 260.917 122.555 260.976 122.89 261.094C123.225 261.212 123.525 261.397 123.792 261.65C124.058 261.903 124.268 262.231 124.422 262.635C124.576 263.036 124.653 263.523 124.653 264.097V264.534H119.623V263.611H123.446C123.446 263.287 123.38 263 123.248 262.75C123.116 262.497 122.931 262.298 122.692 262.153C122.456 262.007 122.178 261.934 121.86 261.934C121.514 261.934 121.212 262.019 120.953 262.19C120.698 262.357 120.5 262.577 120.36 262.849C120.223 263.118 120.154 263.41 120.154 263.726V264.447C120.154 264.87 120.228 265.23 120.377 265.526C120.528 265.823 120.738 266.05 121.007 266.206C121.276 266.36 121.591 266.437 121.95 266.437C122.184 266.437 122.397 266.404 122.589 266.338C122.781 266.269 122.947 266.168 123.087 266.033C123.227 265.899 123.334 265.732 123.409 265.535L124.574 265.745C124.481 266.088 124.313 266.389 124.072 266.647C123.833 266.902 123.532 267.101 123.17 267.244C122.81 267.384 122.399 267.454 121.938 267.454ZM128.973 260.999V261.988H125.517V260.999H128.973ZM126.443 259.483H127.675V265.469C127.675 265.708 127.711 265.888 127.782 266.008C127.854 266.126 127.946 266.207 128.058 266.251C128.174 266.293 128.299 266.313 128.433 266.313C128.532 266.313 128.618 266.306 128.693 266.293C128.767 266.279 128.824 266.268 128.866 266.26L129.088 267.277C129.017 267.305 128.915 267.332 128.783 267.359C128.651 267.39 128.487 267.406 128.289 267.409C127.965 267.414 127.663 267.357 127.383 267.236C127.103 267.115 126.876 266.928 126.703 266.676C126.53 266.423 126.443 266.106 126.443 265.724V259.483ZM130.335 267.327V260.999H131.567V267.327H130.335ZM130.957 260.023C130.743 260.023 130.559 259.952 130.405 259.809C130.254 259.663 130.179 259.49 130.179 259.29C130.179 259.087 130.254 258.914 130.405 258.771C130.559 258.625 130.743 258.552 130.957 258.552C131.171 258.552 131.354 258.625 131.505 258.771C131.659 258.914 131.736 259.087 131.736 259.29C131.736 259.49 131.659 259.663 131.505 259.809C131.354 259.952 131.171 260.023 130.957 260.023ZM134.456 263.57V267.327H133.224V260.999H134.406V262.029H134.484C134.63 261.694 134.858 261.425 135.168 261.222C135.481 261.018 135.875 260.917 136.35 260.917C136.782 260.917 137.159 261.008 137.483 261.189C137.807 261.367 138.059 261.634 138.237 261.988C138.416 262.342 138.505 262.78 138.505 263.302V267.327H137.273V263.45C137.273 262.992 137.154 262.633 136.915 262.375C136.676 262.114 136.348 261.984 135.93 261.984C135.645 261.984 135.391 262.046 135.168 262.169C134.949 262.293 134.774 262.474 134.645 262.713C134.519 262.949 134.456 263.235 134.456 263.57Z" fill="#C6D2FF"/>
<rect x="183.23" y="246.66" width="149.75" height="33.3333" rx="8" fill="white" fill-opacity="0.02"/>
<rect x="183.73" y="247.16" width="148.75" height="32.3333" rx="7.5" stroke="white" stroke-opacity="0.08"/>
<g clip-path="url(#clip1_1005_528)">
<path d="M239.443 260.41L234.198 263.751C234.02 263.854 233.818 263.908 233.612 263.908C233.407 263.908 233.204 263.854 233.026 263.751L227.776 260.41" stroke="#737373" stroke-width="1.16667" stroke-linecap="round" stroke-linejoin="round"/>
<path d="M238.276 258.66H228.943C228.299 258.66 227.776 259.182 227.776 259.827V266.827C227.776 267.471 228.299 267.993 228.943 267.993H238.276C238.921 267.993 239.443 267.471 239.443 266.827V259.827C239.443 259.182 238.921 258.66 238.276 258.66Z" stroke="#737373" stroke-width="1.16667" stroke-linecap="round" stroke-linejoin="round"/>
</g>
<path d="M249.751 267.327V259.545H254.63V260.555H250.925V262.926H254.375V263.933H250.925V266.316H254.675V267.327H249.751ZM259.546 262.942V263.93H256.095V262.942H259.546ZM261.151 267.327V259.545H263.925C264.53 259.545 265.032 259.655 265.429 259.875C265.827 260.096 266.125 260.397 266.322 260.78C266.52 261.16 266.619 261.588 266.619 262.064C266.619 262.543 266.519 262.973 266.318 263.356C266.121 263.736 265.822 264.037 265.422 264.26C265.024 264.481 264.524 264.591 263.921 264.591H262.013V263.595H263.814C264.197 263.595 264.507 263.529 264.745 263.398C264.984 263.263 265.158 263.081 265.27 262.85C265.381 262.62 265.437 262.358 265.437 262.064C265.437 261.77 265.381 261.509 265.27 261.281C265.158 261.053 264.982 260.875 264.742 260.745C264.503 260.616 264.189 260.552 263.799 260.552H262.325V267.327H261.151ZM270.289 267.444C269.742 267.444 269.265 267.319 268.857 267.068C268.449 266.817 268.132 266.467 267.907 266.016C267.681 265.565 267.569 265.038 267.569 264.435C267.569 263.83 267.681 263.3 267.907 262.847C268.132 262.393 268.449 262.041 268.857 261.79C269.265 261.54 269.742 261.414 270.289 261.414C270.836 261.414 271.314 261.54 271.722 261.79C272.13 262.041 272.446 262.393 272.672 262.847C272.897 263.3 273.01 263.83 273.01 264.435C273.01 265.038 272.897 265.565 272.672 266.016C272.446 266.467 272.13 266.817 271.722 267.068C271.314 267.319 270.836 267.444 270.289 267.444ZM270.293 266.491C270.648 266.491 270.941 266.397 271.175 266.209C271.408 266.022 271.58 265.772 271.691 265.461C271.805 265.149 271.862 264.806 271.862 264.431C271.862 264.059 271.805 263.717 271.691 263.405C271.58 263.091 271.408 262.839 271.175 262.649C270.941 262.459 270.648 262.364 270.293 262.364C269.936 262.364 269.639 262.459 269.404 262.649C269.171 262.839 268.997 263.091 268.883 263.405C268.772 263.717 268.716 264.059 268.716 264.431C268.716 264.806 268.772 265.149 268.883 265.461C268.997 265.772 269.171 266.022 269.404 266.209C269.639 266.397 269.936 266.491 270.293 266.491ZM278.651 262.915L277.622 263.097C277.579 262.966 277.51 262.84 277.417 262.721C277.325 262.602 277.201 262.505 277.044 262.429C276.887 262.353 276.691 262.315 276.455 262.315C276.133 262.315 275.865 262.387 275.65 262.531C275.434 262.673 275.327 262.857 275.327 263.082C275.327 263.277 275.399 263.434 275.543 263.553C275.688 263.672 275.921 263.77 276.242 263.846L277.17 264.059C277.707 264.183 278.107 264.374 278.37 264.633C278.634 264.891 278.765 265.227 278.765 265.639C278.765 265.989 278.664 266.301 278.461 266.574C278.261 266.845 277.981 267.058 277.622 267.213C277.265 267.367 276.85 267.444 276.379 267.444C275.726 267.444 275.192 267.305 274.78 267.026C274.367 266.745 274.113 266.346 274.02 265.829L275.118 265.662C275.186 265.949 275.327 266.165 275.539 266.312C275.752 266.456 276.03 266.529 276.372 266.529C276.744 266.529 277.042 266.451 277.265 266.297C277.487 266.14 277.599 265.949 277.599 265.723C277.599 265.541 277.531 265.387 277.394 265.263C277.259 265.139 277.053 265.045 276.774 264.982L275.786 264.766C275.242 264.641 274.839 264.444 274.578 264.173C274.32 263.902 274.191 263.558 274.191 263.143C274.191 262.799 274.287 262.497 274.479 262.239C274.672 261.98 274.938 261.779 275.277 261.635C275.617 261.488 276.006 261.414 276.444 261.414C277.075 261.414 277.571 261.551 277.933 261.825C278.296 262.096 278.535 262.459 278.651 262.915ZM282.739 261.49V262.402H279.551V261.49H282.739ZM280.406 260.092H281.542V265.613C281.542 265.833 281.575 265.999 281.641 266.111C281.707 266.22 281.792 266.294 281.895 266.335C282.002 266.373 282.117 266.392 282.241 266.392C282.332 266.392 282.412 266.385 282.481 266.373C282.549 266.36 282.602 266.35 282.64 266.342L282.845 267.281C282.779 267.306 282.686 267.332 282.564 267.357C282.443 267.385 282.291 267.4 282.108 267.403C281.809 267.408 281.531 267.354 281.272 267.243C281.014 267.131 280.805 266.959 280.645 266.726C280.486 266.493 280.406 266.201 280.406 265.848V260.092ZM285.694 267.456C285.324 267.456 284.99 267.387 284.691 267.251C284.392 267.111 284.155 266.91 283.981 266.646C283.808 266.383 283.722 266.06 283.722 265.677C283.722 265.348 283.785 265.077 283.912 264.864C284.039 264.652 284.21 264.483 284.425 264.359C284.64 264.235 284.881 264.141 285.147 264.078C285.413 264.014 285.684 263.966 285.96 263.933C286.31 263.893 286.593 263.86 286.811 263.835C287.029 263.807 287.187 263.762 287.286 263.702C287.385 263.641 287.434 263.542 287.434 263.405V263.379C287.434 263.047 287.341 262.79 287.153 262.607C286.968 262.425 286.692 262.334 286.325 262.334C285.942 262.334 285.641 262.419 285.421 262.588C285.203 262.755 285.052 262.942 284.968 263.147L283.901 262.904C284.027 262.549 284.212 262.263 284.455 262.045C284.701 261.825 284.984 261.665 285.303 261.566C285.622 261.465 285.958 261.414 286.31 261.414C286.543 261.414 286.79 261.442 287.051 261.498C287.314 261.551 287.56 261.65 287.788 261.794C288.018 261.939 288.207 262.145 288.354 262.414C288.501 262.679 288.574 263.025 288.574 263.451V267.327H287.465V266.529H287.419C287.346 266.676 287.236 266.82 287.089 266.962C286.942 267.104 286.753 267.221 286.523 267.315C286.292 267.409 286.016 267.456 285.694 267.456ZM285.941 266.544C286.255 266.544 286.524 266.482 286.747 266.358C286.972 266.233 287.143 266.071 287.26 265.871C287.379 265.669 287.438 265.452 287.438 265.221V264.469C287.398 264.51 287.319 264.548 287.203 264.583C287.089 264.616 286.958 264.645 286.811 264.671C286.664 264.693 286.521 264.715 286.382 264.735C286.243 264.753 286.126 264.768 286.032 264.781C285.812 264.809 285.611 264.855 285.428 264.921C285.248 264.987 285.104 265.082 284.995 265.206C284.889 265.328 284.835 265.49 284.835 265.693C284.835 265.974 284.939 266.187 285.147 266.331C285.355 266.473 285.619 266.544 285.941 266.544Z" fill="#737373"/>
<rect x="340.98" y="246.66" width="149.68" height="33.3333" rx="8" fill="white" fill-opacity="0.02"/>
<rect x="341.48" y="247.16" width="148.68" height="32.3333" rx="7.5" stroke="white" stroke-opacity="0.08"/>
<g clip-path="url(#clip2_1005_528)">
<path d="M392.888 265.991C393.009 266.046 393.145 266.059 393.273 266.027C393.402 265.995 393.516 265.92 393.596 265.814L393.803 265.543C393.912 265.398 394.053 265.281 394.215 265.2C394.377 265.119 394.555 265.076 394.736 265.076H396.486C396.796 265.076 397.092 265.199 397.311 265.418C397.53 265.637 397.653 265.934 397.653 266.243V267.993C397.653 268.303 397.53 268.599 397.311 268.818C397.092 269.037 396.796 269.16 396.486 269.16C393.702 269.16 391.031 268.054 389.062 266.084C387.093 264.115 385.986 261.445 385.986 258.66C385.986 258.35 386.109 258.054 386.328 257.835C386.547 257.616 386.844 257.493 387.153 257.493H388.903C389.212 257.493 389.509 257.616 389.728 257.835C389.947 258.054 390.07 258.35 390.07 258.66V260.41C390.07 260.591 390.027 260.77 389.946 260.932C389.865 261.094 389.748 261.234 389.603 261.343L389.33 261.548C389.223 261.63 389.147 261.746 389.116 261.877C389.085 262.008 389.101 262.146 389.16 262.267C389.957 263.886 391.268 265.196 392.888 265.991Z" stroke="#737373" stroke-width="1.16667" stroke-linecap="round" stroke-linejoin="round"/>
</g>
<path d="M407.645 260.302V259.254H413.893V260.302H411.374V267.327H410.16V260.302H407.645ZM416.91 267.449C416.314 267.449 415.8 267.321 415.369 267.066C414.941 266.809 414.61 266.448 414.376 265.982C414.144 265.515 414.029 264.967 414.029 264.339C414.029 263.719 414.144 263.172 414.376 262.699C414.61 262.226 414.935 261.857 415.353 261.591C415.774 261.326 416.265 261.193 416.827 261.193C417.169 261.193 417.5 261.25 417.821 261.363C418.141 261.476 418.429 261.653 418.684 261.895C418.939 262.137 419.14 262.451 419.287 262.837C419.434 263.221 419.508 263.687 419.508 264.236V264.654H414.695V263.771H418.353C418.353 263.461 418.29 263.186 418.164 262.947C418.038 262.705 417.86 262.515 417.632 262.376C417.406 262.236 417.14 262.167 416.835 262.167C416.504 262.167 416.215 262.248 415.968 262.411C415.724 262.571 415.535 262.782 415.401 263.042C415.269 263.299 415.203 263.579 415.203 263.881V264.571C415.203 264.976 415.274 265.32 415.416 265.604C415.561 265.888 415.762 266.105 416.019 266.254C416.277 266.402 416.578 266.475 416.922 266.475C417.145 266.475 417.349 266.444 417.533 266.381C417.717 266.315 417.876 266.218 418.01 266.089C418.144 265.96 418.246 265.801 418.317 265.612L419.433 265.813C419.344 266.141 419.183 266.429 418.952 266.676C418.723 266.921 418.436 267.111 418.089 267.248C417.745 267.382 417.352 267.449 416.91 267.449ZM421.994 259.254V267.327H420.816V259.254H421.994ZM426.189 267.449C425.593 267.449 425.079 267.321 424.648 267.066C424.22 266.809 423.888 266.448 423.655 265.982C423.423 265.515 423.308 264.967 423.308 264.339C423.308 263.719 423.423 263.172 423.655 262.699C423.888 262.226 424.214 261.857 424.632 261.591C425.053 261.326 425.544 261.193 426.106 261.193C426.448 261.193 426.779 261.25 427.1 261.363C427.42 261.476 427.708 261.653 427.963 261.895C428.218 262.137 428.419 262.451 428.566 262.837C428.713 263.221 428.787 263.687 428.787 264.236V264.654H423.974V263.771H427.632C427.632 263.461 427.569 263.186 427.443 262.947C427.316 262.705 427.139 262.515 426.91 262.376C426.684 262.236 426.419 262.167 426.114 262.167C425.783 262.167 425.494 262.248 425.247 262.411C425.003 262.571 424.813 262.782 424.679 263.042C424.548 263.299 424.482 263.579 424.482 263.881V264.571C424.482 264.976 424.553 265.32 424.695 265.604C424.84 265.888 425.041 266.105 425.298 266.254C425.556 266.402 425.857 266.475 426.201 266.475C426.424 266.475 426.628 266.444 426.812 266.381C426.996 266.315 427.155 266.218 427.289 266.089C427.423 265.96 427.525 265.801 427.596 265.612L428.712 265.813C428.623 266.141 428.462 266.429 428.231 266.676C428.002 266.921 427.715 267.111 427.368 267.248C427.023 267.382 426.631 267.449 426.189 267.449ZM432.976 261.272V262.218H429.554V261.272H432.976ZM430.493 267.327V260.57C430.493 260.192 430.575 259.878 430.741 259.628C430.906 259.376 431.126 259.188 431.399 259.065C431.672 258.938 431.969 258.875 432.29 258.875C432.527 258.875 432.729 258.895 432.897 258.935C433.065 258.971 433.19 259.005 433.272 259.037L432.996 259.991C432.94 259.975 432.869 259.957 432.783 259.936C432.696 259.912 432.591 259.9 432.467 259.9C432.181 259.9 431.976 259.971 431.852 260.113C431.732 260.255 431.671 260.46 431.671 260.728V267.327H430.493ZM436.504 267.449C435.936 267.449 435.441 267.319 435.018 267.058C434.595 266.798 434.266 266.434 434.032 265.967C433.798 265.499 433.681 264.952 433.681 264.327C433.681 263.699 433.798 263.15 434.032 262.679C434.266 262.209 434.595 261.844 435.018 261.583C435.441 261.323 435.936 261.193 436.504 261.193C437.071 261.193 437.567 261.323 437.99 261.583C438.413 261.844 438.741 262.209 438.975 262.679C439.209 263.15 439.326 263.699 439.326 264.327C439.326 264.952 439.209 265.499 438.975 265.967C438.741 266.434 438.413 266.798 437.99 267.058C437.567 267.319 437.071 267.449 436.504 267.449ZM436.508 266.459C436.876 266.459 437.18 266.362 437.422 266.168C437.664 265.973 437.843 265.714 437.958 265.391C438.077 265.068 438.136 264.712 438.136 264.323C438.136 263.937 438.077 263.582 437.958 263.259C437.843 262.933 437.664 262.671 437.422 262.474C437.18 262.277 436.876 262.179 436.508 262.179C436.137 262.179 435.83 262.277 435.585 262.474C435.344 262.671 435.164 262.933 435.045 263.259C434.93 263.582 434.872 263.937 434.872 264.323C434.872 264.712 434.93 265.068 435.045 265.391C435.164 265.714 435.344 265.973 435.585 266.168C435.83 266.362 436.137 266.459 436.508 266.459ZM441.82 263.732V267.327H440.642V261.272H441.773V262.257H441.848C441.987 261.937 442.205 261.679 442.502 261.485C442.802 261.29 443.179 261.193 443.633 261.193C444.046 261.193 444.407 261.28 444.717 261.453C445.027 261.624 445.268 261.879 445.439 262.218C445.61 262.557 445.695 262.976 445.695 263.475V267.327H444.516V263.617C444.516 263.178 444.402 262.836 444.173 262.589C443.945 262.339 443.631 262.214 443.231 262.214C442.958 262.214 442.715 262.273 442.502 262.391C442.292 262.51 442.125 262.683 442.002 262.912C441.881 263.138 441.82 263.411 441.82 263.732Z" fill="#737373"/>
<rect x="498.66" y="246.66" width="149.3" height="33.3333" rx="8" fill="white" fill-opacity="0.02"/>
<rect x="499.16" y="247.16" width="148.3" height="32.3333" rx="7.5" stroke="white" stroke-opacity="0.08"/>
<path d="M553.644 261.577H562.977" stroke="#737373" stroke-width="1.16667" stroke-linecap="round" stroke-linejoin="round"/>
<path d="M553.644 265.077H562.977" stroke="#737373" stroke-width="1.16667" stroke-linecap="round" stroke-linejoin="round"/>
<path d="M557.143 258.077L555.977 268.577" stroke="#737373" stroke-width="1.16667" stroke-linecap="round" stroke-linejoin="round"/>
<path d="M560.643 258.077L559.477 268.577" stroke="#737373" stroke-width="1.16667" stroke-linecap="round" stroke-linejoin="round"/>
<path d="M578.557 261.482C578.515 261.115 578.345 260.831 578.046 260.63C577.746 260.426 577.37 260.324 576.915 260.324C576.59 260.324 576.309 260.376 576.072 260.479C575.834 260.58 575.65 260.719 575.518 260.897C575.389 261.073 575.325 261.273 575.325 261.497C575.325 261.686 575.368 261.848 575.456 261.985C575.547 262.122 575.664 262.237 575.808 262.329C575.956 262.42 576.113 262.496 576.281 262.558C576.448 262.617 576.61 262.666 576.765 262.705L577.539 262.906C577.792 262.968 578.051 263.052 578.317 263.158C578.582 263.264 578.829 263.403 579.056 263.576C579.283 263.749 579.466 263.963 579.606 264.218C579.748 264.474 579.819 264.78 579.819 265.136C579.819 265.585 579.702 265.983 579.47 266.332C579.241 266.68 578.906 266.955 578.468 267.156C578.032 267.358 577.504 267.458 576.885 267.458C576.291 267.458 575.777 267.364 575.344 267.176C574.91 266.987 574.571 266.72 574.326 266.374C574.081 266.026 573.945 265.613 573.92 265.136H575.119C575.143 265.422 575.236 265.661 575.398 265.852C575.563 266.04 575.774 266.181 576.029 266.274C576.287 266.364 576.57 266.409 576.877 266.409C577.215 266.409 577.515 266.356 577.779 266.25C578.044 266.142 578.253 265.992 578.406 265.801C578.558 265.608 578.634 265.382 578.634 265.124C578.634 264.889 578.567 264.697 578.433 264.547C578.301 264.398 578.122 264.274 577.895 264.176C577.67 264.078 577.416 263.991 577.132 263.916L576.196 263.661C575.561 263.488 575.058 263.234 574.686 262.898C574.317 262.563 574.132 262.119 574.132 261.567C574.132 261.11 574.256 260.711 574.504 260.371C574.752 260.03 575.087 259.766 575.51 259.577C575.934 259.386 576.411 259.291 576.943 259.291C577.479 259.291 577.953 259.385 578.363 259.573C578.776 259.762 579.101 260.021 579.339 260.351C579.576 260.679 579.7 261.056 579.71 261.482H578.557ZM582.885 267.458C582.508 267.458 582.168 267.388 581.863 267.249C581.559 267.107 581.317 266.902 581.139 266.634C580.964 266.365 580.876 266.036 580.876 265.647C580.876 265.311 580.941 265.035 581.07 264.818C581.199 264.602 581.373 264.43 581.592 264.303C581.812 264.177 582.057 264.082 582.328 264.017C582.599 263.953 582.875 263.904 583.156 263.87C583.512 263.829 583.801 263.795 584.023 263.769C584.245 263.741 584.406 263.696 584.507 263.634C584.608 263.572 584.658 263.471 584.658 263.332V263.305C584.658 262.967 584.562 262.705 584.372 262.519C584.183 262.333 583.902 262.24 583.528 262.24C583.138 262.24 582.831 262.327 582.606 262.5C582.385 262.67 582.231 262.86 582.146 263.069L581.058 262.821C581.187 262.46 581.376 262.168 581.623 261.946C581.874 261.722 582.161 261.559 582.486 261.458C582.812 261.355 583.154 261.304 583.512 261.304C583.75 261.304 584.001 261.332 584.267 261.389C584.535 261.443 584.786 261.544 585.018 261.691C585.253 261.838 585.445 262.048 585.595 262.322C585.744 262.593 585.819 262.945 585.819 263.378V267.327H584.689V266.514H584.642C584.568 266.663 584.455 266.81 584.306 266.955C584.156 267.099 583.964 267.219 583.729 267.315C583.494 267.41 583.213 267.458 582.885 267.458ZM583.137 266.529C583.457 266.529 583.73 266.466 583.957 266.339C584.187 266.213 584.361 266.048 584.48 265.844C584.601 265.638 584.662 265.417 584.662 265.182V264.416C584.621 264.457 584.541 264.496 584.422 264.532C584.306 264.565 584.173 264.595 584.023 264.621C583.873 264.644 583.728 264.666 583.586 264.687C583.444 264.705 583.325 264.72 583.23 264.733C583.005 264.762 582.8 264.809 582.614 264.876C582.431 264.943 582.284 265.04 582.173 265.167C582.065 265.291 582.01 265.456 582.01 265.662C582.01 265.949 582.116 266.165 582.328 266.312C582.539 266.457 582.809 266.529 583.137 266.529ZM587.879 269.556C587.706 269.556 587.549 269.542 587.407 269.514C587.265 269.488 587.159 269.459 587.09 269.428L587.368 268.48C587.58 268.537 587.768 268.561 587.934 268.554C588.099 268.546 588.245 268.484 588.371 268.368C588.5 268.252 588.614 268.062 588.712 267.799L588.855 267.404L586.679 261.381H587.918L589.424 265.995H589.486L590.991 261.381H592.234L589.784 268.12C589.67 268.43 589.526 268.692 589.35 268.906C589.175 269.123 588.966 269.285 588.723 269.394C588.481 269.502 588.199 269.556 587.879 269.556ZM593.322 267.327V261.381H594.479V267.327H593.322Z" fill="#737373"/>
<defs>
<clipPath id="clip0_1005_528">
<rect width="596" height="16" fill="white" transform="translate(37.9966 178.33)"/>
</clipPath>
<clipPath id="clip1_1005_528">
<rect width="14" height="14" fill="white" transform="translate(226.61 256.327)"/>
</clipPath>
<clipPath id="clip2_1005_528">
<rect width="14" height="14" fill="white" transform="translate(384.82 256.327)"/>
</clipPath>
</defs>
</svg>
