<svg width="616" height="285" viewBox="0 0 616 285" fill="none" xmlns="http://www.w3.org/2000/svg">
<rect width="616" height="284.653" rx="12" fill="#171717"/>
<rect x="0.5" y="0.5" width="615" height="283.653" rx="11.5" stroke="white" stroke-opacity="0.1"/>
<rect x="13" y="14.1667" width="24" height="24" rx="6" fill="white" fill-opacity="0.05"/>
<rect x="13.5" y="14.6667" width="23" height="23" rx="5.5" stroke="white" stroke-opacity="0.1"/>
<path d="M25.0029 29.8533C24.7228 29.8533 24.4828 29.7548 24.2827 29.5578C24.0827 29.3608 23.9842 29.1208 23.9873 28.8376C23.9842 28.5607 24.0827 28.3237 24.2827 28.1267C24.4828 27.9297 24.7228 27.8313 25.0029 27.8313C25.2737 27.8313 25.5092 27.9297 25.7092 28.1267C25.9123 28.3237 26.0154 28.5607 26.0185 28.8376C26.0154 29.0254 25.9662 29.1962 25.8708 29.3501C25.7785 29.504 25.6553 29.6271 25.5015 29.7194C25.3507 29.8086 25.1845 29.8533 25.0029 29.8533Z" fill="#E5E5E5"/>
<g clip-path="url(#clip0_4_78)">
<path d="M50.0227 31.1667V21.8576H51.4273V26.3031H51.5409L55.4455 21.8576H57.2136L53.4591 26.0485L57.2273 31.1667H55.5364L52.5273 27.0076L51.4273 28.2712V31.1667H50.0227ZM58.8511 31.1667V24.1849H60.2102V31.1667H58.8511ZM67.2705 25.8894L66.0386 26.1076C65.9871 25.95 65.9053 25.8 65.7932 25.6576C65.6841 25.5152 65.5356 25.3985 65.3477 25.3076C65.1598 25.2167 64.925 25.1712 64.6432 25.1712C64.2583 25.1712 63.9371 25.2576 63.6795 25.4303C63.422 25.6 63.2932 25.8197 63.2932 26.0894C63.2932 26.3227 63.3795 26.5106 63.5523 26.6531C63.725 26.7955 64.0038 26.9121 64.3886 27.0031L65.4977 27.2576C66.1402 27.4061 66.6189 27.6349 66.9341 27.944C67.2492 28.2531 67.4068 28.6546 67.4068 29.1485C67.4068 29.5667 67.2856 29.9394 67.0432 30.2667C66.8038 30.5909 66.4689 30.8455 66.0386 31.0303C65.6114 31.2152 65.1159 31.3076 64.5523 31.3076C63.7705 31.3076 63.1326 31.1409 62.6386 30.8076C62.1447 30.4712 61.8417 29.994 61.7295 29.3758L63.0432 29.1758C63.125 29.5182 63.2932 29.7773 63.5477 29.9531C63.8023 30.1258 64.1341 30.2121 64.5432 30.2121C64.9886 30.2121 65.3447 30.1197 65.6114 29.9349C65.878 29.747 66.0114 29.5182 66.0114 29.2485C66.0114 29.0303 65.9295 28.847 65.7659 28.6985C65.6053 28.55 65.3583 28.4379 65.025 28.3621L63.8432 28.1031C63.1917 27.9546 62.7098 27.7182 62.3977 27.394C62.0886 27.0697 61.9341 26.6591 61.9341 26.1621C61.9341 25.75 62.0492 25.3894 62.2795 25.0803C62.5098 24.7712 62.828 24.5303 63.2341 24.3576C63.6402 24.1818 64.1053 24.094 64.6295 24.094C65.3841 24.094 65.978 24.2576 66.4114 24.5849C66.8447 24.9091 67.1311 25.344 67.2705 25.8894ZM70.933 31.3212C70.4905 31.3212 70.0905 31.2394 69.733 31.0758C69.3754 30.9091 69.092 30.6682 68.883 30.3531C68.6769 30.0379 68.5739 29.6515 68.5739 29.194C68.5739 28.8 68.6496 28.4758 68.8011 28.2212C68.9527 27.9667 69.1572 27.7652 69.4148 27.6167C69.6723 27.4682 69.9602 27.3561 70.2784 27.2803C70.5966 27.2046 70.9208 27.147 71.2511 27.1076C71.6693 27.0591 72.0087 27.0197 72.2693 26.9894C72.5299 26.9561 72.7193 26.9031 72.8375 26.8303C72.9557 26.7576 73.0148 26.6394 73.0148 26.4758V26.444C73.0148 26.047 72.9027 25.7394 72.6784 25.5212C72.4572 25.3031 72.1269 25.194 71.6875 25.194C71.2299 25.194 70.8693 25.2955 70.6057 25.4985C70.3451 25.6985 70.1648 25.9212 70.0648 26.1667L68.7875 25.8758C68.939 25.4515 69.1602 25.1091 69.4511 24.8485C69.7451 24.5849 70.083 24.394 70.4648 24.2758C70.8466 24.1546 71.2481 24.094 71.6693 24.094C71.9481 24.094 72.2436 24.1273 72.5557 24.194C72.8708 24.2576 73.1648 24.3758 73.4375 24.5485C73.7133 24.7212 73.939 24.9682 74.1148 25.2894C74.2905 25.6076 74.3784 26.0212 74.3784 26.5303V31.1667H73.0511V30.2121H72.9966C72.9087 30.3879 72.7769 30.5606 72.6011 30.7303C72.4254 30.9 72.1996 31.0409 71.9239 31.1531C71.6481 31.2652 71.3178 31.3212 70.933 31.3212ZM71.2284 30.2303C71.6042 30.2303 71.9254 30.1561 72.192 30.0076C72.4617 29.8591 72.6663 29.6652 72.8057 29.4258C72.9481 29.1834 73.0193 28.9243 73.0193 28.6485V27.7485C72.9708 27.797 72.8769 27.8424 72.7375 27.8849C72.6011 27.9243 72.4451 27.9591 72.2693 27.9894C72.0936 28.0167 71.9223 28.0424 71.7557 28.0667C71.589 28.0879 71.4496 28.1061 71.3375 28.1212C71.0739 28.1546 70.833 28.2106 70.6148 28.2894C70.3996 28.3682 70.2269 28.4818 70.0966 28.6303C69.9693 28.7758 69.9057 28.9697 69.9057 29.2121C69.9057 29.5485 70.0299 29.8031 70.2784 29.9758C70.5269 30.1455 70.8436 30.2303 71.2284 30.2303ZM78.967 21.8576H80.5625L82.9943 26.0894H83.0943L85.5261 21.8576H87.1216L83.7443 27.5121V31.1667H82.3443V27.5121L78.967 21.8576ZM89.308 31.3212C88.8655 31.3212 88.4655 31.2394 88.108 31.0758C87.7504 30.9091 87.467 30.6682 87.258 30.3531C87.0519 30.0379 86.9489 29.6515 86.9489 29.194C86.9489 28.8 87.0246 28.4758 87.1761 28.2212C87.3277 27.9667 87.5322 27.7652 87.7898 27.6167C88.0473 27.4682 88.3352 27.3561 88.6534 27.2803C88.9716 27.2046 89.2958 27.147 89.6261 27.1076C90.0443 27.0591 90.3837 27.0197 90.6443 26.9894C90.9049 26.9561 91.0943 26.9031 91.2125 26.8303C91.3307 26.7576 91.3898 26.6394 91.3898 26.4758V26.444C91.3898 26.047 91.2777 25.7394 91.0534 25.5212C90.8322 25.3031 90.5019 25.194 90.0625 25.194C89.6049 25.194 89.2443 25.2955 88.9807 25.4985C88.7201 25.6985 88.5398 25.9212 88.4398 26.1667L87.1625 25.8758C87.314 25.4515 87.5352 25.1091 87.8261 24.8485C88.1201 24.5849 88.458 24.394 88.8398 24.2758C89.2216 24.1546 89.6231 24.094 90.0443 24.094C90.3231 24.094 90.6186 24.1273 90.9307 24.194C91.2458 24.2576 91.5398 24.3758 91.8125 24.5485C92.0883 24.7212 92.314 24.9682 92.4898 25.2894C92.6655 25.6076 92.7534 26.0212 92.7534 26.5303V31.1667H91.4261V30.2121H91.3716C91.2837 30.3879 91.1519 30.5606 90.9761 30.7303C90.8004 30.9 90.5746 31.0409 90.2989 31.1531C90.0231 31.2652 89.6928 31.3212 89.308 31.3212ZM89.6034 30.2303C89.9792 30.2303 90.3004 30.1561 90.567 30.0076C90.8367 29.8591 91.0413 29.6652 91.1807 29.4258C91.3231 29.1834 91.3943 28.9243 91.3943 28.6485V27.7485C91.3458 27.797 91.2519 27.8424 91.1125 27.8849C90.9761 27.9243 90.8201 27.9591 90.6443 27.9894C90.4686 28.0167 90.2973 28.0424 90.1307 28.0667C89.964 28.0879 89.8246 28.1061 89.7125 28.1212C89.4489 28.1546 89.208 28.2106 88.9898 28.2894C88.7746 28.3682 88.6019 28.4818 88.4716 28.6303C88.3443 28.7758 88.2807 28.9697 88.2807 29.2121C88.2807 29.5485 88.4049 29.8031 88.6534 29.9758C88.9019 30.1455 89.2186 30.2303 89.6034 30.2303ZM95.9227 27.0212V31.1667H94.5636V24.1849H95.8682V25.3212H95.9545C96.1152 24.9515 96.3667 24.6546 96.7091 24.4303C97.0545 24.2061 97.4894 24.094 98.0136 24.094C98.4894 24.094 98.9061 24.194 99.2636 24.394C99.6212 24.5909 99.8985 24.8849 100.095 25.2758C100.292 25.6667 100.391 26.15 100.391 26.7258V31.1667H99.0318V26.8894C99.0318 26.3834 98.9 25.9879 98.6364 25.7031C98.3727 25.4152 98.0106 25.2712 97.55 25.2712C97.2349 25.2712 96.9545 25.3394 96.7091 25.4758C96.4667 25.6121 96.2742 25.8121 96.1318 26.0758C95.9924 26.3364 95.9227 26.6515 95.9227 27.0212ZM102.214 31.1667V24.1849H103.573V31.1667H102.214ZM108.66 24.1849V25.2758H104.847V24.1849H108.66ZM105.869 22.5121H107.228V29.1167C107.228 29.3803 107.268 29.5788 107.347 29.7121C107.425 29.8424 107.527 29.9318 107.651 29.9803C107.778 30.0258 107.916 30.0485 108.065 30.0485C108.174 30.0485 108.269 30.0409 108.351 30.0258C108.433 30.0106 108.497 29.9985 108.542 29.9894L108.787 31.1121C108.709 31.1424 108.597 31.1727 108.451 31.2031C108.306 31.2364 108.124 31.2546 107.906 31.2576C107.548 31.2637 107.215 31.2 106.906 31.0667C106.597 30.9334 106.347 30.7273 106.156 30.4485C105.965 30.1697 105.869 29.8197 105.869 29.3985V22.5121Z" fill="#E5E5E5"/>
</g>
<rect x="401.333" y="11" width="64.3333" height="30.3333" rx="8" fill="white" fill-opacity="0.05"/>
<rect x="401.833" y="11.5" width="63.3333" height="29.3333" rx="7.5" stroke="white" stroke-opacity="0.1"/>
<path d="M413.25 21.2917V27.7917" stroke="#A1A1A1" stroke-width="1.08333" stroke-linecap="round" stroke-linejoin="round"/>
<path d="M419.75 24.5417C420.647 24.5417 421.375 23.8141 421.375 22.9167C421.375 22.0192 420.647 21.2917 419.75 21.2917C418.852 21.2917 418.125 22.0192 418.125 22.9167C418.125 23.8141 418.852 24.5417 419.75 24.5417Z" stroke="#A1A1A1" stroke-width="1.08333" stroke-linecap="round" stroke-linejoin="round"/>
<path d="M413.25 31.0417C414.147 31.0417 414.875 30.3141 414.875 29.4167C414.875 28.5192 414.147 27.7917 413.25 27.7917C412.352 27.7917 411.625 28.5192 411.625 29.4167C411.625 30.3141 412.352 31.0417 413.25 31.0417Z" stroke="#A1A1A1" stroke-width="1.08333" stroke-linecap="round" stroke-linejoin="round"/>
<path d="M419.75 24.5417C419.75 25.8346 419.236 27.0746 418.322 27.9888C417.408 28.9031 416.168 29.4167 414.875 29.4167" stroke="#A1A1A1" stroke-width="1.08333" stroke-linecap="round" stroke-linejoin="round"/>
<path d="M430.155 29.6667V22.0303H431.307V25.677H431.4L434.603 22.0303H436.054L432.974 25.4682L436.065 29.6667H434.678L432.21 26.2549L431.307 27.2915V29.6667H430.155ZM439.03 29.7823C438.493 29.7823 438.025 29.6592 437.625 29.4131C437.224 29.167 436.914 28.8228 436.692 28.3803C436.471 27.9378 436.36 27.4208 436.36 26.8292C436.36 26.235 436.471 25.7155 436.692 25.2706C436.914 24.8256 437.224 24.4801 437.625 24.234C438.025 23.9879 438.493 23.8648 439.03 23.8648C439.567 23.8648 440.036 23.9879 440.436 24.234C440.836 24.4801 441.147 24.8256 441.368 25.2706C441.589 25.7155 441.7 26.235 441.7 26.8292C441.7 27.4208 441.589 27.9378 441.368 28.3803C441.147 28.8228 440.836 29.167 440.436 29.4131C440.036 29.6592 439.567 29.7823 439.03 29.7823ZM439.034 28.8464C439.382 28.8464 439.67 28.7544 439.899 28.5705C440.128 28.3865 440.297 28.1417 440.406 27.8359C440.518 27.5301 440.574 27.1933 440.574 26.8254C440.574 26.46 440.518 26.1244 440.406 25.8187C440.297 25.5104 440.128 25.2631 439.899 25.0767C439.67 24.8902 439.382 24.797 439.034 24.797C438.683 24.797 438.393 24.8902 438.161 25.0767C437.933 25.2631 437.762 25.5104 437.651 25.8187C437.541 26.1244 437.487 26.46 437.487 26.8254C437.487 27.1933 437.541 27.5301 437.651 27.8359C437.762 28.1417 437.933 28.3865 438.161 28.5705C438.393 28.7544 438.683 28.8464 439.034 28.8464ZM447.236 25.3377L446.226 25.5167C446.183 25.3874 446.116 25.2643 446.024 25.1475C445.935 25.0307 445.813 24.935 445.659 24.8604C445.505 24.7858 445.312 24.7485 445.081 24.7485C444.765 24.7485 444.502 24.8194 444.29 24.9611C444.079 25.1003 443.974 25.2805 443.974 25.5017C443.974 25.6931 444.044 25.8473 444.186 25.9641C444.328 26.0809 444.556 26.1766 444.872 26.2512L445.782 26.46C446.309 26.5818 446.702 26.7695 446.96 27.023C447.219 27.2766 447.348 27.606 447.348 28.0111C447.348 28.3542 447.249 28.6599 447.05 28.9284C446.853 29.1944 446.579 29.4032 446.226 29.5548C445.875 29.7065 445.469 29.7823 445.006 29.7823C444.365 29.7823 443.842 29.6456 443.437 29.3721C443.031 29.0962 442.783 28.7047 442.691 28.1976L443.768 28.0335C443.836 28.3144 443.974 28.5269 444.182 28.6711C444.391 28.8128 444.663 28.8837 444.999 28.8837C445.364 28.8837 445.656 28.8078 445.875 28.6562C446.094 28.5021 446.203 28.3144 446.203 28.0932C446.203 27.9142 446.136 27.7638 446.002 27.642C445.87 27.5202 445.668 27.4282 445.394 27.3661L444.425 27.1535C443.89 27.0317 443.495 26.8379 443.239 26.5719C442.985 26.3059 442.859 25.9691 442.859 25.5614C442.859 25.2233 442.953 24.9275 443.142 24.674C443.331 24.4204 443.592 24.2228 443.925 24.0811C444.258 23.9369 444.64 23.8648 445.07 23.8648C445.689 23.8648 446.176 23.9991 446.531 24.2675C446.887 24.5335 447.122 24.8902 447.236 25.3377ZM444.671 29.6369H445.402L445.342 29.9426C445.558 29.9774 445.747 30.0644 445.909 30.2036C446.07 30.3428 446.151 30.5529 446.151 30.8338C446.154 31.1694 446.008 31.4415 445.715 31.6504C445.424 31.8592 445.003 31.9636 444.451 31.9636L444.428 31.3409C444.687 31.3409 444.896 31.3036 445.055 31.229C445.216 31.1544 445.298 31.0339 445.301 30.8673C445.303 30.7008 445.241 30.5839 445.115 30.5168C444.99 30.4497 444.791 30.4025 444.518 30.3751L444.671 29.6369ZM452.202 27.2915V23.9394H453.32V29.6667H452.224V28.6749H452.165C452.033 28.9806 451.821 29.2354 451.531 29.4392C451.242 29.6406 450.883 29.7413 450.453 29.7413C450.085 29.7413 449.76 29.6605 449.476 29.4989C449.195 29.3348 448.974 29.0925 448.812 28.7718C448.653 28.4511 448.574 28.0546 448.574 27.5823V23.9394H449.689V27.4481C449.689 27.8384 449.797 28.1491 450.013 28.3803C450.229 28.6115 450.51 28.7271 450.856 28.7271C451.065 28.7271 451.272 28.6749 451.478 28.5705C451.687 28.466 451.86 28.3082 451.997 28.0969C452.136 27.8856 452.204 27.6171 452.202 27.2915ZM455.933 22.0303V29.6667H454.818V22.0303H455.933Z" fill="#A1A1A1"/>
<rect x="471.667" y="16.1667" width="1" height="20" fill="white" fill-opacity="0.1"/>
<rect x="478.667" y="11" width="124.333" height="30.3333" rx="8" fill="white" fill-opacity="0.05"/>
<rect x="479.167" y="11.5" width="123.333" height="29.3333" rx="7.5" stroke="white" stroke-opacity="0.1"/>
<rect x="481.333" y="13.6667" width="65" height="25" rx="8" fill="white" fill-opacity="0.1"/>
<path d="M497.016 25.9212C497.016 26.7113 496.873 27.3941 496.588 27.9695C496.302 28.545 495.911 28.9888 495.414 29.3009C494.916 29.613 494.348 29.7691 493.709 29.7691C493.07 29.7691 492.502 29.613 492.005 29.3009C491.507 28.9888 491.116 28.545 490.831 27.9695C490.545 27.3941 490.403 26.7113 490.403 25.9212C490.403 25.1312 490.545 24.4484 490.831 23.8729C491.116 23.2975 491.507 22.8537 492.005 22.5415C492.502 22.2294 493.07 22.0734 493.709 22.0734C494.348 22.0734 494.916 22.2294 495.414 22.5415C495.911 22.8537 496.302 23.2975 496.588 23.8729C496.873 24.4484 497.016 25.1312 497.016 25.9212ZM496.138 25.9212C496.138 25.2726 496.029 24.7252 495.812 24.2789C495.598 23.8327 495.306 23.495 494.938 23.2658C494.572 23.0365 494.163 22.9219 493.709 22.9219C493.256 22.9219 492.845 23.0365 492.477 23.2658C492.111 23.495 491.819 23.8327 491.602 24.2789C491.388 24.7252 491.281 25.2726 491.281 25.9212C491.281 26.5699 491.388 27.1173 491.602 27.5635C491.819 28.0098 492.111 28.3475 492.477 28.5767C492.845 28.8059 493.256 28.9205 493.709 28.9205C494.163 28.9205 494.572 28.8059 494.938 28.5767C495.306 28.3475 495.598 28.0098 495.812 27.5635C496.029 27.1173 496.138 26.5699 496.138 25.9212ZM498.424 31.7735V24.0485H499.258V24.941H499.36C499.424 24.8434 499.511 24.7191 499.624 24.5679C499.738 24.4143 499.902 24.2777 500.114 24.1582C500.328 24.0363 500.619 23.9754 500.984 23.9754C501.457 23.9754 501.874 24.0936 502.235 24.3301C502.596 24.5667 502.878 24.902 503.08 25.336C503.283 25.77 503.384 26.2821 503.384 26.8722C503.384 27.4672 503.283 27.9829 503.08 28.4194C502.878 28.8535 502.597 29.19 502.239 29.4289C501.88 29.6655 501.467 29.7837 500.999 29.7837C500.638 29.7837 500.349 29.724 500.132 29.6045C499.915 29.4826 499.748 29.3448 499.631 29.1912C499.514 29.0351 499.424 28.9059 499.36 28.8035H499.287V31.7735H498.424ZM499.273 26.8576C499.273 27.2819 499.335 27.6562 499.459 27.9805C499.583 28.3024 499.765 28.5548 500.004 28.7376C500.243 28.9181 500.536 29.0083 500.882 29.0083C501.243 29.0083 501.544 28.9132 501.785 28.723C502.029 28.5304 502.212 28.2719 502.334 27.9476C502.458 27.6208 502.521 27.2575 502.521 26.8576C502.521 26.4626 502.46 26.1066 502.338 25.7896C502.218 25.4701 502.037 25.2177 501.793 25.0324C501.551 24.8447 501.248 24.7508 500.882 24.7508C500.531 24.7508 500.236 24.8398 499.997 25.0178C499.758 25.1934 499.577 25.4396 499.455 25.7566C499.333 26.0712 499.273 26.4382 499.273 26.8576ZM508.68 25.3067L507.905 25.5262C507.856 25.397 507.784 25.2714 507.689 25.1495C507.596 25.0251 507.469 24.9227 507.308 24.8422C507.147 24.7618 506.941 24.7215 506.69 24.7215C506.346 24.7215 506.06 24.8008 505.831 24.9593C505.604 25.1153 505.491 25.3141 505.491 25.5555C505.491 25.77 505.569 25.9395 505.725 26.0639C505.881 26.1882 506.125 26.2919 506.456 26.3748L507.29 26.5796C507.792 26.7015 508.167 26.8881 508.413 27.1392C508.659 27.388 508.782 27.7086 508.782 28.1012C508.782 28.4231 508.69 28.7108 508.504 28.9644C508.322 29.218 508.066 29.418 507.736 29.5643C507.407 29.7106 507.024 29.7837 506.588 29.7837C506.015 29.7837 505.541 29.6594 505.165 29.4107C504.79 29.1619 504.552 28.7986 504.452 28.3207L505.271 28.1158C505.349 28.4182 505.497 28.645 505.714 28.7962C505.933 28.9473 506.22 29.0229 506.573 29.0229C506.976 29.0229 507.295 28.9376 507.532 28.7669C507.771 28.5938 507.89 28.3865 507.89 28.1451C507.89 27.95 507.822 27.7866 507.685 27.655C507.549 27.5209 507.339 27.4209 507.056 27.355L506.12 27.1356C505.605 27.0137 505.227 26.8247 504.986 26.5686C504.747 26.3102 504.627 25.9871 504.627 25.5994C504.627 25.2824 504.716 25.0019 504.894 24.7581C505.075 24.5142 505.32 24.3228 505.63 24.1838C505.942 24.0448 506.295 23.9754 506.69 23.9754C507.246 23.9754 507.683 24.0973 508 24.3411C508.319 24.585 508.546 24.9068 508.68 25.3067ZM510.082 29.6667V24.0485H510.945V29.6667H510.082ZM510.521 23.1121C510.353 23.1121 510.207 23.0548 510.086 22.9402C509.966 22.8256 509.906 22.6879 509.906 22.5269C509.906 22.366 509.966 22.2282 510.086 22.1136C510.207 21.999 510.353 21.9417 510.521 21.9417C510.689 21.9417 510.833 21.999 510.952 22.1136C511.074 22.2282 511.135 22.366 511.135 22.5269C511.135 22.6879 511.074 22.8256 510.952 22.9402C510.833 23.0548 510.689 23.1121 510.521 23.1121ZM513.082 31.7735C512.936 31.7735 512.805 31.7613 512.691 31.7369C512.576 31.715 512.497 31.693 512.453 31.6711L512.672 30.9103C512.882 30.9639 513.067 30.9834 513.228 30.9688C513.389 30.9542 513.532 30.8823 513.656 30.753C513.783 30.6262 513.899 30.4202 514.004 30.1349L514.165 29.6959L512.087 24.0485H513.024L514.574 28.5255H514.633L516.184 24.0485H517.12L514.735 30.486C514.628 30.7762 514.495 31.0164 514.337 31.2066C514.178 31.3992 513.994 31.5419 513.784 31.6345C513.577 31.7272 513.343 31.7735 513.082 31.7735ZM520.341 29.7837C519.834 29.7837 519.388 29.663 519.006 29.4216C518.625 29.1802 518.328 28.8425 518.113 28.4084C517.901 27.9744 517.795 27.4672 517.795 26.8869C517.795 26.3016 517.901 25.7908 518.113 25.3543C518.328 24.9178 518.625 24.5789 519.006 24.3375C519.388 24.0961 519.834 23.9754 520.341 23.9754C520.848 23.9754 521.292 24.0961 521.672 24.3375C522.055 24.5789 522.352 24.9178 522.565 25.3543C522.779 25.7908 522.886 26.3016 522.886 26.8869C522.886 27.4672 522.779 27.9744 522.565 28.4084C522.352 28.8425 522.055 29.1802 521.672 29.4216C521.292 29.663 520.848 29.7837 520.341 29.7837ZM520.341 29.0083C520.726 29.0083 521.043 28.9095 521.292 28.712C521.54 28.5145 521.725 28.2548 521.844 27.933C521.963 27.6111 522.023 27.2624 522.023 26.8869C522.023 26.5113 521.963 26.1614 521.844 25.8371C521.725 25.5128 521.54 25.2507 521.292 25.0507C521.043 24.8508 520.726 24.7508 520.341 24.7508C519.955 24.7508 519.638 24.8508 519.39 25.0507C519.141 25.2507 518.957 25.5128 518.837 25.8371C518.718 26.1614 518.658 26.5113 518.658 26.8869C518.658 27.2624 518.718 27.6111 518.837 27.933C518.957 28.2548 519.141 28.5145 519.39 28.712C519.638 28.9095 519.955 29.0083 520.341 29.0083ZM525.067 26.287V29.6667H524.204V24.0485H525.038V24.9263H525.111C525.243 24.641 525.443 24.4118 525.711 24.2387C525.979 24.0631 526.326 23.9754 526.75 23.9754C527.13 23.9754 527.463 24.0534 527.748 24.2094C528.034 24.3631 528.256 24.5972 528.414 24.9117C528.573 25.2238 528.652 25.6189 528.652 26.0968V29.6667H527.789V26.1553C527.789 25.714 527.674 25.3701 527.445 25.1239C527.216 24.8751 526.901 24.7508 526.501 24.7508C526.226 24.7508 525.979 24.8105 525.762 24.93C525.548 25.0495 525.378 25.2238 525.254 25.4531C525.13 25.6823 525.067 25.9602 525.067 26.287ZM532.585 29.7837C532.043 29.7837 531.576 29.6642 531.184 29.4253C530.794 29.1839 530.493 28.8474 530.28 28.4158C530.071 27.9817 529.966 27.477 529.966 26.9015C529.966 26.326 530.071 25.8188 530.28 25.3799C530.493 24.9385 530.788 24.5947 531.166 24.3484C531.546 24.0997 531.99 23.9754 532.497 23.9754C532.79 23.9754 533.079 24.0241 533.364 24.1217C533.649 24.2192 533.909 24.3777 534.143 24.5972C534.377 24.8142 534.564 25.1019 534.703 25.4604C534.842 25.8188 534.911 26.2602 534.911 26.7844V27.1502H530.58V26.404H534.033C534.033 26.087 533.97 25.8042 533.843 25.5555C533.719 25.3067 533.541 25.1104 533.309 24.9666C533.08 24.8227 532.809 24.7508 532.497 24.7508C532.153 24.7508 531.856 24.8361 531.605 25.0068C531.356 25.1751 531.164 25.3945 531.03 25.6652C530.896 25.9359 530.829 26.226 530.829 26.5357V27.0332C530.829 27.4575 530.902 27.8171 531.049 28.1122C531.197 28.4048 531.403 28.6279 531.667 28.7815C531.93 28.9327 532.236 29.0083 532.585 29.0083C532.812 29.0083 533.016 28.9766 533.199 28.9132C533.385 28.8474 533.544 28.7498 533.678 28.6206C533.813 28.4889 533.916 28.3255 533.989 28.1305L534.823 28.3646C534.735 28.6474 534.588 28.8961 534.381 29.1107C534.173 29.3229 533.917 29.4887 533.613 29.6082C533.308 29.7252 532.965 29.7837 532.585 29.7837ZM537.087 22.1758V29.6667H536.224V22.1758H537.087Z" fill="#F5F5F5"/>
<path d="M555.219 29.6667V28.9955L559.336 22.8506H555.175V22.0303H560.439V22.7015L556.323 28.8464H560.484V29.6667H555.219ZM564.243 29.786C563.726 29.786 563.272 29.663 562.882 29.4169C562.494 29.1708 562.191 28.8265 561.972 28.384C561.756 27.9415 561.648 27.4245 561.648 26.8329C561.648 26.2363 561.756 25.7155 561.972 25.2706C562.191 24.8256 562.494 24.4801 562.882 24.234C563.272 23.9879 563.726 23.8648 564.243 23.8648C564.76 23.8648 565.212 23.9879 565.6 24.234C565.99 24.4801 566.293 24.8256 566.51 25.2706C566.728 25.7155 566.838 26.2363 566.838 26.8329C566.838 27.4245 566.728 27.9415 566.51 28.384C566.293 28.8265 565.99 29.1708 565.6 29.4169C565.212 29.663 564.76 29.786 564.243 29.786ZM564.243 28.9955C564.635 28.9955 564.959 28.8948 565.212 28.6935C565.466 28.4921 565.653 28.2274 565.775 27.8993C565.897 27.5712 565.958 27.2157 565.958 26.8329C565.958 26.4501 565.897 26.0934 565.775 25.7627C565.653 25.4321 565.466 25.1649 565.212 24.9611C564.959 24.7572 564.635 24.6553 564.243 24.6553C563.85 24.6553 563.527 24.7572 563.273 24.9611C563.02 25.1649 562.832 25.4321 562.71 25.7627C562.588 26.0934 562.527 26.4501 562.527 26.8329C562.527 27.2157 562.588 27.5712 562.71 27.8993C562.832 28.2274 563.02 28.4921 563.273 28.6935C563.527 28.8948 563.85 28.9955 564.243 28.9955ZM568.181 29.6667V23.9394H569.031V24.8045H569.091C569.195 24.5211 569.384 24.2912 569.658 24.1147C569.931 23.9382 570.239 23.8499 570.582 23.8499C570.647 23.8499 570.728 23.8512 570.825 23.8537C570.922 23.8561 570.995 23.8599 571.045 23.8648V24.7597C571.015 24.7523 570.947 24.7411 570.84 24.7262C570.735 24.7088 570.625 24.7001 570.508 24.7001C570.229 24.7001 569.981 24.7585 569.762 24.8753C569.546 24.9897 569.374 25.1488 569.248 25.3526C569.123 25.5539 569.061 25.7839 569.061 26.0424V29.6667H568.181ZM575.697 27.3251V23.9394H576.577V29.6667H575.697V28.6972H575.638C575.503 28.9881 575.295 29.2354 575.011 29.4392C574.728 29.6406 574.37 29.7413 573.937 29.7413C573.579 29.7413 573.261 29.663 572.983 29.5064C572.704 29.3473 572.486 29.1086 572.327 28.7904C572.167 28.4698 572.088 28.0658 572.088 27.5786V23.9394H572.968V27.519C572.968 27.9366 573.085 28.2697 573.318 28.5182C573.554 28.7668 573.855 28.8911 574.221 28.8911C574.439 28.8911 574.662 28.8352 574.888 28.7233C575.117 28.6115 575.308 28.4399 575.462 28.2088C575.619 27.9776 575.697 27.683 575.697 27.3251ZM579.069 26.2214V29.6667H578.189V23.9394H579.039V24.8343H579.114C579.248 24.5435 579.452 24.3098 579.725 24.1333C579.999 23.9543 580.352 23.8648 580.784 23.8648C581.172 23.8648 581.511 23.9444 581.802 24.1035C582.093 24.2601 582.319 24.4987 582.481 24.8194C582.642 25.1376 582.723 25.5403 582.723 26.0275V29.6667H581.843V26.0871C581.843 25.6372 581.726 25.2867 581.493 25.0356C581.259 24.7821 580.938 24.6553 580.531 24.6553C580.25 24.6553 579.999 24.7162 579.777 24.838C579.559 24.9598 579.386 25.1376 579.259 25.3712C579.132 25.6049 579.069 25.8883 579.069 26.2214ZM585.211 22.0303V29.6667H584.331V22.0303H585.211ZM590.432 27.3251V23.9394H591.312V29.6667H590.432V28.6972H590.372C590.238 28.9881 590.029 29.2354 589.746 29.4392C589.463 29.6406 589.105 29.7413 588.672 29.7413C588.314 29.7413 587.996 29.663 587.718 29.5064C587.439 29.3473 587.22 29.1086 587.061 28.7904C586.902 28.4698 586.823 28.0658 586.823 27.5786V23.9394H587.703V27.519C587.703 27.9366 587.82 28.2697 588.053 28.5182C588.289 28.7668 588.59 28.8911 588.956 28.8911C589.174 28.8911 589.397 28.8352 589.623 28.7233C589.852 28.6115 590.043 28.4399 590.197 28.2088C590.354 27.9776 590.432 27.683 590.432 27.3251Z" fill="#D4D4D4"/>
<path d="M24.0039 74.3697C23.9641 74.0167 23.8001 73.7433 23.5117 73.5494C23.2234 73.353 22.8604 73.2548 22.4229 73.2548C22.1097 73.2548 21.8388 73.3045 21.6101 73.4039C21.3814 73.5009 21.2037 73.6351 21.0769 73.8066C20.9526 73.9757 20.8904 74.1683 20.8904 74.3846C20.8904 74.5661 20.9327 74.7227 21.0172 74.8544C21.1042 74.9862 21.2173 75.0968 21.3565 75.1863C21.4982 75.2733 21.6499 75.3466 21.8114 75.4062C21.973 75.4634 22.1284 75.5107 22.2775 75.5479L23.0233 75.7418C23.2669 75.8015 23.5167 75.8823 23.7727 75.9842C24.0288 76.0861 24.2662 76.2203 24.4849 76.3869C24.7037 76.5534 24.8801 76.7598 25.0144 77.0059C25.1511 77.252 25.2195 77.5465 25.2195 77.8896C25.2195 78.3221 25.1076 78.7061 24.8839 79.0417C24.6626 79.3773 24.3407 79.642 23.9181 79.8359C23.498 80.0298 22.9897 80.1268 22.3931 80.1268C21.8214 80.1268 21.3267 80.036 20.9091 79.8546C20.4915 79.6731 20.1646 79.4158 19.9284 79.0827C19.6923 78.7472 19.5618 78.3494 19.5369 77.8896H20.6928C20.7152 78.1655 20.8047 78.3954 20.9613 78.5794C21.1204 78.7608 21.323 78.8963 21.5691 78.9858C21.8176 79.0728 22.0898 79.1163 22.3857 79.1163C22.7113 79.1163 23.0009 79.0653 23.2544 78.9634C23.5105 78.859 23.7118 78.7148 23.8585 78.5309C24.0051 78.3445 24.0785 78.127 24.0785 77.8784C24.0785 77.6522 24.0138 77.467 23.8846 77.3228C23.7578 77.1786 23.585 77.0593 23.3663 76.9648C23.15 76.8704 22.9052 76.7871 22.6317 76.715L21.7294 76.4689C21.1179 76.3024 20.6332 76.0575 20.2752 75.7344C19.9197 75.4112 19.742 74.9837 19.742 74.4517C19.742 74.0117 19.8613 73.6277 20.1 73.2995C20.3386 72.9714 20.6618 72.7166 21.0694 72.5352C21.4771 72.3512 21.937 72.2592 22.449 72.2592C22.9661 72.2592 23.4222 72.35 23.8175 72.5314C24.2152 72.7129 24.5284 72.9627 24.7571 73.2809C24.9858 73.5966 25.1051 73.9595 25.1151 74.3697H24.0039ZM33.5046 76.1818C33.5046 76.9972 33.3555 77.6982 33.0572 78.2848C32.7589 78.869 32.35 79.3189 31.8304 79.6346C31.3134 79.9478 30.7255 80.1044 30.0668 80.1044C29.4055 80.1044 28.8152 79.9478 28.2956 79.6346C27.7786 79.3189 27.3709 78.8677 27.0726 78.2811C26.7743 77.6944 26.6252 76.9947 26.6252 76.1818C26.6252 75.3665 26.7743 74.6667 27.0726 74.0826C27.3709 73.4959 27.7786 73.046 28.2956 72.7328C28.8152 72.4171 29.4055 72.2592 30.0668 72.2592C30.7255 72.2592 31.3134 72.4171 31.8304 72.7328C32.35 73.046 32.7589 73.4959 33.0572 74.0826C33.3555 74.6667 33.5046 75.3665 33.5046 76.1818ZM32.3636 76.1818C32.3636 75.5604 32.263 75.0371 32.0616 74.612C31.8628 74.1845 31.5893 73.8613 31.2413 73.6426C30.8958 73.4213 30.5043 73.3107 30.0668 73.3107C29.6268 73.3107 29.234 73.4213 28.8885 73.6426C28.543 73.8613 28.2695 74.1845 28.0682 74.612C27.8693 75.0371 27.7699 75.5604 27.7699 76.1818C27.7699 76.8033 27.8693 77.3278 28.0682 77.7553C28.2695 78.1804 28.543 78.5036 28.8885 78.7248C29.234 78.9435 29.6268 79.0529 30.0668 79.0529C30.5043 79.0529 30.8958 78.9435 31.2413 78.7248C31.5893 78.5036 31.8628 78.1804 32.0616 77.7553C32.263 77.3278 32.3636 76.8033 32.3636 76.1818ZM35.2161 80V72.3636H37.9381C38.5297 72.3636 39.0206 72.4656 39.4109 72.6694C39.8036 72.8732 40.097 73.1554 40.2909 73.5158C40.4847 73.8738 40.5817 74.2876 40.5817 74.7575C40.5817 75.2248 40.4835 75.6362 40.2871 75.9917C40.0932 76.3446 39.7999 76.6193 39.4072 76.8157C39.0169 77.0121 38.5259 77.1103 37.9343 77.1103H35.8724V76.1184H37.8299C38.2028 76.1184 38.5061 76.065 38.7397 75.9581C38.9759 75.8512 39.1486 75.6958 39.258 75.492C39.3674 75.2882 39.4221 75.0433 39.4221 74.7575C39.4221 74.4691 39.3661 74.2193 39.2543 74.008C39.1449 73.7967 38.9721 73.6351 38.736 73.5233C38.5023 73.4089 38.1953 73.3517 37.815 73.3517H36.3683V80H35.2161ZM38.9858 76.5547L40.8725 80H39.56L37.7106 76.5547H38.9858ZM47.1694 72.3636H48.3253V77.3862C48.3253 77.9206 48.1997 78.3942 47.9487 78.8068C47.6976 79.217 47.3446 79.5401 46.8897 79.7763C46.4348 80.0099 45.9016 80.1268 45.2901 80.1268C44.6811 80.1268 44.1491 80.0099 43.6942 79.7763C43.2393 79.5401 42.8863 79.217 42.6353 78.8068C42.3842 78.3942 42.2587 77.9206 42.2587 77.3862V72.3636H43.4108V77.293C43.4108 77.6385 43.4867 77.9455 43.6383 78.214C43.7924 78.4824 44.0099 78.6937 44.2908 78.8478C44.5717 78.9995 44.9048 79.0753 45.2901 79.0753C45.6779 79.0753 46.0122 78.9995 46.2931 78.8478C46.5765 78.6937 46.7928 78.4824 46.9419 78.214C47.0936 77.9455 47.1694 77.6385 47.1694 77.293V72.3636ZM53.3292 72.3636H54.7275L57.1586 78.2997H57.248L59.6792 72.3636H61.0774V80H59.9812V74.4741H59.9103L57.6582 79.9888H56.7484L54.4963 74.4703H54.4254V80H53.3292V72.3636ZM63.0275 80V72.3636H67.8152V73.3555H64.1797V75.6822H67.5654V76.6703H64.1797V79.0082H67.8599V80H63.0275ZM69.2526 73.3555V72.3636H75.1626V73.3555H72.7799V80H71.6315V73.3555H69.2526ZM82.9071 72.3636V80H81.8481L77.9666 74.3995H77.8957V80H76.7435V72.3636H77.81L81.6953 77.9716H81.7661V72.3636H82.9071ZM86.0149 72.3636V80H84.8628V72.3636H86.0149Z" fill="#A1A1A1"/>
<rect x="17" y="91" width="582" height="34.66" rx="8" fill="#171717" fill-opacity="0.6"/>
<rect x="17.5" y="91.5" width="581" height="33.66" rx="7.5" stroke="white" stroke-opacity="0.1"/>
<g clip-path="url(#clip1_4_78)">
<path d="M35.982 106.239C35.9266 105.771 35.702 105.408 35.308 105.15C34.9141 104.891 34.4309 104.762 33.8584 104.762C33.4399 104.762 33.0736 104.83 32.7597 104.965C32.4489 105.1 32.2057 105.287 32.0303 105.524C31.858 105.761 31.7718 106.03 31.7718 106.331C31.7718 106.584 31.8318 106.801 31.9518 106.982C32.0749 107.161 32.2319 107.31 32.4227 107.43C32.6135 107.547 32.8136 107.644 33.0229 107.721C33.2321 107.795 33.4245 107.855 33.5999 107.901L34.5602 108.16C34.8064 108.224 35.0803 108.313 35.3819 108.427C35.6866 108.541 35.9774 108.697 36.2544 108.894C36.5345 109.087 36.7653 109.337 36.9469 109.641C37.1285 109.946 37.2192 110.32 37.2192 110.763C37.2192 111.274 37.0854 111.736 36.8176 112.148C36.5529 112.561 36.1651 112.888 35.6543 113.132C35.1464 113.375 34.5294 113.496 33.8031 113.496C33.126 113.496 32.5397 113.387 32.0442 113.168C31.5517 112.95 31.164 112.645 30.8808 112.254C30.6008 111.864 30.4423 111.41 30.4053 110.893H31.5871C31.6179 111.25 31.7379 111.545 31.9472 111.779C32.1596 112.01 32.4273 112.182 32.7505 112.296C33.0767 112.407 33.4276 112.462 33.8031 112.462C34.2401 112.462 34.6325 112.391 34.9803 112.25C35.328 112.105 35.6035 111.905 35.8066 111.65C36.0097 111.391 36.1113 111.089 36.1113 110.745C36.1113 110.431 36.0236 110.175 35.8482 109.978C35.6727 109.781 35.4419 109.621 35.1557 109.498C34.8695 109.375 34.5602 109.268 34.2278 109.175L33.0644 108.843C32.3258 108.63 31.741 108.327 31.3102 107.933C30.8793 107.539 30.6638 107.024 30.6638 106.387C30.6638 105.857 30.807 105.396 31.0932 105.002C31.3825 104.605 31.7703 104.297 32.2565 104.079C32.7459 103.857 33.2922 103.746 33.8954 103.746C34.5048 103.746 35.0464 103.855 35.5204 104.074C35.9943 104.289 36.3698 104.585 36.6468 104.96C36.9269 105.336 37.0746 105.762 37.09 106.239H35.982ZM41.8346 113.478C41.1944 113.478 40.6327 113.325 40.1496 113.021C39.6694 112.716 39.294 112.29 39.0231 111.742C38.7554 111.194 38.6215 110.554 38.6215 109.821C38.6215 109.083 38.7554 108.438 39.0231 107.887C39.294 107.336 39.6694 106.908 40.1496 106.604C40.6327 106.299 41.1944 106.147 41.8346 106.147C42.4747 106.147 43.0349 106.299 43.515 106.604C43.9982 106.908 44.3736 107.336 44.6414 107.887C44.9122 108.438 45.0476 109.083 45.0476 109.821C45.0476 110.554 44.9122 111.194 44.6414 111.742C44.3736 112.29 43.9982 112.716 43.515 113.021C43.0349 113.325 42.4747 113.478 41.8346 113.478ZM41.8346 112.499C42.3208 112.499 42.7209 112.374 43.0349 112.125C43.3488 111.876 43.5811 111.548 43.7319 111.142C43.8827 110.736 43.9581 110.295 43.9581 109.821C43.9581 109.348 43.8827 108.906 43.7319 108.497C43.5811 108.087 43.3488 107.756 43.0349 107.504C42.7209 107.252 42.3208 107.125 41.8346 107.125C41.3483 107.125 40.9482 107.252 40.6343 107.504C40.3204 107.756 40.088 108.087 39.9372 108.497C39.7864 108.906 39.711 109.348 39.711 109.821C39.711 110.295 39.7864 110.736 39.9372 111.142C40.088 111.548 40.3204 111.876 40.6343 112.125C40.9482 112.374 41.3483 112.499 41.8346 112.499ZM46.7107 113.33V106.239H47.7633V107.31H47.8371C47.9664 106.959 48.2003 106.675 48.5388 106.456C48.8774 106.238 49.259 106.128 49.6837 106.128C49.7638 106.128 49.8638 106.13 49.9838 106.133C50.1038 106.136 50.1946 106.141 50.2562 106.147V107.255C50.2192 107.245 50.1346 107.232 50.0023 107.213C49.873 107.192 49.7361 107.181 49.5914 107.181C49.2467 107.181 48.9389 107.253 48.6681 107.398C48.4004 107.539 48.188 107.736 48.031 107.989C47.8772 108.238 47.8002 108.523 47.8002 108.843V113.33H46.7107ZM56.0164 110.431V106.239H57.1059V113.33H56.0164V112.13H55.9425C55.7763 112.49 55.5178 112.796 55.167 113.048C54.8161 113.298 54.3729 113.422 53.8374 113.422C53.3942 113.422 53.0003 113.325 52.6556 113.132C52.3109 112.935 52.0401 112.639 51.8431 112.245C51.6461 111.848 51.5476 111.348 51.5476 110.745V106.239H52.6371V110.671C52.6371 111.188 52.7818 111.6 53.0711 111.908C53.3634 112.216 53.7358 112.37 54.1883 112.37C54.4591 112.37 54.7345 112.301 55.0146 112.162C55.2978 112.024 55.5347 111.811 55.7255 111.525C55.9194 111.239 56.0164 110.874 56.0164 110.431ZM60.1908 109.064V113.33H59.1013V106.239H60.1539V107.347H60.2462C60.4124 106.987 60.6648 106.698 61.0033 106.479C61.3419 106.258 61.7789 106.147 62.3144 106.147C62.7945 106.147 63.2146 106.245 63.5747 106.442C63.9348 106.636 64.2149 106.932 64.4149 107.329C64.615 107.723 64.715 108.221 64.715 108.824V113.33H63.6255V108.898C63.6255 108.341 63.4808 107.907 63.1915 107.596C62.9022 107.282 62.5052 107.125 62.0005 107.125C61.6527 107.125 61.3419 107.201 61.068 107.352C60.7971 107.502 60.5832 107.723 60.4263 108.012C60.2693 108.301 60.1908 108.652 60.1908 109.064ZM71.1746 110.431V106.239H72.2641V113.33H71.1746V112.13H71.1007C70.9345 112.49 70.676 112.796 70.3252 113.048C69.9743 113.298 69.5311 113.422 68.9956 113.422C68.5524 113.422 68.1585 113.325 67.8138 113.132C67.4691 112.935 67.1983 112.639 67.0013 112.245C66.8043 111.848 66.7058 111.348 66.7058 110.745V106.239H67.7953V110.671C67.7953 111.188 67.94 111.6 68.2293 111.908C68.5217 112.216 68.894 112.37 69.3465 112.37C69.6173 112.37 69.8927 112.301 70.1728 112.162C70.456 112.024 70.6929 111.811 70.8838 111.525C71.0776 111.239 71.1746 110.874 71.1746 110.431ZM74.0564 113.33V112.499L78.082 107.329V107.255H74.1857V106.239H79.4854V107.107L75.5706 112.241V112.314H79.6147V113.33H74.0564ZM85.7615 110.431V106.239H86.851V113.33H85.7615V112.13H85.6876C85.5214 112.49 85.2629 112.796 84.9121 113.048C84.5612 113.298 84.118 113.422 83.5825 113.422C83.1393 113.422 82.7454 113.325 82.4007 113.132C82.056 112.935 81.7852 112.639 81.5882 112.245C81.3912 111.848 81.2928 111.348 81.2928 110.745V106.239H82.3822V110.671C82.3822 111.188 82.5269 111.6 82.8162 111.908C83.1086 112.216 83.481 112.37 83.9334 112.37C84.2042 112.37 84.4797 112.301 84.7597 112.162C85.0429 112.024 85.2798 111.811 85.4707 111.525C85.6646 111.239 85.7615 110.874 85.7615 110.431ZM92.6504 113.33V103.875H93.7399V107.366H93.8323C93.9123 107.242 94.0231 107.085 94.1646 106.895C94.3093 106.701 94.5155 106.528 94.7833 106.378C95.0541 106.224 95.4203 106.147 95.882 106.147C96.479 106.147 97.0053 106.296 97.4608 106.595C97.9163 106.893 98.2718 107.316 98.5272 107.864C98.7827 108.412 98.9104 109.058 98.9104 109.803C98.9104 110.554 98.7827 111.205 98.5272 111.756C98.2718 112.304 97.9178 112.728 97.4654 113.03C97.013 113.328 96.4913 113.478 95.9004 113.478C95.4449 113.478 95.0802 113.402 94.8063 113.252C94.5324 113.098 94.3216 112.924 94.1739 112.73C94.0262 112.533 93.9123 112.37 93.8323 112.241H93.703V113.33H92.6504ZM93.7215 109.785C93.7215 110.32 93.7999 110.792 93.9569 111.202C94.1139 111.608 94.3431 111.927 94.6448 112.157C94.9464 112.385 95.3157 112.499 95.7527 112.499C96.2082 112.499 96.5883 112.379 96.893 112.139C97.2007 111.896 97.4316 111.57 97.5855 111.16C97.7424 110.748 97.8209 110.289 97.8209 109.785C97.8209 109.286 97.744 108.837 97.5901 108.437C97.4393 108.033 97.21 107.715 96.9022 107.481C96.5975 107.244 96.2144 107.125 95.7527 107.125C95.3095 107.125 94.9371 107.238 94.6355 107.462C94.3339 107.684 94.1062 107.995 93.9523 108.395C93.7984 108.792 93.7215 109.255 93.7215 109.785ZM105.046 110.431V106.239H106.135V113.33H105.046V112.13H104.972C104.806 112.49 104.547 112.796 104.196 113.048C103.845 113.298 103.402 113.422 102.867 113.422C102.424 113.422 102.03 113.325 101.685 113.132C101.34 112.935 101.069 112.639 100.872 112.245C100.675 111.848 100.577 111.348 100.577 110.745V106.239H101.666V110.671C101.666 111.188 101.811 111.6 102.1 111.908C102.393 112.216 102.765 112.37 103.218 112.37C103.488 112.37 103.764 112.301 104.044 112.162C104.327 112.024 104.564 111.811 104.755 111.525C104.949 111.239 105.046 110.874 105.046 110.431ZM108.131 113.33V106.239H109.183V107.31H109.257C109.386 106.959 109.62 106.675 109.959 106.456C110.297 106.238 110.679 106.128 111.104 106.128C111.184 106.128 111.284 106.13 111.404 106.133C111.524 106.136 111.615 106.141 111.676 106.147V107.255C111.639 107.245 111.555 107.232 111.422 107.213C111.293 107.192 111.156 107.181 111.011 107.181C110.667 107.181 110.359 107.253 110.088 107.398C109.82 107.539 109.608 107.736 109.451 107.989C109.297 108.238 109.22 108.523 109.22 108.843V113.33H108.131ZM115.054 113.496C114.605 113.496 114.197 113.412 113.831 113.242C113.465 113.07 113.174 112.822 112.958 112.499C112.743 112.173 112.635 111.779 112.635 111.317C112.635 110.911 112.715 110.582 112.875 110.329C113.035 110.074 113.249 109.874 113.517 109.729C113.785 109.585 114.08 109.477 114.403 109.406C114.73 109.332 115.057 109.274 115.387 109.231C115.817 109.175 116.167 109.134 116.435 109.106C116.705 109.075 116.902 109.024 117.025 108.954C117.152 108.883 117.215 108.76 117.215 108.584V108.547C117.215 108.092 117.09 107.738 116.841 107.486C116.595 107.233 116.221 107.107 115.719 107.107C115.199 107.107 114.791 107.221 114.496 107.449C114.2 107.676 113.992 107.92 113.872 108.178L112.838 107.809C113.023 107.378 113.269 107.042 113.577 106.802C113.888 106.559 114.226 106.39 114.593 106.295C114.962 106.196 115.325 106.147 115.682 106.147C115.91 106.147 116.171 106.174 116.467 106.23C116.765 106.282 117.053 106.391 117.33 106.558C117.61 106.724 117.843 106.975 118.027 107.31C118.212 107.646 118.304 108.095 118.304 108.658V113.33H117.215V112.37H117.159C117.085 112.524 116.962 112.688 116.79 112.864C116.618 113.039 116.388 113.188 116.102 113.312C115.816 113.435 115.467 113.496 115.054 113.496ZM115.22 112.518C115.651 112.518 116.014 112.433 116.31 112.264C116.608 112.094 116.833 111.876 116.984 111.608C117.138 111.34 117.215 111.059 117.215 110.763V109.766C117.169 109.821 117.067 109.872 116.91 109.918C116.756 109.962 116.578 110 116.375 110.034C116.174 110.065 115.979 110.092 115.788 110.117C115.6 110.138 115.448 110.157 115.331 110.172C115.048 110.209 114.783 110.269 114.537 110.352C114.294 110.432 114.097 110.554 113.946 110.717C113.799 110.877 113.725 111.096 113.725 111.373C113.725 111.751 113.865 112.037 114.145 112.231C114.428 112.422 114.786 112.518 115.22 112.518ZM120.741 115.989C120.556 115.989 120.391 115.974 120.247 115.943C120.102 115.915 120.002 115.888 119.947 115.86L120.224 114.9C120.488 114.967 120.722 114.992 120.925 114.973C121.128 114.955 121.308 114.864 121.465 114.701C121.625 114.541 121.772 114.281 121.904 113.921L122.107 113.367L119.485 106.239H120.667L122.624 111.89H122.698L124.655 106.239H125.837L122.827 114.364C122.692 114.73 122.524 115.033 122.324 115.274C122.124 115.517 121.892 115.697 121.627 115.814C121.365 115.931 121.07 115.989 120.741 115.989ZM129.146 113.496C128.697 113.496 128.289 113.412 127.923 113.242C127.556 113.07 127.266 112.822 127.05 112.499C126.835 112.173 126.727 111.779 126.727 111.317C126.727 110.911 126.807 110.582 126.967 110.329C127.127 110.074 127.341 109.874 127.609 109.729C127.876 109.585 128.172 109.477 128.495 109.406C128.821 109.332 129.149 109.274 129.478 109.231C129.909 109.175 130.259 109.134 130.526 109.106C130.797 109.075 130.994 109.024 131.117 108.954C131.243 108.883 131.307 108.76 131.307 108.584V108.547C131.307 108.092 131.182 107.738 130.933 107.486C130.686 107.233 130.312 107.107 129.811 107.107C129.291 107.107 128.883 107.221 128.587 107.449C128.292 107.676 128.084 107.92 127.964 108.178L126.93 107.809C127.115 107.378 127.361 107.042 127.669 106.802C127.98 106.559 128.318 106.39 128.684 106.295C129.054 106.196 129.417 106.147 129.774 106.147C130.002 106.147 130.263 106.174 130.559 106.23C130.857 106.282 131.145 106.391 131.422 106.558C131.702 106.724 131.934 106.975 132.119 107.31C132.304 107.646 132.396 108.095 132.396 108.658V113.33H131.307V112.37H131.251C131.177 112.524 131.054 112.688 130.882 112.864C130.709 113.039 130.48 113.188 130.194 113.312C129.908 113.435 129.558 113.496 129.146 113.496ZM129.312 112.518C129.743 112.518 130.106 112.433 130.402 112.264C130.7 112.094 130.925 111.876 131.076 111.608C131.23 111.34 131.307 111.059 131.307 110.763V109.766C131.26 109.821 131.159 109.872 131.002 109.918C130.848 109.962 130.669 110 130.466 110.034C130.266 110.065 130.071 110.092 129.88 110.117C129.692 110.138 129.54 110.157 129.423 110.172C129.14 110.209 128.875 110.269 128.629 110.352C128.386 110.432 128.189 110.554 128.038 110.717C127.89 110.877 127.816 111.096 127.816 111.373C127.816 111.751 127.956 112.037 128.237 112.231C128.52 112.422 128.878 112.518 129.312 112.518ZM138.743 115.989C138.558 115.989 138.393 115.974 138.249 115.943C138.104 115.915 138.004 115.888 137.948 115.86L138.225 114.9C138.49 114.967 138.724 114.992 138.927 114.973C139.13 114.955 139.31 114.864 139.467 114.701C139.627 114.541 139.774 114.281 139.906 113.921L140.109 113.367L137.487 106.239H138.669L140.626 111.89H140.7L142.657 106.239H143.839L140.829 114.364C140.694 114.73 140.526 115.033 140.326 115.274C140.126 115.517 139.894 115.697 139.629 115.814C139.367 115.931 139.072 115.989 138.743 115.989ZM147.148 113.496C146.699 113.496 146.291 113.412 145.925 113.242C145.558 113.07 145.268 112.822 145.052 112.499C144.837 112.173 144.729 111.779 144.729 111.317C144.729 110.911 144.809 110.582 144.969 110.329C145.129 110.074 145.343 109.874 145.611 109.729C145.878 109.585 146.174 109.477 146.497 109.406C146.823 109.332 147.151 109.274 147.48 109.231C147.911 109.175 148.261 109.134 148.528 109.106C148.799 109.075 148.996 109.024 149.119 108.954C149.245 108.883 149.308 108.76 149.308 108.584V108.547C149.308 108.092 149.184 107.738 148.935 107.486C148.688 107.233 148.314 107.107 147.813 107.107C147.293 107.107 146.885 107.221 146.589 107.449C146.294 107.676 146.086 107.92 145.966 108.178L144.932 107.809C145.117 107.378 145.363 107.042 145.671 106.802C145.982 106.559 146.32 106.39 146.686 106.295C147.056 106.196 147.419 106.147 147.776 106.147C148.004 106.147 148.265 106.174 148.561 106.23C148.859 106.282 149.147 106.391 149.424 106.558C149.704 106.724 149.936 106.975 150.121 107.31C150.306 107.646 150.398 108.095 150.398 108.658V113.33H149.308V112.37H149.253C149.179 112.524 149.056 112.688 148.884 112.864C148.711 113.039 148.482 113.188 148.196 113.312C147.91 113.435 147.56 113.496 147.148 113.496ZM147.314 112.518C147.745 112.518 148.108 112.433 148.404 112.264C148.702 112.094 148.927 111.876 149.078 111.608C149.232 111.34 149.308 111.059 149.308 110.763V109.766C149.262 109.821 149.161 109.872 149.004 109.918C148.85 109.962 148.671 110 148.468 110.034C148.268 110.065 148.073 110.092 147.882 110.117C147.694 110.138 147.542 110.157 147.425 110.172C147.142 110.209 146.877 110.269 146.631 110.352C146.388 110.432 146.191 110.554 146.04 110.717C145.892 110.877 145.818 111.096 145.818 111.373C145.818 111.751 145.958 112.037 146.239 112.231C146.522 112.422 146.88 112.518 147.314 112.518ZM152.183 113.33V112.499L156.209 107.329V107.255H152.313V106.239H157.612V107.107L153.698 112.241V112.314H157.742V113.33H152.183ZM159.42 113.33V106.239H160.509V113.33H159.42ZM163.594 109.064V113.33H162.505V106.239H163.557V107.347H163.65C163.816 106.987 164.068 106.698 164.407 106.479C164.745 106.258 165.182 106.147 165.718 106.147C166.198 106.147 166.618 106.245 166.978 106.442C167.338 106.636 167.618 106.932 167.818 107.329C168.018 107.723 168.118 108.221 168.118 108.824V113.33H167.029V108.898C167.029 108.341 166.884 107.907 166.595 107.596C166.306 107.282 165.909 107.125 165.404 107.125C165.056 107.125 164.745 107.201 164.471 107.352C164.2 107.502 163.987 107.723 163.83 108.012C163.673 108.301 163.594 108.652 163.594 109.064ZM170.903 113.404C170.675 113.404 170.48 113.322 170.317 113.159C170.154 112.996 170.072 112.801 170.072 112.573C170.072 112.345 170.154 112.15 170.317 111.987C170.48 111.824 170.675 111.742 170.903 111.742C171.131 111.742 171.326 111.824 171.489 111.987C171.653 112.15 171.734 112.345 171.734 112.573C171.734 112.724 171.696 112.862 171.619 112.988C171.545 113.115 171.445 113.216 171.319 113.293C171.196 113.367 171.057 113.404 170.903 113.404Z" fill="#737373"/>
</g>
<path d="M20.484 149.66H19.261L22.0091 142.024H23.3402L26.0882 149.66H24.8652L22.7063 143.411H22.6467L20.484 149.66ZM20.6891 146.67H24.6564V147.639H20.6891V146.67ZM33.4496 144.507H32.2863C32.2415 144.258 32.1583 144.04 32.0365 143.851C31.9146 143.662 31.7655 143.501 31.589 143.37C31.4125 143.238 31.2149 143.139 30.9961 143.071C30.7799 143.004 30.5499 142.971 30.3063 142.971C29.8664 142.971 29.4724 143.081 29.1243 143.303C28.7788 143.524 28.5054 143.848 28.304 144.276C28.1052 144.703 28.0057 145.225 28.0057 145.842C28.0057 146.463 28.1052 146.988 28.304 147.415C28.5054 147.843 28.7801 148.166 29.1281 148.385C29.4761 148.604 29.8676 148.713 30.3026 148.713C30.5437 148.713 30.7724 148.681 30.9887 148.616C31.2074 148.549 31.4051 148.451 31.5816 148.321C31.758 148.192 31.9072 148.034 32.029 147.848C32.1533 147.659 32.239 147.443 32.2863 147.199L33.4496 147.203C33.3875 147.578 33.2669 147.924 33.0879 148.239C32.9115 148.553 32.684 148.824 32.4056 149.052C32.1297 149.278 31.814 149.454 31.4585 149.578C31.103 149.702 30.7153 149.764 30.2952 149.764C29.6339 149.764 29.0448 149.608 28.5278 149.295C28.0107 148.979 27.603 148.528 27.3047 147.941C27.0089 147.354 26.861 146.655 26.861 145.842C26.861 145.027 27.0102 144.327 27.3085 143.743C27.6068 143.156 28.0144 142.706 28.5315 142.393C29.0485 142.077 29.6364 141.919 30.2952 141.919C30.7003 141.919 31.0782 141.978 31.4287 142.095C31.7817 142.209 32.0986 142.378 32.3795 142.602C32.6604 142.823 32.8928 143.094 33.0768 143.414C33.2607 143.733 33.385 144.097 33.4496 144.507ZM29.9036 149.671H30.6345L30.5748 149.977C30.7911 150.012 30.98 150.099 31.1416 150.238C31.3031 150.377 31.3839 150.587 31.3839 150.868C31.3864 151.204 31.241 151.476 30.9477 151.685C30.6568 151.894 30.2355 151.998 29.6836 151.998L29.6613 151.375C29.9198 151.375 30.1286 151.338 30.2877 151.263C30.4493 151.189 30.5313 151.068 30.5338 150.902C30.5363 150.735 30.4741 150.618 30.3474 150.551C30.2231 150.484 30.0242 150.437 29.7508 150.41L29.9036 149.671ZM36.2555 142.024V149.66H35.1033V142.024H36.2555ZM38.2084 149.66V142.024H39.3606V145.67H39.4538L42.6567 142.024H44.1072L41.0273 145.462L44.1184 149.66H42.7313L40.2629 146.248L39.3606 147.285V149.66H38.2084ZM45.456 149.66V142.024H46.6082V148.668H50.0684V149.66H45.456ZM52.6925 149.66H51.4695L54.2176 142.024H55.5487L58.2967 149.66H57.0737L54.9148 143.411H54.8552L52.6925 149.66ZM52.8976 146.67H56.8649V147.639H52.8976V146.67ZM59.6745 142.024H61.0728L63.5039 147.96H63.5934L66.0245 142.024H67.4227V149.66H66.3265V144.134H66.2556L64.0035 149.649H63.0937L60.8416 144.13H60.7707V149.66H59.6745V142.024ZM70.0179 149.66H68.7949L71.5429 142.024H72.8741L75.6221 149.66H74.3991L72.2402 143.411H72.1805L70.0179 149.66ZM70.223 146.67H74.1903V147.639H70.223V146.67Z" fill="#A1A1A1"/>
<rect x="17" y="160.66" width="582" height="34.66" rx="8" fill="#171717" fill-opacity="0.6"/>
<rect x="17.5" y="161.16" width="581" height="33.66" rx="7.5" stroke="white" stroke-opacity="0.1"/>
<g clip-path="url(#clip2_4_78)">
<path d="M31.1994 182.99H29.9991L33.4707 173.536H34.6525L38.1241 182.99H36.9238L34.0985 175.031H34.0246L31.1994 182.99ZM31.6425 179.297H36.4806V180.312H31.6425V179.297ZM42.3297 183.138C41.6649 183.138 41.0925 182.981 40.6124 182.667C40.1322 182.353 39.7629 181.921 39.5044 181.37C39.2459 180.819 39.1166 180.189 39.1166 179.482C39.1166 178.761 39.249 178.126 39.5136 177.575C39.7814 177.021 40.1538 176.589 40.6308 176.278C41.1109 175.964 41.6711 175.807 42.3112 175.807C42.8098 175.807 43.2591 175.899 43.6592 176.084C44.0593 176.268 44.3871 176.527 44.6425 176.859C44.898 177.192 45.0565 177.58 45.118 178.023H44.0285C43.9455 177.7 43.7608 177.413 43.4746 177.164C43.1914 176.912 42.8098 176.786 42.3297 176.786C41.905 176.786 41.5326 176.896 41.2125 177.118C40.8955 177.336 40.6477 177.646 40.4692 178.046C40.2938 178.443 40.2061 178.909 40.2061 179.445C40.2061 179.992 40.2923 180.469 40.4646 180.876C40.6401 181.282 40.8863 181.597 41.2033 181.822C41.5233 182.047 41.8988 182.159 42.3297 182.159C42.6128 182.159 42.8698 182.11 43.1006 182.011C43.3315 181.913 43.5269 181.771 43.6869 181.587C43.847 181.402 43.9608 181.18 44.0285 180.922H45.118C45.0565 181.34 44.9041 181.717 44.661 182.053C44.4209 182.385 44.1024 182.65 43.7054 182.847C43.3115 183.041 42.8529 183.138 42.3297 183.138ZM41.8126 182.953H42.7175L42.6436 183.322C42.8837 183.359 43.1037 183.459 43.3038 183.623C43.5038 183.789 43.6038 184.052 43.6038 184.412C43.6038 184.809 43.4392 185.132 43.1099 185.381C42.7836 185.634 42.302 185.76 41.6649 185.76L41.628 185.04C41.9142 185.04 42.1512 184.994 42.3389 184.901C42.5297 184.812 42.6251 184.661 42.6251 184.449C42.6251 184.237 42.5467 184.092 42.3897 184.015C42.2327 183.938 41.9788 183.886 41.628 183.858L41.8126 182.953ZM46.7107 182.99V175.899H47.8002V182.99H46.7107ZM50.8113 180.405L50.7928 179.057H51.0144L54.1167 175.899H55.4647L52.1593 179.241H52.067L50.8113 180.405ZM49.7957 182.99V173.536H50.8852V182.99H49.7957ZM54.3014 182.99L51.5315 179.482L52.307 178.724L55.6863 182.99H54.3014ZM57.9565 173.536V182.99H56.867V173.536H57.9565ZM62.0386 183.156C61.5892 183.156 61.1815 183.072 60.8152 182.902C60.449 182.73 60.1581 182.482 59.9427 182.159C59.7273 181.833 59.6195 181.439 59.6195 180.977C59.6195 180.571 59.6996 180.242 59.8596 179.989C60.0196 179.734 60.2335 179.534 60.5013 179.389C60.769 179.245 61.0645 179.137 61.3877 179.066C61.7139 178.992 62.0417 178.934 62.371 178.891C62.8018 178.835 63.1512 178.794 63.4189 178.766C63.6897 178.735 63.8867 178.684 64.0098 178.614C64.136 178.543 64.1991 178.42 64.1991 178.244V178.207C64.1991 177.752 64.0744 177.398 63.8252 177.146C63.5789 176.893 63.205 176.767 62.7034 176.767C62.1832 176.767 61.7754 176.881 61.48 177.109C61.1845 177.336 60.9768 177.58 60.8568 177.838L59.8227 177.469C60.0073 177.038 60.2535 176.702 60.5613 176.462C60.8721 176.219 61.2107 176.05 61.5769 175.955C61.9463 175.856 62.3094 175.807 62.6664 175.807C62.8942 175.807 63.1558 175.835 63.4512 175.89C63.7498 175.942 64.0375 176.051 64.3145 176.218C64.5946 176.384 64.8269 176.635 65.0116 176.97C65.1963 177.306 65.2886 177.755 65.2886 178.318V182.99H64.1991V182.03H64.1437C64.0698 182.184 63.9467 182.348 63.7744 182.524C63.602 182.699 63.3727 182.848 63.0865 182.972C62.8003 183.095 62.451 183.156 62.0386 183.156ZM62.2048 182.178C62.6356 182.178 62.9988 182.093 63.2943 181.924C63.5928 181.754 63.8175 181.536 63.9683 181.268C64.1221 181 64.1991 180.719 64.1991 180.423V179.426C64.1529 179.482 64.0514 179.532 63.8944 179.578C63.7405 179.622 63.562 179.66 63.3589 179.694C63.1588 179.725 62.9634 179.752 62.7726 179.777C62.5849 179.799 62.4325 179.817 62.3156 179.832C62.0324 179.869 61.7677 179.929 61.5215 180.012C61.2784 180.092 61.0814 180.214 60.9306 180.377C60.7829 180.537 60.709 180.756 60.709 181.033C60.709 181.411 60.8491 181.697 61.1291 181.891C61.4123 182.082 61.7708 182.178 62.2048 182.178ZM67.2771 182.99V175.899H68.3297V177.007H68.422C68.5697 176.629 68.8083 176.335 69.1376 176.125C69.4669 175.913 69.8624 175.807 70.324 175.807C70.7918 175.807 71.1811 175.913 71.492 176.125C71.8059 176.335 72.0506 176.629 72.226 177.007H72.2999C72.4814 176.641 72.7538 176.35 73.117 176.135C73.4801 175.916 73.9156 175.807 74.4234 175.807C75.0574 175.807 75.576 176.005 75.9792 176.402C76.3824 176.796 76.5839 177.41 76.5839 178.244V182.99H75.4945V178.244C75.4945 177.721 75.3513 177.347 75.0651 177.123C74.7789 176.898 74.4419 176.786 74.0541 176.786C73.5555 176.786 73.1693 176.936 72.8954 177.238C72.6215 177.536 72.4845 177.915 72.4845 178.374V182.99H71.3766V178.134C71.3766 177.73 71.2458 177.406 70.9842 177.159C70.7226 176.91 70.3856 176.786 69.9732 176.786C69.69 176.786 69.4253 176.861 69.1791 177.012C68.936 177.163 68.739 177.372 68.5882 177.64C68.4405 177.904 68.3666 178.21 68.3666 178.558V182.99H67.2771ZM80.6626 183.156C80.2133 183.156 79.8055 183.072 79.4392 182.902C79.073 182.73 78.7822 182.482 78.5667 182.159C78.3513 181.833 78.2436 181.439 78.2436 180.977C78.2436 180.571 78.3236 180.242 78.4836 179.989C78.6437 179.734 78.8576 179.534 79.1253 179.389C79.3931 179.245 79.6885 179.137 80.0117 179.066C80.3379 178.992 80.6657 178.934 80.995 178.891C81.4259 178.835 81.7752 178.794 82.0429 178.766C82.3138 178.735 82.5107 178.684 82.6338 178.614C82.76 178.543 82.8231 178.42 82.8231 178.244V178.207C82.8231 177.752 82.6985 177.398 82.4492 177.146C82.203 176.893 81.829 176.767 81.3274 176.767C80.8073 176.767 80.3995 176.881 80.104 177.109C79.8086 177.336 79.6008 177.58 79.4808 177.838L78.4467 177.469C78.6314 177.038 78.8776 176.702 79.1853 176.462C79.4962 176.219 79.8347 176.05 80.201 175.955C80.5703 175.856 80.9334 175.807 81.2904 175.807C81.5182 175.807 81.7798 175.835 82.0752 175.89C82.3738 175.942 82.6615 176.051 82.9385 176.218C83.2186 176.384 83.451 176.635 83.6356 176.97C83.8203 177.306 83.9126 177.755 83.9126 178.318V182.99H82.8231V182.03H82.7677C82.6939 182.184 82.5707 182.348 82.3984 182.524C82.2261 182.699 81.9968 182.848 81.7105 182.972C81.4243 183.095 81.075 183.156 80.6626 183.156ZM80.8288 182.178C81.2597 182.178 81.6228 182.093 81.9183 181.924C82.2168 181.754 82.4415 181.536 82.5923 181.268C82.7462 181 82.8231 180.719 82.8231 180.423V179.426C82.7769 179.482 82.6754 179.532 82.5184 179.578C82.3645 179.622 82.186 179.66 81.9829 179.694C81.7829 179.725 81.5874 179.752 81.3966 179.777C81.2089 179.799 81.0565 179.817 80.9396 179.832C80.6564 179.869 80.3918 179.929 80.1456 180.012C79.9024 180.092 79.7055 180.214 79.5546 180.377C79.4069 180.537 79.3331 180.756 79.3331 181.033C79.3331 181.411 79.4731 181.697 79.7532 181.891C80.0363 182.082 80.3948 182.178 80.8288 182.178ZM86.9906 178.724V182.99H85.9012V175.899H86.9537V177.007H87.046C87.2122 176.647 87.4646 176.358 87.8031 176.139C88.1417 175.918 88.5787 175.807 89.1142 175.807C89.5943 175.807 90.0144 175.905 90.3745 176.102C90.7346 176.296 91.0147 176.592 91.2147 176.989C91.4148 177.383 91.5148 177.881 91.5148 178.484V182.99H90.4253V178.558C90.4253 178.001 90.2806 177.567 89.9913 177.256C89.7021 176.942 89.305 176.786 88.8003 176.786C88.4525 176.786 88.1417 176.861 87.8678 177.012C87.5969 177.163 87.383 177.383 87.2261 177.672C87.0691 177.961 86.9906 178.312 86.9906 178.724ZM93.5056 182.99V175.899H94.5951V182.99H93.5056ZM96.3875 182.99V182.159L100.413 176.989V176.915H96.5167V175.899H101.816V176.767L97.9017 181.901V181.974H101.946V182.99H96.3875ZM103.624 182.99V175.899H104.713V182.99H103.624ZM110.513 182.99V173.536H111.602V177.026H111.695C111.775 176.902 111.885 176.745 112.027 176.555C112.172 176.361 112.378 176.188 112.646 176.038C112.916 175.884 113.283 175.807 113.744 175.807C114.341 175.807 114.868 175.956 115.323 176.255C115.779 176.553 116.134 176.976 116.39 177.524C116.645 178.072 116.773 178.718 116.773 179.463C116.773 180.214 116.645 180.865 116.39 181.416C116.134 181.964 115.78 182.388 115.328 182.69C114.875 182.989 114.354 183.138 113.763 183.138C113.307 183.138 112.943 183.062 112.669 182.912C112.395 182.758 112.184 182.584 112.036 182.39C111.888 182.193 111.775 182.03 111.695 181.901H111.565V182.99H110.513ZM111.584 179.445C111.584 179.98 111.662 180.453 111.819 180.862C111.976 181.268 112.205 181.587 112.507 181.817C112.809 182.045 113.178 182.159 113.615 182.159C114.071 182.159 114.451 182.039 114.755 181.799C115.063 181.556 115.294 181.23 115.448 180.82C115.605 180.408 115.683 179.949 115.683 179.445C115.683 178.946 115.606 178.497 115.452 178.097C115.302 177.693 115.072 177.375 114.765 177.141C114.46 176.904 114.077 176.786 113.615 176.786C113.172 176.786 112.799 176.898 112.498 177.123C112.196 177.344 111.968 177.655 111.815 178.055C111.661 178.452 111.584 178.915 111.584 179.445ZM122.908 180.091V175.899H123.997V182.99H122.908V181.79H122.834C122.668 182.15 122.409 182.456 122.059 182.708C121.708 182.958 121.265 183.082 120.729 183.082C120.286 183.082 119.892 182.985 119.547 182.792C119.202 182.595 118.932 182.299 118.735 181.905C118.538 181.508 118.439 181.008 118.439 180.405V175.899H119.529V180.331C119.529 180.848 119.673 181.26 119.963 181.568C120.255 181.876 120.627 182.03 121.08 182.03C121.351 182.03 121.626 181.961 121.906 181.822C122.189 181.684 122.426 181.471 122.617 181.185C122.811 180.899 122.908 180.534 122.908 180.091ZM125.993 182.99V175.899H127.046V176.97H127.119C127.249 176.619 127.483 176.335 127.821 176.116C128.16 175.898 128.541 175.788 128.966 175.788C129.046 175.788 129.146 175.79 129.266 175.793C129.386 175.796 129.477 175.801 129.538 175.807V176.915C129.501 176.906 129.417 176.892 129.284 176.873C129.155 176.852 129.018 176.841 128.874 176.841C128.529 176.841 128.221 176.913 127.95 177.058C127.683 177.199 127.47 177.396 127.313 177.649C127.159 177.898 127.082 178.183 127.082 178.503V182.99H125.993ZM132.917 183.156C132.467 183.156 132.059 183.072 131.693 182.902C131.327 182.73 131.036 182.482 130.821 182.159C130.605 181.833 130.497 181.439 130.497 180.977C130.497 180.571 130.577 180.242 130.738 179.989C130.898 179.734 131.111 179.534 131.379 179.389C131.647 179.245 131.942 179.137 132.266 179.066C132.592 178.992 132.92 178.934 133.249 178.891C133.68 178.835 134.029 178.794 134.297 178.766C134.568 178.735 134.765 178.684 134.888 178.614C135.014 178.543 135.077 178.42 135.077 178.244V178.207C135.077 177.752 134.952 177.398 134.703 177.146C134.457 176.893 134.083 176.767 133.581 176.767C133.061 176.767 132.653 176.881 132.358 177.109C132.062 177.336 131.855 177.58 131.735 177.838L130.701 177.469C130.885 177.038 131.131 176.702 131.439 176.462C131.75 176.219 132.089 176.05 132.455 175.955C132.824 175.856 133.187 175.807 133.544 175.807C133.772 175.807 134.034 175.835 134.329 175.89C134.628 175.942 134.915 176.051 135.192 176.218C135.472 176.384 135.705 176.635 135.89 176.97C136.074 177.306 136.167 177.755 136.167 178.318V182.99H135.077V182.03H135.022C134.948 182.184 134.825 182.348 134.652 182.524C134.48 182.699 134.251 182.848 133.964 182.972C133.678 183.095 133.329 183.156 132.917 183.156ZM133.083 182.178C133.514 182.178 133.877 182.093 134.172 181.924C134.471 181.754 134.695 181.536 134.846 181.268C135 181 135.077 180.719 135.077 180.423V179.426C135.031 179.482 134.929 179.532 134.772 179.578C134.618 179.622 134.44 179.66 134.237 179.694C134.037 179.725 133.841 179.752 133.651 179.777C133.463 179.799 133.31 179.817 133.193 179.832C132.91 179.869 132.646 179.929 132.399 180.012C132.156 180.092 131.959 180.214 131.809 180.377C131.661 180.537 131.587 180.756 131.587 181.033C131.587 181.411 131.727 181.697 132.007 181.891C132.29 182.082 132.649 182.178 133.083 182.178ZM138.603 185.649C138.418 185.649 138.254 185.634 138.109 185.603C137.964 185.575 137.864 185.548 137.809 185.52L138.086 184.56C138.35 184.627 138.584 184.652 138.788 184.634C138.991 184.615 139.171 184.524 139.328 184.361C139.488 184.201 139.634 183.941 139.766 183.581L139.969 183.027L137.347 175.899H138.529L140.486 181.55H140.56L142.518 175.899H143.699L140.69 184.024C140.554 184.39 140.386 184.694 140.186 184.934C139.986 185.177 139.754 185.357 139.489 185.474C139.228 185.591 138.932 185.649 138.603 185.649ZM147.008 183.156C146.559 183.156 146.151 183.072 145.785 182.902C145.419 182.73 145.128 182.482 144.912 182.159C144.697 181.833 144.589 181.439 144.589 180.977C144.589 180.571 144.669 180.242 144.829 179.989C144.989 179.734 145.203 179.534 145.471 179.389C145.739 179.245 146.034 179.137 146.357 179.066C146.684 178.992 147.011 178.934 147.341 178.891C147.772 178.835 148.121 178.794 148.389 178.766C148.659 178.735 148.856 178.684 148.98 178.614C149.106 178.543 149.169 178.42 149.169 178.244V178.207C149.169 177.752 149.044 177.398 148.795 177.146C148.549 176.893 148.175 176.767 147.673 176.767C147.153 176.767 146.745 176.881 146.45 177.109C146.154 177.336 145.947 177.58 145.826 177.838L144.792 177.469C144.977 177.038 145.223 176.702 145.531 176.462C145.842 176.219 146.18 176.05 146.547 175.955C146.916 175.856 147.279 175.807 147.636 175.807C147.864 175.807 148.125 175.835 148.421 175.89C148.719 175.942 149.007 176.051 149.284 176.218C149.564 176.384 149.797 176.635 149.981 176.97C150.166 177.306 150.258 177.755 150.258 178.318V182.99H149.169V182.03H149.113C149.04 182.184 148.916 182.348 148.744 182.524C148.572 182.699 148.342 182.848 148.056 182.972C147.77 183.095 147.421 183.156 147.008 183.156ZM147.174 182.178C147.605 182.178 147.969 182.093 148.264 181.924C148.563 181.754 148.787 181.536 148.938 181.268C149.092 181 149.169 180.719 149.169 180.423V179.426C149.123 179.482 149.021 179.532 148.864 179.578C148.71 179.622 148.532 179.66 148.329 179.694C148.129 179.725 147.933 179.752 147.742 179.777C147.555 179.799 147.402 179.817 147.285 179.832C147.002 179.869 146.737 179.929 146.491 180.012C146.248 180.092 146.051 180.214 145.9 180.377C145.753 180.537 145.679 180.756 145.679 181.033C145.679 181.411 145.819 181.697 146.099 181.891C146.382 182.082 146.741 182.178 147.174 182.178ZM156.605 185.649C156.42 185.649 156.255 185.634 156.111 185.603C155.966 185.575 155.866 185.548 155.811 185.52L156.088 184.56C156.352 184.627 156.586 184.652 156.789 184.634C156.993 184.615 157.173 184.524 157.33 184.361C157.49 184.201 157.636 183.941 157.768 183.581L157.971 183.027L155.349 175.899H156.531L158.488 181.55H158.562L160.52 175.899H161.701L158.691 184.024C158.556 184.39 158.388 184.694 158.188 184.934C157.988 185.177 157.756 185.357 157.491 185.474C157.23 185.591 156.934 185.649 156.605 185.649ZM165.01 183.156C164.561 183.156 164.153 183.072 163.787 182.902C163.421 182.73 163.13 182.482 162.914 182.159C162.699 181.833 162.591 181.439 162.591 180.977C162.591 180.571 162.671 180.242 162.831 179.989C162.991 179.734 163.205 179.534 163.473 179.389C163.741 179.245 164.036 179.137 164.359 179.066C164.686 178.992 165.013 178.934 165.343 178.891C165.774 178.835 166.123 178.794 166.391 178.766C166.661 178.735 166.858 178.684 166.981 178.614C167.108 178.543 167.171 178.42 167.171 178.244V178.207C167.171 177.752 167.046 177.398 166.797 177.146C166.551 176.893 166.177 176.767 165.675 176.767C165.155 176.767 164.747 176.881 164.452 177.109C164.156 177.336 163.948 177.58 163.828 177.838L162.794 177.469C162.979 177.038 163.225 176.702 163.533 176.462C163.844 176.219 164.182 176.05 164.549 175.955C164.918 175.856 165.281 175.807 165.638 175.807C165.866 175.807 166.127 175.835 166.423 175.89C166.721 175.942 167.009 176.051 167.286 176.218C167.566 176.384 167.799 176.635 167.983 176.97C168.168 177.306 168.26 177.755 168.26 178.318V182.99H167.171V182.03H167.115C167.042 182.184 166.918 182.348 166.746 182.524C166.574 182.699 166.344 182.848 166.058 182.972C165.772 183.095 165.423 183.156 165.01 183.156ZM165.176 182.178C165.607 182.178 165.97 182.093 166.266 181.924C166.564 181.754 166.789 181.536 166.94 181.268C167.094 181 167.171 180.719 167.171 180.423V179.426C167.125 179.482 167.023 179.532 166.866 179.578C166.712 179.622 166.534 179.66 166.331 179.694C166.131 179.725 165.935 179.752 165.744 179.777C165.557 179.799 165.404 179.817 165.287 179.832C165.004 179.869 164.739 179.929 164.493 180.012C164.25 180.092 164.053 180.214 163.902 180.377C163.755 180.537 163.681 180.756 163.681 181.033C163.681 181.411 163.821 181.697 164.101 181.891C164.384 182.082 164.743 182.178 165.176 182.178ZM170.046 182.99V182.159L174.071 176.989V176.915H170.175V175.899H175.475V176.767L171.56 181.901V181.974H175.604V182.99H170.046ZM177.282 182.99V175.899H178.371V182.99H177.282ZM181.456 178.724V182.99H180.367V175.899H181.42V177.007H181.512C181.678 176.647 181.93 176.358 182.269 176.139C182.608 175.918 183.045 175.807 183.58 175.807C184.06 175.807 184.48 175.905 184.84 176.102C185.2 176.296 185.48 176.592 185.681 176.989C185.881 177.383 185.981 177.881 185.981 178.484V182.99H184.891V178.558C184.891 178.001 184.746 177.567 184.457 177.256C184.168 176.942 183.771 176.786 183.266 176.786C182.918 176.786 182.608 176.861 182.334 177.012C182.063 177.163 181.849 177.383 181.692 177.672C181.535 177.961 181.456 178.312 181.456 178.724ZM188.765 183.064C188.538 183.064 188.342 182.982 188.179 182.819C188.016 182.656 187.935 182.461 187.935 182.233C187.935 182.005 188.016 181.81 188.179 181.647C188.342 181.484 188.538 181.402 188.765 181.402C188.993 181.402 189.189 181.484 189.352 181.647C189.515 181.81 189.596 182.005 189.596 182.233C189.596 182.384 189.558 182.522 189.481 182.648C189.407 182.775 189.307 182.876 189.181 182.953C189.058 183.027 188.919 183.064 188.765 183.064Z" fill="#737373"/>
</g>
<path d="M24.7781 218.295C24.7087 218.078 24.6155 217.883 24.4983 217.71C24.3836 217.536 24.2461 217.388 24.0859 217.266C23.9257 217.141 23.7427 217.047 23.5371 216.982C23.3339 216.918 23.1103 216.886 22.8664 216.886C22.4527 216.886 22.0797 216.992 21.7474 217.205C21.415 217.418 21.152 217.73 20.9583 218.141C20.767 218.55 20.6714 219.051 20.6714 219.644C20.6714 220.239 20.7682 220.742 20.9619 221.154C21.1556 221.565 21.421 221.877 21.7581 222.09C22.0953 222.303 22.479 222.409 22.9094 222.409C23.3088 222.409 23.6567 222.328 23.9532 222.165C24.252 222.003 24.4828 221.773 24.6454 221.476C24.8104 221.178 24.8929 220.826 24.8929 220.422L25.1798 220.476H23.078V219.561H25.9653V220.397C25.9653 221.014 25.8338 221.549 25.5707 222.004C25.3101 222.456 24.9491 222.805 24.4876 223.051C24.0285 223.297 23.5024 223.42 22.9094 223.42C22.2447 223.42 21.6613 223.267 21.1592 222.961C20.6594 222.655 20.2697 222.221 19.9899 221.659C19.7102 221.095 19.5703 220.426 19.5703 219.651C19.5703 219.065 19.6516 218.539 19.8142 218.073C19.9768 217.606 20.2051 217.211 20.4992 216.886C20.7957 216.558 21.1436 216.308 21.5429 216.136C21.9446 215.961 22.3834 215.874 22.8592 215.874C23.2562 215.874 23.6256 215.933 23.9675 216.05C24.3118 216.167 24.6179 216.333 24.8857 216.548C25.1559 216.764 25.3795 217.019 25.5564 217.316C25.7333 217.61 25.8529 217.936 25.9151 218.295H24.7781ZM27.6471 223.32V215.975H32.2524V216.929H28.7554V219.167H32.0121V220.117H28.7554V222.366H32.2954V223.32H27.6471ZM40.1087 218.363H38.9896C38.9466 218.124 38.8665 217.914 38.7493 217.732C38.6322 217.55 38.4887 217.396 38.3189 217.269C38.1492 217.143 37.9591 217.047 37.7487 216.982C37.5406 216.918 37.3194 216.886 37.0851 216.886C36.6619 216.886 36.2829 216.992 35.9482 217.205C35.6158 217.418 35.3528 217.73 35.1591 218.141C34.9678 218.552 34.8722 219.054 34.8722 219.647C34.8722 220.245 34.9678 220.75 35.1591 221.161C35.3528 221.572 35.617 221.883 35.9517 222.093C36.2865 222.304 36.6631 222.409 37.0815 222.409C37.3135 222.409 37.5335 222.378 37.7415 222.316C37.9519 222.251 38.142 222.157 38.3118 222.032C38.4815 221.908 38.625 221.756 38.7422 221.577C38.8617 221.395 38.9442 221.187 38.9896 220.953L40.1087 220.956C40.0489 221.317 39.9329 221.65 39.7608 221.953C39.591 222.255 39.3722 222.515 39.1044 222.735C38.839 222.953 38.5353 223.122 38.1934 223.241C37.8515 223.361 37.4785 223.42 37.0744 223.42C36.4383 223.42 35.8716 223.27 35.3743 222.969C34.8769 222.665 34.4848 222.231 34.1979 221.667C33.9133 221.102 33.7711 220.429 33.7711 219.647C33.7711 218.863 33.9145 218.19 34.2015 217.628C34.4884 217.064 34.8805 216.631 35.3779 216.33C35.8752 216.026 36.4407 215.874 37.0744 215.874C37.4641 215.874 37.8276 215.93 38.1647 216.043C38.5042 216.153 38.8091 216.315 39.0793 216.53C39.3495 216.743 39.5731 217.004 39.75 217.312C39.9269 217.618 40.0465 217.969 40.1087 218.363ZM36.6978 223.331H37.4007L37.3434 223.625C37.5514 223.658 37.7331 223.742 37.8885 223.876C38.044 224.01 38.1217 224.212 38.1217 224.482C38.1241 224.805 37.9842 225.067 37.702 225.268C37.4223 225.468 37.017 225.569 36.4862 225.569L36.4646 224.97C36.7133 224.97 36.9142 224.934 37.0672 224.862C37.2226 224.791 37.3015 224.675 37.3039 224.514C37.3063 224.354 37.2465 224.242 37.1246 224.177C37.005 224.113 36.8137 224.067 36.5507 224.041L36.6978 223.331ZM41.7098 223.32V215.975H46.3151V216.929H42.8181V219.167H46.0748V220.117H42.8181V222.366H46.3581V223.32H41.7098ZM48.0705 223.32V215.975H50.6887C51.2578 215.975 51.73 216.073 52.1055 216.269C52.4832 216.465 52.7654 216.736 52.9519 217.083C53.1384 217.427 53.2317 217.825 53.2317 218.277C53.2317 218.727 53.1372 219.122 52.9483 219.464C52.7618 219.804 52.4797 220.068 52.1019 220.257C51.7265 220.446 51.2542 220.54 50.6851 220.54H48.7017V219.586H50.5847C50.9434 219.586 51.2351 219.535 51.4599 219.432C51.687 219.329 51.8532 219.18 51.9584 218.984C52.0636 218.788 52.1162 218.552 52.1162 218.277C52.1162 218 52.0624 217.76 51.9548 217.556C51.8496 217.353 51.6834 217.198 51.4563 217.09C51.2315 216.98 50.9362 216.925 50.5704 216.925H49.1787V223.32H48.0705ZM51.6966 220.006L53.5114 223.32H52.2489L50.4699 220.006H51.6966ZM54.8552 223.32V215.975H55.9635V222.366H59.2919V223.32H54.8552ZM61.9395 215.975V223.32H60.8312V215.975H61.9395ZM67.4184 215.975L69.4628 221.957H69.5453L71.5897 215.975H72.7877L70.1443 223.32H68.8639L66.2205 215.975H67.4184ZM74.1234 223.32V215.975H78.7287V216.929H75.2317V219.167H78.4884V220.117H75.2317V222.366H78.7717V223.32H74.1234ZM80.484 223.32V215.975H83.1023C83.6714 215.975 84.1436 216.073 84.519 216.269C84.8968 216.465 85.179 216.736 85.3655 217.083C85.552 217.427 85.6452 217.825 85.6452 218.277C85.6452 218.727 85.5508 219.122 85.3619 219.464C85.1754 219.804 84.8932 220.068 84.5154 220.257C84.14 220.446 83.6678 220.54 83.0987 220.54H81.1153V219.586H82.9983C83.357 219.586 83.6487 219.535 83.8734 219.432C84.1006 219.329 84.2668 219.18 84.372 218.984C84.4772 218.788 84.5298 218.552 84.5298 218.277C84.5298 218 84.476 217.76 84.3684 217.556C84.2632 217.353 84.097 217.198 83.8698 217.09C83.6451 216.98 83.3498 216.925 82.9839 216.925H81.5923V223.32H80.484ZM84.1101 220.006L85.925 223.32H84.6625L82.8835 220.006H84.1101ZM88.3771 215.975V223.32H87.2688V215.975H88.3771ZM92.8518 216.929V215.975H98.5366V216.929H96.2447V223.32H95.1401V216.929H92.8518ZM101.176 215.975V223.32H100.068V215.975H101.176ZM103.065 223.32V215.975H105.683C106.255 215.975 106.728 216.079 107.104 216.287C107.479 216.495 107.76 216.779 107.947 217.14C108.133 217.499 108.226 217.903 108.226 218.352C108.226 218.804 108.132 219.211 107.943 219.572C107.756 219.931 107.474 220.215 107.096 220.426C106.721 220.634 106.249 220.738 105.68 220.738H103.879V219.798H105.579C105.94 219.798 106.233 219.736 106.458 219.611C106.683 219.485 106.848 219.313 106.953 219.095C107.058 218.877 107.111 218.63 107.111 218.352C107.111 218.075 107.058 217.829 106.953 217.614C106.848 217.398 106.682 217.23 106.454 217.108C106.23 216.986 105.933 216.925 105.565 216.925H104.173V223.32H103.065ZM110.909 215.975V223.32H109.801V215.975H110.909Z" fill="#A1A1A1"/>
<rect x="17" y="234.32" width="110.57" height="33.3333" rx="8" fill="white" fill-opacity="0.1"/>
<rect x="17.5" y="234.82" width="109.57" height="32.3333" rx="7.5" stroke="white" stroke-opacity="0.2"/>
<path d="M39.78 246.32V255.653" stroke="#C6D2FF" stroke-width="1.16667" stroke-linecap="round" stroke-linejoin="round"/>
<path d="M35.1133 248.07V246.903C35.1133 246.749 35.1748 246.6 35.2842 246.491C35.3936 246.381 35.542 246.32 35.6967 246.32H43.8633C44.0181 246.32 44.1664 246.381 44.2758 246.491C44.3852 246.6 44.4467 246.749 44.4467 246.903V248.07" stroke="#C6D2FF" stroke-width="1.16667" stroke-linecap="round" stroke-linejoin="round"/>
<path d="M38.03 255.653H41.53" stroke="#C6D2FF" stroke-width="1.16667" stroke-linecap="round" stroke-linejoin="round"/>
<path d="M58.8895 254.987H56.1584V246.55H58.9761C59.8027 246.55 60.5126 246.719 61.1057 247.057C61.6989 247.392 62.1534 247.874 62.4692 248.503C62.7878 249.129 62.9471 249.88 62.9471 250.756C62.9471 251.635 62.7864 252.39 62.4651 253.022C62.1466 253.653 61.6852 254.139 61.081 254.48C60.4769 254.818 59.7464 254.987 58.8895 254.987ZM57.4313 253.874H58.8195C59.4621 253.874 59.9963 253.754 60.4219 253.512C60.8476 253.268 61.1662 252.915 61.3776 252.453C61.5891 251.989 61.6948 251.423 61.6948 250.756C61.6948 250.094 61.5891 249.533 61.3776 249.071C61.1689 248.61 60.8572 248.26 60.4425 248.021C60.0278 247.782 59.5129 247.663 58.8978 247.663H57.4313V253.874ZM68.4392 252.363V248.659H69.675V254.987H68.4639V253.891H68.398C68.2524 254.229 68.019 254.51 67.6977 254.735C67.3791 254.958 66.9823 255.069 66.5072 255.069C66.1008 255.069 65.741 254.98 65.4279 254.801C65.1176 254.62 64.8732 254.352 64.6947 253.998C64.5189 253.644 64.4311 253.206 64.4311 252.684V248.659H65.6627V252.536C65.6627 252.967 65.7822 253.31 66.0211 253.566C66.26 253.821 66.5704 253.949 66.9521 253.949C67.1828 253.949 67.4121 253.891 67.64 253.776C67.8707 253.66 68.0616 253.486 68.2126 253.252C68.3664 253.019 68.4419 252.722 68.4392 252.363ZM65.8522 247.667C65.6572 247.667 65.487 247.595 65.3414 247.452C65.1959 247.307 65.1231 247.139 65.1231 246.95C65.1231 246.744 65.1959 246.572 65.3414 246.435C65.487 246.298 65.6572 246.229 65.8522 246.229C66.0582 246.229 66.2298 246.298 66.3671 246.435C66.5072 246.572 66.5772 246.744 66.5772 246.95C66.5772 247.139 66.5072 247.307 66.3671 247.452C66.2298 247.595 66.0582 247.667 65.8522 247.667ZM68.2744 247.667C68.0794 247.667 67.9091 247.595 67.7636 247.452C67.618 247.307 67.5453 247.139 67.5453 246.95C67.5453 246.744 67.618 246.572 67.7636 246.435C67.9091 246.298 68.0794 246.229 68.2744 246.229C68.4803 246.229 68.652 246.298 68.7893 246.435C68.9294 246.572 68.9994 246.744 68.9994 246.95C68.9994 247.139 68.9294 247.307 68.7893 247.452C68.652 247.595 68.4803 247.667 68.2744 247.667ZM71.1981 254.987V254.142L74.6253 249.788V249.73H71.3093V248.659H76.1618V249.557L72.8664 253.858V253.916H76.2772V254.987H71.1981ZM80.8991 246.55H82.4438L85.1296 253.108H85.2285L87.9143 246.55H89.459V254.987H88.2479V248.882H88.1697L85.6816 254.974H84.6765L82.1884 248.878H82.1101V254.987H80.8991V246.55ZM93.9377 255.114C93.3143 255.114 92.7775 254.981 92.3271 254.715C91.8794 254.446 91.5334 254.068 91.289 253.582C91.0473 253.093 90.9265 252.521 90.9265 251.864C90.9265 251.216 91.0473 250.645 91.289 250.151C91.5334 249.656 91.874 249.27 92.3106 248.993C92.75 248.716 93.2635 248.577 93.8512 248.577C94.2082 248.577 94.5543 248.636 94.8893 248.754C95.2243 248.872 95.525 249.058 95.7914 249.31C96.0578 249.563 96.2679 249.891 96.4217 250.295C96.5755 250.696 96.6524 251.183 96.6524 251.757V252.194H91.6227V251.271H95.4454C95.4454 250.947 95.3795 250.66 95.2477 250.41C95.1159 250.157 94.9305 249.958 94.6916 249.813C94.4554 249.667 94.178 249.595 93.8595 249.595C93.5134 249.595 93.2114 249.68 92.9532 249.85C92.6978 250.017 92.5001 250.237 92.36 250.509C92.2227 250.778 92.1541 251.071 92.1541 251.386V252.107C92.1541 252.53 92.2282 252.89 92.3765 253.187C92.5276 253.483 92.7376 253.71 93.0068 253.866C93.2759 254.02 93.5903 254.097 93.9501 254.097C94.1835 254.097 94.3964 254.064 94.5886 253.998C94.7808 253.929 94.947 253.828 95.087 253.693C95.2271 253.559 95.3342 253.393 95.4083 253.195L96.5741 253.405C96.4807 253.748 96.3132 254.049 96.0715 254.307C95.8326 254.562 95.5319 254.762 95.1694 254.904C94.8097 255.044 94.3991 255.114 93.9377 255.114ZM100.973 248.659V249.648H97.5164V248.659H100.973ZM98.4432 247.144H99.6749V253.129C99.6749 253.368 99.7106 253.548 99.782 253.669C99.8534 253.787 99.9454 253.868 100.058 253.912C100.173 253.953 100.298 253.973 100.433 253.973C100.532 253.973 100.618 253.966 100.692 253.953C100.767 253.939 100.824 253.928 100.865 253.92L101.088 254.937C101.016 254.965 100.915 254.992 100.783 255.02C100.651 255.05 100.486 255.066 100.289 255.069C99.9646 255.075 99.6626 255.017 99.3824 254.896C99.1023 254.775 98.8758 254.588 98.7028 254.336C98.5297 254.083 98.4432 253.766 98.4432 253.384V247.144ZM102.335 254.987V248.659H103.567V254.987H102.335ZM102.957 247.683C102.743 247.683 102.559 247.612 102.405 247.469C102.254 247.323 102.178 247.15 102.178 246.95C102.178 246.747 102.254 246.574 102.405 246.431C102.559 246.285 102.743 246.213 102.957 246.213C103.171 246.213 103.354 246.285 103.505 246.431C103.659 246.574 103.736 246.747 103.736 246.95C103.736 247.15 103.659 247.323 103.505 247.469C103.354 247.612 103.171 247.683 102.957 247.683ZM106.455 251.23V254.987H105.224V248.659H106.406V249.689H106.484C106.63 249.354 106.858 249.085 107.168 248.882C107.481 248.679 107.875 248.577 108.35 248.577C108.781 248.577 109.159 248.668 109.483 248.849C109.807 249.027 110.058 249.294 110.237 249.648C110.415 250.002 110.505 250.44 110.505 250.962V254.987H109.273V251.11C109.273 250.652 109.153 250.293 108.915 250.035C108.676 249.774 108.347 249.644 107.93 249.644C107.644 249.644 107.39 249.706 107.168 249.829C106.948 249.953 106.774 250.134 106.645 250.373C106.518 250.609 106.455 250.895 106.455 251.23Z" fill="#C6D2FF"/>
<rect x="135.57" y="234.32" width="110.56" height="33.3333" rx="8" fill="white" fill-opacity="0.02"/>
<rect x="136.07" y="234.82" width="109.56" height="32.3333" rx="7.5" stroke="white" stroke-opacity="0.08"/>
<path d="M175.35 251.57C176.961 251.57 178.267 250.264 178.267 248.653C178.267 247.043 176.961 245.737 175.35 245.737C173.739 245.737 172.433 247.043 172.433 248.653C172.433 250.264 173.739 251.57 175.35 251.57Z" stroke="#737373" stroke-width="1.16667" stroke-linecap="round" stroke-linejoin="round"/>
<path d="M180.017 256.237C180.017 254.999 179.525 253.812 178.65 252.937C177.775 252.062 176.588 251.57 175.35 251.57C174.112 251.57 172.925 252.062 172.05 252.937C171.175 253.812 170.683 254.999 170.683 256.237" stroke="#737373" stroke-width="1.16667" stroke-linecap="round" stroke-linejoin="round"/>
<path d="M192.807 246.55V254.987H191.534V246.55H192.807ZM192.172 245.574C191.958 245.574 191.774 245.503 191.62 245.36C191.469 245.214 191.394 245.041 191.394 244.841C191.394 244.638 191.469 244.465 191.62 244.322C191.774 244.176 191.958 244.103 192.172 244.103C192.386 244.103 192.569 244.176 192.72 244.322C192.874 244.465 192.951 244.638 192.951 244.841C192.951 245.041 192.874 245.214 192.72 245.36C192.569 245.503 192.386 245.574 192.172 245.574ZM199.303 250.204L198.186 250.402C198.14 250.259 198.066 250.123 197.964 249.994C197.865 249.865 197.73 249.759 197.56 249.677C197.39 249.595 197.177 249.553 196.922 249.553C196.573 249.553 196.282 249.632 196.048 249.788C195.815 249.942 195.698 250.141 195.698 250.385C195.698 250.597 195.777 250.767 195.933 250.896C196.09 251.025 196.342 251.131 196.691 251.213L197.696 251.444C198.278 251.579 198.712 251.786 198.998 252.066C199.283 252.346 199.426 252.71 199.426 253.158C199.426 253.537 199.316 253.874 199.097 254.171C198.88 254.465 198.576 254.696 198.186 254.863C197.799 255.031 197.35 255.114 196.839 255.114C196.131 255.114 195.553 254.963 195.105 254.661C194.657 254.356 194.383 253.924 194.281 253.364L195.472 253.182C195.546 253.493 195.698 253.728 195.929 253.887C196.16 254.043 196.46 254.122 196.831 254.122C197.235 254.122 197.557 254.038 197.799 253.87C198.041 253.7 198.162 253.493 198.162 253.248C198.162 253.051 198.087 252.884 197.939 252.75C197.794 252.615 197.57 252.514 197.268 252.445L196.197 252.21C195.606 252.076 195.17 251.862 194.887 251.568C194.607 251.274 194.467 250.902 194.467 250.451C194.467 250.078 194.571 249.751 194.78 249.471C194.988 249.191 195.277 248.972 195.645 248.816C196.013 248.657 196.434 248.577 196.909 248.577C197.593 248.577 198.131 248.725 198.524 249.022C198.917 249.316 199.176 249.71 199.303 250.204ZM200.78 254.987V248.659H202.012V254.987H200.78ZM201.403 247.683C201.188 247.683 201.004 247.612 200.851 247.469C200.699 247.323 200.624 247.15 200.624 246.95C200.624 246.747 200.699 246.574 200.851 246.431C201.004 246.285 201.188 246.213 201.403 246.213C201.617 246.213 201.799 246.285 201.95 246.431C202.104 246.574 202.181 246.747 202.181 246.95C202.181 247.15 202.104 247.323 201.95 247.469C201.799 247.612 201.617 247.683 201.403 247.683ZM203.669 254.987V248.659H204.851V249.689H204.93C205.061 249.34 205.277 249.069 205.576 248.874C205.876 248.676 206.234 248.577 206.652 248.577C207.074 248.577 207.429 248.676 207.714 248.874C208.003 249.071 208.216 249.343 208.353 249.689H208.419C208.57 249.351 208.81 249.082 209.14 248.882C209.469 248.679 209.862 248.577 210.318 248.577C210.892 248.577 211.36 248.757 211.722 249.117C212.088 249.476 212.27 250.019 212.27 250.744V254.987H211.039V250.859C211.039 250.431 210.922 250.12 210.688 249.928C210.455 249.736 210.176 249.64 209.852 249.64C209.451 249.64 209.14 249.763 208.917 250.011C208.695 250.255 208.584 250.569 208.584 250.954V254.987H207.356V250.781C207.356 250.438 207.249 250.162 207.035 249.953C206.82 249.744 206.542 249.64 206.198 249.64C205.965 249.64 205.749 249.702 205.552 249.825C205.357 249.946 205.199 250.115 205.078 250.332C204.96 250.549 204.901 250.8 204.901 251.086V254.987H203.669Z" fill="#737373"/>
<rect x="254.13" y="234.32" width="110.42" height="33.3333" rx="8" fill="white" fill-opacity="0.02"/>
<rect x="254.63" y="234.82" width="109.42" height="32.3333" rx="7.5" stroke="white" stroke-opacity="0.08"/>
<g clip-path="url(#clip3_4_78)">
<path d="M290.673 248.07L285.429 251.411C285.251 251.514 285.048 251.569 284.843 251.569C284.637 251.569 284.435 251.514 284.257 251.411L279.007 248.07" stroke="#737373" stroke-width="1.16667" stroke-linecap="round" stroke-linejoin="round"/>
<path d="M289.507 246.32H280.173C279.529 246.32 279.007 246.842 279.007 247.487V254.487C279.007 255.131 279.529 255.653 280.173 255.653H289.507C290.151 255.653 290.673 255.131 290.673 254.487V247.487C290.673 246.842 290.151 246.32 289.507 246.32Z" stroke="#737373" stroke-width="1.16667" stroke-linecap="round" stroke-linejoin="round"/>
</g>
<path d="M300.981 254.987V247.205H305.86V248.216H302.155V250.587H305.605V251.594H302.155V253.976H305.905V254.987H300.981ZM310.776 250.602V251.59H307.325V250.602H310.776ZM312.381 254.987V247.205H315.155C315.76 247.205 316.262 247.315 316.659 247.535C317.057 247.756 317.355 248.057 317.552 248.44C317.75 248.82 317.849 249.248 317.849 249.724C317.849 250.203 317.749 250.633 317.549 251.016C317.351 251.396 317.052 251.697 316.652 251.92C316.254 252.141 315.754 252.251 315.151 252.251H313.244V251.255H315.045C315.427 251.255 315.737 251.19 315.976 251.058C316.214 250.924 316.388 250.741 316.5 250.511C316.611 250.28 316.667 250.018 316.667 249.724C316.667 249.43 316.611 249.169 316.5 248.941C316.388 248.713 316.212 248.535 315.972 248.406C315.734 248.276 315.419 248.212 315.029 248.212H313.555V254.987H312.381ZM321.519 255.104C320.972 255.104 320.495 254.979 320.087 254.728C319.679 254.478 319.362 254.127 319.137 253.676C318.911 253.225 318.799 252.698 318.799 252.095C318.799 251.49 318.911 250.96 319.137 250.507C319.362 250.053 319.679 249.701 320.087 249.451C320.495 249.2 320.972 249.074 321.519 249.074C322.066 249.074 322.544 249.2 322.952 249.451C323.36 249.701 323.676 250.053 323.902 250.507C324.127 250.96 324.24 251.49 324.24 252.095C324.24 252.698 324.127 253.225 323.902 253.676C323.676 254.127 323.36 254.478 322.952 254.728C322.544 254.979 322.066 255.104 321.519 255.104ZM321.523 254.151C321.878 254.151 322.172 254.057 322.405 253.87C322.638 253.682 322.81 253.433 322.921 253.121C323.035 252.809 323.092 252.466 323.092 252.091C323.092 251.719 323.035 251.377 322.921 251.065C322.81 250.751 322.638 250.499 322.405 250.309C322.172 250.119 321.878 250.024 321.523 250.024C321.166 250.024 320.87 250.119 320.634 250.309C320.401 250.499 320.227 250.751 320.113 251.065C320.002 251.377 319.946 251.719 319.946 252.091C319.946 252.466 320.002 252.809 320.113 253.121C320.227 253.433 320.401 253.682 320.634 253.87C320.87 254.057 321.166 254.151 321.523 254.151ZM329.882 250.575L328.852 250.758C328.809 250.626 328.74 250.5 328.647 250.381C328.555 250.262 328.431 250.165 328.274 250.089C328.117 250.013 327.921 249.975 327.685 249.975C327.364 249.975 327.095 250.047 326.88 250.191C326.664 250.333 326.557 250.517 326.557 250.742C326.557 250.937 326.629 251.095 326.773 251.214C326.918 251.333 327.151 251.43 327.473 251.506L328.4 251.719C328.937 251.843 329.337 252.034 329.6 252.293C329.864 252.551 329.996 252.887 329.996 253.3C329.996 253.649 329.894 253.961 329.692 254.234C329.491 254.505 329.212 254.718 328.852 254.873C328.495 255.027 328.08 255.104 327.609 255.104C326.956 255.104 326.423 254.965 326.01 254.687C325.597 254.405 325.343 254.006 325.25 253.49L326.348 253.322C326.416 253.609 326.557 253.825 326.77 253.972C326.982 254.117 327.26 254.189 327.602 254.189C327.974 254.189 328.272 254.111 328.495 253.957C328.718 253.8 328.829 253.609 328.829 253.383C328.829 253.201 328.761 253.048 328.624 252.923C328.49 252.799 328.283 252.706 328.004 252.642L327.017 252.426C326.472 252.302 326.069 252.104 325.808 251.833C325.55 251.562 325.421 251.219 325.421 250.803C325.421 250.459 325.517 250.157 325.709 249.899C325.902 249.64 326.168 249.439 326.507 249.295C326.847 249.148 327.236 249.074 327.674 249.074C328.305 249.074 328.801 249.211 329.163 249.485C329.526 249.756 329.765 250.119 329.882 250.575ZM333.969 249.15V250.062H330.781V249.15H333.969ZM331.636 247.752H332.772V253.273C332.772 253.493 332.805 253.659 332.871 253.771C332.937 253.88 333.022 253.954 333.126 253.995C333.232 254.033 333.347 254.052 333.471 254.052C333.563 254.052 333.642 254.046 333.711 254.033C333.779 254.02 333.832 254.01 333.87 254.003L334.075 254.941C334.01 254.966 333.916 254.992 333.794 255.017C333.673 255.045 333.521 255.06 333.338 255.063C333.039 255.068 332.761 255.015 332.502 254.903C332.244 254.792 332.035 254.619 331.875 254.386C331.716 254.153 331.636 253.861 331.636 253.509V247.752ZM336.924 255.116C336.554 255.116 336.22 255.047 335.921 254.911C335.622 254.771 335.385 254.57 335.211 254.307C335.038 254.043 334.952 253.72 334.952 253.338C334.952 253.008 335.016 252.737 335.142 252.524C335.269 252.312 335.44 252.143 335.655 252.019C335.871 251.895 336.111 251.801 336.377 251.738C336.643 251.675 336.914 251.626 337.19 251.594C337.54 251.553 337.824 251.52 338.041 251.495C338.259 251.467 338.418 251.423 338.516 251.362C338.615 251.301 338.665 251.202 338.665 251.065V251.039C338.665 250.707 338.571 250.45 338.383 250.267C338.198 250.085 337.922 249.994 337.555 249.994C337.173 249.994 336.871 250.079 336.651 250.248C336.433 250.416 336.282 250.602 336.199 250.807L335.131 250.564C335.257 250.209 335.442 249.923 335.686 249.705C335.931 249.485 336.214 249.325 336.533 249.226C336.852 249.125 337.188 249.074 337.54 249.074C337.773 249.074 338.02 249.102 338.281 249.158C338.544 249.211 338.79 249.31 339.018 249.454C339.248 249.599 339.437 249.805 339.584 250.074C339.731 250.34 339.804 250.685 339.804 251.111V254.987H338.695V254.189H338.649C338.576 254.336 338.466 254.48 338.319 254.622C338.172 254.764 337.983 254.882 337.753 254.975C337.522 255.069 337.246 255.116 336.924 255.116ZM337.171 254.204C337.485 254.204 337.754 254.142 337.977 254.018C338.202 253.894 338.373 253.732 338.49 253.531C338.609 253.329 338.668 253.112 338.668 252.882V252.129C338.628 252.17 338.549 252.208 338.433 252.243C338.319 252.276 338.188 252.305 338.041 252.331C337.894 252.353 337.751 252.375 337.612 252.395C337.473 252.413 337.356 252.428 337.262 252.441C337.042 252.469 336.841 252.516 336.658 252.581C336.478 252.647 336.334 252.742 336.225 252.866C336.119 252.988 336.066 253.15 336.066 253.353C336.066 253.634 336.169 253.847 336.377 253.991C336.585 254.133 336.85 254.204 337.171 254.204Z" fill="#737373"/>
<rect x="372.55" y="234.32" width="110.35" height="33.3333" rx="8" fill="white" fill-opacity="0.02"/>
<rect x="373.05" y="234.82" width="109.35" height="32.3333" rx="7.5" stroke="white" stroke-opacity="0.08"/>
<g clip-path="url(#clip4_4_78)">
<path d="M404.799 253.651C404.919 253.707 405.055 253.719 405.184 253.687C405.312 253.655 405.426 253.58 405.506 253.475L405.713 253.203C405.822 253.058 405.963 252.941 406.125 252.86C406.287 252.779 406.466 252.737 406.647 252.737H408.397C408.706 252.737 409.003 252.86 409.222 253.078C409.44 253.297 409.563 253.594 409.563 253.903V255.653C409.563 255.963 409.44 256.26 409.222 256.478C409.003 256.697 408.706 256.82 408.397 256.82C405.612 256.82 402.941 255.714 400.972 253.745C399.003 251.776 397.897 249.105 397.897 246.32C397.897 246.011 398.02 245.714 398.238 245.495C398.457 245.276 398.754 245.153 399.063 245.153H400.813C401.123 245.153 401.42 245.276 401.638 245.495C401.857 245.714 401.98 246.011 401.98 246.32V248.07C401.98 248.251 401.938 248.43 401.857 248.592C401.776 248.754 401.658 248.895 401.513 249.003L401.24 249.208C401.133 249.29 401.058 249.406 401.027 249.537C400.996 249.668 401.011 249.806 401.07 249.927C401.867 251.547 403.178 252.856 404.799 253.651Z" stroke="#737373" stroke-width="1.16667" stroke-linecap="round" stroke-linejoin="round"/>
</g>
<path d="M419.555 247.962V246.914H425.803V247.962H423.284V254.987H422.07V247.962H419.555ZM428.821 255.109C428.224 255.109 427.71 254.981 427.279 254.727C426.851 254.469 426.52 254.108 426.286 253.643C426.055 253.175 425.939 252.627 425.939 251.999C425.939 251.379 426.055 250.832 426.286 250.359C426.52 249.886 426.846 249.517 427.264 249.251C427.684 248.986 428.175 248.853 428.738 248.853C429.079 248.853 429.41 248.91 429.731 249.023C430.052 249.136 430.339 249.313 430.594 249.555C430.849 249.797 431.05 250.111 431.197 250.497C431.345 250.881 431.418 251.347 431.418 251.896V252.314H426.605V251.431H430.263C430.263 251.121 430.2 250.847 430.074 250.607C429.948 250.366 429.77 250.175 429.542 250.036C429.316 249.897 429.05 249.827 428.746 249.827C428.415 249.827 428.125 249.908 427.878 250.071C427.634 250.232 427.445 250.442 427.311 250.702C427.179 250.96 427.114 251.239 427.114 251.542V252.231C427.114 252.636 427.185 252.98 427.327 253.264C427.471 253.548 427.672 253.765 427.93 253.915C428.187 254.062 428.488 254.135 428.832 254.135C429.056 254.135 429.259 254.104 429.443 254.041C429.627 253.975 429.786 253.878 429.92 253.749C430.054 253.62 430.157 253.461 430.228 253.272L431.343 253.473C431.254 253.802 431.094 254.089 430.862 254.336C430.634 254.581 430.346 254.771 429.999 254.908C429.655 255.042 429.262 255.109 428.821 255.109ZM433.904 246.914V254.987H432.726V246.914H433.904ZM438.099 255.109C437.503 255.109 436.989 254.981 436.558 254.727C436.13 254.469 435.799 254.108 435.565 253.643C435.334 253.175 435.218 252.627 435.218 251.999C435.218 251.379 435.334 250.832 435.565 250.359C435.799 249.886 436.125 249.517 436.542 249.251C436.963 248.986 437.454 248.853 438.017 248.853C438.358 248.853 438.689 248.91 439.01 249.023C439.331 249.136 439.618 249.313 439.873 249.555C440.128 249.797 440.329 250.111 440.476 250.497C440.623 250.881 440.697 251.347 440.697 251.896V252.314H435.884V251.431H439.542C439.542 251.121 439.479 250.847 439.353 250.607C439.227 250.366 439.049 250.175 438.821 250.036C438.595 249.897 438.329 249.827 438.025 249.827C437.693 249.827 437.404 249.908 437.157 250.071C436.913 250.232 436.724 250.442 436.59 250.702C436.458 250.96 436.393 251.239 436.393 251.542V252.231C436.393 252.636 436.464 252.98 436.605 253.264C436.75 253.548 436.951 253.765 437.209 253.915C437.466 254.062 437.767 254.135 438.111 254.135C438.335 254.135 438.538 254.104 438.722 254.041C438.906 253.975 439.065 253.878 439.199 253.749C439.333 253.62 439.436 253.461 439.507 253.272L440.622 253.473C440.533 253.802 440.373 254.089 440.141 254.336C439.913 254.581 439.625 254.771 439.278 254.908C438.934 255.042 438.541 255.109 438.099 255.109ZM444.886 248.932V249.878H441.465V248.932H444.886ZM442.403 254.987V248.231C442.403 247.852 442.486 247.538 442.651 247.288C442.817 247.036 443.036 246.848 443.309 246.725C443.583 246.599 443.88 246.536 444.2 246.536C444.437 246.536 444.639 246.555 444.807 246.595C444.975 246.631 445.1 246.666 445.182 246.697L444.906 247.651C444.851 247.635 444.78 247.617 444.693 247.596C444.606 247.572 444.501 247.56 444.378 247.56C444.091 247.56 443.886 247.631 443.763 247.773C443.642 247.915 443.581 248.12 443.581 248.388V254.987H442.403ZM448.414 255.109C447.846 255.109 447.351 254.979 446.928 254.719C446.505 254.458 446.176 254.095 445.943 253.627C445.709 253.159 445.592 252.612 445.592 251.987C445.592 251.359 445.709 250.81 445.943 250.339C446.176 249.869 446.505 249.504 446.928 249.244C447.351 248.983 447.846 248.853 448.414 248.853C448.982 248.853 449.477 248.983 449.9 249.244C450.323 249.504 450.652 249.869 450.886 250.339C451.119 250.81 451.236 251.359 451.236 251.987C451.236 252.612 451.119 253.159 450.886 253.627C450.652 254.095 450.323 254.458 449.9 254.719C449.477 254.979 448.982 255.109 448.414 255.109ZM448.418 254.12C448.786 254.12 449.091 254.022 449.332 253.828C449.574 253.633 449.753 253.375 449.869 253.051C449.987 252.728 450.046 252.372 450.046 251.983C450.046 251.597 449.987 251.242 449.869 250.919C449.753 250.593 449.574 250.331 449.332 250.134C449.091 249.937 448.786 249.839 448.418 249.839C448.047 249.839 447.74 249.937 447.496 250.134C447.254 250.331 447.074 250.593 446.956 250.919C446.84 251.242 446.782 251.597 446.782 251.983C446.782 252.372 446.84 252.728 446.956 253.051C447.074 253.375 447.254 253.633 447.496 253.828C447.74 254.022 448.047 254.12 448.418 254.12ZM453.73 251.392V254.987H452.552V248.932H453.683V249.918H453.758C453.897 249.597 454.115 249.339 454.412 249.145C454.712 248.951 455.089 248.853 455.544 248.853C455.956 248.853 456.318 248.94 456.628 249.113C456.938 249.284 457.178 249.539 457.349 249.878C457.52 250.217 457.605 250.636 457.605 251.136V254.987H456.427V251.277C456.427 250.839 456.312 250.496 456.084 250.249C455.855 249.999 455.541 249.874 455.142 249.874C454.868 249.874 454.625 249.933 454.412 250.052C454.202 250.17 454.035 250.343 453.912 250.572C453.791 250.798 453.73 251.071 453.73 251.392Z" fill="#737373"/>
<rect x="490.9" y="234.32" width="109.97" height="33.3333" rx="8" fill="white" fill-opacity="0.02"/>
<rect x="491.4" y="234.82" width="108.97" height="32.3333" rx="7.5" stroke="white" stroke-opacity="0.08"/>
<path d="M526.213 249.237H535.547" stroke="#737373" stroke-width="1.16667" stroke-linecap="round" stroke-linejoin="round"/>
<path d="M526.213 252.737H535.547" stroke="#737373" stroke-width="1.16667" stroke-linecap="round" stroke-linejoin="round"/>
<path d="M529.713 245.737L528.547 256.237" stroke="#737373" stroke-width="1.16667" stroke-linecap="round" stroke-linejoin="round"/>
<path d="M533.213 245.737L532.047 256.237" stroke="#737373" stroke-width="1.16667" stroke-linecap="round" stroke-linejoin="round"/>
<path d="M551.127 249.142C551.085 248.775 550.915 248.492 550.616 248.29C550.316 248.086 549.94 247.985 549.485 247.985C549.16 247.985 548.879 248.036 548.642 248.139C548.404 248.24 548.22 248.379 548.088 248.557C547.959 248.733 547.895 248.933 547.895 249.157C547.895 249.346 547.938 249.508 548.026 249.645C548.116 249.782 548.234 249.897 548.378 249.99C548.525 250.08 548.683 250.156 548.851 250.218C549.018 250.277 549.18 250.326 549.334 250.365L550.109 250.566C550.362 250.628 550.621 250.712 550.887 250.818C551.152 250.924 551.399 251.063 551.626 251.236C551.853 251.409 552.036 251.623 552.176 251.878C552.318 252.134 552.388 252.44 552.388 252.796C552.388 253.245 552.272 253.644 552.04 253.992C551.81 254.34 551.476 254.615 551.038 254.816C550.602 255.018 550.074 255.118 549.454 255.118C548.861 255.118 548.347 255.024 547.914 254.836C547.48 254.647 547.141 254.38 546.896 254.034C546.651 253.686 546.515 253.273 546.489 252.796H547.689C547.713 253.082 547.806 253.321 547.968 253.512C548.133 253.7 548.344 253.841 548.599 253.934C548.857 254.024 549.14 254.069 549.447 254.069C549.785 254.069 550.085 254.016 550.349 253.911C550.614 253.802 550.823 253.653 550.976 253.462C551.128 253.268 551.204 253.042 551.204 252.784C551.204 252.549 551.137 252.357 551.003 252.208C550.871 252.058 550.692 251.934 550.465 251.836C550.24 251.738 549.986 251.651 549.702 251.577L548.765 251.321C548.131 251.148 547.627 250.894 547.256 250.559C546.887 250.223 546.702 249.779 546.702 249.227C546.702 248.77 546.826 248.372 547.074 248.031C547.322 247.69 547.657 247.426 548.08 247.237C548.504 247.047 548.981 246.951 549.513 246.951C550.049 246.951 550.523 247.045 550.933 247.234C551.346 247.422 551.671 247.681 551.909 248.012C552.146 248.339 552.27 248.716 552.28 249.142H551.127ZM555.455 255.118C555.078 255.118 554.738 255.049 554.433 254.909C554.129 254.767 553.887 254.562 553.709 254.294C553.534 254.025 553.446 253.696 553.446 253.307C553.446 252.971 553.511 252.695 553.64 252.478C553.769 252.262 553.943 252.09 554.162 251.964C554.382 251.837 554.627 251.742 554.898 251.677C555.169 251.613 555.445 251.564 555.726 251.53C556.082 251.489 556.371 251.455 556.593 251.429C556.815 251.401 556.976 251.356 557.077 251.294C557.178 251.232 557.228 251.131 557.228 250.992V250.965C557.228 250.627 557.132 250.365 556.941 250.179C556.753 249.993 556.472 249.901 556.098 249.901C555.708 249.901 555.401 249.987 555.176 250.16C554.954 250.33 554.801 250.52 554.716 250.729L553.628 250.481C553.757 250.12 553.946 249.828 554.193 249.606C554.444 249.382 554.731 249.219 555.056 249.119C555.382 249.015 555.723 248.964 556.082 248.964C556.32 248.964 556.571 248.992 556.837 249.049C557.105 249.103 557.356 249.204 557.588 249.351C557.823 249.498 558.015 249.708 558.165 249.982C558.314 250.253 558.389 250.605 558.389 251.039V254.987H557.259V254.174H557.212C557.138 254.324 557.025 254.471 556.876 254.615C556.726 254.76 556.534 254.88 556.299 254.975C556.064 255.071 555.783 255.118 555.455 255.118ZM555.707 254.189C556.027 254.189 556.3 254.126 556.527 254C556.757 253.873 556.931 253.708 557.05 253.504C557.171 253.298 557.232 253.077 557.232 252.842V252.076C557.19 252.117 557.11 252.156 556.992 252.192C556.876 252.226 556.743 252.255 556.593 252.281C556.443 252.304 556.298 252.326 556.156 252.347C556.014 252.365 555.895 252.38 555.8 252.393C555.575 252.422 555.37 252.469 555.184 252.537C555.001 252.604 554.854 252.7 554.743 252.827C554.634 252.951 554.58 253.116 554.58 253.322C554.58 253.609 554.686 253.825 554.898 253.973C555.109 254.117 555.379 254.189 555.707 254.189ZM560.449 257.216C560.276 257.216 560.119 257.202 559.977 257.174C559.835 257.148 559.729 257.119 559.66 257.089L559.938 256.14C560.15 256.197 560.338 256.221 560.503 256.214C560.669 256.206 560.814 256.144 560.941 256.028C561.07 255.912 561.183 255.722 561.282 255.459L561.425 255.064L559.249 249.041H560.488L561.994 253.655H562.056L563.561 249.041H564.804L562.354 255.78C562.24 256.09 562.096 256.352 561.92 256.566C561.745 256.783 561.536 256.945 561.293 257.054C561.051 257.162 560.769 257.216 560.449 257.216ZM565.892 254.987V249.041H567.049V254.987H565.892Z" fill="#737373"/>
<defs>
<clipPath id="clip0_4_78">
<rect width="340.333" height="20" fill="white" transform="translate(49 16.1667)"/>
</clipPath>
<clipPath id="clip1_4_78">
<rect width="556.667" height="16" fill="white" transform="translate(29.6667 100.33)"/>
</clipPath>
<clipPath id="clip2_4_78">
<rect width="556.667" height="16" fill="white" transform="translate(29.6667 169.99)"/>
</clipPath>
<clipPath id="clip3_4_78">
<rect width="14" height="14" fill="white" transform="translate(277.84 243.987)"/>
</clipPath>
<clipPath id="clip4_4_78">
<rect width="14" height="14" fill="white" transform="translate(396.73 243.987)"/>
</clipPath>
</defs>
</svg>
