<svg width="616" height="285" viewBox="0 0 616 285" fill="none" xmlns="http://www.w3.org/2000/svg">
<rect width="616" height="284.653" rx="12" fill="#171717"/>
<rect x="0.5" y="0.5" width="615" height="283.653" rx="11.5" stroke="white" stroke-opacity="0.1"/>
<rect x="13" y="14.1667" width="24" height="24" rx="6" fill="white" fill-opacity="0.05"/>
<rect x="13.5" y="14.6667" width="23" height="23" rx="5.5" stroke="white" stroke-opacity="0.1"/>
<path d="M25.0029 29.8532C24.7228 29.8532 24.4828 29.7548 24.2827 29.5578C24.0827 29.3608 23.9842 29.1208 23.9873 28.8376C23.9842 28.5606 24.0827 28.3236 24.2827 28.1267C24.4828 27.9297 24.7228 27.8312 25.0029 27.8312C25.2737 27.8312 25.5092 27.9297 25.7092 28.1267C25.9123 28.3236 26.0154 28.5606 26.0185 28.8376C26.0154 29.0254 25.9662 29.1962 25.8708 29.35C25.7785 29.5039 25.6553 29.627 25.5015 29.7194C25.3507 29.8086 25.1845 29.8532 25.0029 29.8532Z" fill="#E5E5E5"/>
<g clip-path="url(#clip0_1_171)">
<path d="M50.908 31.1667H49.3356L52.8688 21.3485H54.5803L58.1135 31.1667H56.541L53.7653 23.1319H53.6886L50.908 31.1667ZM51.1717 27.3219H56.2725V28.5683H51.1717V27.3219ZM59.4162 31.1667V23.803H60.8017V24.9728H60.8784C61.0127 24.5765 61.2492 24.2649 61.5879 24.0379C61.9299 23.8078 62.3166 23.6928 62.7481 23.6928C62.8376 23.6928 62.943 23.696 63.0645 23.7024C63.1891 23.7088 63.2866 23.7167 63.3569 23.7263V25.0974C63.2994 25.0814 63.1971 25.0639 63.0501 25.0447C62.9031 25.0223 62.7561 25.0111 62.6091 25.0111C62.2703 25.0111 61.9683 25.083 61.703 25.2269C61.4409 25.3675 61.2332 25.564 61.0798 25.8165C60.9264 26.0658 60.8497 26.3503 60.8497 26.6699V31.1667H59.4162ZM66.6744 31.3297C66.2078 31.3297 65.7859 31.2434 65.4088 31.0708C65.0316 30.895 64.7328 30.6409 64.5123 30.3085C64.295 29.9762 64.1863 29.5687 64.1863 29.0861C64.1863 28.6706 64.2662 28.3286 64.426 28.0601C64.5858 27.7917 64.8015 27.5791 65.0732 27.4225C65.3449 27.2659 65.6485 27.1477 65.9841 27.0678C66.3196 26.9879 66.6616 26.9271 67.01 26.8856C67.451 26.8345 67.809 26.7929 68.0839 26.761C68.3587 26.7258 68.5585 26.6699 68.6831 26.5932C68.8078 26.5165 68.8701 26.3918 68.8701 26.2192V26.1857C68.8701 25.767 68.7518 25.4426 68.5153 25.2125C68.282 24.9824 67.9336 24.8673 67.4702 24.8673C66.9876 24.8673 66.6073 24.9744 66.3292 25.1885C66.0544 25.3994 65.8642 25.6344 65.7587 25.8932L64.4116 25.5864C64.5714 25.139 64.8047 24.7778 65.1116 24.503C65.4216 24.2249 65.7779 24.0236 66.1806 23.8989C66.5833 23.7711 67.0068 23.7072 67.451 23.7072C67.7451 23.7072 68.0567 23.7423 68.3859 23.8126C68.7183 23.8797 69.0283 24.0044 69.3159 24.1866C69.6068 24.3687 69.8449 24.6292 70.0302 24.968C70.2156 25.3036 70.3083 25.7398 70.3083 26.2768V31.1667H68.9084V30.1599H68.8509C68.7582 30.3453 68.6192 30.5275 68.4338 30.7064C68.2484 30.8854 68.0103 31.034 67.7195 31.1523C67.4287 31.2705 67.0803 31.3297 66.6744 31.3297ZM66.986 30.1791C67.3823 30.1791 67.7211 30.1008 68.0024 29.9442C68.2868 29.7876 68.5025 29.583 68.6495 29.3306C68.7998 29.0749 68.8749 28.8016 68.8749 28.5108V27.5616C68.8237 27.6127 68.7247 27.6606 68.5776 27.7054C68.4338 27.7469 68.2692 27.7837 68.0839 27.8156C67.8985 27.8444 67.7179 27.8716 67.5421 27.8971C67.3663 27.9195 67.2193 27.9387 67.1011 27.9547C66.823 27.9898 66.5689 28.049 66.3388 28.132C66.1119 28.2151 65.9297 28.335 65.7923 28.4916C65.6581 28.645 65.591 28.8496 65.591 29.1052C65.591 29.46 65.722 29.7285 65.9841 29.9106C66.2461 30.0896 66.5801 30.1791 66.986 30.1791ZM73.6509 21.3485V31.1667H72.2175V21.3485H73.6509ZM75.5793 31.1667V23.803H77.0127V31.1667H75.5793ZM80.2595 28.669L80.2499 26.9192H80.4992L83.4332 23.803H85.1494L81.8032 27.3506H81.5779L80.2595 28.669ZM78.9411 31.1667V21.3485H80.3746V31.1667H78.9411ZM83.5914 31.1667L80.9546 27.667L81.9422 26.6651L85.3508 31.1667H83.5914Z" fill="#E5E5E5"/>
</g>
<rect x="401.333" y="11" width="64.3333" height="30.3333" rx="8" fill="white" fill-opacity="0.05"/>
<rect x="401.833" y="11.5" width="63.3333" height="29.3333" rx="7.5" stroke="white" stroke-opacity="0.1"/>
<path d="M413.25 21.2917V27.7917" stroke="#A1A1A1" stroke-width="1.08333" stroke-linecap="round" stroke-linejoin="round"/>
<path d="M419.75 24.5417C420.647 24.5417 421.375 23.8141 421.375 22.9167C421.375 22.0192 420.647 21.2917 419.75 21.2917C418.852 21.2917 418.125 22.0192 418.125 22.9167C418.125 23.8141 418.852 24.5417 419.75 24.5417Z" stroke="#A1A1A1" stroke-width="1.08333" stroke-linecap="round" stroke-linejoin="round"/>
<path d="M413.25 31.0417C414.147 31.0417 414.875 30.3141 414.875 29.4167C414.875 28.5192 414.147 27.7917 413.25 27.7917C412.352 27.7917 411.625 28.5192 411.625 29.4167C411.625 30.3141 412.352 31.0417 413.25 31.0417Z" stroke="#A1A1A1" stroke-width="1.08333" stroke-linecap="round" stroke-linejoin="round"/>
<path d="M419.75 24.5417C419.75 25.8346 419.236 27.0746 418.322 27.9888C417.408 28.9031 416.168 29.4167 414.875 29.4167" stroke="#A1A1A1" stroke-width="1.08333" stroke-linecap="round" stroke-linejoin="round"/>
<path d="M430.155 29.6667V22.0303H431.307V25.677H431.401L434.603 22.0303H436.054L432.974 25.4682L436.065 29.6667H434.678L432.21 26.2549L431.307 27.2915V29.6667H430.155ZM439.03 29.7823C438.493 29.7823 438.025 29.6592 437.625 29.4131C437.224 29.167 436.914 28.8227 436.692 28.3803C436.471 27.9378 436.361 27.4208 436.361 26.8291C436.361 26.235 436.471 25.7155 436.692 25.2705C436.914 24.8256 437.224 24.4801 437.625 24.234C438.025 23.9879 438.493 23.8648 439.03 23.8648C439.567 23.8648 440.036 23.9879 440.436 24.234C440.836 24.4801 441.147 24.8256 441.368 25.2705C441.589 25.7155 441.7 26.235 441.7 26.8291C441.7 27.4208 441.589 27.9378 441.368 28.3803C441.147 28.8227 440.836 29.167 440.436 29.4131C440.036 29.6592 439.567 29.7823 439.03 29.7823ZM439.034 28.8464C439.382 28.8464 439.67 28.7544 439.899 28.5704C440.128 28.3865 440.297 28.1416 440.406 27.8359C440.518 27.5301 440.574 27.1933 440.574 26.8254C440.574 26.46 440.518 26.1244 440.406 25.8187C440.297 25.5104 440.128 25.2631 439.899 25.0767C439.67 24.8902 439.382 24.797 439.034 24.797C438.684 24.797 438.393 24.8902 438.162 25.0767C437.933 25.2631 437.763 25.5104 437.651 25.8187C437.541 26.1244 437.487 26.46 437.487 26.8254C437.487 27.1933 437.541 27.5301 437.651 27.8359C437.763 28.1416 437.933 28.3865 438.162 28.5704C438.393 28.7544 438.684 28.8464 439.034 28.8464ZM447.236 25.3377L446.226 25.5166C446.184 25.3874 446.116 25.2643 446.024 25.1475C445.935 25.0307 445.813 24.935 445.659 24.8604C445.505 24.7858 445.312 24.7485 445.081 24.7485C444.765 24.7485 444.502 24.8194 444.291 24.9611C444.079 25.1003 443.974 25.2805 443.974 25.5017C443.974 25.6931 444.045 25.8472 444.186 25.9641C444.328 26.0809 444.557 26.1766 444.872 26.2512L445.782 26.46C446.309 26.5818 446.702 26.7695 446.96 27.023C447.219 27.2766 447.348 27.6059 447.348 28.0111C447.348 28.3542 447.249 28.6599 447.05 28.9284C446.853 29.1944 446.579 29.4032 446.226 29.5548C445.875 29.7064 445.469 29.7823 445.007 29.7823C444.365 29.7823 443.842 29.6455 443.437 29.3721C443.032 29.0962 442.783 28.7047 442.691 28.1976L443.769 28.0335C443.836 28.3144 443.974 28.5269 444.182 28.6711C444.391 28.8128 444.663 28.8836 444.999 28.8836C445.364 28.8836 445.657 28.8078 445.875 28.6562C446.094 28.5021 446.203 28.3144 446.203 28.0932C446.203 27.9142 446.136 27.7638 446.002 27.642C445.87 27.5202 445.668 27.4282 445.394 27.3661L444.425 27.1535C443.89 27.0317 443.495 26.8378 443.239 26.5719C442.986 26.3059 442.859 25.9691 442.859 25.5614C442.859 25.2233 442.953 24.9275 443.142 24.674C443.331 24.4204 443.592 24.2228 443.925 24.0811C444.258 23.9369 444.64 23.8648 445.07 23.8648C445.689 23.8648 446.176 23.9991 446.532 24.2675C446.887 24.5335 447.122 24.8902 447.236 25.3377ZM444.671 29.6368H445.402L445.342 29.9426C445.558 29.9774 445.747 30.0644 445.909 30.2036C446.07 30.3428 446.151 30.5529 446.151 30.8338C446.154 31.1693 446.008 31.4415 445.715 31.6503C445.424 31.8591 445.003 31.9635 444.451 31.9635L444.429 31.3409C444.687 31.3409 444.896 31.3036 445.055 31.229C445.217 31.1544 445.299 31.0339 445.301 30.8673C445.304 30.7008 445.241 30.5839 445.115 30.5168C444.99 30.4497 444.791 30.4025 444.518 30.3751L444.671 29.6368ZM452.202 27.2915V23.9394H453.321V29.6667H452.224V28.6748H452.165C452.033 28.9806 451.822 29.2354 451.531 29.4392C451.242 29.6406 450.883 29.7412 450.453 29.7412C450.085 29.7412 449.76 29.6605 449.476 29.4989C449.195 29.3348 448.974 29.0925 448.813 28.7718C448.653 28.4511 448.574 28.0546 448.574 27.5823V23.9394H449.689V27.4481C449.689 27.8384 449.797 28.1491 450.013 28.3803C450.229 28.6115 450.51 28.727 450.856 28.727C451.065 28.727 451.272 28.6748 451.479 28.5704C451.687 28.466 451.86 28.3082 451.997 28.0969C452.136 27.8856 452.204 27.6171 452.202 27.2915ZM455.933 22.0303V29.6667H454.819V22.0303H455.933Z" fill="#A1A1A1"/>
<rect x="471.667" y="16.1667" width="1" height="20" fill="white" fill-opacity="0.1"/>
<rect x="478.667" y="11" width="124.333" height="30.3333" rx="8" fill="white" fill-opacity="0.05"/>
<rect x="479.167" y="11.5" width="123.333" height="29.3333" rx="7.5" stroke="white" stroke-opacity="0.1"/>
<rect x="481.333" y="13.6667" width="65" height="25" rx="8" fill="white" fill-opacity="0.1"/>
<path d="M497.016 25.9212C497.016 26.7113 496.873 27.394 496.588 27.9695C496.302 28.545 495.911 28.9888 495.414 29.3009C494.916 29.613 494.348 29.7691 493.709 29.7691C493.07 29.7691 492.502 29.613 492.005 29.3009C491.507 28.9888 491.116 28.545 490.831 27.9695C490.545 27.394 490.403 26.7113 490.403 25.9212C490.403 25.1312 490.545 24.4484 490.831 23.8729C491.116 23.2974 491.507 22.8537 492.005 22.5415C492.502 22.2294 493.07 22.0733 493.709 22.0733C494.348 22.0733 494.916 22.2294 495.414 22.5415C495.911 22.8537 496.302 23.2974 496.588 23.8729C496.873 24.4484 497.016 25.1312 497.016 25.9212ZM496.138 25.9212C496.138 25.2726 496.029 24.7252 495.812 24.2789C495.598 23.8327 495.306 23.495 494.938 23.2657C494.572 23.0365 494.163 22.9219 493.709 22.9219C493.256 22.9219 492.845 23.0365 492.477 23.2657C492.111 23.495 491.819 23.8327 491.602 24.2789C491.388 24.7252 491.281 25.2726 491.281 25.9212C491.281 26.5698 491.388 27.1173 491.602 27.5635C491.819 28.0097 492.111 28.3475 492.477 28.5767C492.845 28.8059 493.256 28.9205 493.709 28.9205C494.163 28.9205 494.572 28.8059 494.938 28.5767C495.306 28.3475 495.598 28.0097 495.812 27.5635C496.029 27.1173 496.138 26.5698 496.138 25.9212ZM498.424 31.7735V24.0485H499.258V24.941H499.36C499.424 24.8434 499.511 24.7191 499.624 24.5679C499.738 24.4143 499.902 24.2777 500.114 24.1582C500.328 24.0363 500.619 23.9753 500.984 23.9753C501.457 23.9753 501.874 24.0936 502.235 24.3301C502.596 24.5667 502.878 24.9019 503.08 25.336C503.283 25.77 503.384 26.2821 503.384 26.8722C503.384 27.4672 503.283 27.9829 503.08 28.4194C502.878 28.8534 502.597 29.19 502.239 29.4289C501.88 29.6655 501.467 29.7837 500.999 29.7837C500.638 29.7837 500.349 29.724 500.132 29.6045C499.915 29.4826 499.748 29.3448 499.631 29.1912C499.514 29.0351 499.424 28.9059 499.36 28.8035H499.287V31.7735H498.424ZM499.273 26.8576C499.273 27.2819 499.335 27.6562 499.459 27.9805C499.583 28.3024 499.765 28.5547 500.004 28.7376C500.243 28.9181 500.536 29.0083 500.882 29.0083C501.243 29.0083 501.544 28.9132 501.785 28.723C502.029 28.5304 502.212 28.2719 502.334 27.9476C502.458 27.6208 502.521 27.2575 502.521 26.8576C502.521 26.4626 502.46 26.1065 502.338 25.7895C502.218 25.4701 502.037 25.2177 501.793 25.0324C501.551 24.8446 501.248 24.7508 500.882 24.7508C500.531 24.7508 500.236 24.8398 499.997 25.0178C499.758 25.1933 499.577 25.4396 499.455 25.7566C499.333 26.0712 499.273 26.4382 499.273 26.8576ZM508.68 25.3067L507.905 25.5262C507.856 25.397 507.784 25.2714 507.689 25.1494C507.596 25.0251 507.469 24.9227 507.308 24.8422C507.147 24.7617 506.941 24.7215 506.69 24.7215C506.346 24.7215 506.06 24.8008 505.831 24.9592C505.604 25.1153 505.491 25.314 505.491 25.5554C505.491 25.77 505.569 25.9395 505.725 26.0639C505.881 26.1882 506.125 26.2919 506.456 26.3748L507.29 26.5796C507.792 26.7015 508.167 26.8881 508.413 27.1392C508.659 27.3879 508.782 27.7086 508.782 28.1012C508.782 28.4231 508.69 28.7108 508.504 28.9644C508.322 29.218 508.066 29.418 507.736 29.5643C507.407 29.7106 507.024 29.7837 506.588 29.7837C506.015 29.7837 505.541 29.6594 505.165 29.4106C504.79 29.1619 504.552 28.7986 504.452 28.3206L505.271 28.1158C505.349 28.4182 505.497 28.645 505.714 28.7961C505.933 28.9473 506.22 29.0229 506.573 29.0229C506.976 29.0229 507.295 28.9376 507.532 28.7669C507.771 28.5938 507.89 28.3865 507.89 28.1451C507.89 27.95 507.822 27.7866 507.685 27.655C507.549 27.5208 507.339 27.4209 507.056 27.355L506.12 27.1356C505.605 27.0136 505.227 26.8247 504.986 26.5686C504.747 26.3101 504.627 25.9871 504.627 25.5993C504.627 25.2823 504.716 25.0019 504.894 24.7581C505.075 24.5142 505.32 24.3228 505.63 24.1838C505.942 24.0448 506.295 23.9753 506.69 23.9753C507.246 23.9753 507.683 24.0973 508 24.3411C508.319 24.5849 508.546 24.9068 508.68 25.3067ZM510.082 29.6667V24.0485H510.945V29.6667H510.082ZM510.521 23.1121C510.353 23.1121 510.207 23.0548 510.086 22.9402C509.966 22.8256 509.906 22.6878 509.906 22.5269C509.906 22.366 509.966 22.2282 510.086 22.1136C510.207 21.999 510.353 21.9417 510.521 21.9417C510.689 21.9417 510.833 21.999 510.952 22.1136C511.074 22.2282 511.135 22.366 511.135 22.5269C511.135 22.6878 511.074 22.8256 510.952 22.9402C510.833 23.0548 510.689 23.1121 510.521 23.1121ZM513.082 31.7735C512.936 31.7735 512.805 31.7613 512.691 31.7369C512.576 31.715 512.497 31.693 512.453 31.6711L512.672 30.9103C512.882 30.9639 513.067 30.9834 513.228 30.9688C513.389 30.9542 513.532 30.8822 513.656 30.753C513.783 30.6262 513.899 30.4202 514.004 30.1349L514.165 29.6959L512.087 24.0485H513.024L514.574 28.5255H514.633L516.184 24.0485H517.12L514.735 30.486C514.628 30.7762 514.495 31.0164 514.337 31.2066C514.178 31.3992 513.994 31.5418 513.784 31.6345C513.577 31.7272 513.343 31.7735 513.082 31.7735ZM520.341 29.7837C519.834 29.7837 519.388 29.663 519.006 29.4216C518.625 29.1802 518.328 28.8425 518.113 28.4084C517.901 27.9744 517.795 27.4672 517.795 26.8868C517.795 26.3016 517.901 25.7908 518.113 25.3543C518.328 24.9178 518.625 24.5789 519.006 24.3374C519.388 24.096 519.834 23.9753 520.341 23.9753C520.848 23.9753 521.292 24.096 521.672 24.3374C522.055 24.5789 522.352 24.9178 522.565 25.3543C522.779 25.7908 522.886 26.3016 522.886 26.8868C522.886 27.4672 522.779 27.9744 522.565 28.4084C522.352 28.8425 522.055 29.1802 521.672 29.4216C521.292 29.663 520.848 29.7837 520.341 29.7837ZM520.341 29.0083C520.726 29.0083 521.043 28.9095 521.292 28.712C521.54 28.5145 521.725 28.2548 521.844 27.9329C521.963 27.6111 522.023 27.2624 522.023 26.8868C522.023 26.5113 521.963 26.1614 521.844 25.8371C521.725 25.5128 521.54 25.2506 521.292 25.0507C521.043 24.8507 520.726 24.7508 520.341 24.7508C519.955 24.7508 519.638 24.8507 519.39 25.0507C519.141 25.2506 518.957 25.5128 518.837 25.8371C518.718 26.1614 518.658 26.5113 518.658 26.8868C518.658 27.2624 518.718 27.6111 518.837 27.9329C518.957 28.2548 519.141 28.5145 519.39 28.712C519.638 28.9095 519.955 29.0083 520.341 29.0083ZM525.067 26.287V29.6667H524.204V24.0485H525.038V24.9263H525.111C525.243 24.641 525.443 24.4118 525.711 24.2387C525.979 24.0631 526.326 23.9753 526.75 23.9753C527.13 23.9753 527.463 24.0534 527.748 24.2094C528.034 24.363 528.256 24.5971 528.414 24.9117C528.573 25.2238 528.652 25.6188 528.652 26.0968V29.6667H527.789V26.1553C527.789 25.7139 527.674 25.3701 527.445 25.1238C527.216 24.8751 526.901 24.7508 526.501 24.7508C526.226 24.7508 525.979 24.8105 525.762 24.93C525.548 25.0495 525.378 25.2238 525.254 25.453C525.13 25.6822 525.067 25.9602 525.067 26.287ZM532.585 29.7837C532.043 29.7837 531.576 29.6642 531.184 29.4253C530.794 29.1839 530.493 28.8474 530.28 28.4157C530.071 27.9817 529.966 27.4769 529.966 26.9015C529.966 26.326 530.071 25.8188 530.28 25.3799C530.493 24.9385 530.788 24.5947 531.166 24.3484C531.546 24.0997 531.99 23.9753 532.497 23.9753C532.79 23.9753 533.079 24.0241 533.364 24.1216C533.649 24.2192 533.909 24.3777 534.143 24.5971C534.377 24.8142 534.564 25.1019 534.703 25.4604C534.842 25.8188 534.911 26.2602 534.911 26.7844V27.1502H530.58V26.404H534.033C534.033 26.087 533.97 25.8042 533.843 25.5554C533.719 25.3067 533.541 25.1104 533.309 24.9666C533.08 24.8227 532.809 24.7508 532.497 24.7508C532.153 24.7508 531.856 24.8361 531.605 25.0068C531.356 25.1751 531.164 25.3945 531.03 25.6652C530.896 25.9358 530.829 26.226 530.829 26.5357V27.0331C530.829 27.4574 530.902 27.8171 531.049 28.1122C531.197 28.4048 531.403 28.6279 531.667 28.7815C531.93 28.9327 532.236 29.0083 532.585 29.0083C532.812 29.0083 533.016 28.9766 533.199 28.9132C533.385 28.8474 533.544 28.7498 533.678 28.6206C533.813 28.4889 533.916 28.3255 533.989 28.1305L534.823 28.3645C534.735 28.6474 534.588 28.8961 534.381 29.1107C534.173 29.3229 533.917 29.4887 533.613 29.6081C533.308 29.7252 532.965 29.7837 532.585 29.7837ZM537.087 22.1758V29.6667H536.224V22.1758H537.087Z" fill="#F5F5F5"/>
<path d="M555.219 29.6667V28.9955L559.336 22.8506H555.175V22.0303H560.439V22.7015L556.323 28.8464H560.484V29.6667H555.219ZM564.243 29.786C563.726 29.786 563.272 29.6629 562.882 29.4168C562.494 29.1708 562.191 28.8265 561.972 28.384C561.756 27.9415 561.648 27.4245 561.648 26.8329C561.648 26.2363 561.756 25.7155 561.972 25.2705C562.191 24.8256 562.494 24.4801 562.882 24.234C563.272 23.9879 563.726 23.8648 564.243 23.8648C564.76 23.8648 565.212 23.9879 565.6 24.234C565.99 24.4801 566.293 24.8256 566.51 25.2705C566.728 25.7155 566.838 26.2363 566.838 26.8329C566.838 27.4245 566.728 27.9415 566.51 28.384C566.293 28.8265 565.99 29.1708 565.6 29.4168C565.212 29.6629 564.76 29.786 564.243 29.786ZM564.243 28.9955C564.635 28.9955 564.959 28.8948 565.212 28.6935C565.466 28.4921 565.653 28.2274 565.775 27.8993C565.897 27.5711 565.958 27.2157 565.958 26.8329C565.958 26.4501 565.897 26.0933 565.775 25.7627C565.653 25.4321 565.466 25.1649 565.212 24.9611C564.959 24.7572 564.635 24.6553 564.243 24.6553C563.85 24.6553 563.527 24.7572 563.273 24.9611C563.02 25.1649 562.832 25.4321 562.71 25.7627C562.588 26.0933 562.527 26.4501 562.527 26.8329C562.527 27.2157 562.588 27.5711 562.71 27.8993C562.832 28.2274 563.02 28.4921 563.273 28.6935C563.527 28.8948 563.85 28.9955 564.243 28.9955ZM568.181 29.6667V23.9394H569.031V24.8045H569.091C569.195 24.5211 569.384 24.2911 569.658 24.1146C569.931 23.9382 570.239 23.8499 570.582 23.8499C570.647 23.8499 570.728 23.8512 570.825 23.8536C570.922 23.8561 570.995 23.8599 571.045 23.8648V24.7597C571.015 24.7523 570.947 24.7411 570.84 24.7262C570.735 24.7088 570.625 24.7001 570.508 24.7001C570.229 24.7001 569.981 24.7585 569.762 24.8753C569.546 24.9896 569.374 25.1487 569.248 25.3526C569.123 25.5539 569.061 25.7839 569.061 26.0424V29.6667H568.181ZM575.697 27.3251V23.9394H576.577V29.6667H575.697V28.6972H575.638C575.503 28.988 575.295 29.2354 575.011 29.4392C574.728 29.6406 574.37 29.7412 573.937 29.7412C573.579 29.7412 573.261 29.6629 572.983 29.5063C572.704 29.3472 572.486 29.1086 572.327 28.7904C572.167 28.4698 572.088 28.0658 572.088 27.5786V23.9394H572.968V27.5189C572.968 27.9366 573.085 28.2697 573.318 28.5182C573.554 28.7668 573.855 28.8911 574.221 28.8911C574.439 28.8911 574.662 28.8352 574.888 28.7233C575.117 28.6115 575.308 28.4399 575.462 28.2088C575.619 27.9776 575.697 27.683 575.697 27.3251ZM579.069 26.2214V29.6667H578.189V23.9394H579.039V24.8343H579.114C579.248 24.5434 579.452 24.3098 579.725 24.1333C579.999 23.9543 580.352 23.8648 580.784 23.8648C581.172 23.8648 581.511 23.9444 581.802 24.1035C582.093 24.2601 582.319 24.4987 582.481 24.8194C582.642 25.1376 582.723 25.5403 582.723 26.0275V29.6667H581.843V26.0871C581.843 25.6372 581.726 25.2867 581.493 25.0356C581.259 24.7821 580.938 24.6553 580.531 24.6553C580.25 24.6553 579.999 24.7162 579.777 24.838C579.559 24.9598 579.386 25.1376 579.259 25.3712C579.132 25.6049 579.069 25.8883 579.069 26.2214ZM585.211 22.0303V29.6667H584.331V22.0303H585.211ZM590.432 27.3251V23.9394H591.312V29.6667H590.432V28.6972H590.372C590.238 28.988 590.029 29.2354 589.746 29.4392C589.463 29.6406 589.105 29.7412 588.672 29.7412C588.314 29.7412 587.996 29.6629 587.718 29.5063C587.439 29.3472 587.22 29.1086 587.061 28.7904C586.902 28.4698 586.823 28.0658 586.823 27.5786V23.9394H587.703V27.5189C587.703 27.9366 587.82 28.2697 588.053 28.5182C588.289 28.7668 588.59 28.8911 588.956 28.8911C589.174 28.8911 589.397 28.8352 589.623 28.7233C589.852 28.6115 590.043 28.4399 590.197 28.2088C590.354 27.9776 590.432 27.683 590.432 27.3251Z" fill="#D4D4D4"/>
<path d="M24.0039 74.3697C23.9641 74.0167 23.8001 73.7433 23.5117 73.5494C23.2234 73.353 22.8604 73.2548 22.4229 73.2548C22.1097 73.2548 21.8388 73.3045 21.6101 73.4039C21.3814 73.5009 21.2037 73.6351 21.0769 73.8066C20.9526 73.9757 20.8904 74.1683 20.8904 74.3846C20.8904 74.5661 20.9327 74.7227 21.0172 74.8544C21.1042 74.9862 21.2173 75.0968 21.3565 75.1863C21.4982 75.2733 21.6499 75.3466 21.8114 75.4062C21.973 75.4634 22.1284 75.5107 22.2775 75.5479L23.0233 75.7418C23.2669 75.8015 23.5167 75.8823 23.7727 75.9842C24.0288 76.0861 24.2662 76.2203 24.4849 76.3869C24.7037 76.5534 24.8801 76.7598 25.0144 77.0059C25.1511 77.252 25.2195 77.5465 25.2195 77.8896C25.2195 78.3221 25.1076 78.7061 24.8839 79.0417C24.6626 79.3773 24.3407 79.642 23.9181 79.8359C23.498 80.0298 22.9897 80.1268 22.3931 80.1268C21.8214 80.1268 21.3267 80.036 20.9091 79.8546C20.4915 79.6731 20.1646 79.4158 19.9284 79.0827C19.6923 78.7472 19.5618 78.3494 19.5369 77.8896H20.6928C20.7152 78.1655 20.8047 78.3954 20.9613 78.5794C21.1204 78.7608 21.323 78.8963 21.5691 78.9858C21.8176 79.0728 22.0898 79.1163 22.3857 79.1163C22.7113 79.1163 23.0009 79.0653 23.2544 78.9634C23.5105 78.859 23.7118 78.7148 23.8585 78.5309C24.0051 78.3445 24.0785 78.127 24.0785 77.8784C24.0785 77.6522 24.0138 77.467 23.8846 77.3228C23.7578 77.1786 23.585 77.0593 23.3663 76.9648C23.15 76.8704 22.9052 76.7871 22.6317 76.715L21.7294 76.4689C21.1179 76.3024 20.6332 76.0575 20.2752 75.7344C19.9197 75.4112 19.742 74.9837 19.742 74.4517C19.742 74.0117 19.8613 73.6277 20.1 73.2995C20.3386 72.9714 20.6618 72.7166 21.0694 72.5352C21.4771 72.3512 21.937 72.2592 22.449 72.2592C22.9661 72.2592 23.4222 72.35 23.8175 72.5314C24.2152 72.7129 24.5284 72.9627 24.7571 73.2809C24.9858 73.5966 25.1051 73.9595 25.1151 74.3697H24.0039ZM33.5046 76.1818C33.5046 76.9972 33.3555 77.6982 33.0572 78.2848C32.7589 78.869 32.35 79.3189 31.8304 79.6346C31.3134 79.9478 30.7255 80.1044 30.0668 80.1044C29.4055 80.1044 28.8152 79.9478 28.2956 79.6346C27.7786 79.3189 27.3709 78.8677 27.0726 78.2811C26.7743 77.6944 26.6252 76.9947 26.6252 76.1818C26.6252 75.3665 26.7743 74.6667 27.0726 74.0826C27.3709 73.4959 27.7786 73.046 28.2956 72.7328C28.8152 72.4171 29.4055 72.2592 30.0668 72.2592C30.7255 72.2592 31.3134 72.4171 31.8304 72.7328C32.35 73.046 32.7589 73.4959 33.0572 74.0826C33.3555 74.6667 33.5046 75.3665 33.5046 76.1818ZM32.3636 76.1818C32.3636 75.5604 32.263 75.0371 32.0616 74.612C31.8628 74.1845 31.5893 73.8613 31.2413 73.6426C30.8958 73.4213 30.5043 73.3107 30.0668 73.3107C29.6268 73.3107 29.234 73.4213 28.8885 73.6426C28.543 73.8613 28.2695 74.1845 28.0682 74.612C27.8693 75.0371 27.7699 75.5604 27.7699 76.1818C27.7699 76.8033 27.8693 77.3278 28.0682 77.7553C28.2695 78.1804 28.543 78.5036 28.8885 78.7248C29.234 78.9435 29.6268 79.0529 30.0668 79.0529C30.5043 79.0529 30.8958 78.9435 31.2413 78.7248C31.5893 78.5036 31.8628 78.1804 32.0616 77.7553C32.263 77.3278 32.3636 76.8033 32.3636 76.1818ZM35.2161 80V72.3636H37.9381C38.5297 72.3636 39.0206 72.4656 39.4109 72.6694C39.8036 72.8732 40.097 73.1554 40.2909 73.5158C40.4847 73.8738 40.5817 74.2876 40.5817 74.7575C40.5817 75.2248 40.4835 75.6362 40.2871 75.9917C40.0932 76.3446 39.7999 76.6193 39.4072 76.8157C39.0169 77.0121 38.5259 77.1103 37.9343 77.1103H35.8724V76.1184H37.8299C38.2028 76.1184 38.5061 76.065 38.7397 75.9581C38.9759 75.8512 39.1486 75.6958 39.258 75.492C39.3674 75.2882 39.4221 75.0433 39.4221 74.7575C39.4221 74.4691 39.3661 74.2193 39.2543 74.008C39.1449 73.7967 38.9721 73.6351 38.736 73.5233C38.5023 73.4089 38.1953 73.3517 37.815 73.3517H36.3683V80H35.2161ZM38.9858 76.5547L40.8725 80H39.56L37.7106 76.5547H38.9858ZM47.1694 72.3636H48.3253V77.3862C48.3253 77.9206 48.1997 78.3942 47.9487 78.8068C47.6976 79.217 47.3446 79.5401 46.8897 79.7763C46.4348 80.0099 45.9016 80.1268 45.2901 80.1268C44.6811 80.1268 44.1491 80.0099 43.6942 79.7763C43.2393 79.5401 42.8863 79.217 42.6353 78.8068C42.3842 78.3942 42.2587 77.9206 42.2587 77.3862V72.3636H43.4108V77.293C43.4108 77.6385 43.4867 77.9455 43.6383 78.214C43.7924 78.4824 44.0099 78.6937 44.2908 78.8478C44.5717 78.9995 44.9048 79.0753 45.2901 79.0753C45.6779 79.0753 46.0122 78.9995 46.2931 78.8478C46.5765 78.6937 46.7928 78.4824 46.9419 78.214C47.0936 77.9455 47.1694 77.6385 47.1694 77.293V72.3636ZM53.3292 72.3636H54.7275L57.1586 78.2997H57.248L59.6792 72.3636H61.0774V80H59.9812V74.4741H59.9103L57.6582 79.9888H56.7484L54.4963 74.4703H54.4254V80H53.3292V72.3636ZM63.0275 80V72.3636H67.8152V73.3555H64.1797V75.6822H67.5654V76.6703H64.1797V79.0082H67.8599V80H63.0275ZM69.2526 73.3555V72.3636H75.1626V73.3555H72.7799V80H71.6315V73.3555H69.2526ZM82.9071 72.3636V80H81.8481L77.9666 74.3995H77.8957V80H76.7435V72.3636H77.81L81.6953 77.9716H81.7661V72.3636H82.9071ZM86.0149 72.3636V80H84.8628V72.3636H86.0149Z" fill="#A1A1A1"/>
<rect x="17" y="91" width="582" height="34.66" rx="8" fill="#171717" fill-opacity="0.6"/>
<rect x="17.5" y="91.5" width="581" height="33.66" rx="7.5" stroke="white" stroke-opacity="0.1"/>
<g clip-path="url(#clip1_1_171)">
<path d="M35.982 106.239C35.9266 105.771 35.7019 105.408 35.308 105.15C34.914 104.891 34.4308 104.762 33.8584 104.762C33.4398 104.762 33.0736 104.83 32.7597 104.965C32.4488 105.1 32.2057 105.287 32.0303 105.524C31.8579 105.761 31.7717 106.03 31.7717 106.331C31.7717 106.584 31.8318 106.801 31.9518 106.982C32.0749 107.161 32.2318 107.31 32.4227 107.43C32.6135 107.547 32.8135 107.644 33.0228 107.721C33.2321 107.795 33.4244 107.855 33.5999 107.901L34.5601 108.16C34.8063 108.224 35.0802 108.313 35.3818 108.427C35.6865 108.541 35.9774 108.697 36.2543 108.894C36.5344 109.087 36.7652 109.337 36.9468 109.641C37.1284 109.946 37.2192 110.32 37.2192 110.763C37.2192 111.274 37.0853 111.736 36.8175 112.148C36.5529 112.561 36.1651 112.888 35.6542 113.131C35.1464 113.375 34.5293 113.496 33.803 113.496C33.1259 113.496 32.5396 113.387 32.0441 113.168C31.5517 112.95 31.1639 112.645 30.8808 112.254C30.6007 111.863 30.4422 111.41 30.4053 110.892H31.5871C31.6179 111.249 31.7379 111.545 31.9472 111.779C32.1595 112.01 32.4273 112.182 32.7504 112.296C33.0767 112.407 33.4275 112.462 33.803 112.462C34.24 112.462 34.6324 112.391 34.9802 112.25C35.328 112.105 35.6034 111.905 35.8065 111.65C36.0097 111.391 36.1112 111.089 36.1112 110.745C36.1112 110.431 36.0235 110.175 35.8481 109.978C35.6727 109.781 35.4418 109.621 35.1556 109.498C34.8694 109.375 34.5601 109.267 34.2277 109.175L33.0644 108.843C32.3257 108.63 31.741 108.327 31.3101 107.933C30.8792 107.539 30.6638 107.024 30.6638 106.387C30.6638 105.857 30.8069 105.396 31.0931 105.002C31.3824 104.605 31.7702 104.297 32.2565 104.079C32.7458 103.857 33.2921 103.746 33.8953 103.746C34.5047 103.746 35.0464 103.855 35.5203 104.074C35.9943 104.289 36.3698 104.585 36.6467 104.96C36.9268 105.336 37.0745 105.762 37.0899 106.239H35.982ZM41.8345 113.478C41.1944 113.478 40.6327 113.325 40.1495 113.021C39.6694 112.716 39.2939 112.29 39.0231 111.742C38.7553 111.194 38.6214 110.554 38.6214 109.821C38.6214 109.083 38.7553 108.438 39.0231 107.887C39.2939 107.336 39.6694 106.908 40.1495 106.604C40.6327 106.299 41.1944 106.147 41.8345 106.147C42.4747 106.147 43.0348 106.299 43.5149 106.604C43.9981 106.908 44.3736 107.336 44.6413 107.887C44.9122 108.438 45.0476 109.083 45.0476 109.821C45.0476 110.554 44.9122 111.194 44.6413 111.742C44.3736 112.29 43.9981 112.716 43.5149 113.021C43.0348 113.325 42.4747 113.478 41.8345 113.478ZM41.8345 112.499C42.3208 112.499 42.7209 112.374 43.0348 112.125C43.3487 111.876 43.5811 111.548 43.7319 111.142C43.8827 110.736 43.9581 110.295 43.9581 109.821C43.9581 109.348 43.8827 108.906 43.7319 108.497C43.5811 108.087 43.3487 107.756 43.0348 107.504C42.7209 107.252 42.3208 107.125 41.8345 107.125C41.3482 107.125 40.9481 107.252 40.6342 107.504C40.3203 107.756 40.0879 108.087 39.9371 108.497C39.7863 108.906 39.7109 109.348 39.7109 109.821C39.7109 110.295 39.7863 110.736 39.9371 111.142C40.0879 111.548 40.3203 111.876 40.6342 112.125C40.9481 112.374 41.3482 112.499 41.8345 112.499ZM46.7107 113.33V106.239H47.7632V107.31H47.8371C47.9663 106.959 48.2002 106.675 48.5388 106.456C48.8773 106.238 49.259 106.128 49.6837 106.128C49.7637 106.128 49.8637 106.13 49.9837 106.133C50.1038 106.136 50.1946 106.141 50.2561 106.147V107.255C50.2192 107.245 50.1345 107.232 50.0022 107.213C49.8729 107.192 49.736 107.181 49.5913 107.181C49.2466 107.181 48.9389 107.253 48.668 107.398C48.4003 107.539 48.1879 107.736 48.031 107.989C47.8771 108.238 47.8001 108.523 47.8001 108.843V113.33H46.7107ZM56.0163 110.431V106.239H57.1058V113.33H56.0163V112.13H55.9425C55.7763 112.49 55.5177 112.796 55.1669 113.048C54.816 113.298 54.3729 113.422 53.8373 113.422C53.3942 113.422 53.0002 113.325 52.6555 113.131C52.3108 112.935 52.04 112.639 51.843 112.245C51.6461 111.848 51.5476 111.348 51.5476 110.745V106.239H52.6371V110.671C52.6371 111.188 52.7817 111.6 53.071 111.908C53.3634 112.216 53.7358 112.37 54.1882 112.37C54.459 112.37 54.7345 112.301 55.0145 112.162C55.2977 112.024 55.5347 111.811 55.7255 111.525C55.9194 111.239 56.0163 110.874 56.0163 110.431ZM60.1908 109.064V113.33H59.1013V106.239H60.1538V107.347H60.2462C60.4124 106.987 60.6647 106.698 61.0033 106.479C61.3418 106.258 61.7788 106.147 62.3144 106.147C62.7945 106.147 63.2146 106.245 63.5747 106.442C63.9347 106.636 64.2148 106.932 64.4149 107.329C64.6149 107.723 64.7149 108.221 64.7149 108.824V113.33H63.6254V108.898C63.6254 108.341 63.4808 107.907 63.1915 107.596C62.9022 107.282 62.5052 107.125 62.0004 107.125C61.6527 107.125 61.3418 107.201 61.0679 107.352C60.7971 107.502 60.5832 107.723 60.4262 108.012C60.2693 108.301 60.1908 108.652 60.1908 109.064ZM71.1745 110.431V106.239H72.264V113.33H71.1745V112.13H71.1007C70.9345 112.49 70.6759 112.796 70.3251 113.048C69.9742 113.298 69.5311 113.422 68.9955 113.422C68.5524 113.422 68.1584 113.325 67.8137 113.131C67.469 112.935 67.1982 112.639 67.0012 112.245C66.8043 111.848 66.7058 111.348 66.7058 110.745V106.239H67.7953V110.671C67.7953 111.188 67.9399 111.6 68.2292 111.908C68.5216 112.216 68.894 112.37 69.3464 112.37C69.6172 112.37 69.8927 112.301 70.1728 112.162C70.4559 112.024 70.6929 111.811 70.8837 111.525C71.0776 111.239 71.1745 110.874 71.1745 110.431ZM74.0564 113.33V112.499L78.0819 107.329V107.255H74.1856V106.239H79.4853V107.107L75.5706 112.24V112.314H79.6146V113.33H74.0564ZM85.7614 110.431V106.239H86.8509V113.33H85.7614V112.13H85.6876C85.5214 112.49 85.2629 112.796 84.912 113.048C84.5612 113.298 84.118 113.422 83.5825 113.422C83.1393 113.422 82.7453 113.325 82.4006 113.131C82.0559 112.935 81.7851 112.639 81.5881 112.245C81.3912 111.848 81.2927 111.348 81.2927 110.745V106.239H82.3822V110.671C82.3822 111.188 82.5268 111.6 82.8161 111.908C83.1085 112.216 83.4809 112.37 83.9333 112.37C84.2041 112.37 84.4796 112.301 84.7597 112.162C85.0428 112.024 85.2798 111.811 85.4706 111.525C85.6645 111.239 85.7614 110.874 85.7614 110.431ZM92.6504 113.33V103.875H93.7399V107.365H93.8322C93.9122 107.242 94.023 107.085 94.1646 106.895C94.3092 106.701 94.5154 106.528 94.7832 106.378C95.054 106.224 95.4203 106.147 95.8819 106.147C96.479 106.147 97.0053 106.296 97.4607 106.595C97.9162 106.893 98.2717 107.316 98.5272 107.864C98.7826 108.412 98.9103 109.058 98.9103 109.803C98.9103 110.554 98.7826 111.205 98.5272 111.756C98.2717 112.304 97.9178 112.728 97.4654 113.03C97.013 113.328 96.4913 113.478 95.9004 113.478C95.4449 113.478 95.0802 113.402 94.8063 113.252C94.5324 113.098 94.3215 112.924 94.1738 112.73C94.0261 112.533 93.9122 112.37 93.8322 112.24H93.7029V113.33H92.6504ZM93.7214 109.785C93.7214 110.32 93.7999 110.792 93.9568 111.202C94.1138 111.608 94.3431 111.927 94.6447 112.157C94.9463 112.385 95.3156 112.499 95.7527 112.499C96.2081 112.499 96.5882 112.379 96.8929 112.139C97.2007 111.896 97.4315 111.57 97.5854 111.16C97.7424 110.748 97.8208 110.289 97.8208 109.785C97.8208 109.286 97.7439 108.837 97.59 108.437C97.4392 108.033 97.2099 107.715 96.9022 107.481C96.5975 107.244 96.2143 107.125 95.7527 107.125C95.3095 107.125 94.9371 107.238 94.6355 107.462C94.3339 107.684 94.1061 107.995 93.9522 108.395C93.7983 108.792 93.7214 109.255 93.7214 109.785ZM105.046 110.431V106.239H106.135V113.33H105.046V112.13H104.972C104.806 112.49 104.547 112.796 104.196 113.048C103.845 113.298 103.402 113.422 102.867 113.422C102.423 113.422 102.03 113.325 101.685 113.131C101.34 112.935 101.069 112.639 100.872 112.245C100.675 111.848 100.577 111.348 100.577 110.745V106.239H101.666V110.671C101.666 111.188 101.811 111.6 102.1 111.908C102.393 112.216 102.765 112.37 103.217 112.37C103.488 112.37 103.764 112.301 104.044 112.162C104.327 112.024 104.564 111.811 104.755 111.525C104.949 111.239 105.046 110.874 105.046 110.431ZM108.131 113.33V106.239H109.183V107.31H109.257C109.386 106.959 109.62 106.675 109.959 106.456C110.297 106.238 110.679 106.128 111.104 106.128C111.184 106.128 111.284 106.13 111.404 106.133C111.524 106.136 111.614 106.141 111.676 106.147V107.255C111.639 107.245 111.554 107.232 111.422 107.213C111.293 107.192 111.156 107.181 111.011 107.181C110.667 107.181 110.359 107.253 110.088 107.398C109.82 107.539 109.608 107.736 109.451 107.989C109.297 108.238 109.22 108.523 109.22 108.843V113.33H108.131ZM115.054 113.496C114.605 113.496 114.197 113.412 113.831 113.242C113.465 113.07 113.174 112.822 112.958 112.499C112.743 112.173 112.635 111.779 112.635 111.317C112.635 110.911 112.715 110.582 112.875 110.329C113.035 110.074 113.249 109.874 113.517 109.729C113.785 109.584 114.08 109.477 114.403 109.406C114.729 109.332 115.057 109.274 115.387 109.231C115.817 109.175 116.167 109.134 116.434 109.106C116.705 109.075 116.902 109.024 117.025 108.954C117.152 108.883 117.215 108.76 117.215 108.584V108.547C117.215 108.092 117.09 107.738 116.841 107.486C116.595 107.233 116.221 107.107 115.719 107.107C115.199 107.107 114.791 107.221 114.496 107.449C114.2 107.676 113.992 107.919 113.872 108.178L112.838 107.809C113.023 107.378 113.269 107.042 113.577 106.802C113.888 106.559 114.226 106.39 114.592 106.294C114.962 106.196 115.325 106.147 115.682 106.147C115.91 106.147 116.171 106.174 116.467 106.23C116.765 106.282 117.053 106.391 117.33 106.558C117.61 106.724 117.842 106.975 118.027 107.31C118.212 107.646 118.304 108.095 118.304 108.658V113.33H117.215V112.37H117.159C117.085 112.524 116.962 112.688 116.79 112.864C116.618 113.039 116.388 113.188 116.102 113.312C115.816 113.435 115.467 113.496 115.054 113.496ZM115.22 112.517C115.651 112.517 116.014 112.433 116.31 112.264C116.608 112.094 116.833 111.876 116.984 111.608C117.138 111.34 117.215 111.059 117.215 110.763V109.766C117.168 109.821 117.067 109.872 116.91 109.918C116.756 109.961 116.578 110 116.374 110.034C116.174 110.065 115.979 110.092 115.788 110.117C115.6 110.138 115.448 110.157 115.331 110.172C115.048 110.209 114.783 110.269 114.537 110.352C114.294 110.432 114.097 110.554 113.946 110.717C113.798 110.877 113.725 111.096 113.725 111.373C113.725 111.751 113.865 112.037 114.145 112.231C114.428 112.422 114.786 112.517 115.22 112.517ZM120.74 115.989C120.556 115.989 120.391 115.974 120.247 115.943C120.102 115.915 120.002 115.888 119.946 115.86L120.223 114.9C120.488 114.967 120.722 114.992 120.925 114.973C121.128 114.955 121.308 114.864 121.465 114.701C121.625 114.541 121.772 114.281 121.904 113.921L122.107 113.367L119.485 106.239H120.667L122.624 111.89H122.698L124.655 106.239H125.837L122.827 114.364C122.692 114.73 122.524 115.033 122.324 115.274C122.124 115.517 121.892 115.697 121.627 115.814C121.365 115.931 121.07 115.989 120.74 115.989ZM129.146 113.496C128.697 113.496 128.289 113.412 127.923 113.242C127.556 113.07 127.265 112.822 127.05 112.499C126.835 112.173 126.727 111.779 126.727 111.317C126.727 110.911 126.807 110.582 126.967 110.329C127.127 110.074 127.341 109.874 127.609 109.729C127.876 109.584 128.172 109.477 128.495 109.406C128.821 109.332 129.149 109.274 129.478 109.231C129.909 109.175 130.259 109.134 130.526 109.106C130.797 109.075 130.994 109.024 131.117 108.954C131.243 108.883 131.306 108.76 131.306 108.584V108.547C131.306 108.092 131.182 107.738 130.933 107.486C130.686 107.233 130.312 107.107 129.811 107.107C129.291 107.107 128.883 107.221 128.587 107.449C128.292 107.676 128.084 107.919 127.964 108.178L126.93 107.809C127.115 107.378 127.361 107.042 127.669 106.802C127.98 106.559 128.318 106.39 128.684 106.294C129.054 106.196 129.417 106.147 129.774 106.147C130.002 106.147 130.263 106.174 130.559 106.23C130.857 106.282 131.145 106.391 131.422 106.558C131.702 106.724 131.934 106.975 132.119 107.31C132.304 107.646 132.396 108.095 132.396 108.658V113.33H131.306V112.37H131.251C131.177 112.524 131.054 112.688 130.882 112.864C130.709 113.039 130.48 113.188 130.194 113.312C129.908 113.435 129.558 113.496 129.146 113.496ZM129.312 112.517C129.743 112.517 130.106 112.433 130.402 112.264C130.7 112.094 130.925 111.876 131.076 111.608C131.23 111.34 131.306 111.059 131.306 110.763V109.766C131.26 109.821 131.159 109.872 131.002 109.918C130.848 109.961 130.669 110 130.466 110.034C130.266 110.065 130.071 110.092 129.88 110.117C129.692 110.138 129.54 110.157 129.423 110.172C129.14 110.209 128.875 110.269 128.629 110.352C128.386 110.432 128.189 110.554 128.038 110.717C127.89 110.877 127.816 111.096 127.816 111.373C127.816 111.751 127.956 112.037 128.236 112.231C128.52 112.422 128.878 112.517 129.312 112.517ZM138.742 115.989C138.558 115.989 138.393 115.974 138.248 115.943C138.104 115.915 138.004 115.888 137.948 115.86L138.225 114.9C138.49 114.967 138.724 114.992 138.927 114.973C139.13 114.955 139.31 114.864 139.467 114.701C139.627 114.541 139.773 114.281 139.906 113.921L140.109 113.367L137.487 106.239H138.669L140.626 111.89H140.7L142.657 106.239H143.839L140.829 114.364C140.694 114.73 140.526 115.033 140.326 115.274C140.126 115.517 139.893 115.697 139.629 115.814C139.367 115.931 139.072 115.989 138.742 115.989ZM147.148 113.496C146.699 113.496 146.291 113.412 145.925 113.242C145.558 113.07 145.267 112.822 145.052 112.499C144.837 112.173 144.729 111.779 144.729 111.317C144.729 110.911 144.809 110.582 144.969 110.329C145.129 110.074 145.343 109.874 145.611 109.729C145.878 109.584 146.174 109.477 146.497 109.406C146.823 109.332 147.151 109.274 147.48 109.231C147.911 109.175 148.26 109.134 148.528 109.106C148.799 109.075 148.996 109.024 149.119 108.954C149.245 108.883 149.308 108.76 149.308 108.584V108.547C149.308 108.092 149.184 107.738 148.934 107.486C148.688 107.233 148.314 107.107 147.813 107.107C147.293 107.107 146.885 107.221 146.589 107.449C146.294 107.676 146.086 107.919 145.966 108.178L144.932 107.809C145.117 107.378 145.363 107.042 145.671 106.802C145.981 106.559 146.32 106.39 146.686 106.294C147.056 106.196 147.419 106.147 147.776 106.147C148.003 106.147 148.265 106.174 148.561 106.23C148.859 106.282 149.147 106.391 149.424 106.558C149.704 106.724 149.936 106.975 150.121 107.31C150.306 107.646 150.398 108.095 150.398 108.658V113.33H149.308V112.37H149.253C149.179 112.524 149.056 112.688 148.884 112.864C148.711 113.039 148.482 113.188 148.196 113.312C147.91 113.435 147.56 113.496 147.148 113.496ZM147.314 112.517C147.745 112.517 148.108 112.433 148.404 112.264C148.702 112.094 148.927 111.876 149.078 111.608C149.231 111.34 149.308 111.059 149.308 110.763V109.766C149.262 109.821 149.161 109.872 149.004 109.918C148.85 109.961 148.671 110 148.468 110.034C148.268 110.065 148.073 110.092 147.882 110.117C147.694 110.138 147.542 110.157 147.425 110.172C147.142 110.209 146.877 110.269 146.631 110.352C146.388 110.432 146.191 110.554 146.04 110.717C145.892 110.877 145.818 111.096 145.818 111.373C145.818 111.751 145.958 112.037 146.238 112.231C146.522 112.422 146.88 112.517 147.314 112.517ZM152.183 113.33V112.499L156.209 107.329V107.255H152.313V106.239H157.612V107.107L153.698 112.24V112.314H157.742V113.33H152.183ZM159.42 113.33V106.239H160.509V113.33H159.42ZM163.594 109.064V113.33H162.505V106.239H163.557V107.347H163.649C163.816 106.987 164.068 106.698 164.407 106.479C164.745 106.258 165.182 106.147 165.718 106.147C166.198 106.147 166.618 106.245 166.978 106.442C167.338 106.636 167.618 106.932 167.818 107.329C168.018 107.723 168.118 108.221 168.118 108.824V113.33H167.029V108.898C167.029 108.341 166.884 107.907 166.595 107.596C166.306 107.282 165.908 107.125 165.404 107.125C165.056 107.125 164.745 107.201 164.471 107.352C164.2 107.502 163.986 107.723 163.83 108.012C163.673 108.301 163.594 108.652 163.594 109.064ZM170.903 113.404C170.675 113.404 170.48 113.322 170.317 113.159C170.154 112.996 170.072 112.801 170.072 112.573C170.072 112.345 170.154 112.15 170.317 111.987C170.48 111.823 170.675 111.742 170.903 111.742C171.131 111.742 171.326 111.823 171.489 111.987C171.653 112.15 171.734 112.345 171.734 112.573C171.734 112.724 171.696 112.862 171.619 112.988C171.545 113.115 171.445 113.216 171.319 113.293C171.196 113.367 171.057 113.404 170.903 113.404Z" fill="#737373"/>
</g>
<path d="M20.484 149.66H19.261L22.0091 142.024H23.3402L26.0882 149.66H24.8652L22.7063 143.411H22.6467L20.484 149.66ZM20.6891 146.67H24.6564V147.639H20.6891V146.67ZM33.4496 144.507H32.2863C32.2415 144.258 32.1583 144.04 32.0365 143.851C31.9146 143.662 31.7655 143.501 31.589 143.37C31.4125 143.238 31.2149 143.139 30.9961 143.071C30.7799 143.004 30.5499 142.971 30.3063 142.971C29.8664 142.971 29.4724 143.081 29.1243 143.303C28.7788 143.524 28.5054 143.848 28.304 144.276C28.1052 144.703 28.0057 145.225 28.0057 145.842C28.0057 146.463 28.1052 146.988 28.304 147.415C28.5054 147.843 28.7801 148.166 29.1281 148.385C29.4761 148.604 29.8676 148.713 30.3026 148.713C30.5437 148.713 30.7724 148.681 30.9887 148.616C31.2074 148.549 31.4051 148.451 31.5816 148.321C31.758 148.192 31.9072 148.034 32.029 147.848C32.1533 147.659 32.239 147.443 32.2863 147.199L33.4496 147.203C33.3875 147.578 33.2669 147.924 33.0879 148.239C32.9115 148.553 32.684 148.824 32.4056 149.052C32.1297 149.278 31.814 149.454 31.4585 149.578C31.103 149.702 30.7153 149.764 30.2952 149.764C29.6339 149.764 29.0448 149.608 28.5278 149.295C28.0107 148.979 27.603 148.528 27.3047 147.941C27.0089 147.354 26.861 146.655 26.861 145.842C26.861 145.026 27.0102 144.327 27.3085 143.743C27.6068 143.156 28.0144 142.706 28.5315 142.393C29.0485 142.077 29.6364 141.919 30.2952 141.919C30.7003 141.919 31.0782 141.978 31.4287 142.094C31.7817 142.209 32.0986 142.378 32.3795 142.602C32.6604 142.823 32.8928 143.094 33.0768 143.414C33.2607 143.733 33.385 144.097 33.4496 144.507ZM29.9036 149.671H30.6345L30.5748 149.977C30.7911 150.012 30.98 150.099 31.1416 150.238C31.3031 150.377 31.3839 150.587 31.3839 150.868C31.3864 151.204 31.241 151.476 30.9477 151.685C30.6568 151.893 30.2355 151.998 29.6836 151.998L29.6613 151.375C29.9198 151.375 30.1286 151.338 30.2877 151.263C30.4493 151.189 30.5313 151.068 30.5338 150.902C30.5363 150.735 30.4741 150.618 30.3474 150.551C30.2231 150.484 30.0242 150.437 29.7508 150.409L29.9036 149.671ZM36.2555 142.024V149.66H35.1033V142.024H36.2555ZM38.2084 149.66V142.024H39.3606V145.67H39.4538L42.6567 142.024H44.1072L41.0273 145.461L44.1184 149.66H42.7313L40.2629 146.248L39.3606 147.285V149.66H38.2084ZM45.456 149.66V142.024H46.6082V148.668H50.0684V149.66H45.456ZM52.6925 149.66H51.4695L54.2176 142.024H55.5487L58.2967 149.66H57.0737L54.9148 143.411H54.8552L52.6925 149.66ZM52.8976 146.67H56.8649V147.639H52.8976V146.67ZM59.6745 142.024H61.0728L63.5039 147.96H63.5934L66.0245 142.024H67.4227V149.66H66.3265V144.134H66.2556L64.0035 149.649H63.0937L60.8416 144.13H60.7707V149.66H59.6745V142.024ZM70.0179 149.66H68.7949L71.5429 142.024H72.8741L75.6221 149.66H74.3991L72.2402 143.411H72.1805L70.0179 149.66ZM70.223 146.67H74.1903V147.639H70.223V146.67Z" fill="#A1A1A1"/>
<rect x="17" y="160.66" width="582" height="34.66" rx="8" fill="#171717" fill-opacity="0.6"/>
<rect x="17.5" y="161.16" width="581" height="33.66" rx="7.5" stroke="white" stroke-opacity="0.1"/>
<g clip-path="url(#clip2_1_171)">
<path d="M31.1993 182.99H29.999L33.4706 173.535H34.6524L38.124 182.99H36.9237L34.0984 175.031H34.0246L31.1993 182.99ZM31.6425 179.297H36.4805V180.312H31.6425V179.297ZM42.3296 183.138C41.6649 183.138 41.0924 182.981 40.6123 182.667C40.1322 182.353 39.7629 181.921 39.5043 181.37C39.2458 180.819 39.1166 180.189 39.1166 179.481C39.1166 178.761 39.2489 178.126 39.5136 177.575C39.7813 177.021 40.1537 176.588 40.6308 176.278C41.1109 175.964 41.671 175.807 42.3112 175.807C42.8097 175.807 43.2591 175.899 43.6592 176.084C44.0593 176.268 44.387 176.527 44.6425 176.859C44.8979 177.192 45.0564 177.579 45.118 178.023H44.0285C43.9454 177.7 43.7607 177.413 43.4745 177.164C43.1914 176.912 42.8097 176.785 42.3296 176.785C41.9049 176.785 41.5325 176.896 41.2124 177.118C40.8954 177.336 40.6477 177.646 40.4692 178.046C40.2938 178.443 40.206 178.909 40.206 179.445C40.206 179.992 40.2922 180.469 40.4646 180.876C40.64 181.282 40.8862 181.597 41.2032 181.822C41.5233 182.047 41.8988 182.159 42.3296 182.159C42.6128 182.159 42.8698 182.11 43.1006 182.011C43.3314 181.913 43.5268 181.771 43.6869 181.587C43.8469 181.402 43.9608 181.18 44.0285 180.922H45.118C45.0564 181.34 44.9041 181.717 44.6609 182.053C44.4209 182.385 44.1024 182.65 43.7053 182.847C43.3114 183.041 42.8528 183.138 42.3296 183.138ZM41.8126 182.953H42.7174L42.6435 183.322C42.8836 183.359 43.1037 183.459 43.3037 183.622C43.5037 183.789 43.6038 184.052 43.6038 184.412C43.6038 184.809 43.4391 185.132 43.1098 185.381C42.7836 185.634 42.3019 185.76 41.6649 185.76L41.6279 185.04C41.9141 185.04 42.1511 184.994 42.3389 184.901C42.5297 184.812 42.6251 184.661 42.6251 184.449C42.6251 184.236 42.5466 184.092 42.3896 184.015C42.2327 183.938 41.9788 183.886 41.6279 183.858L41.8126 182.953ZM46.7107 182.99V175.899H47.8001V182.99H46.7107ZM50.8112 180.405L50.7928 179.057H51.0144L54.1166 175.899H55.4647L52.1593 179.241H52.0669L50.8112 180.405ZM49.7956 182.99V173.535H50.8851V182.99H49.7956ZM54.3013 182.99L51.5314 179.481L52.307 178.724L55.6862 182.99H54.3013ZM57.9564 173.535V182.99H56.8669V173.535H57.9564ZM62.0385 183.156C61.5892 183.156 61.1814 183.072 60.8152 182.902C60.4489 182.73 60.1581 182.482 59.9426 182.159C59.7272 181.833 59.6195 181.439 59.6195 180.977C59.6195 180.571 59.6995 180.242 59.8595 179.989C60.0196 179.734 60.2335 179.534 60.5012 179.389C60.769 179.244 61.0644 179.137 61.3876 179.066C61.7138 178.992 62.0416 178.934 62.3709 178.891C62.8018 178.835 63.1511 178.794 63.4188 178.766C63.6897 178.735 63.8866 178.684 64.0098 178.614C64.1359 178.543 64.199 178.42 64.199 178.244V178.207C64.199 177.752 64.0744 177.398 63.8251 177.146C63.5789 176.893 63.2049 176.767 62.7033 176.767C62.1832 176.767 61.7754 176.881 61.4799 177.109C61.1845 177.336 60.9767 177.579 60.8567 177.838L59.8226 177.469C60.0073 177.038 60.2535 176.702 60.5612 176.462C60.8721 176.219 61.2106 176.05 61.5769 175.954C61.9462 175.856 62.3094 175.807 62.6664 175.807C62.8941 175.807 63.1557 175.834 63.4512 175.89C63.7497 175.942 64.0375 176.051 64.3144 176.218C64.5945 176.384 64.8269 176.635 65.0115 176.97C65.1962 177.306 65.2885 177.755 65.2885 178.318V182.99H64.199V182.03H64.1436C64.0698 182.184 63.9467 182.348 63.7743 182.524C63.602 182.699 63.3727 182.848 63.0865 182.972C62.8002 183.095 62.4509 183.156 62.0385 183.156ZM62.2047 182.177C62.6356 182.177 62.9987 182.093 63.2942 181.924C63.5927 181.754 63.8174 181.536 63.9682 181.268C64.1221 181 64.199 180.719 64.199 180.423V179.426C64.1529 179.481 64.0513 179.532 63.8943 179.578C63.7405 179.622 63.562 179.66 63.3588 179.694C63.1588 179.725 62.9634 179.752 62.7725 179.777C62.5848 179.798 62.4325 179.817 62.3155 179.832C62.0324 179.869 61.7677 179.929 61.5215 180.012C61.2783 180.092 61.0814 180.214 60.9306 180.377C60.7828 180.537 60.709 180.756 60.709 181.033C60.709 181.411 60.849 181.697 61.1291 181.891C61.4122 182.082 61.7708 182.177 62.2047 182.177ZM67.2771 182.99V175.899H68.3296V177.007H68.422C68.5697 176.628 68.8082 176.335 69.1375 176.125C69.4668 175.913 69.8623 175.807 70.3239 175.807C70.7917 175.807 71.1811 175.913 71.4919 176.125C71.8058 176.335 72.0505 176.628 72.2259 177.007H72.2998C72.4814 176.641 72.7537 176.35 73.1169 176.135C73.4801 175.916 73.9156 175.807 74.4234 175.807C75.0574 175.807 75.576 176.005 75.9791 176.402C76.3823 176.796 76.5839 177.41 76.5839 178.244V182.99H75.4944V178.244C75.4944 177.721 75.3513 177.347 75.0651 177.122C74.7788 176.898 74.4418 176.785 74.0541 176.785C73.5555 176.785 73.1692 176.936 72.8953 177.238C72.6214 177.536 72.4845 177.915 72.4845 178.374V182.99H71.3765V178.133C71.3765 177.73 71.2457 177.406 70.9841 177.159C70.7225 176.91 70.3855 176.785 69.9731 176.785C69.6899 176.785 69.4253 176.861 69.1791 177.012C68.9359 177.162 68.739 177.372 68.5881 177.639C68.4404 177.904 68.3666 178.21 68.3666 178.558V182.99H67.2771ZM80.6625 183.156C80.2132 183.156 79.8054 183.072 79.4392 182.902C79.0729 182.73 78.7821 182.482 78.5667 182.159C78.3512 181.833 78.2435 181.439 78.2435 180.977C78.2435 180.571 78.3235 180.242 78.4836 179.989C78.6436 179.734 78.8575 179.534 79.1253 179.389C79.393 179.244 79.6885 179.137 80.0116 179.066C80.3378 178.992 80.6656 178.934 80.9949 178.891C81.4258 178.835 81.7751 178.794 82.0429 178.766C82.3137 178.735 82.5107 178.684 82.6338 178.614C82.76 178.543 82.8231 178.42 82.8231 178.244V178.207C82.8231 177.752 82.6984 177.398 82.4491 177.146C82.2029 176.893 81.829 176.767 81.3273 176.767C80.8072 176.767 80.3994 176.881 80.1039 177.109C79.8085 177.336 79.6008 177.579 79.4807 177.838L78.4466 177.469C78.6313 177.038 78.8775 176.702 79.1853 176.462C79.4961 176.219 79.8347 176.05 80.2009 175.954C80.5702 175.856 80.9334 175.807 81.2904 175.807C81.5181 175.807 81.7797 175.834 82.0752 175.89C82.3737 175.942 82.6615 176.051 82.9385 176.218C83.2185 176.384 83.4509 176.635 83.6356 176.97C83.8202 177.306 83.9125 177.755 83.9125 178.318V182.99H82.8231V182.03H82.7677C82.6938 182.184 82.5707 182.348 82.3983 182.524C82.226 182.699 81.9967 182.848 81.7105 182.972C81.4243 183.095 81.0749 183.156 80.6625 183.156ZM80.8287 182.177C81.2596 182.177 81.6228 182.093 81.9182 181.924C82.2168 181.754 82.4414 181.536 82.5922 181.268C82.7461 181 82.8231 180.719 82.8231 180.423V179.426C82.7769 179.481 82.6753 179.532 82.5184 179.578C82.3645 179.622 82.186 179.66 81.9829 179.694C81.7828 179.725 81.5874 179.752 81.3966 179.777C81.2088 179.798 81.0565 179.817 80.9395 179.832C80.6564 179.869 80.3917 179.929 80.1455 180.012C79.9024 180.092 79.7054 180.214 79.5546 180.377C79.4069 180.537 79.333 180.756 79.333 181.033C79.333 181.411 79.473 181.697 79.7531 181.891C80.0362 182.082 80.3948 182.177 80.8287 182.177ZM86.9906 178.724V182.99H85.9011V175.899H86.9536V177.007H87.046C87.2122 176.647 87.4645 176.358 87.8031 176.139C88.1416 175.918 88.5786 175.807 89.1142 175.807C89.5943 175.807 90.0144 175.905 90.3745 176.102C90.7345 176.296 91.0146 176.592 91.2147 176.989C91.4147 177.383 91.5147 177.881 91.5147 178.484V182.99H90.4252V178.558C90.4252 178.001 90.2806 177.567 89.9913 177.256C89.702 176.942 89.305 176.785 88.8002 176.785C88.4525 176.785 88.1416 176.861 87.8677 177.012C87.5969 177.162 87.383 177.383 87.226 177.672C87.0691 177.961 86.9906 178.312 86.9906 178.724ZM93.5056 182.99V175.899H94.5951V182.99H93.5056ZM96.3874 182.99V182.159L100.413 176.989V176.915H96.5167V175.899H101.816V176.767L97.9016 181.901V181.974H101.946V182.99H96.3874ZM103.624 182.99V175.899H104.713V182.99H103.624ZM110.513 182.99V173.535H111.602V177.026H111.695C111.775 176.902 111.885 176.745 112.027 176.555C112.172 176.361 112.378 176.188 112.645 176.038C112.916 175.884 113.283 175.807 113.744 175.807C114.341 175.807 114.868 175.956 115.323 176.255C115.779 176.553 116.134 176.976 116.389 177.524C116.645 178.072 116.773 178.718 116.773 179.463C116.773 180.214 116.645 180.865 116.389 181.416C116.134 181.964 115.78 182.388 115.328 182.69C114.875 182.988 114.354 183.138 113.763 183.138C113.307 183.138 112.942 183.062 112.669 182.912C112.395 182.758 112.184 182.584 112.036 182.39C111.888 182.193 111.775 182.03 111.695 181.901H111.565V182.99H110.513ZM111.584 179.445C111.584 179.98 111.662 180.452 111.819 180.862C111.976 181.268 112.205 181.587 112.507 181.817C112.809 182.045 113.178 182.159 113.615 182.159C114.07 182.159 114.451 182.039 114.755 181.799C115.063 181.556 115.294 181.23 115.448 180.82C115.605 180.408 115.683 179.949 115.683 179.445C115.683 178.946 115.606 178.497 115.452 178.097C115.302 177.693 115.072 177.375 114.764 177.141C114.46 176.904 114.077 176.785 113.615 176.785C113.172 176.785 112.799 176.898 112.498 177.122C112.196 177.344 111.968 177.655 111.815 178.055C111.661 178.452 111.584 178.915 111.584 179.445ZM122.908 180.091V175.899H123.997V182.99H122.908V181.79H122.834C122.668 182.15 122.409 182.456 122.058 182.708C121.708 182.958 121.264 183.082 120.729 183.082C120.286 183.082 119.892 182.985 119.547 182.791C119.202 182.595 118.932 182.299 118.735 181.905C118.538 181.508 118.439 181.008 118.439 180.405V175.899H119.529V180.331C119.529 180.848 119.673 181.26 119.963 181.568C120.255 181.876 120.627 182.03 121.08 182.03C121.351 182.03 121.626 181.961 121.906 181.822C122.189 181.684 122.426 181.471 122.617 181.185C122.811 180.899 122.908 180.534 122.908 180.091ZM125.993 182.99V175.899H127.045V176.97H127.119C127.249 176.619 127.482 176.335 127.821 176.116C128.16 175.898 128.541 175.788 128.966 175.788C129.046 175.788 129.146 175.79 129.266 175.793C129.386 175.796 129.477 175.801 129.538 175.807V176.915C129.501 176.905 129.417 176.892 129.284 176.873C129.155 176.852 129.018 176.841 128.874 176.841C128.529 176.841 128.221 176.913 127.95 177.058C127.683 177.199 127.47 177.396 127.313 177.649C127.159 177.898 127.082 178.183 127.082 178.503V182.99H125.993ZM132.916 183.156C132.467 183.156 132.059 183.072 131.693 182.902C131.327 182.73 131.036 182.482 130.821 182.159C130.605 181.833 130.497 181.439 130.497 180.977C130.497 180.571 130.577 180.242 130.737 179.989C130.898 179.734 131.111 179.534 131.379 179.389C131.647 179.244 131.942 179.137 132.266 179.066C132.592 178.992 132.92 178.934 133.249 178.891C133.68 178.835 134.029 178.794 134.297 178.766C134.568 178.735 134.765 178.684 134.888 178.614C135.014 178.543 135.077 178.42 135.077 178.244V178.207C135.077 177.752 134.952 177.398 134.703 177.146C134.457 176.893 134.083 176.767 133.581 176.767C133.061 176.767 132.653 176.881 132.358 177.109C132.062 177.336 131.855 177.579 131.735 177.838L130.701 177.469C130.885 177.038 131.131 176.702 131.439 176.462C131.75 176.219 132.089 176.05 132.455 175.954C132.824 175.856 133.187 175.807 133.544 175.807C133.772 175.807 134.034 175.834 134.329 175.89C134.628 175.942 134.915 176.051 135.192 176.218C135.472 176.384 135.705 176.635 135.889 176.97C136.074 177.306 136.166 177.755 136.166 178.318V182.99H135.077V182.03H135.022C134.948 182.184 134.825 182.348 134.652 182.524C134.48 182.699 134.251 182.848 133.964 182.972C133.678 183.095 133.329 183.156 132.916 183.156ZM133.083 182.177C133.514 182.177 133.877 182.093 134.172 181.924C134.471 181.754 134.695 181.536 134.846 181.268C135 181 135.077 180.719 135.077 180.423V179.426C135.031 179.481 134.929 179.532 134.772 179.578C134.618 179.622 134.44 179.66 134.237 179.694C134.037 179.725 133.841 179.752 133.65 179.777C133.463 179.798 133.31 179.817 133.193 179.832C132.91 179.869 132.646 179.929 132.399 180.012C132.156 180.092 131.959 180.214 131.808 180.377C131.661 180.537 131.587 180.756 131.587 181.033C131.587 181.411 131.727 181.697 132.007 181.891C132.29 182.082 132.649 182.177 133.083 182.177ZM138.603 185.649C138.418 185.649 138.253 185.634 138.109 185.603C137.964 185.575 137.864 185.548 137.809 185.52L138.086 184.56C138.35 184.627 138.584 184.652 138.787 184.633C138.991 184.615 139.171 184.524 139.328 184.361C139.488 184.201 139.634 183.941 139.766 183.581L139.969 183.027L137.347 175.899H138.529L140.486 181.55H140.56L142.518 175.899H143.699L140.689 184.024C140.554 184.39 140.386 184.693 140.186 184.934C139.986 185.177 139.754 185.357 139.489 185.474C139.228 185.591 138.932 185.649 138.603 185.649ZM147.008 183.156C146.559 183.156 146.151 183.072 145.785 182.902C145.419 182.73 145.128 182.482 144.912 182.159C144.697 181.833 144.589 181.439 144.589 180.977C144.589 180.571 144.669 180.242 144.829 179.989C144.989 179.734 145.203 179.534 145.471 179.389C145.739 179.244 146.034 179.137 146.357 179.066C146.684 178.992 147.011 178.934 147.341 178.891C147.772 178.835 148.121 178.794 148.389 178.766C148.659 178.735 148.856 178.684 148.979 178.614C149.106 178.543 149.169 178.42 149.169 178.244V178.207C149.169 177.752 149.044 177.398 148.795 177.146C148.549 176.893 148.175 176.767 147.673 176.767C147.153 176.767 146.745 176.881 146.45 177.109C146.154 177.336 145.946 177.579 145.826 177.838L144.792 177.469C144.977 177.038 145.223 176.702 145.531 176.462C145.842 176.219 146.18 176.05 146.547 175.954C146.916 175.856 147.279 175.807 147.636 175.807C147.864 175.807 148.125 175.834 148.421 175.89C148.719 175.942 149.007 176.051 149.284 176.218C149.564 176.384 149.797 176.635 149.981 176.97C150.166 177.306 150.258 177.755 150.258 178.318V182.99H149.169V182.03H149.113C149.039 182.184 148.916 182.348 148.744 182.524C148.572 182.699 148.342 182.848 148.056 182.972C147.77 183.095 147.421 183.156 147.008 183.156ZM147.174 182.177C147.605 182.177 147.968 182.093 148.264 181.924C148.562 181.754 148.787 181.536 148.938 181.268C149.092 181 149.169 180.719 149.169 180.423V179.426C149.123 179.481 149.021 179.532 148.864 179.578C148.71 179.622 148.532 179.66 148.329 179.694C148.129 179.725 147.933 179.752 147.742 179.777C147.555 179.798 147.402 179.817 147.285 179.832C147.002 179.869 146.737 179.929 146.491 180.012C146.248 180.092 146.051 180.214 145.9 180.377C145.753 180.537 145.679 180.756 145.679 181.033C145.679 181.411 145.819 181.697 146.099 181.891C146.382 182.082 146.74 182.177 147.174 182.177ZM156.605 185.649C156.42 185.649 156.255 185.634 156.111 185.603C155.966 185.575 155.866 185.548 155.811 185.52L156.088 184.56C156.352 184.627 156.586 184.652 156.789 184.633C156.993 184.615 157.173 184.524 157.33 184.361C157.49 184.201 157.636 183.941 157.768 183.581L157.971 183.027L155.349 175.899H156.531L158.488 181.55H158.562L160.52 175.899H161.701L158.691 184.024C158.556 184.39 158.388 184.693 158.188 184.934C157.988 185.177 157.756 185.357 157.491 185.474C157.23 185.591 156.934 185.649 156.605 185.649ZM165.01 183.156C164.561 183.156 164.153 183.072 163.787 182.902C163.421 182.73 163.13 182.482 162.914 182.159C162.699 181.833 162.591 181.439 162.591 180.977C162.591 180.571 162.671 180.242 162.831 179.989C162.991 179.734 163.205 179.534 163.473 179.389C163.741 179.244 164.036 179.137 164.359 179.066C164.686 178.992 165.013 178.934 165.343 178.891C165.773 178.835 166.123 178.794 166.391 178.766C166.661 178.735 166.858 178.684 166.981 178.614C167.108 178.543 167.171 178.42 167.171 178.244V178.207C167.171 177.752 167.046 177.398 166.797 177.146C166.551 176.893 166.177 176.767 165.675 176.767C165.155 176.767 164.747 176.881 164.452 177.109C164.156 177.336 163.948 177.579 163.828 177.838L162.794 177.469C162.979 177.038 163.225 176.702 163.533 176.462C163.844 176.219 164.182 176.05 164.549 175.954C164.918 175.856 165.281 175.807 165.638 175.807C165.866 175.807 166.127 175.834 166.423 175.89C166.721 175.942 167.009 176.051 167.286 176.218C167.566 176.384 167.799 176.635 167.983 176.97C168.168 177.306 168.26 177.755 168.26 178.318V182.99H167.171V182.03H167.115C167.041 182.184 166.918 182.348 166.746 182.524C166.574 182.699 166.344 182.848 166.058 182.972C165.772 183.095 165.423 183.156 165.01 183.156ZM165.176 182.177C165.607 182.177 165.97 182.093 166.266 181.924C166.564 181.754 166.789 181.536 166.94 181.268C167.094 181 167.171 180.719 167.171 180.423V179.426C167.125 179.481 167.023 179.532 166.866 179.578C166.712 179.622 166.534 179.66 166.331 179.694C166.13 179.725 165.935 179.752 165.744 179.777C165.556 179.798 165.404 179.817 165.287 179.832C165.004 179.869 164.739 179.929 164.493 180.012C164.25 180.092 164.053 180.214 163.902 180.377C163.755 180.537 163.681 180.756 163.681 181.033C163.681 181.411 163.821 181.697 164.101 181.891C164.384 182.082 164.742 182.177 165.176 182.177ZM170.046 182.99V182.159L174.071 176.989V176.915H170.175V175.899H175.475V176.767L171.56 181.901V181.974H175.604V182.99H170.046ZM177.282 182.99V175.899H178.371V182.99H177.282ZM181.456 178.724V182.99H180.367V175.899H181.419V177.007H181.512C181.678 176.647 181.93 176.358 182.269 176.139C182.607 175.918 183.044 175.807 183.58 175.807C184.06 175.807 184.48 175.905 184.84 176.102C185.2 176.296 185.48 176.592 185.68 176.989C185.881 177.383 185.981 177.881 185.981 178.484V182.99H184.891V178.558C184.891 178.001 184.746 177.567 184.457 177.256C184.168 176.942 183.771 176.785 183.266 176.785C182.918 176.785 182.607 176.861 182.334 177.012C182.063 177.162 181.849 177.383 181.692 177.672C181.535 177.961 181.456 178.312 181.456 178.724ZM188.765 183.064C188.538 183.064 188.342 182.982 188.179 182.819C188.016 182.656 187.934 182.461 187.934 182.233C187.934 182.005 188.016 181.81 188.179 181.647C188.342 181.483 188.538 181.402 188.765 181.402C188.993 181.402 189.189 181.483 189.352 181.647C189.515 181.81 189.596 182.005 189.596 182.233C189.596 182.384 189.558 182.522 189.481 182.648C189.407 182.775 189.307 182.876 189.181 182.953C189.058 183.027 188.919 183.064 188.765 183.064Z" fill="#737373"/>
</g>
<path d="M19.8549 211.538H21.2798L23.7572 217.587H23.8484L26.3259 211.538H27.7507V219.32H26.6336V213.689H26.5614L24.2664 219.309H23.3393L21.0442 213.685H20.9721V219.32H19.8549V211.538ZM30.9069 211.538V219.32H29.7328V211.538H30.9069ZM39.1727 211.538V219.32H38.0936L34.1381 213.613H34.0659V219.32H32.8918V211.538H33.9785L37.9378 217.253H38.01V211.538H39.1727ZM41.8178 219.392C41.61 219.392 41.4315 219.319 41.282 219.172C41.1325 219.022 41.0578 218.843 41.0578 218.632C41.0578 218.425 41.1325 218.247 41.282 218.1C41.4315 217.951 41.61 217.876 41.8178 217.876C42.0255 217.876 42.2041 217.951 42.3535 218.1C42.503 218.247 42.5777 218.425 42.5777 218.632C42.5777 218.772 42.5422 218.9 42.4713 219.016C42.4029 219.13 42.3117 219.221 42.1977 219.29C42.0837 219.358 41.9571 219.392 41.8178 219.392ZM49.9662 219.32H47.447V211.538H50.046C50.8085 211.538 51.4633 211.694 52.0105 212.006C52.5576 212.315 52.9769 212.759 53.2682 213.339C53.562 213.917 53.709 214.61 53.709 215.418C53.709 216.228 53.5608 216.925 53.2644 217.508C52.9705 218.09 52.545 218.539 51.9877 218.853C51.4304 219.164 50.7566 219.32 49.9662 219.32ZM48.6211 218.294H49.9016C50.4944 218.294 50.9871 218.183 51.3797 217.96C51.7724 217.734 52.0662 217.409 52.2613 216.983C52.4563 216.555 52.5538 216.033 52.5538 215.418C52.5538 214.807 52.4563 214.289 52.2613 213.864C52.0687 213.438 51.7812 213.115 51.3987 212.895C51.0162 212.674 50.5413 212.564 49.9738 212.564H48.6211V218.294ZM55.444 219.32V211.538H60.3228V212.549H56.6181V214.92H60.0683V215.927H56.6181V218.309H60.3684V219.32H55.444ZM67.4326 213.997C67.3591 213.766 67.2603 213.56 67.1362 213.377C67.0146 213.192 66.8689 213.035 66.6992 212.906C66.5295 212.774 66.3357 212.674 66.1179 212.606C65.9026 212.538 65.6657 212.503 65.4073 212.503C64.9691 212.503 64.5739 212.616 64.2218 212.841C63.8697 213.067 63.5911 213.398 63.3859 213.833C63.1832 214.266 63.0819 214.797 63.0819 215.425C63.0819 216.056 63.1845 216.589 63.3897 217.025C63.5949 217.461 63.876 217.791 64.2332 218.017C64.5904 218.242 64.997 218.355 65.4529 218.355C65.876 218.355 66.2445 218.269 66.5586 218.096C66.8753 217.924 67.1197 217.681 67.292 217.367C67.4668 217.05 67.5542 216.678 67.5542 216.25L67.8581 216.307H65.6315V215.338H68.6903V216.223C68.6903 216.877 68.551 217.444 68.2723 217.926C67.9962 218.404 67.6137 218.774 67.1248 219.035C66.6384 219.296 66.0811 219.426 65.4529 219.426C64.7487 219.426 64.1306 219.264 63.5987 218.94C63.0692 218.616 62.6563 218.156 62.36 217.561C62.0636 216.963 61.9154 216.254 61.9154 215.433C61.9154 214.812 62.0015 214.255 62.1738 213.761C62.346 213.267 62.5879 212.848 62.8995 212.503C63.2136 212.156 63.5822 211.892 64.0052 211.709C64.4308 211.524 64.8956 211.432 65.3997 211.432C65.8202 211.432 66.2116 211.494 66.5738 211.618C66.9386 211.742 67.2629 211.918 67.5466 212.146C67.8328 212.374 68.0697 212.645 68.2571 212.959C68.4446 213.271 68.5712 213.617 68.6371 213.997H67.4326ZM66.1331 209.562H67.0678C67.0678 209.99 66.9158 210.339 66.6118 210.607C66.3104 210.873 65.9026 211.006 65.3883 211.006C64.8766 211.006 64.4701 210.873 64.1686 210.607C63.8672 210.339 63.7164 209.99 63.7164 209.562H64.6474C64.6474 209.752 64.7031 209.921 64.8146 210.068C64.926 210.212 65.1173 210.284 65.3883 210.284C65.6543 210.284 65.8443 210.212 65.9583 210.068C66.0748 209.923 66.1331 209.755 66.1331 209.562ZM70.4557 219.32V211.538H75.3346V212.549H71.6298V214.92H75.08V215.927H71.6298V218.309H75.3801V219.32H70.4557ZM77.1779 219.32V211.538H79.9517C80.5546 211.538 81.0549 211.642 81.4526 211.85C81.8528 212.057 82.1517 212.345 82.3493 212.712C82.5469 213.077 82.6457 213.499 82.6457 213.978C82.6457 214.454 82.5456 214.873 82.3455 215.235C82.1479 215.595 81.849 215.875 81.4488 216.075C81.0511 216.275 80.5508 216.375 79.9479 216.375H77.8466V215.365H79.8415C80.2215 215.365 80.5305 215.31 80.7686 215.201C81.0093 215.092 81.1853 214.934 81.2968 214.726C81.4082 214.518 81.464 214.269 81.464 213.978C81.464 213.684 81.407 213.429 81.293 213.214C81.1815 212.999 81.0055 212.834 80.7648 212.72C80.5267 212.603 80.2139 212.545 79.8263 212.545H78.352V219.32H77.1779ZM81.0194 215.809L82.9421 219.32H81.6046L79.7199 215.809H81.0194Z" fill="#A1A1A1"/>
<rect x="17" y="230.32" width="186" height="37.3333" rx="8" fill="#171717" fill-opacity="0.6"/>
<rect x="17.5" y="230.82" width="185" height="36.3333" rx="7.5" stroke="white" stroke-opacity="0.1"/>
<g clip-path="url(#clip3_1_171)">
<path d="M34.0416 254.126C33.2926 254.126 32.6546 253.922 32.1276 253.514C31.6006 253.103 31.1979 252.508 30.9195 251.73C30.6411 250.947 30.5019 250.003 30.5019 248.896C30.5019 247.795 30.6411 246.856 30.9195 246.077C31.2012 245.295 31.6055 244.698 32.1325 244.287C32.6628 243.873 33.2992 243.666 34.0416 243.666C34.7841 243.666 35.4188 243.873 35.9457 244.287C36.476 244.698 36.8804 245.295 37.1588 246.077C37.4405 246.856 37.5814 247.795 37.5814 248.896C37.5814 250.003 37.4422 250.947 37.1638 251.73C36.8854 252.508 36.4827 253.103 35.9557 253.514C35.4287 253.922 34.7907 254.126 34.0416 254.126ZM34.0416 253.032C34.7841 253.032 35.3608 252.674 35.7717 251.958C36.1827 251.242 36.3882 250.222 36.3882 248.896C36.3882 248.014 36.2938 247.263 36.1048 246.644C35.9192 246.024 35.6508 245.552 35.2994 245.227C34.9514 244.902 34.5322 244.74 34.0416 244.74C33.3058 244.74 32.7308 245.102 32.3165 245.828C31.9022 246.551 31.695 247.573 31.695 248.896C31.695 249.777 31.7878 250.526 31.9734 251.143C32.1591 251.759 32.4259 252.228 32.7739 252.55C33.1252 252.871 33.5478 253.032 34.0416 253.032Z" fill="#F5F5F5"/>
</g>
<path d="M217.839 211.684H219.237L221.668 217.62H221.758L224.189 211.684H225.587V219.32H224.491V213.794H224.42L222.168 219.309H221.258L219.006 213.79H218.935V219.32H217.839V211.684ZM228.182 219.32H226.959L229.707 211.684H231.039L233.787 219.32H232.564L230.405 213.071H230.345L228.182 219.32ZM228.387 216.33H232.355V217.299H228.387V216.33ZM235.966 211.684L237.793 214.67H237.853L239.68 211.684H241.015L238.636 215.502L241.03 219.32H239.687L237.853 216.374H237.793L235.959 219.32H234.616L237.051 215.502L234.631 211.684H235.966ZM243.078 219.391C242.874 219.391 242.698 219.319 242.552 219.175C242.405 219.028 242.332 218.851 242.332 218.645C242.332 218.441 242.405 218.267 242.552 218.123C242.698 217.976 242.874 217.903 243.078 217.903C243.281 217.903 243.457 217.976 243.603 218.123C243.75 218.267 243.823 218.441 243.823 218.645C243.823 218.782 243.789 218.907 243.719 219.022C243.652 219.134 243.562 219.223 243.45 219.29C243.339 219.357 243.214 219.391 243.078 219.391ZM251.084 219.32H248.612V211.684H251.162C251.911 211.684 252.553 211.837 253.09 212.142C253.627 212.446 254.038 212.882 254.324 213.451C254.613 214.018 254.757 214.698 254.757 215.491C254.757 216.286 254.611 216.97 254.321 217.541C254.032 218.113 253.615 218.553 253.068 218.861C252.521 219.167 251.86 219.32 251.084 219.32ZM249.764 218.313H251.021C251.602 218.313 252.086 218.204 252.471 217.985C252.856 217.764 253.145 217.444 253.336 217.027C253.528 216.607 253.623 216.095 253.623 215.491C253.623 214.892 253.528 214.383 253.336 213.966C253.147 213.548 252.865 213.231 252.49 213.015C252.114 212.799 251.648 212.69 251.091 212.69H249.764V218.313ZM256.465 219.32V211.684H261.252V212.675H257.617V215.002H261.002V215.99H257.617V218.328H261.297V219.32H256.465ZM268.234 214.096C268.162 213.87 268.065 213.667 267.943 213.488C267.824 213.307 267.681 213.153 267.515 213.026C267.348 212.897 267.158 212.799 266.944 212.731C266.733 212.664 266.5 212.631 266.247 212.631C265.817 212.631 265.429 212.741 265.083 212.963C264.738 213.184 264.464 213.508 264.263 213.936C264.064 214.361 263.965 214.882 263.965 215.498C263.965 216.117 264.065 216.64 264.267 217.068C264.468 217.495 264.744 217.82 265.095 218.041C265.445 218.262 265.844 218.373 266.292 218.373C266.707 218.373 267.068 218.288 267.377 218.119C267.687 217.95 267.927 217.712 268.096 217.403C268.268 217.093 268.353 216.727 268.353 216.307L268.652 216.363H266.467V215.412H269.468V216.281C269.468 216.922 269.332 217.479 269.058 217.952C268.787 218.421 268.412 218.784 267.932 219.04C267.455 219.296 266.908 219.424 266.292 219.424C265.6 219.424 264.994 219.265 264.472 218.947C263.952 218.629 263.547 218.178 263.256 217.594C262.966 217.007 262.82 216.311 262.82 215.506C262.82 214.897 262.905 214.35 263.074 213.865C263.243 213.38 263.48 212.969 263.786 212.631C264.094 212.29 264.456 212.03 264.871 211.851C265.289 211.67 265.745 211.579 266.239 211.579C266.652 211.579 267.036 211.64 267.391 211.762C267.749 211.884 268.068 212.057 268.346 212.28C268.627 212.504 268.859 212.77 269.043 213.078C269.227 213.384 269.352 213.723 269.416 214.096H268.234ZM266.959 209.745H267.876C267.876 210.165 267.727 210.507 267.429 210.77C267.133 211.031 266.733 211.162 266.228 211.162C265.726 211.162 265.327 211.031 265.031 210.77C264.735 210.507 264.588 210.165 264.588 209.745H265.501C265.501 209.931 265.556 210.096 265.665 210.241C265.774 210.382 265.962 210.453 266.228 210.453C266.489 210.453 266.676 210.382 266.787 210.241C266.902 210.099 266.959 209.934 266.959 209.745ZM271.206 219.32V211.684H275.994V212.675H272.358V215.002H275.744V215.99H272.358V218.328H276.038V219.32H271.206ZM277.808 219.32V211.684H280.53C281.121 211.684 281.612 211.786 282.002 211.989C282.395 212.193 282.688 212.475 282.882 212.836C283.076 213.194 283.173 213.608 283.173 214.077C283.173 214.545 283.075 214.956 282.879 215.312C282.685 215.665 282.391 215.939 281.999 216.136C281.608 216.332 281.117 216.43 280.526 216.43H278.464V215.438H280.421C280.794 215.438 281.098 215.385 281.331 215.278C281.567 215.171 281.74 215.016 281.85 214.812C281.959 214.608 282.014 214.363 282.014 214.077C282.014 213.789 281.958 213.539 281.846 213.328C281.736 213.117 281.564 212.955 281.327 212.843C281.094 212.729 280.787 212.672 280.407 212.672H278.96V219.32H277.808ZM281.577 215.875L283.464 219.32H282.152L280.302 215.875H281.577Z" fill="#A1A1A1"/>
<rect x="215" y="230.32" width="186" height="37.3333" rx="8" fill="#171717" fill-opacity="0.6"/>
<rect x="215.5" y="230.82" width="185" height="36.3333" rx="7.5" stroke="white" stroke-opacity="0.1"/>
<g clip-path="url(#clip4_1_171)">
<path d="M232.068 244.314V253.987H230.897V245.542H230.84L228.479 247.11V245.92L230.897 244.314H232.068ZM238.005 254.119C237.294 254.119 236.688 253.925 236.187 253.538C235.686 253.148 235.304 252.582 235.039 251.842C234.775 251.099 234.643 250.202 234.643 249.15C234.643 248.105 234.775 247.212 235.039 246.472C235.307 245.729 235.691 245.163 236.192 244.772C236.695 244.378 237.3 244.182 238.005 244.182C238.711 244.182 239.314 244.378 239.814 244.772C240.318 245.163 240.702 245.729 240.967 246.472C241.234 247.212 241.368 248.105 241.368 249.15C241.368 250.202 241.236 251.099 240.971 251.842C240.707 252.582 240.324 253.148 239.824 253.538C239.323 253.925 238.717 254.119 238.005 254.119ZM238.005 253.08C238.711 253.08 239.258 252.74 239.649 252.06C240.039 251.38 240.235 250.41 240.235 249.15C240.235 248.313 240.145 247.6 239.965 247.011C239.789 246.422 239.534 245.973 239.2 245.665C238.87 245.356 238.471 245.202 238.005 245.202C237.306 245.202 236.76 245.547 236.366 246.236C235.973 246.923 235.776 247.894 235.776 249.15C235.776 249.988 235.864 250.699 236.041 251.285C236.217 251.871 236.47 252.316 236.801 252.622C237.135 252.927 237.536 253.08 238.005 253.08ZM246.318 254.119C245.606 254.119 245 253.925 244.499 253.538C243.999 253.148 243.616 252.582 243.352 251.842C243.087 251.099 242.955 250.202 242.955 249.15C242.955 248.105 243.087 247.212 243.352 246.472C243.619 245.729 244.004 245.163 244.504 244.772C245.008 244.378 245.612 244.182 246.318 244.182C247.023 244.182 247.626 244.378 248.127 244.772C248.631 245.163 249.015 245.729 249.279 246.472C249.547 247.212 249.681 248.105 249.681 249.15C249.681 250.202 249.548 251.099 249.284 251.842C249.019 252.582 248.637 253.148 248.136 253.538C247.636 253.925 247.029 254.119 246.318 254.119ZM246.318 253.08C247.023 253.08 247.571 252.74 247.961 252.06C248.352 251.38 248.547 250.41 248.547 249.15C248.547 248.313 248.457 247.6 248.278 247.011C248.102 246.422 247.846 245.973 247.513 245.665C247.182 245.356 246.784 245.202 246.318 245.202C245.619 245.202 245.072 245.547 244.679 246.236C244.285 246.923 244.089 247.894 244.089 249.15C244.089 249.988 244.177 250.699 244.353 251.285C244.529 251.871 244.783 252.316 245.113 252.622C245.447 252.927 245.849 253.08 246.318 253.08Z" fill="#F5F5F5"/>
</g>
<path d="M416.385 219.32H415.244L417.808 212.193H419.051L421.616 219.32H420.474L418.459 213.487H418.404L416.385 219.32ZM416.576 216.529H420.279V217.434H416.576V216.529ZM422.92 219.32V212.193H425.46C426.013 212.193 426.471 212.288 426.835 212.478C427.202 212.668 427.475 212.932 427.656 213.268C427.837 213.602 427.928 213.988 427.928 214.427C427.928 214.863 427.836 215.247 427.653 215.579C427.472 215.908 427.198 216.165 426.832 216.348C426.467 216.531 426.009 216.623 425.457 216.623H423.532V215.697H425.359C425.708 215.697 425.991 215.647 426.209 215.548C426.429 215.448 426.59 215.303 426.692 215.113C426.794 214.922 426.846 214.694 426.846 214.427C426.846 214.158 426.793 213.925 426.689 213.727C426.587 213.53 426.426 213.379 426.205 213.275C425.987 213.168 425.701 213.115 425.346 213.115H423.995V219.32H422.92ZM426.438 216.104L428.199 219.32H426.974L425.248 216.104H426.438ZM429.16 213.118V212.193H434.676V213.118H432.452V219.32H431.38V213.118H429.16ZM437.245 212.193V219.32H436.17V212.193H437.245ZM442.973 214.065C442.936 213.736 442.783 213.48 442.514 213.299C442.245 213.116 441.906 213.024 441.498 213.024C441.206 213.024 440.953 213.071 440.739 213.164C440.526 213.254 440.36 213.379 440.242 213.54C440.126 213.697 440.068 213.877 440.068 214.079C440.068 214.248 440.107 214.394 440.186 214.517C440.267 214.64 440.373 214.744 440.503 214.827C440.635 214.908 440.776 214.977 440.927 215.033C441.078 215.086 441.223 215.13 441.362 215.165L442.058 215.346C442.286 215.401 442.519 215.477 442.758 215.572C442.997 215.667 443.218 215.792 443.422 215.948C443.627 216.103 443.791 216.296 443.917 216.525C444.044 216.755 444.108 217.03 444.108 217.35C444.108 217.754 444.004 218.112 443.795 218.426C443.588 218.739 443.288 218.986 442.893 219.167C442.501 219.348 442.027 219.438 441.47 219.438C440.936 219.438 440.475 219.354 440.085 219.184C439.695 219.015 439.39 218.775 439.17 218.464C438.949 218.151 438.827 217.779 438.804 217.35H439.883C439.904 217.608 439.988 217.822 440.134 217.994C440.282 218.163 440.471 218.29 440.701 218.373C440.933 218.455 441.187 218.495 441.463 218.495C441.767 218.495 442.037 218.448 442.274 218.353C442.513 218.255 442.701 218.121 442.838 217.949C442.975 217.775 443.043 217.572 443.043 217.34C443.043 217.129 442.983 216.956 442.862 216.821C442.744 216.687 442.583 216.575 442.378 216.487C442.176 216.399 441.948 216.321 441.693 216.254L440.851 216.024C440.28 215.869 439.827 215.64 439.493 215.339C439.162 215.037 438.996 214.638 438.996 214.142C438.996 213.731 439.107 213.372 439.33 213.066C439.552 212.76 439.854 212.522 440.235 212.353C440.615 212.181 441.044 212.095 441.522 212.095C442.005 212.095 442.431 212.18 442.799 212.349C443.171 212.519 443.463 212.752 443.676 213.049C443.89 213.343 444.001 213.682 444.011 214.065H442.973ZM441.108 219.292H441.79L441.735 219.578C441.936 219.61 442.113 219.691 442.263 219.821C442.414 219.951 442.49 220.147 442.49 220.409C442.492 220.722 442.356 220.977 442.083 221.171C441.811 221.366 441.418 221.464 440.903 221.464L440.882 220.883C441.123 220.883 441.318 220.848 441.467 220.778C441.617 220.709 441.694 220.596 441.696 220.441C441.699 220.285 441.641 220.176 441.522 220.113C441.406 220.051 441.221 220.007 440.965 219.981L441.108 219.292ZM448.756 215.756C448.756 214.884 448.871 214.081 449.1 213.348C449.33 212.615 449.665 211.939 450.106 211.319H451.06C450.888 211.549 450.728 211.831 450.579 212.165C450.431 212.499 450.301 212.866 450.19 213.265C450.078 213.661 449.991 214.073 449.929 214.5C449.866 214.925 449.835 215.343 449.835 215.756C449.835 216.309 449.889 216.868 449.998 217.434C450.107 218 450.255 218.525 450.44 219.01C450.626 219.495 450.832 219.891 451.06 220.197H450.106C449.665 219.578 449.33 218.901 449.1 218.168C448.871 217.435 448.756 216.631 448.756 215.756ZM456.403 214.065C456.365 213.736 456.212 213.48 455.943 213.299C455.674 213.116 455.335 213.024 454.927 213.024C454.635 213.024 454.382 213.071 454.168 213.164C453.955 213.254 453.789 213.379 453.671 213.54C453.555 213.697 453.497 213.877 453.497 214.079C453.497 214.248 453.536 214.394 453.615 214.517C453.696 214.64 453.802 214.744 453.932 214.827C454.064 214.908 454.205 214.977 454.356 215.033C454.507 215.086 454.652 215.13 454.791 215.165L455.487 215.346C455.715 215.401 455.948 215.477 456.187 215.572C456.426 215.667 456.647 215.792 456.851 215.948C457.056 216.103 457.22 216.296 457.346 216.525C457.473 216.755 457.537 217.03 457.537 217.35C457.537 217.754 457.433 218.112 457.224 218.426C457.017 218.739 456.717 218.986 456.322 219.167C455.93 219.348 455.456 219.438 454.899 219.438C454.366 219.438 453.904 219.354 453.514 219.184C453.124 219.015 452.819 218.775 452.599 218.464C452.378 218.151 452.257 217.779 452.233 217.35H453.312C453.333 217.608 453.417 217.822 453.563 217.994C453.711 218.163 453.9 218.29 454.13 218.373C454.362 218.455 454.616 218.495 454.892 218.495C455.196 218.495 455.466 218.448 455.703 218.353C455.942 218.255 456.13 218.121 456.267 217.949C456.404 217.775 456.472 217.572 456.472 217.34C456.472 217.129 456.412 216.956 456.291 216.821C456.173 216.687 456.012 216.575 455.807 216.487C455.606 216.399 455.377 216.321 455.122 216.254L454.28 216.024C453.709 215.869 453.257 215.64 452.922 215.339C452.591 215.037 452.425 214.638 452.425 214.142C452.425 213.731 452.536 213.372 452.759 213.066C452.982 212.76 453.283 212.522 453.664 212.353C454.044 212.181 454.473 212.095 454.951 212.095C455.434 212.095 455.86 212.18 456.229 212.349C456.6 212.519 456.892 212.752 457.106 213.049C457.319 213.343 457.43 213.682 457.44 214.065H456.403ZM458.746 213.118V212.193H464.262V213.118H462.038V219.32H460.966V213.118H458.746ZM465.755 219.32V212.193H470.224V213.118H466.831V215.29H469.991V216.212H466.831V218.394H470.266V219.32H465.755ZM471.935 219.32V212.193H474.476C475.03 212.193 475.49 212.294 475.854 212.496C476.218 212.697 476.491 212.973 476.672 213.324C476.853 213.672 476.943 214.064 476.943 214.5C476.943 214.939 476.852 215.333 476.668 215.683C476.487 216.031 476.214 216.307 475.847 216.512C475.483 216.713 475.025 216.814 474.472 216.814H472.725V215.903H474.375C474.725 215.903 475.009 215.842 475.228 215.722C475.446 215.599 475.606 215.432 475.708 215.22C475.81 215.009 475.861 214.769 475.861 214.5C475.861 214.231 475.81 213.992 475.708 213.783C475.606 213.574 475.444 213.411 475.224 213.292C475.006 213.174 474.718 213.115 474.361 213.115H473.011V219.32H471.935ZM480.396 215.756C480.396 216.631 480.282 217.435 480.052 218.168C479.822 218.901 479.487 219.578 479.046 220.197H478.093C478.264 219.967 478.424 219.685 478.573 219.351C478.721 219.017 478.851 218.652 478.963 218.255C479.074 217.856 479.161 217.443 479.224 217.016C479.286 216.589 479.318 216.169 479.318 215.756C479.318 215.207 479.263 214.649 479.154 214.082C479.045 213.516 478.898 212.991 478.712 212.506C478.526 212.021 478.32 211.625 478.093 211.319H479.046C479.487 211.939 479.822 212.615 480.052 213.348C480.282 214.081 480.396 214.884 480.396 215.756Z" fill="#A1A1A1"/>
<rect x="413" y="230.32" width="186" height="37.3333" rx="8" fill="#171717" fill-opacity="0.6"/>
<rect x="413.5" y="230.82" width="185" height="36.3333" rx="7.5" stroke="white" stroke-opacity="0.1"/>
<g clip-path="url(#clip5_1_171)">
<path d="M430.3 243.805V253.987H429.067V245.097H429.008L426.522 246.748V245.495L429.067 243.805H430.3Z" fill="#F5F5F5"/>
</g>
<defs>
<clipPath id="clip0_1_171">
<rect width="340.333" height="20" fill="white" transform="translate(49 16.1667)"/>
</clipPath>
<clipPath id="clip1_1_171">
<rect width="556.667" height="16" fill="white" transform="translate(29.6666 100.33)"/>
</clipPath>
<clipPath id="clip2_1_171">
<rect width="556.667" height="16" fill="white" transform="translate(29.6666 169.99)"/>
</clipPath>
<clipPath id="clip3_1_171">
<rect width="145.667" height="20" fill="white" transform="translate(29.6666 238.987)"/>
</clipPath>
<clipPath id="clip4_1_171">
<rect width="145.667" height="20" fill="white" transform="translate(227.667 238.987)"/>
</clipPath>
<clipPath id="clip5_1_171">
<rect width="145.667" height="20" fill="white" transform="translate(425.667 238.987)"/>
</clipPath>
</defs>
</svg>
