<svg width="672" height="302" viewBox="0 0 672 302" fill="none" xmlns="http://www.w3.org/2000/svg">
<rect x="0.5" y="0.5" width="671" height="300.323" rx="11.5" stroke="white" stroke-opacity="0.2"/>
<rect x="8.33" y="8.34" width="657.187" height="284.653" rx="12" fill="#171717"/>
<rect x="8.83" y="8.84" width="656.187" height="283.653" rx="11.5" stroke="white" stroke-opacity="0.05"/>
<rect x="21.33" y="22.5067" width="24" height="24" rx="6" fill="white" fill-opacity="0.05"/>
<rect x="21.83" y="23.0067" width="23" height="23" rx="5.5" stroke="white" stroke-opacity="0.1"/>
<path d="M31.2058 28.6371L33.2879 32.0995H33.3617L35.453 28.6371H37.4058L34.4928 33.3644L37.4519 38.0917H35.4669L33.3617 34.6524H33.2879L31.1828 38.0917H29.2069L32.1938 33.3644L29.2438 28.6371H31.2058Z" fill="#A1A1A1"/>
<g clip-path="url(#clip0_1_2)">
<path d="M59.238 39.5067H57.6656L61.1988 29.6885H62.9103L66.4435 39.5067H64.871L62.0953 31.4719H62.0186L59.238 39.5067ZM59.5017 35.6619H64.6026V36.9083H59.5017V35.6619ZM67.7462 39.5067V32.143H69.1317V33.3128H69.2084C69.3427 32.9165 69.5792 32.6049 69.9179 32.3779C70.2599 32.1478 70.6466 32.0328 71.0781 32.0328C71.1676 32.0328 71.2731 32.036 71.3945 32.0424C71.5191 32.0487 71.6166 32.0567 71.6869 32.0663V33.4374C71.6294 33.4214 71.5271 33.4039 71.3801 33.3847C71.2331 33.3623 71.0861 33.3511 70.9391 33.3511C70.6003 33.3511 70.2983 33.423 70.033 33.5669C69.7709 33.7075 69.5632 33.904 69.4098 34.1565C69.2564 34.4058 69.1797 34.6903 69.1797 35.0099V39.5067H67.7462ZM75.0044 39.6697C74.5378 39.6697 74.1159 39.5834 73.7388 39.4108C73.3617 39.235 73.0628 38.9809 72.8423 38.6485C72.625 38.3161 72.5163 37.9087 72.5163 37.4261C72.5163 37.0106 72.5962 36.6686 72.756 36.4001C72.9158 36.1317 73.1315 35.9191 73.4032 35.7625C73.6749 35.6059 73.9785 35.4877 74.3141 35.4078C74.6496 35.3279 74.9916 35.2671 75.34 35.2256C75.781 35.1745 76.139 35.1329 76.4139 35.101C76.6887 35.0658 76.8885 35.0099 77.0131 34.9332C77.1378 34.8565 77.2001 34.7318 77.2001 34.5592V34.5257C77.2001 34.107 77.0818 33.7826 76.8453 33.5525C76.612 33.3224 76.2636 33.2073 75.8002 33.2073C75.3176 33.2073 74.9373 33.3144 74.6592 33.5285C74.3844 33.7394 74.1942 33.9744 74.0887 34.2332L72.7416 33.9264C72.9014 33.479 73.1347 33.1178 73.4416 32.843C73.7516 32.5649 74.1079 32.3636 74.5106 32.2389C74.9133 32.1111 75.3368 32.0472 75.781 32.0472C76.0751 32.0472 76.3867 32.0823 76.7159 32.1526C77.0483 32.2197 77.3583 32.3444 77.6459 32.5266C77.9368 32.7087 78.1749 32.9692 78.3602 33.308C78.5456 33.6436 78.6383 34.0798 78.6383 34.6168V39.5067H77.2384V38.4999H77.1809C77.0882 38.6853 76.9492 38.8675 76.7638 39.0464C76.5784 39.2254 76.3403 39.374 76.0495 39.4923C75.7587 39.6105 75.4103 39.6697 75.0044 39.6697ZM75.316 38.5191C75.7123 38.5191 76.0511 38.4408 76.3324 38.2842C76.6168 38.1276 76.8325 37.923 76.9795 37.6706C77.1298 37.4149 77.2049 37.1416 77.2049 36.8508V35.9016C77.1537 35.9527 77.0547 36.0006 76.9076 36.0454C76.7638 36.0869 76.5992 36.1237 76.4139 36.1556C76.2285 36.1844 76.0479 36.2116 75.8721 36.2371C75.6963 36.2595 75.5493 36.2787 75.4311 36.2947C75.153 36.3298 74.8989 36.3889 74.6688 36.472C74.4419 36.5551 74.2597 36.675 74.1223 36.8316C73.9881 36.985 73.921 37.1896 73.921 37.4452C73.921 37.8 74.052 38.0685 74.3141 38.2506C74.5761 38.4296 74.9101 38.5191 75.316 38.5191ZM81.9809 29.6885V39.5067H80.5475V29.6885H81.9809ZM83.9093 39.5067V32.143H85.3427V39.5067H83.9093ZM88.5895 37.009L88.5799 35.2592H88.8292L91.7632 32.143H93.4794L90.1332 35.6906H89.9079L88.5895 37.009ZM87.2711 39.5067V29.6885H88.7046V39.5067H87.2711ZM91.9214 39.5067L89.2846 36.007L90.2722 35.0051L93.6808 39.5067H91.9214Z" fill="#E5E5E5"/>
</g>
<g opacity="0.3">
<rect x="447.35" y="19.84" width="63.3333" height="29.3333" rx="7.5" fill="white" fill-opacity="0.03"/>
<rect x="447.35" y="19.84" width="63.3333" height="29.3333" rx="7.5" stroke="#525252"/>
<path d="M458.767 29.6317V36.1317" stroke="#737373" stroke-width="1.08333" stroke-linecap="round" stroke-linejoin="round"/>
<path d="M465.267 32.8817C466.164 32.8817 466.892 32.1541 466.892 31.2567C466.892 30.3592 466.164 29.6317 465.267 29.6317C464.369 29.6317 463.642 30.3592 463.642 31.2567C463.642 32.1541 464.369 32.8817 465.267 32.8817Z" stroke="#737373" stroke-width="1.08333" stroke-linecap="round" stroke-linejoin="round"/>
<path d="M458.767 39.3817C459.664 39.3817 460.392 38.6541 460.392 37.7567C460.392 36.8592 459.664 36.1317 458.767 36.1317C457.869 36.1317 457.142 36.8592 457.142 37.7567C457.142 38.6541 457.869 39.3817 458.767 39.3817Z" stroke="#737373" stroke-width="1.08333" stroke-linecap="round" stroke-linejoin="round"/>
<path d="M465.267 32.8817C465.267 34.1746 464.753 35.4146 463.839 36.3288C462.925 37.2431 461.685 37.7567 460.392 37.7567" stroke="#737373" stroke-width="1.08333" stroke-linecap="round" stroke-linejoin="round"/>
<path d="M475.672 38.0067V30.3703H476.824V34.017H476.917L480.12 30.3703H481.571L478.491 33.8082L481.582 38.0067H480.195L477.726 34.5949L476.824 35.6315V38.0067H475.672ZM484.547 38.1223C484.01 38.1223 483.541 37.9992 483.141 37.7531C482.741 37.507 482.43 37.1627 482.209 36.7203C481.988 36.2778 481.877 35.7608 481.877 35.1691C481.877 34.575 481.988 34.0555 482.209 33.6105C482.43 33.1656 482.741 32.8201 483.141 32.574C483.541 32.3279 484.01 32.2048 484.547 32.2048C485.084 32.2048 485.553 32.3279 485.953 32.574C486.353 32.8201 486.664 33.1656 486.885 33.6105C487.106 34.0555 487.217 34.575 487.217 35.1691C487.217 35.7608 487.106 36.2778 486.885 36.7203C486.664 37.1627 486.353 37.507 485.953 37.7531C485.553 37.9992 485.084 38.1223 484.547 38.1223ZM484.551 37.1864C484.899 37.1864 485.187 37.0944 485.416 36.9104C485.644 36.7265 485.814 36.4816 485.923 36.1759C486.035 35.8701 486.091 35.5333 486.091 35.1654C486.091 34.8 486.035 34.4644 485.923 34.1587C485.814 33.8504 485.644 33.6031 485.416 33.4166C485.187 33.2302 484.899 33.137 484.551 33.137C484.2 33.137 483.909 33.2302 483.678 33.4166C483.45 33.6031 483.279 33.8504 483.167 34.1587C483.058 34.4644 483.003 34.8 483.003 35.1654C483.003 35.5333 483.058 35.8701 483.167 36.1759C483.279 36.4816 483.45 36.7265 483.678 36.9104C483.909 37.0944 484.2 37.1864 484.551 37.1864ZM492.753 33.6777L491.742 33.8566C491.7 33.7274 491.633 33.6043 491.541 33.4875C491.452 33.3707 491.33 33.275 491.176 33.2004C491.022 33.1258 490.829 33.0885 490.598 33.0885C490.282 33.0885 490.019 33.1594 489.807 33.3011C489.596 33.4403 489.49 33.6205 489.49 33.8417C489.49 34.0331 489.561 34.1872 489.703 34.3041C489.845 34.4209 490.073 34.5166 490.389 34.5912L491.299 34.8C491.826 34.9218 492.218 35.1095 492.477 35.363C492.736 35.6166 492.865 35.9459 492.865 36.3511C492.865 36.6942 492.765 36.9999 492.566 37.2684C492.37 37.5344 492.095 37.7432 491.742 37.8948C491.392 38.0464 490.986 38.1223 490.523 38.1223C489.882 38.1223 489.359 37.9855 488.953 37.7121C488.548 37.4362 488.3 37.0447 488.208 36.5376L489.285 36.3735C489.352 36.6544 489.49 36.8669 489.699 37.0111C489.908 37.1528 490.18 37.2236 490.516 37.2236C490.881 37.2236 491.173 37.1478 491.392 36.9962C491.611 36.8421 491.72 36.6544 491.72 36.4332C491.72 36.2542 491.653 36.1038 491.519 35.982C491.387 35.8602 491.184 35.7682 490.911 35.7061L489.941 35.4935C489.407 35.3717 489.012 35.1778 488.756 34.9119C488.502 34.6459 488.375 34.309 488.375 33.9014C488.375 33.5633 488.47 33.2675 488.659 33.0139C488.848 32.7604 489.109 32.5628 489.442 32.4211C489.775 32.2769 490.157 32.2048 490.587 32.2048C491.206 32.2048 491.693 32.3391 492.048 32.6075C492.404 32.8735 492.639 33.2302 492.753 33.6777ZM490.188 37.9768H490.918L490.859 38.2826C491.075 38.3174 491.264 38.4044 491.426 38.5436C491.587 38.6828 491.668 38.8929 491.668 39.1737C491.67 39.5093 491.525 39.7815 491.232 39.9903C490.941 40.1991 490.519 40.3035 489.968 40.3035L489.945 39.6809C490.204 39.6809 490.413 39.6436 490.572 39.569C490.733 39.4944 490.815 39.3739 490.818 39.2073C490.82 39.0408 490.758 38.9239 490.631 38.8568C490.507 38.7897 490.308 38.7425 490.035 38.7151L490.188 37.9768ZM497.719 35.6315V32.2794H498.837V38.0067H497.741V37.0148H497.681C497.55 37.3206 497.338 37.5754 497.047 37.7792C496.759 37.9806 496.4 38.0812 495.97 38.0812C495.602 38.0812 495.276 38.0005 494.993 37.8389C494.712 37.6748 494.491 37.4324 494.329 37.1118C494.17 36.7911 494.091 36.3946 494.091 35.9223V32.2794H495.205V35.7881C495.205 36.1784 495.314 36.4891 495.53 36.7203C495.746 36.9514 496.027 37.067 496.373 37.067C496.581 37.067 496.789 37.0148 496.995 36.9104C497.204 36.806 497.377 36.6482 497.514 36.4369C497.653 36.2256 497.721 35.9571 497.719 35.6315ZM501.45 30.3703V38.0067H500.335V30.3703H501.45Z" fill="#737373"/>
</g>
<rect x="519.183" y="24.5067" width="1" height="20" fill="white" fill-opacity="0.1"/>
<rect x="528.183" y="19.34" width="124.333" height="30.3333" rx="8" fill="white" fill-opacity="0.05"/>
<rect x="528.683" y="19.84" width="123.333" height="29.3333" rx="7.5" stroke="white" stroke-opacity="0.15"/>
<rect x="530.85" y="22.0067" width="65" height="25" rx="8" fill="white" fill-opacity="0.1"/>
<path d="M546.532 34.2612C546.532 35.0513 546.39 35.734 546.105 36.3095C545.819 36.885 545.428 37.3288 544.93 37.6409C544.433 37.953 543.865 38.1091 543.226 38.1091C542.587 38.1091 542.019 37.953 541.521 37.6409C541.024 37.3288 540.633 36.885 540.347 36.3095C540.062 35.734 539.919 35.0513 539.919 34.2612C539.919 33.4712 540.062 32.7884 540.347 32.2129C540.633 31.6374 541.024 31.1936 541.521 30.8815C542.019 30.5694 542.587 30.4133 543.226 30.4133C543.865 30.4133 544.433 30.5694 544.93 30.8815C545.428 31.1936 545.819 31.6374 546.105 32.2129C546.39 32.7884 546.532 33.4712 546.532 34.2612ZM545.655 34.2612C545.655 33.6126 545.546 33.0652 545.329 32.6189C545.115 32.1727 544.823 31.835 544.455 31.6057C544.089 31.3765 543.679 31.2619 543.226 31.2619C542.772 31.2619 542.362 31.3765 541.993 31.6057C541.628 31.835 541.336 32.1727 541.119 32.6189C540.905 33.0652 540.797 33.6126 540.797 34.2612C540.797 34.9098 540.905 35.4573 541.119 35.9035C541.336 36.3497 541.628 36.6875 541.993 36.9167C542.362 37.1459 542.772 37.2605 543.226 37.2605C543.679 37.2605 544.089 37.1459 544.455 36.9167C544.823 36.6875 545.115 36.3497 545.329 35.9035C545.546 35.4573 545.655 34.9098 545.655 34.2612ZM547.941 40.1135V32.3885H548.775V33.281H548.877C548.94 33.1834 549.028 33.0591 549.14 32.9079C549.255 32.7543 549.418 32.6177 549.631 32.4982C549.845 32.3763 550.135 32.3153 550.501 32.3153C550.974 32.3153 551.391 32.4336 551.752 32.6701C552.113 32.9067 552.394 33.2419 552.597 33.676C552.799 34.11 552.9 34.6221 552.9 35.2122C552.9 35.8072 552.799 36.3229 552.597 36.7594C552.394 37.1934 552.114 37.53 551.756 37.7689C551.397 38.0054 550.984 38.1237 550.516 38.1237C550.155 38.1237 549.866 38.064 549.649 37.9445C549.432 37.8226 549.265 37.6848 549.148 37.5312C549.031 37.3751 548.94 37.2459 548.877 37.1435H548.804V40.1135H547.941ZM548.789 35.1976C548.789 35.6219 548.851 35.9962 548.976 36.3205C549.1 36.6424 549.282 36.8947 549.521 37.0776C549.76 37.2581 550.052 37.3483 550.399 37.3483C550.76 37.3483 551.061 37.2532 551.302 37.063C551.546 36.8704 551.729 36.6119 551.851 36.2876C551.975 35.9608 552.037 35.5975 552.037 35.1976C552.037 34.8025 551.976 34.4465 551.854 34.1295C551.735 33.8101 551.553 33.5577 551.309 33.3724C551.068 33.1846 550.764 33.0908 550.399 33.0908C550.047 33.0908 549.752 33.1798 549.513 33.3578C549.274 33.5333 549.094 33.7796 548.972 34.0966C548.85 34.4112 548.789 34.7782 548.789 35.1976ZM558.197 33.6467L557.421 33.8662C557.373 33.7369 557.301 33.6114 557.206 33.4894C557.113 33.3651 556.986 33.2627 556.825 33.1822C556.664 33.1017 556.458 33.0615 556.207 33.0615C555.863 33.0615 555.577 33.1407 555.347 33.2992C555.121 33.4553 555.007 33.654 555.007 33.8954C555.007 34.11 555.085 34.2795 555.241 34.4039C555.397 34.5282 555.641 34.6319 555.973 34.7148L556.807 34.9196C557.309 35.0415 557.683 35.2281 557.93 35.4792C558.176 35.7279 558.299 36.0486 558.299 36.4412C558.299 36.7631 558.207 37.0508 558.021 37.3044C557.838 37.558 557.582 37.7579 557.253 37.9043C556.924 38.0506 556.541 38.1237 556.105 38.1237C555.532 38.1237 555.057 37.9994 554.682 37.7506C554.306 37.5019 554.068 37.1386 553.969 36.6606L554.788 36.4558C554.866 36.7582 555.013 36.985 555.23 37.1361C555.45 37.2873 555.736 37.3629 556.09 37.3629C556.492 37.3629 556.812 37.2776 557.048 37.1069C557.287 36.9338 557.407 36.7265 557.407 36.4851C557.407 36.29 557.338 36.1266 557.202 35.9949C557.065 35.8608 556.856 35.7609 556.573 35.695L555.636 35.4756C555.122 35.3536 554.744 35.1647 554.503 34.9086C554.264 34.6501 554.144 34.3271 554.144 33.9393C554.144 33.6223 554.233 33.3419 554.411 33.0981C554.592 32.8542 554.837 32.6628 555.146 32.5238C555.458 32.3848 555.812 32.3153 556.207 32.3153C556.763 32.3153 557.199 32.4373 557.516 32.6811C557.836 32.9249 558.063 33.2468 558.197 33.6467ZM559.599 38.0067V32.3885H560.462V38.0067H559.599ZM560.037 31.4521C559.869 31.4521 559.724 31.3948 559.602 31.2802C559.483 31.1656 559.423 31.0278 559.423 30.8669C559.423 30.706 559.483 30.5682 559.602 30.4536C559.724 30.339 559.869 30.2817 560.037 30.2817C560.206 30.2817 560.35 30.339 560.469 30.4536C560.591 30.5682 560.652 30.706 560.652 30.8669C560.652 31.0278 560.591 31.1656 560.469 31.2802C560.35 31.3948 560.206 31.4521 560.037 31.4521ZM562.599 40.1135C562.452 40.1135 562.322 40.1013 562.207 40.0769C562.093 40.055 562.014 40.033 561.97 40.0111L562.189 39.2503C562.399 39.3039 562.584 39.3234 562.745 39.3088C562.906 39.2942 563.049 39.2222 563.173 39.093C563.3 38.9662 563.416 38.7601 563.521 38.4748L563.681 38.0359L561.604 32.3885H562.54L564.091 36.8655H564.15L565.7 32.3885H566.637L564.252 38.826C564.145 39.1162 564.012 39.3563 563.853 39.5465C563.695 39.7392 563.511 39.8818 563.301 39.9745C563.094 40.0672 562.86 40.1135 562.599 40.1135ZM569.857 38.1237C569.35 38.1237 568.905 38.003 568.522 37.7616C568.142 37.5202 567.844 37.1825 567.63 36.7484C567.418 36.3144 567.312 35.8072 567.312 35.2268C567.312 34.6416 567.418 34.1308 567.63 33.6943C567.844 33.2578 568.142 32.9188 568.522 32.6774C568.905 32.436 569.35 32.3153 569.857 32.3153C570.365 32.3153 570.808 32.436 571.189 32.6774C571.572 32.9188 571.869 33.2578 572.081 33.6943C572.296 34.1308 572.403 34.6416 572.403 35.2268C572.403 35.8072 572.296 36.3144 572.081 36.7484C571.869 37.1825 571.572 37.5202 571.189 37.7616C570.808 38.003 570.365 38.1237 569.857 38.1237ZM569.857 37.3483C570.243 37.3483 570.56 37.2495 570.808 37.052C571.057 36.8545 571.241 36.5948 571.361 36.2729C571.48 35.9511 571.54 35.6024 571.54 35.2268C571.54 34.8513 571.48 34.5014 571.361 34.1771C571.241 33.8528 571.057 33.5906 570.808 33.3907C570.56 33.1907 570.243 33.0908 569.857 33.0908C569.472 33.0908 569.155 33.1907 568.906 33.3907C568.658 33.5906 568.474 33.8528 568.354 34.1771C568.235 34.5014 568.175 34.8513 568.175 35.2268C568.175 35.6024 568.235 35.9511 568.354 36.2729C568.474 36.5948 568.658 36.8545 568.906 37.052C569.155 37.2495 569.472 37.3483 569.857 37.3483ZM574.584 34.627V38.0067H573.721V32.3885H574.555V33.2663H574.628C574.76 32.981 574.96 32.7518 575.228 32.5787C575.496 32.4031 575.842 32.3153 576.267 32.3153C576.647 32.3153 576.98 32.3934 577.265 32.5494C577.55 32.703 577.772 32.9371 577.931 33.2517C578.089 33.5638 578.169 33.9588 578.169 34.4368V38.0067H577.305V34.4953C577.305 34.0539 577.191 33.7101 576.962 33.4638C576.732 33.2151 576.418 33.0908 576.018 33.0908C575.742 33.0908 575.496 33.1505 575.279 33.27C575.064 33.3895 574.895 33.5638 574.771 33.793C574.646 34.0222 574.584 34.3002 574.584 34.627ZM582.101 38.1237C581.56 38.1237 581.093 38.0042 580.701 37.7653C580.31 37.5239 580.009 37.1873 579.797 36.7557C579.587 36.3217 579.483 35.8169 579.483 35.2415C579.483 34.666 579.587 34.1588 579.797 33.7199C580.009 33.2785 580.304 32.9347 580.682 32.6884C581.063 32.4397 581.507 32.3153 582.014 32.3153C582.306 32.3153 582.595 32.3641 582.881 32.4616C583.166 32.5592 583.426 32.7177 583.66 32.9371C583.894 33.1542 584.08 33.4419 584.219 33.8003C584.358 34.1588 584.428 34.6002 584.428 35.1244V35.4902H580.097V34.744H583.55C583.55 34.427 583.487 34.1442 583.36 33.8954C583.235 33.6467 583.057 33.4504 582.826 33.3066C582.596 33.1627 582.326 33.0908 582.014 33.0908C581.67 33.0908 581.372 33.1761 581.121 33.3468C580.873 33.515 580.681 33.7345 580.547 34.0052C580.413 34.2758 580.346 34.566 580.346 34.8757V35.3731C580.346 35.7974 580.419 36.1571 580.565 36.4522C580.714 36.7448 580.92 36.9679 581.183 37.1215C581.447 37.2727 581.753 37.3483 582.101 37.3483C582.328 37.3483 582.533 37.3166 582.716 37.2532C582.901 37.1873 583.061 37.0898 583.195 36.9606C583.329 36.8289 583.433 36.6655 583.506 36.4704L584.34 36.7045C584.252 36.9874 584.105 37.2361 583.897 37.4507C583.69 37.6628 583.434 37.8287 583.129 37.9481C582.824 38.0652 582.482 38.1237 582.101 38.1237ZM586.604 30.5158V38.0067H585.741V30.5158H586.604Z" fill="#F5F5F5"/>
<path d="M604.736 38.0067V37.3355L608.852 31.1906H604.691V30.3703H609.956V31.0415L605.84 37.1864H610.001V38.0067H604.736ZM613.759 38.126C613.242 38.126 612.789 38.0029 612.398 37.7568C612.011 37.5108 611.707 37.1665 611.489 36.724C611.272 36.2815 611.164 35.7645 611.164 35.1729C611.164 34.5763 611.272 34.0555 611.489 33.6105C611.707 33.1656 612.011 32.8201 612.398 32.574C612.789 32.3279 613.242 32.2048 613.759 32.2048C614.276 32.2048 614.729 32.3279 615.117 32.574C615.507 32.8201 615.81 33.1656 616.026 33.6105C616.245 34.0555 616.355 34.5763 616.355 35.1729C616.355 35.7645 616.245 36.2815 616.026 36.724C615.81 37.1665 615.507 37.5108 615.117 37.7568C614.729 38.0029 614.276 38.126 613.759 38.126ZM613.759 37.3355C614.152 37.3355 614.475 37.2348 614.729 37.0335C614.982 36.8321 615.17 36.5674 615.292 36.2393C615.414 35.9111 615.475 35.5557 615.475 35.1729C615.475 34.79 615.414 34.4333 615.292 34.1027C615.17 33.7721 614.982 33.5049 614.729 33.3011C614.475 33.0972 614.152 32.9953 613.759 32.9953C613.367 32.9953 613.044 33.0972 612.79 33.3011C612.536 33.5049 612.349 33.7721 612.227 34.1027C612.105 34.4333 612.044 34.79 612.044 35.1729C612.044 35.5557 612.105 35.9111 612.227 36.2393C612.349 36.5674 612.536 36.8321 612.79 37.0335C613.044 37.2348 613.367 37.3355 613.759 37.3355ZM617.698 38.0067V32.2794H618.548V33.1445H618.608C618.712 32.8611 618.901 32.6311 619.174 32.4546C619.448 32.2782 619.756 32.1899 620.099 32.1899C620.164 32.1899 620.245 32.1911 620.341 32.1936C620.438 32.1961 620.512 32.1998 620.561 32.2048V33.0997C620.532 33.0923 620.463 33.0811 620.356 33.0661C620.252 33.0487 620.141 33.04 620.025 33.04C619.746 33.04 619.498 33.0985 619.279 33.2153C619.063 33.3296 618.891 33.4887 618.764 33.6926C618.64 33.8939 618.578 34.1239 618.578 34.3824V38.0067H617.698ZM625.214 35.665V32.2794H626.094V38.0067H625.214V37.0372H625.154C625.02 37.328 624.811 37.5754 624.528 37.7792C624.245 37.9806 623.887 38.0812 623.454 38.0812C623.096 38.0812 622.778 38.0029 622.499 37.8463C622.221 37.6872 622.002 37.4486 621.843 37.1304C621.684 36.8098 621.605 36.4058 621.605 35.9186V32.2794H622.485V35.8589C622.485 36.2766 622.601 36.6097 622.835 36.8582C623.071 37.1068 623.372 37.2311 623.737 37.2311C623.956 37.2311 624.179 37.1752 624.405 37.0633C624.634 36.9514 624.825 36.7799 624.979 36.5487C625.136 36.3176 625.214 36.023 625.214 35.665ZM628.586 34.5614V38.0067H627.706V32.2794H628.556V33.1743H628.63C628.765 32.8834 628.968 32.6498 629.242 32.4733C629.515 32.2943 629.868 32.2048 630.301 32.2048C630.689 32.2048 631.028 32.2844 631.319 32.4435C631.61 32.6001 631.836 32.8387 631.997 33.1594C632.159 33.4775 632.24 33.8802 632.24 34.3675V38.0067H631.36V34.4271C631.36 33.9772 631.243 33.6267 631.009 33.3756C630.776 33.1221 630.455 32.9953 630.047 32.9953C629.766 32.9953 629.515 33.0562 629.294 33.178C629.075 33.2998 628.903 33.4775 628.776 33.7112C628.649 33.9449 628.586 34.2283 628.586 34.5614ZM634.728 30.3703V38.0067H633.848V30.3703H634.728ZM639.949 35.665V32.2794H640.829V38.0067H639.949V37.0372H639.889C639.755 37.328 639.546 37.5754 639.263 37.7792C638.979 37.9806 638.621 38.0812 638.189 38.0812C637.831 38.0812 637.513 38.0029 637.234 37.8463C636.956 37.6872 636.737 37.4486 636.578 37.1304C636.419 36.8098 636.339 36.4058 636.339 35.9186V32.2794H637.219V35.8589C637.219 36.2766 637.336 36.6097 637.57 36.8582C637.806 37.1068 638.107 37.2311 638.472 37.2311C638.691 37.2311 638.913 37.1752 639.14 37.0633C639.368 36.9514 639.56 36.7799 639.714 36.5487C639.871 36.3176 639.949 36.023 639.949 35.665Z" fill="#D4D4D4"/>
<path d="M32.3339 82.7097C32.2941 82.3567 32.1301 82.0832 31.8417 81.8894C31.5534 81.693 31.1904 81.5948 30.7529 81.5948C30.4397 81.5948 30.1688 81.6445 29.9401 81.7439C29.7114 81.8409 29.5337 81.9751 29.4069 82.1466C29.2826 82.3157 29.2204 82.5083 29.2204 82.7246C29.2204 82.906 29.2627 83.0627 29.3472 83.1944C29.4342 83.3261 29.5473 83.4368 29.6865 83.5263C29.8282 83.6133 29.9799 83.6866 30.1414 83.7462C30.303 83.8034 30.4584 83.8506 30.6075 83.8879L31.3533 84.0818C31.5969 84.1415 31.8467 84.2223 32.1027 84.3242C32.3588 84.4261 32.5962 84.5603 32.8149 84.7269C33.0337 84.8934 33.2102 85.0998 33.3444 85.3459C33.4811 85.5919 33.5495 85.8865 33.5495 86.2296C33.5495 86.6621 33.4376 87.0461 33.2139 87.3817C32.9926 87.7173 32.6707 87.982 32.2481 88.1759C31.828 88.3698 31.3197 88.4668 30.7231 88.4668C30.1514 88.4668 29.6567 88.376 29.2391 88.1946C28.8215 88.0131 28.4946 87.7558 28.2584 87.4227C28.0223 87.0872 27.8918 86.6894 27.8669 86.2296H29.0228C29.0452 86.5055 29.1347 86.7354 29.2913 86.9194C29.4504 87.1008 29.653 87.2363 29.8991 87.3258C30.1477 87.4128 30.4198 87.4563 30.7157 87.4563C31.0413 87.4563 31.3309 87.4053 31.5844 87.3034C31.8405 87.199 32.0418 87.0548 32.1885 86.8709C32.3352 86.6845 32.4085 86.4669 32.4085 86.2184C32.4085 85.9922 32.3439 85.807 32.2146 85.6628C32.0878 85.5186 31.9151 85.3993 31.6963 85.3048C31.48 85.2104 31.2352 85.1271 30.9617 85.055L30.0594 84.8089C29.4479 84.6424 28.9632 84.3975 28.6052 84.0744C28.2497 83.7512 28.072 83.3237 28.072 82.7917C28.072 82.3517 28.1913 81.9677 28.43 81.6395C28.6686 81.3114 28.9918 81.0566 29.3994 80.8752C29.8071 80.6912 30.267 80.5992 30.779 80.5992C31.2961 80.5992 31.7522 80.69 32.1475 80.8714C32.5452 81.0529 32.8584 81.3027 33.0871 81.6209C33.3158 81.9366 33.4351 82.2995 33.4451 82.7097H32.3339ZM41.8346 84.5218C41.8346 85.3372 41.6855 86.0381 41.3872 86.6248C41.0889 87.209 40.68 87.6589 40.1604 87.9746C39.6434 88.2878 39.0555 88.4444 38.3968 88.4444C37.7356 88.4444 37.1452 88.2878 36.6256 87.9746C36.1086 87.6589 35.7009 87.2077 35.4026 86.6211C35.1043 86.0344 34.9552 85.3347 34.9552 84.5218C34.9552 83.7065 35.1043 83.0067 35.4026 82.4226C35.7009 81.8359 36.1086 81.386 36.6256 81.0728C37.1452 80.7571 37.7356 80.5992 38.3968 80.5992C39.0555 80.5992 39.6434 80.7571 40.1604 81.0728C40.68 81.386 41.0889 81.8359 41.3872 82.4226C41.6855 83.0067 41.8346 83.7065 41.8346 84.5218ZM40.6936 84.5218C40.6936 83.9004 40.593 83.3771 40.3916 82.952C40.1928 82.5245 39.9193 82.2013 39.5713 81.9826C39.2258 81.7613 38.8343 81.6507 38.3968 81.6507C37.9568 81.6507 37.564 81.7613 37.2185 81.9826C36.873 82.2013 36.5995 82.5245 36.3982 82.952C36.1993 83.3771 36.0999 83.9004 36.0999 84.5218C36.0999 85.1433 36.1993 85.6678 36.3982 86.0953C36.5995 86.5204 36.873 86.8435 37.2185 87.0648C37.564 87.2835 37.9568 87.3929 38.3968 87.3929C38.8343 87.3929 39.2258 87.2835 39.5713 87.0648C39.9193 86.8435 40.1928 86.5204 40.3916 86.0953C40.593 85.6678 40.6936 85.1433 40.6936 84.5218ZM43.5461 88.34V80.7036H46.2681C46.8597 80.7036 47.3506 80.8056 47.7409 81.0094C48.1336 81.2132 48.427 81.4954 48.6209 81.8558C48.8148 82.2138 48.9117 82.6276 48.9117 83.0975C48.9117 83.5648 48.8135 83.9762 48.6171 84.3317C48.4232 84.6846 48.1299 84.9593 47.7372 85.1557C47.3469 85.3521 46.8559 85.4503 46.2643 85.4503H44.2024V84.4584H46.1599C46.5328 84.4584 46.8361 84.405 47.0697 84.2981C47.3059 84.1912 47.4786 84.0358 47.588 83.832C47.6974 83.6282 47.7521 83.3833 47.7521 83.0975C47.7521 82.8091 47.6961 82.5593 47.5843 82.348C47.4749 82.1367 47.3021 81.9751 47.066 81.8633C46.8323 81.7489 46.5253 81.6917 46.145 81.6917H44.6983V88.34H43.5461ZM47.3158 84.8947L49.2025 88.34H47.89L46.0406 84.8947H47.3158ZM55.4994 80.7036H56.6553V85.7262C56.6553 86.2606 56.5297 86.7342 56.2787 87.1468C56.0276 87.557 55.6746 87.8801 55.2197 88.1163C54.7648 88.3499 54.2316 88.4668 53.6201 88.4668C53.0111 88.4668 52.4791 88.3499 52.0242 88.1163C51.5693 87.8801 51.2163 87.557 50.9653 87.1468C50.7142 86.7342 50.5887 86.2606 50.5887 85.7262V80.7036H51.7409V85.633C51.7409 85.9785 51.8167 86.2855 51.9683 86.554C52.1224 86.8224 52.3399 87.0337 52.6208 87.1878C52.9017 87.3395 53.2348 87.4153 53.6201 87.4153C54.0079 87.4153 54.3422 87.3395 54.6231 87.1878C54.9065 87.0337 55.1228 86.8224 55.2719 86.554C55.4236 86.2855 55.4994 85.9785 55.4994 85.633V80.7036ZM61.6592 80.7036H63.0575L65.4886 86.6397H65.578L68.0092 80.7036H69.4074V88.34H68.3112V82.8141H68.2403L65.9882 88.3288H65.0784L62.8263 82.8103H62.7554V88.34H61.6592V80.7036ZM71.3575 88.34V80.7036H76.1452V81.6955H72.5097V84.0222H75.8954V85.0103H72.5097V87.3482H76.1899V88.34H71.3575ZM77.5826 81.6955V80.7036H83.4926V81.6955H81.1099V88.34H79.9615V81.6955H77.5826ZM91.2371 80.7036V88.34H90.1781L86.2966 82.7395H86.2257V88.34H85.0735V80.7036H86.14L90.0253 86.3116H90.0961V80.7036H91.2371ZM94.345 80.7036V88.34H93.1928V80.7036H94.345Z" fill="#A1A1A1"/>
<rect x="25.33" y="99.34" width="621.31" height="34.66" rx="8" fill="#171717" fill-opacity="0.6"/>
<rect x="25.83" y="99.84" width="620.31" height="33.66" rx="7.5" stroke="white" stroke-opacity="0.1"/>
<path d="M44.2634 114.634C44.2085 114.169 43.9855 113.809 43.5946 113.553C43.2037 113.296 42.7242 113.168 42.1562 113.168C41.7408 113.168 41.3774 113.235 41.0659 113.369C40.7575 113.504 40.5162 113.688 40.3421 113.924C40.1711 114.159 40.0856 114.426 40.0856 114.725C40.0856 114.976 40.1451 115.191 40.2643 115.371C40.3864 115.548 40.5422 115.696 40.7315 115.816C40.9209 115.932 41.1194 116.028 41.327 116.104C41.5347 116.177 41.7256 116.237 41.8997 116.283L42.8525 116.539C43.0968 116.603 43.3686 116.692 43.6679 116.805C43.9703 116.918 44.2589 117.072 44.5337 117.268C44.8116 117.46 45.0407 117.707 45.2209 118.01C45.401 118.312 45.4911 118.683 45.4911 119.123C45.4911 119.63 45.3583 120.088 45.0926 120.497C44.8299 120.906 44.4451 121.232 43.9382 121.473C43.4343 121.714 42.822 121.835 42.1012 121.835C41.4293 121.835 40.8476 121.726 40.3559 121.51C39.8672 121.293 39.4824 120.99 39.2015 120.603C38.9236 120.215 38.7663 119.764 38.7296 119.251H39.9024C39.9329 119.605 40.052 119.899 40.2597 120.131C40.4704 120.36 40.7361 120.531 41.0568 120.644C41.3805 120.754 41.7286 120.809 42.1012 120.809C42.5349 120.809 42.9243 120.739 43.2694 120.598C43.6145 120.454 43.8878 120.256 44.0894 120.003C44.2909 119.746 44.3917 119.447 44.3917 119.105C44.3917 118.793 44.3047 118.54 44.1306 118.344C43.9565 118.149 43.7275 117.99 43.4434 117.868C43.1594 117.746 42.8525 117.639 42.5227 117.547L41.3683 117.217C40.6353 117.007 40.0551 116.706 39.6275 116.315C39.1999 115.924 38.9862 115.412 38.9862 114.78C38.9862 114.255 39.1282 113.797 39.4122 113.406C39.6993 113.012 40.0841 112.707 40.5666 112.49C41.0522 112.27 41.5943 112.16 42.1928 112.16C42.7975 112.16 43.335 112.268 43.8053 112.485C44.2757 112.699 44.6482 112.992 44.9231 113.365C45.201 113.737 45.3476 114.16 45.3629 114.634H44.2634ZM50.071 121.817C49.4357 121.817 48.8784 121.665 48.3989 121.363C47.9225 121.061 47.5499 120.638 47.2811 120.094C47.0155 119.551 46.8826 118.915 46.8826 118.188C46.8826 117.455 47.0155 116.816 47.2811 116.269C47.5499 115.722 47.9225 115.298 48.3989 114.996C48.8784 114.693 49.4357 114.542 50.071 114.542C50.7062 114.542 51.262 114.693 51.7384 114.996C52.2179 115.298 52.5905 115.722 52.8562 116.269C53.1249 116.816 53.2593 117.455 53.2593 118.188C53.2593 118.915 53.1249 119.551 52.8562 120.094C52.5905 120.638 52.2179 121.061 51.7384 121.363C51.262 121.665 50.7062 121.817 50.071 121.817ZM50.071 120.845C50.5535 120.845 50.9505 120.722 51.262 120.474C51.5735 120.227 51.8041 119.902 51.9537 119.499C52.1034 119.095 52.1782 118.659 52.1782 118.188C52.1782 117.718 52.1034 117.28 51.9537 116.874C51.8041 116.468 51.5735 116.139 51.262 115.889C50.9505 115.638 50.5535 115.513 50.071 115.513C49.5884 115.513 49.1914 115.638 48.8799 115.889C48.5684 116.139 48.3378 116.468 48.1882 116.874C48.0385 117.28 47.9637 117.718 47.9637 118.188C47.9637 118.659 48.0385 119.095 48.1882 119.499C48.3378 119.902 48.5684 120.227 48.8799 120.474C49.1914 120.722 49.5884 120.845 50.071 120.845ZM54.9096 121.67V114.634H55.9541V115.696H56.0274C56.1556 115.348 56.3877 115.066 56.7237 114.849C57.0596 114.632 57.4383 114.524 57.8597 114.524C57.9391 114.524 58.0384 114.525 58.1575 114.528C58.2766 114.531 58.3667 114.536 58.4278 114.542V115.641C58.3911 115.632 58.3071 115.619 58.1758 115.6C58.0476 115.579 57.9117 115.568 57.7681 115.568C57.4261 115.568 57.1207 115.64 56.8519 115.783C56.5862 115.924 56.3755 116.119 56.2198 116.37C56.0671 116.617 55.9907 116.9 55.9907 117.217V121.67H54.9096ZM64.1437 118.793V114.634H65.2248V121.67H64.1437V120.479H64.0704C63.9055 120.836 63.6489 121.14 63.3008 121.391C62.9526 121.638 62.5129 121.762 61.9815 121.762C61.5417 121.762 61.1508 121.665 60.8087 121.473C60.4667 121.278 60.1979 120.984 60.0025 120.593C59.807 120.199 59.7093 119.703 59.7093 119.105V114.634H60.7904V119.031C60.7904 119.544 60.934 119.954 61.221 120.259C61.5112 120.564 61.8807 120.717 62.3296 120.717C62.5984 120.717 62.8717 120.648 63.1496 120.511C63.4306 120.374 63.6657 120.163 63.8551 119.879C64.0475 119.595 64.1437 119.233 64.1437 118.793ZM68.286 117.437V121.67H67.2049V114.634H68.2494V115.733H68.341C68.5059 115.376 68.7563 115.089 69.0923 114.872C69.4282 114.652 69.8619 114.542 70.3933 114.542C70.8697 114.542 71.2866 114.64 71.6439 114.835C72.0012 115.028 72.2791 115.321 72.4776 115.715C72.6761 116.106 72.7754 116.6 72.7754 117.199V121.67H71.6943V117.272C71.6943 116.719 71.5507 116.289 71.2636 115.98C70.9766 115.669 70.5826 115.513 70.0818 115.513C69.7367 115.513 69.4282 115.588 69.1564 115.738C68.8877 115.887 68.6754 116.106 68.5196 116.393C68.3639 116.68 68.286 117.028 68.286 117.437ZM79.1853 118.793V114.634H80.2664V121.67H79.1853V120.479H79.112C78.9471 120.836 78.6905 121.14 78.3424 121.391C77.9942 121.638 77.5545 121.762 77.0231 121.762C76.5833 121.762 76.1924 121.665 75.8503 121.473C75.5083 121.278 75.2395 120.984 75.0441 120.593C74.8486 120.199 74.7509 119.703 74.7509 119.105V114.634H75.832V119.031C75.832 119.544 75.9756 119.954 76.2626 120.259C76.5528 120.564 76.9223 120.717 77.3712 120.717C77.64 120.717 77.9133 120.648 78.1912 120.511C78.4722 120.374 78.7073 120.163 78.8967 119.879C79.0891 119.595 79.1853 119.233 79.1853 118.793ZM82.045 121.67V120.845L86.0396 115.715V115.641H82.1732V114.634H87.4322V115.495L83.5475 120.589V120.662H87.5604V121.67H82.045ZM93.66 118.793V114.634H94.7411V121.67H93.66V120.479H93.5867C93.4218 120.836 93.1652 121.14 92.8171 121.391C92.4689 121.638 92.0292 121.762 91.4978 121.762C91.058 121.762 90.6671 121.665 90.325 121.473C89.983 121.278 89.7143 120.984 89.5188 120.593C89.3233 120.199 89.2256 119.703 89.2256 119.105V114.634H90.3067V119.031C90.3067 119.544 90.4503 119.954 90.7373 120.259C91.0275 120.564 91.397 120.717 91.8459 120.717C92.1147 120.717 92.388 120.648 92.6659 120.511C92.9469 120.374 93.182 120.163 93.3714 119.879C93.5638 119.595 93.66 119.233 93.66 118.793ZM100.496 121.67V112.288H101.577V115.751H101.669C101.748 115.629 101.858 115.473 101.998 115.284C102.142 115.092 102.347 114.921 102.612 114.771C102.881 114.618 103.245 114.542 103.703 114.542C104.295 114.542 104.817 114.69 105.269 114.986C105.721 115.283 106.074 115.703 106.328 116.246C106.581 116.79 106.708 117.431 106.708 118.17C106.708 118.915 106.581 119.561 106.328 120.108C106.074 120.651 105.723 121.073 105.274 121.372C104.825 121.668 104.307 121.817 103.721 121.817C103.269 121.817 102.907 121.742 102.635 121.592C102.363 121.439 102.154 121.267 102.008 121.074C101.861 120.879 101.748 120.717 101.669 120.589H101.54V121.67H100.496ZM101.559 118.152C101.559 118.683 101.637 119.152 101.792 119.558C101.948 119.961 102.176 120.277 102.475 120.506C102.774 120.732 103.141 120.845 103.574 120.845C104.026 120.845 104.403 120.726 104.706 120.488C105.011 120.247 105.24 119.923 105.393 119.517C105.549 119.108 105.627 118.653 105.627 118.152C105.627 117.657 105.55 117.211 105.398 116.814C105.248 116.414 105.02 116.098 104.715 115.866C104.413 115.631 104.032 115.513 103.574 115.513C103.135 115.513 102.765 115.625 102.466 115.848C102.166 116.067 101.94 116.376 101.788 116.773C101.635 117.167 101.559 117.627 101.559 118.152ZM112.796 118.793V114.634H113.877V121.67H112.796V120.479H112.723C112.558 120.836 112.301 121.14 111.953 121.391C111.605 121.638 111.165 121.762 110.634 121.762C110.194 121.762 109.803 121.665 109.461 121.473C109.119 121.278 108.85 120.984 108.655 120.593C108.459 120.199 108.361 119.703 108.361 119.105V114.634H109.443V119.031C109.443 119.544 109.586 119.954 109.873 120.259C110.163 120.564 110.533 120.717 110.982 120.717C111.251 120.717 111.524 120.648 111.802 120.511C112.083 120.374 112.318 120.163 112.507 119.879C112.7 119.595 112.796 119.233 112.796 118.793ZM115.857 121.67V114.634H116.902V115.696H116.975C117.103 115.348 117.335 115.066 117.671 114.849C118.007 114.632 118.386 114.524 118.807 114.524C118.887 114.524 118.986 114.525 119.105 114.528C119.224 114.531 119.314 114.536 119.375 114.542V115.641C119.339 115.632 119.255 115.619 119.123 115.6C118.995 115.579 118.859 115.568 118.716 115.568C118.374 115.568 118.068 115.64 117.799 115.783C117.534 115.924 117.323 116.119 117.167 116.37C117.015 116.617 116.938 116.9 116.938 117.217V121.67H115.857ZM122.727 121.835C122.281 121.835 121.877 121.751 121.513 121.583C121.15 121.412 120.861 121.166 120.648 120.845C120.434 120.522 120.327 120.131 120.327 119.673C120.327 119.27 120.406 118.943 120.565 118.692C120.724 118.439 120.936 118.24 121.202 118.097C121.468 117.953 121.761 117.846 122.081 117.776C122.405 117.703 122.73 117.645 123.057 117.602C123.485 117.547 123.831 117.506 124.097 117.478C124.366 117.448 124.561 117.397 124.683 117.327C124.809 117.257 124.871 117.135 124.871 116.961V116.924C124.871 116.472 124.748 116.121 124.5 115.87C124.256 115.62 123.885 115.495 123.387 115.495C122.871 115.495 122.466 115.608 122.173 115.834C121.88 116.06 121.674 116.301 121.555 116.558L120.528 116.191C120.712 115.764 120.956 115.431 121.261 115.192C121.57 114.951 121.906 114.783 122.269 114.689C122.636 114.591 122.996 114.542 123.35 114.542C123.576 114.542 123.836 114.569 124.129 114.624C124.425 114.676 124.711 114.785 124.986 114.95C125.264 115.115 125.494 115.364 125.678 115.696C125.861 116.029 125.952 116.475 125.952 117.034V121.67H124.871V120.717H124.816C124.743 120.87 124.621 121.033 124.45 121.207C124.279 121.381 124.051 121.529 123.767 121.652C123.483 121.774 123.137 121.835 122.727 121.835ZM122.892 120.864C123.32 120.864 123.68 120.78 123.973 120.612C124.27 120.444 124.493 120.227 124.642 119.961C124.795 119.696 124.871 119.416 124.871 119.123V118.133C124.825 118.188 124.725 118.239 124.569 118.285C124.416 118.327 124.239 118.366 124.038 118.399C123.839 118.43 123.645 118.457 123.456 118.482C123.269 118.503 123.118 118.521 123.002 118.537C122.721 118.573 122.459 118.633 122.214 118.715C121.973 118.795 121.778 118.915 121.628 119.077C121.481 119.236 121.408 119.453 121.408 119.728C121.408 120.103 121.547 120.387 121.825 120.58C122.106 120.769 122.462 120.864 122.892 120.864ZM128.37 124.309C128.187 124.309 128.023 124.293 127.88 124.263C127.736 124.235 127.637 124.208 127.582 124.18L127.857 123.228C128.12 123.295 128.352 123.319 128.553 123.301C128.755 123.282 128.933 123.192 129.089 123.031C129.248 122.872 129.393 122.614 129.524 122.256L129.726 121.707L127.124 114.634H128.297L130.239 120.241H130.312L132.255 114.634H133.427L130.441 122.696C130.306 123.06 130.14 123.36 129.941 123.599C129.743 123.84 129.512 124.018 129.25 124.135C128.99 124.251 128.697 124.309 128.37 124.309ZM136.711 121.835C136.265 121.835 135.86 121.751 135.497 121.583C135.133 121.412 134.845 121.166 134.631 120.845C134.417 120.522 134.31 120.131 134.31 119.673C134.31 119.27 134.39 118.943 134.549 118.692C134.707 118.439 134.92 118.24 135.185 118.097C135.451 117.953 135.744 117.846 136.065 117.776C136.389 117.703 136.714 117.645 137.041 117.602C137.468 117.547 137.815 117.506 138.08 117.478C138.349 117.448 138.545 117.397 138.667 117.327C138.792 117.257 138.855 117.135 138.855 116.961V116.924C138.855 116.472 138.731 116.121 138.484 115.87C138.239 115.62 137.868 115.495 137.37 115.495C136.854 115.495 136.45 115.608 136.156 115.834C135.863 116.06 135.657 116.301 135.538 116.558L134.512 116.191C134.695 115.764 134.939 115.431 135.245 115.192C135.553 114.951 135.889 114.783 136.253 114.689C136.619 114.591 136.98 114.542 137.334 114.542C137.56 114.542 137.819 114.569 138.113 114.624C138.409 114.676 138.694 114.785 138.969 114.95C139.247 115.115 139.478 115.364 139.661 115.696C139.844 116.029 139.936 116.475 139.936 117.034V121.67H138.855V120.717H138.8C138.726 120.87 138.604 121.033 138.433 121.207C138.262 121.381 138.035 121.529 137.751 121.652C137.467 121.774 137.12 121.835 136.711 121.835ZM136.876 120.864C137.303 120.864 137.664 120.78 137.957 120.612C138.253 120.444 138.476 120.227 138.626 119.961C138.778 119.696 138.855 119.416 138.855 119.123V118.133C138.809 118.188 138.708 118.239 138.552 118.285C138.4 118.327 138.222 118.366 138.021 118.399C137.822 118.43 137.628 118.457 137.439 118.482C137.253 118.503 137.102 118.521 136.986 118.537C136.705 118.573 136.442 118.633 136.198 118.715C135.956 118.795 135.761 118.915 135.611 119.077C135.465 119.236 135.391 119.453 135.391 119.728C135.391 120.103 135.53 120.387 135.808 120.58C136.089 120.769 136.445 120.864 136.876 120.864ZM146.233 124.309C146.05 124.309 145.887 124.293 145.743 124.263C145.6 124.235 145.5 124.208 145.446 124.18L145.72 123.228C145.983 123.295 146.215 123.319 146.417 123.301C146.618 123.282 146.797 123.192 146.953 123.031C147.111 122.872 147.257 122.614 147.388 122.256L147.589 121.707L144.987 114.634H146.16L148.102 120.241H148.176L150.118 114.634H151.291L148.304 122.696C148.17 123.06 148.003 123.36 147.805 123.599C147.606 123.84 147.376 124.018 147.113 124.135C146.853 124.251 146.56 124.309 146.233 124.309ZM154.574 121.835C154.128 121.835 153.724 121.751 153.36 121.583C152.997 121.412 152.708 121.166 152.494 120.845C152.281 120.522 152.174 120.131 152.174 119.673C152.174 119.27 152.253 118.943 152.412 118.692C152.571 118.439 152.783 118.24 153.049 118.097C153.314 117.953 153.608 117.846 153.928 117.776C154.252 117.703 154.577 117.645 154.904 117.602C155.332 117.547 155.678 117.506 155.944 117.478C156.213 117.448 156.408 117.397 156.53 117.327C156.656 117.257 156.718 117.135 156.718 116.961V116.924C156.718 116.472 156.594 116.121 156.347 115.87C156.103 115.62 155.732 115.495 155.234 115.495C154.718 115.495 154.313 115.608 154.02 115.834C153.727 116.06 153.521 116.301 153.402 116.558L152.375 116.191C152.559 115.764 152.803 115.431 153.108 115.192C153.417 114.951 153.753 114.783 154.116 114.689C154.483 114.591 154.843 114.542 155.197 114.542C155.423 114.542 155.683 114.569 155.976 114.624C156.272 114.676 156.558 114.785 156.833 114.95C157.111 115.115 157.341 115.364 157.524 115.696C157.708 116.029 157.799 116.475 157.799 117.034V121.67H156.718V120.717H156.663C156.59 120.87 156.468 121.033 156.297 121.207C156.126 121.381 155.898 121.529 155.614 121.652C155.33 121.774 154.983 121.835 154.574 121.835ZM154.739 120.864C155.167 120.864 155.527 120.78 155.82 120.612C156.116 120.444 156.339 120.227 156.489 119.961C156.642 119.696 156.718 119.416 156.718 119.123V118.133C156.672 118.188 156.572 118.239 156.416 118.285C156.263 118.327 156.086 118.366 155.884 118.399C155.686 118.43 155.492 118.457 155.303 118.482C155.116 118.503 154.965 118.521 154.849 118.537C154.568 118.573 154.305 118.633 154.061 118.715C153.82 118.795 153.624 118.915 153.475 119.077C153.328 119.236 153.255 119.453 153.255 119.728C153.255 120.103 153.394 120.387 153.672 120.58C153.953 120.769 154.309 120.864 154.739 120.864ZM159.571 121.67V120.845L163.566 115.715V115.641H159.699V114.634H164.958V115.495L161.073 120.589V120.662H165.086V121.67H159.571ZM166.752 121.67V114.634H167.833V121.67H166.752ZM170.894 117.437V121.67H169.813V114.634H170.857V115.733H170.949C171.114 115.376 171.364 115.089 171.7 114.872C172.036 114.652 172.47 114.542 173.001 114.542C173.478 114.542 173.894 114.64 174.252 114.835C174.609 115.028 174.887 115.321 175.086 115.715C175.284 116.106 175.383 116.6 175.383 117.199V121.67H174.302V117.272C174.302 116.719 174.159 116.289 173.872 115.98C173.584 115.669 173.191 115.513 172.69 115.513C172.345 115.513 172.036 115.588 171.764 115.738C171.496 115.887 171.283 116.106 171.128 116.393C170.972 116.68 170.894 117.028 170.894 117.437ZM178.147 121.743C177.921 121.743 177.727 121.662 177.565 121.5C177.403 121.339 177.322 121.145 177.322 120.919C177.322 120.693 177.403 120.499 177.565 120.337C177.727 120.175 177.921 120.094 178.147 120.094C178.373 120.094 178.567 120.175 178.729 120.337C178.89 120.499 178.971 120.693 178.971 120.919C178.971 121.068 178.933 121.206 178.857 121.331C178.783 121.456 178.684 121.557 178.559 121.633C178.437 121.707 178.299 121.743 178.147 121.743Z" fill="#737373"/>
<path d="M28.814 158H27.591L30.3391 150.364H31.6702L34.4182 158H33.1952L31.0363 151.751H30.9767L28.814 158ZM29.0191 155.01H32.9864V155.979H29.0191V155.01ZM41.7796 152.847H40.6163C40.5715 152.598 40.4883 152.38 40.3665 152.191C40.2447 152.002 40.0955 151.841 39.919 151.71C39.7425 151.578 39.5449 151.479 39.3261 151.411C39.1099 151.344 38.8799 151.311 38.6363 151.311C38.1964 151.311 37.8024 151.421 37.4543 151.643C37.1088 151.864 36.8354 152.188 36.634 152.616C36.4352 153.043 36.3357 153.565 36.3357 154.182C36.3357 154.803 36.4352 155.328 36.634 155.755C36.8354 156.183 37.1101 156.506 37.4581 156.725C37.8061 156.944 38.1976 157.053 38.6326 157.053C38.8737 157.053 39.1024 157.021 39.3187 156.956C39.5374 156.889 39.7351 156.791 39.9116 156.661C40.088 156.532 40.2372 156.374 40.359 156.188C40.4833 155.999 40.569 155.783 40.6163 155.539L41.7796 155.543C41.7175 155.918 41.5969 156.264 41.4179 156.579C41.2415 156.893 41.014 157.164 40.7356 157.392C40.4597 157.618 40.144 157.794 39.7885 157.918C39.433 158.042 39.0453 158.104 38.6252 158.104C37.9639 158.104 37.3748 157.948 36.8578 157.635C36.3407 157.319 35.933 156.868 35.6347 156.281C35.3389 155.694 35.191 154.995 35.191 154.182C35.191 153.366 35.3402 152.667 35.6385 152.083C35.9368 151.496 36.3444 151.046 36.8615 150.733C37.3785 150.417 37.9664 150.259 38.6252 150.259C39.0303 150.259 39.4082 150.318 39.7587 150.434C40.1117 150.549 40.4286 150.718 40.7095 150.942C40.9904 151.163 41.2228 151.434 41.4068 151.754C41.5907 152.073 41.715 152.437 41.7796 152.847ZM38.2336 158.011H38.9645L38.9048 158.317C39.1211 158.352 39.31 158.439 39.4716 158.578C39.6331 158.717 39.7139 158.927 39.7139 159.208C39.7164 159.544 39.571 159.816 39.2777 160.025C38.9868 160.233 38.5655 160.338 38.0136 160.338L37.9913 159.715C38.2498 159.715 38.4586 159.678 38.6177 159.603C38.7793 159.529 38.8613 159.408 38.8638 159.242C38.8663 159.075 38.8041 158.958 38.6774 158.891C38.5531 158.824 38.3542 158.777 38.0808 158.749L38.2336 158.011ZM44.5855 150.364V158H43.4333V150.364H44.5855ZM46.5384 158V150.364H47.6906V154.01H47.7838L50.9867 150.364H52.4372L49.3573 153.801L52.4484 158H51.0613L48.5929 154.588L47.6906 155.625V158H46.5384ZM53.786 158V150.364H54.9382V157.008H58.3984V158H53.786ZM61.0225 158H59.7995L62.5476 150.364H63.8787L66.6267 158H65.4037L63.2448 151.751H63.1852L61.0225 158ZM61.2276 155.01H65.1949V155.979H61.2276V155.01ZM68.0045 150.364H69.4028L71.8339 156.3H71.9234L74.3545 150.364H75.7527V158H74.6565V152.474H74.5857L72.3335 157.989H71.4237L69.1716 152.47H69.1007V158H68.0045V150.364ZM78.3479 158H77.1249L79.8729 150.364H81.2041L83.9521 158H82.7291L80.5702 151.751H80.5105L78.3479 158ZM78.553 155.01H82.5203V155.979H78.553V155.01Z" fill="#A1A1A1"/>
<rect x="25.33" y="169" width="621.31" height="34.66" rx="8" fill="#171717" fill-opacity="0.6"/>
<rect x="25.83" y="169.5" width="620.31" height="33.66" rx="7.5" stroke="white" stroke-opacity="0.1"/>
<g clip-path="url(#clip1_1_2)">
<path d="M39.5293 191.33H38.3291L41.8007 181.875H42.9825L46.4541 191.33H45.2538L42.4285 183.371H42.3546L39.5293 191.33ZM39.9725 187.637H44.8106V188.652H39.9725V187.637ZM50.6597 191.478C49.9949 191.478 49.4225 191.321 48.9423 191.007C48.4622 190.693 48.0929 190.261 47.8344 189.71C47.5759 189.159 47.4466 188.529 47.4466 187.821C47.4466 187.101 47.5789 186.466 47.8436 185.915C48.1114 185.361 48.4838 184.928 48.9608 184.618C49.4409 184.304 50.0011 184.147 50.6412 184.147C51.1398 184.147 51.5891 184.239 51.9892 184.424C52.3893 184.608 52.7171 184.867 52.9725 185.199C53.228 185.532 53.3865 185.919 53.448 186.363H52.3585C52.2754 186.04 52.0908 185.753 51.8046 185.504C51.5214 185.252 51.1398 185.125 50.6597 185.125C50.235 185.125 49.8626 185.236 49.5425 185.458C49.2255 185.676 48.9777 185.986 48.7992 186.386C48.6238 186.783 48.5361 187.249 48.5361 187.785C48.5361 188.332 48.6223 188.809 48.7946 189.216C48.97 189.622 49.2163 189.937 49.5333 190.162C49.8533 190.387 50.2288 190.499 50.6597 190.499C50.9428 190.499 51.1998 190.45 51.4306 190.351C51.6614 190.253 51.8569 190.111 52.0169 189.927C52.177 189.742 52.2908 189.52 52.3585 189.262H53.448C53.3865 189.68 53.2341 190.057 52.991 190.393C52.7509 190.725 52.4324 190.99 52.0354 191.187C51.6414 191.381 51.1829 191.478 50.6597 191.478ZM50.1426 191.293H51.0475L50.9736 191.662C51.2136 191.699 51.4337 191.799 51.6337 191.962C51.8338 192.129 51.9338 192.392 51.9338 192.752C51.9338 193.149 51.7692 193.472 51.4399 193.721C51.1136 193.974 50.632 194.1 49.9949 194.1L49.958 193.38C50.2442 193.38 50.4812 193.334 50.6689 193.241C50.8597 193.152 50.9551 193.001 50.9551 192.789C50.9551 192.576 50.8766 192.432 50.7197 192.355C50.5627 192.278 50.3088 192.226 49.958 192.198L50.1426 191.293ZM55.0407 191.33V184.239H56.1302V191.33H55.0407ZM59.1413 188.745L59.1228 187.397H59.3444L62.4467 184.239H63.7947L60.4893 187.581H60.397L59.1413 188.745ZM58.1257 191.33V181.875H59.2152V191.33H58.1257ZM62.6314 191.33L59.8615 187.821L60.637 187.064L64.0163 191.33H62.6314ZM66.2864 181.875V191.33H65.197V181.875H66.2864ZM70.3686 191.496C69.9192 191.496 69.5114 191.412 69.1452 191.242C68.779 191.07 68.4881 190.822 68.2727 190.499C68.0573 190.173 67.9495 189.779 67.9495 189.317C67.9495 188.911 68.0296 188.582 68.1896 188.329C68.3496 188.074 68.5635 187.874 68.8313 187.729C69.099 187.584 69.3945 187.477 69.7176 187.406C70.0439 187.332 70.3716 187.274 70.701 187.231C71.1318 187.175 71.4811 187.134 71.7489 187.106C72.0197 187.075 72.2167 187.024 72.3398 186.954C72.466 186.883 72.5291 186.76 72.5291 186.584V186.547C72.5291 186.092 72.4044 185.738 72.1551 185.486C71.9089 185.233 71.535 185.107 71.0333 185.107C70.5132 185.107 70.1054 185.221 69.81 185.449C69.5145 185.676 69.3068 185.919 69.1867 186.178L68.1527 185.809C68.3373 185.378 68.5835 185.042 68.8913 184.802C69.2021 184.559 69.5407 184.39 69.9069 184.294C70.2762 184.196 70.6394 184.147 70.9964 184.147C71.2242 184.147 71.4858 184.174 71.7812 184.23C72.0797 184.282 72.3675 184.391 72.6445 184.558C72.9246 184.724 73.1569 184.975 73.3416 185.31C73.5262 185.646 73.6186 186.095 73.6186 186.658V191.33H72.5291V190.37H72.4737C72.3998 190.524 72.2767 190.688 72.1044 190.864C71.932 191.039 71.7027 191.188 71.4165 191.312C71.1303 191.435 70.781 191.496 70.3686 191.496ZM70.5348 190.517C70.9656 190.517 71.3288 190.433 71.6242 190.264C71.9228 190.094 72.1474 189.876 72.2983 189.608C72.4521 189.34 72.5291 189.059 72.5291 188.763V187.766C72.4829 187.821 72.3814 187.872 72.2244 187.918C72.0705 187.961 71.892 188 71.6889 188.034C71.4888 188.065 71.2934 188.092 71.1026 188.117C70.9148 188.138 70.7625 188.157 70.6456 188.172C70.3624 188.209 70.0977 188.269 69.8515 188.352C69.6084 188.432 69.4114 188.554 69.2606 188.717C69.1129 188.877 69.039 189.096 69.039 189.373C69.039 189.751 69.1791 190.037 69.4591 190.231C69.7423 190.422 70.1008 190.517 70.5348 190.517ZM75.6071 191.33V184.239H76.6597V185.347H76.752C76.8997 184.968 77.1382 184.675 77.4676 184.465C77.7969 184.253 78.1923 184.147 78.654 184.147C79.1218 184.147 79.5111 184.253 79.822 184.465C80.1359 184.675 80.3806 184.968 80.556 185.347H80.6298C80.8114 184.981 81.0838 184.69 81.447 184.475C81.8101 184.256 82.2456 184.147 82.7534 184.147C83.3874 184.147 83.906 184.345 84.3092 184.742C84.7123 185.136 84.9139 185.75 84.9139 186.584V191.33H83.8244V186.584C83.8244 186.061 83.6813 185.687 83.3951 185.462C83.1089 185.238 82.7719 185.125 82.3841 185.125C81.8855 185.125 81.4993 185.276 81.2254 185.578C80.9515 185.876 80.8145 186.255 80.8145 186.714V191.33H79.7065V186.473C79.7065 186.07 79.5757 185.746 79.3141 185.499C79.0525 185.25 78.7155 185.125 78.3031 185.125C78.02 185.125 77.7553 185.201 77.5091 185.352C77.266 185.502 77.069 185.712 76.9182 185.979C76.7705 186.244 76.6966 186.55 76.6966 186.898V191.33H75.6071ZM88.9926 191.496C88.5433 191.496 88.1355 191.412 87.7692 191.242C87.403 191.07 87.1121 190.822 86.8967 190.499C86.6813 190.173 86.5736 189.779 86.5736 189.317C86.5736 188.911 86.6536 188.582 86.8136 188.329C86.9737 188.074 87.1875 187.874 87.4553 187.729C87.7231 187.584 88.0185 187.477 88.3417 187.406C88.6679 187.332 88.9957 187.274 89.325 187.231C89.7558 187.175 90.1052 187.134 90.3729 187.106C90.6438 187.075 90.8407 187.024 90.9638 186.954C91.09 186.883 91.1531 186.76 91.1531 186.584V186.547C91.1531 186.092 91.0285 185.738 90.7792 185.486C90.533 185.233 90.159 185.107 89.6574 185.107C89.1372 185.107 88.7295 185.221 88.434 185.449C88.1385 185.676 87.9308 185.919 87.8108 186.178L86.7767 185.809C86.9613 185.378 87.2076 185.042 87.5153 184.802C87.8262 184.559 88.1647 184.39 88.5309 184.294C88.9003 184.196 89.2634 184.147 89.6204 184.147C89.8482 184.147 90.1098 184.174 90.4052 184.23C90.7038 184.282 90.9915 184.391 91.2685 184.558C91.5486 184.724 91.7809 184.975 91.9656 185.31C92.1503 185.646 92.2426 186.095 92.2426 186.658V191.33H91.1531V190.37H91.0977C91.0238 190.524 90.9007 190.688 90.7284 190.864C90.556 191.039 90.3268 191.188 90.0405 191.312C89.7543 191.435 89.405 191.496 88.9926 191.496ZM89.1588 190.517C89.5897 190.517 89.9528 190.433 90.2483 190.264C90.5468 190.094 90.7715 189.876 90.9223 189.608C91.0762 189.34 91.1531 189.059 91.1531 188.763V187.766C91.1069 187.821 91.0054 187.872 90.8484 187.918C90.6945 187.961 90.516 188 90.3129 188.034C90.1129 188.065 89.9174 188.092 89.7266 188.117C89.5389 188.138 89.3865 188.157 89.2696 188.172C88.9864 188.209 88.7218 188.269 88.4755 188.352C88.2324 188.432 88.0354 188.554 87.8846 188.717C87.7369 188.877 87.663 189.096 87.663 189.373C87.663 189.751 87.8031 190.037 88.0831 190.231C88.3663 190.422 88.7248 190.517 89.1588 190.517ZM95.3206 187.064V191.33H94.2311V184.239H95.2837V185.347H95.376C95.5422 184.987 95.7946 184.698 96.1331 184.479C96.4717 184.258 96.9087 184.147 97.4442 184.147C97.9243 184.147 98.3444 184.245 98.7045 184.442C99.0646 184.636 99.3447 184.932 99.5447 185.329C99.7448 185.723 99.8448 186.221 99.8448 186.824V191.33H98.7553V186.898C98.7553 186.341 98.6106 185.907 98.3213 185.596C98.032 185.282 97.635 185.125 97.1303 185.125C96.7825 185.125 96.4717 185.201 96.1978 185.352C95.9269 185.502 95.713 185.723 95.5561 186.012C95.3991 186.301 95.3206 186.652 95.3206 187.064ZM101.836 191.33V184.239H102.925V191.33H101.836ZM104.717 191.33V190.499L108.743 185.329V185.255H104.847V184.239H110.146V185.107L106.232 190.24V190.314H110.276V191.33H104.717ZM111.954 191.33V184.239H113.043V191.33H111.954ZM118.843 191.33V181.875H119.932V185.365H120.025C120.105 185.242 120.215 185.085 120.357 184.895C120.502 184.701 120.708 184.528 120.976 184.378C121.246 184.224 121.613 184.147 122.074 184.147C122.671 184.147 123.198 184.296 123.653 184.595C124.109 184.893 124.464 185.316 124.72 185.864C124.975 186.412 125.103 187.058 125.103 187.803C125.103 188.554 124.975 189.205 124.72 189.756C124.464 190.304 124.11 190.728 123.658 191.03C123.205 191.328 122.684 191.478 122.093 191.478C121.637 191.478 121.273 191.402 120.999 191.252C120.725 191.098 120.514 190.924 120.366 190.73C120.218 190.533 120.105 190.37 120.025 190.24H119.895V191.33H118.843ZM119.914 187.785C119.914 188.32 119.992 188.792 120.149 189.202C120.306 189.608 120.535 189.927 120.837 190.157C121.139 190.385 121.508 190.499 121.945 190.499C122.4 190.499 122.781 190.379 123.085 190.139C123.393 189.896 123.624 189.57 123.778 189.16C123.935 188.748 124.013 188.289 124.013 187.785C124.013 187.286 123.936 186.837 123.782 186.437C123.632 186.033 123.402 185.715 123.095 185.481C122.79 185.244 122.407 185.125 121.945 185.125C121.502 185.125 121.129 185.238 120.828 185.462C120.526 185.684 120.298 185.995 120.145 186.395C119.991 186.792 119.914 187.255 119.914 187.785ZM131.238 188.431V184.239H132.327V191.33H131.238V190.13H131.164C130.998 190.49 130.739 190.796 130.389 191.048C130.038 191.298 129.595 191.422 129.059 191.422C128.616 191.422 128.222 191.325 127.877 191.131C127.532 190.935 127.262 190.639 127.065 190.245C126.868 189.848 126.769 189.348 126.769 188.745V184.239H127.859V188.671C127.859 189.188 128.003 189.6 128.293 189.908C128.585 190.216 128.957 190.37 129.41 190.37C129.681 190.37 129.956 190.301 130.236 190.162C130.519 190.024 130.756 189.811 130.947 189.525C131.141 189.239 131.238 188.874 131.238 188.431ZM134.323 191.33V184.239H135.375V185.31H135.449C135.579 184.959 135.813 184.675 136.151 184.456C136.49 184.238 136.871 184.128 137.296 184.128C137.376 184.128 137.476 184.13 137.596 184.133C137.716 184.136 137.807 184.141 137.868 184.147V185.255C137.831 185.245 137.747 185.232 137.614 185.213C137.485 185.192 137.348 185.181 137.204 185.181C136.859 185.181 136.551 185.253 136.28 185.398C136.013 185.539 135.8 185.736 135.643 185.989C135.489 186.238 135.412 186.523 135.412 186.843V191.33H134.323ZM141.246 191.496C140.797 191.496 140.389 191.412 140.023 191.242C139.657 191.07 139.366 190.822 139.151 190.499C138.935 190.173 138.827 189.779 138.827 189.317C138.827 188.911 138.907 188.582 139.068 188.329C139.228 188.074 139.441 187.874 139.709 187.729C139.977 187.584 140.272 187.477 140.596 187.406C140.922 187.332 141.25 187.274 141.579 187.231C142.01 187.175 142.359 187.134 142.627 187.106C142.898 187.075 143.095 187.024 143.218 186.954C143.344 186.883 143.407 186.76 143.407 186.584V186.547C143.407 186.092 143.282 185.738 143.033 185.486C142.787 185.233 142.413 185.107 141.911 185.107C141.391 185.107 140.983 185.221 140.688 185.449C140.392 185.676 140.185 185.919 140.065 186.178L139.031 185.809C139.215 185.378 139.461 185.042 139.769 184.802C140.08 184.559 140.419 184.39 140.785 184.294C141.154 184.196 141.517 184.147 141.874 184.147C142.102 184.147 142.364 184.174 142.659 184.23C142.958 184.282 143.245 184.391 143.522 184.558C143.802 184.724 144.035 184.975 144.22 185.31C144.404 185.646 144.496 186.095 144.496 186.658V191.33H143.407V190.37H143.352C143.278 190.524 143.155 190.688 142.982 190.864C142.81 191.039 142.581 191.188 142.294 191.312C142.008 191.435 141.659 191.496 141.246 191.496ZM141.413 190.517C141.844 190.517 142.207 190.433 142.502 190.264C142.801 190.094 143.025 189.876 143.176 189.608C143.33 189.34 143.407 189.059 143.407 188.763V187.766C143.361 187.821 143.259 187.872 143.102 187.918C142.948 187.961 142.77 188 142.567 188.034C142.367 188.065 142.171 188.092 141.981 188.117C141.793 188.138 141.64 188.157 141.523 188.172C141.24 188.209 140.976 188.269 140.729 188.352C140.486 188.432 140.289 188.554 140.139 188.717C139.991 188.877 139.917 189.096 139.917 189.373C139.917 189.751 140.057 190.037 140.337 190.231C140.62 190.422 140.979 190.517 141.413 190.517ZM146.933 193.989C146.748 193.989 146.584 193.974 146.439 193.943C146.294 193.915 146.194 193.888 146.139 193.86L146.416 192.9C146.68 192.967 146.914 192.992 147.118 192.973C147.321 192.955 147.501 192.864 147.658 192.701C147.818 192.541 147.964 192.281 148.096 191.921L148.299 191.367L145.677 184.239H146.859L148.816 189.89H148.89L150.848 184.239H152.029L149.019 192.364C148.884 192.73 148.716 193.033 148.516 193.274C148.316 193.517 148.084 193.697 147.819 193.814C147.558 193.931 147.262 193.989 146.933 193.989ZM155.338 191.496C154.889 191.496 154.481 191.412 154.115 191.242C153.749 191.07 153.458 190.822 153.242 190.499C153.027 190.173 152.919 189.779 152.919 189.317C152.919 188.911 152.999 188.582 153.159 188.329C153.319 188.074 153.533 187.874 153.801 187.729C154.069 187.584 154.364 187.477 154.687 187.406C155.014 187.332 155.341 187.274 155.671 187.231C156.102 187.175 156.451 187.134 156.719 187.106C156.989 187.075 157.186 187.024 157.31 186.954C157.436 186.883 157.499 186.76 157.499 186.584V186.547C157.499 186.092 157.374 185.738 157.125 185.486C156.879 185.233 156.505 185.107 156.003 185.107C155.483 185.107 155.075 185.221 154.78 185.449C154.484 185.676 154.277 185.919 154.156 186.178L153.122 185.809C153.307 185.378 153.553 185.042 153.861 184.802C154.172 184.559 154.51 184.39 154.877 184.294C155.246 184.196 155.609 184.147 155.966 184.147C156.194 184.147 156.455 184.174 156.751 184.23C157.049 184.282 157.337 184.391 157.614 184.558C157.894 184.724 158.127 184.975 158.311 185.31C158.496 185.646 158.588 186.095 158.588 186.658V191.33H157.499V190.37H157.443C157.37 190.524 157.246 190.688 157.074 190.864C156.902 191.039 156.672 191.188 156.386 191.312C156.1 191.435 155.751 191.496 155.338 191.496ZM155.504 190.517C155.935 190.517 156.299 190.433 156.594 190.264C156.893 190.094 157.117 189.876 157.268 189.608C157.422 189.34 157.499 189.059 157.499 188.763V187.766C157.453 187.821 157.351 187.872 157.194 187.918C157.04 187.961 156.862 188 156.659 188.034C156.459 188.065 156.263 188.092 156.072 188.117C155.885 188.138 155.732 188.157 155.615 188.172C155.332 188.209 155.067 188.269 154.821 188.352C154.578 188.432 154.381 188.554 154.23 188.717C154.083 188.877 154.009 189.096 154.009 189.373C154.009 189.751 154.149 190.037 154.429 190.231C154.712 190.422 155.071 190.517 155.504 190.517ZM164.935 193.989C164.75 193.989 164.585 193.974 164.441 193.943C164.296 193.915 164.196 193.888 164.141 193.86L164.418 192.9C164.682 192.967 164.916 192.992 165.119 192.973C165.323 192.955 165.503 192.864 165.66 192.701C165.82 192.541 165.966 192.281 166.098 191.921L166.301 191.367L163.679 184.239H164.861L166.818 189.89H166.892L168.85 184.239H170.031L167.021 192.364C166.886 192.73 166.718 193.033 166.518 193.274C166.318 193.517 166.086 193.697 165.821 193.814C165.56 193.931 165.264 193.989 164.935 193.989ZM173.34 191.496C172.891 191.496 172.483 191.412 172.117 191.242C171.751 191.07 171.46 190.822 171.244 190.499C171.029 190.173 170.921 189.779 170.921 189.317C170.921 188.911 171.001 188.582 171.161 188.329C171.321 188.074 171.535 187.874 171.803 187.729C172.071 187.584 172.366 187.477 172.689 187.406C173.016 187.332 173.343 187.274 173.673 187.231C174.104 187.175 174.453 187.134 174.721 187.106C174.991 187.075 175.188 187.024 175.311 186.954C175.438 186.883 175.501 186.76 175.501 186.584V186.547C175.501 186.092 175.376 185.738 175.127 185.486C174.881 185.233 174.507 185.107 174.005 185.107C173.485 185.107 173.077 185.221 172.782 185.449C172.486 185.676 172.278 185.919 172.158 186.178L171.124 185.809C171.309 185.378 171.555 185.042 171.863 184.802C172.174 184.559 172.512 184.39 172.879 184.294C173.248 184.196 173.611 184.147 173.968 184.147C174.196 184.147 174.457 184.174 174.753 184.23C175.051 184.282 175.339 184.391 175.616 184.558C175.896 184.724 176.129 184.975 176.313 185.31C176.498 185.646 176.59 186.095 176.59 186.658V191.33H175.501V190.37H175.445C175.371 190.524 175.248 190.688 175.076 190.864C174.904 191.039 174.674 191.188 174.388 191.312C174.102 191.435 173.753 191.496 173.34 191.496ZM173.506 190.517C173.937 190.517 174.3 190.433 174.596 190.264C174.894 190.094 175.119 189.876 175.27 189.608C175.424 189.34 175.501 189.059 175.501 188.763V187.766C175.455 187.821 175.353 187.872 175.196 187.918C175.042 187.961 174.864 188 174.661 188.034C174.461 188.065 174.265 188.092 174.074 188.117C173.887 188.138 173.734 188.157 173.617 188.172C173.334 188.209 173.069 188.269 172.823 188.352C172.58 188.432 172.383 188.554 172.232 188.717C172.085 188.877 172.011 189.096 172.011 189.373C172.011 189.751 172.151 190.037 172.431 190.231C172.714 190.422 173.072 190.517 173.506 190.517ZM178.376 191.33V190.499L182.401 185.329V185.255H178.505V184.239H183.805V185.107L179.89 190.24V190.314H183.934V191.33H178.376ZM185.612 191.33V184.239H186.701V191.33H185.612ZM189.786 187.064V191.33H188.697V184.239H189.75V185.347H189.842C190.008 184.987 190.26 184.698 190.599 184.479C190.937 184.258 191.375 184.147 191.91 184.147C192.39 184.147 192.81 184.245 193.17 184.442C193.53 184.636 193.81 184.932 194.011 185.329C194.211 185.723 194.311 186.221 194.311 186.824V191.33H193.221V186.898C193.221 186.341 193.076 185.907 192.787 185.596C192.498 185.282 192.101 185.125 191.596 185.125C191.248 185.125 190.937 185.201 190.664 185.352C190.393 185.502 190.179 185.723 190.022 186.012C189.865 186.301 189.786 186.652 189.786 187.064ZM197.095 191.404C196.868 191.404 196.672 191.322 196.509 191.159C196.346 190.996 196.265 190.801 196.265 190.573C196.265 190.345 196.346 190.15 196.509 189.987C196.672 189.823 196.868 189.742 197.095 189.742C197.323 189.742 197.519 189.823 197.682 189.987C197.845 190.15 197.926 190.345 197.926 190.573C197.926 190.724 197.888 190.862 197.811 190.988C197.737 191.115 197.637 191.216 197.511 191.293C197.388 191.367 197.249 191.404 197.095 191.404Z" fill="#737373"/>
</g>
<path d="M28.1849 219.878H29.6098L32.0872 225.927H32.1784L34.6558 219.878H36.0807V227.66H34.9636V222.029H34.8914L32.5964 227.649H31.6693L29.3742 222.025H29.302V227.66H28.1849V219.878ZM39.2369 219.878V227.66H38.0628V219.878H39.2369ZM47.5027 219.878V227.66H46.4236L42.468 221.953H42.3959V227.66H41.2217V219.878H42.3085L46.2678 225.593H46.34V219.878H47.5027ZM50.1477 227.732C49.94 227.732 49.7614 227.659 49.612 227.512C49.4625 227.362 49.3878 227.183 49.3878 226.972C49.3878 226.765 49.4625 226.587 49.612 226.44C49.7614 226.291 49.94 226.216 50.1477 226.216C50.3555 226.216 50.534 226.291 50.6835 226.44C50.833 226.587 50.9077 226.765 50.9077 226.972C50.9077 227.112 50.8722 227.24 50.8013 227.356C50.7329 227.47 50.6417 227.561 50.5277 227.63C50.4137 227.698 50.2871 227.732 50.1477 227.732ZM58.2962 227.66H55.777V219.878H58.376C59.1385 219.878 59.7933 220.034 60.3405 220.346C60.8876 220.655 61.3069 221.099 61.5982 221.679C61.892 222.257 62.0389 222.95 62.0389 223.758C62.0389 224.568 61.8908 225.265 61.5944 225.848C61.3005 226.43 60.875 226.879 60.3177 227.193C59.7604 227.504 59.0866 227.66 58.2962 227.66ZM56.9511 226.634H58.2316C58.8244 226.634 59.3171 226.523 59.7097 226.3C60.1024 226.074 60.3962 225.749 60.5913 225.323C60.7863 224.895 60.8838 224.373 60.8838 223.758C60.8838 223.147 60.7863 222.629 60.5913 222.204C60.3987 221.778 60.1112 221.455 59.7287 221.235C59.3462 221.014 58.8712 220.904 58.3038 220.904H56.9511V226.634ZM63.774 227.66V219.878H68.6528V220.889H64.9481V223.26H68.3982V224.267H64.9481V226.649H68.6984V227.66H63.774ZM75.7626 222.337C75.6891 222.106 75.5903 221.9 75.4662 221.717C75.3446 221.532 75.1989 221.375 75.0292 221.246C74.8595 221.114 74.6657 221.014 74.4479 220.946C74.2325 220.878 73.9957 220.843 73.7373 220.843C73.2991 220.843 72.9039 220.956 72.5518 221.181C72.1997 221.407 71.921 221.738 71.7159 222.173C71.5132 222.606 71.4119 223.137 71.4119 223.765C71.4119 224.396 71.5145 224.929 71.7197 225.365C71.9248 225.801 72.206 226.131 72.5632 226.357C72.9204 226.582 73.3269 226.695 73.7829 226.695C74.2059 226.695 74.5745 226.609 74.8886 226.436C75.2053 226.264 75.4497 226.021 75.622 225.707C75.7968 225.39 75.8841 225.018 75.8841 224.59L76.1881 224.647H73.9615V223.678H77.0203V224.563C77.0203 225.217 76.8809 225.784 76.6023 226.266C76.3262 226.744 75.9437 227.114 75.4548 227.375C74.9684 227.636 74.4111 227.766 73.7829 227.766C73.0787 227.766 72.4606 227.604 71.9286 227.28C71.3992 226.956 70.9863 226.496 70.6899 225.901C70.3936 225.303 70.2454 224.594 70.2454 223.773C70.2454 223.152 70.3315 222.595 70.5038 222.101C70.676 221.607 70.9179 221.188 71.2295 220.843C71.5436 220.496 71.9122 220.232 72.3352 220.049C72.7608 219.864 73.2256 219.772 73.7297 219.772C74.1502 219.772 74.5416 219.834 74.9038 219.958C75.2686 220.082 75.5928 220.258 75.8766 220.486C76.1628 220.714 76.3996 220.985 76.5871 221.299C76.7745 221.611 76.9012 221.957 76.9671 222.337H75.7626ZM74.4631 217.902H75.3978C75.3978 218.33 75.2458 218.679 74.9418 218.947C74.6404 219.213 74.2325 219.346 73.7183 219.346C73.2066 219.346 72.8 219.213 72.4986 218.947C72.1972 218.679 72.0464 218.33 72.0464 217.902H72.9774C72.9774 218.092 73.0331 218.261 73.1446 218.408C73.256 218.552 73.4473 218.624 73.7183 218.624C73.9843 218.624 74.1743 218.552 74.2883 218.408C74.4048 218.263 74.4631 218.095 74.4631 217.902ZM78.7857 227.66V219.878H83.6645V220.889H79.9598V223.26H83.41V224.267H79.9598V226.649H83.7101V227.66H78.7857ZM85.5079 227.66V219.878H88.2817C88.8846 219.878 89.3848 219.982 89.7826 220.19C90.1828 220.397 90.4817 220.685 90.6793 221.052C90.8769 221.417 90.9757 221.839 90.9757 222.318C90.9757 222.794 90.8756 223.213 90.6755 223.575C90.4779 223.935 90.179 224.215 89.7788 224.415C89.381 224.615 88.8808 224.715 88.2779 224.715H86.1766V223.704H88.1715C88.5514 223.704 88.8605 223.65 89.0986 223.541C89.3393 223.432 89.5153 223.274 89.6268 223.066C89.7382 222.858 89.794 222.609 89.794 222.318C89.794 222.024 89.737 221.769 89.623 221.554C89.5115 221.339 89.3355 221.174 89.0948 221.06C88.8567 220.943 88.5438 220.885 88.1563 220.885H86.682V227.66H85.5079ZM89.3494 224.149L91.272 227.66H89.9345L88.0499 224.149H89.3494Z" fill="#A1A1A1"/>
<rect x="25.33" y="238.66" width="199.1" height="37.3333" rx="8" fill="#171717" fill-opacity="0.6"/>
<rect x="25.83" y="239.16" width="198.1" height="36.3333" rx="7.5" stroke="white" stroke-opacity="0.1"/>
<g clip-path="url(#clip2_1_2)">
<path d="M42.3717 262.466C41.6226 262.466 40.9846 262.262 40.4576 261.854C39.9306 261.443 39.5279 260.848 39.2495 260.07C38.9711 259.287 38.8319 258.343 38.8319 257.236C38.8319 256.135 38.9711 255.196 39.2495 254.417C39.5312 253.635 39.9356 253.038 40.4626 252.627C40.9929 252.213 41.6292 252.006 42.3717 252.006C43.1141 252.006 43.7488 252.213 44.2758 252.627C44.8061 253.038 45.2104 253.635 45.4888 254.417C45.7706 255.196 45.9114 256.135 45.9114 257.236C45.9114 258.343 45.7722 259.287 45.4938 260.07C45.2154 260.848 44.8127 261.443 44.2857 261.854C43.7587 262.262 43.1207 262.466 42.3717 262.466ZM42.3717 261.372C43.1141 261.372 43.6908 261.014 44.1018 260.298C44.5128 259.582 44.7182 258.562 44.7182 257.236C44.7182 256.354 44.6238 255.603 44.4349 254.984C44.2493 254.364 43.9808 253.892 43.6295 253.567C43.2815 253.242 42.8622 253.08 42.3717 253.08C41.6359 253.08 41.0608 253.442 40.6465 254.168C40.2322 254.891 40.0251 255.913 40.0251 257.236C40.0251 258.117 40.1179 258.866 40.3035 259.483C40.4891 260.099 40.7559 260.568 41.1039 260.89C41.4552 261.211 41.8778 261.372 42.3717 261.372Z" fill="#F5F5F5"/>
</g>
<path d="M239.269 220.024H240.667L243.098 225.96H243.188L245.619 220.024H247.017V227.66H245.921V222.134H245.85L243.598 227.649H242.688L240.436 222.13H240.365V227.66H239.269V220.024ZM249.612 227.66H248.389L251.137 220.024H252.469L255.217 227.66H253.994L251.835 221.411H251.775L249.612 227.66ZM249.817 224.67H253.785V225.639H249.817V224.67ZM257.396 220.024L259.223 223.01H259.283L261.11 220.024H262.445L260.066 223.842L262.46 227.66H261.117L259.283 224.714H259.223L257.389 227.66H256.046L258.481 223.842L256.061 220.024H257.396ZM264.508 227.731C264.304 227.731 264.128 227.659 263.982 227.515C263.835 227.368 263.762 227.191 263.762 226.985C263.762 226.781 263.835 226.607 263.982 226.463C264.128 226.316 264.304 226.243 264.508 226.243C264.711 226.243 264.887 226.316 265.033 226.463C265.18 226.607 265.253 226.781 265.253 226.985C265.253 227.122 265.219 227.247 265.149 227.362C265.082 227.474 264.992 227.563 264.88 227.63C264.769 227.697 264.644 227.731 264.508 227.731ZM272.514 227.66H270.042V220.024H272.592C273.341 220.024 273.983 220.177 274.52 220.482C275.057 220.786 275.468 221.222 275.754 221.791C276.043 222.358 276.187 223.038 276.187 223.831C276.187 224.626 276.041 225.31 275.751 225.881C275.462 226.453 275.045 226.893 274.498 227.201C273.951 227.507 273.29 227.66 272.514 227.66ZM271.194 226.653H272.451C273.032 226.653 273.516 226.544 273.901 226.325C274.286 226.104 274.575 225.784 274.766 225.367C274.958 224.947 275.053 224.435 275.053 223.831C275.053 223.232 274.958 222.723 274.766 222.306C274.577 221.888 274.295 221.571 273.92 221.355C273.544 221.139 273.078 221.03 272.521 221.03H271.194V226.653ZM277.895 227.66V220.024H282.682V221.015H279.047V223.342H282.432V224.33H279.047V226.668H282.727V227.66H277.895ZM289.664 222.436C289.592 222.21 289.495 222.007 289.373 221.828C289.254 221.647 289.111 221.493 288.945 221.366C288.778 221.237 288.588 221.139 288.374 221.071C288.163 221.004 287.93 220.971 287.677 220.971C287.247 220.971 286.859 221.081 286.513 221.303C286.168 221.524 285.894 221.848 285.693 222.276C285.494 222.701 285.395 223.222 285.395 223.838C285.395 224.457 285.495 224.98 285.697 225.408C285.898 225.835 286.174 226.16 286.525 226.381C286.875 226.602 287.274 226.713 287.722 226.713C288.137 226.713 288.498 226.628 288.807 226.459C289.117 226.29 289.357 226.052 289.526 225.743C289.698 225.433 289.783 225.067 289.783 224.647L290.082 224.703H287.897V223.752H290.898V224.621C290.898 225.262 290.762 225.819 290.488 226.292C290.217 226.761 289.842 227.124 289.362 227.38C288.885 227.636 288.338 227.764 287.722 227.764C287.03 227.764 286.424 227.605 285.902 227.287C285.382 226.969 284.977 226.518 284.686 225.934C284.396 225.347 284.25 224.651 284.25 223.846C284.25 223.237 284.335 222.69 284.504 222.205C284.673 221.72 284.91 221.309 285.216 220.971C285.524 220.63 285.886 220.37 286.301 220.191C286.719 220.01 287.175 219.919 287.669 219.919C288.082 219.919 288.466 219.98 288.821 220.102C289.179 220.224 289.498 220.397 289.776 220.62C290.057 220.844 290.289 221.11 290.473 221.418C290.657 221.724 290.782 222.063 290.846 222.436H289.664ZM288.389 218.085H289.306C289.306 218.505 289.157 218.847 288.859 219.11C288.563 219.371 288.163 219.502 287.658 219.502C287.156 219.502 286.757 219.371 286.461 219.11C286.165 218.847 286.018 218.505 286.018 218.085H286.931C286.931 218.271 286.986 218.436 287.095 218.581C287.204 218.722 287.392 218.793 287.658 218.793C287.919 218.793 288.106 218.722 288.217 218.581C288.332 218.439 288.389 218.274 288.389 218.085ZM292.636 227.66V220.024H297.424V221.015H293.788V223.342H297.174V224.33H293.788V226.668H297.468V227.66H292.636ZM299.238 227.66V220.024H301.96C302.551 220.024 303.042 220.126 303.432 220.329C303.825 220.533 304.118 220.815 304.312 221.176C304.506 221.534 304.603 221.948 304.603 222.417C304.603 222.885 304.505 223.296 304.309 223.652C304.115 224.005 303.821 224.279 303.429 224.476C303.038 224.672 302.547 224.77 301.956 224.77H299.894V223.778H301.851C302.224 223.778 302.528 223.725 302.761 223.618C302.997 223.511 303.17 223.356 303.28 223.152C303.389 222.948 303.444 222.703 303.444 222.417C303.444 222.129 303.388 221.879 303.276 221.668C303.166 221.457 302.994 221.295 302.758 221.183C302.524 221.069 302.217 221.012 301.837 221.012H300.39V227.66H299.238ZM303.007 224.215L304.894 227.66H303.582L301.732 224.215H303.007Z" fill="#A1A1A1"/>
<rect x="236.43" y="238.66" width="199.11" height="37.3333" rx="8" fill="#171717" fill-opacity="0.6"/>
<rect x="236.93" y="239.16" width="198.11" height="36.3333" rx="7.5" stroke="white" stroke-opacity="0.1"/>
<g clip-path="url(#clip3_1_2)">
<path d="M253.499 252.654V262.327H252.327V253.882H252.271L249.909 255.45V254.26L252.327 252.654H253.499ZM259.435 262.459C258.724 262.459 258.118 262.265 257.617 261.878C257.116 261.488 256.734 260.922 256.469 260.182C256.205 259.439 256.073 258.542 256.073 257.49C256.073 256.445 256.205 255.552 256.469 254.812C256.737 254.069 257.121 253.503 257.622 253.112C258.125 252.718 258.73 252.522 259.435 252.522C260.141 252.522 260.744 252.718 261.244 253.112C261.748 253.503 262.132 254.069 262.397 254.812C262.664 255.552 262.798 256.445 262.798 257.49C262.798 258.542 262.666 259.439 262.401 260.182C262.137 260.922 261.754 261.488 261.254 261.878C260.753 262.265 260.147 262.459 259.435 262.459ZM259.435 261.42C260.141 261.42 260.689 261.08 261.079 260.4C261.469 259.72 261.665 258.75 261.665 257.49C261.665 256.653 261.575 255.94 261.395 255.351C261.219 254.762 260.964 254.313 260.63 254.005C260.3 253.696 259.901 253.542 259.435 253.542C258.736 253.542 258.19 253.887 257.796 254.576C257.403 255.263 257.206 256.234 257.206 257.49C257.206 258.328 257.294 259.039 257.471 259.625C257.647 260.211 257.9 260.656 258.231 260.962C258.565 261.267 258.966 261.42 259.435 261.42ZM267.748 262.459C267.036 262.459 266.43 262.265 265.929 261.878C265.429 261.488 265.046 260.922 264.782 260.182C264.517 259.439 264.385 258.542 264.385 257.49C264.385 256.445 264.517 255.552 264.782 254.812C265.049 254.069 265.434 253.503 265.934 253.112C266.438 252.718 267.043 252.522 267.748 252.522C268.453 252.522 269.056 252.718 269.557 253.112C270.061 253.503 270.445 254.069 270.709 254.812C270.977 255.552 271.111 256.445 271.111 257.49C271.111 258.542 270.978 259.439 270.714 260.182C270.449 260.922 270.067 261.488 269.566 261.878C269.066 262.265 268.459 262.459 267.748 262.459ZM267.748 261.42C268.453 261.42 269.001 261.08 269.391 260.4C269.782 259.72 269.977 258.75 269.977 257.49C269.977 256.653 269.887 255.94 269.708 255.351C269.532 254.762 269.277 254.313 268.943 254.005C268.612 253.696 268.214 253.542 267.748 253.542C267.049 253.542 266.503 253.887 266.109 254.576C265.715 255.263 265.519 256.234 265.519 257.49C265.519 258.328 265.607 259.039 265.783 259.625C265.959 260.211 266.213 260.656 266.543 260.962C266.877 261.267 267.279 261.42 267.748 261.42Z" fill="#F5F5F5"/>
</g>
<path d="M450.925 227.66H449.784L452.348 220.533H453.591L456.156 227.66H455.014L452.999 221.827H452.944L450.925 227.66ZM451.117 224.869H454.819V225.774H451.117V224.869ZM457.46 227.66V220.533H460C460.553 220.533 461.011 220.628 461.375 220.818C461.742 221.008 462.015 221.272 462.196 221.608C462.377 221.942 462.468 222.328 462.468 222.767C462.468 223.203 462.376 223.587 462.193 223.919C462.012 224.248 461.738 224.505 461.372 224.688C461.007 224.871 460.549 224.963 459.997 224.963H458.072V224.037H459.9C460.248 224.037 460.531 223.987 460.749 223.888C460.969 223.788 461.13 223.643 461.232 223.453C461.334 223.262 461.386 223.034 461.386 222.767C461.386 222.498 461.333 222.265 461.229 222.067C461.127 221.87 460.966 221.719 460.745 221.615C460.527 221.508 460.241 221.455 459.886 221.455H458.535V227.66H457.46ZM460.978 224.444L462.739 227.66H461.514L459.788 224.444H460.978ZM463.7 221.458V220.533H469.216V221.458H466.992V227.66H465.92V221.458H463.7ZM471.785 220.533V227.66H470.71V220.533H471.785ZM477.513 222.405C477.476 222.076 477.323 221.82 477.054 221.639C476.785 221.456 476.446 221.364 476.038 221.364C475.746 221.364 475.493 221.411 475.279 221.504C475.066 221.594 474.9 221.719 474.782 221.88C474.666 222.037 474.608 222.217 474.608 222.419C474.608 222.588 474.647 222.734 474.726 222.857C474.807 222.98 474.913 223.084 475.043 223.167C475.175 223.248 475.316 223.317 475.467 223.373C475.618 223.426 475.763 223.47 475.902 223.505L476.598 223.686C476.826 223.741 477.059 223.817 477.298 223.912C477.537 224.007 477.758 224.132 477.962 224.288C478.167 224.443 478.331 224.636 478.457 224.865C478.584 225.095 478.648 225.37 478.648 225.69C478.648 226.094 478.544 226.452 478.335 226.766C478.128 227.079 477.828 227.326 477.433 227.507C477.041 227.688 476.567 227.778 476.01 227.778C475.476 227.778 475.015 227.694 474.625 227.524C474.235 227.355 473.93 227.115 473.71 226.804C473.489 226.491 473.367 226.119 473.344 225.69H474.423C474.444 225.948 474.528 226.162 474.674 226.334C474.822 226.503 475.011 226.63 475.241 226.713C475.473 226.795 475.727 226.835 476.003 226.835C476.307 226.835 476.577 226.788 476.814 226.693C477.053 226.595 477.241 226.461 477.378 226.289C477.515 226.115 477.583 225.912 477.583 225.68C477.583 225.469 477.523 225.296 477.402 225.161C477.284 225.027 477.123 224.915 476.918 224.827C476.717 224.739 476.488 224.661 476.233 224.594L475.391 224.364C474.82 224.209 474.367 223.98 474.033 223.679C473.702 223.377 473.536 222.978 473.536 222.482C473.536 222.071 473.647 221.712 473.87 221.406C474.093 221.1 474.394 220.862 474.775 220.693C475.155 220.521 475.584 220.435 476.062 220.435C476.545 220.435 476.971 220.52 477.339 220.689C477.711 220.859 478.003 221.092 478.216 221.389C478.43 221.683 478.541 222.022 478.551 222.405H477.513ZM475.648 227.632H476.33L476.275 227.918C476.476 227.95 476.653 228.031 476.804 228.161C476.954 228.291 477.03 228.487 477.03 228.749C477.032 229.062 476.896 229.317 476.623 229.511C476.351 229.706 475.958 229.804 475.443 229.804L475.422 229.223C475.663 229.223 475.858 229.188 476.007 229.118C476.157 229.049 476.234 228.936 476.236 228.781C476.239 228.625 476.181 228.516 476.062 228.453C475.946 228.391 475.761 228.347 475.505 228.321L475.648 227.632ZM483.296 224.096C483.296 223.224 483.411 222.421 483.64 221.688C483.87 220.955 484.205 220.279 484.646 219.659H485.6C485.428 219.889 485.268 220.171 485.119 220.505C484.971 220.839 484.841 221.206 484.73 221.605C484.618 222.001 484.531 222.413 484.469 222.84C484.406 223.265 484.375 223.683 484.375 224.096C484.375 224.649 484.429 225.208 484.538 225.774C484.647 226.34 484.795 226.865 484.98 227.35C485.166 227.835 485.372 228.231 485.6 228.537H484.646C484.205 227.918 483.87 227.241 483.64 226.508C483.411 225.775 483.296 224.971 483.296 224.096ZM490.943 222.405C490.905 222.076 490.752 221.82 490.483 221.639C490.214 221.456 489.875 221.364 489.467 221.364C489.175 221.364 488.922 221.411 488.708 221.504C488.495 221.594 488.329 221.719 488.211 221.88C488.095 222.037 488.037 222.217 488.037 222.419C488.037 222.588 488.076 222.734 488.155 222.857C488.236 222.98 488.342 223.084 488.472 223.167C488.604 223.248 488.745 223.317 488.896 223.373C489.047 223.426 489.192 223.47 489.331 223.505L490.027 223.686C490.255 223.741 490.488 223.817 490.727 223.912C490.966 224.007 491.187 224.132 491.391 224.288C491.596 224.443 491.76 224.636 491.886 224.865C492.013 225.095 492.077 225.37 492.077 225.69C492.077 226.094 491.973 226.452 491.764 226.766C491.557 227.079 491.257 227.326 490.863 227.507C490.47 227.688 489.996 227.778 489.439 227.778C488.906 227.778 488.444 227.694 488.054 227.524C487.664 227.355 487.359 227.115 487.139 226.804C486.918 226.491 486.797 226.119 486.773 225.69H487.852C487.873 225.948 487.957 226.162 488.103 226.334C488.251 226.503 488.44 226.63 488.67 226.713C488.902 226.795 489.156 226.835 489.432 226.835C489.736 226.835 490.006 226.788 490.243 226.693C490.482 226.595 490.67 226.461 490.807 226.289C490.944 226.115 491.012 225.912 491.012 225.68C491.012 225.469 490.952 225.296 490.831 225.161C490.713 225.027 490.552 224.915 490.347 224.827C490.146 224.739 489.917 224.661 489.662 224.594L488.82 224.364C488.249 224.209 487.797 223.98 487.462 223.679C487.131 223.377 486.965 222.978 486.965 222.482C486.965 222.071 487.076 221.712 487.299 221.406C487.522 221.1 487.823 220.862 488.204 220.693C488.584 220.521 489.013 220.435 489.491 220.435C489.974 220.435 490.4 220.52 490.769 220.689C491.14 220.859 491.432 221.092 491.646 221.389C491.859 221.683 491.97 222.022 491.98 222.405H490.943ZM493.286 221.458V220.533H498.802V221.458H496.578V227.66H495.506V221.458H493.286ZM500.296 227.66V220.533H504.764V221.458H501.371V223.63H504.531V224.552H501.371V226.734H504.806V227.66H500.296ZM506.475 227.66V220.533H509.016C509.57 220.533 510.03 220.634 510.394 220.836C510.758 221.037 511.031 221.313 511.212 221.664C511.393 222.012 511.483 222.404 511.483 222.84C511.483 223.279 511.392 223.673 511.208 224.023C511.027 224.371 510.754 224.647 510.387 224.852C510.023 225.053 509.565 225.154 509.012 225.154H507.265V224.243H508.915C509.265 224.243 509.549 224.182 509.768 224.062C509.986 223.939 510.146 223.772 510.248 223.56C510.35 223.349 510.401 223.109 510.401 222.84C510.401 222.571 510.35 222.332 510.248 222.123C510.146 221.914 509.985 221.751 509.764 221.632C509.546 221.514 509.258 221.455 508.901 221.455H507.551V227.66H506.475ZM514.936 224.096C514.936 224.971 514.822 225.775 514.592 226.508C514.362 227.241 514.027 227.918 513.586 228.537H512.633C512.804 228.307 512.964 228.025 513.113 227.691C513.261 227.357 513.391 226.992 513.503 226.595C513.614 226.196 513.701 225.783 513.764 225.356C513.826 224.929 513.858 224.509 513.858 224.096C513.858 223.547 513.803 222.989 513.694 222.422C513.585 221.856 513.438 221.331 513.252 220.846C513.067 220.361 512.86 219.965 512.633 219.659H513.586C514.027 220.279 514.362 220.955 514.592 221.688C514.822 222.421 514.936 223.224 514.936 224.096Z" fill="#A1A1A1"/>
<rect x="447.54" y="238.66" width="199.1" height="37.3333" rx="8" fill="#171717" fill-opacity="0.6"/>
<rect x="448.04" y="239.16" width="198.1" height="36.3333" rx="7.5" stroke="white" stroke-opacity="0.1"/>
<g clip-path="url(#clip4_1_2)">
<path d="M464.84 252.145V262.327H463.607V253.437H463.548L461.062 255.088V253.835L463.607 252.145H464.84Z" fill="#F5F5F5"/>
</g>
<defs>
<clipPath id="clip0_1_2">
<rect width="377.52" height="20" fill="white" transform="translate(57.33 24.5067)"/>
</clipPath>
<clipPath id="clip1_1_2">
<rect width="596" height="16" fill="white" transform="translate(37.9967 178.33)"/>
</clipPath>
<clipPath id="clip2_1_2">
<rect width="158.77" height="20" fill="white" transform="translate(37.9967 247.327)"/>
</clipPath>
<clipPath id="clip3_1_2">
<rect width="158.78" height="20" fill="white" transform="translate(249.097 247.327)"/>
</clipPath>
<clipPath id="clip4_1_2">
<rect width="158.77" height="20" fill="white" transform="translate(460.207 247.327)"/>
</clipPath>
</defs>
</svg>
