<svg width="672" height="229" viewBox="0 0 672 229" fill="none" xmlns="http://www.w3.org/2000/svg">
<rect x="0.5" y="0.5" width="671" height="227.99" rx="11.5" stroke="white" stroke-opacity="0.2"/>
<rect x="8.33002" y="8.33" width="656.947" height="212.33" rx="12" fill="#171717"/>
<rect x="8.83002" y="8.83" width="655.947" height="211.33" rx="11.5" stroke="white" stroke-opacity="0.05"/>
<rect x="21.33" y="22.4967" width="24" height="24" rx="6" fill="white" fill-opacity="0.05"/>
<rect x="21.83" y="22.9967" width="23" height="23" rx="5.5" stroke="white" stroke-opacity="0.1"/>
<path d="M31.2059 28.6271L33.2879 32.0895H33.3618L35.453 28.6271H37.4058L34.4928 33.3544L37.452 38.0817H35.4669L33.3618 34.6424H33.2879L31.1828 38.0817H29.2069L32.1938 33.3544L29.2439 28.6271H31.2059Z" fill="#A1A1A1"/>
<path d="M58.1179 39.4967V38.553L63.0516 31.3334H58.0767V30.1149H64.7832V31.0585L59.8495 38.2781H64.8245V39.4967H58.1179ZM68.5373 39.6524C68.0915 39.6524 67.6883 39.57 67.328 39.4051C66.9676 39.2371 66.6821 38.9943 66.4713 38.6767C66.2637 38.3591 66.1598 37.9697 66.1598 37.5085C66.1598 37.1115 66.2362 36.7847 66.3889 36.5282C66.5416 36.2717 66.7477 36.0686 67.0073 35.9189C67.2669 35.7693 67.557 35.6563 67.8777 35.5799C68.1984 35.5036 68.5251 35.4456 68.858 35.4059C69.2795 35.357 69.6215 35.3173 69.8842 35.2868C70.1468 35.2532 70.3377 35.1997 70.4568 35.1264C70.5759 35.0531 70.6354 34.934 70.6354 34.7691V34.737C70.6354 34.337 70.5224 34.027 70.2964 33.8071C70.0735 33.5872 69.7406 33.4773 69.2978 33.4773C68.8366 33.4773 68.4732 33.5796 68.2075 33.7842C67.9449 33.9858 67.7632 34.2102 67.6624 34.4576L66.3751 34.1644C66.5278 33.7369 66.7508 33.3918 67.044 33.1291C67.3402 32.8634 67.6807 32.671 68.0655 32.5519C68.4503 32.4298 68.855 32.3687 69.2795 32.3687C69.5604 32.3687 69.8582 32.4023 70.1728 32.4695C70.4904 32.5336 70.7866 32.6527 71.0615 32.8268C71.3394 33.0009 71.5669 33.2498 71.744 33.5735C71.9212 33.8942 72.0097 34.311 72.0097 34.8241V39.4967H70.6721V38.5347H70.6171C70.5285 38.7118 70.3957 38.8859 70.2186 39.0569C70.0414 39.2279 69.8139 39.3699 69.536 39.4829C69.2581 39.5959 68.9252 39.6524 68.5373 39.6524ZM68.8351 38.553C69.2138 38.553 69.5375 38.4782 69.8063 38.3285C70.0781 38.1789 70.2842 37.9834 70.4247 37.7422C70.5682 37.4978 70.64 37.2367 70.64 36.9588V36.0518C70.5911 36.1007 70.4965 36.1465 70.356 36.1892C70.2186 36.2289 70.0613 36.264 69.8842 36.2946C69.707 36.3221 69.5345 36.348 69.3665 36.3725C69.1985 36.3938 69.0581 36.4122 68.9451 36.4274C68.6794 36.461 68.4366 36.5175 68.2167 36.5969C67.9998 36.6763 67.8258 36.7908 67.6945 36.9405C67.5662 37.0871 67.5021 37.2825 67.5021 37.5269C67.5021 37.8658 67.6273 38.1224 67.8777 38.2965C68.1281 38.4675 68.4473 38.553 68.8351 38.553ZM73.8341 39.4967V32.4603H75.1488V33.6056H75.2359C75.3825 33.2177 75.6222 32.9154 75.9551 32.6985C76.288 32.4786 76.6865 32.3687 77.1507 32.3687C77.621 32.3687 78.015 32.4786 78.3326 32.6985C78.6533 32.9184 78.89 33.2208 79.0426 33.6056H79.1159C79.2839 33.2299 79.5511 32.9306 79.9176 32.7077C80.2841 32.4817 80.7208 32.3687 81.2278 32.3687C81.8661 32.3687 82.3868 32.5687 82.7899 32.9688C83.1961 33.3689 83.3991 33.972 83.3991 34.7783V39.4967H82.0294V34.9065C82.0294 34.4301 81.8996 34.085 81.6401 33.8712C81.3805 33.6575 81.0705 33.5506 80.7101 33.5506C80.2642 33.5506 79.9176 33.688 79.6702 33.9629C79.4229 34.2347 79.2992 34.5844 79.2992 35.0119V39.4967H77.9341V34.8195C77.9341 34.4378 77.815 34.1308 77.5767 33.8987C77.3385 33.6666 77.0286 33.5506 76.6468 33.5506C76.3872 33.5506 76.1475 33.6193 75.9276 33.7567C75.7108 33.8911 75.5352 34.0789 75.4008 34.3202C75.2695 34.5614 75.2038 34.8409 75.2038 35.1585V39.4967H73.8341ZM87.2827 39.6524C86.8368 39.6524 86.4337 39.57 86.0733 39.4051C85.7129 39.2371 85.4274 38.9943 85.2166 38.6767C85.009 38.3591 84.9051 37.9697 84.9051 37.5085C84.9051 37.1115 84.9815 36.7847 85.1342 36.5282C85.2869 36.2717 85.493 36.0686 85.7526 35.9189C86.0122 35.7693 86.3023 35.6563 86.623 35.5799C86.9437 35.5036 87.2704 35.4456 87.6033 35.4059C88.0248 35.357 88.3668 35.3173 88.6295 35.2868C88.8921 35.2532 89.083 35.1997 89.2021 35.1264C89.3212 35.0531 89.3807 34.934 89.3807 34.7691V34.737C89.3807 34.337 89.2677 34.027 89.0418 33.8071C88.8188 33.5872 88.4859 33.4773 88.0431 33.4773C87.582 33.4773 87.2185 33.5796 86.9528 33.7842C86.6902 33.9858 86.5085 34.2102 86.4077 34.4576L85.1204 34.1644C85.2731 33.7369 85.4961 33.3918 85.7893 33.1291C86.0855 32.8634 86.426 32.671 86.8108 32.5519C87.1956 32.4298 87.6003 32.3687 88.0248 32.3687C88.3057 32.3687 88.6035 32.4023 88.9181 32.4695C89.2357 32.5336 89.5319 32.6527 89.8068 32.8268C90.0847 33.0009 90.3122 33.2498 90.4893 33.5735C90.6665 33.8942 90.755 34.311 90.755 34.8241V39.4967H89.4174V38.5347H89.3624C89.2739 38.7118 89.141 38.8859 88.9639 39.0569C88.7867 39.2279 88.5592 39.3699 88.2813 39.4829C88.0034 39.5959 87.6705 39.6524 87.2827 39.6524ZM87.5804 38.553C87.9591 38.553 88.2828 38.4782 88.5516 38.3285C88.8234 38.1789 89.0295 37.9834 89.17 37.7422C89.3136 37.4978 89.3853 37.2367 89.3853 36.9588V36.0518C89.3365 36.1007 89.2418 36.1465 89.1013 36.1892C88.9639 36.2289 88.8066 36.264 88.6295 36.2946C88.4523 36.3221 88.2798 36.348 88.1118 36.3725C87.9438 36.3938 87.8034 36.4122 87.6904 36.4274C87.4247 36.461 87.1819 36.5175 86.962 36.5969C86.7452 36.6763 86.5711 36.7908 86.4398 36.9405C86.3115 37.0871 86.2474 37.2825 86.2474 37.5269C86.2474 37.8658 86.3726 38.1224 86.623 38.2965C86.8734 38.4675 87.1926 38.553 87.5804 38.553ZM93.9491 35.3188V39.4967H92.5794V32.4603H93.8941V33.6056H93.9812C94.143 33.233 94.3965 32.9337 94.7416 32.7077C95.0898 32.4817 95.528 32.3687 96.0564 32.3687C96.5358 32.3687 96.9558 32.4695 97.3161 32.671C97.6765 32.8695 97.9559 33.1658 98.1544 33.5597C98.3529 33.9537 98.4522 34.4408 98.4522 35.0211V39.4967H97.0825V35.186C97.0825 34.676 96.9496 34.2774 96.6839 33.9904C96.4183 33.7002 96.0533 33.5552 95.5891 33.5552C95.2715 33.5552 94.989 33.6239 94.7416 33.7613C94.4973 33.8987 94.3034 34.1003 94.1598 34.366C94.0194 34.6286 93.9491 34.9462 93.9491 35.3188ZM108.93 32.5794C108.881 32.1458 108.68 31.8098 108.325 31.5716C107.971 31.3303 107.525 31.2097 106.988 31.2097C106.603 31.2097 106.27 31.2708 105.989 31.3929C105.708 31.512 105.49 31.677 105.334 31.8877C105.181 32.0954 105.105 32.332 105.105 32.5977C105.105 32.8207 105.157 33.0131 105.261 33.1749C105.368 33.3368 105.507 33.4727 105.678 33.5826C105.852 33.6895 106.038 33.7796 106.236 33.8529C106.435 33.9232 106.626 33.9812 106.809 34.027L107.725 34.2652C108.025 34.3385 108.331 34.4378 108.646 34.563C108.961 34.6882 109.252 34.8531 109.521 35.0577C109.79 35.2623 110.007 35.5158 110.171 35.8182C110.339 36.1205 110.423 36.4824 110.423 36.9038C110.423 37.4352 110.286 37.9071 110.011 38.3194C109.739 38.7317 109.344 39.0569 108.825 39.2951C108.309 39.5333 107.684 39.6524 106.951 39.6524C106.249 39.6524 105.641 39.541 105.128 39.318C104.615 39.0951 104.213 38.779 103.923 38.3698C103.633 37.9575 103.473 37.4688 103.442 36.9038H104.862C104.89 37.2428 105 37.5253 105.192 37.7513C105.387 37.9743 105.636 38.1407 105.939 38.2507C106.244 38.3575 106.578 38.411 106.942 38.411C107.342 38.411 107.698 38.3484 108.009 38.2232C108.324 38.0949 108.571 37.9178 108.751 37.6918C108.932 37.4627 109.022 37.1955 109.022 36.8901C109.022 36.6122 108.942 36.3847 108.783 36.2075C108.628 36.0304 108.415 35.8838 108.147 35.7678C107.881 35.6517 107.58 35.5494 107.244 35.4608L106.136 35.1585C105.384 34.9539 104.789 34.6531 104.349 34.256C103.912 33.859 103.694 33.3337 103.694 32.6802C103.694 32.1396 103.841 31.6678 104.134 31.2647C104.427 30.8616 104.824 30.5485 105.325 30.3256C105.826 30.0996 106.391 29.9866 107.02 29.9866C107.655 29.9866 108.215 30.0981 108.701 30.321C109.19 30.5439 109.574 30.8509 109.855 31.2418C110.136 31.6296 110.283 32.0755 110.295 32.5794H108.93ZM115.038 39.6387C114.344 39.6387 113.747 39.4906 113.246 39.1943C112.749 38.895 112.364 38.4751 112.092 37.9346C111.823 37.391 111.689 36.7542 111.689 36.0243C111.689 35.3036 111.823 34.6683 112.092 34.1186C112.364 33.5689 112.743 33.1398 113.228 32.8314C113.717 32.5229 114.288 32.3687 114.941 32.3687C115.338 32.3687 115.723 32.4344 116.096 32.5657C116.468 32.697 116.803 32.9031 117.099 33.1841C117.395 33.4651 117.629 33.83 117.8 34.279C117.971 34.7248 118.056 35.2669 118.056 35.9052V36.3908H112.463V35.3646H116.714C116.714 35.0043 116.641 34.6851 116.494 34.4072C116.348 34.1263 116.142 33.9048 115.876 33.743C115.613 33.5811 115.305 33.5002 114.951 33.5002C114.566 33.5002 114.23 33.5949 113.943 33.7842C113.659 33.9705 113.439 34.2148 113.283 34.5172C113.13 34.8165 113.054 35.1417 113.054 35.4929V36.2946C113.054 36.7649 113.136 37.165 113.301 37.4948C113.469 37.8246 113.703 38.0766 114.002 38.2507C114.302 38.4217 114.651 38.5072 115.051 38.5072C115.311 38.5072 115.548 38.4705 115.761 38.3972C115.975 38.3209 116.16 38.2079 116.316 38.0583C116.471 37.9086 116.591 37.7238 116.673 37.504L117.969 37.7376C117.866 38.1193 117.679 38.4537 117.411 38.7408C117.145 39.0248 116.81 39.2462 116.407 39.4051C116.007 39.5608 115.551 39.6387 115.038 39.6387ZM122.54 39.6387C121.859 39.6387 121.273 39.4845 120.781 39.176C120.292 38.8645 119.917 38.4354 119.654 37.8888C119.391 37.3421 119.26 36.716 119.26 36.0106C119.26 35.2959 119.394 34.6653 119.663 34.1186C119.932 33.5689 120.311 33.1398 120.799 32.8314C121.288 32.5229 121.864 32.3687 122.526 32.3687C123.061 32.3687 123.537 32.4679 123.956 32.6665C124.374 32.8619 124.711 33.1368 124.968 33.491C125.228 33.8453 125.382 34.2591 125.431 34.7325H124.098C124.024 34.4026 123.856 34.1186 123.594 33.8804C123.334 33.6422 122.986 33.5231 122.549 33.5231C122.167 33.5231 121.833 33.6239 121.546 33.8254C121.262 34.0239 121.041 34.308 120.882 34.6775C120.723 35.044 120.644 35.4776 120.644 35.9785C120.644 36.4916 120.721 36.9344 120.877 37.307C121.033 37.6796 121.253 37.9682 121.537 38.1728C121.824 38.3774 122.161 38.4797 122.549 38.4797C122.809 38.4797 123.044 38.4324 123.255 38.3377C123.468 38.24 123.647 38.101 123.791 37.9208C123.937 37.7406 124.04 37.5238 124.098 37.2703H125.431C125.382 37.7254 125.234 38.1315 124.986 38.4889C124.739 38.8462 124.408 39.1271 123.992 39.3318C123.58 39.5364 123.096 39.6387 122.54 39.6387ZM122.045 39.46H122.943L122.87 39.8357C123.136 39.8784 123.368 39.9853 123.566 40.1563C123.765 40.3274 123.864 40.5854 123.864 40.9305C123.867 41.3428 123.688 41.6772 123.328 41.9337C122.971 42.1903 122.453 42.3185 121.775 42.3185L121.748 41.5535C122.065 41.5535 122.322 41.5077 122.517 41.4161C122.716 41.3245 122.816 41.1764 122.82 40.9717C122.823 40.7671 122.746 40.6236 122.59 40.5411C122.438 40.4587 122.193 40.4007 121.858 40.3671L122.045 39.46ZM126.895 39.4967V32.4603H128.265V39.4967H126.895ZM127.587 31.3746C127.349 31.3746 127.144 31.2952 126.973 31.1364C126.805 30.9745 126.721 30.7821 126.721 30.5592C126.721 30.3332 126.805 30.1408 126.973 29.982C127.144 29.8201 127.349 29.7392 127.587 29.7392C127.825 29.7392 128.028 29.8201 128.196 29.982C128.367 30.1408 128.453 30.3332 128.453 30.5592C128.453 30.7821 128.367 30.9745 128.196 31.1364C128.028 31.2952 127.825 31.3746 127.587 31.3746ZM133.072 39.6387C132.391 39.6387 131.804 39.4845 131.313 39.176C130.824 38.8645 130.448 38.4354 130.186 37.8888C129.923 37.3421 129.792 36.716 129.792 36.0106C129.792 35.2959 129.926 34.6653 130.195 34.1186C130.464 33.5689 130.842 33.1398 131.331 32.8314C131.82 32.5229 132.395 32.3687 133.058 32.3687C133.592 32.3687 134.069 32.4679 134.487 32.6665C134.906 32.8619 135.243 33.1368 135.5 33.491C135.759 33.8453 135.913 34.2591 135.962 34.7325H134.629C134.556 34.4026 134.388 34.1186 134.125 33.8804C133.866 33.6422 133.518 33.5231 133.081 33.5231C132.699 33.5231 132.365 33.6239 132.078 33.8254C131.794 34.0239 131.572 34.308 131.413 34.6775C131.255 35.044 131.175 35.4776 131.175 35.9785C131.175 36.4916 131.253 36.9344 131.409 37.307C131.565 37.6796 131.784 37.9682 132.068 38.1728C132.356 38.3774 132.693 38.4797 133.081 38.4797C133.34 38.4797 133.576 38.4324 133.786 38.3377C134 38.24 134.179 38.101 134.322 37.9208C134.469 37.7406 134.571 37.5238 134.629 37.2703H135.962C135.913 37.7254 135.765 38.1315 135.518 38.4889C135.271 38.8462 134.939 39.1271 134.524 39.3318C134.112 39.5364 133.628 39.6387 133.072 39.6387ZM137.427 39.4967V32.4603H138.797V39.4967H137.427ZM138.119 31.3746C137.881 31.3746 137.676 31.2952 137.505 31.1364C137.337 30.9745 137.253 30.7821 137.253 30.5592C137.253 30.3332 137.337 30.1408 137.505 29.982C137.676 29.8201 137.881 29.7392 138.119 29.7392C138.357 29.7392 138.56 29.8201 138.728 29.982C138.899 30.1408 138.985 30.3332 138.985 30.5592C138.985 30.7821 138.899 30.9745 138.728 31.1364C138.56 31.2952 138.357 31.3746 138.119 31.3746Z" fill="#E5E5E5"/>
<g opacity="0.3">
<rect x="447.11" y="19.83" width="63.3333" height="29.3333" rx="7.5" fill="white" fill-opacity="0.03"/>
<rect x="447.11" y="19.83" width="63.3333" height="29.3333" rx="7.5" stroke="#525252"/>
<path d="M458.527 29.6217V36.1217" stroke="#737373" stroke-width="1.08333" stroke-linecap="round" stroke-linejoin="round"/>
<path d="M465.027 32.8717C465.924 32.8717 466.652 32.1441 466.652 31.2467C466.652 30.3492 465.924 29.6217 465.027 29.6217C464.129 29.6217 463.402 30.3492 463.402 31.2467C463.402 32.1441 464.129 32.8717 465.027 32.8717Z" stroke="#737373" stroke-width="1.08333" stroke-linecap="round" stroke-linejoin="round"/>
<path d="M458.527 39.3717C459.424 39.3717 460.152 38.6441 460.152 37.7467C460.152 36.8492 459.424 36.1217 458.527 36.1217C457.629 36.1217 456.902 36.8492 456.902 37.7467C456.902 38.6441 457.629 39.3717 458.527 39.3717Z" stroke="#737373" stroke-width="1.08333" stroke-linecap="round" stroke-linejoin="round"/>
<path d="M465.027 32.8717C465.027 34.1646 464.513 35.4046 463.599 36.3188C462.685 37.2331 461.445 37.7467 460.152 37.7467" stroke="#737373" stroke-width="1.08333" stroke-linecap="round" stroke-linejoin="round"/>
<path d="M475.432 37.9967V30.3603H476.584V34.007H476.677L479.88 30.3603H481.331L478.251 33.7982L481.342 37.9967H479.955L477.486 34.5849L476.584 35.6215V37.9967H475.432ZM484.307 38.1123C483.77 38.1123 483.301 37.9892 482.901 37.7431C482.501 37.497 482.19 37.1527 481.969 36.7103C481.748 36.2678 481.637 35.7508 481.637 35.1591C481.637 34.565 481.748 34.0455 481.969 33.6005C482.19 33.1556 482.501 32.8101 482.901 32.564C483.301 32.3179 483.77 32.1948 484.307 32.1948C484.844 32.1948 485.312 32.3179 485.713 32.564C486.113 32.8101 486.424 33.1556 486.645 33.6005C486.866 34.0455 486.977 34.565 486.977 35.1591C486.977 35.7508 486.866 36.2678 486.645 36.7103C486.424 37.1527 486.113 37.497 485.713 37.7431C485.312 37.9892 484.844 38.1123 484.307 38.1123ZM484.311 37.1764C484.659 37.1764 484.947 37.0844 485.176 36.9004C485.404 36.7165 485.573 36.4716 485.683 36.1659C485.795 35.8601 485.851 35.5233 485.851 35.1554C485.851 34.79 485.795 34.4544 485.683 34.1487C485.573 33.8404 485.404 33.5931 485.176 33.4067C484.947 33.2202 484.659 33.127 484.311 33.127C483.96 33.127 483.669 33.2202 483.438 33.4067C483.209 33.5931 483.039 33.8404 482.927 34.1487C482.818 34.4544 482.763 34.79 482.763 35.1554C482.763 35.5233 482.818 35.8601 482.927 36.1659C483.039 36.4716 483.209 36.7165 483.438 36.9004C483.669 37.0844 483.96 37.1764 484.311 37.1764ZM492.513 33.6677L491.502 33.8466C491.46 33.7174 491.393 33.5943 491.301 33.4775C491.212 33.3607 491.09 33.265 490.936 33.1904C490.782 33.1158 490.589 33.0785 490.358 33.0785C490.042 33.0785 489.778 33.1494 489.567 33.2911C489.356 33.4303 489.25 33.6105 489.25 33.8317C489.25 34.0231 489.321 34.1772 489.463 34.2941C489.604 34.4109 489.833 34.5066 490.149 34.5812L491.059 34.79C491.586 34.9118 491.978 35.0995 492.237 35.353C492.495 35.6066 492.625 35.9359 492.625 36.3411C492.625 36.6842 492.525 36.9899 492.326 37.2584C492.13 37.5244 491.855 37.7332 491.502 37.8848C491.152 38.0364 490.745 38.1123 490.283 38.1123C489.642 38.1123 489.119 37.9755 488.713 37.7021C488.308 37.4262 488.06 37.0347 487.968 36.5276L489.045 36.3635C489.112 36.6444 489.25 36.8569 489.459 37.0011C489.668 37.1428 489.94 37.2136 490.276 37.2136C490.641 37.2136 490.933 37.1378 491.152 36.9862C491.371 36.8321 491.48 36.6444 491.48 36.4232C491.48 36.2442 491.413 36.0938 491.279 35.972C491.147 35.8502 490.944 35.7582 490.671 35.6961L489.701 35.4835C489.167 35.3617 488.772 35.1678 488.516 34.9019C488.262 34.6359 488.135 34.2991 488.135 33.8914C488.135 33.5533 488.23 33.2575 488.419 33.004C488.608 32.7504 488.869 32.5528 489.202 32.4111C489.535 32.2669 489.916 32.1948 490.347 32.1948C490.965 32.1948 491.453 32.3291 491.808 32.5975C492.164 32.8635 492.399 33.2202 492.513 33.6677ZM489.948 37.9668H490.678L490.619 38.2726C490.835 38.3074 491.024 38.3944 491.185 38.5336C491.347 38.6728 491.428 38.8829 491.428 39.1638C491.43 39.4993 491.285 39.7715 490.992 39.9803C490.701 40.1891 490.279 40.2935 489.728 40.2935L489.705 39.6709C489.964 39.6709 490.172 39.6336 490.332 39.559C490.493 39.4844 490.575 39.3639 490.578 39.1973C490.58 39.0308 490.518 38.9139 490.391 38.8468C490.267 38.7797 490.068 38.7325 489.795 38.7051L489.948 37.9668ZM497.479 35.6215V32.2694H498.597V37.9967H497.501V37.0048H497.441C497.31 37.3106 497.098 37.5654 496.807 37.7692C496.519 37.9706 496.16 38.0712 495.73 38.0712C495.362 38.0712 495.036 37.9905 494.753 37.8289C494.472 37.6648 494.251 37.4225 494.089 37.1018C493.93 36.7811 493.851 36.3846 493.851 35.9123V32.2694H494.965V35.7781C494.965 36.1684 495.074 36.4791 495.29 36.7103C495.506 36.9415 495.787 37.057 496.133 37.057C496.341 37.057 496.549 37.0048 496.755 36.9004C496.964 36.796 497.137 36.6382 497.273 36.4269C497.413 36.2156 497.481 35.9471 497.479 35.6215ZM501.21 30.3603V37.9967H500.095V30.3603H501.21Z" fill="#737373"/>
</g>
<rect x="518.943" y="24.4967" width="1" height="20" fill="white" fill-opacity="0.1"/>
<rect x="527.943" y="19.33" width="124.333" height="30.3333" rx="8" fill="white" fill-opacity="0.05"/>
<rect x="528.443" y="19.83" width="123.333" height="29.3333" rx="7.5" stroke="white" stroke-opacity="0.15"/>
<rect x="530.61" y="21.9967" width="65" height="25" rx="8" fill="white" fill-opacity="0.1"/>
<path d="M546.292 34.2512C546.292 35.0413 546.15 35.724 545.865 36.2995C545.579 36.875 545.188 37.3188 544.69 37.6309C544.193 37.943 543.625 38.0991 542.986 38.0991C542.347 38.0991 541.779 37.943 541.281 37.6309C540.784 37.3188 540.393 36.875 540.107 36.2995C539.822 35.724 539.679 35.0413 539.679 34.2512C539.679 33.4612 539.822 32.7784 540.107 32.2029C540.393 31.6275 540.784 31.1837 541.281 30.8715C541.779 30.5594 542.347 30.4033 542.986 30.4033C543.625 30.4033 544.193 30.5594 544.69 30.8715C545.188 31.1837 545.579 31.6275 545.865 32.2029C546.15 32.7784 546.292 33.4612 546.292 34.2512ZM545.415 34.2512C545.415 33.6026 545.306 33.0552 545.089 32.6089C544.875 32.1627 544.583 31.825 544.215 31.5958C543.849 31.3665 543.439 31.2519 542.986 31.2519C542.532 31.2519 542.122 31.3665 541.753 31.5958C541.388 31.825 541.096 32.1627 540.879 32.6089C540.665 33.0552 540.557 33.6026 540.557 34.2512C540.557 34.8998 540.665 35.4473 540.879 35.8935C541.096 36.3397 541.388 36.6775 541.753 36.9067C542.122 37.1359 542.532 37.2505 542.986 37.2505C543.439 37.2505 543.849 37.1359 544.215 36.9067C544.583 36.6775 544.875 36.3397 545.089 35.8935C545.306 35.4473 545.415 34.8998 545.415 34.2512ZM547.701 40.1035V32.3785H548.535V33.271H548.637C548.7 33.1734 548.788 33.0491 548.9 32.8979C549.015 32.7443 549.178 32.6077 549.391 32.4882C549.605 32.3663 549.895 32.3053 550.261 32.3053C550.734 32.3053 551.151 32.4236 551.512 32.6601C551.873 32.8967 552.155 33.2319 552.357 33.666C552.559 34.1 552.66 34.6121 552.66 35.2022C552.66 35.7972 552.559 36.3129 552.357 36.7494C552.155 37.1835 551.874 37.52 551.516 37.7589C551.157 37.9955 550.744 38.1137 550.276 38.1137C549.915 38.1137 549.626 38.054 549.409 37.9345C549.192 37.8126 549.025 37.6748 548.908 37.5212C548.791 37.3651 548.7 37.2359 548.637 37.1335H548.564V40.1035H547.701ZM548.549 35.1876C548.549 35.6119 548.611 35.9862 548.736 36.3105C548.86 36.6324 549.042 36.8847 549.281 37.0676C549.52 37.2481 549.812 37.3383 550.159 37.3383C550.52 37.3383 550.821 37.2432 551.062 37.053C551.306 36.8604 551.489 36.6019 551.611 36.2776C551.735 35.9508 551.797 35.5875 551.797 35.1876C551.797 34.7926 551.736 34.4365 551.614 34.1195C551.495 33.8001 551.313 33.5477 551.069 33.3624C550.828 33.1746 550.524 33.0808 550.159 33.0808C549.807 33.0808 549.512 33.1698 549.273 33.3478C549.035 33.5233 548.854 33.7696 548.732 34.0866C548.61 34.4012 548.549 34.7682 548.549 35.1876ZM557.957 33.6367L557.181 33.8562C557.133 33.727 557.061 33.6014 556.966 33.4795C556.873 33.3551 556.746 33.2527 556.585 33.1722C556.424 33.0917 556.218 33.0515 555.967 33.0515C555.623 33.0515 555.337 33.1308 555.107 33.2893C554.881 33.4453 554.767 33.644 554.767 33.8855C554.767 34.1 554.845 34.2695 555.001 34.3939C555.157 34.5182 555.401 34.6219 555.733 34.7048L556.567 34.9096C557.069 35.0315 557.443 35.2181 557.69 35.4692C557.936 35.7179 558.059 36.0386 558.059 36.4312C558.059 36.7531 557.967 37.0408 557.781 37.2944C557.598 37.548 557.342 37.748 557.013 37.8943C556.684 38.0406 556.301 38.1137 555.865 38.1137C555.292 38.1137 554.817 37.9894 554.442 37.7406C554.066 37.4919 553.828 37.1286 553.729 36.6507L554.548 36.4458C554.626 36.7482 554.773 36.975 554.99 37.1261C555.21 37.2773 555.496 37.3529 555.85 37.3529C556.252 37.3529 556.572 37.2676 556.808 37.0969C557.047 36.9238 557.167 36.7165 557.167 36.4751C557.167 36.28 557.098 36.1166 556.962 35.985C556.825 35.8508 556.616 35.7509 556.333 35.685L555.396 35.4656C554.882 35.3436 554.504 35.1547 554.263 34.8986C554.024 34.6402 553.904 34.3171 553.904 33.9293C553.904 33.6123 553.993 33.3319 554.171 33.0881C554.352 32.8442 554.597 32.6528 554.906 32.5138C555.218 32.3748 555.572 32.3053 555.967 32.3053C556.523 32.3053 556.959 32.4273 557.276 32.6711C557.596 32.9149 557.823 33.2368 557.957 33.6367ZM559.359 37.9967V32.3785H560.222V37.9967H559.359ZM559.798 31.4421C559.629 31.4421 559.484 31.3848 559.362 31.2702C559.243 31.1556 559.183 31.0178 559.183 30.8569C559.183 30.696 559.243 30.5582 559.362 30.4436C559.484 30.329 559.629 30.2717 559.798 30.2717C559.966 30.2717 560.11 30.329 560.229 30.4436C560.351 30.5582 560.412 30.696 560.412 30.8569C560.412 31.0178 560.351 31.1556 560.229 31.2702C560.11 31.3848 559.966 31.4421 559.798 31.4421ZM562.359 40.1035C562.212 40.1035 562.082 40.0913 561.967 40.0669C561.853 40.045 561.774 40.023 561.73 40.0011L561.949 39.2403C562.159 39.2939 562.344 39.3134 562.505 39.2988C562.666 39.2842 562.809 39.2122 562.933 39.083C563.06 38.9562 563.176 38.7502 563.281 38.4649L563.441 38.0259L561.364 32.3785H562.3L563.851 36.8555H563.91L565.46 32.3785H566.397L564.012 38.816C563.905 39.1062 563.772 39.3464 563.613 39.5366C563.455 39.7292 563.271 39.8718 563.061 39.9645C562.854 40.0572 562.62 40.1035 562.359 40.1035ZM569.617 38.1137C569.11 38.1137 568.665 37.993 568.282 37.7516C567.902 37.5102 567.604 37.1725 567.39 36.7384C567.178 36.3044 567.072 35.7972 567.072 35.2168C567.072 34.6316 567.178 34.1208 567.39 33.6843C567.604 33.2478 567.902 32.9089 568.282 32.6674C568.665 32.426 569.11 32.3053 569.617 32.3053C570.125 32.3053 570.568 32.426 570.949 32.6674C571.332 32.9089 571.629 33.2478 571.841 33.6843C572.056 34.1208 572.163 34.6316 572.163 35.2168C572.163 35.7972 572.056 36.3044 571.841 36.7384C571.629 37.1725 571.332 37.5102 570.949 37.7516C570.568 37.993 570.125 38.1137 569.617 38.1137ZM569.617 37.3383C570.003 37.3383 570.32 37.2395 570.568 37.042C570.817 36.8445 571.001 36.5848 571.121 36.2629C571.24 35.9411 571.3 35.5924 571.3 35.2168C571.3 34.8413 571.24 34.4914 571.121 34.1671C571.001 33.8428 570.817 33.5806 570.568 33.3807C570.32 33.1807 570.003 33.0808 569.617 33.0808C569.232 33.0808 568.915 33.1807 568.666 33.3807C568.418 33.5806 568.234 33.8428 568.114 34.1671C567.995 34.4914 567.935 34.8413 567.935 35.2168C567.935 35.5924 567.995 35.9411 568.114 36.2629C568.234 36.5848 568.418 36.8445 568.666 37.042C568.915 37.2395 569.232 37.3383 569.617 37.3383ZM574.344 34.617V37.9967H573.481V32.3785H574.315V33.2563H574.388C574.52 32.971 574.72 32.7418 574.988 32.5687C575.256 32.3931 575.602 32.3053 576.027 32.3053C576.407 32.3053 576.74 32.3834 577.025 32.5394C577.31 32.6931 577.532 32.9271 577.691 33.2417C577.849 33.5538 577.929 33.9489 577.929 34.4268V37.9967H577.065V34.4853C577.065 34.044 576.951 33.7001 576.722 33.4538C576.492 33.2051 576.178 33.0808 575.778 33.0808C575.502 33.0808 575.256 33.1405 575.039 33.26C574.824 33.3795 574.655 33.5538 574.531 33.783C574.406 34.0123 574.344 34.2902 574.344 34.617ZM581.861 38.1137C581.32 38.1137 580.853 37.9942 580.461 37.7553C580.07 37.5139 579.769 37.1774 579.557 36.7458C579.347 36.3117 579.243 35.8069 579.243 35.2315C579.243 34.656 579.347 34.1488 579.557 33.7099C579.769 33.2685 580.064 32.9247 580.442 32.6784C580.823 32.4297 581.267 32.3053 581.774 32.3053C582.066 32.3053 582.355 32.3541 582.641 32.4516C582.926 32.5492 583.186 32.7077 583.42 32.9271C583.654 33.1442 583.84 33.4319 583.979 33.7904C584.118 34.1488 584.188 34.5902 584.188 35.1144V35.4802H579.857V34.734H583.31C583.31 34.417 583.247 34.1342 583.12 33.8855C582.995 33.6367 582.817 33.4404 582.586 33.2966C582.356 33.1527 582.086 33.0808 581.774 33.0808C581.43 33.0808 581.132 33.1661 580.881 33.3368C580.633 33.5051 580.441 33.7245 580.307 33.9952C580.173 34.2658 580.106 34.556 580.106 34.8657V35.3632C580.106 35.7874 580.179 36.1471 580.325 36.4422C580.474 36.7348 580.68 36.9579 580.943 37.1115C581.207 37.2627 581.513 37.3383 581.861 37.3383C582.088 37.3383 582.293 37.3066 582.476 37.2432C582.661 37.1774 582.821 37.0798 582.955 36.9506C583.089 36.8189 583.193 36.6555 583.266 36.4605L584.1 36.6945C584.012 36.9774 583.865 37.2261 583.657 37.4407C583.45 37.6529 583.194 37.8187 582.889 37.9382C582.584 38.0552 582.242 38.1137 581.861 38.1137ZM586.364 30.5058V37.9967H585.501V30.5058H586.364Z" fill="#F5F5F5"/>
<path d="M604.496 37.9967V37.3255L608.612 31.1806H604.451V30.3603H609.716V31.0315L605.6 37.1764H609.761V37.9967H604.496ZM613.519 38.116C613.002 38.116 612.549 37.9929 612.158 37.7469C611.771 37.5008 611.467 37.1565 611.249 36.714C611.032 36.2715 610.924 35.7545 610.924 35.1629C610.924 34.5663 611.032 34.0455 611.249 33.6005C611.467 33.1556 611.771 32.8101 612.158 32.564C612.549 32.3179 613.002 32.1948 613.519 32.1948C614.036 32.1948 614.489 32.3179 614.877 32.564C615.267 32.8101 615.57 33.1556 615.786 33.6005C616.005 34.0455 616.115 34.5663 616.115 35.1629C616.115 35.7545 616.005 36.2715 615.786 36.714C615.57 37.1565 615.267 37.5008 614.877 37.7469C614.489 37.9929 614.036 38.116 613.519 38.116ZM613.519 37.3255C613.912 37.3255 614.235 37.2248 614.489 37.0235C614.742 36.8221 614.93 36.5574 615.052 36.2293C615.174 35.9011 615.235 35.5457 615.235 35.1629C615.235 34.7801 615.174 34.4233 615.052 34.0927C614.93 33.7621 614.742 33.4949 614.489 33.2911C614.235 33.0872 613.912 32.9853 613.519 32.9853C613.127 32.9853 612.804 33.0872 612.55 33.2911C612.296 33.4949 612.109 33.7621 611.987 34.0927C611.865 34.4233 611.804 34.7801 611.804 35.1629C611.804 35.5457 611.865 35.9011 611.987 36.2293C612.109 36.5574 612.296 36.8221 612.55 37.0235C612.804 37.2248 613.127 37.3255 613.519 37.3255ZM617.458 37.9967V32.2694H618.308V33.1345H618.368C618.472 32.8511 618.661 32.6211 618.934 32.4446C619.208 32.2682 619.516 32.1799 619.859 32.1799C619.924 32.1799 620.005 32.1812 620.102 32.1836C620.198 32.1861 620.272 32.1899 620.322 32.1948V33.0897C620.292 33.0823 620.223 33.0711 620.116 33.0562C620.012 33.0388 619.901 33.0301 619.785 33.0301C619.506 33.0301 619.258 33.0885 619.039 33.2053C618.823 33.3196 618.651 33.4787 618.524 33.6826C618.4 33.8839 618.338 34.1139 618.338 34.3724V37.9967H617.458ZM624.974 35.6551V32.2694H625.854V37.9967H624.974V37.0272H624.914C624.78 37.3181 624.571 37.5654 624.288 37.7692C624.005 37.9706 623.647 38.0712 623.214 38.0712C622.856 38.0712 622.538 37.9929 622.259 37.8363C621.981 37.6772 621.762 37.4386 621.603 37.1204C621.444 36.7998 621.365 36.3958 621.365 35.9086V32.2694H622.245V35.8489C622.245 36.2666 622.361 36.5997 622.595 36.8482C622.831 37.0968 623.132 37.2211 623.497 37.2211C623.716 37.2211 623.939 37.1652 624.165 37.0533C624.394 36.9415 624.585 36.7699 624.739 36.5388C624.896 36.3076 624.974 36.013 624.974 35.6551ZM628.346 34.5514V37.9967H627.466V32.2694H628.316V33.1643H628.39C628.525 32.8734 628.728 32.6398 629.002 32.4633C629.275 32.2843 629.628 32.1948 630.061 32.1948C630.449 32.1948 630.788 32.2744 631.079 32.4335C631.37 32.5901 631.596 32.8287 631.757 33.1494C631.919 33.4676 632 33.8703 632 34.3575V37.9967H631.12V34.4171C631.12 33.9672 631.003 33.6167 630.769 33.3656C630.536 33.1121 630.215 32.9853 629.807 32.9853C629.526 32.9853 629.275 33.0462 629.054 33.168C628.835 33.2898 628.663 33.4676 628.536 33.7012C628.409 33.9349 628.346 34.2183 628.346 34.5514ZM634.488 30.3603V37.9967H633.608V30.3603H634.488ZM639.709 35.6551V32.2694H640.589V37.9967H639.709V37.0272H639.649C639.515 37.3181 639.306 37.5654 639.023 37.7692C638.739 37.9706 638.381 38.0712 637.949 38.0712C637.591 38.0712 637.273 37.9929 636.994 37.8363C636.716 37.6772 636.497 37.4386 636.338 37.1204C636.179 36.7998 636.099 36.3958 636.099 35.9086V32.2694H636.979V35.8489C636.979 36.2666 637.096 36.5997 637.33 36.8482C637.566 37.0968 637.867 37.2211 638.232 37.2211C638.451 37.2211 638.674 37.1652 638.9 37.0533C639.128 36.9415 639.32 36.7699 639.474 36.5388C639.631 36.3076 639.709 36.013 639.709 35.6551Z" fill="#D4D4D4"/>
<path d="M32.3339 82.6997C32.2942 82.3467 32.1301 82.0733 31.8417 81.8794C31.5534 81.683 31.1905 81.5848 30.753 81.5848C30.4397 81.5848 30.1688 81.6345 29.9401 81.734C29.7114 81.8309 29.5337 81.9651 29.4069 82.1367C29.2826 82.3057 29.2205 82.4983 29.2205 82.7146C29.2205 82.8961 29.2627 83.0527 29.3472 83.1844C29.4342 83.3162 29.5473 83.4268 29.6866 83.5163C29.8282 83.6033 29.9799 83.6766 30.1415 83.7363C30.303 83.7934 30.4584 83.8407 30.6075 83.878L31.3533 84.0718C31.5969 84.1315 31.8467 84.2123 32.1027 84.3142C32.3588 84.4161 32.5962 84.5504 32.8149 84.7169C33.0337 84.8835 33.2102 85.0898 33.3444 85.3359C33.4811 85.582 33.5495 85.8765 33.5495 86.2196C33.5495 86.6521 33.4376 87.0362 33.2139 87.3717C32.9927 87.7073 32.6707 87.9721 32.2482 88.166C31.8281 88.3598 31.3197 88.4568 30.7231 88.4568C30.1514 88.4568 29.6567 88.3661 29.2391 88.1846C28.8215 88.0031 28.4946 87.7459 28.2585 87.4128C28.0223 87.0772 27.8918 86.6794 27.8669 86.2196H29.0228C29.0452 86.4955 29.1347 86.7254 29.2913 86.9094C29.4504 87.0908 29.653 87.2263 29.8991 87.3158C30.1477 87.4028 30.4199 87.4463 30.7157 87.4463C31.0413 87.4463 31.3309 87.3954 31.5845 87.2934C31.8405 87.189 32.0418 87.0449 32.1885 86.8609C32.3352 86.6745 32.4085 86.457 32.4085 86.2084C32.4085 85.9822 32.3439 85.797 32.2146 85.6528C32.0878 85.5086 31.9151 85.3893 31.6963 85.2949C31.4801 85.2004 31.2352 85.1171 30.9618 85.045L30.0594 84.7989C29.4479 84.6324 28.9632 84.3875 28.6052 84.0644C28.2498 83.7412 28.072 83.3137 28.072 82.7817C28.072 82.3417 28.1913 81.9577 28.43 81.6296C28.6686 81.3014 28.9918 81.0466 29.3994 80.8652C29.8071 80.6812 30.267 80.5892 30.7791 80.5892C31.2961 80.5892 31.7522 80.68 32.1475 80.8614C32.5452 81.0429 32.8584 81.2927 33.0871 81.6109C33.3158 81.9266 33.4351 82.2895 33.4451 82.6997H32.3339ZM41.8346 84.5118C41.8346 85.3272 41.6855 86.0282 41.3872 86.6148C41.0889 87.199 40.68 87.6489 40.1605 87.9646C39.6434 88.2778 39.0555 88.4344 38.3968 88.4344C37.7356 88.4344 37.1452 88.2778 36.6257 87.9646C36.1086 87.6489 35.7009 87.1977 35.4026 86.6111C35.1044 86.0244 34.9552 85.3247 34.9552 84.5118C34.9552 83.6965 35.1044 82.9967 35.4026 82.4126C35.7009 81.8259 36.1086 81.376 36.6257 81.0628C37.1452 80.7471 37.7356 80.5892 38.3968 80.5892C39.0555 80.5892 39.6434 80.7471 40.1605 81.0628C40.68 81.376 41.0889 81.8259 41.3872 82.4126C41.6855 82.9967 41.8346 83.6965 41.8346 84.5118ZM40.6937 84.5118C40.6937 83.8904 40.593 83.3671 40.3916 82.9421C40.1928 82.5145 39.9193 82.1913 39.5713 81.9726C39.2258 81.7514 38.8343 81.6407 38.3968 81.6407C37.9568 81.6407 37.564 81.7514 37.2185 81.9726C36.873 82.1913 36.5996 82.5145 36.3982 82.9421C36.1993 83.3671 36.0999 83.8904 36.0999 84.5118C36.0999 85.1333 36.1993 85.6578 36.3982 86.0853C36.5996 86.5104 36.873 86.8336 37.2185 87.0548C37.564 87.2736 37.9568 87.3829 38.3968 87.3829C38.8343 87.3829 39.2258 87.2736 39.5713 87.0548C39.9193 86.8336 40.1928 86.5104 40.3916 86.0853C40.593 85.6578 40.6937 85.1333 40.6937 84.5118ZM43.5461 88.33V80.6937H46.2681C46.8597 80.6937 47.3506 80.7956 47.7409 80.9994C48.1337 81.2032 48.427 81.4854 48.6209 81.8458C48.8148 82.2038 48.9117 82.6177 48.9117 83.0875C48.9117 83.5548 48.8135 83.9662 48.6171 84.3217C48.4233 84.6747 48.1299 84.9493 47.7372 85.1457C47.3469 85.3421 46.856 85.4403 46.2643 85.4403H44.2024V84.4484H46.1599C46.5328 84.4484 46.8361 84.395 47.0697 84.2881C47.3059 84.1812 47.4787 84.0259 47.588 83.822C47.6974 83.6182 47.7521 83.3733 47.7521 83.0875C47.7521 82.7991 47.6962 82.5493 47.5843 82.338C47.4749 82.1267 47.3022 81.9651 47.066 81.8533C46.8323 81.7389 46.5253 81.6818 46.145 81.6818H44.6983V88.33H43.5461ZM47.3158 84.8847L49.2025 88.33H47.89L46.0406 84.8847H47.3158ZM55.4994 80.6937H56.6553V85.7162C56.6553 86.2506 56.5298 86.7242 56.2787 87.1368C56.0276 87.547 55.6746 87.8701 55.2197 88.1063C54.7648 88.34 54.2316 88.4568 53.6201 88.4568C53.0111 88.4568 52.4791 88.34 52.0242 88.1063C51.5693 87.8701 51.2164 87.547 50.9653 87.1368C50.7142 86.7242 50.5887 86.2506 50.5887 85.7162V80.6937H51.7409V85.623C51.7409 85.9685 51.8167 86.2755 51.9683 86.544C52.1224 86.8124 52.3399 87.0237 52.6208 87.1779C52.9017 87.3295 53.2348 87.4053 53.6201 87.4053C54.0079 87.4053 54.3423 87.3295 54.6231 87.1779C54.9065 87.0237 55.1228 86.8124 55.2719 86.544C55.4236 86.2755 55.4994 85.9685 55.4994 85.623V80.6937ZM61.6592 80.6937H63.0575L65.4886 86.6297H65.5781L68.0092 80.6937H69.4074V88.33H68.3112V82.8041H68.2404L65.9882 88.3188H65.0784L62.8263 82.8004H62.7554V88.33H61.6592V80.6937ZM71.3575 88.33V80.6937H76.1452V81.6855H72.5097V84.0122H75.8954V85.0003H72.5097V87.3382H76.1899V88.33H71.3575ZM77.5826 81.6855V80.6937H83.4926V81.6855H81.11V88.33H79.9615V81.6855H77.5826ZM91.2371 80.6937V88.33H90.1781L86.2966 82.7295H86.2257V88.33H85.0736V80.6937H86.14L90.0253 86.3016H90.0961V80.6937H91.2371ZM94.345 80.6937V88.33H93.1928V80.6937H94.345Z" fill="#A1A1A1"/>
<rect x="25.33" y="99.33" width="621.33" height="34.66" rx="8" fill="#171717" fill-opacity="0.6"/>
<rect x="25.83" y="99.83" width="620.33" height="33.66" rx="7.5" stroke="white" stroke-opacity="0.1"/>
<path d="M44.2635 114.634C44.2085 114.169 43.9856 113.809 43.5946 113.553C43.2037 113.296 42.7243 113.168 42.1562 113.168C41.7409 113.168 41.3775 113.235 41.066 113.369C40.7575 113.504 40.5162 113.688 40.3422 113.924C40.1711 114.159 40.0856 114.426 40.0856 114.725C40.0856 114.976 40.1452 115.191 40.2643 115.371C40.3864 115.548 40.5422 115.696 40.7315 115.816C40.9209 115.932 41.1194 116.028 41.3271 116.104C41.5347 116.177 41.7256 116.237 41.8997 116.283L42.8525 116.539C43.0968 116.603 43.3687 116.692 43.6679 116.805C43.9703 116.918 44.2589 117.072 44.5337 117.268C44.8117 117.46 45.0407 117.707 45.2209 118.01C45.4011 118.312 45.4912 118.683 45.4912 119.123C45.4912 119.63 45.3583 120.088 45.0926 120.497C44.83 120.907 44.4452 121.232 43.9382 121.473C43.4343 121.714 42.822 121.835 42.1012 121.835C41.4294 121.835 40.8476 121.727 40.3559 121.51C39.8673 121.293 39.4825 120.991 39.2015 120.603C38.9236 120.215 38.7663 119.764 38.7297 119.251H39.9024C39.9329 119.606 40.052 119.899 40.2597 120.131C40.4704 120.36 40.7361 120.531 41.0568 120.644C41.3805 120.754 41.7287 120.809 42.1012 120.809C42.5349 120.809 42.9243 120.739 43.2694 120.598C43.6145 120.455 43.8878 120.256 44.0894 120.003C44.291 119.746 44.3917 119.447 44.3917 119.105C44.3917 118.793 44.3047 118.54 44.1306 118.344C43.9565 118.149 43.7275 117.99 43.4435 117.868C43.1595 117.746 42.8525 117.639 42.5227 117.547L41.3683 117.217C40.6353 117.007 40.0551 116.706 39.6275 116.315C39.2 115.924 38.9862 115.412 38.9862 114.78C38.9862 114.255 39.1282 113.797 39.4122 113.406C39.6993 113.012 40.0841 112.707 40.5666 112.49C41.0522 112.27 41.5943 112.16 42.1929 112.16C42.7976 112.16 43.3351 112.268 43.8054 112.485C44.2757 112.699 44.6483 112.992 44.9231 113.365C45.201 113.737 45.3476 114.16 45.3629 114.634H44.2635ZM50.071 121.817C49.4358 121.817 48.8784 121.665 48.3989 121.363C47.9225 121.061 47.5499 120.638 47.2812 120.094C47.0155 119.551 46.8826 118.915 46.8826 118.188C46.8826 117.456 47.0155 116.816 47.2812 116.269C47.5499 115.722 47.9225 115.298 48.3989 114.996C48.8784 114.693 49.4358 114.542 50.071 114.542C50.7062 114.542 51.262 114.693 51.7385 114.996C52.2179 115.298 52.5905 115.722 52.8562 116.269C53.125 116.816 53.2593 117.456 53.2593 118.188C53.2593 118.915 53.125 119.551 52.8562 120.094C52.5905 120.638 52.2179 121.061 51.7385 121.363C51.262 121.665 50.7062 121.817 50.071 121.817ZM50.071 120.845C50.5535 120.845 50.9505 120.722 51.262 120.474C51.5735 120.227 51.8041 119.902 51.9538 119.499C52.1034 119.096 52.1782 118.659 52.1782 118.188C52.1782 117.718 52.1034 117.28 51.9538 116.874C51.8041 116.468 51.5735 116.139 51.262 115.889C50.9505 115.638 50.5535 115.513 50.071 115.513C49.5885 115.513 49.1914 115.638 48.8799 115.889C48.5684 116.139 48.3379 116.468 48.1882 116.874C48.0386 117.28 47.9637 117.718 47.9637 118.188C47.9637 118.659 48.0386 119.096 48.1882 119.499C48.3379 119.902 48.5684 120.227 48.8799 120.474C49.1914 120.722 49.5885 120.845 50.071 120.845ZM54.9096 121.67V114.634H55.9541V115.696H56.0274C56.1557 115.348 56.3878 115.066 56.7237 114.849C57.0596 114.632 57.4383 114.524 57.8598 114.524C57.9392 114.524 58.0384 114.525 58.1575 114.528C58.2766 114.531 58.3667 114.536 58.4278 114.542V115.641C58.3912 115.632 58.3072 115.619 58.1759 115.6C58.0476 115.579 57.9117 115.568 57.7682 115.568C57.4261 115.568 57.1207 115.64 56.852 115.783C56.5863 115.924 56.3755 116.119 56.2198 116.37C56.0671 116.617 55.9907 116.9 55.9907 117.217V121.67H54.9096ZM64.1437 118.793V114.634H65.2248V121.67H64.1437V120.479H64.0704C63.9055 120.836 63.649 121.14 63.3008 121.391C62.9527 121.638 62.5129 121.762 61.9815 121.762C61.5417 121.762 61.1508 121.665 60.8088 121.473C60.4667 121.278 60.198 120.984 60.0025 120.593C59.8071 120.2 59.7093 119.703 59.7093 119.105V114.634H60.7904V119.031C60.7904 119.544 60.934 119.954 61.2211 120.259C61.5112 120.564 61.8807 120.717 62.3296 120.717C62.5984 120.717 62.8717 120.648 63.1496 120.511C63.4306 120.374 63.6658 120.163 63.8551 119.879C64.0475 119.595 64.1437 119.233 64.1437 118.793ZM68.2861 117.437V121.67H67.2049V114.634H68.2494V115.733H68.341C68.5059 115.376 68.7564 115.089 69.0923 114.872C69.4282 114.652 69.8619 114.542 70.3933 114.542C70.8697 114.542 71.2866 114.64 71.6439 114.835C72.0012 115.028 72.2791 115.321 72.4776 115.715C72.6761 116.106 72.7754 116.6 72.7754 117.199V121.67H71.6943V117.272C71.6943 116.72 71.5508 116.289 71.2637 115.98C70.9766 115.669 70.5826 115.513 70.0818 115.513C69.7367 115.513 69.4282 115.588 69.1564 115.738C68.8877 115.887 68.6754 116.106 68.5197 116.393C68.3639 116.68 68.2861 117.028 68.2861 117.437ZM79.1853 118.793V114.634H80.2664V121.67H79.1853V120.479H79.112C78.9471 120.836 78.6906 121.14 78.3424 121.391C77.9943 121.638 77.5545 121.762 77.0231 121.762C76.5833 121.762 76.1924 121.665 75.8504 121.473C75.5083 121.278 75.2396 120.984 75.0441 120.593C74.8487 120.2 74.7509 119.703 74.7509 119.105V114.634H75.832V119.031C75.832 119.544 75.9756 119.954 76.2627 120.259C76.5528 120.564 76.9223 120.717 77.3713 120.717C77.64 120.717 77.9133 120.648 78.1912 120.511C78.4722 120.374 78.7074 120.163 78.8967 119.879C79.0891 119.595 79.1853 119.233 79.1853 118.793ZM82.045 121.67V120.845L86.0396 115.715V115.641H82.1733V114.634H87.4322V115.495L83.5475 120.589V120.662H87.5605V121.67H82.045ZM93.66 118.793V114.634H94.7411V121.67H93.66V120.479H93.5867C93.4218 120.836 93.1653 121.14 92.8171 121.391C92.469 121.638 92.0292 121.762 91.4978 121.762C91.058 121.762 90.6671 121.665 90.3251 121.473C89.983 121.278 89.7143 120.984 89.5188 120.593C89.3234 120.2 89.2256 119.703 89.2256 119.105V114.634H90.3068V119.031C90.3068 119.544 90.4503 119.954 90.7374 120.259C91.0275 120.564 91.397 120.717 91.846 120.717C92.1147 120.717 92.388 120.648 92.666 120.511C92.9469 120.374 93.1821 120.163 93.3714 119.879C93.5638 119.595 93.66 119.233 93.66 118.793ZM100.496 121.67V112.288H101.577V115.751H101.669C101.748 115.629 101.858 115.473 101.999 115.284C102.142 115.092 102.347 114.921 102.612 114.771C102.881 114.618 103.245 114.542 103.703 114.542C104.295 114.542 104.817 114.69 105.269 114.986C105.721 115.283 106.074 115.703 106.328 116.246C106.581 116.79 106.708 117.431 106.708 118.17C106.708 118.915 106.581 119.561 106.328 120.108C106.074 120.652 105.723 121.073 105.274 121.372C104.825 121.668 104.307 121.817 103.721 121.817C103.269 121.817 102.907 121.742 102.635 121.592C102.363 121.439 102.154 121.267 102.008 121.074C101.861 120.879 101.748 120.717 101.669 120.589H101.54V121.67H100.496ZM101.559 118.152C101.559 118.683 101.637 119.152 101.792 119.558C101.948 119.961 102.176 120.277 102.475 120.506C102.774 120.732 103.141 120.845 103.574 120.845C104.026 120.845 104.404 120.726 104.706 120.488C105.011 120.247 105.24 119.923 105.393 119.517C105.549 119.108 105.627 118.653 105.627 118.152C105.627 117.657 105.55 117.211 105.398 116.814C105.248 116.414 105.02 116.098 104.715 115.866C104.413 115.631 104.032 115.513 103.574 115.513C103.135 115.513 102.765 115.625 102.466 115.848C102.166 116.067 101.94 116.376 101.788 116.773C101.635 117.167 101.559 117.627 101.559 118.152ZM112.796 118.793V114.634H113.877V121.67H112.796V120.479H112.723C112.558 120.836 112.301 121.14 111.953 121.391C111.605 121.638 111.165 121.762 110.634 121.762C110.194 121.762 109.803 121.665 109.461 121.473C109.119 121.278 108.85 120.984 108.655 120.593C108.459 120.2 108.361 119.703 108.361 119.105V114.634H109.443V119.031C109.443 119.544 109.586 119.954 109.873 120.259C110.163 120.564 110.533 120.717 110.982 120.717C111.251 120.717 111.524 120.648 111.802 120.511C112.083 120.374 112.318 120.163 112.507 119.879C112.7 119.595 112.796 119.233 112.796 118.793ZM115.857 121.67V114.634H116.902V115.696H116.975C117.103 115.348 117.335 115.066 117.671 114.849C118.007 114.632 118.386 114.524 118.807 114.524C118.887 114.524 118.986 114.525 119.105 114.528C119.224 114.531 119.314 114.536 119.375 114.542V115.641C119.339 115.632 119.255 115.619 119.123 115.6C118.995 115.579 118.859 115.568 118.716 115.568C118.374 115.568 118.068 115.64 117.799 115.783C117.534 115.924 117.323 116.119 117.167 116.37C117.015 116.617 116.938 116.9 116.938 117.217V121.67H115.857ZM122.727 121.835C122.282 121.835 121.877 121.751 121.513 121.583C121.15 121.412 120.861 121.166 120.648 120.845C120.434 120.522 120.327 120.131 120.327 119.673C120.327 119.27 120.406 118.943 120.565 118.692C120.724 118.439 120.936 118.24 121.202 118.097C121.468 117.953 121.761 117.846 122.081 117.776C122.405 117.703 122.73 117.645 123.057 117.602C123.485 117.547 123.831 117.506 124.097 117.478C124.366 117.448 124.561 117.397 124.683 117.327C124.809 117.257 124.871 117.135 124.871 116.961V116.924C124.871 116.472 124.748 116.121 124.5 115.871C124.256 115.62 123.885 115.495 123.387 115.495C122.871 115.495 122.466 115.608 122.173 115.834C121.88 116.06 121.674 116.301 121.555 116.558L120.529 116.191C120.712 115.764 120.956 115.431 121.261 115.193C121.57 114.951 121.906 114.783 122.269 114.689C122.636 114.591 122.996 114.542 123.35 114.542C123.576 114.542 123.836 114.57 124.129 114.624C124.425 114.676 124.711 114.785 124.986 114.95C125.264 115.115 125.494 115.364 125.678 115.696C125.861 116.029 125.952 116.475 125.952 117.034V121.67H124.871V120.717H124.816C124.743 120.87 124.621 121.033 124.45 121.207C124.279 121.381 124.051 121.53 123.767 121.652C123.483 121.774 123.137 121.835 122.727 121.835ZM122.892 120.864C123.32 120.864 123.68 120.78 123.973 120.612C124.27 120.444 124.493 120.227 124.642 119.961C124.795 119.696 124.871 119.416 124.871 119.123V118.134C124.825 118.188 124.725 118.239 124.569 118.285C124.416 118.327 124.239 118.366 124.038 118.399C123.839 118.43 123.645 118.457 123.456 118.482C123.269 118.503 123.118 118.521 123.002 118.537C122.721 118.573 122.459 118.633 122.214 118.715C121.973 118.795 121.778 118.915 121.628 119.077C121.481 119.236 121.408 119.453 121.408 119.728C121.408 120.103 121.547 120.387 121.825 120.58C122.106 120.769 122.462 120.864 122.892 120.864ZM128.37 124.309C128.187 124.309 128.023 124.293 127.88 124.263C127.736 124.235 127.637 124.208 127.582 124.18L127.857 123.228C128.12 123.295 128.352 123.319 128.553 123.301C128.755 123.283 128.933 123.192 129.089 123.031C129.248 122.872 129.393 122.614 129.524 122.256L129.726 121.707L127.124 114.634H128.297L130.239 120.241H130.312L132.255 114.634H133.427L130.441 122.696C130.306 123.06 130.14 123.36 129.941 123.599C129.743 123.84 129.512 124.019 129.25 124.135C128.99 124.251 128.697 124.309 128.37 124.309ZM136.711 121.835C136.265 121.835 135.86 121.751 135.497 121.583C135.133 121.412 134.845 121.166 134.631 120.845C134.417 120.522 134.31 120.131 134.31 119.673C134.31 119.27 134.39 118.943 134.549 118.692C134.707 118.439 134.92 118.24 135.185 118.097C135.451 117.953 135.744 117.846 136.065 117.776C136.389 117.703 136.714 117.645 137.041 117.602C137.468 117.547 137.815 117.506 138.08 117.478C138.349 117.448 138.545 117.397 138.667 117.327C138.792 117.257 138.855 117.135 138.855 116.961V116.924C138.855 116.472 138.731 116.121 138.484 115.871C138.239 115.62 137.868 115.495 137.37 115.495C136.854 115.495 136.45 115.608 136.156 115.834C135.863 116.06 135.657 116.301 135.538 116.558L134.512 116.191C134.695 115.764 134.939 115.431 135.245 115.193C135.553 114.951 135.889 114.783 136.253 114.689C136.619 114.591 136.98 114.542 137.334 114.542C137.56 114.542 137.819 114.57 138.113 114.624C138.409 114.676 138.694 114.785 138.969 114.95C139.247 115.115 139.478 115.364 139.661 115.696C139.844 116.029 139.936 116.475 139.936 117.034V121.67H138.855V120.717H138.8C138.726 120.87 138.604 121.033 138.433 121.207C138.262 121.381 138.035 121.53 137.751 121.652C137.467 121.774 137.12 121.835 136.711 121.835ZM136.876 120.864C137.303 120.864 137.664 120.78 137.957 120.612C138.253 120.444 138.476 120.227 138.626 119.961C138.778 119.696 138.855 119.416 138.855 119.123V118.134C138.809 118.188 138.708 118.239 138.552 118.285C138.4 118.327 138.223 118.366 138.021 118.399C137.822 118.43 137.629 118.457 137.439 118.482C137.253 118.503 137.102 118.521 136.986 118.537C136.705 118.573 136.442 118.633 136.198 118.715C135.956 118.795 135.761 118.915 135.611 119.077C135.465 119.236 135.391 119.453 135.391 119.728C135.391 120.103 135.53 120.387 135.808 120.58C136.089 120.769 136.445 120.864 136.876 120.864ZM146.233 124.309C146.05 124.309 145.887 124.293 145.743 124.263C145.6 124.235 145.501 124.208 145.446 124.18L145.72 123.228C145.983 123.295 146.215 123.319 146.417 123.301C146.618 123.283 146.797 123.192 146.953 123.031C147.111 122.872 147.257 122.614 147.388 122.256L147.589 121.707L144.987 114.634H146.16L148.103 120.241H148.176L150.118 114.634H151.291L148.304 122.696C148.17 123.06 148.003 123.36 147.805 123.599C147.606 123.84 147.376 124.019 147.113 124.135C146.853 124.251 146.56 124.309 146.233 124.309ZM154.574 121.835C154.128 121.835 153.724 121.751 153.36 121.583C152.997 121.412 152.708 121.166 152.495 120.845C152.281 120.522 152.174 120.131 152.174 119.673C152.174 119.27 152.253 118.943 152.412 118.692C152.571 118.439 152.783 118.24 153.049 118.097C153.315 117.953 153.608 117.846 153.928 117.776C154.252 117.703 154.577 117.645 154.904 117.602C155.332 117.547 155.678 117.506 155.944 117.478C156.213 117.448 156.408 117.397 156.53 117.327C156.656 117.257 156.718 117.135 156.718 116.961V116.924C156.718 116.472 156.594 116.121 156.347 115.871C156.103 115.62 155.732 115.495 155.234 115.495C154.718 115.495 154.313 115.608 154.02 115.834C153.727 116.06 153.521 116.301 153.402 116.558L152.375 116.191C152.559 115.764 152.803 115.431 153.108 115.193C153.417 114.951 153.753 114.783 154.116 114.689C154.483 114.591 154.843 114.542 155.197 114.542C155.423 114.542 155.683 114.57 155.976 114.624C156.272 114.676 156.558 114.785 156.833 114.95C157.111 115.115 157.341 115.364 157.524 115.696C157.708 116.029 157.799 116.475 157.799 117.034V121.67H156.718V120.717H156.663C156.59 120.87 156.468 121.033 156.297 121.207C156.126 121.381 155.898 121.53 155.614 121.652C155.33 121.774 154.984 121.835 154.574 121.835ZM154.739 120.864C155.167 120.864 155.527 120.78 155.82 120.612C156.117 120.444 156.339 120.227 156.489 119.961C156.642 119.696 156.718 119.416 156.718 119.123V118.134C156.672 118.188 156.572 118.239 156.416 118.285C156.263 118.327 156.086 118.366 155.884 118.399C155.686 118.43 155.492 118.457 155.303 118.482C155.116 118.503 154.965 118.521 154.849 118.537C154.568 118.573 154.306 118.633 154.061 118.715C153.82 118.795 153.624 118.915 153.475 119.077C153.328 119.236 153.255 119.453 153.255 119.728C153.255 120.103 153.394 120.387 153.672 120.58C153.953 120.769 154.309 120.864 154.739 120.864ZM159.571 121.67V120.845L163.566 115.715V115.641H159.699V114.634H164.958V115.495L161.074 120.589V120.662H165.086V121.67H159.571ZM166.752 121.67V114.634H167.833V121.67H166.752ZM170.894 117.437V121.67H169.813V114.634H170.857V115.733H170.949C171.114 115.376 171.364 115.089 171.7 114.872C172.036 114.652 172.47 114.542 173.001 114.542C173.478 114.542 173.894 114.64 174.252 114.835C174.609 115.028 174.887 115.321 175.086 115.715C175.284 116.106 175.383 116.6 175.383 117.199V121.67H174.302V117.272C174.302 116.72 174.159 116.289 173.872 115.98C173.585 115.669 173.191 115.513 172.69 115.513C172.345 115.513 172.036 115.588 171.764 115.738C171.496 115.887 171.283 116.106 171.128 116.393C170.972 116.68 170.894 117.028 170.894 117.437ZM178.147 121.743C177.921 121.743 177.727 121.662 177.565 121.501C177.403 121.339 177.322 121.145 177.322 120.919C177.322 120.693 177.403 120.499 177.565 120.337C177.727 120.175 177.921 120.094 178.147 120.094C178.373 120.094 178.567 120.175 178.729 120.337C178.89 120.499 178.971 120.693 178.971 120.919C178.971 121.068 178.933 121.206 178.857 121.331C178.784 121.456 178.684 121.557 178.559 121.633C178.437 121.707 178.299 121.743 178.147 121.743Z" fill="#737373"/>
<path d="M28.814 158H27.591L30.3391 150.364H31.6702L34.4183 158H33.1953L31.0363 151.751H30.9767L28.814 158ZM29.0191 155.01H32.9864V155.979H29.0191V155.01ZM41.7796 152.847H40.6163C40.5715 152.598 40.4883 152.38 40.3665 152.191C40.2447 152.002 40.0955 151.841 39.919 151.71C39.7425 151.578 39.5449 151.479 39.3262 151.411C39.1099 151.344 38.88 151.311 38.6364 151.311C38.1964 151.311 37.8024 151.421 37.4544 151.643C37.1088 151.864 36.8354 152.188 36.634 152.616C36.4352 153.043 36.3358 153.565 36.3358 154.182C36.3358 154.803 36.4352 155.328 36.634 155.755C36.8354 156.183 37.1101 156.506 37.4581 156.725C37.8061 156.944 38.1976 157.053 38.6326 157.053C38.8737 157.053 39.1024 157.021 39.3187 156.956C39.5375 156.889 39.7351 156.791 39.9116 156.661C40.0881 156.532 40.2372 156.374 40.359 156.188C40.4833 155.999 40.5691 155.783 40.6163 155.539L41.7796 155.543C41.7175 155.918 41.5969 156.264 41.418 156.579C41.2415 156.893 41.014 157.164 40.7356 157.392C40.4597 157.618 40.144 157.794 39.7885 157.918C39.4331 158.042 39.0453 158.104 38.6252 158.104C37.9639 158.104 37.3748 157.948 36.8578 157.635C36.3407 157.319 35.9331 156.868 35.6348 156.281C35.3389 155.694 35.191 154.995 35.191 154.182C35.191 153.366 35.3402 152.667 35.6385 152.083C35.9368 151.496 36.3445 151.046 36.8615 150.733C37.3785 150.417 37.9664 150.259 38.6252 150.259C39.0304 150.259 39.4082 150.318 39.7587 150.434C40.1117 150.549 40.4286 150.718 40.7095 150.942C40.9904 151.163 41.2228 151.434 41.4068 151.754C41.5907 152.073 41.715 152.437 41.7796 152.847ZM38.2337 158.011H38.9645L38.9048 158.317C39.1211 158.352 39.31 158.439 39.4716 158.578C39.6332 158.717 39.7139 158.927 39.7139 159.208C39.7164 159.544 39.571 159.816 39.2777 160.025C38.9869 160.233 38.5655 160.338 38.0137 160.338L37.9913 159.715C38.2498 159.715 38.4586 159.678 38.6177 159.603C38.7793 159.529 38.8613 159.408 38.8638 159.242C38.8663 159.075 38.8041 158.958 38.6774 158.891C38.5531 158.824 38.3542 158.777 38.0808 158.749L38.2337 158.011ZM44.5855 150.364V158H43.4333V150.364H44.5855ZM46.5384 158V150.364H47.6906V154.01H47.7838L50.9867 150.364H52.4372L49.3573 153.801L52.4484 158H51.0613L48.5929 154.588L47.6906 155.625V158H46.5384ZM53.7861 158V150.364H54.9382V157.008H58.3985V158H53.7861ZM61.0225 158H59.7995L62.5476 150.364H63.8787L66.6268 158H65.4037L63.2448 151.751H63.1852L61.0225 158ZM61.2276 155.01H65.1949V155.979H61.2276V155.01ZM68.0045 150.364H69.4028L71.8339 156.3H71.9234L74.3545 150.364H75.7527V158H74.6565V152.474H74.5857L72.3335 157.989H71.4237L69.1716 152.47H69.1008V158H68.0045V150.364ZM78.3479 158H77.1249L79.873 150.364H81.2041L83.9521 158H82.7291L80.5702 151.751H80.5106L78.3479 158ZM78.553 155.01H82.5203V155.979H78.553V155.01Z" fill="#A1A1A1"/>
<rect x="25.33" y="169" width="621.33" height="34.66" rx="8" fill="#171717" fill-opacity="0.6"/>
<rect x="25.83" y="169.5" width="620.33" height="33.66" rx="7.5" stroke="white" stroke-opacity="0.1"/>
<g clip-path="url(#clip0_1_69)">
<path d="M39.5294 191.33H38.3291L41.8007 181.875H42.9825L46.4541 191.33H45.2538L42.4285 183.371H42.3547L39.5294 191.33ZM39.9726 187.637H44.8106V188.652H39.9726V187.637ZM50.6597 191.478C49.9949 191.478 49.4225 191.321 48.9424 191.007C48.4623 190.693 48.0929 190.261 47.8344 189.71C47.5759 189.159 47.4466 188.529 47.4466 187.821C47.4466 187.101 47.579 186.466 47.8437 185.915C48.1114 185.361 48.4838 184.928 48.9608 184.618C49.441 184.304 50.0011 184.147 50.6412 184.147C51.1398 184.147 51.5892 184.239 51.9892 184.424C52.3893 184.608 52.7171 184.867 52.9726 185.199C53.228 185.532 53.3865 185.919 53.4481 186.363H52.3586C52.2755 186.04 52.0908 185.753 51.8046 185.504C51.5214 185.252 51.1398 185.125 50.6597 185.125C50.235 185.125 49.8626 185.236 49.5425 185.458C49.2255 185.676 48.9778 185.986 48.7993 186.386C48.6238 186.783 48.5361 187.249 48.5361 187.785C48.5361 188.332 48.6223 188.809 48.7946 189.216C48.9701 189.622 49.2163 189.937 49.5333 190.162C49.8534 190.387 50.2288 190.499 50.6597 190.499C50.9428 190.499 51.1998 190.45 51.4307 190.351C51.6615 190.253 51.8569 190.111 52.0169 189.927C52.177 189.742 52.2909 189.52 52.3586 189.262H53.4481C53.3865 189.68 53.2342 190.057 52.991 190.393C52.751 190.725 52.4324 190.99 52.0354 191.187C51.6415 191.381 51.1829 191.478 50.6597 191.478ZM50.1427 191.293H51.0475L50.9736 191.662C51.2137 191.699 51.4337 191.799 51.6338 191.962C51.8338 192.129 51.9338 192.392 51.9338 192.752C51.9338 193.149 51.7692 193.472 51.4399 193.721C51.1137 193.974 50.632 194.1 49.9949 194.1L49.958 193.38C50.2442 193.38 50.4812 193.334 50.6689 193.241C50.8597 193.152 50.9552 193.001 50.9552 192.789C50.9552 192.576 50.8767 192.432 50.7197 192.355C50.5628 192.278 50.3088 192.226 49.958 192.198L50.1427 191.293ZM55.0407 191.33V184.239H56.1302V191.33H55.0407ZM59.1413 188.745L59.1229 187.397H59.3444L62.4467 184.239H63.7947L60.4893 187.581H60.397L59.1413 188.745ZM58.1257 191.33V181.875H59.2152V191.33H58.1257ZM62.6314 191.33L59.8615 187.821L60.6371 187.064L64.0163 191.33H62.6314ZM66.2865 181.875V191.33H65.197V181.875H66.2865ZM70.3686 191.496C69.9193 191.496 69.5115 191.412 69.1452 191.242C68.779 191.07 68.4882 190.822 68.2727 190.499C68.0573 190.173 67.9496 189.779 67.9496 189.317C67.9496 188.911 68.0296 188.582 68.1896 188.329C68.3497 188.074 68.5636 187.874 68.8313 187.729C69.0991 187.584 69.3945 187.477 69.7177 187.406C70.0439 187.332 70.3717 187.274 70.701 187.231C71.1319 187.175 71.4812 187.134 71.7489 187.106C72.0198 187.075 72.2167 187.024 72.3398 186.954C72.466 186.883 72.5291 186.76 72.5291 186.584V186.547C72.5291 186.092 72.4045 185.738 72.1552 185.486C71.909 185.233 71.535 185.107 71.0334 185.107C70.5132 185.107 70.1055 185.221 69.81 185.449C69.5145 185.676 69.3068 185.919 69.1868 186.178L68.1527 185.809C68.3373 185.378 68.5836 185.042 68.8913 184.802C69.2022 184.559 69.5407 184.39 69.9069 184.294C70.2763 184.196 70.6394 184.147 70.9964 184.147C71.2242 184.147 71.4858 184.174 71.7812 184.23C72.0798 184.282 72.3675 184.391 72.6445 184.558C72.9246 184.724 73.1569 184.975 73.3416 185.31C73.5263 185.646 73.6186 186.095 73.6186 186.658V191.33H72.5291V190.37H72.4737C72.3998 190.524 72.2767 190.688 72.1044 190.864C71.932 191.039 71.7028 191.188 71.4165 191.312C71.1303 191.435 70.781 191.496 70.3686 191.496ZM70.5348 190.517C70.9657 190.517 71.3288 190.433 71.6243 190.264C71.9228 190.094 72.1475 189.876 72.2983 189.608C72.4522 189.34 72.5291 189.059 72.5291 188.763V187.766C72.4829 187.821 72.3814 187.872 72.2244 187.918C72.0705 187.961 71.892 188 71.6889 188.034C71.4889 188.065 71.2934 188.092 71.1026 188.117C70.9149 188.138 70.7625 188.157 70.6456 188.172C70.3624 188.209 70.0978 188.269 69.8516 188.352C69.6084 188.432 69.4114 188.554 69.2606 188.717C69.1129 188.877 69.0391 189.096 69.0391 189.373C69.0391 189.751 69.1791 190.037 69.4592 190.231C69.7423 190.422 70.1008 190.517 70.5348 190.517ZM75.6071 191.33V184.239H76.6597V185.347H76.752C76.8998 184.968 77.1383 184.675 77.4676 184.465C77.7969 184.253 78.1924 184.147 78.654 184.147C79.1218 184.147 79.5111 184.253 79.822 184.465C80.1359 184.675 80.3806 184.968 80.556 185.347H80.6299C80.8115 184.981 81.0838 184.69 81.447 184.475C81.8102 184.256 82.2456 184.147 82.7535 184.147C83.3874 184.147 83.906 184.345 84.3092 184.742C84.7124 185.136 84.914 185.75 84.914 186.584V191.33H83.8245V186.584C83.8245 186.061 83.6814 185.687 83.3951 185.462C83.1089 185.238 82.7719 185.125 82.3841 185.125C81.8856 185.125 81.4993 185.276 81.2254 185.578C80.9515 185.876 80.8145 186.255 80.8145 186.714V191.33H79.7066V186.473C79.7066 186.07 79.5758 185.746 79.3142 185.499C79.0526 185.25 78.7156 185.125 78.3032 185.125C78.02 185.125 77.7553 185.201 77.5091 185.352C77.266 185.502 77.069 185.712 76.9182 185.979C76.7705 186.244 76.6966 186.55 76.6966 186.898V191.33H75.6071ZM88.9926 191.496C88.5433 191.496 88.1355 191.412 87.7693 191.242C87.403 191.07 87.1122 190.822 86.8967 190.499C86.6813 190.173 86.5736 189.779 86.5736 189.317C86.5736 188.911 86.6536 188.582 86.8136 188.329C86.9737 188.074 87.1876 187.874 87.4553 187.729C87.7231 187.584 88.0185 187.477 88.3417 187.406C88.6679 187.332 88.9957 187.274 89.325 187.231C89.7559 187.175 90.1052 187.134 90.3729 187.106C90.6438 187.075 90.8408 187.024 90.9639 186.954C91.09 186.883 91.1531 186.76 91.1531 186.584V186.547C91.1531 186.092 91.0285 185.738 90.7792 185.486C90.533 185.233 90.1591 185.107 89.6574 185.107C89.1373 185.107 88.7295 185.221 88.434 185.449C88.1386 185.676 87.9308 185.919 87.8108 186.178L86.7767 185.809C86.9614 185.378 87.2076 185.042 87.5153 184.802C87.8262 184.559 88.1647 184.39 88.531 184.294C88.9003 184.196 89.2635 184.147 89.6205 184.147C89.8482 184.147 90.1098 184.174 90.4053 184.23C90.7038 184.282 90.9916 184.391 91.2685 184.558C91.5486 184.724 91.781 184.975 91.9656 185.31C92.1503 185.646 92.2426 186.095 92.2426 186.658V191.33H91.1531V190.37H91.0977C91.0239 190.524 90.9008 190.688 90.7284 190.864C90.5561 191.039 90.3268 191.188 90.0406 191.312C89.7543 191.435 89.405 191.496 88.9926 191.496ZM89.1588 190.517C89.5897 190.517 89.9528 190.433 90.2483 190.264C90.5468 190.094 90.7715 189.876 90.9223 189.608C91.0762 189.34 91.1531 189.059 91.1531 188.763V187.766C91.107 187.821 91.0054 187.872 90.8484 187.918C90.6946 187.961 90.5161 188 90.3129 188.034C90.1129 188.065 89.9175 188.092 89.7266 188.117C89.5389 188.138 89.3866 188.157 89.2696 188.172C88.9865 188.209 88.7218 188.269 88.4756 188.352C88.2324 188.432 88.0355 188.554 87.8847 188.717C87.7369 188.877 87.6631 189.096 87.6631 189.373C87.6631 189.751 87.8031 190.037 88.0832 190.231C88.3663 190.422 88.7249 190.517 89.1588 190.517ZM95.3207 187.064V191.33H94.2312V184.239H95.2837V185.347H95.3761C95.5422 184.987 95.7946 184.698 96.1332 184.479C96.4717 184.258 96.9087 184.147 97.4442 184.147C97.9243 184.147 98.3444 184.245 98.7045 184.442C99.0646 184.636 99.3447 184.932 99.5447 185.329C99.7448 185.723 99.8448 186.221 99.8448 186.824V191.33H98.7553V186.898C98.7553 186.341 98.6107 185.907 98.3214 185.596C98.0321 185.282 97.6351 185.125 97.1303 185.125C96.7825 185.125 96.4717 185.201 96.1978 185.352C95.927 185.502 95.7131 185.723 95.5561 186.012C95.3991 186.301 95.3207 186.652 95.3207 187.064ZM101.836 191.33V184.239H102.925V191.33H101.836ZM104.717 191.33V190.499L108.743 185.329V185.255H104.847V184.239H110.146V185.107L106.232 190.24V190.314H110.276V191.33H104.717ZM111.954 191.33V184.239H113.043V191.33H111.954ZM118.843 191.33V181.875H119.932V185.365H120.025C120.105 185.242 120.215 185.085 120.357 184.895C120.502 184.701 120.708 184.528 120.976 184.378C121.246 184.224 121.613 184.147 122.074 184.147C122.671 184.147 123.198 184.296 123.653 184.595C124.109 184.893 124.464 185.316 124.72 185.864C124.975 186.412 125.103 187.058 125.103 187.803C125.103 188.554 124.975 189.205 124.72 189.756C124.464 190.304 124.11 190.728 123.658 191.03C123.205 191.328 122.684 191.478 122.093 191.478C121.637 191.478 121.273 191.402 120.999 191.252C120.725 191.098 120.514 190.924 120.366 190.73C120.218 190.533 120.105 190.37 120.025 190.24H119.895V191.33H118.843ZM119.914 187.785C119.914 188.32 119.992 188.792 120.149 189.202C120.306 189.608 120.535 189.927 120.837 190.157C121.139 190.385 121.508 190.499 121.945 190.499C122.401 190.499 122.781 190.379 123.085 190.139C123.393 189.896 123.624 189.57 123.778 189.16C123.935 188.748 124.013 188.289 124.013 187.785C124.013 187.286 123.936 186.837 123.782 186.437C123.632 186.033 123.402 185.715 123.095 185.481C122.79 185.244 122.407 185.125 121.945 185.125C121.502 185.125 121.129 185.238 120.828 185.462C120.526 185.684 120.298 185.995 120.145 186.395C119.991 186.792 119.914 187.255 119.914 187.785ZM131.238 188.431V184.239H132.327V191.33H131.238V190.13H131.164C130.998 190.49 130.739 190.796 130.389 191.048C130.038 191.298 129.595 191.422 129.059 191.422C128.616 191.422 128.222 191.325 127.877 191.131C127.533 190.935 127.262 190.639 127.065 190.245C126.868 189.848 126.769 189.348 126.769 188.745V184.239H127.859V188.671C127.859 189.188 128.003 189.6 128.293 189.908C128.585 190.216 128.957 190.37 129.41 190.37C129.681 190.37 129.956 190.301 130.236 190.162C130.519 190.024 130.756 189.811 130.947 189.525C131.141 189.239 131.238 188.874 131.238 188.431ZM134.323 191.33V184.239H135.376V185.31H135.449C135.579 184.959 135.813 184.675 136.151 184.456C136.49 184.238 136.871 184.128 137.296 184.128C137.376 184.128 137.476 184.13 137.596 184.133C137.716 184.136 137.807 184.141 137.868 184.147V185.255C137.831 185.245 137.747 185.232 137.615 185.213C137.485 185.192 137.348 185.181 137.204 185.181C136.859 185.181 136.551 185.253 136.28 185.398C136.013 185.539 135.8 185.736 135.643 185.989C135.489 186.238 135.412 186.523 135.412 186.843V191.33H134.323ZM141.247 191.496C140.797 191.496 140.389 191.412 140.023 191.242C139.657 191.07 139.366 190.822 139.151 190.499C138.935 190.173 138.827 189.779 138.827 189.317C138.827 188.911 138.908 188.582 139.068 188.329C139.228 188.074 139.441 187.874 139.709 187.729C139.977 187.584 140.272 187.477 140.596 187.406C140.922 187.332 141.25 187.274 141.579 187.231C142.01 187.175 142.359 187.134 142.627 187.106C142.898 187.075 143.095 187.024 143.218 186.954C143.344 186.883 143.407 186.76 143.407 186.584V186.547C143.407 186.092 143.282 185.738 143.033 185.486C142.787 185.233 142.413 185.107 141.911 185.107C141.391 185.107 140.983 185.221 140.688 185.449C140.392 185.676 140.185 185.919 140.065 186.178L139.031 185.809C139.215 185.378 139.461 185.042 139.769 184.802C140.08 184.559 140.419 184.39 140.785 184.294C141.154 184.196 141.517 184.147 141.874 184.147C142.102 184.147 142.364 184.174 142.659 184.23C142.958 184.282 143.245 184.391 143.522 184.558C143.803 184.724 144.035 184.975 144.22 185.31C144.404 185.646 144.497 186.095 144.497 186.658V191.33H143.407V190.37H143.352C143.278 190.524 143.155 190.688 142.982 190.864C142.81 191.039 142.581 191.188 142.294 191.312C142.008 191.435 141.659 191.496 141.247 191.496ZM141.413 190.517C141.844 190.517 142.207 190.433 142.502 190.264C142.801 190.094 143.025 189.876 143.176 189.608C143.33 189.34 143.407 189.059 143.407 188.763V187.766C143.361 187.821 143.259 187.872 143.102 187.918C142.948 187.961 142.77 188 142.567 188.034C142.367 188.065 142.171 188.092 141.981 188.117C141.793 188.138 141.64 188.157 141.524 188.172C141.24 188.209 140.976 188.269 140.729 188.352C140.486 188.432 140.289 188.554 140.139 188.717C139.991 188.877 139.917 189.096 139.917 189.373C139.917 189.751 140.057 190.037 140.337 190.231C140.62 190.422 140.979 190.517 141.413 190.517ZM146.933 193.989C146.748 193.989 146.584 193.974 146.439 193.943C146.294 193.915 146.194 193.888 146.139 193.86L146.416 192.9C146.681 192.967 146.914 192.992 147.118 192.973C147.321 192.955 147.501 192.864 147.658 192.701C147.818 192.541 147.964 192.281 148.096 191.921L148.299 191.367L145.677 184.239H146.859L148.816 189.89H148.89L150.848 184.239H152.029L149.02 192.364C148.884 192.73 148.716 193.033 148.516 193.274C148.316 193.517 148.084 193.697 147.819 193.814C147.558 193.931 147.262 193.989 146.933 193.989ZM155.338 191.496C154.889 191.496 154.481 191.412 154.115 191.242C153.749 191.07 153.458 190.822 153.242 190.499C153.027 190.173 152.919 189.779 152.919 189.317C152.919 188.911 152.999 188.582 153.159 188.329C153.319 188.074 153.533 187.874 153.801 187.729C154.069 187.584 154.364 187.477 154.687 187.406C155.014 187.332 155.341 187.274 155.671 187.231C156.102 187.175 156.451 187.134 156.719 187.106C156.989 187.075 157.186 187.024 157.31 186.954C157.436 186.883 157.499 186.76 157.499 186.584V186.547C157.499 186.092 157.374 185.738 157.125 185.486C156.879 185.233 156.505 185.107 156.003 185.107C155.483 185.107 155.075 185.221 154.78 185.449C154.484 185.676 154.277 185.919 154.157 186.178L153.122 185.809C153.307 185.378 153.553 185.042 153.861 184.802C154.172 184.559 154.51 184.39 154.877 184.294C155.246 184.196 155.609 184.147 155.966 184.147C156.194 184.147 156.456 184.174 156.751 184.23C157.049 184.282 157.337 184.391 157.614 184.558C157.894 184.724 158.127 184.975 158.311 185.31C158.496 185.646 158.588 186.095 158.588 186.658V191.33H157.499V190.37H157.443C157.37 190.524 157.246 190.688 157.074 190.864C156.902 191.039 156.672 191.188 156.386 191.312C156.1 191.435 155.751 191.496 155.338 191.496ZM155.505 190.517C155.935 190.517 156.299 190.433 156.594 190.264C156.893 190.094 157.117 189.876 157.268 189.608C157.422 189.34 157.499 189.059 157.499 188.763V187.766C157.453 187.821 157.351 187.872 157.194 187.918C157.04 187.961 156.862 188 156.659 188.034C156.459 188.065 156.263 188.092 156.072 188.117C155.885 188.138 155.732 188.157 155.615 188.172C155.332 188.209 155.067 188.269 154.821 188.352C154.578 188.432 154.381 188.554 154.23 188.717C154.083 188.877 154.009 189.096 154.009 189.373C154.009 189.751 154.149 190.037 154.429 190.231C154.712 190.422 155.071 190.517 155.505 190.517ZM164.935 193.989C164.75 193.989 164.586 193.974 164.441 193.943C164.296 193.915 164.196 193.888 164.141 193.86L164.418 192.9C164.682 192.967 164.916 192.992 165.119 192.973C165.323 192.955 165.503 192.864 165.66 192.701C165.82 192.541 165.966 192.281 166.098 191.921L166.301 191.367L163.679 184.239H164.861L166.818 189.89H166.892L168.85 184.239H170.031L167.021 192.364C166.886 192.73 166.718 193.033 166.518 193.274C166.318 193.517 166.086 193.697 165.821 193.814C165.56 193.931 165.264 193.989 164.935 193.989ZM173.34 191.496C172.891 191.496 172.483 191.412 172.117 191.242C171.751 191.07 171.46 190.822 171.244 190.499C171.029 190.173 170.921 189.779 170.921 189.317C170.921 188.911 171.001 188.582 171.161 188.329C171.321 188.074 171.535 187.874 171.803 187.729C172.071 187.584 172.366 187.477 172.689 187.406C173.016 187.332 173.343 187.274 173.673 187.231C174.104 187.175 174.453 187.134 174.721 187.106C174.991 187.075 175.188 187.024 175.312 186.954C175.438 186.883 175.501 186.76 175.501 186.584V186.547C175.501 186.092 175.376 185.738 175.127 185.486C174.881 185.233 174.507 185.107 174.005 185.107C173.485 185.107 173.077 185.221 172.782 185.449C172.486 185.676 172.278 185.919 172.158 186.178L171.124 185.809C171.309 185.378 171.555 185.042 171.863 184.802C172.174 184.559 172.512 184.39 172.879 184.294C173.248 184.196 173.611 184.147 173.968 184.147C174.196 184.147 174.457 184.174 174.753 184.23C175.051 184.282 175.339 184.391 175.616 184.558C175.896 184.724 176.129 184.975 176.313 185.31C176.498 185.646 176.59 186.095 176.59 186.658V191.33H175.501V190.37H175.445C175.372 190.524 175.248 190.688 175.076 190.864C174.904 191.039 174.674 191.188 174.388 191.312C174.102 191.435 173.753 191.496 173.34 191.496ZM173.506 190.517C173.937 190.517 174.301 190.433 174.596 190.264C174.894 190.094 175.119 189.876 175.27 189.608C175.424 189.34 175.501 189.059 175.501 188.763V187.766C175.455 187.821 175.353 187.872 175.196 187.918C175.042 187.961 174.864 188 174.661 188.034C174.461 188.065 174.265 188.092 174.074 188.117C173.887 188.138 173.734 188.157 173.617 188.172C173.334 188.209 173.069 188.269 172.823 188.352C172.58 188.432 172.383 188.554 172.232 188.717C172.085 188.877 172.011 189.096 172.011 189.373C172.011 189.751 172.151 190.037 172.431 190.231C172.714 190.422 173.073 190.517 173.506 190.517ZM178.376 191.33V190.499L182.401 185.329V185.255H178.505V184.239H183.805V185.107L179.89 190.24V190.314H183.934V191.33H178.376ZM185.612 191.33V184.239H186.702V191.33H185.612ZM189.786 187.064V191.33H188.697V184.239H189.75V185.347H189.842C190.008 184.987 190.26 184.698 190.599 184.479C190.938 184.258 191.375 184.147 191.91 184.147C192.39 184.147 192.81 184.245 193.17 184.442C193.53 184.636 193.811 184.932 194.011 185.329C194.211 185.723 194.311 186.221 194.311 186.824V191.33H193.221V186.898C193.221 186.341 193.076 185.907 192.787 185.596C192.498 185.282 192.101 185.125 191.596 185.125C191.248 185.125 190.938 185.201 190.664 185.352C190.393 185.502 190.179 185.723 190.022 186.012C189.865 186.301 189.786 186.652 189.786 187.064ZM197.096 191.404C196.868 191.404 196.672 191.322 196.509 191.159C196.346 190.996 196.265 190.801 196.265 190.573C196.265 190.345 196.346 190.15 196.509 189.987C196.672 189.823 196.868 189.742 197.096 189.742C197.323 189.742 197.519 189.823 197.682 189.987C197.845 190.15 197.926 190.345 197.926 190.573C197.926 190.724 197.888 190.862 197.811 190.988C197.737 191.115 197.637 191.216 197.511 191.293C197.388 191.367 197.249 191.404 197.096 191.404Z" fill="#737373"/>
</g>
<defs>
<clipPath id="clip0_1_69">
<rect width="596" height="16" fill="white" transform="translate(37.9967 178.33)"/>
</clipPath>
</defs>
</svg>
