<svg width="672" height="302" viewBox="0 0 672 302" fill="none" xmlns="http://www.w3.org/2000/svg">
<rect x="0.5" y="0.5" width="671" height="300.323" rx="11.5" stroke="white" stroke-opacity="0.2"/>
<rect x="8.32996" y="8.34" width="656.247" height="284.653" rx="12" fill="#171717"/>
<rect x="8.82996" y="8.84" width="655.247" height="283.653" rx="11.5" stroke="white" stroke-opacity="0.05"/>
<rect x="21.33" y="22.5067" width="24" height="24" rx="6" fill="white" fill-opacity="0.05"/>
<rect x="21.83" y="23.0067" width="23" height="23" rx="5.5" stroke="white" stroke-opacity="0.1"/>
<path d="M31.2058 28.6371L33.2878 32.0995H33.3617L35.453 28.6371H37.4057L34.4927 33.3644L37.4519 38.0917H35.4668L33.3617 34.6524H33.2878L31.1827 38.0917H29.2069L32.1937 33.3644L29.2438 28.6371H31.2058Z" fill="#A1A1A1"/>
<g clip-path="url(#clip0_1_105)">
<path d="M59.1673 39.5067H57.6531L61.0555 30.0521H62.7035L66.1059 39.5067H64.5917L61.9187 31.7695H61.8449L59.1673 39.5067ZM59.4212 35.8043H64.3332V37.0045H59.4212V35.8043ZM70.233 39.6498C69.5467 39.6498 68.9558 39.4944 68.4603 39.1835C67.9679 38.8696 67.5893 38.4372 67.3246 37.8863C67.06 37.3354 66.9276 36.7045 66.9276 35.9935C66.9276 35.2734 67.063 34.6378 67.3339 34.0869C67.6047 33.5329 67.9863 33.1005 68.4787 32.7897C68.9712 32.4789 69.5513 32.3234 70.2192 32.3234C70.7577 32.3234 71.2379 32.4235 71.6595 32.6235C72.0811 32.8205 72.4212 33.0975 72.6797 33.4545C72.9413 33.8115 73.0968 34.2285 73.146 34.7055H71.8026C71.7287 34.3731 71.5595 34.0869 71.2948 33.8469C71.0332 33.6068 70.6823 33.4868 70.2422 33.4868C69.8575 33.4868 69.5205 33.5883 69.2312 33.7915C68.945 33.9915 68.7219 34.2777 68.5618 34.6501C68.4018 35.0195 68.3218 35.4565 68.3218 35.9612C68.3218 36.4783 68.4003 36.9245 68.5572 37.3C68.7142 37.6755 68.9358 37.9663 69.222 38.1725C69.5113 38.3787 69.8514 38.4818 70.2422 38.4818C70.5038 38.4818 70.7408 38.4341 70.9532 38.3387C71.1686 38.2402 71.3487 38.1002 71.4933 37.9186C71.641 37.737 71.7441 37.5185 71.8026 37.2631H73.146C73.0968 37.7216 72.9475 38.131 72.6982 38.491C72.4489 38.8511 72.115 39.1343 71.6964 39.3405C71.281 39.5467 70.7931 39.6498 70.233 39.6498ZM69.7344 39.4697H70.6393L70.5654 39.8483C70.8332 39.8914 71.0671 39.9991 71.2671 40.1714C71.4671 40.3438 71.5672 40.6039 71.5672 40.9516C71.5702 41.3671 71.3902 41.7041 71.027 41.9626C70.667 42.2212 70.1453 42.3504 69.4621 42.3504L69.4344 41.5795C69.7544 41.5795 70.013 41.5333 70.2099 41.441C70.41 41.3486 70.5115 41.1994 70.5146 40.9932C70.5177 40.787 70.4408 40.6423 70.2838 40.5592C70.1299 40.4761 69.8837 40.4177 69.5452 40.3838L69.7344 39.4697ZM81.6634 29.6089L78.6165 40.9285H77.3839L80.4308 29.6089H81.6634ZM86.3872 39.5067V30.0521H87.8137V34.567H87.9291L91.8947 30.0521H93.6905L89.8773 34.3085L93.7043 39.5067H91.987L88.9309 35.2826L87.8137 36.566V39.5067H86.3872ZM96.9728 39.6636C96.5235 39.6636 96.1172 39.5805 95.7541 39.4143C95.3909 39.2451 95.1031 39.0004 94.8908 38.6803C94.6815 38.3602 94.5768 37.9678 94.5768 37.5031C94.5768 37.103 94.6538 36.7737 94.8077 36.5152C94.9616 36.2567 95.1693 36.052 95.4309 35.9012C95.6925 35.7504 95.9849 35.6365 96.308 35.5596C96.6312 35.4826 96.9605 35.4242 97.296 35.3842C97.7207 35.3349 98.0654 35.2949 98.33 35.2641C98.5947 35.2303 98.7871 35.1764 98.9071 35.1025C99.0271 35.0287 99.0871 34.9087 99.0871 34.7425V34.7101C99.0871 34.307 98.9733 33.9946 98.7455 33.773C98.5209 33.5514 98.1854 33.4406 97.7391 33.4406C97.2744 33.4406 96.9082 33.5437 96.6404 33.7499C96.3757 33.953 96.1926 34.1793 96.0911 34.4285L94.7938 34.1331C94.9477 33.7022 95.1724 33.3544 95.4678 33.0898C95.7664 32.822 96.1095 32.6281 96.4973 32.5081C96.8851 32.385 97.2929 32.3234 97.7207 32.3234C98.0038 32.3234 98.3039 32.3573 98.6209 32.425C98.941 32.4896 99.2395 32.6097 99.5165 32.7851C99.7965 32.9605 100.026 33.2113 100.204 33.5376C100.383 33.8607 100.472 34.2808 100.472 34.7979V39.5067H99.1241V38.5372H99.0687C98.9794 38.7157 98.8456 38.8911 98.667 39.0635C98.4885 39.2358 98.2593 39.3789 97.9792 39.4928C97.6991 39.6067 97.3637 39.6636 96.9728 39.6636ZM97.2729 38.5557C97.6545 38.5557 97.9807 38.4803 98.2516 38.3295C98.5255 38.1787 98.7332 37.9817 98.8748 37.7386C99.0194 37.4923 99.0918 37.2292 99.0918 36.9491V36.0351C99.0425 36.0843 98.9471 36.1305 98.8055 36.1736C98.667 36.2136 98.5085 36.249 98.33 36.2798C98.1515 36.3074 97.9777 36.3336 97.8084 36.3582C97.6391 36.3798 97.4975 36.3982 97.3837 36.4136C97.1159 36.4475 96.8712 36.5044 96.6496 36.5844C96.4311 36.6645 96.2557 36.7799 96.1234 36.9307C95.9941 37.0784 95.9295 37.2754 95.9295 37.5216C95.9295 37.8632 96.0557 38.1217 96.308 38.2972C96.5604 38.4695 96.882 38.5557 97.2729 38.5557ZM102.311 42.1658V32.4158H103.659V33.5653H103.774C103.854 33.4175 103.969 33.2467 104.12 33.0528C104.271 32.8589 104.48 32.6897 104.748 32.545C105.016 32.3973 105.37 32.3234 105.81 32.3234C106.382 32.3234 106.893 32.4681 107.343 32.7574C107.792 33.0467 108.144 33.4637 108.4 34.0084C108.658 34.5532 108.788 35.2087 108.788 35.9751C108.788 36.7414 108.66 37.3985 108.404 37.9463C108.149 38.491 107.798 38.9111 107.352 39.2066C106.906 39.499 106.396 39.6452 105.824 39.6452C105.393 39.6452 105.04 39.5728 104.767 39.4282C104.496 39.2835 104.283 39.1143 104.129 38.9204C103.976 38.7265 103.857 38.5541 103.774 38.4033H103.691V42.1658H102.311ZM103.663 35.9612C103.663 36.4598 103.736 36.8968 103.88 37.2723C104.025 37.6478 104.234 37.9417 104.508 38.154C104.782 38.3633 105.117 38.468 105.514 38.468C105.927 38.468 106.272 38.3587 106.549 38.1402C106.826 37.9186 107.035 37.6185 107.176 37.24C107.321 36.8614 107.393 36.4352 107.393 35.9612C107.393 35.4934 107.323 35.0733 107.181 34.7009C107.042 34.3285 106.833 34.0346 106.553 33.8192C106.276 33.6037 105.93 33.496 105.514 33.496C105.114 33.496 104.776 33.5991 104.499 33.8053C104.225 34.0115 104.017 34.2993 103.876 34.6686C103.734 35.0379 103.663 35.4688 103.663 35.9612ZM112.398 39.6636C111.948 39.6636 111.542 39.5805 111.179 39.4143C110.816 39.2451 110.528 39.0004 110.316 38.6803C110.106 38.3602 110.002 37.9678 110.002 37.5031C110.002 37.103 110.079 36.7737 110.232 36.5152C110.386 36.2567 110.594 36.052 110.856 35.9012C111.117 35.7504 111.41 35.6365 111.733 35.5596C112.056 35.4826 112.385 35.4242 112.721 35.3842C113.145 35.3349 113.49 35.2949 113.755 35.2641C114.02 35.2303 114.212 35.1764 114.332 35.1025C114.452 35.0287 114.512 34.9087 114.512 34.7425V34.7101C114.512 34.307 114.398 33.9946 114.17 33.773C113.946 33.5514 113.61 33.4406 113.164 33.4406C112.699 33.4406 112.333 33.5437 112.065 33.7499C111.801 33.953 111.617 34.1793 111.516 34.4285L110.219 34.1331C110.373 33.7022 110.597 33.3544 110.893 33.0898C111.191 32.822 111.534 32.6281 111.922 32.5081C112.31 32.385 112.718 32.3234 113.145 32.3234C113.429 32.3234 113.729 32.3573 114.046 32.425C114.366 32.4896 114.664 32.6097 114.941 32.7851C115.221 32.9605 115.451 33.2113 115.629 33.5376C115.808 33.8607 115.897 34.2808 115.897 34.7979V39.5067H114.549V38.5372H114.493C114.404 38.7157 114.27 38.8911 114.092 39.0635C113.913 39.2358 113.684 39.3789 113.404 39.4928C113.124 39.6067 112.788 39.6636 112.398 39.6636ZM112.698 38.5557C113.079 38.5557 113.406 38.4803 113.676 38.3295C113.95 38.1787 114.158 37.9817 114.3 37.7386C114.444 37.4923 114.517 37.2292 114.517 36.9491V36.0351C114.467 36.0843 114.372 36.1305 114.23 36.1736C114.092 36.2136 113.933 36.249 113.755 36.2798C113.576 36.3074 113.402 36.3336 113.233 36.3582C113.064 36.3798 112.922 36.3982 112.808 36.4136C112.541 36.4475 112.296 36.5044 112.074 36.5844C111.856 36.6645 111.681 36.7799 111.548 36.9307C111.419 37.0784 111.354 37.2754 111.354 37.5216C111.354 37.8632 111.48 38.1217 111.733 38.2972C111.985 38.4695 112.307 38.5557 112.698 38.5557ZM121.045 32.4158V33.5237H117.172V32.4158H121.045ZM118.211 30.7169H119.591V37.4246C119.591 37.6924 119.631 37.894 119.711 38.0294C119.791 38.1617 119.894 38.2525 120.021 38.3018C120.15 38.3479 120.29 38.371 120.441 38.371C120.551 38.371 120.648 38.3633 120.732 38.3479C120.815 38.3325 120.879 38.3202 120.925 38.311L121.175 39.4513C121.095 39.482 120.981 39.5128 120.833 39.5436C120.685 39.5775 120.501 39.5959 120.279 39.599C119.916 39.6052 119.577 39.5405 119.263 39.4051C118.95 39.2697 118.696 39.0604 118.502 38.7773C118.308 38.4941 118.211 38.1387 118.211 37.7109V30.7169ZM126.414 34.7794C126.414 33.6222 126.567 32.5573 126.871 31.5848C127.176 30.6123 127.621 29.7151 128.206 28.8934H129.47C129.243 29.1981 129.03 29.572 128.833 30.0152C128.636 30.4584 128.464 30.9446 128.316 31.474C128.169 32.0003 128.053 32.5466 127.97 33.1128C127.887 33.6761 127.845 34.2316 127.845 34.7794C127.845 35.5119 127.918 36.2536 128.062 37.0045C128.207 37.7555 128.403 38.4526 128.649 39.0958C128.895 39.739 129.169 40.2638 129.47 40.67H128.206C127.621 39.8483 127.176 38.9512 126.871 37.9786C126.567 37.0061 126.414 35.9397 126.414 34.7794ZM136.193 32.5358C136.144 32.0988 135.941 31.7602 135.584 31.5202C135.227 31.277 134.778 31.1555 134.236 31.1555C133.848 31.1555 133.513 31.217 133.229 31.3401C132.946 31.4601 132.726 31.6263 132.569 31.8387C132.415 32.048 132.338 32.2865 132.338 32.5543C132.338 32.7789 132.391 32.9728 132.495 33.1359C132.603 33.299 132.743 33.436 132.916 33.5468C133.091 33.6545 133.279 33.7453 133.479 33.8192C133.679 33.89 133.871 33.9484 134.056 33.9946L134.979 34.2347C135.281 34.3085 135.59 34.4085 135.907 34.5347C136.224 34.6609 136.518 34.8271 136.789 35.0333C137.06 35.2395 137.278 35.4949 137.444 35.7996C137.614 36.1043 137.698 36.469 137.698 36.8937C137.698 37.4293 137.56 37.9048 137.283 38.3202C137.009 38.7357 136.61 39.0635 136.087 39.3035C135.567 39.5436 134.938 39.6636 134.199 39.6636C133.491 39.6636 132.879 39.5513 132.362 39.3266C131.845 39.102 131.44 38.7834 131.147 38.371C130.855 37.9555 130.693 37.4631 130.663 36.8937H132.094C132.122 37.2354 132.232 37.52 132.426 37.7478C132.623 37.9725 132.874 38.1402 133.179 38.251C133.486 38.3587 133.823 38.4126 134.19 38.4126C134.593 38.4126 134.951 38.3495 135.265 38.2233C135.582 38.094 135.832 37.9155 136.013 37.6878C136.195 37.457 136.286 37.1877 136.286 36.8799C136.286 36.5998 136.206 36.3705 136.046 36.192C135.889 36.0135 135.675 35.8658 135.404 35.7489C135.136 35.6319 134.833 35.5288 134.494 35.4396L133.377 35.1349C132.62 34.9287 132.02 34.6255 131.577 34.2254C131.137 33.8253 130.917 33.296 130.917 32.6373C130.917 32.0926 131.064 31.6171 131.36 31.2109C131.655 30.8046 132.055 30.4891 132.56 30.2645C133.065 30.0367 133.634 29.9229 134.268 29.9229C134.908 29.9229 135.473 30.0352 135.962 30.2599C136.455 30.4845 136.843 30.7938 137.126 31.1878C137.409 31.5786 137.557 32.028 137.569 32.5358H136.193ZM140.829 39.5067L138.743 32.4158H140.169L141.559 37.6231H141.628L143.022 32.4158H144.449L145.834 37.6001H145.903L147.283 32.4158H148.71L146.628 39.5067H145.22L143.779 34.387H143.673L142.233 39.5067H140.829ZM150.02 39.5067V32.4158H151.4V39.5067H150.02ZM150.717 31.3217C150.477 31.3217 150.27 31.2416 150.098 31.0816C149.929 30.9185 149.844 30.7246 149.844 30.4999C149.844 30.2722 149.929 30.0783 150.098 29.9182C150.27 29.7551 150.477 29.6736 150.717 29.6736C150.957 29.6736 151.161 29.7551 151.331 29.9182C151.503 30.0783 151.589 30.2722 151.589 30.4999C151.589 30.7246 151.503 30.9185 151.331 31.0816C151.161 31.2416 150.957 31.3217 150.717 31.3217ZM156.567 32.4158V33.5237H152.694V32.4158H156.567ZM153.732 30.7169H155.113V37.4246C155.113 37.6924 155.153 37.894 155.233 38.0294C155.313 38.1617 155.416 38.2525 155.542 38.3018C155.671 38.3479 155.811 38.371 155.962 38.371C156.073 38.371 156.17 38.3633 156.253 38.3479C156.336 38.3325 156.401 38.3202 156.447 38.311L156.696 39.4513C156.616 39.482 156.502 39.5128 156.355 39.5436C156.207 39.5775 156.022 39.5959 155.801 39.599C155.437 39.6052 155.099 39.5405 154.785 39.4051C154.471 39.2697 154.217 39.0604 154.023 38.7773C153.829 38.4941 153.732 38.1387 153.732 37.7109V30.7169ZM161.004 39.6498C160.318 39.6498 159.727 39.4944 159.232 39.1835C158.739 38.8696 158.361 38.4372 158.096 37.8863C157.831 37.3354 157.699 36.7045 157.699 35.9935C157.699 35.2734 157.835 34.6378 158.105 34.0869C158.376 33.5329 158.758 33.1005 159.25 32.7897C159.743 32.4789 160.323 32.3234 160.991 32.3234C161.529 32.3234 162.009 32.4235 162.431 32.6235C162.853 32.8205 163.193 33.0975 163.451 33.4545C163.713 33.8115 163.868 34.2285 163.917 34.7055H162.574C162.5 34.3731 162.331 34.0869 162.066 33.8469C161.805 33.6068 161.454 33.4868 161.014 33.4868C160.629 33.4868 160.292 33.5883 160.003 33.7915C159.716 33.9915 159.493 34.2777 159.333 34.6501C159.173 35.0195 159.093 35.4565 159.093 35.9612C159.093 36.4783 159.172 36.9245 159.329 37.3C159.486 37.6755 159.707 37.9663 159.993 38.1725C160.283 38.3787 160.623 38.4818 161.014 38.4818C161.275 38.4818 161.512 38.4341 161.725 38.3387C161.94 38.2402 162.12 38.1002 162.265 37.9186C162.413 37.737 162.516 37.5185 162.574 37.2631H163.917C163.868 37.7216 163.719 38.131 163.47 38.491C163.22 38.8511 162.886 39.1343 162.468 39.3405C162.052 39.5467 161.565 39.6498 161.004 39.6498ZM166.774 35.2964V39.5067H165.394V30.0521H166.755V33.5699H166.843C167.009 33.1882 167.263 32.8851 167.605 32.6604C167.947 32.4358 168.393 32.3234 168.944 32.3234C169.43 32.3234 169.855 32.4235 170.218 32.6235C170.584 32.8235 170.867 33.1221 171.067 33.5191C171.27 33.913 171.372 34.4055 171.372 34.9964V39.5067H169.992V35.1626C169.992 34.6424 169.858 34.2393 169.59 33.953C169.322 33.6637 168.95 33.5191 168.473 33.5191C168.147 33.5191 167.854 33.5883 167.596 33.7268C167.34 33.8653 167.139 34.0685 166.991 34.3362C166.846 34.6009 166.774 34.921 166.774 35.2964ZM175.868 35.5827C175.868 36.7429 175.716 37.8093 175.411 38.7819C175.107 39.7544 174.662 40.6516 174.077 41.4733H172.812C173.04 41.1686 173.252 40.7947 173.449 40.3515C173.646 39.9083 173.819 39.4236 173.966 38.8973C174.114 38.3679 174.23 37.8201 174.313 37.2538C174.396 36.6875 174.437 36.1305 174.437 35.5827C174.437 34.8533 174.365 34.1131 174.22 33.3621C174.076 32.6112 173.88 31.9141 173.634 31.2709C173.388 30.6276 173.114 30.1029 172.812 29.6967H174.077C174.662 30.5184 175.107 31.4155 175.411 32.3881C175.716 33.3606 175.868 34.4255 175.868 35.5827Z" fill="#E5E5E5"/>
</g>
<g opacity="0.3">
<rect x="446.41" y="19.84" width="63.3333" height="29.3333" rx="7.5" fill="white" fill-opacity="0.03"/>
<rect x="446.41" y="19.84" width="63.3333" height="29.3333" rx="7.5" stroke="#525252"/>
<path d="M457.827 29.6317V36.1317" stroke="#737373" stroke-width="1.08333" stroke-linecap="round" stroke-linejoin="round"/>
<path d="M464.327 32.8817C465.224 32.8817 465.952 32.1541 465.952 31.2567C465.952 30.3592 465.224 29.6317 464.327 29.6317C463.429 29.6317 462.702 30.3592 462.702 31.2567C462.702 32.1541 463.429 32.8817 464.327 32.8817Z" stroke="#737373" stroke-width="1.08333" stroke-linecap="round" stroke-linejoin="round"/>
<path d="M457.827 39.3817C458.724 39.3817 459.452 38.6541 459.452 37.7567C459.452 36.8592 458.724 36.1317 457.827 36.1317C456.929 36.1317 456.202 36.8592 456.202 37.7567C456.202 38.6541 456.929 39.3817 457.827 39.3817Z" stroke="#737373" stroke-width="1.08333" stroke-linecap="round" stroke-linejoin="round"/>
<path d="M464.327 32.8817C464.327 34.1746 463.813 35.4146 462.899 36.3288C461.985 37.2431 460.745 37.7567 459.452 37.7567" stroke="#737373" stroke-width="1.08333" stroke-linecap="round" stroke-linejoin="round"/>
<path d="M474.732 38.0067V30.3703H475.884V34.017H475.977L479.18 30.3703H480.631L477.551 33.8082L480.642 38.0067H479.255L476.786 34.5949L475.884 35.6315V38.0067H474.732ZM483.607 38.1223C483.07 38.1223 482.601 37.9992 482.201 37.7531C481.801 37.507 481.49 37.1627 481.269 36.7203C481.048 36.2778 480.937 35.7608 480.937 35.1691C480.937 34.575 481.048 34.0555 481.269 33.6105C481.49 33.1656 481.801 32.8201 482.201 32.574C482.601 32.3279 483.07 32.2048 483.607 32.2048C484.144 32.2048 484.613 32.3279 485.013 32.574C485.413 32.8201 485.724 33.1656 485.945 33.6105C486.166 34.0555 486.277 34.575 486.277 35.1691C486.277 35.7608 486.166 36.2778 485.945 36.7203C485.724 37.1627 485.413 37.507 485.013 37.7531C484.613 37.9992 484.144 38.1223 483.607 38.1223ZM483.611 37.1864C483.959 37.1864 484.247 37.0944 484.476 36.9104C484.704 36.7265 484.874 36.4816 484.983 36.1759C485.095 35.8701 485.151 35.5333 485.151 35.1654C485.151 34.8 485.095 34.4644 484.983 34.1587C484.874 33.8504 484.704 33.6031 484.476 33.4166C484.247 33.2302 483.959 33.137 483.611 33.137C483.26 33.137 482.969 33.2302 482.738 33.4166C482.51 33.6031 482.339 33.8504 482.227 34.1587C482.118 34.4644 482.063 34.8 482.063 35.1654C482.063 35.5333 482.118 35.8701 482.227 36.1759C482.339 36.4816 482.51 36.7265 482.738 36.9104C482.969 37.0944 483.26 37.1864 483.611 37.1864ZM491.813 33.6777L490.802 33.8566C490.76 33.7274 490.693 33.6043 490.601 33.4875C490.512 33.3707 490.39 33.275 490.236 33.2004C490.082 33.1258 489.889 33.0885 489.658 33.0885C489.342 33.0885 489.079 33.1594 488.867 33.3011C488.656 33.4403 488.55 33.6205 488.55 33.8417C488.55 34.0331 488.621 34.1872 488.763 34.3041C488.905 34.4209 489.133 34.5166 489.449 34.5912L490.359 34.8C490.886 34.9218 491.278 35.1095 491.537 35.363C491.796 35.6166 491.925 35.9459 491.925 36.3511C491.925 36.6942 491.825 36.9999 491.626 37.2684C491.43 37.5344 491.155 37.7432 490.802 37.8948C490.452 38.0464 490.046 38.1223 489.583 38.1223C488.942 38.1223 488.419 37.9855 488.013 37.7121C487.608 37.4362 487.36 37.0447 487.268 36.5376L488.345 36.3735C488.412 36.6544 488.55 36.8669 488.759 37.0111C488.968 37.1528 489.24 37.2236 489.576 37.2236C489.941 37.2236 490.233 37.1478 490.452 36.9962C490.671 36.8421 490.78 36.6544 490.78 36.4332C490.78 36.2542 490.713 36.1038 490.579 35.982C490.447 35.8602 490.244 35.7682 489.971 35.7061L489.001 35.4935C488.467 35.3717 488.072 35.1778 487.816 34.9119C487.562 34.6459 487.435 34.309 487.435 33.9014C487.435 33.5633 487.53 33.2675 487.719 33.0139C487.908 32.7604 488.169 32.5628 488.502 32.4211C488.835 32.2769 489.217 32.2048 489.647 32.2048C490.266 32.2048 490.753 32.3391 491.108 32.6075C491.464 32.8735 491.699 33.2302 491.813 33.6777ZM489.248 37.9768H489.978L489.919 38.2826C490.135 38.3174 490.324 38.4044 490.486 38.5436C490.647 38.6828 490.728 38.8929 490.728 39.1737C490.73 39.5093 490.585 39.7815 490.292 39.9903C490.001 40.1991 489.579 40.3035 489.028 40.3035L489.005 39.6809C489.264 39.6809 489.473 39.6436 489.632 39.569C489.793 39.4944 489.875 39.3739 489.878 39.2073C489.88 39.0408 489.818 38.9239 489.691 38.8568C489.567 38.7897 489.368 38.7425 489.095 38.7151L489.248 37.9768ZM496.779 35.6315V32.2794H497.897V38.0067H496.801V37.0148H496.741C496.61 37.3206 496.398 37.5754 496.107 37.7792C495.819 37.9806 495.46 38.0812 495.03 38.0812C494.662 38.0812 494.336 38.0005 494.053 37.8389C493.772 37.6748 493.551 37.4324 493.389 37.1118C493.23 36.7911 493.151 36.3946 493.151 35.9223V32.2794H494.265V35.7881C494.265 36.1784 494.374 36.4891 494.59 36.7203C494.806 36.9514 495.087 37.067 495.433 37.067C495.641 37.067 495.849 37.0148 496.055 36.9104C496.264 36.806 496.437 36.6482 496.574 36.4369C496.713 36.2256 496.781 35.9571 496.779 35.6315ZM500.51 30.3703V38.0067H499.395V30.3703H500.51Z" fill="#737373"/>
</g>
<rect x="518.243" y="24.5067" width="1" height="20" fill="white" fill-opacity="0.1"/>
<rect x="527.243" y="19.34" width="124.333" height="30.3333" rx="8" fill="white" fill-opacity="0.05"/>
<rect x="527.743" y="19.84" width="123.333" height="29.3333" rx="7.5" stroke="white" stroke-opacity="0.15"/>
<rect x="529.91" y="22.0067" width="65" height="25" rx="8" fill="white" fill-opacity="0.1"/>
<path d="M545.592 34.2612C545.592 35.0513 545.45 35.734 545.164 36.3095C544.879 36.885 544.488 37.3288 543.99 37.6409C543.493 37.953 542.925 38.1091 542.286 38.1091C541.647 38.1091 541.079 37.953 540.581 37.6409C540.084 37.3288 539.693 36.885 539.407 36.3095C539.122 35.734 538.979 35.0513 538.979 34.2612C538.979 33.4712 539.122 32.7884 539.407 32.2129C539.693 31.6374 540.084 31.1936 540.581 30.8815C541.079 30.5694 541.647 30.4133 542.286 30.4133C542.925 30.4133 543.493 30.5694 543.99 30.8815C544.488 31.1936 544.879 31.6374 545.164 32.2129C545.45 32.7884 545.592 33.4712 545.592 34.2612ZM544.715 34.2612C544.715 33.6126 544.606 33.0652 544.389 32.6189C544.174 32.1727 543.883 31.835 543.515 31.6057C543.149 31.3765 542.739 31.2619 542.286 31.2619C541.832 31.2619 541.421 31.3765 541.053 31.6057C540.687 31.835 540.396 32.1727 540.179 32.6189C539.964 33.0652 539.857 33.6126 539.857 34.2612C539.857 34.9098 539.964 35.4573 540.179 35.9035C540.396 36.3497 540.687 36.6875 541.053 36.9167C541.421 37.1459 541.832 37.2605 542.286 37.2605C542.739 37.2605 543.149 37.1459 543.515 36.9167C543.883 36.6875 544.174 36.3497 544.389 35.9035C544.606 35.4573 544.715 34.9098 544.715 34.2612ZM547.001 40.1135V32.3885H547.835V33.281H547.937C548 33.1834 548.088 33.0591 548.2 32.9079C548.315 32.7543 548.478 32.6177 548.69 32.4982C548.905 32.3763 549.195 32.3153 549.561 32.3153C550.034 32.3153 550.451 32.4336 550.812 32.6701C551.173 32.9067 551.454 33.2419 551.657 33.676C551.859 34.11 551.96 34.6221 551.96 35.2122C551.96 35.8072 551.859 36.3229 551.657 36.7594C551.454 37.1934 551.174 37.53 550.816 37.7689C550.457 38.0054 550.044 38.1237 549.576 38.1237C549.215 38.1237 548.926 38.064 548.709 37.9445C548.492 37.8226 548.325 37.6848 548.208 37.5312C548.091 37.3751 548 37.2459 547.937 37.1435H547.864V40.1135H547.001ZM547.849 35.1976C547.849 35.6219 547.911 35.9962 548.036 36.3205C548.16 36.6424 548.342 36.8947 548.581 37.0776C548.82 37.2581 549.112 37.3483 549.459 37.3483C549.819 37.3483 550.121 37.2532 550.362 37.063C550.606 36.8704 550.789 36.6119 550.911 36.2876C551.035 35.9608 551.097 35.5975 551.097 35.1976C551.097 34.8025 551.036 34.4465 550.914 34.1295C550.795 33.8101 550.613 33.5577 550.369 33.3724C550.128 33.1846 549.824 33.0908 549.459 33.0908C549.107 33.0908 548.812 33.1798 548.573 33.3578C548.334 33.5333 548.154 33.7796 548.032 34.0966C547.91 34.4112 547.849 34.7782 547.849 35.1976ZM557.257 33.6467L556.481 33.8662C556.433 33.7369 556.361 33.6114 556.265 33.4894C556.173 33.3651 556.046 33.2627 555.885 33.1822C555.724 33.1017 555.518 33.0615 555.267 33.0615C554.923 33.0615 554.637 33.1407 554.407 33.2992C554.181 33.4553 554.067 33.654 554.067 33.8954C554.067 34.11 554.145 34.2795 554.301 34.4039C554.457 34.5282 554.701 34.6319 555.033 34.7148L555.867 34.9196C556.369 35.0415 556.743 35.2281 556.99 35.4792C557.236 35.7279 557.359 36.0486 557.359 36.4412C557.359 36.7631 557.266 37.0508 557.081 37.3044C556.898 37.558 556.642 37.7579 556.313 37.9043C555.984 38.0506 555.601 38.1237 555.165 38.1237C554.591 38.1237 554.117 37.9994 553.742 37.7506C553.366 37.5019 553.128 37.1386 553.028 36.6606L553.848 36.4558C553.926 36.7582 554.073 36.985 554.29 37.1361C554.51 37.2873 554.796 37.3629 555.15 37.3629C555.552 37.3629 555.872 37.2776 556.108 37.1069C556.347 36.9338 556.467 36.7265 556.467 36.4851C556.467 36.29 556.398 36.1266 556.262 35.9949C556.125 35.8608 555.916 35.7609 555.633 35.695L554.696 35.4756C554.182 35.3536 553.804 35.1647 553.562 34.9086C553.323 34.6501 553.204 34.3271 553.204 33.9393C553.204 33.6223 553.293 33.3419 553.471 33.0981C553.651 32.8542 553.897 32.6628 554.206 32.5238C554.518 32.3848 554.872 32.3153 555.267 32.3153C555.823 32.3153 556.259 32.4373 556.576 32.6811C556.896 32.9249 557.123 33.2468 557.257 33.6467ZM558.659 38.0067V32.3885H559.522V38.0067H558.659ZM559.097 31.4521C558.929 31.4521 558.784 31.3948 558.662 31.2802C558.543 31.1656 558.483 31.0278 558.483 30.8669C558.483 30.706 558.543 30.5682 558.662 30.4536C558.784 30.339 558.929 30.2817 559.097 30.2817C559.266 30.2817 559.41 30.339 559.529 30.4536C559.651 30.5682 559.712 30.706 559.712 30.8669C559.712 31.0278 559.651 31.1656 559.529 31.2802C559.41 31.3948 559.266 31.4521 559.097 31.4521ZM561.659 40.1135C561.512 40.1135 561.382 40.1013 561.267 40.0769C561.153 40.055 561.073 40.033 561.03 40.0111L561.249 39.2503C561.459 39.3039 561.644 39.3234 561.805 39.3088C561.966 39.2942 562.109 39.2222 562.233 39.093C562.36 38.9662 562.476 38.7601 562.58 38.4748L562.741 38.0359L560.664 32.3885H561.6L563.151 36.8655H563.21L564.76 32.3885H565.697L563.312 38.826C563.205 39.1162 563.072 39.3563 562.913 39.5465C562.755 39.7392 562.571 39.8818 562.361 39.9745C562.154 40.0672 561.92 40.1135 561.659 40.1135ZM568.917 38.1237C568.41 38.1237 567.965 38.003 567.582 37.7616C567.202 37.5202 566.904 37.1825 566.69 36.7484C566.478 36.3144 566.372 35.8072 566.372 35.2268C566.372 34.6416 566.478 34.1308 566.69 33.6943C566.904 33.2578 567.202 32.9188 567.582 32.6774C567.965 32.436 568.41 32.3153 568.917 32.3153C569.425 32.3153 569.868 32.436 570.249 32.6774C570.632 32.9188 570.929 33.2578 571.141 33.6943C571.356 34.1308 571.463 34.6416 571.463 35.2268C571.463 35.8072 571.356 36.3144 571.141 36.7484C570.929 37.1825 570.632 37.5202 570.249 37.7616C569.868 38.003 569.425 38.1237 568.917 38.1237ZM568.917 37.3483C569.303 37.3483 569.62 37.2495 569.868 37.052C570.117 36.8545 570.301 36.5948 570.421 36.2729C570.54 35.9511 570.6 35.6024 570.6 35.2268C570.6 34.8513 570.54 34.5014 570.421 34.1771C570.301 33.8528 570.117 33.5906 569.868 33.3907C569.62 33.1907 569.303 33.0908 568.917 33.0908C568.532 33.0908 568.215 33.1907 567.966 33.3907C567.718 33.5906 567.534 33.8528 567.414 34.1771C567.295 34.5014 567.235 34.8513 567.235 35.2268C567.235 35.6024 567.295 35.9511 567.414 36.2729C567.534 36.5948 567.718 36.8545 567.966 37.052C568.215 37.2495 568.532 37.3483 568.917 37.3483ZM573.644 34.627V38.0067H572.781V32.3885H573.615V33.2663H573.688C573.82 32.981 574.02 32.7518 574.288 32.5787C574.556 32.4031 574.902 32.3153 575.327 32.3153C575.707 32.3153 576.04 32.3934 576.325 32.5494C576.61 32.703 576.832 32.9371 576.991 33.2517C577.149 33.5638 577.229 33.9588 577.229 34.4368V38.0067H576.365V34.4953C576.365 34.0539 576.251 33.7101 576.021 33.4638C575.792 33.2151 575.478 33.0908 575.078 33.0908C574.802 33.0908 574.556 33.1505 574.339 33.27C574.124 33.3895 573.955 33.5638 573.831 33.793C573.706 34.0222 573.644 34.3002 573.644 34.627ZM581.161 38.1237C580.62 38.1237 580.153 38.0042 579.761 37.7653C579.37 37.5239 579.069 37.1873 578.857 36.7557C578.647 36.3217 578.543 35.8169 578.543 35.2415C578.543 34.666 578.647 34.1588 578.857 33.7199C579.069 33.2785 579.364 32.9347 579.742 32.6884C580.123 32.4397 580.566 32.3153 581.074 32.3153C581.366 32.3153 581.655 32.3641 581.941 32.4616C582.226 32.5592 582.485 32.7177 582.72 32.9371C582.954 33.1542 583.14 33.4419 583.279 33.8003C583.418 34.1588 583.488 34.6002 583.488 35.1244V35.4902H579.157V34.744H582.61C582.61 34.427 582.546 34.1442 582.42 33.8954C582.295 33.6467 582.117 33.4504 581.886 33.3066C581.656 33.1627 581.386 33.0908 581.074 33.0908C580.73 33.0908 580.432 33.1761 580.181 33.3468C579.932 33.515 579.741 33.7345 579.607 34.0052C579.473 34.2758 579.406 34.566 579.406 34.8757V35.3731C579.406 35.7974 579.479 36.1571 579.625 36.4522C579.774 36.7448 579.98 36.9679 580.243 37.1215C580.507 37.2727 580.813 37.3483 581.161 37.3483C581.388 37.3483 581.593 37.3166 581.776 37.2532C581.961 37.1873 582.121 37.0898 582.255 36.9606C582.389 36.8289 582.493 36.6655 582.566 36.4704L583.4 36.7045C583.312 36.9874 583.165 37.2361 582.957 37.4507C582.75 37.6628 582.494 37.8287 582.189 37.9481C581.884 38.0652 581.542 38.1237 581.161 38.1237ZM585.664 30.5158V38.0067H584.801V30.5158H585.664Z" fill="#F5F5F5"/>
<path d="M603.796 38.0067V37.3355L607.912 31.1906H603.751V30.3703H609.016V31.0415L604.9 37.1864H609.061V38.0067H603.796ZM612.819 38.126C612.302 38.126 611.849 38.0029 611.458 37.7568C611.071 37.5108 610.767 37.1665 610.549 36.724C610.332 36.2815 610.224 35.7645 610.224 35.1729C610.224 34.5763 610.332 34.0555 610.549 33.6105C610.767 33.1656 611.071 32.8201 611.458 32.574C611.849 32.3279 612.302 32.2048 612.819 32.2048C613.336 32.2048 613.789 32.3279 614.177 32.574C614.567 32.8201 614.87 33.1656 615.086 33.6105C615.305 34.0555 615.415 34.5763 615.415 35.1729C615.415 35.7645 615.305 36.2815 615.086 36.724C614.87 37.1665 614.567 37.5108 614.177 37.7568C613.789 38.0029 613.336 38.126 612.819 38.126ZM612.819 37.3355C613.212 37.3355 613.535 37.2348 613.789 37.0335C614.042 36.8321 614.23 36.5674 614.352 36.2393C614.474 35.9111 614.535 35.5557 614.535 35.1729C614.535 34.79 614.474 34.4333 614.352 34.1027C614.23 33.7721 614.042 33.5049 613.789 33.3011C613.535 33.0972 613.212 32.9953 612.819 32.9953C612.427 32.9953 612.103 33.0972 611.85 33.3011C611.596 33.5049 611.409 33.7721 611.287 34.1027C611.165 34.4333 611.104 34.79 611.104 35.1729C611.104 35.5557 611.165 35.9111 611.287 36.2393C611.409 36.5674 611.596 36.8321 611.85 37.0335C612.103 37.2348 612.427 37.3355 612.819 37.3355ZM616.758 38.0067V32.2794H617.608V33.1445H617.668C617.772 32.8611 617.961 32.6311 618.234 32.4546C618.508 32.2782 618.816 32.1899 619.159 32.1899C619.224 32.1899 619.304 32.1911 619.401 32.1936C619.498 32.1961 619.572 32.1998 619.621 32.2048V33.0997C619.592 33.0923 619.523 33.0811 619.416 33.0661C619.312 33.0487 619.201 33.04 619.084 33.04C618.806 33.04 618.558 33.0985 618.339 33.2153C618.122 33.3296 617.951 33.4887 617.824 33.6926C617.7 33.8939 617.638 34.1239 617.638 34.3824V38.0067H616.758ZM624.274 35.665V32.2794H625.154V38.0067H624.274V37.0372H624.214C624.08 37.328 623.871 37.5754 623.588 37.7792C623.304 37.9806 622.946 38.0812 622.514 38.0812C622.156 38.0812 621.838 38.0029 621.559 37.8463C621.281 37.6872 621.062 37.4486 620.903 37.1304C620.744 36.8098 620.665 36.4058 620.665 35.9186V32.2794H621.545V35.8589C621.545 36.2766 621.661 36.6097 621.895 36.8582C622.131 37.1068 622.432 37.2311 622.797 37.2311C623.016 37.2311 623.239 37.1752 623.465 37.0633C623.693 36.9514 623.885 36.7799 624.039 36.5487C624.196 36.3176 624.274 36.023 624.274 35.665ZM627.646 34.5614V38.0067H626.766V32.2794H627.616V33.1743H627.69C627.825 32.8834 628.028 32.6498 628.302 32.4733C628.575 32.2943 628.928 32.2048 629.361 32.2048C629.749 32.2048 630.088 32.2844 630.379 32.4435C630.67 32.6001 630.896 32.8387 631.057 33.1594C631.219 33.4775 631.3 33.8802 631.3 34.3675V38.0067H630.42V34.4271C630.42 33.9772 630.303 33.6267 630.069 33.3756C629.836 33.1221 629.515 32.9953 629.107 32.9953C628.826 32.9953 628.575 33.0562 628.354 33.178C628.135 33.2998 627.963 33.4775 627.836 33.7112C627.709 33.9449 627.646 34.2283 627.646 34.5614ZM633.788 30.3703V38.0067H632.908V30.3703H633.788ZM639.009 35.665V32.2794H639.889V38.0067H639.009V37.0372H638.949C638.815 37.328 638.606 37.5754 638.323 37.7792C638.039 37.9806 637.681 38.0812 637.249 38.0812C636.891 38.0812 636.573 38.0029 636.294 37.8463C636.016 37.6872 635.797 37.4486 635.638 37.1304C635.479 36.8098 635.399 36.4058 635.399 35.9186V32.2794H636.279V35.8589C636.279 36.2766 636.396 36.6097 636.63 36.8582C636.866 37.1068 637.167 37.2311 637.532 37.2311C637.751 37.2311 637.973 37.1752 638.2 37.0633C638.428 36.9514 638.62 36.7799 638.774 36.5487C638.93 36.3176 639.009 36.023 639.009 35.665Z" fill="#D4D4D4"/>
<path d="M32.3339 82.7097C32.2941 82.3567 32.13 82.0832 31.8417 81.8894C31.5533 81.693 31.1904 81.5948 30.7529 81.5948C30.4397 81.5948 30.1687 81.6445 29.94 81.7439C29.7113 81.8409 29.5336 81.9751 29.4068 82.1466C29.2825 82.3157 29.2204 82.5083 29.2204 82.7246C29.2204 82.906 29.2627 83.0627 29.3472 83.1944C29.4342 83.3261 29.5473 83.4368 29.6865 83.5263C29.8282 83.6133 29.9798 83.6866 30.1414 83.7462C30.303 83.8034 30.4583 83.8506 30.6075 83.8879L31.3532 84.0818C31.5968 84.1415 31.8466 84.2223 32.1027 84.3242C32.3587 84.4261 32.5961 84.5603 32.8149 84.7269C33.0336 84.8934 33.2101 85.0998 33.3443 85.3459C33.4811 85.5919 33.5494 85.8865 33.5494 86.2296C33.5494 86.6621 33.4376 87.0461 33.2138 87.3817C32.9926 87.7173 32.6707 87.982 32.2481 88.1759C31.828 88.3698 31.3197 88.4668 30.7231 88.4668C30.1513 88.4668 29.6567 88.376 29.239 88.1946C28.8214 88.0131 28.4946 87.7558 28.2584 87.4227C28.0223 87.0872 27.8917 86.6894 27.8669 86.2296H29.0228C29.0452 86.5055 29.1346 86.7354 29.2912 86.9194C29.4503 87.1008 29.6529 87.2363 29.899 87.3258C30.1476 87.4128 30.4198 87.4563 30.7156 87.4563C31.0412 87.4563 31.3308 87.4053 31.5844 87.3034C31.8404 87.199 32.0418 87.0548 32.1884 86.8709C32.3351 86.6845 32.4084 86.4669 32.4084 86.2184C32.4084 85.9922 32.3438 85.807 32.2145 85.6628C32.0878 85.5186 31.915 85.3993 31.6963 85.3048C31.48 85.2104 31.2351 85.1271 30.9617 85.055L30.0594 84.8089C29.4479 84.6424 28.9631 84.3975 28.6052 84.0744C28.2497 83.7512 28.072 83.3237 28.072 82.7917C28.072 82.3517 28.1913 81.9677 28.4299 81.6395C28.6686 81.3114 28.9917 81.0566 29.3994 80.8752C29.8071 80.6912 30.2669 80.5992 30.779 80.5992C31.296 80.5992 31.7522 80.69 32.1474 80.8714C32.5452 81.0529 32.8584 81.3027 33.0871 81.6209C33.3158 81.9366 33.4351 82.2995 33.445 82.7097H32.3339ZM41.8346 84.5218C41.8346 85.3372 41.6854 86.0381 41.3871 86.6248C41.0888 87.209 40.6799 87.6589 40.1604 87.9746C39.6434 88.2878 39.0555 88.4444 38.3967 88.4444C37.7355 88.4444 37.1451 88.2878 36.6256 87.9746C36.1086 87.6589 35.7009 87.2077 35.4026 86.6211C35.1043 86.0344 34.9551 85.3347 34.9551 84.5218C34.9551 83.7065 35.1043 83.0067 35.4026 82.4226C35.7009 81.8359 36.1086 81.386 36.6256 81.0728C37.1451 80.7571 37.7355 80.5992 38.3967 80.5992C39.0555 80.5992 39.6434 80.7571 40.1604 81.0728C40.6799 81.386 41.0888 81.8359 41.3871 82.4226C41.6854 83.0067 41.8346 83.7065 41.8346 84.5218ZM40.6936 84.5218C40.6936 83.9004 40.5929 83.3771 40.3916 82.952C40.1927 82.5245 39.9193 82.2013 39.5713 81.9826C39.2257 81.7613 38.8342 81.6507 38.3967 81.6507C37.9567 81.6507 37.564 81.7613 37.2185 81.9826C36.8729 82.2013 36.5995 82.5245 36.3981 82.952C36.1993 83.3771 36.0999 83.9004 36.0999 84.5218C36.0999 85.1433 36.1993 85.6678 36.3981 86.0953C36.5995 86.5204 36.8729 86.8435 37.2185 87.0648C37.564 87.2835 37.9567 87.3929 38.3967 87.3929C38.8342 87.3929 39.2257 87.2835 39.5713 87.0648C39.9193 86.8435 40.1927 86.5204 40.3916 86.0953C40.5929 85.6678 40.6936 85.1433 40.6936 84.5218ZM43.5461 88.34V80.7036H46.268C46.8596 80.7036 47.3506 80.8056 47.7408 81.0094C48.1336 81.2132 48.4269 81.4954 48.6208 81.8558C48.8147 82.2138 48.9117 82.6276 48.9117 83.0975C48.9117 83.5648 48.8135 83.9762 48.6171 84.3317C48.4232 84.6846 48.1299 84.9593 47.7371 85.1557C47.3468 85.3521 46.8559 85.4503 46.2643 85.4503H44.2023V84.4584H46.1599C46.5327 84.4584 46.836 84.405 47.0697 84.2981C47.3058 84.1912 47.4786 84.0358 47.588 83.832C47.6973 83.6282 47.752 83.3833 47.752 83.0975C47.752 82.8091 47.6961 82.5593 47.5842 82.348C47.4749 82.1367 47.3021 81.9751 47.0659 81.8633C46.8323 81.7489 46.5253 81.6917 46.145 81.6917H44.6982V88.34H43.5461ZM47.3158 84.8947L49.2025 88.34H47.89L46.0406 84.8947H47.3158ZM55.4993 80.7036H56.6552V85.7262C56.6552 86.2606 56.5297 86.7342 56.2786 87.1468C56.0276 87.557 55.6746 87.8801 55.2197 88.1163C54.7648 88.3499 54.2316 88.4668 53.6201 88.4668C53.011 88.4668 52.4791 88.3499 52.0242 88.1163C51.5693 87.8801 51.2163 87.557 50.9652 87.1468C50.7142 86.7342 50.5886 86.2606 50.5886 85.7262V80.7036H51.7408V85.633C51.7408 85.9785 51.8166 86.2855 51.9683 86.554C52.1224 86.8224 52.3399 87.0337 52.6208 87.1878C52.9017 87.3395 53.2348 87.4153 53.6201 87.4153C54.0079 87.4153 54.3422 87.3395 54.6231 87.1878C54.9065 87.0337 55.1227 86.8224 55.2719 86.554C55.4235 86.2855 55.4993 85.9785 55.4993 85.633V80.7036ZM61.6591 80.7036H63.0574L65.4885 86.6397H65.578L68.0091 80.7036H69.4074V88.34H68.3111V82.8141H68.2403L65.9882 88.3288H65.0784L62.8262 82.8103H62.7554V88.34H61.6591V80.7036ZM71.3575 88.34V80.7036H76.1451V81.6955H72.5097V84.0222H75.8953V85.0103H72.5097V87.3482H76.1899V88.34H71.3575ZM77.5825 81.6955V80.7036H83.4925V81.6955H81.1099V88.34H79.9615V81.6955H77.5825ZM91.237 80.7036V88.34H90.1781L86.2965 82.7395H86.2257V88.34H85.0735V80.7036H86.1399L90.0252 86.3116H90.0961V80.7036H91.237ZM94.3449 80.7036V88.34H93.1927V80.7036H94.3449Z" fill="#A1A1A1"/>
<rect x="25.33" y="99.34" width="621.33" height="34.66" rx="8" fill="#171717" fill-opacity="0.6"/>
<rect x="25.83" y="99.84" width="620.33" height="33.66" rx="7.5" stroke="white" stroke-opacity="0.1"/>
<path d="M44.2633 114.634C44.2084 114.169 43.9854 113.809 43.5945 113.553C43.2036 113.296 42.7241 113.168 42.1561 113.168C41.7408 113.168 41.3773 113.235 41.0658 113.369C40.7574 113.504 40.5161 113.688 40.342 113.924C40.171 114.159 40.0855 114.426 40.0855 114.725C40.0855 114.976 40.1451 115.191 40.2642 115.371C40.3863 115.548 40.5421 115.696 40.7314 115.816C40.9208 115.932 41.1193 116.028 41.3269 116.104C41.5346 116.177 41.7255 116.237 41.8996 116.283L42.8524 116.539C43.0967 116.603 43.3685 116.692 43.6678 116.805C43.9702 116.918 44.2588 117.072 44.5336 117.268C44.8115 117.46 45.0406 117.707 45.2208 118.01C45.401 118.312 45.491 118.683 45.491 119.123C45.491 119.63 45.3582 120.088 45.0925 120.497C44.8299 120.906 44.4451 121.232 43.9381 121.473C43.4342 121.714 42.8219 121.835 42.1011 121.835C41.4293 121.835 40.8475 121.726 40.3558 121.51C39.8671 121.293 39.4823 120.99 39.2014 120.603C38.9235 120.215 38.7662 119.764 38.7295 119.251H39.9023C39.9328 119.605 40.0519 119.899 40.2596 120.131C40.4703 120.36 40.736 120.531 41.0567 120.644C41.3804 120.754 41.7285 120.809 42.1011 120.809C42.5348 120.809 42.9242 120.739 43.2693 120.598C43.6144 120.454 43.8877 120.256 44.0893 120.003C44.2908 119.746 44.3916 119.447 44.3916 119.105C44.3916 118.793 44.3046 118.54 44.1305 118.344C43.9564 118.149 43.7274 117.99 43.4434 117.868C43.1593 117.746 42.8524 117.639 42.5226 117.547L41.3682 117.217C40.6352 117.007 40.055 116.706 39.6274 116.315C39.1998 115.924 38.9861 115.412 38.9861 114.78C38.9861 114.255 39.1281 113.797 39.4121 113.406C39.6992 113.012 40.084 112.707 40.5665 112.49C41.0521 112.27 41.5942 112.16 42.1927 112.16C42.7974 112.16 43.3349 112.268 43.8052 112.485C44.2756 112.699 44.6481 112.992 44.923 113.365C45.2009 113.737 45.3475 114.16 45.3628 114.634H44.2633ZM50.0709 121.817C49.4356 121.817 48.8783 121.665 48.3988 121.363C47.9224 121.061 47.5498 120.638 47.2811 120.094C47.0154 119.551 46.8825 118.915 46.8825 118.188C46.8825 117.455 47.0154 116.816 47.2811 116.269C47.5498 115.722 47.9224 115.298 48.3988 114.996C48.8783 114.693 49.4356 114.542 50.0709 114.542C50.7061 114.542 51.2619 114.693 51.7383 114.996C52.2178 115.298 52.5904 115.722 52.8561 116.269C53.1248 116.816 53.2592 117.455 53.2592 118.188C53.2592 118.915 53.1248 119.551 52.8561 120.094C52.5904 120.638 52.2178 121.061 51.7383 121.363C51.2619 121.665 50.7061 121.817 50.0709 121.817ZM50.0709 120.845C50.5534 120.845 50.9504 120.722 51.2619 120.474C51.5734 120.227 51.804 119.902 51.9536 119.499C52.1033 119.095 52.1781 118.659 52.1781 118.188C52.1781 117.718 52.1033 117.28 51.9536 116.874C51.804 116.468 51.5734 116.139 51.2619 115.889C50.9504 115.638 50.5534 115.513 50.0709 115.513C49.5883 115.513 49.1913 115.638 48.8798 115.889C48.5683 116.139 48.3377 116.468 48.1881 116.874C48.0384 117.28 47.9636 117.718 47.9636 118.188C47.9636 118.659 48.0384 119.095 48.1881 119.499C48.3377 119.902 48.5683 120.227 48.8798 120.474C49.1913 120.722 49.5883 120.845 50.0709 120.845ZM54.9095 121.67V114.634H55.954V115.696H56.0273C56.1555 115.348 56.3876 115.066 56.7236 114.849C57.0595 114.632 57.4382 114.524 57.8596 114.524C57.9391 114.524 58.0383 114.525 58.1574 114.528C58.2765 114.531 58.3666 114.536 58.4277 114.542V115.641C58.391 115.632 58.3071 115.619 58.1757 115.6C58.0475 115.579 57.9116 115.568 57.768 115.568C57.426 115.568 57.1206 115.64 56.8518 115.783C56.5861 115.924 56.3754 116.119 56.2197 116.37C56.067 116.617 55.9906 116.9 55.9906 117.217V121.67H54.9095ZM64.1436 118.793V114.634H65.2247V121.67H64.1436V120.479H64.0703C63.9054 120.836 63.6488 121.14 63.3007 121.391C62.9525 121.638 62.5128 121.762 61.9814 121.762C61.5416 121.762 61.1507 121.665 60.8086 121.473C60.4666 121.278 60.1979 120.984 60.0024 120.593C59.8069 120.199 59.7092 119.703 59.7092 119.105V114.634H60.7903V119.031C60.7903 119.544 60.9339 119.954 61.2209 120.259C61.5111 120.564 61.8806 120.717 62.3295 120.717C62.5983 120.717 62.8716 120.648 63.1495 120.511C63.4305 120.374 63.6656 120.163 63.855 119.879C64.0474 119.595 64.1436 119.233 64.1436 118.793ZM68.2859 117.437V121.67H67.2048V114.634H68.2493V115.733H68.3409C68.5058 115.376 68.7562 115.089 69.0922 114.872C69.4281 114.652 69.8618 114.542 70.3932 114.542C70.8696 114.542 71.2865 114.64 71.6438 114.835C72.0011 115.028 72.279 115.321 72.4775 115.715C72.676 116.106 72.7753 116.6 72.7753 117.199V121.67H71.6942V117.272C71.6942 116.719 71.5506 116.289 71.2636 115.98C70.9765 115.669 70.5825 115.513 70.0817 115.513C69.7366 115.513 69.4281 115.588 69.1563 115.738C68.8876 115.887 68.6753 116.106 68.5196 116.393C68.3638 116.68 68.2859 117.028 68.2859 117.437ZM79.1852 118.793V114.634H80.2663V121.67H79.1852V120.479H79.1119C78.947 120.836 78.6904 121.14 78.3423 121.391C77.9941 121.638 77.5544 121.762 77.023 121.762C76.5832 121.762 76.1923 121.665 75.8503 121.473C75.5082 121.278 75.2395 120.984 75.044 120.593C74.8485 120.199 74.7508 119.703 74.7508 119.105V114.634H75.8319V119.031C75.8319 119.544 75.9755 119.954 76.2625 120.259C76.5527 120.564 76.9222 120.717 77.3711 120.717C77.6399 120.717 77.9132 120.648 78.1911 120.511C78.4721 120.374 78.7072 120.163 78.8966 119.879C79.089 119.595 79.1852 119.233 79.1852 118.793ZM82.0449 121.67V120.845L86.0395 115.715V115.641H82.1731V114.634H87.4321V115.495L83.5474 120.589V120.662H87.5603V121.67H82.0449ZM93.6599 118.793V114.634H94.741V121.67H93.6599V120.479H93.5866C93.4217 120.836 93.1652 121.14 92.817 121.391C92.4688 121.638 92.0291 121.762 91.4977 121.762C91.0579 121.762 90.667 121.665 90.325 121.473C89.9829 121.278 89.7142 120.984 89.5187 120.593C89.3233 120.199 89.2255 119.703 89.2255 119.105V114.634H90.3066V119.031C90.3066 119.544 90.4502 119.954 90.7372 120.259C91.0274 120.564 91.3969 120.717 91.8458 120.717C92.1146 120.717 92.3879 120.648 92.6658 120.511C92.9468 120.374 93.182 120.163 93.3713 119.879C93.5637 119.595 93.6599 119.233 93.6599 118.793ZM100.496 121.67V112.288H101.577V115.751H101.669C101.748 115.629 101.858 115.473 101.998 115.284C102.142 115.092 102.347 114.921 102.612 114.771C102.881 114.618 103.244 114.542 103.703 114.542C104.295 114.542 104.817 114.69 105.269 114.986C105.721 115.283 106.074 115.703 106.327 116.246C106.581 116.79 106.708 117.431 106.708 118.17C106.708 118.915 106.581 119.561 106.327 120.108C106.074 120.651 105.723 121.073 105.274 121.372C104.825 121.668 104.307 121.817 103.721 121.817C103.269 121.817 102.907 121.742 102.635 121.592C102.363 121.439 102.154 121.267 102.008 121.074C101.861 120.879 101.748 120.717 101.669 120.589H101.54V121.67H100.496ZM101.559 118.152C101.559 118.683 101.637 119.152 101.792 119.558C101.948 119.961 102.176 120.277 102.475 120.506C102.774 120.732 103.141 120.845 103.574 120.845C104.026 120.845 104.403 120.726 104.706 120.488C105.011 120.247 105.24 119.923 105.393 119.517C105.549 119.108 105.627 118.653 105.627 118.152C105.627 117.657 105.55 117.211 105.397 116.814C105.248 116.414 105.02 116.098 104.715 115.866C104.413 115.631 104.032 115.513 103.574 115.513C103.134 115.513 102.765 115.625 102.466 115.848C102.166 116.067 101.94 116.376 101.788 116.773C101.635 117.167 101.559 117.627 101.559 118.152ZM112.796 118.793V114.634H113.877V121.67H112.796V120.479H112.722C112.558 120.836 112.301 121.14 111.953 121.391C111.605 121.638 111.165 121.762 110.634 121.762C110.194 121.762 109.803 121.665 109.461 121.473C109.119 121.278 108.85 120.984 108.655 120.593C108.459 120.199 108.361 119.703 108.361 119.105V114.634H109.442V119.031C109.442 119.544 109.586 119.954 109.873 120.259C110.163 120.564 110.533 120.717 110.982 120.717C111.25 120.717 111.524 120.648 111.802 120.511C112.083 120.374 112.318 120.163 112.507 119.879C112.7 119.595 112.796 119.233 112.796 118.793ZM115.857 121.67V114.634H116.901V115.696H116.975C117.103 115.348 117.335 115.066 117.671 114.849C118.007 114.632 118.386 114.524 118.807 114.524C118.887 114.524 118.986 114.525 119.105 114.528C119.224 114.531 119.314 114.536 119.375 114.542V115.641C119.339 115.632 119.255 115.619 119.123 115.6C118.995 115.579 118.859 115.568 118.715 115.568C118.373 115.568 118.068 115.64 117.799 115.783C117.534 115.924 117.323 116.119 117.167 116.37C117.014 116.617 116.938 116.9 116.938 117.217V121.67H115.857ZM122.727 121.835C122.281 121.835 121.877 121.751 121.513 121.583C121.15 121.412 120.861 121.166 120.648 120.845C120.434 120.522 120.327 120.131 120.327 119.673C120.327 119.27 120.406 118.943 120.565 118.692C120.724 118.439 120.936 118.24 121.202 118.097C121.468 117.953 121.761 117.846 122.081 117.776C122.405 117.703 122.73 117.645 123.057 117.602C123.485 117.547 123.831 117.506 124.097 117.478C124.366 117.448 124.561 117.397 124.683 117.327C124.809 117.257 124.871 117.135 124.871 116.961V116.924C124.871 116.472 124.747 116.121 124.5 115.87C124.256 115.62 123.885 115.495 123.387 115.495C122.871 115.495 122.466 115.608 122.173 115.834C121.88 116.06 121.674 116.301 121.555 116.558L120.528 116.191C120.712 115.764 120.956 115.431 121.261 115.192C121.57 114.951 121.906 114.783 122.269 114.689C122.636 114.591 122.996 114.542 123.35 114.542C123.576 114.542 123.836 114.569 124.129 114.624C124.425 114.676 124.711 114.785 124.986 114.95C125.264 115.115 125.494 115.364 125.677 115.696C125.861 116.029 125.952 116.475 125.952 117.034V121.67H124.871V120.717H124.816C124.743 120.87 124.621 121.033 124.45 121.207C124.279 121.381 124.051 121.529 123.767 121.652C123.483 121.774 123.137 121.835 122.727 121.835ZM122.892 120.864C123.32 120.864 123.68 120.78 123.973 120.612C124.27 120.444 124.492 120.227 124.642 119.961C124.795 119.696 124.871 119.416 124.871 119.123V118.133C124.825 118.188 124.725 118.239 124.569 118.285C124.416 118.327 124.239 118.366 124.037 118.399C123.839 118.43 123.645 118.457 123.456 118.482C123.269 118.503 123.118 118.521 123.002 118.537C122.721 118.573 122.459 118.633 122.214 118.715C121.973 118.795 121.777 118.915 121.628 119.077C121.481 119.236 121.408 119.453 121.408 119.728C121.408 120.103 121.547 120.387 121.825 120.58C122.106 120.769 122.462 120.864 122.892 120.864ZM128.37 124.309C128.187 124.309 128.023 124.293 127.88 124.263C127.736 124.235 127.637 124.208 127.582 124.18L127.857 123.228C128.119 123.295 128.352 123.319 128.553 123.301C128.755 123.282 128.933 123.192 129.089 123.031C129.248 122.872 129.393 122.614 129.524 122.256L129.726 121.707L127.124 114.634H128.297L130.239 120.241H130.312L132.255 114.634H133.427L130.44 122.696C130.306 123.06 130.14 123.36 129.941 123.599C129.743 123.84 129.512 124.018 129.249 124.135C128.99 124.251 128.697 124.309 128.37 124.309ZM136.711 121.835C136.265 121.835 135.86 121.751 135.497 121.583C135.133 121.412 134.845 121.166 134.631 120.845C134.417 120.522 134.31 120.131 134.31 119.673C134.31 119.27 134.39 118.943 134.548 118.692C134.707 118.439 134.92 118.24 135.185 118.097C135.451 117.953 135.744 117.846 136.065 117.776C136.388 117.703 136.714 117.645 137.04 117.602C137.468 117.547 137.815 117.506 138.08 117.478C138.349 117.448 138.545 117.397 138.667 117.327C138.792 117.257 138.855 117.135 138.855 116.961V116.924C138.855 116.472 138.731 116.121 138.484 115.87C138.239 115.62 137.868 115.495 137.37 115.495C136.854 115.495 136.45 115.608 136.156 115.834C135.863 116.06 135.657 116.301 135.538 116.558L134.512 116.191C134.695 115.764 134.939 115.431 135.245 115.192C135.553 114.951 135.889 114.783 136.253 114.689C136.619 114.591 136.979 114.542 137.334 114.542C137.56 114.542 137.819 114.569 138.112 114.624C138.409 114.676 138.694 114.785 138.969 114.95C139.247 115.115 139.478 115.364 139.661 115.696C139.844 116.029 139.936 116.475 139.936 117.034V121.67H138.855V120.717H138.8C138.726 120.87 138.604 121.033 138.433 121.207C138.262 121.381 138.035 121.529 137.751 121.652C137.467 121.774 137.12 121.835 136.711 121.835ZM136.876 120.864C137.303 120.864 137.664 120.78 137.957 120.612C138.253 120.444 138.476 120.227 138.626 119.961C138.778 119.696 138.855 119.416 138.855 119.123V118.133C138.809 118.188 138.708 118.239 138.552 118.285C138.4 118.327 138.222 118.366 138.021 118.399C137.822 118.43 137.628 118.457 137.439 118.482C137.253 118.503 137.102 118.521 136.986 118.537C136.705 118.573 136.442 118.633 136.198 118.715C135.956 118.795 135.761 118.915 135.611 119.077C135.465 119.236 135.391 119.453 135.391 119.728C135.391 120.103 135.53 120.387 135.808 120.58C136.089 120.769 136.445 120.864 136.876 120.864ZM146.233 124.309C146.05 124.309 145.887 124.293 145.743 124.263C145.6 124.235 145.5 124.208 145.445 124.18L145.72 123.228C145.983 123.295 146.215 123.319 146.417 123.301C146.618 123.282 146.797 123.192 146.953 123.031C147.111 122.872 147.256 122.614 147.388 122.256L147.589 121.707L144.987 114.634H146.16L148.102 120.241H148.176L150.118 114.634H151.291L148.304 122.696C148.17 123.06 148.003 123.36 147.805 123.599C147.606 123.84 147.376 124.018 147.113 124.135C146.853 124.251 146.56 124.309 146.233 124.309ZM154.574 121.835C154.128 121.835 153.724 121.751 153.36 121.583C152.997 121.412 152.708 121.166 152.494 120.845C152.281 120.522 152.174 120.131 152.174 119.673C152.174 119.27 152.253 118.943 152.412 118.692C152.571 118.439 152.783 118.24 153.049 118.097C153.314 117.953 153.608 117.846 153.928 117.776C154.252 117.703 154.577 117.645 154.904 117.602C155.332 117.547 155.678 117.506 155.944 117.478C156.213 117.448 156.408 117.397 156.53 117.327C156.655 117.257 156.718 117.135 156.718 116.961V116.924C156.718 116.472 156.594 116.121 156.347 115.87C156.103 115.62 155.732 115.495 155.234 115.495C154.718 115.495 154.313 115.608 154.02 115.834C153.727 116.06 153.521 116.301 153.401 116.558L152.375 116.191C152.559 115.764 152.803 115.431 153.108 115.192C153.417 114.951 153.753 114.783 154.116 114.689C154.483 114.591 154.843 114.542 155.197 114.542C155.423 114.542 155.683 114.569 155.976 114.624C156.272 114.676 156.558 114.785 156.833 114.95C157.11 115.115 157.341 115.364 157.524 115.696C157.708 116.029 157.799 116.475 157.799 117.034V121.67H156.718V120.717H156.663C156.59 120.87 156.468 121.033 156.297 121.207C156.126 121.381 155.898 121.529 155.614 121.652C155.33 121.774 154.983 121.835 154.574 121.835ZM154.739 120.864C155.167 120.864 155.527 120.78 155.82 120.612C156.116 120.444 156.339 120.227 156.489 119.961C156.642 119.696 156.718 119.416 156.718 119.123V118.133C156.672 118.188 156.571 118.239 156.416 118.285C156.263 118.327 156.086 118.366 155.884 118.399C155.686 118.43 155.492 118.457 155.303 118.482C155.116 118.503 154.965 118.521 154.849 118.537C154.568 118.573 154.305 118.633 154.061 118.715C153.82 118.795 153.624 118.915 153.475 119.077C153.328 119.236 153.255 119.453 153.255 119.728C153.255 120.103 153.394 120.387 153.672 120.58C153.953 120.769 154.308 120.864 154.739 120.864ZM159.571 121.67V120.845L163.565 115.715V115.641H159.699V114.634H164.958V115.495L161.073 120.589V120.662H165.086V121.67H159.571ZM166.751 121.67V114.634H167.833V121.67H166.751ZM170.894 117.437V121.67H169.813V114.634H170.857V115.733H170.949C171.114 115.376 171.364 115.089 171.7 114.872C172.036 114.652 172.47 114.542 173.001 114.542C173.478 114.542 173.894 114.64 174.252 114.835C174.609 115.028 174.887 115.321 175.085 115.715C175.284 116.106 175.383 116.6 175.383 117.199V121.67H174.302V117.272C174.302 116.719 174.159 116.289 173.871 115.98C173.584 115.669 173.19 115.513 172.69 115.513C172.344 115.513 172.036 115.588 171.764 115.738C171.495 115.887 171.283 116.106 171.127 116.393C170.972 116.68 170.894 117.028 170.894 117.437ZM178.147 121.743C177.921 121.743 177.727 121.662 177.565 121.5C177.403 121.339 177.322 121.145 177.322 120.919C177.322 120.693 177.403 120.499 177.565 120.337C177.727 120.175 177.921 120.094 178.147 120.094C178.373 120.094 178.567 120.175 178.728 120.337C178.89 120.499 178.971 120.693 178.971 120.919C178.971 121.068 178.933 121.206 178.857 121.331C178.783 121.456 178.684 121.557 178.559 121.633C178.437 121.707 178.299 121.743 178.147 121.743Z" fill="#737373"/>
<path d="M28.814 158H27.591L30.339 150.364H31.6702L34.4182 158H33.1952L31.0363 151.751H30.9766L28.814 158ZM29.0191 155.01H32.9864V155.979H29.0191V155.01ZM41.7796 152.847H40.6162C40.5715 152.598 40.4882 152.38 40.3664 152.191C40.2446 152.002 40.0955 151.841 39.919 151.71C39.7425 151.578 39.5449 151.479 39.3261 151.411C39.1098 151.344 38.8799 151.311 38.6363 151.311C38.1963 151.311 37.8023 151.421 37.4543 151.643C37.1088 151.864 36.8353 152.188 36.634 152.616C36.4351 153.043 36.3357 153.565 36.3357 154.182C36.3357 154.803 36.4351 155.328 36.634 155.755C36.8353 156.183 37.11 156.506 37.458 156.725C37.806 156.944 38.1976 157.053 38.6326 157.053C38.8737 157.053 39.1024 157.021 39.3186 156.956C39.5374 156.889 39.735 156.791 39.9115 156.661C40.088 156.532 40.2371 156.374 40.359 156.188C40.4832 155.999 40.569 155.783 40.6162 155.539L41.7796 155.543C41.7174 155.918 41.5969 156.264 41.4179 156.579C41.2414 156.893 41.014 157.164 40.7355 157.392C40.4596 157.618 40.1439 157.794 39.7885 157.918C39.433 158.042 39.0452 158.104 38.6251 158.104C37.9639 158.104 37.3748 157.948 36.8577 157.635C36.3407 157.319 35.933 156.868 35.6347 156.281C35.3389 155.694 35.191 154.995 35.191 154.182C35.191 153.366 35.3401 152.667 35.6384 152.083C35.9367 151.496 36.3444 151.046 36.8614 150.733C37.3785 150.417 37.9664 150.259 38.6251 150.259C39.0303 150.259 39.4081 150.318 39.7586 150.434C40.1116 150.549 40.4286 150.718 40.7094 150.942C40.9903 151.163 41.2228 151.434 41.4067 151.754C41.5907 152.073 41.715 152.437 41.7796 152.847ZM38.2336 158.011H38.9644L38.9048 158.317C39.121 158.352 39.3099 158.439 39.4715 158.578C39.6331 158.717 39.7139 158.927 39.7139 159.208C39.7164 159.544 39.571 159.816 39.2776 160.025C38.9868 160.233 38.5654 160.338 38.0136 160.338L37.9912 159.715C38.2498 159.715 38.4586 159.678 38.6177 159.603C38.7792 159.529 38.8613 159.408 38.8637 159.242C38.8662 159.075 38.8041 158.958 38.6773 158.891C38.553 158.824 38.3542 158.777 38.0807 158.749L38.2336 158.011ZM44.5854 150.364V158H43.4333V150.364H44.5854ZM46.5383 158V150.364H47.6905V154.01H47.7837L50.9867 150.364H52.4371L49.3572 153.801L52.4483 158H51.0613L48.5929 154.588L47.6905 155.625V158H46.5383ZM53.786 158V150.364H54.9382V157.008H58.3984V158H53.786ZM61.0225 158H59.7995L62.5475 150.364H63.8787L66.6267 158H65.4037L63.2448 151.751H63.1851L61.0225 158ZM61.2276 155.01H65.1949V155.979H61.2276V155.01ZM68.0045 150.364H69.4027L71.8338 156.3H71.9233L74.3544 150.364H75.7527V158H74.6564V152.474H74.5856L72.3335 157.989H71.4237L69.1715 152.47H69.1007V158H68.0045V150.364ZM78.3479 158H77.1249L79.8729 150.364H81.204L83.9521 158H82.7291L80.5702 151.751H80.5105L78.3479 158ZM78.5529 155.01H82.5203V155.979H78.5529V155.01Z" fill="#A1A1A1"/>
<rect x="25.33" y="169" width="621.33" height="34.66" rx="8" fill="#171717" fill-opacity="0.6"/>
<rect x="25.83" y="169.5" width="620.33" height="33.66" rx="7.5" stroke="white" stroke-opacity="0.1"/>
<g clip-path="url(#clip1_1_105)">
<path d="M39.5293 191.33H38.329L41.8006 181.875H42.9824L46.454 191.33H45.2537L42.4284 183.371H42.3545L39.5293 191.33ZM39.9724 187.637H44.8105V188.652H39.9724V187.637ZM50.6596 191.478C49.9948 191.478 49.4224 191.321 48.9422 191.007C48.4621 190.693 48.0928 190.261 47.8343 189.71C47.5758 189.159 47.4465 188.529 47.4465 187.821C47.4465 187.101 47.5789 186.466 47.8435 185.915C48.1113 185.361 48.4837 184.928 48.9607 184.618C49.4408 184.304 50.001 184.147 50.6411 184.147C51.1397 184.147 51.589 184.239 51.9891 184.424C52.3892 184.608 52.717 184.867 52.9724 185.199C53.2279 185.532 53.3864 185.919 53.4479 186.363H52.3584C52.2753 186.04 52.0907 185.753 51.8045 185.504C51.5213 185.252 51.1397 185.125 50.6596 185.125C50.2349 185.125 49.8625 185.236 49.5424 185.458C49.2254 185.676 48.9776 185.986 48.7991 186.386C48.6237 186.783 48.536 187.249 48.536 187.785C48.536 188.332 48.6222 188.809 48.7945 189.216C48.9699 189.622 49.2162 189.937 49.5332 190.162C49.8532 190.387 50.2287 190.499 50.6596 190.499C50.9427 190.499 51.1997 190.45 51.4305 190.351C51.6614 190.253 51.8568 190.111 52.0168 189.927C52.1769 189.742 52.2907 189.52 52.3584 189.262H53.4479C53.3864 189.68 53.234 190.057 52.9909 190.393C52.7508 190.725 52.4323 190.99 52.0353 191.187C51.6414 191.381 51.1828 191.478 50.6596 191.478ZM50.1425 191.293H51.0474L50.9735 191.662C51.2136 191.699 51.4336 191.799 51.6337 191.962C51.8337 192.129 51.9337 192.392 51.9337 192.752C51.9337 193.149 51.7691 193.472 51.4398 193.721C51.1135 193.974 50.6319 194.1 49.9948 194.1L49.9579 193.38C50.2441 193.38 50.4811 193.334 50.6688 193.241C50.8596 193.152 50.955 193.001 50.955 192.789C50.955 192.576 50.8766 192.432 50.7196 192.355C50.5626 192.278 50.3087 192.226 49.9579 192.198L50.1425 191.293ZM55.0406 191.33V184.239H56.1301V191.33H55.0406ZM59.1412 188.745L59.1227 187.397H59.3443L62.4466 184.239H63.7946L60.4892 187.581H60.3969L59.1412 188.745ZM58.1256 191.33V181.875H59.2151V191.33H58.1256ZM62.6313 191.33L59.8614 187.821L60.6369 187.064L64.0162 191.33H62.6313ZM66.2864 181.875V191.33H65.1969V181.875H66.2864ZM70.3685 191.496C69.9191 191.496 69.5113 191.412 69.1451 191.242C68.7789 191.07 68.488 190.822 68.2726 190.499C68.0572 190.173 67.9494 189.779 67.9494 189.317C67.9494 188.911 68.0295 188.582 68.1895 188.329C68.3495 188.074 68.5634 187.874 68.8312 187.729C69.0989 187.584 69.3944 187.477 69.7176 187.406C70.0438 187.332 70.3716 187.274 70.7009 187.231C71.1317 187.175 71.481 187.134 71.7488 187.106C72.0196 187.075 72.2166 187.024 72.3397 186.954C72.4659 186.883 72.529 186.76 72.529 186.584V186.547C72.529 186.092 72.4043 185.738 72.1551 185.486C71.9088 185.233 71.5349 185.107 71.0332 185.107C70.5131 185.107 70.1053 185.221 69.8099 185.449C69.5144 185.676 69.3067 185.919 69.1867 186.178L68.1526 185.809C68.3372 185.378 68.5834 185.042 68.8912 184.802C69.202 184.559 69.5406 184.39 69.9068 184.294C70.2761 184.196 70.6393 184.147 70.9963 184.147C71.2241 184.147 71.4857 184.174 71.7811 184.23C72.0796 184.282 72.3674 184.391 72.6444 184.558C72.9245 184.724 73.1568 184.975 73.3415 185.31C73.5261 185.646 73.6185 186.095 73.6185 186.658V191.33H72.529V190.37H72.4736C72.3997 190.524 72.2766 190.688 72.1043 190.864C71.9319 191.039 71.7026 191.188 71.4164 191.312C71.1302 191.435 70.7809 191.496 70.3685 191.496ZM70.5347 190.517C70.9655 190.517 71.3287 190.433 71.6242 190.264C71.9227 190.094 72.1474 189.876 72.2982 189.608C72.452 189.34 72.529 189.059 72.529 188.763V187.766C72.4828 187.821 72.3813 187.872 72.2243 187.918C72.0704 187.961 71.8919 188 71.6888 188.034C71.4887 188.065 71.2933 188.092 71.1025 188.117C70.9148 188.138 70.7624 188.157 70.6455 188.172C70.3623 188.209 70.0976 188.269 69.8514 188.352C69.6083 188.432 69.4113 188.554 69.2605 188.717C69.1128 188.877 69.0389 189.096 69.0389 189.373C69.0389 189.751 69.179 190.037 69.459 190.231C69.7422 190.422 70.1007 190.517 70.5347 190.517ZM75.607 191.33V184.239H76.6596V185.347H76.7519C76.8996 184.968 77.1382 184.675 77.4675 184.465C77.7968 184.253 78.1922 184.147 78.6539 184.147C79.1217 184.147 79.511 184.253 79.8219 184.465C80.1358 184.675 80.3805 184.968 80.5559 185.347H80.6297C80.8113 184.981 81.0837 184.69 81.4469 184.475C81.81 184.256 82.2455 184.147 82.7533 184.147C83.3873 184.147 83.9059 184.345 84.3091 184.742C84.7123 185.136 84.9138 185.75 84.9138 186.584V191.33H83.8244V186.584C83.8244 186.061 83.6812 185.687 83.395 185.462C83.1088 185.238 82.7718 185.125 82.384 185.125C81.8854 185.125 81.4992 185.276 81.2253 185.578C80.9514 185.876 80.8144 186.255 80.8144 186.714V191.33H79.7065V186.473C79.7065 186.07 79.5757 185.746 79.3141 185.499C79.0525 185.25 78.7155 185.125 78.303 185.125C78.0199 185.125 77.7552 185.201 77.509 185.352C77.2659 185.502 77.0689 185.712 76.9181 185.979C76.7704 186.244 76.6965 186.55 76.6965 186.898V191.33H75.607ZM88.9925 191.496C88.5432 191.496 88.1354 191.412 87.7691 191.242C87.4029 191.07 87.1121 190.822 86.8966 190.499C86.6812 190.173 86.5735 189.779 86.5735 189.317C86.5735 188.911 86.6535 188.582 86.8135 188.329C86.9736 188.074 87.1875 187.874 87.4552 187.729C87.723 187.584 88.0184 187.477 88.3416 187.406C88.6678 187.332 88.9956 187.274 89.3249 187.231C89.7558 187.175 90.1051 187.134 90.3728 187.106C90.6437 187.075 90.8406 187.024 90.9637 186.954C91.0899 186.883 91.153 186.76 91.153 186.584V186.547C91.153 186.092 91.0284 185.738 90.7791 185.486C90.5329 185.233 90.1589 185.107 89.6573 185.107C89.1371 185.107 88.7294 185.221 88.4339 185.449C88.1384 185.676 87.9307 185.919 87.8107 186.178L86.7766 185.809C86.9612 185.378 87.2075 185.042 87.5152 184.802C87.8261 184.559 88.1646 184.39 88.5309 184.294C88.9002 184.196 89.2633 184.147 89.6203 184.147C89.8481 184.147 90.1097 184.174 90.4051 184.23C90.7037 184.282 90.9914 184.391 91.2684 184.558C91.5485 184.724 91.7809 184.975 91.9655 185.31C92.1502 185.646 92.2425 186.095 92.2425 186.658V191.33H91.153V190.37H91.0976C91.0237 190.524 90.9006 190.688 90.7283 190.864C90.5559 191.039 90.3267 191.188 90.0404 191.312C89.7542 191.435 89.4049 191.496 88.9925 191.496ZM89.1587 190.517C89.5896 190.517 89.9527 190.433 90.2482 190.264C90.5467 190.094 90.7714 189.876 90.9222 189.608C91.0761 189.34 91.153 189.059 91.153 188.763V187.766C91.1068 187.821 91.0053 187.872 90.8483 187.918C90.6944 187.961 90.5159 188 90.3128 188.034C90.1128 188.065 89.9173 188.092 89.7265 188.117C89.5388 188.138 89.3864 188.157 89.2695 188.172C88.9863 188.209 88.7217 188.269 88.4755 188.352C88.2323 188.432 88.0353 188.554 87.8845 188.717C87.7368 188.877 87.663 189.096 87.663 189.373C87.663 189.751 87.803 190.037 88.0831 190.231C88.3662 190.422 88.7247 190.517 89.1587 190.517ZM95.3205 187.064V191.33H94.231V184.239H95.2836V185.347H95.3759C95.5421 184.987 95.7945 184.698 96.133 184.479C96.4716 184.258 96.9086 184.147 97.4441 184.147C97.9242 184.147 98.3443 184.245 98.7044 184.442C99.0645 184.636 99.3446 184.932 99.5446 185.329C99.7447 185.723 99.8447 186.221 99.8447 186.824V191.33H98.7552V186.898C98.7552 186.341 98.6105 185.907 98.3212 185.596C98.0319 185.282 97.6349 185.125 97.1302 185.125C96.7824 185.125 96.4716 185.201 96.1977 185.352C95.9268 185.502 95.7129 185.723 95.556 186.012C95.399 186.301 95.3205 186.652 95.3205 187.064ZM101.836 191.33V184.239H102.925V191.33H101.836ZM104.717 191.33V190.499L108.743 185.329V185.255H104.847V184.239H110.146V185.107L106.232 190.24V190.314H110.276V191.33H104.717ZM111.954 191.33V184.239H113.043V191.33H111.954ZM118.843 191.33V181.875H119.932V185.365H120.024C120.104 185.242 120.215 185.085 120.357 184.895C120.501 184.701 120.708 184.528 120.975 184.378C121.246 184.224 121.613 184.147 122.074 184.147C122.671 184.147 123.198 184.296 123.653 184.595C124.109 184.893 124.464 185.316 124.719 185.864C124.975 186.412 125.103 187.058 125.103 187.803C125.103 188.554 124.975 189.205 124.719 189.756C124.464 190.304 124.11 190.728 123.658 191.03C123.205 191.328 122.684 191.478 122.093 191.478C121.637 191.478 121.272 191.402 120.999 191.252C120.725 191.098 120.514 190.924 120.366 190.73C120.218 190.533 120.104 190.37 120.024 190.24H119.895V191.33H118.843ZM119.914 187.785C119.914 188.32 119.992 188.792 120.149 189.202C120.306 189.608 120.535 189.927 120.837 190.157C121.139 190.385 121.508 190.499 121.945 190.499C122.4 190.499 122.78 190.379 123.085 190.139C123.393 189.896 123.624 189.57 123.778 189.16C123.935 188.748 124.013 188.289 124.013 187.785C124.013 187.286 123.936 186.837 123.782 186.437C123.631 186.033 123.402 185.715 123.094 185.481C122.79 185.244 122.407 185.125 121.945 185.125C121.502 185.125 121.129 185.238 120.828 185.462C120.526 185.684 120.298 185.995 120.144 186.395C119.991 186.792 119.914 187.255 119.914 187.785ZM131.238 188.431V184.239H132.327V191.33H131.238V190.13H131.164C130.998 190.49 130.739 190.796 130.388 191.048C130.038 191.298 129.594 191.422 129.059 191.422C128.616 191.422 128.222 191.325 127.877 191.131C127.532 190.935 127.262 190.639 127.065 190.245C126.868 189.848 126.769 189.348 126.769 188.745V184.239H127.859V188.671C127.859 189.188 128.003 189.6 128.293 189.908C128.585 190.216 128.957 190.37 129.41 190.37C129.681 190.37 129.956 190.301 130.236 190.162C130.519 190.024 130.756 189.811 130.947 189.525C131.141 189.239 131.238 188.874 131.238 188.431ZM134.323 191.33V184.239H135.375V185.31H135.449C135.579 184.959 135.812 184.675 136.151 184.456C136.49 184.238 136.871 184.128 137.296 184.128C137.376 184.128 137.476 184.13 137.596 184.133C137.716 184.136 137.807 184.141 137.868 184.147V185.255C137.831 185.245 137.747 185.232 137.614 185.213C137.485 185.192 137.348 185.181 137.204 185.181C136.859 185.181 136.551 185.253 136.28 185.398C136.012 185.539 135.8 185.736 135.643 185.989C135.489 186.238 135.412 186.523 135.412 186.843V191.33H134.323ZM141.246 191.496C140.797 191.496 140.389 191.412 140.023 191.242C139.657 191.07 139.366 190.822 139.151 190.499C138.935 190.173 138.827 189.779 138.827 189.317C138.827 188.911 138.907 188.582 139.067 188.329C139.227 188.074 139.441 187.874 139.709 187.729C139.977 187.584 140.272 187.477 140.595 187.406C140.922 187.332 141.249 187.274 141.579 187.231C142.01 187.175 142.359 187.134 142.627 187.106C142.898 187.075 143.095 187.024 143.218 186.954C143.344 186.883 143.407 186.76 143.407 186.584V186.547C143.407 186.092 143.282 185.738 143.033 185.486C142.787 185.233 142.413 185.107 141.911 185.107C141.391 185.107 140.983 185.221 140.688 185.449C140.392 185.676 140.185 185.919 140.065 186.178L139.03 185.809C139.215 185.378 139.461 185.042 139.769 184.802C140.08 184.559 140.419 184.39 140.785 184.294C141.154 184.196 141.517 184.147 141.874 184.147C142.102 184.147 142.364 184.174 142.659 184.23C142.958 184.282 143.245 184.391 143.522 184.558C143.802 184.724 144.035 184.975 144.219 185.31C144.404 185.646 144.496 186.095 144.496 186.658V191.33H143.407V190.37H143.352C143.278 190.524 143.155 190.688 142.982 190.864C142.81 191.039 142.581 191.188 142.294 191.312C142.008 191.435 141.659 191.496 141.246 191.496ZM141.413 190.517C141.843 190.517 142.207 190.433 142.502 190.264C142.801 190.094 143.025 189.876 143.176 189.608C143.33 189.34 143.407 189.059 143.407 188.763V187.766C143.361 187.821 143.259 187.872 143.102 187.918C142.948 187.961 142.77 188 142.567 188.034C142.367 188.065 142.171 188.092 141.98 188.117C141.793 188.138 141.64 188.157 141.523 188.172C141.24 188.209 140.976 188.269 140.729 188.352C140.486 188.432 140.289 188.554 140.138 188.717C139.991 188.877 139.917 189.096 139.917 189.373C139.917 189.751 140.057 190.037 140.337 190.231C140.62 190.422 140.979 190.517 141.413 190.517ZM146.933 193.989C146.748 193.989 146.583 193.974 146.439 193.943C146.294 193.915 146.194 193.888 146.139 193.86L146.416 192.9C146.68 192.967 146.914 192.992 147.117 192.973C147.321 192.955 147.501 192.864 147.658 192.701C147.818 192.541 147.964 192.281 148.096 191.921L148.299 191.367L145.677 184.239H146.859L148.816 189.89H148.89L150.848 184.239H152.029L149.019 192.364C148.884 192.73 148.716 193.033 148.516 193.274C148.316 193.517 148.084 193.697 147.819 193.814C147.558 193.931 147.262 193.989 146.933 193.989ZM155.338 191.496C154.889 191.496 154.481 191.412 154.115 191.242C153.749 191.07 153.458 190.822 153.242 190.499C153.027 190.173 152.919 189.779 152.919 189.317C152.919 188.911 152.999 188.582 153.159 188.329C153.319 188.074 153.533 187.874 153.801 187.729C154.069 187.584 154.364 187.477 154.687 187.406C155.014 187.332 155.341 187.274 155.671 187.231C156.101 187.175 156.451 187.134 156.719 187.106C156.989 187.075 157.186 187.024 157.309 186.954C157.436 186.883 157.499 186.76 157.499 186.584V186.547C157.499 186.092 157.374 185.738 157.125 185.486C156.879 185.233 156.505 185.107 156.003 185.107C155.483 185.107 155.075 185.221 154.78 185.449C154.484 185.676 154.276 185.919 154.156 186.178L153.122 185.809C153.307 185.378 153.553 185.042 153.861 184.802C154.172 184.559 154.51 184.39 154.877 184.294C155.246 184.196 155.609 184.147 155.966 184.147C156.194 184.147 156.455 184.174 156.751 184.23C157.049 184.282 157.337 184.391 157.614 184.558C157.894 184.724 158.127 184.975 158.311 185.31C158.496 185.646 158.588 186.095 158.588 186.658V191.33H157.499V190.37H157.443C157.369 190.524 157.246 190.688 157.074 190.864C156.902 191.039 156.672 191.188 156.386 191.312C156.1 191.435 155.751 191.496 155.338 191.496ZM155.504 190.517C155.935 190.517 156.298 190.433 156.594 190.264C156.892 190.094 157.117 189.876 157.268 189.608C157.422 189.34 157.499 189.059 157.499 188.763V187.766C157.453 187.821 157.351 187.872 157.194 187.918C157.04 187.961 156.862 188 156.659 188.034C156.458 188.065 156.263 188.092 156.072 188.117C155.884 188.138 155.732 188.157 155.615 188.172C155.332 188.209 155.067 188.269 154.821 188.352C154.578 188.432 154.381 188.554 154.23 188.717C154.083 188.877 154.009 189.096 154.009 189.373C154.009 189.751 154.149 190.037 154.429 190.231C154.712 190.422 155.07 190.517 155.504 190.517ZM164.935 193.989C164.75 193.989 164.585 193.974 164.441 193.943C164.296 193.915 164.196 193.888 164.141 193.86L164.418 192.9C164.682 192.967 164.916 192.992 165.119 192.973C165.322 192.955 165.503 192.864 165.659 192.701C165.82 192.541 165.966 192.281 166.098 191.921L166.301 191.367L163.679 184.239H164.861L166.818 189.89H166.892L168.849 184.239H170.031L167.021 192.364C166.886 192.73 166.718 193.033 166.518 193.274C166.318 193.517 166.086 193.697 165.821 193.814C165.559 193.931 165.264 193.989 164.935 193.989ZM173.34 191.496C172.891 191.496 172.483 191.412 172.117 191.242C171.751 191.07 171.46 190.822 171.244 190.499C171.029 190.173 170.921 189.779 170.921 189.317C170.921 188.911 171.001 188.582 171.161 188.329C171.321 188.074 171.535 187.874 171.803 187.729C172.071 187.584 172.366 187.477 172.689 187.406C173.015 187.332 173.343 187.274 173.673 187.231C174.103 187.175 174.453 187.134 174.72 187.106C174.991 187.075 175.188 187.024 175.311 186.954C175.438 186.883 175.501 186.76 175.501 186.584V186.547C175.501 186.092 175.376 185.738 175.127 185.486C174.881 185.233 174.507 185.107 174.005 185.107C173.485 185.107 173.077 185.221 172.782 185.449C172.486 185.676 172.278 185.919 172.158 186.178L171.124 185.809C171.309 185.378 171.555 185.042 171.863 184.802C172.174 184.559 172.512 184.39 172.879 184.294C173.248 184.196 173.611 184.147 173.968 184.147C174.196 184.147 174.457 184.174 174.753 184.23C175.051 184.282 175.339 184.391 175.616 184.558C175.896 184.724 176.129 184.975 176.313 185.31C176.498 185.646 176.59 186.095 176.59 186.658V191.33H175.501V190.37H175.445C175.371 190.524 175.248 190.688 175.076 190.864C174.904 191.039 174.674 191.188 174.388 191.312C174.102 191.435 173.753 191.496 173.34 191.496ZM173.506 190.517C173.937 190.517 174.3 190.433 174.596 190.264C174.894 190.094 175.119 189.876 175.27 189.608C175.424 189.34 175.501 189.059 175.501 188.763V187.766C175.455 187.821 175.353 187.872 175.196 187.918C175.042 187.961 174.864 188 174.66 188.034C174.46 188.065 174.265 188.092 174.074 188.117C173.886 188.138 173.734 188.157 173.617 188.172C173.334 188.209 173.069 188.269 172.823 188.352C172.58 188.432 172.383 188.554 172.232 188.717C172.084 188.877 172.011 189.096 172.011 189.373C172.011 189.751 172.151 190.037 172.431 190.231C172.714 190.422 173.072 190.517 173.506 190.517ZM178.376 191.33V190.499L182.401 185.329V185.255H178.505V184.239H183.805V185.107L179.89 190.24V190.314H183.934V191.33H178.376ZM185.612 191.33V184.239H186.701V191.33H185.612ZM189.786 187.064V191.33H188.697V184.239H189.749V185.347H189.842C190.008 184.987 190.26 184.698 190.599 184.479C190.937 184.258 191.374 184.147 191.91 184.147C192.39 184.147 192.81 184.245 193.17 184.442C193.53 184.636 193.81 184.932 194.01 185.329C194.21 185.723 194.311 186.221 194.311 186.824V191.33H193.221V186.898C193.221 186.341 193.076 185.907 192.787 185.596C192.498 185.282 192.101 185.125 191.596 185.125C191.248 185.125 190.937 185.201 190.663 185.352C190.393 185.502 190.179 185.723 190.022 186.012C189.865 186.301 189.786 186.652 189.786 187.064ZM197.095 191.404C196.868 191.404 196.672 191.322 196.509 191.159C196.346 190.996 196.264 190.801 196.264 190.573C196.264 190.345 196.346 190.15 196.509 189.987C196.672 189.823 196.868 189.742 197.095 189.742C197.323 189.742 197.519 189.823 197.682 189.987C197.845 190.15 197.926 190.345 197.926 190.573C197.926 190.724 197.888 190.862 197.811 190.988C197.737 191.115 197.637 191.216 197.511 191.293C197.388 191.367 197.249 191.404 197.095 191.404Z" fill="#737373"/>
</g>
<path d="M28.814 227.66H27.591L30.339 220.024H31.6702L34.4182 227.66H33.1952L31.0363 221.411H30.9766L28.814 227.66ZM29.0191 224.67H32.9864V225.639H29.0191V224.67ZM41.7796 222.507H40.6162C40.5715 222.258 40.4882 222.04 40.3664 221.851C40.2446 221.662 40.0955 221.501 39.919 221.37C39.7425 221.238 39.5449 221.139 39.3261 221.071C39.1098 221.004 38.8799 220.971 38.6363 220.971C38.1963 220.971 37.8023 221.081 37.4543 221.303C37.1088 221.524 36.8353 221.848 36.634 222.276C36.4351 222.703 36.3357 223.225 36.3357 223.842C36.3357 224.463 36.4351 224.988 36.634 225.415C36.8353 225.843 37.11 226.166 37.458 226.385C37.806 226.604 38.1976 226.713 38.6326 226.713C38.8737 226.713 39.1024 226.681 39.3186 226.616C39.5374 226.549 39.735 226.451 39.9115 226.321C40.088 226.192 40.2371 226.034 40.359 225.848C40.4832 225.659 40.569 225.443 40.6162 225.199L41.7796 225.203C41.7174 225.578 41.5969 225.924 41.4179 226.239C41.2414 226.553 41.014 226.824 40.7355 227.052C40.4596 227.278 40.1439 227.454 39.7885 227.578C39.433 227.702 39.0452 227.764 38.6251 227.764C37.9639 227.764 37.3748 227.608 36.8577 227.295C36.3407 226.979 35.933 226.528 35.6347 225.941C35.3389 225.354 35.191 224.655 35.191 223.842C35.191 223.026 35.3401 222.327 35.6384 221.743C35.9367 221.156 36.3444 220.706 36.8614 220.393C37.3785 220.077 37.9664 219.919 38.6251 219.919C39.0303 219.919 39.4081 219.978 39.7586 220.094C40.1116 220.209 40.4286 220.378 40.7094 220.602C40.9903 220.823 41.2228 221.094 41.4067 221.414C41.5907 221.733 41.715 222.097 41.7796 222.507ZM38.2336 227.671H38.9644L38.9048 227.977C39.121 228.012 39.3099 228.099 39.4715 228.238C39.6331 228.377 39.7139 228.587 39.7139 228.868C39.7164 229.204 39.571 229.476 39.2776 229.685C38.9868 229.893 38.5654 229.998 38.0136 229.998L37.9912 229.375C38.2498 229.375 38.4586 229.338 38.6177 229.263C38.7792 229.189 38.8613 229.068 38.8637 228.902C38.8662 228.735 38.8041 228.618 38.6773 228.551C38.553 228.484 38.3542 228.437 38.0807 228.409L38.2336 227.671ZM44.5854 220.024V227.66H43.4333V220.024H44.5854ZM46.5383 227.66V220.024H47.6905V223.67H47.7837L50.9867 220.024H52.4371L49.3572 223.461L52.4483 227.66H51.0613L48.5929 224.248L47.6905 225.285V227.66H46.5383ZM56.8398 220.024H58.2381L60.6692 225.96H60.7587L63.1898 220.024H64.588V227.66H63.4918V222.134H63.421L61.1688 227.649H60.259L58.0069 222.13H57.936V227.66H56.8398V220.024ZM66.5382 227.66V220.024H71.3258V221.015H67.6903V223.342H71.076V224.33H67.6903V226.668H71.3705V227.66H66.5382ZM72.7632 221.015V220.024H78.6732V221.015H76.2906V227.66H75.1421V221.015H72.7632ZM86.4177 220.024V227.66H85.3587L81.4772 222.06H81.4063V227.66H80.2542V220.024H81.3206L85.2059 225.632H85.2767V220.024H86.4177ZM89.5256 220.024V227.66H88.3734V220.024H89.5256Z" fill="#A1A1A1"/>
<rect x="25.33" y="238.66" width="304.665" height="37.3333" rx="8" fill="#171717" fill-opacity="0.6"/>
<rect x="25.83" y="239.16" width="303.665" height="36.3333" rx="7.5" stroke="white" stroke-opacity="0.1"/>
<path d="M39.0974 262.327V253.236H44.5839V254.212H40.1983V257.284H44.2998V258.261H40.1983V261.35H44.655V262.327H39.0974ZM52.0014 255.508L49.4801 262.327H48.4147L45.8934 255.508H47.0298L48.9119 260.942H48.9829L50.865 255.508H52.0014ZM55.9986 262.469C55.3417 262.469 54.775 262.324 54.2985 262.034C53.825 261.741 53.4596 261.332 53.2021 260.809C52.9476 260.282 52.8204 259.669 52.8204 258.971C52.8204 258.272 52.9476 257.657 53.2021 257.124C53.4596 256.589 53.8176 256.171 54.2763 255.872C54.738 255.571 55.2766 255.42 55.8921 255.42C56.2472 255.42 56.5979 255.479 56.9441 255.597C57.2903 255.716 57.6055 255.908 57.8896 256.174C58.1737 256.438 58.4001 256.787 58.5688 257.222C58.7374 257.657 58.8218 258.193 58.8218 258.829V259.273H53.5661V258.367H57.7564C57.7564 257.982 57.6795 257.639 57.5256 257.337C57.3747 257.035 57.1587 256.797 56.8775 256.623C56.5994 256.448 56.2709 256.361 55.8921 256.361C55.4748 256.361 55.1138 256.464 54.809 256.671C54.5071 256.876 54.2748 257.142 54.1121 257.47C53.9493 257.799 53.8679 258.151 53.8679 258.527V259.131C53.8679 259.646 53.9567 260.082 54.1343 260.44C54.3148 260.795 54.5649 261.066 54.8845 261.252C55.2041 261.436 55.5754 261.528 55.9986 261.528C56.2738 261.528 56.5224 261.489 56.7444 261.412C56.9693 261.332 57.1631 261.214 57.3259 261.057C57.4886 260.897 57.6144 260.699 57.7032 260.462L58.7152 260.746C58.6087 261.09 58.4297 261.392 58.1781 261.652C57.9266 261.909 57.6159 262.111 57.246 262.256C56.8761 262.398 56.4603 262.469 55.9986 262.469ZM63.3805 255.508V256.396H59.8472V255.508H63.3805ZM60.877 253.875H61.9246V260.374C61.9246 260.669 61.9675 260.891 62.0533 261.039C62.1421 261.184 62.2545 261.282 62.3907 261.332C62.5298 261.38 62.6762 261.403 62.8301 261.403C62.9455 261.403 63.0402 261.397 63.1142 261.386C63.1882 261.371 63.2474 261.359 63.2918 261.35L63.5048 262.291C63.4338 262.318 63.3347 262.344 63.2074 262.371C63.0802 262.401 62.9189 262.415 62.7236 262.415C62.4277 262.415 62.1377 262.352 61.8536 262.225C61.5724 262.097 61.3386 261.903 61.1522 261.643C60.9687 261.383 60.877 261.054 60.877 260.658V253.875Z" fill="#F5F5F5"/>
<path d="M344.834 227.66V220.024H345.986V223.67H346.079L349.282 220.024H350.733L347.653 223.461L350.744 227.66H349.357L346.888 224.248L345.986 225.285V227.66H344.834ZM352.727 227.66H351.504L354.252 220.024H355.583L358.331 227.66H357.108L354.949 221.411H354.889L352.727 227.66ZM352.932 224.67H356.899V225.639H352.932V224.67ZM359.709 227.66V220.024H362.43C363.025 220.024 363.517 220.132 363.907 220.348C364.297 220.564 364.589 220.86 364.783 221.235C364.977 221.608 365.074 222.028 365.074 222.496C365.074 222.966 364.976 223.388 364.78 223.764C364.586 224.136 364.292 224.432 363.9 224.651C363.509 224.867 363.018 224.975 362.427 224.975H360.555V223.998H362.322C362.698 223.998 363.002 223.934 363.236 223.805C363.47 223.673 363.641 223.494 363.75 223.268C363.86 223.041 363.915 222.784 363.915 222.496C363.915 222.207 363.86 221.951 363.75 221.728C363.641 221.504 363.468 221.329 363.232 221.202C362.998 221.075 362.69 221.012 362.307 221.012H360.861V227.66H359.709ZM366.535 227.66H365.312L368.06 220.024H369.391L372.139 227.66H370.916L368.757 221.411H368.697L366.535 227.66ZM366.74 224.67H370.707V225.639H366.74V224.67ZM373.517 227.66V220.024H374.669V226.668H378.129V227.66H373.517ZM380.871 220.024V227.66H379.719V220.024H380.871ZM385.877 220.024H387.276L389.707 225.96H389.796L392.227 220.024H393.626V227.66H392.529V222.134H392.459L390.206 227.649H389.297L387.045 222.13H386.974V227.66H385.877V220.024ZM395.576 227.66V220.024H400.363V221.015H396.728V223.342H400.114V224.33H396.728V226.668H400.408V227.66H395.576ZM401.801 221.015V220.024H407.711V221.015H405.328V227.66H404.18V221.015H401.801ZM415.455 220.024V227.66H414.396L410.515 222.06H410.444V227.66H409.292V220.024H410.358L414.244 225.632H414.314V220.024H415.455ZM418.563 220.024V227.66H417.411V220.024H418.563Z" fill="#A1A1A1"/>
<rect x="341.995" y="238.66" width="304.665" height="37.3333" rx="8" fill="#171717" fill-opacity="0.6"/>
<rect x="342.495" y="239.16" width="303.665" height="36.3333" rx="7.5" stroke="white" stroke-opacity="0.1"/>
<path d="M355.815 262.327V252.799H356.969V257.042H362.049V252.799H363.203V262.327H362.049V258.065H356.969V262.327H355.815ZM367.466 262.494C367.013 262.494 366.603 262.409 366.233 262.238C365.864 262.065 365.571 261.815 365.354 261.489C365.137 261.161 365.029 260.764 365.029 260.298C365.029 259.889 365.109 259.557 365.27 259.303C365.432 259.045 365.647 258.844 365.917 258.698C366.187 258.552 366.485 258.444 366.81 258.372C367.139 258.298 367.469 258.239 367.801 258.196C368.235 258.14 368.587 258.098 368.857 258.07C369.13 258.039 369.329 257.988 369.453 257.917C369.58 257.845 369.643 257.721 369.643 257.544V257.507C369.643 257.048 369.518 256.692 369.267 256.437C369.018 256.183 368.642 256.056 368.136 256.056C367.612 256.056 367.201 256.171 366.903 256.4C366.606 256.63 366.396 256.875 366.275 257.135L365.233 256.763C365.419 256.329 365.667 255.991 365.978 255.749C366.291 255.504 366.632 255.333 367.001 255.237C367.373 255.138 367.739 255.088 368.099 255.088C368.328 255.088 368.592 255.116 368.89 255.172C369.191 255.225 369.481 255.335 369.76 255.502C370.042 255.67 370.276 255.922 370.462 256.26C370.648 256.599 370.741 257.051 370.741 257.619V262.327H369.643V261.359H369.588C369.513 261.514 369.389 261.68 369.215 261.857C369.042 262.034 368.811 262.184 368.522 262.308C368.234 262.432 367.882 262.494 367.466 262.494ZM367.634 261.508C368.068 261.508 368.434 261.423 368.732 261.252C369.032 261.081 369.259 260.861 369.411 260.591C369.566 260.322 369.643 260.038 369.643 259.74V258.735C369.597 258.791 369.494 258.842 369.336 258.889C369.181 258.932 369.001 258.971 368.797 259.005C368.595 259.036 368.398 259.064 368.206 259.089C368.017 259.111 367.863 259.129 367.745 259.145C367.46 259.182 367.193 259.242 366.945 259.326C366.7 259.407 366.502 259.529 366.35 259.694C366.201 259.855 366.126 260.075 366.126 260.354C366.126 260.736 366.268 261.024 366.55 261.219C366.835 261.412 367.196 261.508 367.634 261.508ZM373.196 265.006C373.01 265.006 372.844 264.991 372.699 264.96C372.553 264.932 372.452 264.904 372.396 264.876L372.675 263.908C372.942 263.977 373.178 264.001 373.382 263.983C373.587 263.964 373.769 263.873 373.927 263.708C374.088 263.547 374.235 263.285 374.369 262.922L374.573 262.364L371.931 255.181H373.122L375.094 260.875H375.169L377.141 255.181H378.332L375.299 263.369C375.163 263.738 374.994 264.043 374.792 264.285C374.59 264.53 374.356 264.712 374.089 264.829C373.826 264.947 373.528 265.006 373.196 265.006ZM379.781 262.327V255.181H380.879V262.327H379.781ZM382.89 262.327V255.181H383.951V256.26H384.025C384.155 255.907 384.391 255.62 384.732 255.4C385.073 255.18 385.458 255.07 385.886 255.07C385.966 255.07 386.067 255.071 386.188 255.074C386.309 255.077 386.401 255.082 386.463 255.088V256.205C386.425 256.195 386.34 256.181 386.207 256.163C386.077 256.141 385.938 256.13 385.793 256.13C385.445 256.13 385.135 256.203 384.862 256.349C384.593 256.492 384.379 256.69 384.22 256.944C384.065 257.196 383.988 257.482 383.988 257.805V262.327H382.89Z" fill="#F5F5F5"/>
<defs>
<clipPath id="clip0_1_105">
<rect width="376.58" height="20" fill="white" transform="translate(57.33 24.5067)"/>
</clipPath>
<clipPath id="clip1_1_105">
<rect width="596" height="16" fill="white" transform="translate(37.9966 178.33)"/>
</clipPath>
</defs>
</svg>
