<svg width="616" height="285" viewBox="0 0 616 285" fill="none" xmlns="http://www.w3.org/2000/svg">
<rect width="616" height="284.653" rx="12" fill="#171717"/>
<rect x="0.5" y="0.5" width="615" height="283.653" rx="11.5" stroke="white" stroke-opacity="0.1"/>
<rect x="13" y="14.1667" width="24" height="24" rx="6" fill="white" fill-opacity="0.05"/>
<rect x="13.5" y="14.6667" width="23" height="23" rx="5.5" stroke="white" stroke-opacity="0.1"/>
<path d="M25.0029 29.8433C24.7228 29.8433 24.4828 29.7448 24.2827 29.5478C24.0827 29.3508 23.9842 29.1108 23.9873 28.8276C23.9842 28.5506 24.0827 28.3137 24.2827 28.1167C24.4828 27.9197 24.7228 27.8212 25.0029 27.8212C25.2737 27.8212 25.5092 27.9197 25.7092 28.1167C25.9123 28.3137 26.0154 28.5506 26.0185 28.8276C26.0154 29.0154 25.9662 29.1862 25.8708 29.3401C25.7785 29.4939 25.6553 29.6171 25.5015 29.7094C25.3507 29.7986 25.1845 29.8433 25.0029 29.8433Z" fill="#E5E5E5"/>
<g clip-path="url(#clip0_2_2)">
<path d="M50.8798 31.1667H49.3306L52.8115 21.494H54.4976L57.9784 31.1667H56.4293L53.6947 23.2509H53.6191L50.8798 31.1667ZM51.1395 27.3788H56.1648V28.6068H51.1395V27.3788ZM60.6741 26.8593V31.1667H59.2619V23.9121H60.6174V25.0929H60.7072C60.874 24.7088 61.1354 24.4002 61.4912 24.1672C61.8501 23.9342 62.302 23.8177 62.8467 23.8177C63.341 23.8177 63.774 23.9216 64.1455 24.1294C64.5171 24.3341 64.8052 24.6395 65.0098 25.0457C65.2145 25.4518 65.3168 25.9541 65.3168 26.5523V31.1667H63.9046V26.7223C63.9046 26.1965 63.7677 25.7856 63.4937 25.4896C63.2198 25.1905 62.8435 25.0409 62.3649 25.0409C62.0375 25.0409 61.7462 25.1118 61.4912 25.2535C61.2393 25.3952 61.0394 25.603 60.8914 25.8769C60.7465 26.1477 60.6741 26.4752 60.6741 26.8593ZM69.3219 31.3273C68.8622 31.3273 68.4466 31.2423 68.0751 31.0722C67.7035 30.899 67.4091 30.6487 67.1919 30.3213C66.9778 29.9938 66.8707 29.5923 66.8707 29.1169C66.8707 28.7076 66.9494 28.3707 67.1068 28.1062C67.2643 27.8417 67.4768 27.6323 67.7445 27.478C68.0121 27.3237 68.3112 27.2072 68.6418 27.1285C68.9724 27.0498 69.3093 26.99 69.6525 26.949C70.0871 26.8987 70.4397 26.8577 70.7105 26.8262C70.9813 26.7916 71.1781 26.7365 71.3009 26.6609C71.4237 26.5854 71.4851 26.4626 71.4851 26.2925V26.2595C71.4851 25.847 71.3686 25.5274 71.1356 25.3007C70.9057 25.074 70.5625 24.9606 70.106 24.9606C69.6305 24.9606 69.2558 25.0661 68.9819 25.2771C68.7111 25.4849 68.5237 25.7163 68.4198 25.9714L67.0927 25.6691C67.2501 25.2283 67.48 24.8725 67.7822 24.6017C68.0877 24.3278 68.4387 24.1294 68.8355 24.0066C69.2322 23.8807 69.6494 23.8177 70.0871 23.8177C70.3767 23.8177 70.6837 23.8523 71.0081 23.9216C71.3355 23.9877 71.6409 24.1105 71.9243 24.29C72.2108 24.4695 72.4454 24.7261 72.628 25.0598C72.8107 25.3904 72.902 25.8202 72.902 26.3492V31.1667H71.5229V30.1749H71.4662C71.3749 30.3575 71.2379 30.537 71.0553 30.7133C70.8727 30.8896 70.6381 31.036 70.3516 31.1525C70.065 31.269 69.7218 31.3273 69.3219 31.3273ZM69.6289 30.1937C70.0194 30.1937 70.3531 30.1166 70.6302 29.9623C70.9104 29.808 71.123 29.6065 71.2678 29.3578C71.4158 29.1059 71.4898 28.8367 71.4898 28.5501V27.615C71.4394 27.6654 71.3418 27.7126 71.197 27.7567C71.0553 27.7976 70.8931 27.8338 70.7105 27.8653C70.5279 27.8936 70.35 27.9204 70.1768 27.9456C70.0036 27.9676 69.8588 27.9865 69.7423 28.0023C69.4684 28.0369 69.218 28.0952 68.9913 28.177C68.7678 28.2589 68.5883 28.377 68.4529 28.5312C68.3207 28.6824 68.2545 28.8839 68.2545 29.1358C68.2545 29.4853 68.3836 29.7498 68.6418 29.9293C68.9 30.1056 69.2291 30.1937 69.6289 30.1937ZM76.1951 26.8593V31.1667H74.7829V21.494H76.1762V25.0929H76.2659C76.436 24.7025 76.6957 24.3923 77.0452 24.1625C77.3947 23.9326 77.8513 23.8177 78.4149 23.8177C78.9124 23.8177 79.3469 23.92 79.7185 24.1247C80.0932 24.3293 80.3828 24.6348 80.5875 25.0409C80.7953 25.444 80.8992 25.9478 80.8992 26.5523V31.1667H79.487V26.7223C79.487 26.1902 79.3501 25.7777 79.0761 25.4849C78.8022 25.1889 78.4212 25.0409 77.9332 25.0409C77.5994 25.0409 77.3003 25.1118 77.0358 25.2535C76.7745 25.3952 76.5682 25.603 76.4171 25.8769C76.2691 26.1477 76.1951 26.4752 76.1951 26.8593ZM86.1701 23.9121V25.0457H82.2075V23.9121H86.1701ZM83.2702 22.1741H84.6823V29.0366C84.6823 29.3105 84.7233 29.5168 84.8051 29.6553C84.887 29.7907 84.9925 29.8836 85.1216 29.934C85.2538 29.9812 85.3971 30.0048 85.5514 30.0048C85.6647 30.0048 85.7639 29.997 85.8489 29.9812C85.9339 29.9655 86.0001 29.9529 86.0473 29.9434L86.3023 31.11C86.2205 31.1415 86.104 31.173 85.9528 31.2045C85.8017 31.2391 85.6128 31.258 85.3861 31.2611C85.0145 31.2674 84.6682 31.2013 84.347 31.0628C84.0259 30.9242 83.7661 30.7101 83.5677 30.4205C83.3694 30.1308 83.2702 29.7671 83.2702 29.3294V22.1741ZM89.8434 31.3273C89.3837 31.3273 88.9681 31.2423 88.5965 31.0722C88.225 30.899 87.9306 30.6487 87.7133 30.3213C87.4992 29.9938 87.3922 29.5923 87.3922 29.1169C87.3922 28.7076 87.4709 28.3707 87.6283 28.1062C87.7858 27.8417 87.9983 27.6323 88.2659 27.478C88.5336 27.3237 88.8327 27.2072 89.1633 27.1285C89.4939 27.0498 89.8308 26.99 90.174 26.949C90.6085 26.8987 90.9612 26.8577 91.232 26.8262C91.5028 26.7916 91.6996 26.7365 91.8224 26.6609C91.9452 26.5854 92.0066 26.4626 92.0066 26.2925V26.2595C92.0066 25.847 91.8901 25.5274 91.6571 25.3007C91.4272 25.074 91.084 24.9606 90.6274 24.9606C90.152 24.9606 89.7773 25.0661 89.5034 25.2771C89.2326 25.4849 89.0452 25.7163 88.9413 25.9714L87.6142 25.6691C87.7716 25.2283 88.0014 24.8725 88.3037 24.6017C88.6091 24.3278 88.9602 24.1294 89.357 24.0066C89.7537 23.8807 90.1709 23.8177 90.6085 23.8177C90.8982 23.8177 91.2052 23.8523 91.5295 23.9216C91.857 23.9877 92.1624 24.1105 92.4458 24.29C92.7323 24.4695 92.9669 24.7261 93.1495 25.0598C93.3322 25.3904 93.4235 25.8202 93.4235 26.3492V31.1667H92.0443V30.1749H91.9877C91.8964 30.3575 91.7594 30.537 91.5768 30.7133C91.3941 30.8896 91.1596 31.036 90.873 31.1525C90.5865 31.269 90.2433 31.3273 89.8434 31.3273ZM90.1504 30.1937C90.5409 30.1937 90.8746 30.1166 91.1517 29.9623C91.4319 29.808 91.6445 29.6065 91.7893 29.3578C91.9373 29.1059 92.0113 28.8367 92.0113 28.5501V27.615C91.9609 27.6654 91.8633 27.7126 91.7185 27.7567C91.5768 27.7976 91.4146 27.8338 91.232 27.8653C91.0494 27.8936 90.8715 27.9204 90.6983 27.9456C90.5251 27.9676 90.3803 27.9865 90.2638 28.0023C89.9898 28.0369 89.7395 28.0952 89.5128 28.177C89.2893 28.2589 89.1098 28.377 88.9744 28.5312C88.8421 28.6824 88.776 28.8839 88.776 29.1358C88.776 29.4853 88.9051 29.7498 89.1633 29.9293C89.4215 30.1056 89.7505 30.1937 90.1504 30.1937ZM95.3044 31.1667V23.9121H96.6694V25.0646H96.7449C96.8772 24.6741 97.1102 24.3671 97.4439 24.1436C97.7808 23.9169 98.1618 23.8035 98.5869 23.8035C98.6751 23.8035 98.779 23.8067 98.8986 23.813C99.0214 23.8193 99.1174 23.8271 99.1867 23.8366V25.1874C99.13 25.1716 99.0293 25.1543 98.8844 25.1354C98.7396 25.1134 98.5948 25.1023 98.4499 25.1023C98.1162 25.1023 97.8186 25.1732 97.5573 25.3149C97.2991 25.4534 97.0944 25.6471 96.9433 25.8958C96.7922 26.1414 96.7166 26.4216 96.7166 26.7365V31.1667H95.3044Z" fill="#E5E5E5"/>
</g>
<rect x="401.333" y="11" width="64.3333" height="30.3333" rx="8" fill="white" fill-opacity="0.05"/>
<rect x="401.833" y="11.5" width="63.3333" height="29.3333" rx="7.5" stroke="white" stroke-opacity="0.1"/>
<path d="M413.25 21.2917V27.7917" stroke="#A1A1A1" stroke-width="1.08333" stroke-linecap="round" stroke-linejoin="round"/>
<path d="M419.75 24.5417C420.647 24.5417 421.375 23.8141 421.375 22.9167C421.375 22.0192 420.647 21.2917 419.75 21.2917C418.852 21.2917 418.125 22.0192 418.125 22.9167C418.125 23.8141 418.852 24.5417 419.75 24.5417Z" stroke="#A1A1A1" stroke-width="1.08333" stroke-linecap="round" stroke-linejoin="round"/>
<path d="M413.25 31.0417C414.147 31.0417 414.875 30.3141 414.875 29.4167C414.875 28.5192 414.147 27.7917 413.25 27.7917C412.352 27.7917 411.625 28.5192 411.625 29.4167C411.625 30.3141 412.352 31.0417 413.25 31.0417Z" stroke="#A1A1A1" stroke-width="1.08333" stroke-linecap="round" stroke-linejoin="round"/>
<path d="M419.75 24.5417C419.75 25.8346 419.236 27.0746 418.322 27.9888C417.408 28.9031 416.168 29.4167 414.875 29.4167" stroke="#A1A1A1" stroke-width="1.08333" stroke-linecap="round" stroke-linejoin="round"/>
<path d="M430.155 29.6667V22.0303H431.307V25.677H431.4L434.603 22.0303H436.054L432.974 25.4682L436.065 29.6667H434.678L432.21 26.2549L431.307 27.2915V29.6667H430.155ZM439.03 29.7823C438.493 29.7823 438.025 29.6592 437.625 29.4131C437.224 29.167 436.914 28.8228 436.692 28.3803C436.471 27.9378 436.36 27.4208 436.36 26.8292C436.36 26.235 436.471 25.7155 436.692 25.2706C436.914 24.8256 437.224 24.4801 437.625 24.234C438.025 23.9879 438.493 23.8648 439.03 23.8648C439.567 23.8648 440.036 23.9879 440.436 24.234C440.836 24.4801 441.147 24.8256 441.368 25.2706C441.589 25.7155 441.7 26.235 441.7 26.8292C441.7 27.4208 441.589 27.9378 441.368 28.3803C441.147 28.8228 440.836 29.167 440.436 29.4131C440.036 29.6592 439.567 29.7823 439.03 29.7823ZM439.034 28.8464C439.382 28.8464 439.67 28.7544 439.899 28.5705C440.128 28.3865 440.297 28.1417 440.406 27.8359C440.518 27.5301 440.574 27.1933 440.574 26.8254C440.574 26.46 440.518 26.1244 440.406 25.8187C440.297 25.5104 440.128 25.2631 439.899 25.0767C439.67 24.8902 439.382 24.797 439.034 24.797C438.683 24.797 438.393 24.8902 438.161 25.0767C437.933 25.2631 437.762 25.5104 437.651 25.8187C437.541 26.1244 437.487 26.46 437.487 26.8254C437.487 27.1933 437.541 27.5301 437.651 27.8359C437.762 28.1417 437.933 28.3865 438.161 28.5705C438.393 28.7544 438.683 28.8464 439.034 28.8464ZM447.236 25.3377L446.226 25.5167C446.183 25.3874 446.116 25.2643 446.024 25.1475C445.935 25.0307 445.813 24.935 445.659 24.8604C445.505 24.7858 445.312 24.7485 445.081 24.7485C444.765 24.7485 444.502 24.8194 444.29 24.9611C444.079 25.1003 443.974 25.2805 443.974 25.5017C443.974 25.6931 444.044 25.8473 444.186 25.9641C444.328 26.0809 444.556 26.1766 444.872 26.2512L445.782 26.46C446.309 26.5818 446.702 26.7695 446.96 27.023C447.219 27.2766 447.348 27.606 447.348 28.0111C447.348 28.3542 447.249 28.6599 447.05 28.9284C446.853 29.1944 446.579 29.4032 446.226 29.5548C445.875 29.7065 445.469 29.7823 445.006 29.7823C444.365 29.7823 443.842 29.6456 443.437 29.3721C443.031 29.0962 442.783 28.7047 442.691 28.1976L443.768 28.0335C443.836 28.3144 443.974 28.5269 444.182 28.6711C444.391 28.8128 444.663 28.8837 444.999 28.8837C445.364 28.8837 445.656 28.8078 445.875 28.6562C446.094 28.5021 446.203 28.3144 446.203 28.0932C446.203 27.9142 446.136 27.7638 446.002 27.642C445.87 27.5202 445.668 27.4282 445.394 27.3661L444.425 27.1535C443.89 27.0317 443.495 26.8379 443.239 26.5719C442.985 26.3059 442.859 25.9691 442.859 25.5614C442.859 25.2233 442.953 24.9275 443.142 24.674C443.331 24.4204 443.592 24.2228 443.925 24.0811C444.258 23.9369 444.64 23.8648 445.07 23.8648C445.689 23.8648 446.176 23.9991 446.531 24.2675C446.887 24.5335 447.122 24.8902 447.236 25.3377ZM444.671 29.6369H445.402L445.342 29.9426C445.558 29.9774 445.747 30.0644 445.909 30.2036C446.07 30.3428 446.151 30.5529 446.151 30.8338C446.154 31.1694 446.008 31.4415 445.715 31.6504C445.424 31.8592 445.003 31.9636 444.451 31.9636L444.428 31.3409C444.687 31.3409 444.896 31.3036 445.055 31.229C445.216 31.1544 445.298 31.0339 445.301 30.8673C445.303 30.7008 445.241 30.5839 445.115 30.5168C444.99 30.4497 444.791 30.4025 444.518 30.3751L444.671 29.6369ZM452.202 27.2915V23.9394H453.32V29.6667H452.224V28.6749H452.165C452.033 28.9806 451.821 29.2354 451.531 29.4392C451.242 29.6406 450.883 29.7413 450.453 29.7413C450.085 29.7413 449.76 29.6605 449.476 29.4989C449.195 29.3348 448.974 29.0925 448.812 28.7718C448.653 28.4511 448.574 28.0546 448.574 27.5823V23.9394H449.689V27.4481C449.689 27.8384 449.797 28.1491 450.013 28.3803C450.229 28.6115 450.51 28.7271 450.856 28.7271C451.065 28.7271 451.272 28.6749 451.478 28.5705C451.687 28.466 451.86 28.3082 451.997 28.0969C452.136 27.8856 452.204 27.6171 452.202 27.2915ZM455.933 22.0303V29.6667H454.818V22.0303H455.933Z" fill="#A1A1A1"/>
<rect x="471.667" y="16.1667" width="1" height="20" fill="white" fill-opacity="0.1"/>
<rect x="478.667" y="11" width="124.333" height="30.3333" rx="8" fill="white" fill-opacity="0.05"/>
<rect x="479.167" y="11.5" width="123.333" height="29.3333" rx="7.5" stroke="white" stroke-opacity="0.1"/>
<rect x="481.333" y="13.6667" width="65" height="25" rx="8" fill="white" fill-opacity="0.1"/>
<path d="M497.016 25.9212C497.016 26.7113 496.873 27.3941 496.588 27.9695C496.302 28.545 495.911 28.9888 495.414 29.3009C494.916 29.613 494.348 29.7691 493.709 29.7691C493.07 29.7691 492.502 29.613 492.005 29.3009C491.507 28.9888 491.116 28.545 490.831 27.9695C490.545 27.3941 490.403 26.7113 490.403 25.9212C490.403 25.1312 490.545 24.4484 490.831 23.8729C491.116 23.2975 491.507 22.8537 492.005 22.5415C492.502 22.2294 493.07 22.0734 493.709 22.0734C494.348 22.0734 494.916 22.2294 495.414 22.5415C495.911 22.8537 496.302 23.2975 496.588 23.8729C496.873 24.4484 497.016 25.1312 497.016 25.9212ZM496.138 25.9212C496.138 25.2726 496.029 24.7252 495.812 24.2789C495.598 23.8327 495.306 23.495 494.938 23.2658C494.572 23.0365 494.163 22.9219 493.709 22.9219C493.256 22.9219 492.845 23.0365 492.477 23.2658C492.111 23.495 491.819 23.8327 491.602 24.2789C491.388 24.7252 491.281 25.2726 491.281 25.9212C491.281 26.5699 491.388 27.1173 491.602 27.5635C491.819 28.0098 492.111 28.3475 492.477 28.5767C492.845 28.8059 493.256 28.9205 493.709 28.9205C494.163 28.9205 494.572 28.8059 494.938 28.5767C495.306 28.3475 495.598 28.0098 495.812 27.5635C496.029 27.1173 496.138 26.5699 496.138 25.9212ZM498.424 31.7735V24.0485H499.258V24.941H499.36C499.424 24.8434 499.511 24.7191 499.624 24.5679C499.738 24.4143 499.902 24.2777 500.114 24.1582C500.328 24.0363 500.619 23.9754 500.984 23.9754C501.457 23.9754 501.874 24.0936 502.235 24.3301C502.596 24.5667 502.878 24.902 503.08 25.336C503.283 25.77 503.384 26.2821 503.384 26.8722C503.384 27.4672 503.283 27.9829 503.08 28.4194C502.878 28.8535 502.597 29.19 502.239 29.4289C501.88 29.6655 501.467 29.7837 500.999 29.7837C500.638 29.7837 500.349 29.724 500.132 29.6045C499.915 29.4826 499.748 29.3448 499.631 29.1912C499.514 29.0351 499.424 28.9059 499.36 28.8035H499.287V31.7735H498.424ZM499.273 26.8576C499.273 27.2819 499.335 27.6562 499.459 27.9805C499.583 28.3024 499.765 28.5548 500.004 28.7376C500.243 28.9181 500.536 29.0083 500.882 29.0083C501.243 29.0083 501.544 28.9132 501.785 28.723C502.029 28.5304 502.212 28.2719 502.334 27.9476C502.458 27.6208 502.521 27.2575 502.521 26.8576C502.521 26.4626 502.46 26.1066 502.338 25.7896C502.218 25.4701 502.037 25.2177 501.793 25.0324C501.551 24.8447 501.248 24.7508 500.882 24.7508C500.531 24.7508 500.236 24.8398 499.997 25.0178C499.758 25.1934 499.577 25.4396 499.455 25.7566C499.333 26.0712 499.273 26.4382 499.273 26.8576ZM508.68 25.3067L507.905 25.5262C507.856 25.397 507.784 25.2714 507.689 25.1495C507.596 25.0251 507.469 24.9227 507.308 24.8422C507.147 24.7618 506.941 24.7215 506.69 24.7215C506.346 24.7215 506.06 24.8008 505.831 24.9593C505.604 25.1153 505.491 25.3141 505.491 25.5555C505.491 25.77 505.569 25.9395 505.725 26.0639C505.881 26.1882 506.125 26.2919 506.456 26.3748L507.29 26.5796C507.792 26.7015 508.167 26.8881 508.413 27.1392C508.659 27.388 508.782 27.7086 508.782 28.1012C508.782 28.4231 508.69 28.7108 508.504 28.9644C508.322 29.218 508.066 29.418 507.736 29.5643C507.407 29.7106 507.024 29.7837 506.588 29.7837C506.015 29.7837 505.541 29.6594 505.165 29.4107C504.79 29.1619 504.552 28.7986 504.452 28.3207L505.271 28.1158C505.349 28.4182 505.497 28.645 505.714 28.7962C505.933 28.9473 506.22 29.0229 506.573 29.0229C506.976 29.0229 507.295 28.9376 507.532 28.7669C507.771 28.5938 507.89 28.3865 507.89 28.1451C507.89 27.95 507.822 27.7866 507.685 27.655C507.549 27.5209 507.339 27.4209 507.056 27.355L506.12 27.1356C505.605 27.0137 505.227 26.8247 504.986 26.5686C504.747 26.3102 504.627 25.9871 504.627 25.5994C504.627 25.2824 504.716 25.0019 504.894 24.7581C505.075 24.5142 505.32 24.3228 505.63 24.1838C505.942 24.0448 506.295 23.9754 506.69 23.9754C507.246 23.9754 507.683 24.0973 508 24.3411C508.319 24.585 508.546 24.9068 508.68 25.3067ZM510.082 29.6667V24.0485H510.945V29.6667H510.082ZM510.521 23.1121C510.353 23.1121 510.207 23.0548 510.086 22.9402C509.966 22.8256 509.906 22.6879 509.906 22.5269C509.906 22.366 509.966 22.2282 510.086 22.1136C510.207 21.999 510.353 21.9417 510.521 21.9417C510.689 21.9417 510.833 21.999 510.952 22.1136C511.074 22.2282 511.135 22.366 511.135 22.5269C511.135 22.6879 511.074 22.8256 510.952 22.9402C510.833 23.0548 510.689 23.1121 510.521 23.1121ZM513.082 31.7735C512.936 31.7735 512.805 31.7613 512.691 31.7369C512.576 31.715 512.497 31.693 512.453 31.6711L512.672 30.9103C512.882 30.9639 513.067 30.9834 513.228 30.9688C513.389 30.9542 513.532 30.8823 513.656 30.753C513.783 30.6262 513.899 30.4202 514.004 30.1349L514.165 29.6959L512.087 24.0485H513.024L514.574 28.5255H514.633L516.184 24.0485H517.12L514.735 30.486C514.628 30.7762 514.495 31.0164 514.337 31.2066C514.178 31.3992 513.994 31.5419 513.784 31.6345C513.577 31.7272 513.343 31.7735 513.082 31.7735ZM520.341 29.7837C519.834 29.7837 519.388 29.663 519.006 29.4216C518.625 29.1802 518.328 28.8425 518.113 28.4084C517.901 27.9744 517.795 27.4672 517.795 26.8869C517.795 26.3016 517.901 25.7908 518.113 25.3543C518.328 24.9178 518.625 24.5789 519.006 24.3375C519.388 24.0961 519.834 23.9754 520.341 23.9754C520.848 23.9754 521.292 24.0961 521.672 24.3375C522.055 24.5789 522.352 24.9178 522.565 25.3543C522.779 25.7908 522.886 26.3016 522.886 26.8869C522.886 27.4672 522.779 27.9744 522.565 28.4084C522.352 28.8425 522.055 29.1802 521.672 29.4216C521.292 29.663 520.848 29.7837 520.341 29.7837ZM520.341 29.0083C520.726 29.0083 521.043 28.9095 521.292 28.712C521.54 28.5145 521.725 28.2548 521.844 27.933C521.963 27.6111 522.023 27.2624 522.023 26.8869C522.023 26.5113 521.963 26.1614 521.844 25.8371C521.725 25.5128 521.54 25.2507 521.292 25.0507C521.043 24.8508 520.726 24.7508 520.341 24.7508C519.955 24.7508 519.638 24.8508 519.39 25.0507C519.141 25.2507 518.957 25.5128 518.837 25.8371C518.718 26.1614 518.658 26.5113 518.658 26.8869C518.658 27.2624 518.718 27.6111 518.837 27.933C518.957 28.2548 519.141 28.5145 519.39 28.712C519.638 28.9095 519.955 29.0083 520.341 29.0083ZM525.067 26.287V29.6667H524.204V24.0485H525.038V24.9263H525.111C525.243 24.641 525.443 24.4118 525.711 24.2387C525.979 24.0631 526.326 23.9754 526.75 23.9754C527.13 23.9754 527.463 24.0534 527.748 24.2094C528.034 24.3631 528.256 24.5972 528.414 24.9117C528.573 25.2238 528.652 25.6189 528.652 26.0968V29.6667H527.789V26.1553C527.789 25.714 527.674 25.3701 527.445 25.1239C527.216 24.8751 526.901 24.7508 526.501 24.7508C526.226 24.7508 525.979 24.8105 525.762 24.93C525.548 25.0495 525.378 25.2238 525.254 25.4531C525.13 25.6823 525.067 25.9602 525.067 26.287ZM532.585 29.7837C532.043 29.7837 531.576 29.6642 531.184 29.4253C530.794 29.1839 530.493 28.8474 530.28 28.4158C530.071 27.9817 529.966 27.477 529.966 26.9015C529.966 26.326 530.071 25.8188 530.28 25.3799C530.493 24.9385 530.788 24.5947 531.166 24.3484C531.546 24.0997 531.99 23.9754 532.497 23.9754C532.79 23.9754 533.079 24.0241 533.364 24.1217C533.649 24.2192 533.909 24.3777 534.143 24.5972C534.377 24.8142 534.564 25.1019 534.703 25.4604C534.842 25.8188 534.911 26.2602 534.911 26.7844V27.1502H530.58V26.404H534.033C534.033 26.087 533.97 25.8042 533.843 25.5555C533.719 25.3067 533.541 25.1104 533.309 24.9666C533.08 24.8227 532.809 24.7508 532.497 24.7508C532.153 24.7508 531.856 24.8361 531.605 25.0068C531.356 25.1751 531.164 25.3945 531.03 25.6652C530.896 25.9359 530.829 26.226 530.829 26.5357V27.0332C530.829 27.4575 530.902 27.8171 531.049 28.1122C531.197 28.4048 531.403 28.6279 531.667 28.7815C531.93 28.9327 532.236 29.0083 532.585 29.0083C532.812 29.0083 533.016 28.9766 533.199 28.9132C533.385 28.8474 533.544 28.7498 533.678 28.6206C533.813 28.4889 533.916 28.3255 533.989 28.1305L534.823 28.3646C534.735 28.6474 534.588 28.8961 534.381 29.1107C534.173 29.3229 533.917 29.4887 533.613 29.6082C533.308 29.7252 532.965 29.7837 532.585 29.7837ZM537.087 22.1758V29.6667H536.224V22.1758H537.087Z" fill="#F5F5F5"/>
<path d="M555.219 29.6667V28.9955L559.336 22.8506H555.175V22.0303H560.439V22.7015L556.323 28.8464H560.484V29.6667H555.219ZM564.243 29.786C563.726 29.786 563.272 29.663 562.882 29.4169C562.494 29.1708 562.191 28.8265 561.972 28.384C561.756 27.9415 561.648 27.4245 561.648 26.8329C561.648 26.2363 561.756 25.7155 561.972 25.2706C562.191 24.8256 562.494 24.4801 562.882 24.234C563.272 23.9879 563.726 23.8648 564.243 23.8648C564.76 23.8648 565.212 23.9879 565.6 24.234C565.99 24.4801 566.293 24.8256 566.51 25.2706C566.728 25.7155 566.838 26.2363 566.838 26.8329C566.838 27.4245 566.728 27.9415 566.51 28.384C566.293 28.8265 565.99 29.1708 565.6 29.4169C565.212 29.663 564.76 29.786 564.243 29.786ZM564.243 28.9955C564.635 28.9955 564.959 28.8948 565.212 28.6935C565.466 28.4921 565.653 28.2274 565.775 27.8993C565.897 27.5712 565.958 27.2157 565.958 26.8329C565.958 26.4501 565.897 26.0934 565.775 25.7627C565.653 25.4321 565.466 25.1649 565.212 24.9611C564.959 24.7572 564.635 24.6553 564.243 24.6553C563.85 24.6553 563.527 24.7572 563.273 24.9611C563.02 25.1649 562.832 25.4321 562.71 25.7627C562.588 26.0934 562.527 26.4501 562.527 26.8329C562.527 27.2157 562.588 27.5712 562.71 27.8993C562.832 28.2274 563.02 28.4921 563.273 28.6935C563.527 28.8948 563.85 28.9955 564.243 28.9955ZM568.181 29.6667V23.9394H569.031V24.8045H569.091C569.195 24.5211 569.384 24.2912 569.658 24.1147C569.931 23.9382 570.239 23.8499 570.582 23.8499C570.647 23.8499 570.728 23.8512 570.825 23.8537C570.922 23.8561 570.995 23.8599 571.045 23.8648V24.7597C571.015 24.7523 570.947 24.7411 570.84 24.7262C570.735 24.7088 570.625 24.7001 570.508 24.7001C570.229 24.7001 569.981 24.7585 569.762 24.8753C569.546 24.9897 569.374 25.1488 569.248 25.3526C569.123 25.5539 569.061 25.7839 569.061 26.0424V29.6667H568.181ZM575.697 27.3251V23.9394H576.577V29.6667H575.697V28.6972H575.638C575.503 28.9881 575.295 29.2354 575.011 29.4392C574.728 29.6406 574.37 29.7413 573.937 29.7413C573.579 29.7413 573.261 29.663 572.983 29.5064C572.704 29.3473 572.486 29.1086 572.327 28.7904C572.167 28.4698 572.088 28.0658 572.088 27.5786V23.9394H572.968V27.519C572.968 27.9366 573.085 28.2697 573.318 28.5182C573.554 28.7668 573.855 28.8911 574.221 28.8911C574.439 28.8911 574.662 28.8352 574.888 28.7233C575.117 28.6115 575.308 28.4399 575.462 28.2088C575.619 27.9776 575.697 27.683 575.697 27.3251ZM579.069 26.2214V29.6667H578.189V23.9394H579.039V24.8343H579.114C579.248 24.5435 579.452 24.3098 579.725 24.1333C579.999 23.9543 580.352 23.8648 580.784 23.8648C581.172 23.8648 581.511 23.9444 581.802 24.1035C582.093 24.2601 582.319 24.4987 582.481 24.8194C582.642 25.1376 582.723 25.5403 582.723 26.0275V29.6667H581.843V26.0871C581.843 25.6372 581.726 25.2867 581.493 25.0356C581.259 24.7821 580.938 24.6553 580.531 24.6553C580.25 24.6553 579.999 24.7162 579.777 24.838C579.559 24.9598 579.386 25.1376 579.259 25.3712C579.132 25.6049 579.069 25.8883 579.069 26.2214ZM585.211 22.0303V29.6667H584.331V22.0303H585.211ZM590.432 27.3251V23.9394H591.312V29.6667H590.432V28.6972H590.372C590.238 28.9881 590.029 29.2354 589.746 29.4392C589.463 29.6406 589.105 29.7413 588.672 29.7413C588.314 29.7413 587.996 29.663 587.718 29.5064C587.439 29.3473 587.22 29.1086 587.061 28.7904C586.902 28.4698 586.823 28.0658 586.823 27.5786V23.9394H587.703V27.519C587.703 27.9366 587.82 28.2697 588.053 28.5182C588.289 28.7668 588.59 28.8911 588.956 28.8911C589.174 28.8911 589.397 28.8352 589.623 28.7233C589.852 28.6115 590.043 28.4399 590.197 28.2088C590.354 27.9776 590.432 27.683 590.432 27.3251Z" fill="#D4D4D4"/>
<path d="M24.0039 74.3697C23.9641 74.0167 23.8001 73.7433 23.5117 73.5494C23.2234 73.353 22.8604 73.2548 22.4229 73.2548C22.1097 73.2548 21.8388 73.3045 21.6101 73.4039C21.3814 73.5009 21.2037 73.6351 21.0769 73.8066C20.9526 73.9757 20.8904 74.1683 20.8904 74.3846C20.8904 74.5661 20.9327 74.7227 21.0172 74.8544C21.1042 74.9862 21.2173 75.0968 21.3565 75.1863C21.4982 75.2733 21.6499 75.3466 21.8114 75.4062C21.973 75.4634 22.1284 75.5107 22.2775 75.5479L23.0233 75.7418C23.2669 75.8015 23.5167 75.8823 23.7727 75.9842C24.0288 76.0861 24.2662 76.2203 24.4849 76.3869C24.7037 76.5534 24.8801 76.7598 25.0144 77.0059C25.1511 77.252 25.2195 77.5465 25.2195 77.8896C25.2195 78.3221 25.1076 78.7061 24.8839 79.0417C24.6626 79.3773 24.3407 79.642 23.9181 79.8359C23.498 80.0298 22.9897 80.1268 22.3931 80.1268C21.8214 80.1268 21.3267 80.036 20.9091 79.8546C20.4915 79.6731 20.1646 79.4158 19.9284 79.0827C19.6923 78.7472 19.5618 78.3494 19.5369 77.8896H20.6928C20.7152 78.1655 20.8047 78.3954 20.9613 78.5794C21.1204 78.7608 21.323 78.8963 21.5691 78.9858C21.8176 79.0728 22.0898 79.1163 22.3857 79.1163C22.7113 79.1163 23.0009 79.0653 23.2544 78.9634C23.5105 78.859 23.7118 78.7148 23.8585 78.5309C24.0051 78.3445 24.0785 78.127 24.0785 77.8784C24.0785 77.6522 24.0138 77.467 23.8846 77.3228C23.7578 77.1786 23.585 77.0593 23.3663 76.9648C23.15 76.8704 22.9052 76.7871 22.6317 76.715L21.7294 76.4689C21.1179 76.3024 20.6332 76.0575 20.2752 75.7344C19.9197 75.4112 19.742 74.9837 19.742 74.4517C19.742 74.0117 19.8613 73.6277 20.1 73.2995C20.3386 72.9714 20.6618 72.7166 21.0694 72.5352C21.4771 72.3512 21.937 72.2592 22.449 72.2592C22.9661 72.2592 23.4222 72.35 23.8175 72.5314C24.2152 72.7129 24.5284 72.9627 24.7571 73.2809C24.9858 73.5966 25.1051 73.9595 25.1151 74.3697H24.0039ZM33.5046 76.1818C33.5046 76.9972 33.3555 77.6982 33.0572 78.2848C32.7589 78.869 32.35 79.3189 31.8304 79.6346C31.3134 79.9478 30.7255 80.1044 30.0668 80.1044C29.4055 80.1044 28.8152 79.9478 28.2956 79.6346C27.7786 79.3189 27.3709 78.8677 27.0726 78.2811C26.7743 77.6944 26.6252 76.9947 26.6252 76.1818C26.6252 75.3665 26.7743 74.6667 27.0726 74.0826C27.3709 73.4959 27.7786 73.046 28.2956 72.7328C28.8152 72.4171 29.4055 72.2592 30.0668 72.2592C30.7255 72.2592 31.3134 72.4171 31.8304 72.7328C32.35 73.046 32.7589 73.4959 33.0572 74.0826C33.3555 74.6667 33.5046 75.3665 33.5046 76.1818ZM32.3636 76.1818C32.3636 75.5604 32.263 75.0371 32.0616 74.612C31.8628 74.1845 31.5893 73.8613 31.2413 73.6426C30.8958 73.4213 30.5043 73.3107 30.0668 73.3107C29.6268 73.3107 29.234 73.4213 28.8885 73.6426C28.543 73.8613 28.2695 74.1845 28.0682 74.612C27.8693 75.0371 27.7699 75.5604 27.7699 76.1818C27.7699 76.8033 27.8693 77.3278 28.0682 77.7553C28.2695 78.1804 28.543 78.5036 28.8885 78.7248C29.234 78.9435 29.6268 79.0529 30.0668 79.0529C30.5043 79.0529 30.8958 78.9435 31.2413 78.7248C31.5893 78.5036 31.8628 78.1804 32.0616 77.7553C32.263 77.3278 32.3636 76.8033 32.3636 76.1818ZM35.2161 80V72.3636H37.9381C38.5297 72.3636 39.0206 72.4656 39.4109 72.6694C39.8036 72.8732 40.097 73.1554 40.2909 73.5158C40.4847 73.8738 40.5817 74.2876 40.5817 74.7575C40.5817 75.2248 40.4835 75.6362 40.2871 75.9917C40.0932 76.3446 39.7999 76.6193 39.4072 76.8157C39.0169 77.0121 38.5259 77.1103 37.9343 77.1103H35.8724V76.1184H37.8299C38.2028 76.1184 38.5061 76.065 38.7397 75.9581C38.9759 75.8512 39.1486 75.6958 39.258 75.492C39.3674 75.2882 39.4221 75.0433 39.4221 74.7575C39.4221 74.4691 39.3661 74.2193 39.2543 74.008C39.1449 73.7967 38.9721 73.6351 38.736 73.5233C38.5023 73.4089 38.1953 73.3517 37.815 73.3517H36.3683V80H35.2161ZM38.9858 76.5547L40.8725 80H39.56L37.7106 76.5547H38.9858ZM47.1694 72.3636H48.3253V77.3862C48.3253 77.9206 48.1997 78.3942 47.9487 78.8068C47.6976 79.217 47.3446 79.5401 46.8897 79.7763C46.4348 80.0099 45.9016 80.1268 45.2901 80.1268C44.6811 80.1268 44.1491 80.0099 43.6942 79.7763C43.2393 79.5401 42.8863 79.217 42.6353 78.8068C42.3842 78.3942 42.2587 77.9206 42.2587 77.3862V72.3636H43.4108V77.293C43.4108 77.6385 43.4867 77.9455 43.6383 78.214C43.7924 78.4824 44.0099 78.6937 44.2908 78.8478C44.5717 78.9995 44.9048 79.0753 45.2901 79.0753C45.6779 79.0753 46.0122 78.9995 46.2931 78.8478C46.5765 78.6937 46.7928 78.4824 46.9419 78.214C47.0936 77.9455 47.1694 77.6385 47.1694 77.293V72.3636ZM53.3292 72.3636H54.7275L57.1586 78.2997H57.248L59.6792 72.3636H61.0774V80H59.9812V74.4741H59.9103L57.6582 79.9888H56.7484L54.4963 74.4703H54.4254V80H53.3292V72.3636ZM63.0275 80V72.3636H67.8152V73.3555H64.1797V75.6822H67.5654V76.6703H64.1797V79.0082H67.8599V80H63.0275ZM69.2526 73.3555V72.3636H75.1626V73.3555H72.7799V80H71.6315V73.3555H69.2526ZM82.9071 72.3636V80H81.8481L77.9666 74.3995H77.8957V80H76.7435V72.3636H77.81L81.6953 77.9716H81.7661V72.3636H82.9071ZM86.0149 72.3636V80H84.8628V72.3636H86.0149Z" fill="#A1A1A1"/>
<rect x="17" y="91" width="582" height="34.66" rx="8" fill="#171717" fill-opacity="0.6"/>
<rect x="17.5" y="91.5" width="581" height="33.66" rx="7.5" stroke="white" stroke-opacity="0.1"/>
<g clip-path="url(#clip1_2_2)">
<path d="M35.982 106.239C35.9266 105.771 35.7019 105.408 35.308 105.15C34.914 104.891 34.4308 104.762 33.8584 104.762C33.4398 104.762 33.0736 104.83 32.7597 104.965C32.4488 105.1 32.2057 105.287 32.0303 105.524C31.8579 105.761 31.7717 106.03 31.7717 106.331C31.7717 106.584 31.8318 106.801 31.9518 106.982C32.0749 107.161 32.2318 107.31 32.4227 107.43C32.6135 107.547 32.8135 107.644 33.0228 107.721C33.2321 107.795 33.4244 107.855 33.5999 107.901L34.5601 108.16C34.8063 108.224 35.0802 108.313 35.3818 108.427C35.6865 108.541 35.9774 108.697 36.2543 108.894C36.5344 109.087 36.7652 109.337 36.9468 109.641C37.1284 109.946 37.2192 110.32 37.2192 110.763C37.2192 111.274 37.0853 111.736 36.8175 112.148C36.5529 112.561 36.1651 112.888 35.6542 113.132C35.1464 113.375 34.5293 113.496 33.803 113.496C33.1259 113.496 32.5396 113.387 32.0441 113.168C31.5517 112.95 31.1639 112.645 30.8808 112.254C30.6007 111.864 30.4422 111.41 30.4053 110.893H31.5871C31.6179 111.25 31.7379 111.545 31.9472 111.779C32.1595 112.01 32.4273 112.182 32.7504 112.296C33.0767 112.407 33.4275 112.462 33.803 112.462C34.24 112.462 34.6324 112.391 34.9802 112.25C35.328 112.105 35.6034 111.905 35.8065 111.65C36.0097 111.391 36.1112 111.089 36.1112 110.745C36.1112 110.431 36.0235 110.175 35.8481 109.978C35.6727 109.781 35.4418 109.621 35.1556 109.498C34.8694 109.375 34.5601 109.268 34.2277 109.175L33.0644 108.843C32.3257 108.63 31.741 108.327 31.3101 107.933C30.8792 107.539 30.6638 107.024 30.6638 106.387C30.6638 105.857 30.8069 105.396 31.0931 105.002C31.3824 104.605 31.7702 104.297 32.2565 104.079C32.7458 103.857 33.2921 103.746 33.8953 103.746C34.5047 103.746 35.0464 103.855 35.5203 104.074C35.9943 104.289 36.3698 104.585 36.6467 104.96C36.9268 105.336 37.0745 105.762 37.0899 106.239H35.982ZM41.8345 113.478C41.1944 113.478 40.6327 113.325 40.1495 113.021C39.6694 112.716 39.2939 112.29 39.0231 111.742C38.7553 111.194 38.6214 110.554 38.6214 109.821C38.6214 109.083 38.7553 108.438 39.0231 107.887C39.2939 107.336 39.6694 106.908 40.1495 106.604C40.6327 106.299 41.1944 106.147 41.8345 106.147C42.4747 106.147 43.0348 106.299 43.5149 106.604C43.9981 106.908 44.3736 107.336 44.6413 107.887C44.9122 108.438 45.0476 109.083 45.0476 109.821C45.0476 110.554 44.9122 111.194 44.6413 111.742C44.3736 112.29 43.9981 112.716 43.5149 113.021C43.0348 113.325 42.4747 113.478 41.8345 113.478ZM41.8345 112.499C42.3208 112.499 42.7209 112.374 43.0348 112.125C43.3487 111.876 43.5811 111.548 43.7319 111.142C43.8827 110.736 43.9581 110.295 43.9581 109.821C43.9581 109.348 43.8827 108.906 43.7319 108.497C43.5811 108.087 43.3487 107.756 43.0348 107.504C42.7209 107.252 42.3208 107.125 41.8345 107.125C41.3482 107.125 40.9481 107.252 40.6342 107.504C40.3203 107.756 40.0879 108.087 39.9371 108.497C39.7863 108.906 39.7109 109.348 39.7109 109.821C39.7109 110.295 39.7863 110.736 39.9371 111.142C40.0879 111.548 40.3203 111.876 40.6342 112.125C40.9481 112.374 41.3482 112.499 41.8345 112.499ZM46.7107 113.33V106.239H47.7632V107.31H47.8371C47.9663 106.959 48.2002 106.675 48.5388 106.456C48.8773 106.238 49.259 106.128 49.6837 106.128C49.7637 106.128 49.8637 106.13 49.9837 106.133C50.1038 106.136 50.1946 106.141 50.2561 106.147V107.255C50.2192 107.245 50.1345 107.232 50.0022 107.213C49.8729 107.192 49.736 107.181 49.5913 107.181C49.2466 107.181 48.9389 107.253 48.668 107.398C48.4003 107.539 48.1879 107.736 48.031 107.989C47.8771 108.238 47.8001 108.523 47.8001 108.843V113.33H46.7107ZM56.0163 110.431V106.239H57.1058V113.33H56.0163V112.13H55.9425C55.7763 112.49 55.5177 112.796 55.1669 113.048C54.816 113.298 54.3729 113.422 53.8373 113.422C53.3942 113.422 53.0002 113.325 52.6555 113.132C52.3108 112.935 52.04 112.639 51.843 112.245C51.6461 111.848 51.5476 111.348 51.5476 110.745V106.239H52.6371V110.671C52.6371 111.188 52.7817 111.6 53.071 111.908C53.3634 112.216 53.7358 112.37 54.1882 112.37C54.459 112.37 54.7345 112.301 55.0145 112.162C55.2977 112.024 55.5347 111.811 55.7255 111.525C55.9194 111.239 56.0163 110.874 56.0163 110.431ZM60.1908 109.064V113.33H59.1013V106.239H60.1538V107.347H60.2462C60.4124 106.987 60.6647 106.698 61.0033 106.479C61.3418 106.258 61.7788 106.147 62.3144 106.147C62.7945 106.147 63.2146 106.245 63.5747 106.442C63.9347 106.636 64.2148 106.932 64.4149 107.329C64.6149 107.723 64.7149 108.221 64.7149 108.824V113.33H63.6254V108.898C63.6254 108.341 63.4808 107.907 63.1915 107.596C62.9022 107.282 62.5052 107.125 62.0004 107.125C61.6527 107.125 61.3418 107.201 61.0679 107.352C60.7971 107.502 60.5832 107.723 60.4262 108.012C60.2693 108.301 60.1908 108.652 60.1908 109.064ZM71.1745 110.431V106.239H72.264V113.33H71.1745V112.13H71.1007C70.9345 112.49 70.6759 112.796 70.3251 113.048C69.9742 113.298 69.5311 113.422 68.9955 113.422C68.5524 113.422 68.1584 113.325 67.8137 113.132C67.469 112.935 67.1982 112.639 67.0012 112.245C66.8043 111.848 66.7058 111.348 66.7058 110.745V106.239H67.7953V110.671C67.7953 111.188 67.9399 111.6 68.2292 111.908C68.5216 112.216 68.894 112.37 69.3464 112.37C69.6172 112.37 69.8927 112.301 70.1728 112.162C70.4559 112.024 70.6929 111.811 70.8837 111.525C71.0776 111.239 71.1745 110.874 71.1745 110.431ZM74.0564 113.33V112.499L78.0819 107.329V107.255H74.1856V106.239H79.4853V107.107L75.5706 112.241V112.314H79.6146V113.33H74.0564ZM85.7614 110.431V106.239H86.8509V113.33H85.7614V112.13H85.6876C85.5214 112.49 85.2629 112.796 84.912 113.048C84.5612 113.298 84.118 113.422 83.5825 113.422C83.1393 113.422 82.7453 113.325 82.4006 113.132C82.0559 112.935 81.7851 112.639 81.5881 112.245C81.3912 111.848 81.2927 111.348 81.2927 110.745V106.239H82.3822V110.671C82.3822 111.188 82.5268 111.6 82.8161 111.908C83.1085 112.216 83.4809 112.37 83.9333 112.37C84.2041 112.37 84.4796 112.301 84.7597 112.162C85.0428 112.024 85.2798 111.811 85.4706 111.525C85.6645 111.239 85.7614 110.874 85.7614 110.431ZM92.6504 113.33V103.875H93.7399V107.366H93.8322C93.9122 107.242 94.023 107.085 94.1646 106.895C94.3092 106.701 94.5154 106.528 94.7832 106.378C95.054 106.224 95.4203 106.147 95.8819 106.147C96.479 106.147 97.0053 106.296 97.4607 106.595C97.9162 106.893 98.2717 107.316 98.5272 107.864C98.7826 108.412 98.9103 109.058 98.9103 109.803C98.9103 110.554 98.7826 111.205 98.5272 111.756C98.2717 112.304 97.9178 112.728 97.4654 113.03C97.013 113.328 96.4913 113.478 95.9004 113.478C95.4449 113.478 95.0802 113.402 94.8063 113.252C94.5324 113.098 94.3215 112.924 94.1738 112.73C94.0261 112.533 93.9122 112.37 93.8322 112.241H93.7029V113.33H92.6504ZM93.7214 109.785C93.7214 110.32 93.7999 110.792 93.9568 111.202C94.1138 111.608 94.3431 111.927 94.6447 112.157C94.9463 112.385 95.3156 112.499 95.7527 112.499C96.2081 112.499 96.5882 112.379 96.8929 112.139C97.2007 111.896 97.4315 111.57 97.5854 111.16C97.7424 110.748 97.8208 110.289 97.8208 109.785C97.8208 109.286 97.7439 108.837 97.59 108.437C97.4392 108.033 97.2099 107.715 96.9022 107.481C96.5975 107.244 96.2143 107.125 95.7527 107.125C95.3095 107.125 94.9371 107.238 94.6355 107.462C94.3339 107.684 94.1061 107.995 93.9522 108.395C93.7983 108.792 93.7214 109.255 93.7214 109.785ZM105.046 110.431V106.239H106.135V113.33H105.046V112.13H104.972C104.806 112.49 104.547 112.796 104.196 113.048C103.845 113.298 103.402 113.422 102.867 113.422C102.423 113.422 102.03 113.325 101.685 113.132C101.34 112.935 101.069 112.639 100.872 112.245C100.675 111.848 100.577 111.348 100.577 110.745V106.239H101.666V110.671C101.666 111.188 101.811 111.6 102.1 111.908C102.393 112.216 102.765 112.37 103.217 112.37C103.488 112.37 103.764 112.301 104.044 112.162C104.327 112.024 104.564 111.811 104.755 111.525C104.949 111.239 105.046 110.874 105.046 110.431ZM108.131 113.33V106.239H109.183V107.31H109.257C109.386 106.959 109.62 106.675 109.959 106.456C110.297 106.238 110.679 106.128 111.104 106.128C111.184 106.128 111.284 106.13 111.404 106.133C111.524 106.136 111.614 106.141 111.676 106.147V107.255C111.639 107.245 111.554 107.232 111.422 107.213C111.293 107.192 111.156 107.181 111.011 107.181C110.667 107.181 110.359 107.253 110.088 107.398C109.82 107.539 109.608 107.736 109.451 107.989C109.297 108.238 109.22 108.523 109.22 108.843V113.33H108.131ZM115.054 113.496C114.605 113.496 114.197 113.412 113.831 113.242C113.465 113.07 113.174 112.822 112.958 112.499C112.743 112.173 112.635 111.779 112.635 111.317C112.635 110.911 112.715 110.582 112.875 110.329C113.035 110.074 113.249 109.874 113.517 109.729C113.785 109.585 114.08 109.477 114.403 109.406C114.729 109.332 115.057 109.274 115.387 109.231C115.817 109.175 116.167 109.134 116.434 109.106C116.705 109.075 116.902 109.024 117.025 108.954C117.152 108.883 117.215 108.76 117.215 108.584V108.547C117.215 108.092 117.09 107.738 116.841 107.486C116.595 107.233 116.221 107.107 115.719 107.107C115.199 107.107 114.791 107.221 114.496 107.449C114.2 107.676 113.992 107.92 113.872 108.178L112.838 107.809C113.023 107.378 113.269 107.042 113.577 106.802C113.888 106.559 114.226 106.39 114.592 106.295C114.962 106.196 115.325 106.147 115.682 106.147C115.91 106.147 116.171 106.174 116.467 106.23C116.765 106.282 117.053 106.391 117.33 106.558C117.61 106.724 117.842 106.975 118.027 107.31C118.212 107.646 118.304 108.095 118.304 108.658V113.33H117.215V112.37H117.159C117.085 112.524 116.962 112.688 116.79 112.864C116.618 113.039 116.388 113.188 116.102 113.312C115.816 113.435 115.467 113.496 115.054 113.496ZM115.22 112.518C115.651 112.518 116.014 112.433 116.31 112.264C116.608 112.094 116.833 111.876 116.984 111.608C117.138 111.34 117.215 111.059 117.215 110.763V109.766C117.168 109.821 117.067 109.872 116.91 109.918C116.756 109.962 116.578 110 116.374 110.034C116.174 110.065 115.979 110.092 115.788 110.117C115.6 110.138 115.448 110.157 115.331 110.172C115.048 110.209 114.783 110.269 114.537 110.352C114.294 110.432 114.097 110.554 113.946 110.717C113.798 110.877 113.725 111.096 113.725 111.373C113.725 111.751 113.865 112.037 114.145 112.231C114.428 112.422 114.786 112.518 115.22 112.518ZM120.74 115.989C120.556 115.989 120.391 115.974 120.247 115.943C120.102 115.915 120.002 115.888 119.946 115.86L120.223 114.9C120.488 114.967 120.722 114.992 120.925 114.973C121.128 114.955 121.308 114.864 121.465 114.701C121.625 114.541 121.772 114.281 121.904 113.921L122.107 113.367L119.485 106.239H120.667L122.624 111.89H122.698L124.655 106.239H125.837L122.827 114.364C122.692 114.73 122.524 115.033 122.324 115.274C122.124 115.517 121.892 115.697 121.627 115.814C121.365 115.931 121.07 115.989 120.74 115.989ZM129.146 113.496C128.697 113.496 128.289 113.412 127.923 113.242C127.556 113.07 127.265 112.822 127.05 112.499C126.835 112.173 126.727 111.779 126.727 111.317C126.727 110.911 126.807 110.582 126.967 110.329C127.127 110.074 127.341 109.874 127.609 109.729C127.876 109.585 128.172 109.477 128.495 109.406C128.821 109.332 129.149 109.274 129.478 109.231C129.909 109.175 130.259 109.134 130.526 109.106C130.797 109.075 130.994 109.024 131.117 108.954C131.243 108.883 131.306 108.76 131.306 108.584V108.547C131.306 108.092 131.182 107.738 130.933 107.486C130.686 107.233 130.312 107.107 129.811 107.107C129.291 107.107 128.883 107.221 128.587 107.449C128.292 107.676 128.084 107.92 127.964 108.178L126.93 107.809C127.115 107.378 127.361 107.042 127.669 106.802C127.98 106.559 128.318 106.39 128.684 106.295C129.054 106.196 129.417 106.147 129.774 106.147C130.002 106.147 130.263 106.174 130.559 106.23C130.857 106.282 131.145 106.391 131.422 106.558C131.702 106.724 131.934 106.975 132.119 107.31C132.304 107.646 132.396 108.095 132.396 108.658V113.33H131.306V112.37H131.251C131.177 112.524 131.054 112.688 130.882 112.864C130.709 113.039 130.48 113.188 130.194 113.312C129.908 113.435 129.558 113.496 129.146 113.496ZM129.312 112.518C129.743 112.518 130.106 112.433 130.402 112.264C130.7 112.094 130.925 111.876 131.076 111.608C131.23 111.34 131.306 111.059 131.306 110.763V109.766C131.26 109.821 131.159 109.872 131.002 109.918C130.848 109.962 130.669 110 130.466 110.034C130.266 110.065 130.071 110.092 129.88 110.117C129.692 110.138 129.54 110.157 129.423 110.172C129.14 110.209 128.875 110.269 128.629 110.352C128.386 110.432 128.189 110.554 128.038 110.717C127.89 110.877 127.816 111.096 127.816 111.373C127.816 111.751 127.956 112.037 128.236 112.231C128.52 112.422 128.878 112.518 129.312 112.518ZM138.742 115.989C138.558 115.989 138.393 115.974 138.248 115.943C138.104 115.915 138.004 115.888 137.948 115.86L138.225 114.9C138.49 114.967 138.724 114.992 138.927 114.973C139.13 114.955 139.31 114.864 139.467 114.701C139.627 114.541 139.773 114.281 139.906 113.921L140.109 113.367L137.487 106.239H138.669L140.626 111.89H140.7L142.657 106.239H143.839L140.829 114.364C140.694 114.73 140.526 115.033 140.326 115.274C140.126 115.517 139.893 115.697 139.629 115.814C139.367 115.931 139.072 115.989 138.742 115.989ZM147.148 113.496C146.699 113.496 146.291 113.412 145.925 113.242C145.558 113.07 145.267 112.822 145.052 112.499C144.837 112.173 144.729 111.779 144.729 111.317C144.729 110.911 144.809 110.582 144.969 110.329C145.129 110.074 145.343 109.874 145.611 109.729C145.878 109.585 146.174 109.477 146.497 109.406C146.823 109.332 147.151 109.274 147.48 109.231C147.911 109.175 148.26 109.134 148.528 109.106C148.799 109.075 148.996 109.024 149.119 108.954C149.245 108.883 149.308 108.76 149.308 108.584V108.547C149.308 108.092 149.184 107.738 148.934 107.486C148.688 107.233 148.314 107.107 147.813 107.107C147.293 107.107 146.885 107.221 146.589 107.449C146.294 107.676 146.086 107.92 145.966 108.178L144.932 107.809C145.117 107.378 145.363 107.042 145.671 106.802C145.981 106.559 146.32 106.39 146.686 106.295C147.056 106.196 147.419 106.147 147.776 106.147C148.003 106.147 148.265 106.174 148.561 106.23C148.859 106.282 149.147 106.391 149.424 106.558C149.704 106.724 149.936 106.975 150.121 107.31C150.306 107.646 150.398 108.095 150.398 108.658V113.33H149.308V112.37H149.253C149.179 112.524 149.056 112.688 148.884 112.864C148.711 113.039 148.482 113.188 148.196 113.312C147.91 113.435 147.56 113.496 147.148 113.496ZM147.314 112.518C147.745 112.518 148.108 112.433 148.404 112.264C148.702 112.094 148.927 111.876 149.078 111.608C149.231 111.34 149.308 111.059 149.308 110.763V109.766C149.262 109.821 149.161 109.872 149.004 109.918C148.85 109.962 148.671 110 148.468 110.034C148.268 110.065 148.073 110.092 147.882 110.117C147.694 110.138 147.542 110.157 147.425 110.172C147.142 110.209 146.877 110.269 146.631 110.352C146.388 110.432 146.191 110.554 146.04 110.717C145.892 110.877 145.818 111.096 145.818 111.373C145.818 111.751 145.958 112.037 146.238 112.231C146.522 112.422 146.88 112.518 147.314 112.518ZM152.183 113.33V112.499L156.209 107.329V107.255H152.313V106.239H157.612V107.107L153.698 112.241V112.314H157.742V113.33H152.183ZM159.42 113.33V106.239H160.509V113.33H159.42ZM163.594 109.064V113.33H162.505V106.239H163.557V107.347H163.649C163.816 106.987 164.068 106.698 164.407 106.479C164.745 106.258 165.182 106.147 165.718 106.147C166.198 106.147 166.618 106.245 166.978 106.442C167.338 106.636 167.618 106.932 167.818 107.329C168.018 107.723 168.118 108.221 168.118 108.824V113.33H167.029V108.898C167.029 108.341 166.884 107.907 166.595 107.596C166.306 107.282 165.908 107.125 165.404 107.125C165.056 107.125 164.745 107.201 164.471 107.352C164.2 107.502 163.986 107.723 163.83 108.012C163.673 108.301 163.594 108.652 163.594 109.064ZM170.903 113.404C170.675 113.404 170.48 113.322 170.317 113.159C170.154 112.996 170.072 112.801 170.072 112.573C170.072 112.345 170.154 112.15 170.317 111.987C170.48 111.824 170.675 111.742 170.903 111.742C171.131 111.742 171.326 111.824 171.489 111.987C171.653 112.15 171.734 112.345 171.734 112.573C171.734 112.724 171.696 112.862 171.619 112.988C171.545 113.115 171.445 113.216 171.319 113.293C171.196 113.367 171.057 113.404 170.903 113.404Z" fill="#737373"/>
</g>
<path d="M20.484 149.66H19.261L22.0091 142.024H23.3402L26.0882 149.66H24.8652L22.7063 143.411H22.6467L20.484 149.66ZM20.6891 146.67H24.6564V147.639H20.6891V146.67ZM33.4496 144.507H32.2863C32.2415 144.258 32.1583 144.04 32.0365 143.851C31.9146 143.662 31.7655 143.501 31.589 143.37C31.4125 143.238 31.2149 143.138 30.9961 143.071C30.7799 143.004 30.5499 142.971 30.3063 142.971C29.8664 142.971 29.4724 143.081 29.1243 143.303C28.7788 143.524 28.5054 143.848 28.304 144.276C28.1052 144.703 28.0057 145.225 28.0057 145.842C28.0057 146.463 28.1052 146.988 28.304 147.415C28.5054 147.843 28.7801 148.166 29.1281 148.385C29.4761 148.604 29.8676 148.713 30.3026 148.713C30.5437 148.713 30.7724 148.681 30.9887 148.616C31.2074 148.549 31.4051 148.451 31.5816 148.321C31.758 148.192 31.9072 148.034 32.029 147.848C32.1533 147.659 32.239 147.443 32.2863 147.199L33.4496 147.203C33.3875 147.578 33.2669 147.924 33.0879 148.239C32.9115 148.553 32.684 148.824 32.4056 149.052C32.1297 149.278 31.814 149.454 31.4585 149.578C31.103 149.702 30.7153 149.764 30.2952 149.764C29.6339 149.764 29.0448 149.608 28.5278 149.295C28.0107 148.979 27.603 148.528 27.3047 147.941C27.0089 147.354 26.861 146.655 26.861 145.842C26.861 145.026 27.0102 144.327 27.3085 143.743C27.6068 143.156 28.0144 142.706 28.5315 142.393C29.0485 142.077 29.6364 141.919 30.2952 141.919C30.7003 141.919 31.0782 141.978 31.4287 142.094C31.7817 142.209 32.0986 142.378 32.3795 142.602C32.6604 142.823 32.8928 143.094 33.0768 143.414C33.2607 143.733 33.385 144.097 33.4496 144.507ZM29.9036 149.671H30.6345L30.5748 149.977C30.7911 150.012 30.98 150.099 31.1416 150.238C31.3031 150.377 31.3839 150.587 31.3839 150.868C31.3864 151.204 31.241 151.476 30.9477 151.685C30.6568 151.893 30.2355 151.998 29.6836 151.998L29.6613 151.375C29.9198 151.375 30.1286 151.338 30.2877 151.263C30.4493 151.189 30.5313 151.068 30.5338 150.902C30.5363 150.735 30.4741 150.618 30.3474 150.551C30.2231 150.484 30.0242 150.437 29.7508 150.409L29.9036 149.671ZM36.2555 142.024V149.66H35.1033V142.024H36.2555ZM38.2084 149.66V142.024H39.3606V145.67H39.4538L42.6567 142.024H44.1072L41.0273 145.461L44.1184 149.66H42.7313L40.2629 146.248L39.3606 147.285V149.66H38.2084ZM45.456 149.66V142.024H46.6082V148.668H50.0684V149.66H45.456ZM52.6925 149.66H51.4695L54.2176 142.024H55.5487L58.2967 149.66H57.0737L54.9148 143.411H54.8552L52.6925 149.66ZM52.8976 146.67H56.8649V147.639H52.8976V146.67ZM59.6745 142.024H61.0728L63.5039 147.96H63.5934L66.0245 142.024H67.4227V149.66H66.3265V144.134H66.2556L64.0035 149.649H63.0937L60.8416 144.13H60.7707V149.66H59.6745V142.024ZM70.0179 149.66H68.7949L71.5429 142.024H72.8741L75.6221 149.66H74.3991L72.2402 143.411H72.1805L70.0179 149.66ZM70.223 146.67H74.1903V147.639H70.223V146.67Z" fill="#A1A1A1"/>
<rect x="17" y="160.66" width="582" height="34.66" rx="8" fill="#171717" fill-opacity="0.6"/>
<rect x="17.5" y="161.16" width="581" height="33.66" rx="7.5" stroke="white" stroke-opacity="0.1"/>
<g clip-path="url(#clip2_2_2)">
<path d="M31.1993 183H29.999L33.4706 173.545H34.6524L38.124 183H36.9237L34.0984 175.041H34.0246L31.1993 183ZM31.6425 179.307H36.4805V180.322H31.6425V179.307ZM42.3296 183.148C41.6649 183.148 41.0924 182.991 40.6123 182.677C40.1322 182.363 39.7629 181.931 39.5043 181.38C39.2458 180.829 39.1166 180.199 39.1166 179.491C39.1166 178.771 39.2489 178.136 39.5136 177.585C39.7813 177.031 40.1537 176.598 40.6308 176.288C41.1109 175.974 41.671 175.817 42.3112 175.817C42.8097 175.817 43.2591 175.909 43.6592 176.094C44.0593 176.278 44.387 176.537 44.6425 176.869C44.8979 177.202 45.0564 177.589 45.118 178.033H44.0285C43.9454 177.71 43.7607 177.423 43.4745 177.174C43.1914 176.922 42.8097 176.795 42.3296 176.795C41.9049 176.795 41.5325 176.906 41.2124 177.128C40.8954 177.346 40.6477 177.656 40.4692 178.056C40.2938 178.453 40.206 178.919 40.206 179.455C40.206 180.002 40.2922 180.479 40.4646 180.886C40.64 181.292 40.8862 181.607 41.2032 181.832C41.5233 182.057 41.8988 182.169 42.3296 182.169C42.6128 182.169 42.8698 182.12 43.1006 182.021C43.3314 181.923 43.5268 181.781 43.6869 181.597C43.8469 181.412 43.9608 181.19 44.0285 180.932H45.118C45.0564 181.35 44.9041 181.727 44.6609 182.063C44.4209 182.395 44.1024 182.66 43.7053 182.857C43.3114 183.051 42.8528 183.148 42.3296 183.148ZM41.8126 182.963H42.7174L42.6435 183.332C42.8836 183.369 43.1037 183.469 43.3037 183.632C43.5037 183.799 43.6038 184.062 43.6038 184.422C43.6038 184.819 43.4391 185.142 43.1098 185.391C42.7836 185.644 42.3019 185.77 41.6649 185.77L41.6279 185.05C41.9141 185.05 42.1511 185.004 42.3389 184.911C42.5297 184.822 42.6251 184.671 42.6251 184.459C42.6251 184.246 42.5466 184.102 42.3896 184.025C42.2327 183.948 41.9788 183.896 41.6279 183.868L41.8126 182.963ZM46.7107 183V175.909H47.8001V183H46.7107ZM50.8112 180.415L50.7928 179.067H51.0144L54.1166 175.909H55.4647L52.1593 179.251H52.0669L50.8112 180.415ZM49.7956 183V173.545H50.8851V183H49.7956ZM54.3013 183L51.5314 179.491L52.307 178.734L55.6862 183H54.3013ZM57.9564 173.545V183H56.8669V173.545H57.9564ZM62.0385 183.166C61.5892 183.166 61.1814 183.082 60.8152 182.912C60.4489 182.74 60.1581 182.492 59.9426 182.169C59.7272 181.843 59.6195 181.449 59.6195 180.987C59.6195 180.581 59.6995 180.252 59.8595 179.999C60.0196 179.744 60.2335 179.544 60.5012 179.399C60.769 179.254 61.0644 179.147 61.3876 179.076C61.7138 179.002 62.0416 178.944 62.3709 178.901C62.8018 178.845 63.1511 178.804 63.4188 178.776C63.6897 178.745 63.8866 178.694 64.0098 178.624C64.1359 178.553 64.199 178.43 64.199 178.254V178.217C64.199 177.762 64.0744 177.408 63.8251 177.156C63.5789 176.903 63.2049 176.777 62.7033 176.777C62.1832 176.777 61.7754 176.891 61.4799 177.119C61.1845 177.346 60.9767 177.589 60.8567 177.848L59.8226 177.479C60.0073 177.048 60.2535 176.712 60.5612 176.472C60.8721 176.229 61.2106 176.06 61.5769 175.964C61.9462 175.866 62.3094 175.817 62.6664 175.817C62.8941 175.817 63.1557 175.844 63.4512 175.9C63.7497 175.952 64.0375 176.061 64.3144 176.228C64.5945 176.394 64.8269 176.645 65.0115 176.98C65.1962 177.316 65.2885 177.765 65.2885 178.328V183H64.199V182.04H64.1436C64.0698 182.194 63.9467 182.358 63.7743 182.534C63.602 182.709 63.3727 182.858 63.0865 182.982C62.8002 183.105 62.4509 183.166 62.0385 183.166ZM62.2047 182.188C62.6356 182.188 62.9987 182.103 63.2942 181.934C63.5927 181.764 63.8174 181.546 63.9682 181.278C64.1221 181.01 64.199 180.729 64.199 180.433V179.436C64.1529 179.491 64.0513 179.542 63.8943 179.588C63.7405 179.632 63.562 179.67 63.3588 179.704C63.1588 179.735 62.9634 179.762 62.7725 179.787C62.5848 179.808 62.4325 179.827 62.3155 179.842C62.0324 179.879 61.7677 179.939 61.5215 180.022C61.2783 180.102 61.0814 180.224 60.9306 180.387C60.7828 180.547 60.709 180.766 60.709 181.043C60.709 181.421 60.849 181.707 61.1291 181.901C61.4122 182.092 61.7708 182.188 62.2047 182.188ZM67.2771 183V175.909H68.3296V177.017H68.422C68.5697 176.638 68.8082 176.345 69.1375 176.135C69.4668 175.923 69.8623 175.817 70.3239 175.817C70.7917 175.817 71.1811 175.923 71.4919 176.135C71.8058 176.345 72.0505 176.638 72.2259 177.017H72.2998C72.4814 176.651 72.7537 176.36 73.1169 176.145C73.4801 175.926 73.9156 175.817 74.4234 175.817C75.0574 175.817 75.576 176.015 75.9791 176.412C76.3823 176.806 76.5839 177.42 76.5839 178.254V183H75.4944V178.254C75.4944 177.731 75.3513 177.357 75.0651 177.132C74.7788 176.908 74.4418 176.795 74.0541 176.795C73.5555 176.795 73.1692 176.946 72.8953 177.248C72.6214 177.546 72.4845 177.925 72.4845 178.384V183H71.3765V178.143C71.3765 177.74 71.2457 177.416 70.9841 177.169C70.7225 176.92 70.3855 176.795 69.9731 176.795C69.6899 176.795 69.4253 176.871 69.1791 177.022C68.9359 177.172 68.739 177.382 68.5881 177.65C68.4404 177.914 68.3666 178.22 68.3666 178.568V183H67.2771ZM80.6625 183.166C80.2132 183.166 79.8054 183.082 79.4392 182.912C79.0729 182.74 78.7821 182.492 78.5667 182.169C78.3512 181.843 78.2435 181.449 78.2435 180.987C78.2435 180.581 78.3235 180.252 78.4836 179.999C78.6436 179.744 78.8575 179.544 79.1253 179.399C79.393 179.254 79.6885 179.147 80.0116 179.076C80.3378 179.002 80.6656 178.944 80.9949 178.901C81.4258 178.845 81.7751 178.804 82.0429 178.776C82.3137 178.745 82.5107 178.694 82.6338 178.624C82.76 178.553 82.8231 178.43 82.8231 178.254V178.217C82.8231 177.762 82.6984 177.408 82.4491 177.156C82.2029 176.903 81.829 176.777 81.3273 176.777C80.8072 176.777 80.3994 176.891 80.1039 177.119C79.8085 177.346 79.6008 177.589 79.4807 177.848L78.4466 177.479C78.6313 177.048 78.8775 176.712 79.1853 176.472C79.4961 176.229 79.8347 176.06 80.2009 175.964C80.5702 175.866 80.9334 175.817 81.2904 175.817C81.5181 175.817 81.7797 175.844 82.0752 175.9C82.3737 175.952 82.6615 176.061 82.9385 176.228C83.2185 176.394 83.4509 176.645 83.6356 176.98C83.8202 177.316 83.9125 177.765 83.9125 178.328V183H82.8231V182.04H82.7677C82.6938 182.194 82.5707 182.358 82.3983 182.534C82.226 182.709 81.9967 182.858 81.7105 182.982C81.4243 183.105 81.0749 183.166 80.6625 183.166ZM80.8287 182.188C81.2596 182.188 81.6228 182.103 81.9182 181.934C82.2168 181.764 82.4414 181.546 82.5922 181.278C82.7461 181.01 82.8231 180.729 82.8231 180.433V179.436C82.7769 179.491 82.6753 179.542 82.5184 179.588C82.3645 179.632 82.186 179.67 81.9829 179.704C81.7828 179.735 81.5874 179.762 81.3966 179.787C81.2088 179.808 81.0565 179.827 80.9395 179.842C80.6564 179.879 80.3917 179.939 80.1455 180.022C79.9024 180.102 79.7054 180.224 79.5546 180.387C79.4069 180.547 79.333 180.766 79.333 181.043C79.333 181.421 79.473 181.707 79.7531 181.901C80.0362 182.092 80.3948 182.188 80.8287 182.188ZM86.9906 178.734V183H85.9011V175.909H86.9536V177.017H87.046C87.2122 176.657 87.4645 176.368 87.8031 176.149C88.1416 175.928 88.5786 175.817 89.1142 175.817C89.5943 175.817 90.0144 175.915 90.3745 176.112C90.7345 176.306 91.0146 176.602 91.2147 176.999C91.4147 177.393 91.5147 177.891 91.5147 178.494V183H90.4252V178.568C90.4252 178.011 90.2806 177.577 89.9913 177.266C89.702 176.952 89.305 176.795 88.8002 176.795C88.4525 176.795 88.1416 176.871 87.8677 177.022C87.5969 177.172 87.383 177.393 87.226 177.682C87.0691 177.971 86.9906 178.322 86.9906 178.734ZM93.5056 183V175.909H94.5951V183H93.5056ZM96.3874 183V182.169L100.413 176.999V176.925H96.5167V175.909H101.816V176.777L97.9016 181.911V181.984H101.946V183H96.3874ZM103.624 183V175.909H104.713V183H103.624ZM110.513 183V173.545H111.602V177.036H111.695C111.775 176.912 111.885 176.755 112.027 176.565C112.172 176.371 112.378 176.198 112.645 176.048C112.916 175.894 113.283 175.817 113.744 175.817C114.341 175.817 114.868 175.966 115.323 176.265C115.779 176.563 116.134 176.986 116.389 177.534C116.645 178.082 116.773 178.728 116.773 179.473C116.773 180.224 116.645 180.875 116.389 181.426C116.134 181.974 115.78 182.398 115.328 182.7C114.875 182.998 114.354 183.148 113.763 183.148C113.307 183.148 112.942 183.072 112.669 182.922C112.395 182.768 112.184 182.594 112.036 182.4C111.888 182.203 111.775 182.04 111.695 181.911H111.565V183H110.513ZM111.584 179.455C111.584 179.99 111.662 180.462 111.819 180.872C111.976 181.278 112.205 181.597 112.507 181.827C112.809 182.055 113.178 182.169 113.615 182.169C114.07 182.169 114.451 182.049 114.755 181.809C115.063 181.566 115.294 181.24 115.448 180.83C115.605 180.418 115.683 179.959 115.683 179.455C115.683 178.956 115.606 178.507 115.452 178.107C115.302 177.703 115.072 177.385 114.764 177.151C114.46 176.914 114.077 176.795 113.615 176.795C113.172 176.795 112.799 176.908 112.498 177.132C112.196 177.354 111.968 177.665 111.815 178.065C111.661 178.462 111.584 178.925 111.584 179.455ZM122.908 180.101V175.909H123.997V183H122.908V181.8H122.834C122.668 182.16 122.409 182.466 122.058 182.718C121.708 182.968 121.264 183.092 120.729 183.092C120.286 183.092 119.892 182.995 119.547 182.801C119.202 182.605 118.932 182.309 118.735 181.915C118.538 181.518 118.439 181.018 118.439 180.415V175.909H119.529V180.341C119.529 180.858 119.673 181.27 119.963 181.578C120.255 181.886 120.627 182.04 121.08 182.04C121.351 182.04 121.626 181.971 121.906 181.832C122.189 181.694 122.426 181.481 122.617 181.195C122.811 180.909 122.908 180.544 122.908 180.101ZM125.993 183V175.909H127.045V176.98H127.119C127.249 176.629 127.482 176.345 127.821 176.126C128.16 175.908 128.541 175.798 128.966 175.798C129.046 175.798 129.146 175.8 129.266 175.803C129.386 175.806 129.477 175.811 129.538 175.817V176.925C129.501 176.915 129.417 176.902 129.284 176.883C129.155 176.862 129.018 176.851 128.874 176.851C128.529 176.851 128.221 176.923 127.95 177.068C127.683 177.209 127.47 177.406 127.313 177.659C127.159 177.908 127.082 178.193 127.082 178.513V183H125.993ZM132.916 183.166C132.467 183.166 132.059 183.082 131.693 182.912C131.327 182.74 131.036 182.492 130.821 182.169C130.605 181.843 130.497 181.449 130.497 180.987C130.497 180.581 130.577 180.252 130.737 179.999C130.898 179.744 131.111 179.544 131.379 179.399C131.647 179.254 131.942 179.147 132.266 179.076C132.592 179.002 132.92 178.944 133.249 178.901C133.68 178.845 134.029 178.804 134.297 178.776C134.568 178.745 134.765 178.694 134.888 178.624C135.014 178.553 135.077 178.43 135.077 178.254V178.217C135.077 177.762 134.952 177.408 134.703 177.156C134.457 176.903 134.083 176.777 133.581 176.777C133.061 176.777 132.653 176.891 132.358 177.119C132.062 177.346 131.855 177.589 131.735 177.848L130.701 177.479C130.885 177.048 131.131 176.712 131.439 176.472C131.75 176.229 132.089 176.06 132.455 175.964C132.824 175.866 133.187 175.817 133.544 175.817C133.772 175.817 134.034 175.844 134.329 175.9C134.628 175.952 134.915 176.061 135.192 176.228C135.472 176.394 135.705 176.645 135.889 176.98C136.074 177.316 136.166 177.765 136.166 178.328V183H135.077V182.04H135.022C134.948 182.194 134.825 182.358 134.652 182.534C134.48 182.709 134.251 182.858 133.964 182.982C133.678 183.105 133.329 183.166 132.916 183.166ZM133.083 182.188C133.514 182.188 133.877 182.103 134.172 181.934C134.471 181.764 134.695 181.546 134.846 181.278C135 181.01 135.077 180.729 135.077 180.433V179.436C135.031 179.491 134.929 179.542 134.772 179.588C134.618 179.632 134.44 179.67 134.237 179.704C134.037 179.735 133.841 179.762 133.65 179.787C133.463 179.808 133.31 179.827 133.193 179.842C132.91 179.879 132.646 179.939 132.399 180.022C132.156 180.102 131.959 180.224 131.808 180.387C131.661 180.547 131.587 180.766 131.587 181.043C131.587 181.421 131.727 181.707 132.007 181.901C132.29 182.092 132.649 182.188 133.083 182.188ZM138.603 185.659C138.418 185.659 138.253 185.644 138.109 185.613C137.964 185.585 137.864 185.558 137.809 185.53L138.086 184.57C138.35 184.637 138.584 184.662 138.787 184.643C138.991 184.625 139.171 184.534 139.328 184.371C139.488 184.211 139.634 183.951 139.766 183.591L139.969 183.037L137.347 175.909H138.529L140.486 181.56H140.56L142.518 175.909H143.699L140.689 184.034C140.554 184.4 140.386 184.703 140.186 184.944C139.986 185.187 139.754 185.367 139.489 185.484C139.228 185.601 138.932 185.659 138.603 185.659ZM147.008 183.166C146.559 183.166 146.151 183.082 145.785 182.912C145.419 182.74 145.128 182.492 144.912 182.169C144.697 181.843 144.589 181.449 144.589 180.987C144.589 180.581 144.669 180.252 144.829 179.999C144.989 179.744 145.203 179.544 145.471 179.399C145.739 179.254 146.034 179.147 146.357 179.076C146.684 179.002 147.011 178.944 147.341 178.901C147.772 178.845 148.121 178.804 148.389 178.776C148.659 178.745 148.856 178.694 148.979 178.624C149.106 178.553 149.169 178.43 149.169 178.254V178.217C149.169 177.762 149.044 177.408 148.795 177.156C148.549 176.903 148.175 176.777 147.673 176.777C147.153 176.777 146.745 176.891 146.45 177.119C146.154 177.346 145.946 177.589 145.826 177.848L144.792 177.479C144.977 177.048 145.223 176.712 145.531 176.472C145.842 176.229 146.18 176.06 146.547 175.964C146.916 175.866 147.279 175.817 147.636 175.817C147.864 175.817 148.125 175.844 148.421 175.9C148.719 175.952 149.007 176.061 149.284 176.228C149.564 176.394 149.797 176.645 149.981 176.98C150.166 177.316 150.258 177.765 150.258 178.328V183H149.169V182.04H149.113C149.039 182.194 148.916 182.358 148.744 182.534C148.572 182.709 148.342 182.858 148.056 182.982C147.77 183.105 147.421 183.166 147.008 183.166ZM147.174 182.188C147.605 182.188 147.968 182.103 148.264 181.934C148.562 181.764 148.787 181.546 148.938 181.278C149.092 181.01 149.169 180.729 149.169 180.433V179.436C149.123 179.491 149.021 179.542 148.864 179.588C148.71 179.632 148.532 179.67 148.329 179.704C148.129 179.735 147.933 179.762 147.742 179.787C147.555 179.808 147.402 179.827 147.285 179.842C147.002 179.879 146.737 179.939 146.491 180.022C146.248 180.102 146.051 180.224 145.9 180.387C145.753 180.547 145.679 180.766 145.679 181.043C145.679 181.421 145.819 181.707 146.099 181.901C146.382 182.092 146.74 182.188 147.174 182.188ZM156.605 185.659C156.42 185.659 156.255 185.644 156.111 185.613C155.966 185.585 155.866 185.558 155.811 185.53L156.088 184.57C156.352 184.637 156.586 184.662 156.789 184.643C156.993 184.625 157.173 184.534 157.33 184.371C157.49 184.211 157.636 183.951 157.768 183.591L157.971 183.037L155.349 175.909H156.531L158.488 181.56H158.562L160.52 175.909H161.701L158.691 184.034C158.556 184.4 158.388 184.703 158.188 184.944C157.988 185.187 157.756 185.367 157.491 185.484C157.23 185.601 156.934 185.659 156.605 185.659ZM165.01 183.166C164.561 183.166 164.153 183.082 163.787 182.912C163.421 182.74 163.13 182.492 162.914 182.169C162.699 181.843 162.591 181.449 162.591 180.987C162.591 180.581 162.671 180.252 162.831 179.999C162.991 179.744 163.205 179.544 163.473 179.399C163.741 179.254 164.036 179.147 164.359 179.076C164.686 179.002 165.013 178.944 165.343 178.901C165.773 178.845 166.123 178.804 166.391 178.776C166.661 178.745 166.858 178.694 166.981 178.624C167.108 178.553 167.171 178.43 167.171 178.254V178.217C167.171 177.762 167.046 177.408 166.797 177.156C166.551 176.903 166.177 176.777 165.675 176.777C165.155 176.777 164.747 176.891 164.452 177.119C164.156 177.346 163.948 177.589 163.828 177.848L162.794 177.479C162.979 177.048 163.225 176.712 163.533 176.472C163.844 176.229 164.182 176.06 164.549 175.964C164.918 175.866 165.281 175.817 165.638 175.817C165.866 175.817 166.127 175.844 166.423 175.9C166.721 175.952 167.009 176.061 167.286 176.228C167.566 176.394 167.799 176.645 167.983 176.98C168.168 177.316 168.26 177.765 168.26 178.328V183H167.171V182.04H167.115C167.041 182.194 166.918 182.358 166.746 182.534C166.574 182.709 166.344 182.858 166.058 182.982C165.772 183.105 165.423 183.166 165.01 183.166ZM165.176 182.188C165.607 182.188 165.97 182.103 166.266 181.934C166.564 181.764 166.789 181.546 166.94 181.278C167.094 181.01 167.171 180.729 167.171 180.433V179.436C167.125 179.491 167.023 179.542 166.866 179.588C166.712 179.632 166.534 179.67 166.331 179.704C166.13 179.735 165.935 179.762 165.744 179.787C165.556 179.808 165.404 179.827 165.287 179.842C165.004 179.879 164.739 179.939 164.493 180.022C164.25 180.102 164.053 180.224 163.902 180.387C163.755 180.547 163.681 180.766 163.681 181.043C163.681 181.421 163.821 181.707 164.101 181.901C164.384 182.092 164.742 182.188 165.176 182.188ZM170.046 183V182.169L174.071 176.999V176.925H170.175V175.909H175.475V176.777L171.56 181.911V181.984H175.604V183H170.046ZM177.282 183V175.909H178.371V183H177.282ZM181.456 178.734V183H180.367V175.909H181.419V177.017H181.512C181.678 176.657 181.93 176.368 182.269 176.149C182.607 175.928 183.044 175.817 183.58 175.817C184.06 175.817 184.48 175.915 184.84 176.112C185.2 176.306 185.48 176.602 185.68 176.999C185.881 177.393 185.981 177.891 185.981 178.494V183H184.891V178.568C184.891 178.011 184.746 177.577 184.457 177.266C184.168 176.952 183.771 176.795 183.266 176.795C182.918 176.795 182.607 176.871 182.334 177.022C182.063 177.172 181.849 177.393 181.692 177.682C181.535 177.971 181.456 178.322 181.456 178.734ZM188.765 183.074C188.538 183.074 188.342 182.992 188.179 182.829C188.016 182.666 187.934 182.471 187.934 182.243C187.934 182.015 188.016 181.82 188.179 181.657C188.342 181.493 188.538 181.412 188.765 181.412C188.993 181.412 189.189 181.493 189.352 181.657C189.515 181.82 189.596 182.015 189.596 182.243C189.596 182.394 189.558 182.532 189.481 182.658C189.407 182.785 189.307 182.886 189.181 182.963C189.058 183.037 188.919 183.074 188.765 183.074Z" fill="#737373"/>
</g>
<path d="M20.484 219.32H19.261L22.0091 211.684H23.3402L26.0882 219.32H24.8652L22.7063 213.071H22.6467L20.484 219.32ZM20.6891 216.33H24.6564V217.299H20.6891V216.33ZM33.4496 214.167H32.2863C32.2415 213.918 32.1583 213.7 32.0365 213.511C31.9146 213.322 31.7655 213.161 31.589 213.03C31.4125 212.898 31.2149 212.799 30.9961 212.731C30.7799 212.664 30.5499 212.631 30.3063 212.631C29.8664 212.631 29.4724 212.741 29.1243 212.963C28.7788 213.184 28.5054 213.508 28.304 213.936C28.1052 214.363 28.0057 214.885 28.0057 215.502C28.0057 216.123 28.1052 216.648 28.304 217.075C28.5054 217.503 28.7801 217.826 29.1281 218.045C29.4761 218.264 29.8676 218.373 30.3026 218.373C30.5437 218.373 30.7724 218.341 30.9887 218.276C31.2074 218.209 31.4051 218.111 31.5816 217.981C31.758 217.852 31.9072 217.694 32.029 217.508C32.1533 217.319 32.239 217.103 32.2863 216.859L33.4496 216.863C33.3875 217.238 33.2669 217.584 33.0879 217.899C32.9115 218.213 32.684 218.484 32.4056 218.712C32.1297 218.938 31.814 219.114 31.4585 219.238C31.103 219.362 30.7153 219.424 30.2952 219.424C29.6339 219.424 29.0448 219.268 28.5278 218.955C28.0107 218.639 27.603 218.188 27.3047 217.601C27.0089 217.014 26.861 216.315 26.861 215.502C26.861 214.686 27.0102 213.987 27.3085 213.403C27.6068 212.816 28.0144 212.366 28.5315 212.053C29.0485 211.737 29.6364 211.579 30.2952 211.579C30.7003 211.579 31.0782 211.638 31.4287 211.754C31.7817 211.869 32.0986 212.038 32.3795 212.262C32.6604 212.483 32.8928 212.754 33.0768 213.074C33.2607 213.393 33.385 213.757 33.4496 214.167ZM29.9036 219.331H30.6345L30.5748 219.637C30.7911 219.672 30.98 219.759 31.1416 219.898C31.3031 220.037 31.3839 220.247 31.3839 220.528C31.3864 220.864 31.241 221.136 30.9477 221.345C30.6568 221.553 30.2355 221.658 29.6836 221.658L29.6613 221.035C29.9198 221.035 30.1286 220.998 30.2877 220.923C30.4493 220.849 30.5313 220.728 30.5338 220.562C30.5363 220.395 30.4741 220.278 30.3474 220.211C30.2231 220.144 30.0242 220.097 29.7508 220.069L29.9036 219.331ZM36.2555 211.684V219.32H35.1033V211.684H36.2555ZM38.2084 219.32V211.684H39.3606V215.33H39.4538L42.6567 211.684H44.1072L41.0273 215.121L44.1184 219.32H42.7313L40.2629 215.908L39.3606 216.945V219.32H38.2084ZM48.5099 211.684H49.9081L52.3392 217.62H52.4287L54.8598 211.684H56.2581V219.32H55.1618V213.794H55.091L52.8389 219.309H51.9291L49.6769 213.79H49.6061V219.32H48.5099V211.684ZM58.2082 219.32V211.684H62.9958V212.675H59.3604V215.002H62.746V215.99H59.3604V218.328H63.0406V219.32H58.2082ZM64.4333 212.675V211.684H70.3432V212.675H67.9606V219.32H66.8122V212.675H64.4333ZM78.0877 211.684V219.32H77.0288L73.1472 213.72H73.0764V219.32H71.9242V211.684H72.9906L76.8759 217.292H76.9468V211.684H78.0877ZM81.1956 211.684V219.32H80.0434V211.684H81.1956Z" fill="#A1A1A1"/>
<rect x="17" y="230.32" width="285" height="37.3333" rx="8" fill="#171717" fill-opacity="0.6"/>
<rect x="17.5" y="230.82" width="284" height="36.3333" rx="7.5" stroke="white" stroke-opacity="0.1"/>
<g clip-path="url(#clip3_2_2)">
<path d="M30.7675 253.987V244.896H36.254V245.872H31.8683V248.944H35.9699V249.921H31.8683V253.01H36.325V253.987H30.7675ZM43.6714 247.169L41.1501 253.987H40.0848L37.5635 247.169H38.6998L40.5819 252.602H40.653L42.5351 247.169H43.6714ZM47.6687 254.129C47.0117 254.129 46.445 253.984 45.9686 253.694C45.4951 253.401 45.1296 252.992 44.8721 252.469C44.6176 251.942 44.4904 251.329 44.4904 250.631C44.4904 249.932 44.6176 249.317 44.8721 248.784C45.1296 248.249 45.4877 247.831 45.9464 247.533C46.408 247.231 46.9466 247.08 47.5621 247.08C47.9172 247.08 48.2679 247.139 48.6142 247.257C48.9604 247.376 49.2756 247.568 49.5596 247.834C49.8437 248.098 50.0701 248.447 50.2388 248.882C50.4075 249.317 50.4918 249.853 50.4918 250.489V250.933H45.2361V250.027H49.4265C49.4265 249.642 49.3495 249.299 49.1957 248.997C49.0447 248.696 48.8287 248.457 48.5476 248.283C48.2694 248.108 47.9409 248.021 47.5621 248.021C47.1449 248.021 46.7838 248.124 46.479 248.332C46.1772 248.536 45.9449 248.802 45.7821 249.131C45.6194 249.459 45.538 249.811 45.538 250.187V250.791C45.538 251.306 45.6268 251.742 45.8043 252.1C45.9848 252.455 46.2349 252.726 46.5545 252.912C46.8741 253.096 47.2455 253.188 47.6687 253.188C47.9439 253.188 48.1925 253.149 48.4144 253.072C48.6393 252.992 48.8331 252.874 48.9959 252.717C49.1587 252.557 49.2844 252.359 49.3732 252.122L50.3853 252.406C50.2788 252.75 50.0997 253.052 49.8482 253.312C49.5966 253.569 49.2859 253.771 48.916 253.916C48.5461 254.058 48.1303 254.129 47.6687 254.129ZM55.0506 247.169V248.056H51.5172V247.169H55.0506ZM52.547 245.535H53.5946V252.034C53.5946 252.329 53.6375 252.551 53.7234 252.699C53.8121 252.844 53.9246 252.942 54.0607 252.992C54.1998 253.04 54.3463 253.063 54.5002 253.063C54.6156 253.063 54.7103 253.057 54.7843 253.046C54.8582 253.031 54.9174 253.019 54.9618 253.01L55.1749 253.951C55.1039 253.978 55.0047 254.004 54.8775 254.031C54.7502 254.061 54.5889 254.075 54.3936 254.075C54.0977 254.075 53.8077 254.012 53.5236 253.885C53.2425 253.757 53.0087 253.564 52.8223 253.303C52.6388 253.043 52.547 252.714 52.547 252.318V245.535Z" fill="#F5F5F5"/>
</g>
<path d="M316.839 219.32V211.684H317.991V215.33H318.084L321.287 211.684H322.738L319.658 215.121L322.749 219.32H321.362L318.893 215.908L317.991 216.945V219.32H316.839ZM324.732 219.32H323.509L326.257 211.684H327.588L330.336 219.32H329.113L326.954 213.071H326.894L324.732 219.32ZM324.937 216.33H328.904V217.299H324.937V216.33ZM331.714 219.32V211.684H334.436C335.03 211.684 335.522 211.792 335.912 212.008C336.302 212.224 336.595 212.52 336.788 212.895C336.982 213.268 337.079 213.688 337.079 214.156C337.079 214.626 336.981 215.048 336.785 215.424C336.591 215.796 336.297 216.092 335.905 216.311C335.514 216.527 335.023 216.635 334.432 216.635H332.56V215.658H334.327C334.703 215.658 335.007 215.594 335.241 215.465C335.475 215.333 335.646 215.154 335.756 214.928C335.865 214.701 335.92 214.444 335.92 214.156C335.92 213.867 335.865 213.611 335.756 213.388C335.646 213.164 335.473 212.989 335.237 212.862C335.004 212.735 334.695 212.672 334.313 212.672H332.866V219.32H331.714ZM338.54 219.32H337.317L340.065 211.684H341.396L344.144 219.32H342.921L340.762 213.071H340.703L338.54 219.32ZM338.745 216.33H342.712V217.299H338.745V216.33ZM345.522 219.32V211.684H346.674V218.328H350.134V219.32H345.522ZM352.876 211.684V219.32H351.724V211.684H352.876ZM357.883 211.684H359.281L361.712 217.62H361.801L364.233 211.684H365.631V219.32H364.535V213.794H364.464L362.212 219.309H361.302L359.05 213.79H358.979V219.32H357.883V211.684ZM367.581 219.32V211.684H372.369V212.675H368.733V215.002H372.119V215.99H368.733V218.328H372.413V219.32H367.581ZM373.806 212.675V211.684H379.716V212.675H377.333V219.32H376.185V212.675H373.806ZM387.46 211.684V219.32H386.402L382.52 213.72H382.449V219.32H381.297V211.684H382.363L386.249 217.292H386.32V211.684H387.46ZM390.568 211.684V219.32H389.416V211.684H390.568Z" fill="#A1A1A1"/>
<rect x="314" y="230.32" width="285" height="37.3333" rx="8" fill="#171717" fill-opacity="0.6"/>
<rect x="314.5" y="230.82" width="284" height="36.3333" rx="7.5" stroke="white" stroke-opacity="0.1"/>
<g clip-path="url(#clip4_2_2)">
<path d="M327.82 253.987V244.459H328.974V248.702H334.054V244.459H335.208V253.987H334.054V249.725H328.974V253.987H327.82ZM339.471 254.154C339.018 254.154 338.608 254.069 338.238 253.898C337.869 253.725 337.576 253.475 337.359 253.149C337.142 252.821 337.034 252.424 337.034 251.958C337.034 251.549 337.114 251.217 337.275 250.963C337.437 250.705 337.652 250.504 337.922 250.358C338.192 250.212 338.49 250.104 338.815 250.033C339.144 249.958 339.474 249.899 339.806 249.856C340.24 249.8 340.592 249.758 340.862 249.73C341.135 249.699 341.334 249.648 341.458 249.577C341.585 249.505 341.648 249.381 341.648 249.204V249.167C341.648 248.708 341.523 248.352 341.272 248.097C341.023 247.843 340.647 247.716 340.141 247.716C339.617 247.716 339.206 247.831 338.908 248.06C338.611 248.29 338.401 248.535 338.28 248.795L337.238 248.423C337.424 247.989 337.672 247.651 337.983 247.409C338.296 247.164 338.637 246.993 339.006 246.897C339.378 246.798 339.744 246.748 340.104 246.748C340.333 246.748 340.597 246.776 340.895 246.832C341.196 246.885 341.486 246.995 341.765 247.162C342.047 247.33 342.281 247.582 342.467 247.921C342.653 248.259 342.746 248.711 342.746 249.279V253.987H341.648V253.019H341.593C341.518 253.174 341.394 253.34 341.22 253.517C341.047 253.694 340.816 253.844 340.527 253.968C340.239 254.092 339.887 254.154 339.471 254.154ZM339.639 253.168C340.073 253.168 340.439 253.083 340.737 252.912C341.037 252.742 341.264 252.521 341.416 252.252C341.571 251.982 341.648 251.698 341.648 251.4V250.395C341.602 250.451 341.499 250.502 341.341 250.549C341.186 250.592 341.006 250.631 340.802 250.665C340.6 250.696 340.403 250.724 340.211 250.749C340.022 250.771 339.868 250.789 339.75 250.805C339.465 250.842 339.198 250.902 338.95 250.986C338.705 251.067 338.507 251.189 338.355 251.354C338.206 251.515 338.131 251.735 338.131 252.014C338.131 252.396 338.273 252.684 338.555 252.88C338.84 253.072 339.201 253.168 339.639 253.168ZM345.201 256.666C345.015 256.666 344.849 256.651 344.704 256.62C344.558 256.592 344.457 256.564 344.401 256.536L344.68 255.568C344.947 255.637 345.183 255.661 345.387 255.643C345.592 255.624 345.774 255.533 345.932 255.368C346.093 255.207 346.24 254.945 346.374 254.582L346.578 254.024L343.936 246.841H345.127L347.099 252.535H347.174L349.146 246.841H350.337L347.304 255.029C347.168 255.398 346.999 255.703 346.797 255.945C346.595 256.19 346.361 256.372 346.094 256.489C345.831 256.607 345.533 256.666 345.201 256.666ZM351.786 253.987V246.841H352.884V253.987H351.786ZM354.895 253.987V246.841H355.956V247.921H356.03C356.16 247.567 356.396 247.28 356.737 247.06C357.078 246.84 357.463 246.73 357.891 246.73C357.971 246.73 358.072 246.731 358.193 246.734C358.314 246.737 358.406 246.742 358.468 246.748V247.865C358.43 247.855 358.345 247.841 358.212 247.823C358.082 247.801 357.943 247.79 357.798 247.79C357.45 247.79 357.14 247.863 356.867 248.009C356.598 248.152 356.384 248.35 356.225 248.604C356.07 248.856 355.993 249.142 355.993 249.465V253.987H354.895Z" fill="#F5F5F5"/>
</g>
<defs>
<clipPath id="clip0_2_2">
<rect width="340.333" height="20" fill="white" transform="translate(49 16.1667)"/>
</clipPath>
<clipPath id="clip1_2_2">
<rect width="556.667" height="16" fill="white" transform="translate(29.6666 100.33)"/>
</clipPath>
<clipPath id="clip2_2_2">
<rect width="556.667" height="16" fill="white" transform="translate(29.6666 170)"/>
</clipPath>
<clipPath id="clip3_2_2">
<rect width="259.667" height="20" fill="white" transform="translate(29.6666 238.987)"/>
</clipPath>
<clipPath id="clip4_2_2">
<rect width="259.667" height="20" fill="white" transform="translate(326.667 238.987)"/>
</clipPath>
</defs>
</svg>
